<?xml version="1.0" encoding="UTF-8"?>

<!DOCTYPE svg PUBLIC '-//W3C//DTD SVG 1.0//EN' 'http://www.w3.org/TR/2001/REC-SVG-20010904/DTD/svg10.dtd'>
<svg style="fill-opacity:1; color-rendering:auto; color-interpolation:auto; stroke:black; text-rendering:auto; stroke-linecap:square; stroke-miterlimit:10; stroke-opacity:1; shape-rendering:auto; fill:black; stroke-dasharray:none; font-weight:normal; stroke-width:1; font-family:&apos;Dialog&apos;; font-style:normal; stroke-linejoin:miter; font-size:12; stroke-dashoffset:0; image-rendering:auto;" xmlns="http://www.w3.org/2000/svg" width="216" xmlns:xlink="http://www.w3.org/1999/xlink" height="506">
  <!--Generated by the Batik Graphics2D SVG Generator-->
  <defs id="genericDefs" />
  <g>
    <defs id="defs1">
      <clipPath clipPathUnits="userSpaceOnUse" id="clipPath1">
        <path d="M-3 -3 L47 -3 L47 27 L-3 27 L-3 -3 Z" />
      </clipPath>
      <clipPath clipPathUnits="userSpaceOnUse" id="clipPath2">
        <path d="M-3 -3 L137 -3 L137 47 L-3 47 L-3 -3 Z" />
      </clipPath>
      <clipPath clipPathUnits="userSpaceOnUse" id="clipPath3">
        <path d="M0 0 L130 0 L130 40 L0 40 L0 0 Z" />
      </clipPath>
      <clipPath clipPathUnits="userSpaceOnUse" id="clipPath4">
        <path d="M-3 -3 L28 -3 L28 47 L-3 47 L-3 -3 Z" />
      </clipPath>
      <clipPath clipPathUnits="userSpaceOnUse" id="clipPath5">
        <path d="M-3 -3 L177 -3 L177 57 L-3 57 L-3 -3 Z" />
      </clipPath>
      <clipPath clipPathUnits="userSpaceOnUse" id="clipPath6">
        <path d="M0 0 L170 0 L170 50 L0 50 L0 0 Z" />
      </clipPath>
      <clipPath clipPathUnits="userSpaceOnUse" id="clipPath7">
        <path d="M-3 -3 L27 -3 L27 47 L-3 47 L-3 -3 Z" />
      </clipPath>
      <clipPath clipPathUnits="userSpaceOnUse" id="clipPath8">
        <path d="M-3 -3 L27 -3 L27 27 L-3 27 L-3 -3 Z" />
      </clipPath>
      <clipPath clipPathUnits="userSpaceOnUse" id="clipPath9">
        <path d="M-3 -3 L67 -3 L67 47 L-3 47 L-3 -3 Z" />
      </clipPath>
      <clipPath clipPathUnits="userSpaceOnUse" id="clipPath10">
        <path d="M0 0 L0 40 L60 40 L60 0 Z" />
      </clipPath>
      <clipPath clipPathUnits="userSpaceOnUse" id="clipPath11">
        <path d="M0 0 L104 0 L104 135 L0 135 L0 0 Z" />
      </clipPath>
      <clipPath clipPathUnits="userSpaceOnUse" id="clipPath12">
        <path d="M0 0 L104 0 L104 144 L0 144 L0 0 Z" />
      </clipPath>
      <clipPath clipPathUnits="userSpaceOnUse" id="clipPath13">
        <path d="M0 0 L104 0 L104 143 L0 143 L0 0 Z" />
      </clipPath>
      <clipPath clipPathUnits="userSpaceOnUse" id="clipPath14">
        <path d="M0 0 L218 0 L218 254 L0 254 L0 0 Z" />
      </clipPath>
      <clipPath clipPathUnits="userSpaceOnUse" id="clipPath15">
        <path d="M0 0 L104 0 L104 136 L0 136 L0 0 Z" />
      </clipPath>
      <clipPath clipPathUnits="userSpaceOnUse" id="clipPath16">
        <path d="M0 0 L90 0 L90 18 L0 18 L0 0 Z" />
      </clipPath>
    </defs>
    <g style="fill:white; text-rendering:geometricPrecision; stroke:white;">
      <rect x="0" y="0" width="216" style="stroke:none;" height="506" />
    </g>
    <g style="text-rendering:geometricPrecision; font-size:11; font-family:sans-serif;" transform="translate(72,2)">
      <circle style="clip-path:url(#clipPath1); stroke:none;" r="10" cx="20" cy="10" />
    </g>
    <g transform="translate(32,52)" style="font-size:14; fill:rgb(122,207,245); text-rendering:geometricPrecision; font-family:&apos;標楷體&apos;; stroke:rgb(122,207,245);">
      <rect x="1" y="1" width="128" style="clip-path:url(#clipPath2); stroke:none;" rx="15" ry="15" height="38" />
    </g>
    <g transform="translate(32,52)" style="font-size:14; stroke-linecap:butt; text-rendering:geometricPrecision; font-family:&apos;標楷體&apos;; stroke-linejoin:round; stroke-miterlimit:0;">
      <rect x="1" y="1" width="128" style="clip-path:url(#clipPath2); fill:none;" rx="15" ry="15" height="38" />
    </g>
    <g style="text-rendering:geometricPrecision; font-size:14; font-family:&apos;標楷體&apos;;" transform="translate(32,52)">
      <text x="30" y="27" style="clip-path:url(#clipPath3); stroke:none;" xml:space="preserve">登入管理者</text>
    </g>
    <g transform="translate(32,122)" style="font-size:14; fill:rgb(122,207,245); text-rendering:geometricPrecision; font-family:&apos;標楷體&apos;; stroke:rgb(122,207,245);">
      <rect x="1" y="1" width="128" style="clip-path:url(#clipPath2); stroke:none;" rx="15" ry="15" height="38" />
    </g>
    <g transform="translate(32,122)" style="font-size:14; stroke-linecap:butt; text-rendering:geometricPrecision; font-family:&apos;標楷體&apos;; stroke-linejoin:round; stroke-miterlimit:0;">
      <rect x="1" y="1" width="128" style="clip-path:url(#clipPath2); fill:none;" rx="15" ry="15" height="38" />
    </g>
    <g style="text-rendering:geometricPrecision; font-size:14; font-family:&apos;標楷體&apos;;" transform="translate(32,122)">
      <text x="23" y="27" style="clip-path:url(#clipPath3); stroke:none;" xml:space="preserve">新增狗狗科普</text>
    </g>
    <g transform="translate(82,192)" style="font-size:11; fill:rgb(122,207,245); text-rendering:geometricPrecision; font-family:sans-serif; stroke:rgb(122,207,245);">
      <polygon style="clip-path:url(#clipPath4); stroke:none;" points=" 10 7 18 20 10 32 3 20" />
    </g>
    <g transform="translate(82,192)" style="font-size:11; stroke-linecap:butt; text-rendering:geometricPrecision; font-family:sans-serif; stroke-linejoin:round; stroke-miterlimit:0;">
      <polygon style="fill:none; clip-path:url(#clipPath4);" points=" 10 7 18 20 10 32 3 20" />
    </g>
    <g transform="translate(2,262)" style="font-size:14; fill:rgb(122,207,245); text-rendering:geometricPrecision; font-family:&apos;標楷體&apos;; stroke:rgb(122,207,245);">
      <rect x="1" y="1" width="168" style="clip-path:url(#clipPath5); stroke:none;" rx="15" ry="15" height="48" />
    </g>
    <g transform="translate(2,262)" style="font-size:14; stroke-linecap:butt; text-rendering:geometricPrecision; font-family:&apos;標楷體&apos;; stroke-linejoin:round; stroke-miterlimit:0;">
      <rect x="1" y="1" width="168" style="clip-path:url(#clipPath5); fill:none;" rx="15" ry="15" height="48" />
    </g>
    <g style="text-rendering:geometricPrecision; font-size:14; font-family:&apos;標楷體&apos;;" transform="translate(2,262)">
      <text x="29" y="32" style="clip-path:url(#clipPath6); stroke:none;" xml:space="preserve">輸入狗狗科普文章</text>
    </g>
    <g transform="translate(82,342)" style="font-size:11; fill:rgb(122,207,245); text-rendering:geometricPrecision; font-family:sans-serif; stroke:rgb(122,207,245);">
      <polygon style="clip-path:url(#clipPath7); stroke:none;" points=" 10 7 17 20 10 32 3 20" />
    </g>
    <g transform="translate(82,342)" style="font-size:11; stroke-linecap:butt; text-rendering:geometricPrecision; font-family:sans-serif; stroke-linejoin:round; stroke-miterlimit:0;">
      <polygon style="fill:none; clip-path:url(#clipPath7);" points=" 10 7 17 20 10 32 3 20" />
    </g>
    <g transform="translate(32,412)" style="font-size:14; fill:rgb(122,207,245); text-rendering:geometricPrecision; font-family:&apos;標楷體&apos;; stroke:rgb(122,207,245);">
      <rect x="1" y="1" width="128" style="clip-path:url(#clipPath2); stroke:none;" rx="15" ry="15" height="38" />
    </g>
    <g transform="translate(32,412)" style="font-size:14; stroke-linecap:butt; text-rendering:geometricPrecision; font-family:&apos;標楷體&apos;; stroke-linejoin:round; stroke-miterlimit:0;">
      <rect x="1" y="1" width="128" style="clip-path:url(#clipPath2); fill:none;" rx="15" ry="15" height="38" />
    </g>
    <g style="text-rendering:geometricPrecision; font-size:14; font-family:&apos;標楷體&apos;;" transform="translate(32,412)">
      <text x="37" y="27" style="clip-path:url(#clipPath3); stroke:none;" xml:space="preserve">系統儲存</text>
    </g>
    <g style="text-rendering:geometricPrecision; font-size:11; font-family:sans-serif;" transform="translate(82,482)">
      <circle style="clip-path:url(#clipPath8); stroke:none;" r="6.6667" cx="10" cy="10" />
      <circle style="stroke-linecap:butt; clip-path:url(#clipPath8); fill:none; stroke-linejoin:round; stroke-miterlimit:0;" r="10" cx="10" cy="10" />
    </g>
    <g transform="translate(42,-29)" style="font-size:11; stroke-linecap:butt; text-rendering:geometricPrecision; font-family:sans-serif; stroke-linejoin:round;">
      <line x1="50" x2="50" y1="50" style="clip-path:url(#clipPath11); fill:none;" y2="81" />
      <line x1="50" x2="56" y1="81" style="clip-path:url(#clipPath11); fill:none;" y2="69" />
      <line x1="50" x2="44" y1="81" style="clip-path:url(#clipPath11); fill:none;" y2="69" />
    </g>
    <g transform="translate(42,41)" style="font-size:11; stroke-linecap:butt; text-rendering:geometricPrecision; font-family:sans-serif; stroke-linejoin:round;">
      <line x1="50" x2="50" y1="50" style="clip-path:url(#clipPath11); fill:none;" y2="81" />
      <line x1="50" x2="56" y1="81" style="clip-path:url(#clipPath11); fill:none;" y2="69" />
      <line x1="50" x2="44" y1="81" style="clip-path:url(#clipPath11); fill:none;" y2="69" />
    </g>
    <g transform="translate(42,111)" style="font-size:11; stroke-linecap:butt; text-rendering:geometricPrecision; font-family:sans-serif; stroke-linejoin:round;">
      <line x1="50" x2="50" y1="50" style="clip-path:url(#clipPath12); fill:none;" y2="90" />
      <line x1="50" x2="56" y1="90" style="clip-path:url(#clipPath12); fill:none;" y2="78" />
      <line x1="50" x2="44" y1="90" style="clip-path:url(#clipPath12); fill:none;" y2="78" />
    </g>
    <g transform="translate(42,173)" style="font-size:11; stroke-linecap:butt; text-rendering:geometricPrecision; font-family:sans-serif; stroke-linejoin:round;">
      <line x1="50" x2="50" y1="50" style="clip-path:url(#clipPath13); fill:none;" y2="89" />
      <line x1="50" x2="56" y1="89" style="clip-path:url(#clipPath13); fill:none;" y2="77" />
      <line x1="50" x2="44" y1="89" style="clip-path:url(#clipPath13); fill:none;" y2="77" />
    </g>
    <g transform="translate(42,261)" style="font-size:11; stroke-linecap:butt; text-rendering:geometricPrecision; font-family:sans-serif; stroke-linejoin:round;">
      <line x1="50" x2="50" y1="50" style="clip-path:url(#clipPath13); fill:none;" y2="89" />
      <line x1="50" x2="56" y1="89" style="clip-path:url(#clipPath13); fill:none;" y2="77" />
      <line x1="50" x2="44" y1="89" style="clip-path:url(#clipPath13); fill:none;" y2="77" />
    </g>
    <g transform="translate(48,162)" style="font-size:14; stroke-linecap:butt; text-rendering:geometricPrecision; font-family:&apos;標楷體&apos;; stroke-linejoin:round;">
      <line x1="50" x2="164" y1="200" style="clip-path:url(#clipPath14); fill:none;" y2="200" />
      <line x1="164" x2="164" y1="200" style="clip-path:url(#clipPath14); fill:none;" y2="50" />
      <line x1="164" x2="51" y1="50" style="clip-path:url(#clipPath14); fill:none;" y2="50" />
      <line x1="51" x2="63" y1="50" style="clip-path:url(#clipPath14); fill:none;" y2="56" />
      <line x1="51" x2="63" y1="50" style="clip-path:url(#clipPath14); fill:none;" y2="44" />
    </g>
    <g transform="translate(42,323)" style="font-size:14; stroke-linecap:butt; text-rendering:geometricPrecision; font-family:&apos;標楷體&apos;; stroke-linejoin:round;">
      <line x1="50" x2="50" y1="50" style="clip-path:url(#clipPath13); fill:none;" y2="89" />
      <line x1="50" x2="56" y1="89" style="clip-path:url(#clipPath13); fill:none;" y2="77" />
      <line x1="50" x2="44" y1="89" style="clip-path:url(#clipPath13); fill:none;" y2="77" />
    </g>
    <g transform="translate(42,401)" style="font-size:11; stroke-linecap:butt; text-rendering:geometricPrecision; font-family:sans-serif; stroke-linejoin:round;">
      <line x1="50" x2="50" y1="50" style="clip-path:url(#clipPath15); fill:none;" y2="82" />
      <line x1="50" x2="56" y1="82" style="clip-path:url(#clipPath15); fill:none;" y2="70" />
      <line x1="50" x2="44" y1="82" style="clip-path:url(#clipPath15); fill:none;" y2="70" />
    </g>
    <g style="text-rendering:geometricPrecision; font-size:14; font-family:&apos;標楷體&apos;;" transform="translate(2,382)">
      <text x="10" y="16" style="clip-path:url(#clipPath16); stroke:none;" xml:space="preserve">[新增成功]</text>
    </g>
    <g style="text-rendering:geometricPrecision; font-size:14; font-family:&apos;標楷體&apos;;" transform="translate(122,327)">
      <text x="10" y="16" style="clip-path:url(#clipPath16); stroke:none;" xml:space="preserve">[新增失敗]</text>
    </g>
    <g style="fill:rgb(120,120,120); text-rendering:geometricPrecision; font-size:10; stroke:rgb(120,120,120);">
    </g>
  </g>
</svg>
