<?xml version="1.0" encoding="UTF-8"?>

<!DOCTYPE svg PUBLIC '-//W3C//DTD SVG 1.0//EN' 'http://www.w3.org/TR/2001/REC-SVG-20010904/DTD/svg10.dtd'>
<svg style="fill-opacity:1; color-rendering:auto; color-interpolation:auto; stroke:black; text-rendering:auto; stroke-linecap:square; stroke-miterlimit:10; stroke-opacity:1; shape-rendering:auto; fill:black; stroke-dasharray:none; font-weight:normal; stroke-width:1; font-family:&apos;Dialog&apos;; font-style:normal; stroke-linejoin:miter; font-size:12; stroke-dashoffset:0; image-rendering:auto;" xmlns="http://www.w3.org/2000/svg" width="456" xmlns:xlink="http://www.w3.org/1999/xlink" height="716">
  <!--Generated by the Batik Graphics2D SVG Generator-->
  <defs id="genericDefs" />
  <g>
    <defs id="defs1">
      <clipPath clipPathUnits="userSpaceOnUse" id="clipPath1">
        <path d="M-3 -3 L27 -3 L27 47 L-3 47 L-3 -3 Z" />
      </clipPath>
      <clipPath clipPathUnits="userSpaceOnUse" id="clipPath2">
        <path d="M-3 -3 L107 -3 L107 67 L-3 67 L-3 -3 Z" />
      </clipPath>
      <clipPath clipPathUnits="userSpaceOnUse" id="clipPath3">
        <path d="M0 0 L100 0 L100 60 L0 60 L0 0 Z" />
      </clipPath>
      <clipPath clipPathUnits="userSpaceOnUse" id="clipPath4">
        <path d="M-3 -3 L117 -3 L117 67 L-3 67 L-3 -3 Z" />
      </clipPath>
      <clipPath clipPathUnits="userSpaceOnUse" id="clipPath5">
        <path d="M0 0 L110 0 L110 60 L0 60 L0 0 Z" />
      </clipPath>
      <clipPath clipPathUnits="userSpaceOnUse" id="clipPath6">
        <path d="M-3 -3 L147 -3 L147 67 L-3 67 L-3 -3 Z" />
      </clipPath>
      <clipPath clipPathUnits="userSpaceOnUse" id="clipPath7">
        <path d="M0 0 L140 0 L140 60 L0 60 L0 0 Z" />
      </clipPath>
      <clipPath clipPathUnits="userSpaceOnUse" id="clipPath8">
        <path d="M-3 -3 L27 -3 L27 27 L-3 27 L-3 -3 Z" />
      </clipPath>
      <clipPath clipPathUnits="userSpaceOnUse" id="clipPath9">
        <path d="M-3 -3 L47 -3 L47 27 L-3 27 L-3 -3 Z" />
      </clipPath>
      <clipPath clipPathUnits="userSpaceOnUse" id="clipPath10">
        <path d="M0 0 L147 0 L147 180 L0 180 L0 0 Z" />
      </clipPath>
      <clipPath clipPathUnits="userSpaceOnUse" id="clipPath11">
        <path d="M0 0 L221 0 L221 188 L0 188 L0 0 Z" />
      </clipPath>
      <clipPath clipPathUnits="userSpaceOnUse" id="clipPath12">
        <path d="M0 0 L223 0 L223 188 L0 188 L0 0 Z" />
      </clipPath>
      <clipPath clipPathUnits="userSpaceOnUse" id="clipPath13">
        <path d="M0 0 L147 0 L147 200 L0 200 L0 0 Z" />
      </clipPath>
      <clipPath clipPathUnits="userSpaceOnUse" id="clipPath14">
        <path d="M0 0 L333 0 L333 447 L0 447 L0 0 Z" />
      </clipPath>
      <clipPath clipPathUnits="userSpaceOnUse" id="clipPath15">
        <path d="M0 0 L213 0 L213 198 L0 198 L0 0 Z" />
      </clipPath>
      <clipPath clipPathUnits="userSpaceOnUse" id="clipPath16">
        <path d="M0 0 L147 0 L147 220 L0 220 L0 0 Z" />
      </clipPath>
      <clipPath clipPathUnits="userSpaceOnUse" id="clipPath17">
        <path d="M0 0 L403 0 L403 707 L0 707 L0 0 Z" />
      </clipPath>
      <clipPath clipPathUnits="userSpaceOnUse" id="clipPath18">
        <path d="M0 0 L147 0 L147 190 L0 190 L0 0 Z" />
      </clipPath>
      <clipPath clipPathUnits="userSpaceOnUse" id="clipPath19">
        <path d="M0 0 L331 0 L331 445 L0 445 L0 0 Z" />
      </clipPath>
      <clipPath clipPathUnits="userSpaceOnUse" id="clipPath20">
        <path d="M0 0 L117 0 L117 16 L0 16 L0 0 Z" />
      </clipPath>
      <clipPath clipPathUnits="userSpaceOnUse" id="clipPath21">
        <path d="M0 0 L90 0 L90 19 L0 19 L0 0 Z" />
      </clipPath>
      <clipPath clipPathUnits="userSpaceOnUse" id="clipPath22">
        <path d="M0 0 L89 0 L89 17 L0 17 L0 0 Z" />
      </clipPath>
      <clipPath clipPathUnits="userSpaceOnUse" id="clipPath23">
        <path d="M0 0 L87 0 L87 16 L0 16 L0 0 Z" />
      </clipPath>
      <clipPath clipPathUnits="userSpaceOnUse" id="clipPath24">
        <path d="M0 0 L119 0 L119 19 L0 19 L0 0 Z" />
      </clipPath>
    </defs>
    <g style="fill:white; text-rendering:geometricPrecision; stroke:white;">
      <rect x="0" y="0" width="456" style="stroke:none;" height="716" />
    </g>
    <g transform="translate(182,52)" style="font-size:11; fill:rgb(122,207,245); text-rendering:geometricPrecision; font-family:sans-serif; stroke:rgb(122,207,245);">
      <polygon style="clip-path:url(#clipPath1); stroke:none;" points=" 10 7 17 20 10 32 3 20" />
    </g>
    <g transform="translate(182,52)" style="font-size:11; stroke-linecap:butt; text-rendering:geometricPrecision; font-family:sans-serif; stroke-linejoin:round; stroke-miterlimit:0;">
      <polygon style="fill:none; clip-path:url(#clipPath1);" points=" 10 7 17 20 10 32 3 20" />
    </g>
    <g transform="translate(142,112)" style="font-size:14; fill:rgb(122,207,245); text-rendering:geometricPrecision; font-family:&apos;標楷體&apos;; stroke:rgb(122,207,245);">
      <rect x="1" y="1" width="98" style="clip-path:url(#clipPath2); stroke:none;" rx="15" ry="15" height="58" />
    </g>
    <g transform="translate(142,112)" style="font-size:14; stroke-linecap:butt; text-rendering:geometricPrecision; font-family:&apos;標楷體&apos;; stroke-linejoin:round; stroke-miterlimit:0;">
      <rect x="1" y="1" width="98" style="clip-path:url(#clipPath2); fill:none;" rx="15" ry="15" height="58" />
    </g>
    <g style="text-rendering:geometricPrecision; font-size:14; font-family:&apos;標楷體&apos;;" transform="translate(142,112)">
      <text x="22" y="37" style="clip-path:url(#clipPath3); stroke:none;" xml:space="preserve">飼料分析</text>
    </g>
    <g transform="translate(182,192)" style="font-size:11; fill:rgb(122,207,245); text-rendering:geometricPrecision; font-family:sans-serif; stroke:rgb(122,207,245);">
      <polygon style="clip-path:url(#clipPath1); stroke:none;" points=" 10 7 17 20 10 32 3 20" />
    </g>
    <g transform="translate(182,192)" style="font-size:11; stroke-linecap:butt; text-rendering:geometricPrecision; font-family:sans-serif; stroke-linejoin:round; stroke-miterlimit:0;">
      <polygon style="fill:none; clip-path:url(#clipPath1);" points=" 10 7 17 20 10 32 3 20" />
    </g>
    <g transform="translate(62,252)" style="font-size:14; fill:rgb(122,207,245); text-rendering:geometricPrecision; font-family:&apos;標楷體&apos;; stroke:rgb(122,207,245);">
      <rect x="1" y="1" width="108" style="clip-path:url(#clipPath4); stroke:none;" rx="15" ry="15" height="58" />
    </g>
    <g transform="translate(62,252)" style="font-size:14; stroke-linecap:butt; text-rendering:geometricPrecision; font-family:&apos;標楷體&apos;; stroke-linejoin:round; stroke-miterlimit:0;">
      <rect x="1" y="1" width="108" style="clip-path:url(#clipPath4); fill:none;" rx="15" ry="15" height="58" />
    </g>
    <g style="text-rendering:geometricPrecision; font-size:14; font-family:&apos;標楷體&apos;;" transform="translate(62,252)">
      <text x="27" y="37" style="clip-path:url(#clipPath5); stroke:none;" xml:space="preserve">條件篩選</text>
    </g>
    <g transform="translate(222,252)" style="font-size:14; fill:rgb(122,207,245); text-rendering:geometricPrecision; font-family:&apos;標楷體&apos;; stroke:rgb(122,207,245);">
      <rect x="1" y="1" width="108" style="clip-path:url(#clipPath4); stroke:none;" rx="15" ry="15" height="58" />
    </g>
    <g transform="translate(222,252)" style="font-size:14; stroke-linecap:butt; text-rendering:geometricPrecision; font-family:&apos;標楷體&apos;; stroke-linejoin:round; stroke-miterlimit:0;">
      <rect x="1" y="1" width="108" style="clip-path:url(#clipPath4); fill:none;" rx="15" ry="15" height="58" />
    </g>
    <g style="text-rendering:geometricPrecision; font-size:14; font-family:&apos;標楷體&apos;;" transform="translate(222,252)">
      <text x="20" y="37" style="clip-path:url(#clipPath5); stroke:none;" xml:space="preserve">關鍵字查詢</text>
    </g>
    <g transform="translate(112,352)" style="font-size:11; fill:rgb(122,207,245); text-rendering:geometricPrecision; font-family:sans-serif; stroke:rgb(122,207,245);">
      <polygon style="clip-path:url(#clipPath1); stroke:none;" points=" 10 7 17 20 10 32 3 20" />
    </g>
    <g transform="translate(112,352)" style="font-size:11; stroke-linecap:butt; text-rendering:geometricPrecision; font-family:sans-serif; stroke-linejoin:round; stroke-miterlimit:0;">
      <polygon style="fill:none; clip-path:url(#clipPath1);" points=" 10 7 17 20 10 32 3 20" />
    </g>
    <g transform="translate(252,352)" style="font-size:11; fill:rgb(122,207,245); text-rendering:geometricPrecision; font-family:sans-serif; stroke:rgb(122,207,245);">
      <polygon style="clip-path:url(#clipPath1); stroke:none;" points=" 10 7 17 20 10 32 3 20" />
    </g>
    <g transform="translate(252,352)" style="font-size:11; stroke-linecap:butt; text-rendering:geometricPrecision; font-family:sans-serif; stroke-linejoin:round; stroke-miterlimit:0;">
      <polygon style="fill:none; clip-path:url(#clipPath1);" points=" 10 7 17 20 10 32 3 20" />
    </g>
    <g transform="translate(182,412)" style="font-size:11; fill:rgb(122,207,245); text-rendering:geometricPrecision; font-family:sans-serif; stroke:rgb(122,207,245);">
      <polygon style="clip-path:url(#clipPath1); stroke:none;" points=" 10 7 17 20 10 32 3 20" />
    </g>
    <g transform="translate(182,412)" style="font-size:11; stroke-linecap:butt; text-rendering:geometricPrecision; font-family:sans-serif; stroke-linejoin:round; stroke-miterlimit:0;">
      <polygon style="fill:none; clip-path:url(#clipPath1);" points=" 10 7 17 20 10 32 3 20" />
    </g>
    <g transform="translate(122,512)" style="font-size:14; fill:rgb(122,207,245); text-rendering:geometricPrecision; font-family:&apos;標楷體&apos;; stroke:rgb(122,207,245);">
      <rect x="1" y="1" width="138" style="clip-path:url(#clipPath6); stroke:none;" rx="15" ry="15" height="58" />
    </g>
    <g transform="translate(122,512)" style="font-size:14; stroke-linecap:butt; text-rendering:geometricPrecision; font-family:&apos;標楷體&apos;; stroke-linejoin:round; stroke-miterlimit:0;">
      <rect x="1" y="1" width="138" style="clip-path:url(#clipPath6); fill:none;" rx="15" ry="15" height="58" />
    </g>
    <g style="text-rendering:geometricPrecision; font-size:14; font-family:&apos;標楷體&apos;;" transform="translate(122,512)">
      <text x="28" y="37" style="clip-path:url(#clipPath7); stroke:none;" xml:space="preserve">顯示查詢資料</text>
    </g>
    <g transform="translate(182,612)" style="font-size:11; fill:rgb(122,207,245); text-rendering:geometricPrecision; font-family:sans-serif; stroke:rgb(122,207,245);">
      <polygon style="clip-path:url(#clipPath1); stroke:none;" points=" 10 7 17 20 10 32 3 20" />
    </g>
    <g transform="translate(182,612)" style="font-size:11; stroke-linecap:butt; text-rendering:geometricPrecision; font-family:sans-serif; stroke-linejoin:round; stroke-miterlimit:0;">
      <polygon style="fill:none; clip-path:url(#clipPath1);" points=" 10 7 17 20 10 32 3 20" />
    </g>
    <g style="text-rendering:geometricPrecision; font-size:11; font-family:sans-serif;" transform="translate(182,692)">
      <circle style="clip-path:url(#clipPath8); stroke:none;" r="6.6667" cx="10" cy="10" />
      <circle style="stroke-linecap:butt; clip-path:url(#clipPath8); fill:none; stroke-linejoin:round; stroke-miterlimit:0;" r="10" cx="10" cy="10" />
    </g>
    <g style="text-rendering:geometricPrecision; font-size:11; font-family:sans-serif;" transform="translate(172,2)">
      <circle style="clip-path:url(#clipPath9); stroke:none;" r="10" cx="20" cy="10" />
    </g>
    <g transform="translate(121,9)" style="font-size:11; stroke-linecap:butt; text-rendering:geometricPrecision; font-family:sans-serif; stroke-linejoin:round;">
      <line x1="71" x2="71" y1="71" style="clip-path:url(#clipPath10); fill:none;" y2="104" />
      <line x1="71" x2="77" y1="104" style="clip-path:url(#clipPath10); fill:none;" y2="92" />
      <line x1="71" x2="65" y1="104" style="clip-path:url(#clipPath10); fill:none;" y2="92" />
    </g>
    <g transform="translate(121,99)" style="font-size:11; stroke-linecap:butt; text-rendering:geometricPrecision; font-family:sans-serif; stroke-linejoin:round;">
      <line x1="71" x2="71" y1="71" style="clip-path:url(#clipPath10); fill:none;" y2="104" />
      <line x1="71" x2="77" y1="104" style="clip-path:url(#clipPath10); fill:none;" y2="92" />
      <line x1="71" x2="65" y1="104" style="clip-path:url(#clipPath10); fill:none;" y2="92" />
    </g>
    <g transform="translate(41,141)" style="font-size:11; stroke-linecap:butt; text-rendering:geometricPrecision; font-family:sans-serif; stroke-linejoin:round;">
      <line x1="146" x2="71" y1="71" style="clip-path:url(#clipPath11); fill:none;" y2="71" />
      <line x1="71" x2="71" y1="71" style="clip-path:url(#clipPath11); fill:none;" y2="113" />
      <line x1="71" x2="77" y1="113" style="clip-path:url(#clipPath11); fill:none;" y2="101" />
      <line x1="71" x2="65" y1="113" style="clip-path:url(#clipPath11); fill:none;" y2="101" />
    </g>
    <g transform="translate(125,141)" style="font-size:11; stroke-linecap:butt; text-rendering:geometricPrecision; font-family:sans-serif; stroke-linejoin:round;">
      <line x1="71" x2="147" y1="71" style="clip-path:url(#clipPath12); fill:none;" y2="71" />
      <line x1="147" x2="147" y1="71" style="clip-path:url(#clipPath12); fill:none;" y2="113" />
      <line x1="147" x2="153" y1="113" style="clip-path:url(#clipPath12); fill:none;" y2="101" />
      <line x1="147" x2="141" y1="113" style="clip-path:url(#clipPath12); fill:none;" y2="101" />
    </g>
    <g transform="translate(51,239)" style="font-size:11; stroke-linecap:butt; text-rendering:geometricPrecision; font-family:sans-serif; stroke-linejoin:round;">
      <line x1="71" x2="71" y1="71" style="clip-path:url(#clipPath13); fill:none;" y2="124" />
      <line x1="71" x2="77" y1="124" style="clip-path:url(#clipPath13); fill:none;" y2="112" />
      <line x1="71" x2="65" y1="124" style="clip-path:url(#clipPath13); fill:none;" y2="112" />
    </g>
    <g transform="translate(-69,1)" style="font-size:14; stroke-linecap:butt; text-rendering:geometricPrecision; font-family:&apos;標楷體&apos;; stroke-linejoin:round;">
      <line x1="187" x2="71" y1="371" style="clip-path:url(#clipPath14); fill:none;" y2="371" />
      <line x1="71" x2="71" y1="371" style="clip-path:url(#clipPath14); fill:none;" y2="71" />
      <line x1="71" x2="257" y1="71" style="clip-path:url(#clipPath14); fill:none;" y2="71" />
      <line x1="257" x2="245" y1="71" style="clip-path:url(#clipPath14); fill:none;" y2="65" />
      <line x1="257" x2="245" y1="71" style="clip-path:url(#clipPath14); fill:none;" y2="77" />
    </g>
    <g transform="translate(191,239)" style="font-size:11; stroke-linecap:butt; text-rendering:geometricPrecision; font-family:sans-serif; stroke-linejoin:round;">
      <line x1="71" x2="71" y1="71" style="clip-path:url(#clipPath13); fill:none;" y2="124" />
      <line x1="71" x2="77" y1="124" style="clip-path:url(#clipPath13); fill:none;" y2="112" />
      <line x1="71" x2="65" y1="124" style="clip-path:url(#clipPath13); fill:none;" y2="112" />
    </g>
    <g transform="translate(51,309)" style="font-size:14; stroke-linecap:butt; text-rendering:geometricPrecision; font-family:&apos;標楷體&apos;; stroke-linejoin:round;">
      <line x1="71" x2="71" y1="71" style="clip-path:url(#clipPath15); fill:none;" y2="123" />
      <line x1="71" x2="137" y1="123" style="clip-path:url(#clipPath15); fill:none;" y2="123" />
      <line x1="137" x2="125" y1="123" style="clip-path:url(#clipPath15); fill:none;" y2="117" />
      <line x1="137" x2="125" y1="123" style="clip-path:url(#clipPath15); fill:none;" y2="129" />
    </g>
    <g transform="translate(125,308)" style="font-size:14; stroke-linecap:butt; text-rendering:geometricPrecision; font-family:&apos;標楷體&apos;; stroke-linejoin:round;">
      <line x1="137" x2="137" y1="71" style="clip-path:url(#clipPath15); fill:none;" y2="123" />
      <line x1="137" x2="71" y1="123" style="clip-path:url(#clipPath15); fill:none;" y2="123" />
      <line x1="71" x2="83" y1="123" style="clip-path:url(#clipPath15); fill:none;" y2="129" />
      <line x1="71" x2="83" y1="123" style="clip-path:url(#clipPath15); fill:none;" y2="117" />
    </g>
    <g transform="translate(121,369)" style="font-size:11; stroke-linecap:butt; text-rendering:geometricPrecision; font-family:sans-serif; stroke-linejoin:round;">
      <line x1="71" x2="71" y1="71" style="clip-path:url(#clipPath16); fill:none;" y2="144" />
      <line x1="71" x2="77" y1="144" style="clip-path:url(#clipPath16); fill:none;" y2="132" />
      <line x1="71" x2="65" y1="144" style="clip-path:url(#clipPath16); fill:none;" y2="132" />
    </g>
    <g transform="translate(121,499)" style="font-size:11; stroke-linecap:butt; text-rendering:geometricPrecision; font-family:sans-serif; stroke-linejoin:round;">
      <line x1="71" x2="71" y1="71" style="clip-path:url(#clipPath13); fill:none;" y2="124" />
      <line x1="71" x2="77" y1="124" style="clip-path:url(#clipPath13); fill:none;" y2="112" />
      <line x1="71" x2="65" y1="124" style="clip-path:url(#clipPath13); fill:none;" y2="112" />
    </g>
    <g transform="translate(125,1)" style="font-size:14; stroke-linecap:butt; text-rendering:geometricPrecision; font-family:&apos;標楷體&apos;; stroke-linejoin:round;">
      <line x1="71" x2="327" y1="631" style="clip-path:url(#clipPath17); fill:none;" y2="631" />
      <line x1="327" x2="327" y1="631" style="clip-path:url(#clipPath17); fill:none;" y2="71" />
      <line x1="327" x2="71" y1="71" style="clip-path:url(#clipPath17); fill:none;" y2="71" />
      <line x1="71" x2="83" y1="71" style="clip-path:url(#clipPath17); fill:none;" y2="77" />
      <line x1="71" x2="83" y1="71" style="clip-path:url(#clipPath17); fill:none;" y2="65" />
    </g>
    <g transform="translate(121,569)" style="font-size:14; stroke-linecap:butt; text-rendering:geometricPrecision; font-family:&apos;標楷體&apos;; stroke-linejoin:round;">
      <line x1="71" x2="71" y1="71" style="clip-path:url(#clipPath13); fill:none;" y2="124" />
      <line x1="71" x2="77" y1="124" style="clip-path:url(#clipPath13); fill:none;" y2="112" />
      <line x1="71" x2="65" y1="124" style="clip-path:url(#clipPath13); fill:none;" y2="112" />
    </g>
    <g transform="translate(121,-51)" style="font-size:11; stroke-linecap:butt; text-rendering:geometricPrecision; font-family:sans-serif; stroke-linejoin:round;">
      <line x1="71" x2="71" y1="71" style="clip-path:url(#clipPath18); fill:none;" y2="114" />
      <line x1="71" x2="77" y1="114" style="clip-path:url(#clipPath18); fill:none;" y2="102" />
      <line x1="71" x2="65" y1="114" style="clip-path:url(#clipPath18); fill:none;" y2="102" />
    </g>
    <g transform="translate(126,2)" style="font-size:14; stroke-linecap:butt; text-rendering:geometricPrecision; font-family:&apos;標楷體&apos;; stroke-linejoin:round;">
      <line x1="140" x2="256" y1="370" style="clip-path:url(#clipPath19); fill:none;" y2="370" />
      <line x1="256" x2="256" y1="370" style="clip-path:url(#clipPath19); fill:none;" y2="130" />
      <line x1="256" x2="156" y1="130" style="clip-path:url(#clipPath19); fill:none;" y2="100" />
      <line x1="156" x2="71" y1="100" style="clip-path:url(#clipPath19); fill:none;" y2="71" />
      <line x1="71" x2="80" y1="71" style="clip-path:url(#clipPath19); fill:none;" y2="80" />
      <line x1="71" x2="84" y1="71" style="clip-path:url(#clipPath19); fill:none;" y2="69" />
    </g>
    <g style="text-rendering:geometricPrecision; font-size:14; font-family:&apos;標楷體&apos;;" transform="translate(262,182)">
      <text x="9" y="15" style="clip-path:url(#clipPath20); stroke:none;" xml:space="preserve">[查無相關資料]</text>
    </g>
    <g style="text-rendering:geometricPrecision; font-size:14; font-family:&apos;標楷體&apos;;" transform="translate(102,652)">
      <text x="10" y="16" style="clip-path:url(#clipPath21); stroke:none;" xml:space="preserve">[不再搜尋]</text>
    </g>
    <g style="text-rendering:geometricPrecision; font-size:14; font-family:&apos;標楷體&apos;;" transform="translate(362,401)">
      <text x="10" y="16" style="clip-path:url(#clipPath21); stroke:none;" xml:space="preserve">[重新搜尋]</text>
    </g>
    <g style="text-rendering:geometricPrecision; font-size:14; font-family:&apos;標楷體&apos;;" transform="translate(202,452)">
      <text x="9" y="16" style="clip-path:url(#clipPath22); stroke:none;" xml:space="preserve">[查詢成功]</text>
    </g>
    <g style="text-rendering:geometricPrecision; font-size:14; font-family:&apos;標楷體&apos;;" transform="translate(102,452)">
      <text x="8" y="15" style="clip-path:url(#clipPath23); stroke:none;" xml:space="preserve">[條件符合]</text>
    </g>
    <g style="text-rendering:geometricPrecision; font-size:14; font-family:&apos;標楷體&apos;;" transform="translate(12,182)">
      <text x="10" y="16" style="clip-path:url(#clipPath24); stroke:none;" xml:space="preserve">[查無符合條件]</text>
    </g>
    <g style="fill:rgb(120,120,120); text-rendering:geometricPrecision; font-size:10; stroke:rgb(120,120,120);">
    </g>
  </g>
</svg>
