<?xml version="1.0" encoding="UTF-8"?>

<!DOCTYPE svg PUBLIC '-//W3C//DTD SVG 1.0//EN' 'http://www.w3.org/TR/2001/REC-SVG-20010904/DTD/svg10.dtd'>
<svg style="fill-opacity:1; color-rendering:auto; color-interpolation:auto; stroke:black; text-rendering:auto; stroke-linecap:square; stroke-miterlimit:10; stroke-opacity:1; shape-rendering:auto; fill:black; stroke-dasharray:none; font-weight:normal; stroke-width:1; font-family:&apos;Dialog&apos;; font-style:normal; stroke-linejoin:miter; font-size:12; stroke-dashoffset:0; image-rendering:auto;" xmlns="http://www.w3.org/2000/svg" width="486" xmlns:xlink="http://www.w3.org/1999/xlink" height="706">
  <!--Generated by the Batik Graphics2D SVG Generator-->
  <defs id="genericDefs" />
  <g>
    <defs id="defs1">
      <clipPath clipPathUnits="userSpaceOnUse" id="clipPath1">
        <path d="M-3 -3 L47 -3 L47 27 L-3 27 L-3 -3 Z" />
      </clipPath>
      <clipPath clipPathUnits="userSpaceOnUse" id="clipPath2">
        <path d="M-3 -3 L27 -3 L27 47 L-3 47 L-3 -3 Z" />
      </clipPath>
      <clipPath clipPathUnits="userSpaceOnUse" id="clipPath3">
        <path d="M-3 -3 L117 -3 L117 77 L-3 77 L-3 -3 Z" />
      </clipPath>
      <clipPath clipPathUnits="userSpaceOnUse" id="clipPath4">
        <path d="M0 0 L110 0 L110 70 L0 70 L0 0 Z" />
      </clipPath>
      <clipPath clipPathUnits="userSpaceOnUse" id="clipPath5">
        <path d="M-3 -3 L127 -3 L127 77 L-3 77 L-3 -3 Z" />
      </clipPath>
      <clipPath clipPathUnits="userSpaceOnUse" id="clipPath6">
        <path d="M0 0 L120 0 L120 70 L0 70 L0 0 Z" />
      </clipPath>
      <clipPath clipPathUnits="userSpaceOnUse" id="clipPath7">
        <path d="M-3 -3 L147 -3 L147 67 L-3 67 L-3 -3 Z" />
      </clipPath>
      <clipPath clipPathUnits="userSpaceOnUse" id="clipPath8">
        <path d="M0 0 L140 0 L140 60 L0 60 L0 0 Z" />
      </clipPath>
      <clipPath clipPathUnits="userSpaceOnUse" id="clipPath9">
        <path d="M-3 -3 L27 -3 L27 27 L-3 27 L-3 -3 Z" />
      </clipPath>
      <clipPath clipPathUnits="userSpaceOnUse" id="clipPath10">
        <path d="M0 0 L129 0 L129 172 L0 172 L0 0 Z" />
      </clipPath>
      <clipPath clipPathUnits="userSpaceOnUse" id="clipPath11">
        <path d="M0 0 L129 0 L129 162 L0 162 L0 0 Z" />
      </clipPath>
      <clipPath clipPathUnits="userSpaceOnUse" id="clipPath12">
        <path d="M0 0 L203 0 L203 170 L0 170 L0 0 Z" />
      </clipPath>
      <clipPath clipPathUnits="userSpaceOnUse" id="clipPath13">
        <path d="M0 0 L213 0 L213 170 L0 170 L0 0 Z" />
      </clipPath>
      <clipPath clipPathUnits="userSpaceOnUse" id="clipPath14">
        <path d="M0 0 L313 0 L313 449 L0 449 L0 0 Z" />
      </clipPath>
      <clipPath clipPathUnits="userSpaceOnUse" id="clipPath15">
        <path d="M0 0 L354 0 L354 446 L0 446 L0 0 Z" />
      </clipPath>
      <clipPath clipPathUnits="userSpaceOnUse" id="clipPath16">
        <path d="M0 0 L203 0 L203 180 L0 180 L0 0 Z" />
      </clipPath>
      <clipPath clipPathUnits="userSpaceOnUse" id="clipPath17">
        <path d="M0 0 L213 0 L213 180 L0 180 L0 0 Z" />
      </clipPath>
      <clipPath clipPathUnits="userSpaceOnUse" id="clipPath18">
        <path d="M0 0 L129 0 L129 182 L0 182 L0 0 Z" />
      </clipPath>
      <clipPath clipPathUnits="userSpaceOnUse" id="clipPath19">
        <path d="M0 0 L413 0 L413 679 L0 679 L0 0 Z" />
      </clipPath>
      <clipPath clipPathUnits="userSpaceOnUse" id="clipPath20">
        <path d="M0 0 L90 0 L90 18 L0 18 L0 0 Z" />
      </clipPath>
      <clipPath clipPathUnits="userSpaceOnUse" id="clipPath21">
        <path d="M0 0 L118 0 L118 18 L0 18 L0 0 Z" />
      </clipPath>
    </defs>
    <g style="fill:white; text-rendering:geometricPrecision; stroke:white;">
      <rect x="0" y="0" width="486" style="stroke:none;" height="706" />
    </g>
    <g style="text-rendering:geometricPrecision; font-size:11; font-family:sans-serif;" transform="translate(172,2)">
      <circle style="clip-path:url(#clipPath1); stroke:none;" r="10" cx="20" cy="10" />
    </g>
    <g transform="translate(182,52)" style="font-size:11; fill:rgb(122,207,245); text-rendering:geometricPrecision; font-family:sans-serif; stroke:rgb(122,207,245);">
      <polygon style="clip-path:url(#clipPath2); stroke:none;" points=" 10 7 17 20 10 32 3 20" />
    </g>
    <g transform="translate(182,52)" style="font-size:11; stroke-linecap:butt; text-rendering:geometricPrecision; font-family:sans-serif; stroke-linejoin:round; stroke-miterlimit:0;">
      <polygon style="fill:none; clip-path:url(#clipPath2);" points=" 10 7 17 20 10 32 3 20" />
    </g>
    <g transform="translate(142,122)" style="font-size:14; fill:rgb(122,207,245); text-rendering:geometricPrecision; font-family:&apos;標楷體&apos;; stroke:rgb(122,207,245);">
      <rect x="1" y="1" width="108" style="clip-path:url(#clipPath3); stroke:none;" rx="15" ry="15" height="68" />
    </g>
    <g transform="translate(142,122)" style="font-size:14; stroke-linecap:butt; text-rendering:geometricPrecision; font-family:&apos;標楷體&apos;; stroke-linejoin:round; stroke-miterlimit:0;">
      <rect x="1" y="1" width="108" style="clip-path:url(#clipPath3); fill:none;" rx="15" ry="15" height="68" />
    </g>
    <g style="text-rendering:geometricPrecision; font-size:14; font-family:&apos;標楷體&apos;;" transform="translate(142,122)">
      <text x="27" y="42" style="clip-path:url(#clipPath4); stroke:none;" xml:space="preserve">附近商店</text>
    </g>
    <g transform="translate(182,212)" style="font-size:11; fill:rgb(122,207,245); text-rendering:geometricPrecision; font-family:sans-serif; stroke:rgb(122,207,245);">
      <polygon style="clip-path:url(#clipPath2); stroke:none;" points=" 10 7 17 20 10 32 3 20" />
    </g>
    <g transform="translate(182,212)" style="font-size:11; stroke-linecap:butt; text-rendering:geometricPrecision; font-family:sans-serif; stroke-linejoin:round; stroke-miterlimit:0;">
      <polygon style="fill:none; clip-path:url(#clipPath2);" points=" 10 7 17 20 10 32 3 20" />
    </g>
    <g transform="translate(52,272)" style="font-size:14; fill:rgb(122,207,245); text-rendering:geometricPrecision; font-family:&apos;標楷體&apos;; stroke:rgb(122,207,245);">
      <rect x="1" y="1" width="118" style="clip-path:url(#clipPath5); stroke:none;" rx="15" ry="15" height="68" />
    </g>
    <g transform="translate(52,272)" style="font-size:14; stroke-linecap:butt; text-rendering:geometricPrecision; font-family:&apos;標楷體&apos;; stroke-linejoin:round; stroke-miterlimit:0;">
      <rect x="1" y="1" width="118" style="clip-path:url(#clipPath5); fill:none;" rx="15" ry="15" height="68" />
    </g>
    <g style="text-rendering:geometricPrecision; font-size:14; font-family:&apos;標楷體&apos;;" transform="translate(52,272)">
      <text x="32" y="42" style="clip-path:url(#clipPath6); stroke:none;" xml:space="preserve">條件篩選</text>
    </g>
    <g transform="translate(222,272)" style="font-size:14; fill:rgb(122,207,245); text-rendering:geometricPrecision; font-family:&apos;標楷體&apos;; stroke:rgb(122,207,245);">
      <rect x="1" y="1" width="108" style="clip-path:url(#clipPath3); stroke:none;" rx="15" ry="15" height="68" />
    </g>
    <g transform="translate(222,272)" style="font-size:14; stroke-linecap:butt; text-rendering:geometricPrecision; font-family:&apos;標楷體&apos;; stroke-linejoin:round; stroke-miterlimit:0;">
      <rect x="1" y="1" width="108" style="clip-path:url(#clipPath3); fill:none;" rx="15" ry="15" height="68" />
    </g>
    <g style="text-rendering:geometricPrecision; font-size:14; font-family:&apos;標楷體&apos;;" transform="translate(222,272)">
      <text x="20" y="42" style="clip-path:url(#clipPath4); stroke:none;" xml:space="preserve">關鍵字查詢</text>
    </g>
    <g transform="translate(102,372)" style="font-size:11; fill:rgb(122,207,245); text-rendering:geometricPrecision; font-family:sans-serif; stroke:rgb(122,207,245);">
      <polygon style="clip-path:url(#clipPath2); stroke:none;" points=" 10 7 17 20 10 32 3 20" />
    </g>
    <g transform="translate(102,372)" style="font-size:11; stroke-linecap:butt; text-rendering:geometricPrecision; font-family:sans-serif; stroke-linejoin:round; stroke-miterlimit:0;">
      <polygon style="fill:none; clip-path:url(#clipPath2);" points=" 10 7 17 20 10 32 3 20" />
    </g>
    <g transform="translate(272,372)" style="font-size:11; fill:rgb(122,207,245); text-rendering:geometricPrecision; font-family:sans-serif; stroke:rgb(122,207,245);">
      <polygon style="clip-path:url(#clipPath2); stroke:none;" points=" 10 7 17 20 10 32 3 20" />
    </g>
    <g transform="translate(272,372)" style="font-size:11; stroke-linecap:butt; text-rendering:geometricPrecision; font-family:sans-serif; stroke-linejoin:round; stroke-miterlimit:0;">
      <polygon style="fill:none; clip-path:url(#clipPath2);" points=" 10 7 17 20 10 32 3 20" />
    </g>
    <g transform="translate(182,432)" style="font-size:11; fill:rgb(122,207,245); text-rendering:geometricPrecision; font-family:sans-serif; stroke:rgb(122,207,245);">
      <polygon style="clip-path:url(#clipPath2); stroke:none;" points=" 10 7 17 20 10 32 3 20" />
    </g>
    <g transform="translate(182,432)" style="font-size:11; stroke-linecap:butt; text-rendering:geometricPrecision; font-family:sans-serif; stroke-linejoin:round; stroke-miterlimit:0;">
      <polygon style="fill:none; clip-path:url(#clipPath2);" points=" 10 7 17 20 10 32 3 20" />
    </g>
    <g transform="translate(122,512)" style="font-size:14; fill:rgb(122,207,245); text-rendering:geometricPrecision; font-family:&apos;標楷體&apos;; stroke:rgb(122,207,245);">
      <rect x="1" y="1" width="138" style="clip-path:url(#clipPath7); stroke:none;" rx="15" ry="15" height="58" />
    </g>
    <g transform="translate(122,512)" style="font-size:14; stroke-linecap:butt; text-rendering:geometricPrecision; font-family:&apos;標楷體&apos;; stroke-linejoin:round; stroke-miterlimit:0;">
      <rect x="1" y="1" width="138" style="clip-path:url(#clipPath7); fill:none;" rx="15" ry="15" height="58" />
    </g>
    <g style="text-rendering:geometricPrecision; font-size:14; font-family:&apos;標楷體&apos;;" transform="translate(122,512)">
      <text x="28" y="37" style="clip-path:url(#clipPath8); stroke:none;" xml:space="preserve">顯示查詢資料</text>
    </g>
    <g transform="translate(182,602)" style="font-size:11; fill:rgb(122,207,245); text-rendering:geometricPrecision; font-family:sans-serif; stroke:rgb(122,207,245);">
      <polygon style="clip-path:url(#clipPath2); stroke:none;" points=" 10 7 17 20 10 32 3 20" />
    </g>
    <g transform="translate(182,602)" style="font-size:11; stroke-linecap:butt; text-rendering:geometricPrecision; font-family:sans-serif; stroke-linejoin:round; stroke-miterlimit:0;">
      <polygon style="fill:none; clip-path:url(#clipPath2);" points=" 10 7 17 20 10 32 3 20" />
    </g>
    <g style="text-rendering:geometricPrecision; font-size:11; font-family:sans-serif;" transform="translate(182,682)">
      <circle style="clip-path:url(#clipPath9); stroke:none;" r="6.6667" cx="10" cy="10" />
      <circle style="stroke-linecap:butt; clip-path:url(#clipPath9); fill:none; stroke-linejoin:round; stroke-miterlimit:0;" r="10" cx="10" cy="10" />
    </g>
    <g transform="translate(130,-42)" style="font-size:11; stroke-linecap:butt; text-rendering:geometricPrecision; font-family:sans-serif; stroke-linejoin:round;">
      <line x1="63" x2="63" y1="63" style="clip-path:url(#clipPath10); fill:none;" y2="105" />
      <line x1="63" x2="69" y1="105" style="clip-path:url(#clipPath10); fill:none;" y2="93" />
      <line x1="63" x2="57" y1="105" style="clip-path:url(#clipPath10); fill:none;" y2="93" />
    </g>
    <g transform="translate(130,18)" style="font-size:11; stroke-linecap:butt; text-rendering:geometricPrecision; font-family:sans-serif; stroke-linejoin:round;">
      <line x1="63" x2="63" y1="63" style="clip-path:url(#clipPath10); fill:none;" y2="105" />
      <line x1="63" x2="69" y1="105" style="clip-path:url(#clipPath10); fill:none;" y2="93" />
      <line x1="63" x2="57" y1="105" style="clip-path:url(#clipPath10); fill:none;" y2="93" />
    </g>
    <g transform="translate(130,128)" style="font-size:11; stroke-linecap:butt; text-rendering:geometricPrecision; font-family:sans-serif; stroke-linejoin:round;">
      <line x1="63" x2="63" y1="63" style="clip-path:url(#clipPath11); fill:none;" y2="95" />
      <line x1="63" x2="69" y1="95" style="clip-path:url(#clipPath11); fill:none;" y2="83" />
      <line x1="63" x2="57" y1="95" style="clip-path:url(#clipPath11); fill:none;" y2="83" />
    </g>
    <g transform="translate(50,170)" style="font-size:11; stroke-linecap:butt; text-rendering:geometricPrecision; font-family:sans-serif; stroke-linejoin:round;">
      <line x1="136" x2="63" y1="63" style="clip-path:url(#clipPath12); fill:none;" y2="63" />
      <line x1="63" x2="63" y1="63" style="clip-path:url(#clipPath12); fill:none;" y2="104" />
      <line x1="63" x2="69" y1="104" style="clip-path:url(#clipPath12); fill:none;" y2="92" />
      <line x1="63" x2="57" y1="104" style="clip-path:url(#clipPath12); fill:none;" y2="92" />
    </g>
    <g transform="translate(136,170)" style="font-size:11; stroke-linecap:butt; text-rendering:geometricPrecision; font-family:sans-serif; stroke-linejoin:round;">
      <line x1="63" x2="146" y1="63" style="clip-path:url(#clipPath13); fill:none;" y2="63" />
      <line x1="146" x2="146" y1="63" style="clip-path:url(#clipPath13); fill:none;" y2="104" />
      <line x1="146" x2="152" y1="104" style="clip-path:url(#clipPath13); fill:none;" y2="92" />
      <line x1="146" x2="140" y1="104" style="clip-path:url(#clipPath13); fill:none;" y2="92" />
    </g>
    <g transform="translate(50,278)" style="font-size:11; stroke-linecap:butt; text-rendering:geometricPrecision; font-family:sans-serif; stroke-linejoin:round;">
      <line x1="63" x2="63" y1="63" style="clip-path:url(#clipPath10); fill:none;" y2="105" />
      <line x1="63" x2="69" y1="105" style="clip-path:url(#clipPath10); fill:none;" y2="93" />
      <line x1="63" x2="57" y1="105" style="clip-path:url(#clipPath10); fill:none;" y2="93" />
    </g>
    <g transform="translate(-60,10)" style="font-size:14; stroke-linecap:butt; text-rendering:geometricPrecision; font-family:&apos;標楷體&apos;; stroke-linejoin:round;">
      <line x1="166" x2="63" y1="383" style="clip-path:url(#clipPath14); fill:none;" y2="383" />
      <line x1="63" x2="63" y1="383" style="clip-path:url(#clipPath14); fill:none;" y2="63" />
      <line x1="63" x2="246" y1="63" style="clip-path:url(#clipPath14); fill:none;" y2="63" />
      <line x1="246" x2="234" y1="63" style="clip-path:url(#clipPath14); fill:none;" y2="57" />
      <line x1="246" x2="234" y1="63" style="clip-path:url(#clipPath14); fill:none;" y2="69" />
    </g>
    <g transform="translate(220,278)" style="font-size:11; stroke-linecap:butt; text-rendering:geometricPrecision; font-family:sans-serif; stroke-linejoin:round;">
      <line x1="63" x2="63" y1="63" style="clip-path:url(#clipPath10); fill:none;" y2="105" />
      <line x1="63" x2="69" y1="105" style="clip-path:url(#clipPath10); fill:none;" y2="93" />
      <line x1="63" x2="57" y1="105" style="clip-path:url(#clipPath10); fill:none;" y2="93" />
    </g>
    <g transform="translate(134,12)" style="font-size:14; stroke-linecap:butt; text-rendering:geometricPrecision; font-family:&apos;標楷體&apos;; stroke-linejoin:round;">
      <line x1="154" x2="288" y1="380" style="clip-path:url(#clipPath15); fill:none;" y2="380" />
      <line x1="288" x2="288" y1="380" style="clip-path:url(#clipPath15); fill:none;" y2="150" />
      <line x1="288" x2="63" y1="150" style="clip-path:url(#clipPath15); fill:none;" y2="63" />
      <line x1="63" x2="71" y1="63" style="clip-path:url(#clipPath15); fill:none;" y2="72" />
      <line x1="63" x2="75" y1="63" style="clip-path:url(#clipPath15); fill:none;" y2="61" />
    </g>
    <g transform="translate(50,338)" style="font-size:14; stroke-linecap:butt; text-rendering:geometricPrecision; font-family:&apos;標楷體&apos;; stroke-linejoin:round;">
      <line x1="63" x2="63" y1="63" style="clip-path:url(#clipPath16); fill:none;" y2="114" />
      <line x1="63" x2="136" y1="114" style="clip-path:url(#clipPath16); fill:none;" y2="114" />
      <line x1="136" x2="124" y1="114" style="clip-path:url(#clipPath16); fill:none;" y2="108" />
      <line x1="136" x2="124" y1="114" style="clip-path:url(#clipPath16); fill:none;" y2="120" />
    </g>
    <g transform="translate(136,338)" style="font-size:14; stroke-linecap:butt; text-rendering:geometricPrecision; font-family:&apos;標楷體&apos;; stroke-linejoin:round;">
      <line x1="146" x2="146" y1="63" style="clip-path:url(#clipPath17); fill:none;" y2="114" />
      <line x1="146" x2="63" y1="114" style="clip-path:url(#clipPath17); fill:none;" y2="114" />
      <line x1="63" x2="75" y1="114" style="clip-path:url(#clipPath17); fill:none;" y2="120" />
      <line x1="63" x2="75" y1="114" style="clip-path:url(#clipPath17); fill:none;" y2="108" />
    </g>
    <g transform="translate(130,398)" style="font-size:11; stroke-linecap:butt; text-rendering:geometricPrecision; font-family:sans-serif; stroke-linejoin:round;">
      <line x1="63" x2="63" y1="63" style="clip-path:url(#clipPath18); fill:none;" y2="115" />
      <line x1="63" x2="69" y1="115" style="clip-path:url(#clipPath18); fill:none;" y2="103" />
      <line x1="63" x2="57" y1="115" style="clip-path:url(#clipPath18); fill:none;" y2="103" />
    </g>
    <g transform="translate(130,508)" style="font-size:11; stroke-linecap:butt; text-rendering:geometricPrecision; font-family:sans-serif; stroke-linejoin:round;">
      <line x1="63" x2="63" y1="63" style="clip-path:url(#clipPath10); fill:none;" y2="105" />
      <line x1="63" x2="69" y1="105" style="clip-path:url(#clipPath10); fill:none;" y2="93" />
      <line x1="63" x2="57" y1="105" style="clip-path:url(#clipPath10); fill:none;" y2="93" />
    </g>
    <g transform="translate(136,10)" style="font-size:14; stroke-linecap:butt; text-rendering:geometricPrecision; font-family:&apos;標楷體&apos;; stroke-linejoin:round;">
      <line x1="63" x2="346" y1="613" style="clip-path:url(#clipPath19); fill:none;" y2="613" />
      <line x1="346" x2="346" y1="613" style="clip-path:url(#clipPath19); fill:none;" y2="63" />
      <line x1="346" x2="63" y1="63" style="clip-path:url(#clipPath19); fill:none;" y2="63" />
      <line x1="63" x2="75" y1="63" style="clip-path:url(#clipPath19); fill:none;" y2="69" />
      <line x1="63" x2="75" y1="63" style="clip-path:url(#clipPath19); fill:none;" y2="57" />
    </g>
    <g transform="translate(130,568)" style="font-size:14; stroke-linecap:butt; text-rendering:geometricPrecision; font-family:&apos;標楷體&apos;; stroke-linejoin:round;">
      <line x1="63" x2="63" y1="63" style="clip-path:url(#clipPath18); fill:none;" y2="115" />
      <line x1="63" x2="69" y1="115" style="clip-path:url(#clipPath18); fill:none;" y2="103" />
      <line x1="63" x2="57" y1="115" style="clip-path:url(#clipPath18); fill:none;" y2="103" />
    </g>
    <g style="text-rendering:geometricPrecision; font-size:14; font-family:&apos;標楷體&apos;;" transform="translate(102,650)">
      <text x="10" y="16" style="clip-path:url(#clipPath20); stroke:none;" xml:space="preserve">[不再搜尋]</text>
    </g>
    <g style="text-rendering:geometricPrecision; font-size:14; font-family:&apos;標楷體&apos;;" transform="translate(392,462)">
      <text x="10" y="16" style="clip-path:url(#clipPath20); stroke:none;" xml:space="preserve">[重新搜尋]</text>
    </g>
    <g style="text-rendering:geometricPrecision; font-size:14; font-family:&apos;標楷體&apos;;" transform="translate(202,472)">
      <text x="10" y="16" style="clip-path:url(#clipPath20); stroke:none;" xml:space="preserve">[查詢成功]</text>
    </g>
    <g style="text-rendering:geometricPrecision; font-size:14; font-family:&apos;標楷體&apos;;" transform="translate(102,472)">
      <text x="10" y="16" style="clip-path:url(#clipPath20); stroke:none;" xml:space="preserve">[條件符合]</text>
    </g>
    <g style="text-rendering:geometricPrecision; font-size:14; font-family:&apos;標楷體&apos;;" transform="translate(302,212)">
      <text x="10" y="16" style="clip-path:url(#clipPath21); stroke:none;" xml:space="preserve">[查無相關資料]</text>
    </g>
    <g style="text-rendering:geometricPrecision; font-size:14; font-family:&apos;標楷體&apos;;" transform="translate(2,182)">
      <text x="10" y="16" style="clip-path:url(#clipPath21); stroke:none;" xml:space="preserve">[查無符合條件]</text>
    </g>
    <g style="fill:rgb(120,120,120); text-rendering:geometricPrecision; font-size:10; stroke:rgb(120,120,120);">
    </g>
  </g>
</svg>
