<?xml version="1.0" encoding="UTF-8"?>

<!DOCTYPE svg PUBLIC '-//W3C//DTD SVG 1.0//EN' 'http://www.w3.org/TR/2001/REC-SVG-20010904/DTD/svg10.dtd'>
<svg style="fill-opacity:1; color-rendering:auto; color-interpolation:auto; stroke:black; text-rendering:auto; stroke-linecap:square; stroke-miterlimit:10; stroke-opacity:1; shape-rendering:auto; fill:black; stroke-dasharray:none; font-weight:normal; stroke-width:1; font-family:&apos;Dialog&apos;; font-style:normal; stroke-linejoin:miter; font-size:12; stroke-dashoffset:0; image-rendering:auto;" xmlns="http://www.w3.org/2000/svg" width="466" xmlns:xlink="http://www.w3.org/1999/xlink" height="726">
  <!--Generated by the Batik Graphics2D SVG Generator-->
  <defs id="genericDefs" />
  <g>
    <defs id="defs1">
      <clipPath clipPathUnits="userSpaceOnUse" id="clipPath1">
        <path d="M-3 -3 L47 -3 L47 27 L-3 27 L-3 -3 Z" />
      </clipPath>
      <clipPath clipPathUnits="userSpaceOnUse" id="clipPath2">
        <path d="M-3 -3 L27 -3 L27 47 L-3 47 L-3 -3 Z" />
      </clipPath>
      <clipPath clipPathUnits="userSpaceOnUse" id="clipPath3">
        <path d="M-3 -3 L157 -3 L157 77 L-3 77 L-3 -3 Z" />
      </clipPath>
      <clipPath clipPathUnits="userSpaceOnUse" id="clipPath4">
        <path d="M0 0 L150 0 L150 70 L0 70 L0 0 Z" />
      </clipPath>
      <clipPath clipPathUnits="userSpaceOnUse" id="clipPath5">
        <path d="M-3 -3 L107 -3 L107 67 L-3 67 L-3 -3 Z" />
      </clipPath>
      <clipPath clipPathUnits="userSpaceOnUse" id="clipPath6">
        <path d="M0 0 L100 0 L100 60 L0 60 L0 0 Z" />
      </clipPath>
      <clipPath clipPathUnits="userSpaceOnUse" id="clipPath7">
        <path d="M-3 -3 L127 -3 L127 67 L-3 67 L-3 -3 Z" />
      </clipPath>
      <clipPath clipPathUnits="userSpaceOnUse" id="clipPath8">
        <path d="M0 0 L120 0 L120 60 L0 60 L0 0 Z" />
      </clipPath>
      <clipPath clipPathUnits="userSpaceOnUse" id="clipPath9">
        <path d="M-3 -3 L137 -3 L137 77 L-3 77 L-3 -3 Z" />
      </clipPath>
      <clipPath clipPathUnits="userSpaceOnUse" id="clipPath10">
        <path d="M0 0 L130 0 L130 70 L0 70 L0 0 Z" />
      </clipPath>
      <clipPath clipPathUnits="userSpaceOnUse" id="clipPath11">
        <path d="M-3 -3 L27 -3 L27 27 L-3 27 L-3 -3 Z" />
      </clipPath>
      <clipPath clipPathUnits="userSpaceOnUse" id="clipPath12">
        <path d="M0 0 L171 0 L171 217 L0 217 L0 0 Z" />
      </clipPath>
      <clipPath clipPathUnits="userSpaceOnUse" id="clipPath13">
        <path d="M0 0 L129 0 L129 182 L0 182 L0 0 Z" />
      </clipPath>
      <clipPath clipPathUnits="userSpaceOnUse" id="clipPath14">
        <path d="M0 0 L129 0 L129 172 L0 172 L0 0 Z" />
      </clipPath>
      <clipPath clipPathUnits="userSpaceOnUse" id="clipPath15">
        <path d="M0 0 L233 0 L233 198 L0 198 L0 0 Z" />
      </clipPath>
      <clipPath clipPathUnits="userSpaceOnUse" id="clipPath16">
        <path d="M0 0 L223 0 L223 198 L0 198 L0 0 Z" />
      </clipPath>
      <clipPath clipPathUnits="userSpaceOnUse" id="clipPath17">
        <path d="M0 0 L147 0 L147 200 L0 200 L0 0 Z" />
      </clipPath>
      <clipPath clipPathUnits="userSpaceOnUse" id="clipPath18">
        <path d="M0 0 L343 0 L343 497 L0 497 L0 0 Z" />
      </clipPath>
      <clipPath clipPathUnits="userSpaceOnUse" id="clipPath19">
        <path d="M0 0 L147 0 L147 193 L0 193 L0 0 Z" />
      </clipPath>
      <clipPath clipPathUnits="userSpaceOnUse" id="clipPath20">
        <path d="M0 0 L313 0 L313 485 L0 485 L0 0 Z" />
      </clipPath>
      <clipPath clipPathUnits="userSpaceOnUse" id="clipPath21">
        <path d="M0 0 L233 0 L233 178 L0 178 L0 0 Z" />
      </clipPath>
      <clipPath clipPathUnits="userSpaceOnUse" id="clipPath22">
        <path d="M0 0 L223 0 L223 188 L0 188 L0 0 Z" />
      </clipPath>
      <clipPath clipPathUnits="userSpaceOnUse" id="clipPath23">
        <path d="M0 0 L147 0 L147 210 L0 210 L0 0 Z" />
      </clipPath>
      <clipPath clipPathUnits="userSpaceOnUse" id="clipPath24">
        <path d="M0 0 L147 0 L147 190 L0 190 L0 0 Z" />
      </clipPath>
      <clipPath clipPathUnits="userSpaceOnUse" id="clipPath25">
        <path d="M0 0 L403 0 L403 727 L0 727 L0 0 Z" />
      </clipPath>
      <clipPath clipPathUnits="userSpaceOnUse" id="clipPath26">
        <path d="M0 0 L90 0 L90 19 L0 19 L0 0 Z" />
      </clipPath>
      <clipPath clipPathUnits="userSpaceOnUse" id="clipPath27">
        <path d="M0 0 L89 0 L89 17 L0 17 L0 0 Z" />
      </clipPath>
      <clipPath clipPathUnits="userSpaceOnUse" id="clipPath28">
        <path d="M0 0 L119 0 L119 19 L0 19 L0 0 Z" />
      </clipPath>
    </defs>
    <g style="fill:white; text-rendering:geometricPrecision; stroke:white;">
      <rect x="0" y="0" width="466" style="stroke:none;" height="726" />
    </g>
    <g style="text-rendering:geometricPrecision; font-size:11; font-family:sans-serif;" transform="translate(182,2)">
      <circle style="clip-path:url(#clipPath1); stroke:none;" r="10" cx="20" cy="10" />
    </g>
    <g transform="translate(192,52)" style="font-size:11; fill:rgb(122,207,245); text-rendering:geometricPrecision; font-family:sans-serif; stroke:rgb(122,207,245);">
      <polygon style="clip-path:url(#clipPath2); stroke:none;" points=" 10 7 17 20 10 32 3 20" />
    </g>
    <g transform="translate(192,52)" style="font-size:11; stroke-linecap:butt; text-rendering:geometricPrecision; font-family:sans-serif; stroke-linejoin:round; stroke-miterlimit:0;">
      <polygon style="fill:none; clip-path:url(#clipPath2);" points=" 10 7 17 20 10 32 3 20" />
    </g>
    <g transform="translate(132,132)" style="font-size:14; fill:rgb(122,207,245); text-rendering:geometricPrecision; font-family:&apos;標楷體&apos;; stroke:rgb(122,207,245);">
      <rect x="1" y="1" width="148" style="clip-path:url(#clipPath3); stroke:none;" rx="15" ry="15" height="68" />
    </g>
    <g transform="translate(132,132)" style="font-size:14; stroke-linecap:butt; text-rendering:geometricPrecision; font-family:&apos;標楷體&apos;; stroke-linejoin:round; stroke-miterlimit:0;">
      <rect x="1" y="1" width="148" style="clip-path:url(#clipPath3); fill:none;" rx="15" ry="15" height="68" />
    </g>
    <g style="text-rendering:geometricPrecision; font-size:14; font-family:&apos;標楷體&apos;;" transform="translate(132,132)">
      <text x="33" y="42" style="clip-path:url(#clipPath4); stroke:none;" xml:space="preserve">寵物醫院資訊</text>
    </g>
    <g transform="translate(192,232)" style="font-size:11; fill:rgb(122,207,245); text-rendering:geometricPrecision; font-family:sans-serif; stroke:rgb(122,207,245);">
      <polygon style="clip-path:url(#clipPath2); stroke:none;" points=" 10 7 17 20 10 32 3 20" />
    </g>
    <g transform="translate(192,232)" style="font-size:11; stroke-linecap:butt; text-rendering:geometricPrecision; font-family:sans-serif; stroke-linejoin:round; stroke-miterlimit:0;">
      <polygon style="fill:none; clip-path:url(#clipPath2);" points=" 10 7 17 20 10 32 3 20" />
    </g>
    <g transform="translate(62,302)" style="font-size:14; fill:rgb(122,207,245); text-rendering:geometricPrecision; font-family:&apos;標楷體&apos;; stroke:rgb(122,207,245);">
      <rect x="1" y="1" width="98" style="clip-path:url(#clipPath5); stroke:none;" rx="15" ry="15" height="58" />
    </g>
    <g transform="translate(62,302)" style="font-size:14; stroke-linecap:butt; text-rendering:geometricPrecision; font-family:&apos;標楷體&apos;; stroke-linejoin:round; stroke-miterlimit:0;">
      <rect x="1" y="1" width="98" style="clip-path:url(#clipPath5); fill:none;" rx="15" ry="15" height="58" />
    </g>
    <g style="text-rendering:geometricPrecision; font-size:14; font-family:&apos;標楷體&apos;;" transform="translate(62,302)">
      <text x="22" y="37" style="clip-path:url(#clipPath6); stroke:none;" xml:space="preserve">條件篩選</text>
    </g>
    <g transform="translate(222,302)" style="font-size:14; fill:rgb(122,207,245); text-rendering:geometricPrecision; font-family:&apos;標楷體&apos;; stroke:rgb(122,207,245);">
      <rect x="1" y="1" width="118" style="clip-path:url(#clipPath7); stroke:none;" rx="15" ry="15" height="58" />
    </g>
    <g transform="translate(222,302)" style="font-size:14; stroke-linecap:butt; text-rendering:geometricPrecision; font-family:&apos;標楷體&apos;; stroke-linejoin:round; stroke-miterlimit:0;">
      <rect x="1" y="1" width="118" style="clip-path:url(#clipPath7); fill:none;" rx="15" ry="15" height="58" />
    </g>
    <g style="text-rendering:geometricPrecision; font-size:14; font-family:&apos;標楷體&apos;;" transform="translate(222,302)">
      <text x="25" y="37" style="clip-path:url(#clipPath8); stroke:none;" xml:space="preserve">關鍵字查詢</text>
    </g>
    <g transform="translate(102,402)" style="font-size:11; fill:rgb(122,207,245); text-rendering:geometricPrecision; font-family:sans-serif; stroke:rgb(122,207,245);">
      <polygon style="clip-path:url(#clipPath2); stroke:none;" points=" 10 7 17 20 10 32 3 20" />
    </g>
    <g transform="translate(102,402)" style="font-size:11; stroke-linecap:butt; text-rendering:geometricPrecision; font-family:sans-serif; stroke-linejoin:round; stroke-miterlimit:0;">
      <polygon style="fill:none; clip-path:url(#clipPath2);" points=" 10 7 17 20 10 32 3 20" />
    </g>
    <g transform="translate(272,392)" style="font-size:11; fill:rgb(122,207,245); text-rendering:geometricPrecision; font-family:sans-serif; stroke:rgb(122,207,245);">
      <polygon style="clip-path:url(#clipPath2); stroke:none;" points=" 10 7 17 20 10 32 3 20" />
    </g>
    <g transform="translate(272,392)" style="font-size:11; stroke-linecap:butt; text-rendering:geometricPrecision; font-family:sans-serif; stroke-linejoin:round; stroke-miterlimit:0;">
      <polygon style="fill:none; clip-path:url(#clipPath2);" points=" 10 7 17 20 10 32 3 20" />
    </g>
    <g transform="translate(192,442)" style="font-size:11; fill:rgb(122,207,245); text-rendering:geometricPrecision; font-family:sans-serif; stroke:rgb(122,207,245);">
      <polygon style="clip-path:url(#clipPath2); stroke:none;" points=" 10 7 17 20 10 32 3 20" />
    </g>
    <g transform="translate(192,442)" style="font-size:11; stroke-linecap:butt; text-rendering:geometricPrecision; font-family:sans-serif; stroke-linejoin:round; stroke-miterlimit:0;">
      <polygon style="fill:none; clip-path:url(#clipPath2);" points=" 10 7 17 20 10 32 3 20" />
    </g>
    <g transform="translate(142,532)" style="font-size:14; fill:rgb(122,207,245); text-rendering:geometricPrecision; font-family:&apos;標楷體&apos;; stroke:rgb(122,207,245);">
      <rect x="1" y="1" width="128" style="clip-path:url(#clipPath9); stroke:none;" rx="15" ry="15" height="68" />
    </g>
    <g transform="translate(142,532)" style="font-size:14; stroke-linecap:butt; text-rendering:geometricPrecision; font-family:&apos;標楷體&apos;; stroke-linejoin:round; stroke-miterlimit:0;">
      <rect x="1" y="1" width="128" style="clip-path:url(#clipPath9); fill:none;" rx="15" ry="15" height="68" />
    </g>
    <g style="text-rendering:geometricPrecision; font-size:14; font-family:&apos;標楷體&apos;;" transform="translate(142,532)">
      <text x="23" y="42" style="clip-path:url(#clipPath10); stroke:none;" xml:space="preserve">顯示查詢資訊</text>
    </g>
    <g transform="translate(192,632)" style="font-size:11; fill:rgb(122,207,245); text-rendering:geometricPrecision; font-family:sans-serif; stroke:rgb(122,207,245);">
      <polygon style="clip-path:url(#clipPath2); stroke:none;" points=" 10 7 17 20 10 32 3 20" />
    </g>
    <g transform="translate(192,632)" style="font-size:11; stroke-linecap:butt; text-rendering:geometricPrecision; font-family:sans-serif; stroke-linejoin:round; stroke-miterlimit:0;">
      <polygon style="fill:none; clip-path:url(#clipPath2);" points=" 10 7 17 20 10 32 3 20" />
    </g>
    <g style="text-rendering:geometricPrecision; font-size:11; font-family:sans-serif;" transform="translate(192,702)">
      <circle style="clip-path:url(#clipPath11); stroke:none;" r="6.6667" cx="10" cy="10" />
      <circle style="stroke-linecap:butt; clip-path:url(#clipPath11); fill:none; stroke-linejoin:round; stroke-miterlimit:0;" r="10" cx="10" cy="10" />
    </g>
    <g transform="translate(119,-63)" style="font-size:11; stroke-linecap:butt; text-rendering:geometricPrecision; font-family:sans-serif; stroke-linejoin:round;">
      <line x1="83" x2="83" y1="83" style="clip-path:url(#clipPath12); fill:none;" y2="130" />
      <line x1="83" x2="89" y1="130" style="clip-path:url(#clipPath12); fill:none;" y2="118" />
      <line x1="83" x2="77" y1="130" style="clip-path:url(#clipPath12); fill:none;" y2="118" />
    </g>
    <g transform="translate(140,18)" style="font-size:11; stroke-linecap:butt; text-rendering:geometricPrecision; font-family:sans-serif; stroke-linejoin:round;">
      <line x1="63" x2="63" y1="63" style="clip-path:url(#clipPath13); fill:none;" y2="115" />
      <line x1="63" x2="69" y1="115" style="clip-path:url(#clipPath13); fill:none;" y2="103" />
      <line x1="63" x2="57" y1="115" style="clip-path:url(#clipPath13); fill:none;" y2="103" />
    </g>
    <g transform="translate(140,138)" style="font-size:11; stroke-linecap:butt; text-rendering:geometricPrecision; font-family:sans-serif; stroke-linejoin:round;">
      <line x1="63" x2="63" y1="63" style="clip-path:url(#clipPath14); fill:none;" y2="105" />
      <line x1="63" x2="69" y1="105" style="clip-path:url(#clipPath14); fill:none;" y2="93" />
      <line x1="63" x2="57" y1="105" style="clip-path:url(#clipPath14); fill:none;" y2="93" />
    </g>
    <g transform="translate(41,181)" style="font-size:11; stroke-linecap:butt; text-rendering:geometricPrecision; font-family:sans-serif; stroke-linejoin:round;">
      <line x1="157" x2="71" y1="71" style="clip-path:url(#clipPath15); fill:none;" y2="71" />
      <line x1="71" x2="71" y1="71" style="clip-path:url(#clipPath15); fill:none;" y2="123" />
      <line x1="71" x2="77" y1="123" style="clip-path:url(#clipPath15); fill:none;" y2="111" />
      <line x1="71" x2="65" y1="123" style="clip-path:url(#clipPath15); fill:none;" y2="111" />
    </g>
    <g transform="translate(135,181)" style="font-size:11; stroke-linecap:butt; text-rendering:geometricPrecision; font-family:sans-serif; stroke-linejoin:round;">
      <line x1="71" x2="147" y1="71" style="clip-path:url(#clipPath16); fill:none;" y2="71" />
      <line x1="147" x2="147" y1="71" style="clip-path:url(#clipPath16); fill:none;" y2="123" />
      <line x1="147" x2="153" y1="123" style="clip-path:url(#clipPath16); fill:none;" y2="111" />
      <line x1="147" x2="141" y1="123" style="clip-path:url(#clipPath16); fill:none;" y2="111" />
    </g>
    <g transform="translate(41,289)" style="font-size:11; stroke-linecap:butt; text-rendering:geometricPrecision; font-family:sans-serif; stroke-linejoin:round;">
      <line x1="71" x2="71" y1="71" style="clip-path:url(#clipPath17); fill:none;" y2="124" />
      <line x1="71" x2="77" y1="124" style="clip-path:url(#clipPath17); fill:none;" y2="112" />
      <line x1="71" x2="65" y1="124" style="clip-path:url(#clipPath17); fill:none;" y2="112" />
    </g>
    <g transform="translate(-69,1)" style="font-size:14; stroke-linecap:butt; text-rendering:geometricPrecision; font-family:&apos;標楷體&apos;; stroke-linejoin:round;">
      <line x1="177" x2="71" y1="421" style="clip-path:url(#clipPath18); fill:none;" y2="421" />
      <line x1="71" x2="71" y1="421" style="clip-path:url(#clipPath18); fill:none;" y2="71" />
      <line x1="71" x2="267" y1="71" style="clip-path:url(#clipPath18); fill:none;" y2="71" />
      <line x1="267" x2="255" y1="71" style="clip-path:url(#clipPath18); fill:none;" y2="65" />
      <line x1="267" x2="255" y1="71" style="clip-path:url(#clipPath18); fill:none;" y2="77" />
    </g>
    <g transform="translate(211,289)" style="font-size:11; stroke-linecap:butt; text-rendering:geometricPrecision; font-family:sans-serif; stroke-linejoin:round;">
      <line x1="71" x2="71" y1="71" style="clip-path:url(#clipPath19); fill:none;" y2="117" />
      <line x1="71" x2="77" y1="117" style="clip-path:url(#clipPath19); fill:none;" y2="105" />
      <line x1="71" x2="65" y1="117" style="clip-path:url(#clipPath19); fill:none;" y2="105" />
    </g>
    <g transform="translate(135,2)" style="font-size:14; stroke-linecap:butt; text-rendering:geometricPrecision; font-family:&apos;標楷體&apos;; stroke-linejoin:round;">
      <line x1="151" x2="237" y1="410" style="clip-path:url(#clipPath20); fill:none;" y2="410" />
      <line x1="237" x2="237" y1="410" style="clip-path:url(#clipPath20); fill:none;" y2="130" />
      <line x1="237" x2="71" y1="130" style="clip-path:url(#clipPath20); fill:none;" y2="71" />
      <line x1="71" x2="80" y1="71" style="clip-path:url(#clipPath20); fill:none;" y2="80" />
      <line x1="71" x2="84" y1="71" style="clip-path:url(#clipPath20); fill:none;" y2="69" />
    </g>
    <g transform="translate(41,359)" style="font-size:14; stroke-linecap:butt; text-rendering:geometricPrecision; font-family:&apos;標楷體&apos;; stroke-linejoin:round;">
      <line x1="71" x2="71" y1="71" style="clip-path:url(#clipPath21); fill:none;" y2="103" />
      <line x1="71" x2="157" y1="103" style="clip-path:url(#clipPath21); fill:none;" y2="103" />
      <line x1="157" x2="145" y1="103" style="clip-path:url(#clipPath21); fill:none;" y2="97" />
      <line x1="157" x2="145" y1="103" style="clip-path:url(#clipPath21); fill:none;" y2="109" />
    </g>
    <g transform="translate(135,349)" style="font-size:14; stroke-linecap:butt; text-rendering:geometricPrecision; font-family:&apos;標楷體&apos;; stroke-linejoin:round;">
      <line x1="147" x2="147" y1="71" style="clip-path:url(#clipPath22); fill:none;" y2="113" />
      <line x1="147" x2="71" y1="113" style="clip-path:url(#clipPath22); fill:none;" y2="113" />
      <line x1="71" x2="83" y1="113" style="clip-path:url(#clipPath22); fill:none;" y2="119" />
      <line x1="71" x2="83" y1="113" style="clip-path:url(#clipPath22); fill:none;" y2="107" />
    </g>
    <g transform="translate(131,399)" style="font-size:11; stroke-linecap:butt; text-rendering:geometricPrecision; font-family:sans-serif; stroke-linejoin:round;">
      <line x1="71" x2="71" y1="71" style="clip-path:url(#clipPath23); fill:none;" y2="134" />
      <line x1="71" x2="77" y1="134" style="clip-path:url(#clipPath23); fill:none;" y2="122" />
      <line x1="71" x2="65" y1="134" style="clip-path:url(#clipPath23); fill:none;" y2="122" />
    </g>
    <g transform="translate(131,529)" style="font-size:11; stroke-linecap:butt; text-rendering:geometricPrecision; font-family:sans-serif; stroke-linejoin:round;">
      <line x1="71" x2="71" y1="71" style="clip-path:url(#clipPath24); fill:none;" y2="114" />
      <line x1="71" x2="77" y1="114" style="clip-path:url(#clipPath24); fill:none;" y2="102" />
      <line x1="71" x2="65" y1="114" style="clip-path:url(#clipPath24); fill:none;" y2="102" />
    </g>
    <g transform="translate(135,1)" style="font-size:14; stroke-linecap:butt; text-rendering:geometricPrecision; font-family:&apos;標楷體&apos;; stroke-linejoin:round;">
      <line x1="71" x2="327" y1="651" style="clip-path:url(#clipPath25); fill:none;" y2="651" />
      <line x1="327" x2="327" y1="651" style="clip-path:url(#clipPath25); fill:none;" y2="71" />
      <line x1="327" x2="71" y1="71" style="clip-path:url(#clipPath25); fill:none;" y2="71" />
      <line x1="71" x2="83" y1="71" style="clip-path:url(#clipPath25); fill:none;" y2="77" />
      <line x1="71" x2="83" y1="71" style="clip-path:url(#clipPath25); fill:none;" y2="65" />
    </g>
    <g transform="translate(131,589)" style="font-size:14; stroke-linecap:butt; text-rendering:geometricPrecision; font-family:&apos;標楷體&apos;; stroke-linejoin:round;">
      <line x1="71" x2="71" y1="71" style="clip-path:url(#clipPath24); fill:none;" y2="114" />
      <line x1="71" x2="77" y1="114" style="clip-path:url(#clipPath24); fill:none;" y2="102" />
      <line x1="71" x2="65" y1="114" style="clip-path:url(#clipPath24); fill:none;" y2="102" />
    </g>
    <g style="text-rendering:geometricPrecision; font-size:14; font-family:&apos;標楷體&apos;;" transform="translate(112,671)">
      <text x="10" y="16" style="clip-path:url(#clipPath26); stroke:none;" xml:space="preserve">[不再搜尋]</text>
    </g>
    <g style="text-rendering:geometricPrecision; font-size:14; font-family:&apos;標楷體&apos;;" transform="translate(372,462)">
      <text x="10" y="16" style="clip-path:url(#clipPath26); stroke:none;" xml:space="preserve">[重新搜尋]</text>
    </g>
    <g style="text-rendering:geometricPrecision; font-size:14; font-family:&apos;標楷體&apos;;" transform="translate(212,482)">
      <text x="10" y="16" style="clip-path:url(#clipPath26); stroke:none;" xml:space="preserve">[查詢成功]</text>
    </g>
    <g style="text-rendering:geometricPrecision; font-size:14; font-family:&apos;標楷體&apos;;" transform="translate(108,481)">
      <text x="9" y="16" style="clip-path:url(#clipPath27); stroke:none;" xml:space="preserve">[條件符合]</text>
    </g>
    <g style="text-rendering:geometricPrecision; font-size:14; font-family:&apos;標楷體&apos;;" transform="translate(252,222)">
      <text x="10" y="16" style="clip-path:url(#clipPath28); stroke:none;" xml:space="preserve">[查無相關資料]</text>
    </g>
    <g style="text-rendering:geometricPrecision; font-size:14; font-family:&apos;標楷體&apos;;" transform="translate(2,202)">
      <text x="10" y="16" style="clip-path:url(#clipPath28); stroke:none;" xml:space="preserve">[查無符合條件]</text>
    </g>
    <g style="fill:rgb(120,120,120); text-rendering:geometricPrecision; font-size:10; stroke:rgb(120,120,120);">
    </g>
  </g>
</svg>
