<?xml version="1.0" encoding="UTF-8"?>

<!DOCTYPE svg PUBLIC '-//W3C//DTD SVG 1.0//EN' 'http://www.w3.org/TR/2001/REC-SVG-20010904/DTD/svg10.dtd'>
<svg style="fill-opacity:1; color-rendering:auto; color-interpolation:auto; stroke:black; text-rendering:auto; stroke-linecap:square; stroke-miterlimit:10; stroke-opacity:1; shape-rendering:auto; fill:black; stroke-dasharray:none; font-weight:normal; stroke-width:1; font-family:&apos;Dialog&apos;; font-style:normal; stroke-linejoin:miter; font-size:12; stroke-dashoffset:0; image-rendering:auto;" xmlns="http://www.w3.org/2000/svg" width="466" xmlns:xlink="http://www.w3.org/1999/xlink" height="806">
  <!--Generated by the Batik Graphics2D SVG Generator-->
  <defs id="genericDefs" />
  <g>
    <defs id="defs1">
      <clipPath clipPathUnits="userSpaceOnUse" id="clipPath1">
        <path d="M-3 -3 L47 -3 L47 27 L-3 27 L-3 -3 Z" />
      </clipPath>
      <clipPath clipPathUnits="userSpaceOnUse" id="clipPath2">
        <path d="M-3 -3 L117 -3 L117 47 L-3 47 L-3 -3 Z" />
      </clipPath>
      <clipPath clipPathUnits="userSpaceOnUse" id="clipPath3">
        <path d="M0 0 L110 0 L110 40 L0 40 L0 0 Z" />
      </clipPath>
      <clipPath clipPathUnits="userSpaceOnUse" id="clipPath4">
        <path d="M-3 -3 L28 -3 L28 47 L-3 47 L-3 -3 Z" />
      </clipPath>
      <clipPath clipPathUnits="userSpaceOnUse" id="clipPath5">
        <path d="M-3 -3 L27 -3 L27 47 L-3 47 L-3 -3 Z" />
      </clipPath>
      <clipPath clipPathUnits="userSpaceOnUse" id="clipPath6">
        <path d="M-3 -3 L127 -3 L127 57 L-3 57 L-3 -3 Z" />
      </clipPath>
      <clipPath clipPathUnits="userSpaceOnUse" id="clipPath7">
        <path d="M0 0 L120 0 L120 50 L0 50 L0 0 Z" />
      </clipPath>
      <clipPath clipPathUnits="userSpaceOnUse" id="clipPath8">
        <path d="M-3 -3 L147 -3 L147 57 L-3 57 L-3 -3 Z" />
      </clipPath>
      <clipPath clipPathUnits="userSpaceOnUse" id="clipPath9">
        <path d="M0 0 L140 0 L140 50 L0 50 L0 0 Z" />
      </clipPath>
      <clipPath clipPathUnits="userSpaceOnUse" id="clipPath10">
        <path d="M-3 -3 L27 -3 L27 27 L-3 27 L-3 -3 Z" />
      </clipPath>
      <clipPath clipPathUnits="userSpaceOnUse" id="clipPath11">
        <path d="M0 0 L147 0 L147 180 L0 180 L0 0 Z" />
      </clipPath>
      <clipPath clipPathUnits="userSpaceOnUse" id="clipPath12">
        <path d="M0 0 L180 0 L180 213 L0 213 L0 0 Z" />
      </clipPath>
      <clipPath clipPathUnits="userSpaceOnUse" id="clipPath13">
        <path d="M0 0 L147 0 L147 210 L0 210 L0 0 Z" />
      </clipPath>
      <clipPath clipPathUnits="userSpaceOnUse" id="clipPath14">
        <path d="M0 0 L184 0 L184 194 L0 194 L0 0 Z" />
      </clipPath>
      <clipPath clipPathUnits="userSpaceOnUse" id="clipPath15">
        <path d="M0 0 L174 0 L174 193 L0 193 L0 0 Z" />
      </clipPath>
      <clipPath clipPathUnits="userSpaceOnUse" id="clipPath16">
        <path d="M0 0 L147 0 L147 190 L0 190 L0 0 Z" />
      </clipPath>
      <clipPath clipPathUnits="userSpaceOnUse" id="clipPath17">
        <path d="M0 0 L430 0 L430 607 L0 607 L0 0 Z" />
      </clipPath>
      <clipPath clipPathUnits="userSpaceOnUse" id="clipPath18">
        <path d="M0 0 L333 0 L333 358 L0 358 L0 0 Z" />
      </clipPath>
      <clipPath clipPathUnits="userSpaceOnUse" id="clipPath19">
        <path d="M0 0 L313 0 L313 437 L0 437 L0 0 Z" />
      </clipPath>
      <clipPath clipPathUnits="userSpaceOnUse" id="clipPath20">
        <path d="M0 0 L89 0 L89 17 L0 17 L0 0 Z" />
      </clipPath>
      <clipPath clipPathUnits="userSpaceOnUse" id="clipPath21">
        <path d="M0 0 L90 0 L90 19 L0 19 L0 0 Z" />
      </clipPath>
      <clipPath clipPathUnits="userSpaceOnUse" id="clipPath22">
        <path d="M0 0 L61 0 L61 19 L0 19 L0 0 Z" />
      </clipPath>
      <clipPath clipPathUnits="userSpaceOnUse" id="clipPath23">
        <path d="M0 0 L76 0 L76 19 L0 19 L0 0 Z" />
      </clipPath>
    </defs>
    <g style="fill:white; text-rendering:geometricPrecision; stroke:white;">
      <rect x="0" y="0" width="466" style="stroke:none;" height="806" />
    </g>
    <g style="text-rendering:geometricPrecision; font-size:11; font-family:sans-serif;" transform="translate(152,2)">
      <circle style="clip-path:url(#clipPath1); stroke:none;" r="10" cx="20" cy="10" />
    </g>
    <g transform="translate(122,52)" style="font-size:14; fill:rgb(122,207,245); text-rendering:geometricPrecision; font-family:&apos;標楷體&apos;; stroke:rgb(122,207,245);">
      <rect x="1" y="1" width="108" style="clip-path:url(#clipPath2); stroke:none;" rx="15" ry="15" height="38" />
    </g>
    <g transform="translate(122,52)" style="font-size:14; stroke-linecap:butt; text-rendering:geometricPrecision; font-family:&apos;標楷體&apos;; stroke-linejoin:round; stroke-miterlimit:0;">
      <rect x="1" y="1" width="108" style="clip-path:url(#clipPath2); fill:none;" rx="15" ry="15" height="38" />
    </g>
    <g style="text-rendering:geometricPrecision; font-size:14; font-family:&apos;標楷體&apos;;" transform="translate(122,52)">
      <text x="27" y="27" style="clip-path:url(#clipPath3); stroke:none;" xml:space="preserve">登入會員</text>
    </g>
    <g transform="translate(162,112)" style="font-size:11; fill:rgb(122,207,245); text-rendering:geometricPrecision; font-family:sans-serif; stroke:rgb(122,207,245);">
      <polygon style="clip-path:url(#clipPath4); stroke:none;" points=" 10 7 18 20 10 32 3 20" />
    </g>
    <g transform="translate(162,112)" style="font-size:11; stroke-linecap:butt; text-rendering:geometricPrecision; font-family:sans-serif; stroke-linejoin:round; stroke-miterlimit:0;">
      <polygon style="fill:none; clip-path:url(#clipPath4);" points=" 10 7 18 20 10 32 3 20" />
    </g>
    <g transform="translate(122,172)" style="font-size:14; fill:rgb(122,207,245); text-rendering:geometricPrecision; font-family:&apos;標楷體&apos;; stroke:rgb(122,207,245);">
      <rect x="1" y="1" width="108" style="clip-path:url(#clipPath2); stroke:none;" rx="15" ry="15" height="38" />
    </g>
    <g transform="translate(122,172)" style="font-size:14; stroke-linecap:butt; text-rendering:geometricPrecision; font-family:&apos;標楷體&apos;; stroke-linejoin:round; stroke-miterlimit:0;">
      <rect x="1" y="1" width="108" style="clip-path:url(#clipPath2); fill:none;" rx="15" ry="15" height="38" />
    </g>
    <g style="text-rendering:geometricPrecision; font-size:14; font-family:&apos;標楷體&apos;;" transform="translate(122,172)">
      <text x="27" y="27" style="clip-path:url(#clipPath3); stroke:none;" xml:space="preserve">寵物資訊</text>
    </g>
    <g transform="translate(162,232)" style="font-size:11; fill:rgb(122,207,245); text-rendering:geometricPrecision; font-family:sans-serif; stroke:rgb(122,207,245);">
      <polygon style="clip-path:url(#clipPath5); stroke:none;" points=" 10 7 17 20 10 32 3 20" />
    </g>
    <g transform="translate(162,232)" style="font-size:11; stroke-linecap:butt; text-rendering:geometricPrecision; font-family:sans-serif; stroke-linejoin:round; stroke-miterlimit:0;">
      <polygon style="fill:none; clip-path:url(#clipPath5);" points=" 10 7 17 20 10 32 3 20" />
    </g>
    <g transform="translate(202,312)" style="font-size:14; fill:rgb(122,207,245); text-rendering:geometricPrecision; font-family:&apos;標楷體&apos;; stroke:rgb(122,207,245);">
      <rect x="1" y="1" width="108" style="clip-path:url(#clipPath2); stroke:none;" rx="15" ry="15" height="38" />
    </g>
    <g transform="translate(202,312)" style="font-size:14; stroke-linecap:butt; text-rendering:geometricPrecision; font-family:&apos;標楷體&apos;; stroke-linejoin:round; stroke-miterlimit:0;">
      <rect x="1" y="1" width="108" style="clip-path:url(#clipPath2); fill:none;" rx="15" ry="15" height="38" />
    </g>
    <g style="text-rendering:geometricPrecision; font-size:14; font-family:&apos;標楷體&apos;;" transform="translate(202,312)">
      <text x="27" y="27" style="clip-path:url(#clipPath3); stroke:none;" xml:space="preserve">選擇寵物</text>
    </g>
    <g transform="translate(32,312)" style="font-size:14; fill:rgb(122,207,245); text-rendering:geometricPrecision; font-family:&apos;標楷體&apos;; stroke:rgb(122,207,245);">
      <rect x="1" y="1" width="108" style="clip-path:url(#clipPath2); stroke:none;" rx="15" ry="15" height="38" />
    </g>
    <g transform="translate(32,312)" style="font-size:14; stroke-linecap:butt; text-rendering:geometricPrecision; font-family:&apos;標楷體&apos;; stroke-linejoin:round; stroke-miterlimit:0;">
      <rect x="1" y="1" width="108" style="clip-path:url(#clipPath2); fill:none;" rx="15" ry="15" height="38" />
    </g>
    <g style="text-rendering:geometricPrecision; font-size:14; font-family:&apos;標楷體&apos;;" transform="translate(32,312)">
      <text x="13" y="27" style="clip-path:url(#clipPath3); stroke:none;" xml:space="preserve">新增寵物資訊</text>
    </g>
    <g transform="translate(82,402)" style="font-size:11; fill:rgb(122,207,245); text-rendering:geometricPrecision; font-family:sans-serif; stroke:rgb(122,207,245);">
      <polygon style="clip-path:url(#clipPath5); stroke:none;" points=" 10 7 17 20 10 32 3 20" />
    </g>
    <g transform="translate(82,402)" style="font-size:11; stroke-linecap:butt; text-rendering:geometricPrecision; font-family:sans-serif; stroke-linejoin:round; stroke-miterlimit:0;">
      <polygon style="fill:none; clip-path:url(#clipPath5);" points=" 10 7 17 20 10 32 3 20" />
    </g>
    <g transform="translate(112,472)" style="font-size:14; fill:rgb(122,207,245); text-rendering:geometricPrecision; font-family:&apos;標楷體&apos;; stroke:rgb(122,207,245);">
      <rect x="1" y="1" width="118" style="clip-path:url(#clipPath6); stroke:none;" rx="15" ry="15" height="48" />
    </g>
    <g transform="translate(112,472)" style="font-size:14; stroke-linecap:butt; text-rendering:geometricPrecision; font-family:&apos;標楷體&apos;; stroke-linejoin:round; stroke-miterlimit:0;">
      <rect x="1" y="1" width="118" style="clip-path:url(#clipPath6); fill:none;" rx="15" ry="15" height="48" />
    </g>
    <g style="text-rendering:geometricPrecision; font-size:14; font-family:&apos;標楷體&apos;;" transform="translate(112,472)">
      <text x="18" y="32" style="clip-path:url(#clipPath7); stroke:none;" xml:space="preserve">查看寵物資訊</text>
    </g>
    <g transform="translate(252,402)" style="font-size:11; fill:rgb(122,207,245); text-rendering:geometricPrecision; font-family:sans-serif; stroke:rgb(122,207,245);">
      <polygon style="clip-path:url(#clipPath5); stroke:none;" points=" 10 7 17 20 10 32 3 20" />
    </g>
    <g transform="translate(252,402)" style="font-size:11; stroke-linecap:butt; text-rendering:geometricPrecision; font-family:sans-serif; stroke-linejoin:round; stroke-miterlimit:0;">
      <polygon style="fill:none; clip-path:url(#clipPath5);" points=" 10 7 17 20 10 32 3 20" />
    </g>
    <g transform="translate(282,472)" style="font-size:14; fill:rgb(122,207,245); text-rendering:geometricPrecision; font-family:&apos;標楷體&apos;; stroke:rgb(122,207,245);">
      <rect x="1" y="1" width="138" style="clip-path:url(#clipPath8); stroke:none;" rx="15" ry="15" height="48" />
    </g>
    <g transform="translate(282,472)" style="font-size:14; stroke-linecap:butt; text-rendering:geometricPrecision; font-family:&apos;標楷體&apos;; stroke-linejoin:round; stroke-miterlimit:0;">
      <rect x="1" y="1" width="138" style="clip-path:url(#clipPath8); fill:none;" rx="15" ry="15" height="48" />
    </g>
    <g style="text-rendering:geometricPrecision; font-size:14; font-family:&apos;標楷體&apos;;" transform="translate(282,472)">
      <text x="28" y="32" style="clip-path:url(#clipPath9); stroke:none;" xml:space="preserve">編輯寵物資訊</text>
    </g>
    <g transform="translate(342,572)" style="font-size:11; fill:rgb(122,207,245); text-rendering:geometricPrecision; font-family:sans-serif; stroke:rgb(122,207,245);">
      <polygon style="clip-path:url(#clipPath5); stroke:none;" points=" 10 7 17 20 10 32 3 20" />
    </g>
    <g transform="translate(342,572)" style="font-size:11; stroke-linecap:butt; text-rendering:geometricPrecision; font-family:sans-serif; stroke-linejoin:round; stroke-miterlimit:0;">
      <polygon style="fill:none; clip-path:url(#clipPath5);" points=" 10 7 17 20 10 32 3 20" />
    </g>
    <g transform="translate(302,642)" style="font-size:14; fill:rgb(122,207,245); text-rendering:geometricPrecision; font-family:&apos;標楷體&apos;; stroke:rgb(122,207,245);">
      <rect x="1" y="1" width="108" style="clip-path:url(#clipPath2); stroke:none;" rx="15" ry="15" height="38" />
    </g>
    <g transform="translate(302,642)" style="font-size:14; stroke-linecap:butt; text-rendering:geometricPrecision; font-family:&apos;標楷體&apos;; stroke-linejoin:round; stroke-miterlimit:0;">
      <rect x="1" y="1" width="108" style="clip-path:url(#clipPath2); fill:none;" rx="15" ry="15" height="38" />
    </g>
    <g style="text-rendering:geometricPrecision; font-size:14; font-family:&apos;標楷體&apos;;" transform="translate(302,642)">
      <text x="27" y="27" style="clip-path:url(#clipPath3); stroke:none;" xml:space="preserve">系統儲存</text>
    </g>
    <g transform="translate(342,712)" style="font-size:11; fill:rgb(122,207,245); text-rendering:geometricPrecision; font-family:sans-serif; stroke:rgb(122,207,245);">
      <polygon style="clip-path:url(#clipPath4); stroke:none;" points=" 10 7 18 20 10 32 3 20" />
    </g>
    <g transform="translate(342,712)" style="font-size:11; stroke-linecap:butt; text-rendering:geometricPrecision; font-family:sans-serif; stroke-linejoin:round; stroke-miterlimit:0;">
      <polygon style="fill:none; clip-path:url(#clipPath4);" points=" 10 7 18 20 10 32 3 20" />
    </g>
    <g style="text-rendering:geometricPrecision; font-size:11; font-family:sans-serif;" transform="translate(342,782)">
      <circle style="clip-path:url(#clipPath10); stroke:none;" r="6.6667" cx="10" cy="10" />
      <circle style="stroke-linecap:butt; clip-path:url(#clipPath10); fill:none; stroke-linejoin:round; stroke-miterlimit:0;" r="10" cx="10" cy="10" />
    </g>
    <g transform="translate(101,-51)" style="font-size:11; stroke-linecap:butt; text-rendering:geometricPrecision; font-family:sans-serif; stroke-linejoin:round;">
      <line x1="71" x2="71" y1="71" style="clip-path:url(#clipPath11); fill:none;" y2="104" />
      <line x1="71" x2="77" y1="104" style="clip-path:url(#clipPath11); fill:none;" y2="92" />
      <line x1="71" x2="65" y1="104" style="clip-path:url(#clipPath11); fill:none;" y2="92" />
    </g>
    <g transform="translate(101,19)" style="font-size:11; stroke-linecap:butt; text-rendering:geometricPrecision; font-family:sans-serif; stroke-linejoin:round;">
      <line x1="71" x2="71" y1="71" style="clip-path:url(#clipPath11); fill:none;" y2="104" />
      <line x1="71" x2="77" y1="104" style="clip-path:url(#clipPath11); fill:none;" y2="92" />
      <line x1="71" x2="65" y1="104" style="clip-path:url(#clipPath11); fill:none;" y2="92" />
    </g>
    <g transform="translate(101,69)" style="font-size:11; stroke-linecap:butt; text-rendering:geometricPrecision; font-family:sans-serif; stroke-linejoin:round;">
      <line x1="71" x2="71" y1="71" style="clip-path:url(#clipPath11); fill:none;" y2="104" />
      <line x1="71" x2="77" y1="104" style="clip-path:url(#clipPath11); fill:none;" y2="92" />
      <line x1="71" x2="65" y1="104" style="clip-path:url(#clipPath11); fill:none;" y2="92" />
    </g>
    <g transform="translate(101,139)" style="font-size:11; stroke-linecap:butt; text-rendering:geometricPrecision; font-family:sans-serif; stroke-linejoin:round;">
      <line x1="71" x2="71" y1="71" style="clip-path:url(#clipPath11); fill:none;" y2="104" />
      <line x1="71" x2="77" y1="104" style="clip-path:url(#clipPath11); fill:none;" y2="92" />
      <line x1="71" x2="65" y1="104" style="clip-path:url(#clipPath11); fill:none;" y2="92" />
    </g>
    <g transform="translate(103,185)" style="font-size:14; stroke-linecap:butt; text-rendering:geometricPrecision; font-family:&apos;標楷體&apos;; stroke-linejoin:round;">
      <line x1="71" x2="104" y1="71" style="clip-path:url(#clipPath12); fill:none;" y2="137" />
      <line x1="104" x2="104" y1="137" style="clip-path:url(#clipPath12); fill:none;" y2="123" />
      <line x1="104" x2="93" y1="137" style="clip-path:url(#clipPath12); fill:none;" y2="129" />
    </g>
    <g transform="translate(65,185)" style="font-size:14; stroke-linecap:butt; text-rendering:geometricPrecision; font-family:&apos;標楷體&apos;; stroke-linejoin:round;">
      <line x1="104" x2="71" y1="71" style="clip-path:url(#clipPath12); fill:none;" y2="137" />
      <line x1="71" x2="81" y1="137" style="clip-path:url(#clipPath12); fill:none;" y2="129" />
      <line x1="71" x2="70" y1="137" style="clip-path:url(#clipPath12); fill:none;" y2="123" />
    </g>
    <g transform="translate(21,279)" style="font-size:11; stroke-linecap:butt; text-rendering:geometricPrecision; font-family:sans-serif; stroke-linejoin:round;">
      <line x1="71" x2="71" y1="71" style="clip-path:url(#clipPath13); fill:none;" y2="134" />
      <line x1="71" x2="77" y1="134" style="clip-path:url(#clipPath13); fill:none;" y2="122" />
      <line x1="71" x2="65" y1="134" style="clip-path:url(#clipPath13); fill:none;" y2="122" />
    </g>
    <g transform="translate(191,279)" style="font-size:11; stroke-linecap:butt; text-rendering:geometricPrecision; font-family:sans-serif; stroke-linejoin:round;">
      <line x1="71" x2="71" y1="71" style="clip-path:url(#clipPath13); fill:none;" y2="134" />
      <line x1="71" x2="77" y1="134" style="clip-path:url(#clipPath13); fill:none;" y2="122" />
      <line x1="71" x2="65" y1="134" style="clip-path:url(#clipPath13); fill:none;" y2="122" />
    </g>
    <g transform="translate(151,353)" style="font-size:14; stroke-linecap:butt; text-rendering:geometricPrecision; font-family:&apos;標楷體&apos;; stroke-linejoin:round;">
      <line x1="109" x2="71" y1="71" style="clip-path:url(#clipPath14); fill:none;" y2="119" />
      <line x1="71" x2="82" y1="119" style="clip-path:url(#clipPath14); fill:none;" y2="113" />
      <line x1="71" x2="72" y1="119" style="clip-path:url(#clipPath14); fill:none;" y2="106" />
    </g>
    <g transform="translate(193,355)" style="font-size:14; stroke-linecap:butt; text-rendering:geometricPrecision; font-family:&apos;標楷體&apos;; stroke-linejoin:round;">
      <line x1="71" x2="99" y1="71" style="clip-path:url(#clipPath15); fill:none;" y2="117" />
      <line x1="99" x2="98" y1="117" style="clip-path:url(#clipPath15); fill:none;" y2="104" />
      <line x1="99" x2="87" y1="117" style="clip-path:url(#clipPath15); fill:none;" y2="110" />
    </g>
    <g transform="translate(281,449)" style="font-size:11; stroke-linecap:butt; text-rendering:geometricPrecision; font-family:sans-serif; stroke-linejoin:round;">
      <line x1="71" x2="71" y1="71" style="clip-path:url(#clipPath13); fill:none;" y2="134" />
      <line x1="71" x2="77" y1="134" style="clip-path:url(#clipPath13); fill:none;" y2="122" />
      <line x1="71" x2="65" y1="134" style="clip-path:url(#clipPath13); fill:none;" y2="122" />
    </g>
    <g transform="translate(281,529)" style="font-size:14; stroke-linecap:butt; text-rendering:geometricPrecision; font-family:&apos;標楷體&apos;; stroke-linejoin:round;">
      <line x1="71" x2="71" y1="71" style="clip-path:url(#clipPath16); fill:none;" y2="114" />
      <line x1="71" x2="77" y1="114" style="clip-path:url(#clipPath16); fill:none;" y2="102" />
      <line x1="71" x2="65" y1="114" style="clip-path:url(#clipPath16); fill:none;" y2="102" />
    </g>
    <g transform="translate(108,61)" style="font-size:14; stroke-linecap:butt; text-rendering:geometricPrecision; font-family:&apos;標楷體&apos;; stroke-linejoin:round;">
      <line x1="249" x2="354" y1="531" style="clip-path:url(#clipPath17); fill:none;" y2="531" />
      <line x1="354" x2="354" y1="531" style="clip-path:url(#clipPath17); fill:none;" y2="71" />
      <line x1="354" x2="71" y1="71" style="clip-path:url(#clipPath17); fill:none;" y2="71" />
      <line x1="71" x2="83" y1="71" style="clip-path:url(#clipPath17); fill:none;" y2="77" />
      <line x1="71" x2="83" y1="71" style="clip-path:url(#clipPath17); fill:none;" y2="65" />
    </g>
    <g transform="translate(281,609)" style="font-size:11; stroke-linecap:butt; text-rendering:geometricPrecision; font-family:sans-serif; stroke-linejoin:round;">
      <line x1="71" x2="71" y1="71" style="clip-path:url(#clipPath16); fill:none;" y2="114" />
      <line x1="71" x2="77" y1="114" style="clip-path:url(#clipPath16); fill:none;" y2="102" />
      <line x1="71" x2="65" y1="114" style="clip-path:url(#clipPath16); fill:none;" y2="102" />
    </g>
    <g transform="translate(281,669)" style="font-size:11; stroke-linecap:butt; text-rendering:geometricPrecision; font-family:sans-serif; stroke-linejoin:round;">
      <line x1="71" x2="71" y1="71" style="clip-path:url(#clipPath16); fill:none;" y2="114" />
      <line x1="71" x2="77" y1="114" style="clip-path:url(#clipPath16); fill:none;" y2="102" />
      <line x1="71" x2="65" y1="114" style="clip-path:url(#clipPath16); fill:none;" y2="102" />
    </g>
    <g transform="translate(91,449)" style="font-size:11; stroke-linecap:butt; text-rendering:geometricPrecision; font-family:sans-serif; stroke-linejoin:round;">
      <line x1="71" x2="71" y1="71" style="clip-path:url(#clipPath18); fill:none;" y2="283" />
      <line x1="71" x2="257" y1="283" style="clip-path:url(#clipPath18); fill:none;" y2="283" />
      <line x1="257" x2="245" y1="283" style="clip-path:url(#clipPath18); fill:none;" y2="277" />
      <line x1="257" x2="245" y1="283" style="clip-path:url(#clipPath18); fill:none;" y2="289" />
    </g>
    <g transform="translate(-69,61)" style="font-size:14; stroke-linecap:butt; text-rendering:geometricPrecision; font-family:&apos;標楷體&apos;; stroke-linejoin:round;">
      <line x1="157" x2="71" y1="361" style="clip-path:url(#clipPath19); fill:none;" y2="361" />
      <line x1="71" x2="71" y1="361" style="clip-path:url(#clipPath19); fill:none;" y2="71" />
      <line x1="71" x2="237" y1="71" style="clip-path:url(#clipPath19); fill:none;" y2="71" />
      <line x1="237" x2="225" y1="71" style="clip-path:url(#clipPath19); fill:none;" y2="65" />
      <line x1="237" x2="225" y1="71" style="clip-path:url(#clipPath19); fill:none;" y2="77" />
    </g>
    <g transform="translate(23,355)" style="font-size:14; stroke-linecap:butt; text-rendering:geometricPrecision; font-family:&apos;標楷體&apos;; stroke-linejoin:round;">
      <line x1="71" x2="99" y1="71" style="clip-path:url(#clipPath15); fill:none;" y2="117" />
      <line x1="99" x2="98" y1="117" style="clip-path:url(#clipPath15); fill:none;" y2="104" />
      <line x1="99" x2="87" y1="117" style="clip-path:url(#clipPath15); fill:none;" y2="110" />
    </g>
    <g style="text-rendering:geometricPrecision; font-size:14; font-family:&apos;標楷體&apos;;" transform="translate(16,442)">
      <text x="9" y="16" style="clip-path:url(#clipPath20); stroke:none;" xml:space="preserve">[新增成功]</text>
    </g>
    <g style="text-rendering:geometricPrecision; font-size:14; font-family:&apos;標楷體&apos;;" transform="translate(2,222)">
      <text x="10" y="16" style="clip-path:url(#clipPath21); stroke:none;" xml:space="preserve">[新增失敗]</text>
    </g>
    <g style="text-rendering:geometricPrecision; font-size:14; font-family:&apos;標楷體&apos;;" transform="translate(372,222)">
      <text x="10" y="16" style="clip-path:url(#clipPath21); stroke:none;" xml:space="preserve">[編輯失敗]</text>
    </g>
    <g style="text-rendering:geometricPrecision; font-size:14; font-family:&apos;標楷體&apos;;" transform="translate(362,612)">
      <text x="10" y="16" style="clip-path:url(#clipPath21); stroke:none;" xml:space="preserve">[編輯成功]</text>
    </g>
    <g style="text-rendering:geometricPrecision; font-size:14; font-family:&apos;標楷體&apos;;" transform="translate(278,429)">
      <text x="9" y="16" style="clip-path:url(#clipPath22); stroke:none;" xml:space="preserve">[編輯]</text>
    </g>
    <g style="text-rendering:geometricPrecision; font-size:14; font-family:&apos;標楷體&apos;;" transform="translate(179,425)">
      <text x="9" y="16" style="clip-path:url(#clipPath22); stroke:none;" xml:space="preserve">[查詢]</text>
    </g>
    <g style="text-rendering:geometricPrecision; font-size:14; font-family:&apos;標楷體&apos;;" transform="translate(82,272)">
      <text x="10" y="16" style="clip-path:url(#clipPath23); stroke:none;" xml:space="preserve">[新寵物]</text>
    </g>
    <g style="text-rendering:geometricPrecision; font-size:14; font-family:&apos;標楷體&apos;;" transform="translate(192,272)">
      <text x="10" y="16" style="clip-path:url(#clipPath23); stroke:none;" xml:space="preserve">[舊寵物]</text>
    </g>
    <g style="fill:rgb(120,120,120); text-rendering:geometricPrecision; font-size:10; stroke:rgb(120,120,120);">
    </g>
  </g>
</svg>
