<?xml version="1.0" encoding="UTF-8"?>

<!DOCTYPE svg PUBLIC '-//W3C//DTD SVG 1.0//EN' 'http://www.w3.org/TR/2001/REC-SVG-20010904/DTD/svg10.dtd'>
<svg style="fill-opacity:1; color-rendering:auto; color-interpolation:auto; stroke:black; text-rendering:auto; stroke-linecap:square; stroke-miterlimit:10; stroke-opacity:1; shape-rendering:auto; fill:black; stroke-dasharray:none; font-weight:normal; stroke-width:1; font-family:&apos;Dialog&apos;; font-style:normal; stroke-linejoin:miter; font-size:12; stroke-dashoffset:0; image-rendering:auto;" xmlns="http://www.w3.org/2000/svg" width="894" xmlns:xlink="http://www.w3.org/1999/xlink" height="609">
  <!--Generated by the Batik Graphics2D SVG Generator-->
  <defs id="genericDefs" />
  <g>
    <defs id="defs1">
      <clipPath clipPathUnits="userSpaceOnUse" id="clipPath1">
        <path d="M-3 -3 L67 -3 L67 567 L-3 567 L-3 -3 Z" />
      </clipPath>
      <clipPath clipPathUnits="userSpaceOnUse" id="clipPath2">
        <path d="M-3 -3 L15 -3 L15 232 L-3 232 L-3 -3 Z" />
      </clipPath>
      <clipPath clipPathUnits="userSpaceOnUse" id="clipPath3">
        <path d="M-3 -3 L877 -3 L877 487 L-3 487 L-3 -3 Z" />
      </clipPath>
      <clipPath clipPathUnits="userSpaceOnUse" id="clipPath4">
        <path d="M0 0 L27 0 L27 20 L0 20 L0 0 Z" />
      </clipPath>
      <clipPath clipPathUnits="userSpaceOnUse" id="clipPath5">
        <path d="M-3 -3 L877 -3 L877 225 L-3 225 L-3 -3 Z" />
      </clipPath>
      <clipPath clipPathUnits="userSpaceOnUse" id="clipPath6">
        <path d="M0 0 L81 0 L81 17 L0 17 L0 0 Z" />
      </clipPath>
      <clipPath clipPathUnits="userSpaceOnUse" id="clipPath7">
        <path d="M0 0 L0 4 L870 4 L870 0 Z" />
      </clipPath>
      <clipPath clipPathUnits="userSpaceOnUse" id="clipPath8">
        <path d="M-3 -3 L15 -3 L15 185 L-3 185 L-3 -3 Z" />
      </clipPath>
      <clipPath clipPathUnits="userSpaceOnUse" id="clipPath9">
        <path d="M-3 -3 L877 -3 L877 249 L-3 249 L-3 -3 Z" />
      </clipPath>
      <clipPath clipPathUnits="userSpaceOnUse" id="clipPath10">
        <path d="M0 0 L70 0 L70 17 L0 17 L0 0 Z" />
      </clipPath>
      <clipPath clipPathUnits="userSpaceOnUse" id="clipPath11">
        <path d="M-3 -3 L15 -3 L15 210 L-3 210 L-3 -3 Z" />
      </clipPath>
      <clipPath clipPathUnits="userSpaceOnUse" id="clipPath12">
        <path d="M-3 -3 L15 -3 L15 179 L-3 179 L-3 -3 Z" />
      </clipPath>
      <clipPath clipPathUnits="userSpaceOnUse" id="clipPath13">
        <path d="M-3 -3 L15 -3 L15 19 L-3 19 L-3 -3 Z" />
      </clipPath>
      <clipPath clipPathUnits="userSpaceOnUse" id="clipPath14">
        <path d="M-3 -3 L857 -3 L857 75 L-3 75 L-3 -3 Z" />
      </clipPath>
      <clipPath clipPathUnits="userSpaceOnUse" id="clipPath15">
        <path d="M0 0 L0 4 L850 4 L850 0 Z" />
      </clipPath>
      <clipPath clipPathUnits="userSpaceOnUse" id="clipPath16">
        <path d="M-3 -3 L857 -3 L857 62 L-3 62 L-3 -3 Z" />
      </clipPath>
      <clipPath clipPathUnits="userSpaceOnUse" id="clipPath17">
        <path d="M-3 -3 L857 -3 L857 147 L-3 147 L-3 -3 Z" />
      </clipPath>
      <clipPath clipPathUnits="userSpaceOnUse" id="clipPath18">
        <path d="M0 0 L23 0 L23 20 L0 20 L0 0 Z" />
      </clipPath>
      <clipPath clipPathUnits="userSpaceOnUse" id="clipPath19">
        <path d="M-3 -3 L857 -3 L857 59 L-3 59 L-3 -3 Z" />
      </clipPath>
      <clipPath clipPathUnits="userSpaceOnUse" id="clipPath20">
        <path d="M-3 -3 L857 -3 L857 72 L-3 72 L-3 -3 Z" />
      </clipPath>
      <clipPath clipPathUnits="userSpaceOnUse" id="clipPath21">
        <path d="M0 0 L60 0 L60 18 L0 18 L0 0 Z" />
      </clipPath>
      <clipPath clipPathUnits="userSpaceOnUse" id="clipPath22">
        <path d="M0 0 L62 0 L62 18 L0 18 L0 0 Z" />
      </clipPath>
      <clipPath clipPathUnits="userSpaceOnUse" id="clipPath23">
        <path d="M0 0 L326 0 L326 104 L0 104 L0 0 Z" />
      </clipPath>
      <clipPath clipPathUnits="userSpaceOnUse" id="clipPath24">
        <path d="M0 0 L346 0 L346 104 L0 104 L0 0 Z" />
      </clipPath>
      <clipPath clipPathUnits="userSpaceOnUse" id="clipPath25">
        <path d="M0 0 L130 0 L130 124 L0 124 L0 0 Z" />
      </clipPath>
      <clipPath clipPathUnits="userSpaceOnUse" id="clipPath26">
        <path d="M0 0 L153 0 L153 18 L0 18 L0 0 Z" />
      </clipPath>
      <clipPath clipPathUnits="userSpaceOnUse" id="clipPath27">
        <path d="M0 0 L181 0 L181 18 L0 18 L0 0 Z" />
      </clipPath>
      <clipPath clipPathUnits="userSpaceOnUse" id="clipPath28">
        <path d="M0 0 L195 0 L195 18 L0 18 L0 0 Z" />
      </clipPath>
      <clipPath clipPathUnits="userSpaceOnUse" id="clipPath29">
        <path d="M0 0 L125 0 L125 18 L0 18 L0 0 Z" />
      </clipPath>
      <clipPath clipPathUnits="userSpaceOnUse" id="clipPath30">
        <path d="M0 0 L209 0 L209 18 L0 18 L0 0 Z" />
      </clipPath>
      <clipPath clipPathUnits="userSpaceOnUse" id="clipPath31">
        <path d="M0 0 L139 0 L139 18 L0 18 L0 0 Z" />
      </clipPath>
    </defs>
    <g style="fill:white; text-rendering:geometricPrecision; stroke:white;">
      <rect x="0" y="0" width="894" style="stroke:none;" height="609" />
      <rect x="0" y="38" transform="translate(0,-38)" width="893" style="fill:none; stroke:black;" height="608" />
      <text x="7" y="57" transform="translate(0,-38)" style="fill:black; stroke:none; font-weight:bold;" xml:space="preserve">sd</text>
      <text x="28" y="57" transform="translate(0,-38)" style="fill:black; stroke:none;" xml:space="preserve">查詢附近店家</text>
      <line transform="translate(0,-38)" x1="0" x2="100" y1="64" style="fill:none; stroke:black;" y2="64" />
      <line transform="translate(0,-38)" x1="106" x2="106" y1="38" style="fill:none; stroke:black;" y2="53" />
      <line transform="translate(0,-38)" x1="106" x2="100" y1="53" style="fill:none; stroke:black;" y2="64" />
    </g>
    <g transform="translate(110,35)" style="font-size:14; fill:rgb(122,207,245); text-rendering:geometricPrecision; font-family:&apos;標楷體&apos;; stroke:rgb(122,207,245);">
      <circle style="clip-path:url(#clipPath1); stroke:none;" r="5" cx="30" cy="5" />
      <rect x="26" y="53" width="8" style="clip-path:url(#clipPath1); stroke:none;" height="506" />
    </g>
    <g transform="translate(110,35)" style="font-size:14; stroke-linecap:butt; text-rendering:geometricPrecision; font-family:&apos;標楷體&apos;; stroke-linejoin:round; stroke-miterlimit:0;">
      <circle style="fill:none; clip-path:url(#clipPath1);" r="5" cx="30" cy="5" />
      <rect x="26" y="53" width="8" style="clip-path:url(#clipPath1); fill:none;" height="506" />
      <line x1="30" x2="30" y1="10" style="clip-path:url(#clipPath1); fill:none;" y2="25" />
      <line x1="30" x2="21" y1="25" style="clip-path:url(#clipPath1); fill:none;" y2="36" />
      <line x1="30" x2="39" y1="25" style="clip-path:url(#clipPath1); fill:none;" y2="36" />
      <line x1="21" x2="39" y1="16" style="clip-path:url(#clipPath1); fill:none;" y2="16" />
    </g>
    <g transform="translate(340,35)" style="font-size:14; fill:rgb(122,207,245); text-rendering:geometricPrecision; font-family:&apos;標楷體&apos;; stroke:rgb(122,207,245);">
      <rect x="0" y="0" width="59" style="clip-path:url(#clipPath1); stroke:none;" height="35" />
    </g>
    <g transform="translate(340,35)" style="font-size:14; stroke-linecap:butt; text-rendering:geometricPrecision; font-family:&apos;標楷體&apos;; stroke-linejoin:round; stroke-miterlimit:0;">
      <rect x="0" y="0" width="59" style="clip-path:url(#clipPath1); fill:none;" height="35" />
      <line x1="29" x2="29" y1="35" style="clip-path:url(#clipPath1); fill:none; stroke-linejoin:bevel; stroke-dasharray:8,3;" y2="560" />
    </g>
    <g transform="translate(590,35)" style="font-size:14; fill:rgb(122,207,245); text-rendering:geometricPrecision; font-family:&apos;標楷體&apos;; stroke:rgb(122,207,245);">
      <rect x="0" y="0" width="59" style="clip-path:url(#clipPath1); stroke:none;" height="35" />
    </g>
    <g transform="translate(590,35)" style="font-size:14; stroke-linecap:butt; text-rendering:geometricPrecision; font-family:&apos;標楷體&apos;; stroke-linejoin:round; stroke-miterlimit:0;">
      <rect x="0" y="0" width="59" style="clip-path:url(#clipPath1); fill:none;" height="35" />
      <line x1="29" x2="29" y1="35" style="clip-path:url(#clipPath1); fill:none; stroke-linejoin:bevel; stroke-dasharray:8,3;" y2="560" />
    </g>
    <g transform="translate(366,87)" style="font-size:11; fill:rgb(122,207,245); text-rendering:geometricPrecision; font-family:sans-serif; stroke:rgb(122,207,245);">
      <rect x="0" y="0" width="8" style="clip-path:url(#clipPath2); stroke:none;" height="225" />
    </g>
    <g transform="translate(366,87)" style="font-size:11; stroke-linecap:butt; text-rendering:geometricPrecision; font-family:sans-serif; stroke-linejoin:round; stroke-miterlimit:0;">
      <rect x="0" y="0" width="8" style="clip-path:url(#clipPath2); fill:none;" height="225" />
    </g>
    <g transform="translate(10,95)" style="font-size:11; stroke-linecap:butt; text-rendering:geometricPrecision; font-family:sans-serif; stroke-linejoin:round; font-weight:bold; stroke-miterlimit:0;">
      <rect x="0" y="0" width="870" style="clip-path:url(#clipPath3); fill:none;" height="480" />
    </g>
    <g transform="translate(10,95)" style="font-size:11; fill:white; text-rendering:geometricPrecision; font-family:sans-serif; stroke:white; font-weight:bold;">
      <path d="M26 0 L26 10 L20 19 L0 19 L0 0 Z" style="clip-path:url(#clipPath3); stroke:none;" />
    </g>
    <g transform="translate(10,95)" style="font-size:11; stroke-linecap:butt; text-rendering:geometricPrecision; font-family:sans-serif; stroke-linejoin:round; font-weight:bold; stroke-miterlimit:0;">
      <path d="M26 0 L26 10 L20 19 L0 19 L0 0 Z" style="fill:none; clip-path:url(#clipPath3);" />
    </g>
    <g transform="translate(10,95)" style="text-rendering:geometricPrecision; font-size:11; font-weight:bold; font-family:sans-serif;">
      <text x="4" y="14" style="clip-path:url(#clipPath4); stroke:none;" xml:space="preserve">opt</text>
    </g>
    <g transform="translate(10,115)" style="font-size:11; fill:white; text-rendering:geometricPrecision; font-family:sans-serif; stroke:white;">
      <rect x="28" y="5" width="81" style="clip-path:url(#clipPath5); stroke:none;" height="17" />
    </g>
    <g transform="translate(10,115)" style="font-size:11; stroke-linecap:butt; text-rendering:geometricPrecision; font-family:sans-serif; stroke-linejoin:bevel; stroke-dasharray:5,2; stroke-miterlimit:0;">
      <line x1="0" x2="869" y1="217" style="clip-path:url(#clipPath5); fill:none;" y2="217" />
    </g>
    <g style="text-rendering:geometricPrecision; font-size:11; font-family:sans-serif;" transform="translate(38,120)">
      <text x="10" y="14" style="clip-path:url(#clipPath6); stroke:none;" xml:space="preserve">[關鍵字查詢]</text>
    </g>
    <g transform="translate(616,115)" style="font-size:11; fill:rgb(122,207,245); text-rendering:geometricPrecision; font-family:sans-serif; stroke:rgb(122,207,245);">
      <rect x="0" y="0" width="8" style="clip-path:url(#clipPath8); stroke:none;" height="178" />
    </g>
    <g transform="translate(616,115)" style="font-size:11; stroke-linecap:butt; text-rendering:geometricPrecision; font-family:sans-serif; stroke-linejoin:round; stroke-miterlimit:0;">
      <rect x="0" y="0" width="8" style="clip-path:url(#clipPath8); fill:none;" height="178" />
    </g>
    <g transform="translate(10,328)" style="font-size:11; fill:white; text-rendering:geometricPrecision; font-family:sans-serif; stroke:white;">
      <rect x="28" y="5" width="70" style="clip-path:url(#clipPath9); stroke:none;" height="17" />
    </g>
    <g style="text-rendering:geometricPrecision; font-size:11; font-family:sans-serif;" transform="translate(38,333)">
      <text x="10" y="14" style="clip-path:url(#clipPath10); stroke:none;" xml:space="preserve">[條件篩選]</text>
    </g>
    <g transform="translate(366,351)" style="font-size:11; fill:rgb(122,207,245); text-rendering:geometricPrecision; font-family:sans-serif; stroke:rgb(122,207,245);">
      <rect x="0" y="0" width="8" style="clip-path:url(#clipPath11); stroke:none;" height="203" />
    </g>
    <g transform="translate(366,351)" style="font-size:11; stroke-linecap:butt; text-rendering:geometricPrecision; font-family:sans-serif; stroke-linejoin:round; stroke-miterlimit:0;">
      <rect x="0" y="0" width="8" style="clip-path:url(#clipPath11); fill:none;" height="203" />
    </g>
    <g transform="translate(616,365)" style="font-size:11; fill:rgb(122,207,245); text-rendering:geometricPrecision; font-family:sans-serif; stroke:rgb(122,207,245);">
      <rect x="0" y="0" width="8" style="clip-path:url(#clipPath12); stroke:none;" height="172" />
    </g>
    <g transform="translate(616,365)" style="font-size:11; stroke-linecap:butt; text-rendering:geometricPrecision; font-family:sans-serif; stroke-linejoin:round; stroke-miterlimit:0;">
      <rect x="0" y="0" width="8" style="clip-path:url(#clipPath12); fill:none;" height="172" />
    </g>
    <g transform="translate(620,435)" style="font-size:11; fill:rgb(122,207,245); text-rendering:geometricPrecision; font-family:sans-serif; stroke:rgb(122,207,245);">
      <rect x="0" y="0" width="8" style="clip-path:url(#clipPath13); stroke:none;" height="12" />
    </g>
    <g transform="translate(620,435)" style="font-size:11; stroke-linecap:butt; text-rendering:geometricPrecision; font-family:sans-serif; stroke-linejoin:round; stroke-miterlimit:0;">
      <rect x="0" y="0" width="8" style="clip-path:url(#clipPath13); fill:none;" height="12" />
    </g>
    <g transform="translate(20,488)" style="font-size:11; fill:white; text-rendering:geometricPrecision; font-family:sans-serif; stroke:white;">
      <rect x="28" y="5" width="70" style="clip-path:url(#clipPath14); stroke:none;" height="17" />
    </g>
    <g style="text-rendering:geometricPrecision; font-size:11; font-family:sans-serif;" transform="translate(48,493)">
      <text x="10" y="14" style="clip-path:url(#clipPath10); stroke:none;" xml:space="preserve">[查詢成功]</text>
    </g>
    <g transform="translate(20,185)" style="font-size:11; fill:white; text-rendering:geometricPrecision; font-family:sans-serif; stroke:white;">
      <rect x="28" y="5" width="70" style="clip-path:url(#clipPath16); stroke:none;" height="17" />
    </g>
    <g transform="translate(20,185)" style="font-size:11; stroke-linecap:butt; text-rendering:geometricPrecision; font-family:sans-serif; stroke-linejoin:bevel; stroke-dasharray:5,2; stroke-miterlimit:0;">
      <line x1="0" x2="849" y1="54" style="clip-path:url(#clipPath16); fill:none;" y2="54" />
    </g>
    <g style="text-rendering:geometricPrecision; font-size:11; font-family:sans-serif;" transform="translate(48,190)">
      <text x="10" y="14" style="clip-path:url(#clipPath10); stroke:none;" xml:space="preserve">[查無資料]</text>
    </g>
    <g transform="translate(20,405)" style="font-size:11; stroke-linecap:butt; text-rendering:geometricPrecision; font-family:sans-serif; stroke-linejoin:round; font-weight:bold; stroke-miterlimit:0;">
      <rect x="0" y="0" width="850" style="clip-path:url(#clipPath17); fill:none;" height="140" />
    </g>
    <g transform="translate(20,405)" style="font-size:11; fill:white; text-rendering:geometricPrecision; font-family:sans-serif; stroke:white; font-weight:bold;">
      <path d="M22 0 L22 10 L16 19 L0 19 L0 0 Z" style="clip-path:url(#clipPath17); stroke:none;" />
    </g>
    <g transform="translate(20,405)" style="font-size:11; stroke-linecap:butt; text-rendering:geometricPrecision; font-family:sans-serif; stroke-linejoin:round; font-weight:bold; stroke-miterlimit:0;">
      <path d="M22 0 L22 10 L16 19 L0 19 L0 0 Z" style="fill:none; clip-path:url(#clipPath17);" />
    </g>
    <g transform="translate(20,405)" style="text-rendering:geometricPrecision; font-size:11; font-weight:bold; font-family:sans-serif;">
      <text x="5" y="14" style="clip-path:url(#clipPath18); stroke:none;" xml:space="preserve">alt</text>
    </g>
    <g transform="translate(620,505)" style="font-size:11; fill:rgb(122,207,245); text-rendering:geometricPrecision; font-family:sans-serif; stroke:rgb(122,207,245);">
      <rect x="0" y="0" width="8" style="clip-path:url(#clipPath13); stroke:none;" height="12" />
    </g>
    <g transform="translate(620,505)" style="font-size:11; stroke-linecap:butt; text-rendering:geometricPrecision; font-family:sans-serif; stroke-linejoin:round; stroke-miterlimit:0;">
      <rect x="0" y="0" width="8" style="clip-path:url(#clipPath13); fill:none;" height="12" />
    </g>
    <g transform="translate(20,425)" style="font-size:11; fill:white; text-rendering:geometricPrecision; font-family:sans-serif; stroke:white;">
      <rect x="28" y="5" width="70" style="clip-path:url(#clipPath19); stroke:none;" height="17" />
    </g>
    <g transform="translate(20,425)" style="font-size:11; stroke-linecap:butt; text-rendering:geometricPrecision; font-family:sans-serif; stroke-linejoin:bevel; stroke-dasharray:5,2; stroke-miterlimit:0;">
      <line x1="0" x2="849" y1="51" style="clip-path:url(#clipPath19); fill:none;" y2="51" />
    </g>
    <g style="text-rendering:geometricPrecision; font-size:11; font-family:sans-serif;" transform="translate(48,430)">
      <text x="10" y="14" style="clip-path:url(#clipPath10); stroke:none;" xml:space="preserve">[查無資料]</text>
    </g>
    <g transform="translate(20,165)" style="font-size:11; stroke-linecap:butt; text-rendering:geometricPrecision; font-family:sans-serif; stroke-linejoin:round; font-weight:bold; stroke-miterlimit:0;">
      <rect x="0" y="0" width="850" style="clip-path:url(#clipPath17); fill:none;" height="140" />
    </g>
    <g transform="translate(20,165)" style="font-size:11; fill:white; text-rendering:geometricPrecision; font-family:sans-serif; stroke:white; font-weight:bold;">
      <path d="M22 0 L22 10 L16 19 L0 19 L0 0 Z" style="clip-path:url(#clipPath17); stroke:none;" />
    </g>
    <g transform="translate(20,165)" style="font-size:11; stroke-linecap:butt; text-rendering:geometricPrecision; font-family:sans-serif; stroke-linejoin:round; font-weight:bold; stroke-miterlimit:0;">
      <path d="M22 0 L22 10 L16 19 L0 19 L0 0 Z" style="fill:none; clip-path:url(#clipPath17);" />
    </g>
    <g transform="translate(20,165)" style="text-rendering:geometricPrecision; font-size:11; font-weight:bold; font-family:sans-serif;">
      <text x="5" y="14" style="clip-path:url(#clipPath18); stroke:none;" xml:space="preserve">alt</text>
    </g>
    <g transform="translate(620,188)" style="font-size:11; fill:rgb(122,207,245); text-rendering:geometricPrecision; font-family:sans-serif; stroke:rgb(122,207,245);">
      <rect x="0" y="0" width="8" style="clip-path:url(#clipPath13); stroke:none;" height="12" />
    </g>
    <g transform="translate(620,188)" style="font-size:11; stroke-linecap:butt; text-rendering:geometricPrecision; font-family:sans-serif; stroke-linejoin:round; stroke-miterlimit:0;">
      <rect x="0" y="0" width="8" style="clip-path:url(#clipPath13); fill:none;" height="12" />
    </g>
    <g transform="translate(20,238)" style="font-size:11; fill:white; text-rendering:geometricPrecision; font-family:sans-serif; stroke:white;">
      <rect x="28" y="5" width="70" style="clip-path:url(#clipPath20); stroke:none;" height="17" />
    </g>
    <g style="text-rendering:geometricPrecision; font-size:11; font-family:sans-serif;" transform="translate(48,243)">
      <text x="10" y="14" style="clip-path:url(#clipPath10); stroke:none;" xml:space="preserve">[查詢成功]</text>
    </g>
    <g transform="translate(620,265)" style="font-size:11; fill:rgb(122,207,245); text-rendering:geometricPrecision; font-family:sans-serif; stroke:rgb(122,207,245);">
      <rect x="0" y="0" width="8" style="clip-path:url(#clipPath13); stroke:none;" height="12" />
    </g>
    <g transform="translate(620,265)" style="font-size:11; stroke-linecap:butt; text-rendering:geometricPrecision; font-family:sans-serif; stroke-linejoin:round; stroke-miterlimit:0;">
      <rect x="0" y="0" width="8" style="clip-path:url(#clipPath13); fill:none;" height="12" />
    </g>
    <g style="text-rendering:geometricPrecision; font-size:14; font-family:&apos;標楷體&apos;;" transform="translate(590,35)">
      <text x="9" y="16" style="clip-path:url(#clipPath21); stroke:none;" xml:space="preserve">資料庫</text>
    </g>
    <g style="text-rendering:geometricPrecision; font-size:14; font-family:&apos;標楷體&apos;;" transform="translate(340,35)">
      <text x="16" y="16" style="clip-path:url(#clipPath21); stroke:none;" xml:space="preserve">系統</text>
    </g>
    <g style="text-rendering:geometricPrecision; font-size:14; font-family:&apos;標楷體&apos;;" transform="translate(109,70)">
      <text x="10" y="16" style="clip-path:url(#clipPath22); stroke:none;" xml:space="preserve">使用者</text>
    </g>
    <g transform="translate(94,75)" style="font-size:14; stroke-linecap:butt; text-rendering:geometricPrecision; font-family:&apos;標楷體&apos;; stroke-linejoin:round;">
      <line x1="50" x2="272" y1="50" style="clip-path:url(#clipPath23); fill:none;" y2="50" />
      <polygon style="clip-path:url(#clipPath23); stroke:none;" points=" 272 50 260 44 260 56" />
      <polygon style="fill:none; clip-path:url(#clipPath23);" points=" 272 50 260 44 260 56" />
    </g>
    <g transform="translate(94,315)" style="font-size:14; stroke-linecap:butt; text-rendering:geometricPrecision; font-family:&apos;標楷體&apos;; stroke-linejoin:round;">
      <line x1="50" x2="272" y1="50" style="clip-path:url(#clipPath23); fill:none;" y2="50" />
      <polygon style="clip-path:url(#clipPath23); stroke:none;" points=" 272 50 260 44 260 56" />
      <polygon style="fill:none; clip-path:url(#clipPath23);" points=" 272 50 260 44 260 56" />
    </g>
    <g transform="translate(94,175)" style="font-size:14; stroke-linecap:butt; text-rendering:geometricPrecision; font-family:&apos;標楷體&apos;; stroke-linejoin:round; stroke-dasharray:8,3; stroke-miterlimit:0;">
      <line x1="272" x2="50" y1="50" style="clip-path:url(#clipPath23); fill:none;" y2="50" />
      <line x1="50" x2="62" y1="50" style="clip-path:url(#clipPath23); fill:none; stroke-dasharray:none; stroke-miterlimit:10;" y2="56" />
      <line x1="50" x2="62" y1="50" style="clip-path:url(#clipPath23); fill:none; stroke-dasharray:none; stroke-miterlimit:10;" y2="44" />
    </g>
    <g transform="translate(94,245)" style="font-size:14; stroke-linecap:butt; text-rendering:geometricPrecision; font-family:&apos;標楷體&apos;; stroke-linejoin:round; stroke-dasharray:8,3; stroke-miterlimit:0;">
      <line x1="272" x2="50" y1="50" style="clip-path:url(#clipPath23); fill:none;" y2="50" />
      <line x1="50" x2="62" y1="50" style="clip-path:url(#clipPath23); fill:none; stroke-dasharray:none; stroke-miterlimit:10;" y2="56" />
      <line x1="50" x2="62" y1="50" style="clip-path:url(#clipPath23); fill:none; stroke-dasharray:none; stroke-miterlimit:10;" y2="44" />
    </g>
    <g transform="translate(94,415)" style="font-size:14; stroke-linecap:butt; text-rendering:geometricPrecision; font-family:&apos;標楷體&apos;; stroke-linejoin:round; stroke-dasharray:8,3; stroke-miterlimit:0;">
      <line x1="272" x2="50" y1="50" style="clip-path:url(#clipPath23); fill:none;" y2="50" />
      <line x1="50" x2="62" y1="50" style="clip-path:url(#clipPath23); fill:none; stroke-dasharray:none; stroke-miterlimit:10;" y2="56" />
      <line x1="50" x2="62" y1="50" style="clip-path:url(#clipPath23); fill:none; stroke-dasharray:none; stroke-miterlimit:10;" y2="44" />
    </g>
    <g transform="translate(94,485)" style="font-size:14; stroke-linecap:butt; text-rendering:geometricPrecision; font-family:&apos;標楷體&apos;; stroke-linejoin:round; stroke-dasharray:8,3; stroke-miterlimit:0;">
      <line x1="272" x2="50" y1="50" style="clip-path:url(#clipPath23); fill:none;" y2="50" />
      <line x1="50" x2="62" y1="50" style="clip-path:url(#clipPath23); fill:none; stroke-dasharray:none; stroke-miterlimit:10;" y2="56" />
      <line x1="50" x2="62" y1="50" style="clip-path:url(#clipPath23); fill:none; stroke-dasharray:none; stroke-miterlimit:10;" y2="44" />
    </g>
    <g transform="translate(324,85)" style="font-size:14; stroke-linecap:butt; text-rendering:geometricPrecision; font-family:&apos;標楷體&apos;; stroke-linejoin:round;">
      <line x1="50" x2="292" y1="50" style="clip-path:url(#clipPath24); fill:none;" y2="50" />
      <polygon style="clip-path:url(#clipPath24); stroke:none;" points=" 292 50 280 44 280 56" />
      <polygon style="fill:none; clip-path:url(#clipPath24);" points=" 292 50 280 44 280 56" />
    </g>
    <g transform="translate(574,125)" style="font-size:14; stroke-linecap:butt; text-rendering:geometricPrecision; font-family:&apos;標楷體&apos;; stroke-linejoin:round;">
      <line x1="50" x2="76" y1="50" style="clip-path:url(#clipPath25); fill:none;" y2="50" />
      <line x1="76" x2="76" y1="50" style="clip-path:url(#clipPath25); fill:none;" y2="70" />
      <line x1="76" x2="54" y1="70" style="clip-path:url(#clipPath25); fill:none;" y2="70" />
      <polygon style="clip-path:url(#clipPath25); stroke:none;" points=" 54 70 66 76 66 64" />
      <polygon style="fill:none; clip-path:url(#clipPath25);" points=" 54 70 66 76 66 64" />
    </g>
    <g transform="translate(574,195)" style="font-size:14; stroke-linecap:butt; text-rendering:geometricPrecision; font-family:&apos;標楷體&apos;; stroke-linejoin:round;">
      <line x1="50" x2="76" y1="50" style="clip-path:url(#clipPath25); fill:none;" y2="50" />
      <line x1="76" x2="76" y1="50" style="clip-path:url(#clipPath25); fill:none;" y2="70" />
      <line x1="76" x2="54" y1="70" style="clip-path:url(#clipPath25); fill:none;" y2="70" />
      <polygon style="clip-path:url(#clipPath25); stroke:none;" points=" 54 70 66 76 66 64" />
      <polygon style="fill:none; clip-path:url(#clipPath25);" points=" 54 70 66 76 66 64" />
    </g>
    <g transform="translate(324,325)" style="font-size:14; stroke-linecap:butt; text-rendering:geometricPrecision; font-family:&apos;標楷體&apos;; stroke-linejoin:round;">
      <line x1="50" x2="292" y1="50" style="clip-path:url(#clipPath24); fill:none;" y2="50" />
      <polygon style="clip-path:url(#clipPath24); stroke:none;" points=" 292 50 280 44 280 56" />
      <polygon style="fill:none; clip-path:url(#clipPath24);" points=" 292 50 280 44 280 56" />
    </g>
    <g transform="translate(574,365)" style="font-size:14; stroke-linecap:butt; text-rendering:geometricPrecision; font-family:&apos;標楷體&apos;; stroke-linejoin:round;">
      <line x1="50" x2="76" y1="50" style="clip-path:url(#clipPath25); fill:none;" y2="50" />
      <line x1="76" x2="76" y1="50" style="clip-path:url(#clipPath25); fill:none;" y2="70" />
      <line x1="76" x2="54" y1="70" style="clip-path:url(#clipPath25); fill:none;" y2="70" />
      <polygon style="clip-path:url(#clipPath25); stroke:none;" points=" 54 70 66 76 66 64" />
      <polygon style="fill:none; clip-path:url(#clipPath25);" points=" 54 70 66 76 66 64" />
    </g>
    <g transform="translate(574,435)" style="font-size:14; stroke-linecap:butt; text-rendering:geometricPrecision; font-family:&apos;標楷體&apos;; stroke-linejoin:round;">
      <line x1="50" x2="76" y1="50" style="clip-path:url(#clipPath25); fill:none;" y2="50" />
      <line x1="76" x2="76" y1="50" style="clip-path:url(#clipPath25); fill:none;" y2="70" />
      <line x1="76" x2="54" y1="70" style="clip-path:url(#clipPath25); fill:none;" y2="70" />
      <polygon style="clip-path:url(#clipPath25); stroke:none;" points=" 54 70 66 76 66 64" />
      <polygon style="fill:none; clip-path:url(#clipPath25);" points=" 54 70 66 76 66 64" />
    </g>
    <g transform="translate(324,165)" style="font-size:14; stroke-linecap:butt; text-rendering:geometricPrecision; font-family:&apos;標楷體&apos;; stroke-linejoin:round; stroke-dasharray:8,3; stroke-miterlimit:0;">
      <line x1="292" x2="50" y1="50" style="clip-path:url(#clipPath24); fill:none;" y2="50" />
      <line x1="50" x2="62" y1="50" style="clip-path:url(#clipPath24); fill:none; stroke-dasharray:none; stroke-miterlimit:10;" y2="56" />
      <line x1="50" x2="62" y1="50" style="clip-path:url(#clipPath24); fill:none; stroke-dasharray:none; stroke-miterlimit:10;" y2="44" />
    </g>
    <g transform="translate(324,235)" style="font-size:14; stroke-linecap:butt; text-rendering:geometricPrecision; font-family:&apos;標楷體&apos;; stroke-linejoin:round; stroke-dasharray:8,3; stroke-miterlimit:0;">
      <line x1="292" x2="50" y1="50" style="clip-path:url(#clipPath24); fill:none;" y2="50" />
      <line x1="50" x2="62" y1="50" style="clip-path:url(#clipPath24); fill:none; stroke-dasharray:none; stroke-miterlimit:10;" y2="56" />
      <line x1="50" x2="62" y1="50" style="clip-path:url(#clipPath24); fill:none; stroke-dasharray:none; stroke-miterlimit:10;" y2="44" />
    </g>
    <g transform="translate(324,405)" style="font-size:14; stroke-linecap:butt; text-rendering:geometricPrecision; font-family:&apos;標楷體&apos;; stroke-linejoin:round; stroke-dasharray:8,3; stroke-miterlimit:0;">
      <line x1="292" x2="50" y1="50" style="clip-path:url(#clipPath24); fill:none;" y2="50" />
      <line x1="50" x2="62" y1="50" style="clip-path:url(#clipPath24); fill:none; stroke-dasharray:none; stroke-miterlimit:10;" y2="56" />
      <line x1="50" x2="62" y1="50" style="clip-path:url(#clipPath24); fill:none; stroke-dasharray:none; stroke-miterlimit:10;" y2="44" />
    </g>
    <g transform="translate(324,475)" style="font-size:14; stroke-linecap:butt; text-rendering:geometricPrecision; font-family:&apos;標楷體&apos;; stroke-linejoin:round; stroke-dasharray:8,3; stroke-miterlimit:0;">
      <line x1="292" x2="50" y1="50" style="clip-path:url(#clipPath24); fill:none;" y2="50" />
      <line x1="50" x2="62" y1="50" style="clip-path:url(#clipPath24); fill:none; stroke-dasharray:none; stroke-miterlimit:10;" y2="56" />
      <line x1="50" x2="62" y1="50" style="clip-path:url(#clipPath24); fill:none; stroke-dasharray:none; stroke-miterlimit:10;" y2="44" />
    </g>
    <g style="text-rendering:geometricPrecision; font-size:14; font-family:&apos;標楷體&apos;;" transform="translate(418,502)">
      <text x="10" y="16" style="clip-path:url(#clipPath26); stroke:none;" xml:space="preserve">3.1.4: 回傳符合資料</text>
    </g>
    <g style="text-rendering:geometricPrecision; font-size:14; font-family:&apos;標楷體&apos;;" transform="translate(404,432)">
      <text x="10" y="16" style="clip-path:url(#clipPath27); stroke:none;" xml:space="preserve">3.1.2: 回傳查詢失敗訊息</text>
    </g>
    <g style="text-rendering:geometricPrecision; font-size:14; font-family:&apos;標楷體&apos;;" transform="translate(418,262)">
      <text x="10" y="16" style="clip-path:url(#clipPath26); stroke:none;" xml:space="preserve">1.1.4: 回傳符合資料</text>
    </g>
    <g style="text-rendering:geometricPrecision; font-size:14; font-family:&apos;標楷體&apos;;" transform="translate(397,192)">
      <text x="10" y="16" style="clip-path:url(#clipPath28); stroke:none;" xml:space="preserve">1.1.2: 回傳無相關資料訊息</text>
    </g>
    <g style="text-rendering:geometricPrecision; font-size:14; font-family:&apos;標楷體&apos;;" transform="translate(650,485)">
      <text x="10" y="16" style="clip-path:url(#clipPath26); stroke:none;" xml:space="preserve">3.1.3: 資料比對成功</text>
    </g>
    <g style="text-rendering:geometricPrecision; font-size:14; font-family:&apos;標楷體&apos;;" transform="translate(650,415)">
      <text x="10" y="16" style="clip-path:url(#clipPath27); stroke:none;" xml:space="preserve">3.1.1: 條件篩選查無資料</text>
    </g>
    <g style="text-rendering:geometricPrecision; font-size:14; font-family:&apos;標楷體&apos;;" transform="translate(432,352)">
      <text x="10" y="16" style="clip-path:url(#clipPath29); stroke:none;" xml:space="preserve">3.1: 搜尋資料庫</text>
    </g>
    <g style="text-rendering:geometricPrecision; font-size:14; font-family:&apos;標楷體&apos;;" transform="translate(650,245)">
      <text x="10" y="16" style="clip-path:url(#clipPath26); stroke:none;" xml:space="preserve">1.1.3: 資料比對成功</text>
    </g>
    <g style="text-rendering:geometricPrecision; font-size:14; font-family:&apos;標楷體&apos;;" transform="translate(650,175)">
      <text x="10" y="16" style="clip-path:url(#clipPath30); stroke:none;" xml:space="preserve">1.1.1: 資料比對查無相關資料</text>
    </g>
    <g style="text-rendering:geometricPrecision; font-size:14; font-family:&apos;標楷體&apos;;" transform="translate(432,112)">
      <text x="10" y="16" style="clip-path:url(#clipPath29); stroke:none;" xml:space="preserve">1.1: 搜尋資料庫</text>
    </g>
    <g style="text-rendering:geometricPrecision; font-size:14; font-family:&apos;標楷體&apos;;" transform="translate(192,512)">
      <text x="10" y="16" style="clip-path:url(#clipPath29); stroke:none;" xml:space="preserve">4: 顯示相關資料</text>
    </g>
    <g style="text-rendering:geometricPrecision; font-size:14; font-family:&apos;標楷體&apos;;" transform="translate(178,442)">
      <text x="10" y="16" style="clip-path:url(#clipPath26); stroke:none;" xml:space="preserve">4: 顯示查無相關資料</text>
    </g>
    <g style="text-rendering:geometricPrecision; font-size:14; font-family:&apos;標楷體&apos;;" transform="translate(192,272)">
      <text x="10" y="16" style="clip-path:url(#clipPath29); stroke:none;" xml:space="preserve">2: 顯示相關資料</text>
    </g>
    <g style="text-rendering:geometricPrecision; font-size:14; font-family:&apos;標楷體&apos;;" transform="translate(178,202)">
      <text x="10" y="16" style="clip-path:url(#clipPath26); stroke:none;" xml:space="preserve">2: 顯示查無相關資料</text>
    </g>
    <g style="text-rendering:geometricPrecision; font-size:14; font-family:&apos;標楷體&apos;;" transform="translate(192,342)">
      <text x="10" y="16" style="clip-path:url(#clipPath29); stroke:none;" xml:space="preserve">3: 選擇條件篩選</text>
    </g>
    <g style="text-rendering:geometricPrecision; font-size:14; font-family:&apos;標楷體&apos;;" transform="translate(185,102)">
      <text x="10" y="16" style="clip-path:url(#clipPath31); stroke:none;" xml:space="preserve">1: 輸入關鍵字搜尋</text>
    </g>
    <g style="fill:rgb(120,120,120); text-rendering:geometricPrecision; font-size:10; stroke:rgb(120,120,120);">
    </g>
  </g>
</svg>
