<?xml version="1.0" encoding="UTF-8"?>

<!DOCTYPE svg PUBLIC '-//W3C//DTD SVG 1.0//EN' 'http://www.w3.org/TR/2001/REC-SVG-20010904/DTD/svg10.dtd'>
<svg style="fill-opacity:1; color-rendering:auto; color-interpolation:auto; stroke:black; text-rendering:auto; stroke-linecap:square; stroke-miterlimit:10; stroke-opacity:1; shape-rendering:auto; fill:black; stroke-dasharray:none; font-weight:normal; stroke-width:1; font-family:&apos;Dialog&apos;; font-style:normal; stroke-linejoin:miter; font-size:12; stroke-dashoffset:0; image-rendering:auto;" xmlns="http://www.w3.org/2000/svg" width="636" xmlns:xlink="http://www.w3.org/1999/xlink" height="336">
  <!--Generated by the Batik Graphics2D SVG Generator-->
  <defs id="genericDefs" />
  <g>
    <defs id="defs1">
      <clipPath clipPathUnits="userSpaceOnUse" id="clipPath1">
        <path d="M-3 -3 L177 -3 L177 117 L-3 117 L-3 -3 Z" />
      </clipPath>
      <clipPath clipPathUnits="userSpaceOnUse" id="clipPath2">
        <path d="M0 0 L0 100 L170 100 L170 0 Z" />
      </clipPath>
      <clipPath clipPathUnits="userSpaceOnUse" id="clipPath3">
        <path d="M0 0 L170 0 L170 17 L0 17 L0 0 Z" />
      </clipPath>
      <clipPath clipPathUnits="userSpaceOnUse" id="clipPath4">
        <path d="M-3 -3 L157 -3 L157 117 L-3 117 L-3 -3 Z" />
      </clipPath>
      <clipPath clipPathUnits="userSpaceOnUse" id="clipPath5">
        <path d="M0 0 L0 100 L150 100 L150 0 Z" />
      </clipPath>
      <clipPath clipPathUnits="userSpaceOnUse" id="clipPath6">
        <path d="M0 0 L150 0 L150 17 L0 17 L0 0 Z" />
      </clipPath>
      <clipPath clipPathUnits="userSpaceOnUse" id="clipPath7">
        <path d="M-3 -3 L157 -3 L157 87 L-3 87 L-3 -3 Z" />
      </clipPath>
      <clipPath clipPathUnits="userSpaceOnUse" id="clipPath8">
        <path d="M0 0 L0 70 L150 70 L150 0 Z" />
      </clipPath>
      <clipPath clipPathUnits="userSpaceOnUse" id="clipPath9">
        <path d="M-3 -3 L177 -3 L177 67 L-3 67 L-3 -3 Z" />
      </clipPath>
      <clipPath clipPathUnits="userSpaceOnUse" id="clipPath10">
        <path d="M0 0 L0 50 L170 50 L170 0 Z" />
      </clipPath>
      <clipPath clipPathUnits="userSpaceOnUse" id="clipPath11">
        <path d="M-3 -3 L177 -3 L177 57 L-3 57 L-3 -3 Z" />
      </clipPath>
      <clipPath clipPathUnits="userSpaceOnUse" id="clipPath12">
        <path d="M0 0 L0 40 L170 40 L170 0 Z" />
      </clipPath>
      <clipPath clipPathUnits="userSpaceOnUse" id="clipPath13">
        <path d="M-3 -3 L47 -3 L47 27 L-3 27 L-3 -3 Z" />
      </clipPath>
      <clipPath clipPathUnits="userSpaceOnUse" id="clipPath14">
        <path d="M0 0 L234 0 L234 183 L0 183 L0 0 Z" />
      </clipPath>
      <clipPath clipPathUnits="userSpaceOnUse" id="clipPath15">
        <path d="M0 0 L243 0 L243 183 L0 183 L0 0 Z" />
      </clipPath>
      <clipPath clipPathUnits="userSpaceOnUse" id="clipPath16">
        <path d="M0 0 L104 0 L104 153 L0 153 L0 0 Z" />
      </clipPath>
      <clipPath clipPathUnits="userSpaceOnUse" id="clipPath17">
        <path d="M0 0 L353 0 L353 404 L0 404 L0 0 Z" />
      </clipPath>
      <clipPath clipPathUnits="userSpaceOnUse" id="clipPath18">
        <path d="M0 0 L104 0 L104 163 L0 163 L0 0 Z" />
      </clipPath>
      <clipPath clipPathUnits="userSpaceOnUse" id="clipPath19">
        <path d="M0 0 L163 0 L163 174 L0 174 L0 0 Z" />
      </clipPath>
      <clipPath clipPathUnits="userSpaceOnUse" id="clipPath20">
        <path d="M0 0 L40 0 L40 20 L0 20 L0 0 Z" />
      </clipPath>
    </defs>
    <g style="fill:white; text-rendering:geometricPrecision; stroke:white;">
      <rect x="0" y="0" width="636" style="stroke:none;" height="336" />
    </g>
    <g transform="translate(252,2)" style="font-size:14; fill:rgb(122,207,245); text-rendering:geometricPrecision; font-family:&apos;Times New Roman&apos;; stroke:rgb(122,207,245); font-weight:bold;">
      <rect x="0" y="0" width="170" style="clip-path:url(#clipPath1); stroke:none;" height="110" />
    </g>
    <g transform="translate(252,2)" style="font-size:14; stroke-linecap:butt; text-rendering:geometricPrecision; font-family:&apos;Times New Roman&apos;; stroke-linejoin:round; font-weight:bold; stroke-miterlimit:0;">
      <rect x="0" y="0" width="170" style="clip-path:url(#clipPath1); fill:none;" height="110" />
      <line x1="0" x2="170" y1="17" style="clip-path:url(#clipPath1); fill:none;" y2="17" />
    </g>
    <g style="text-rendering:geometricPrecision; font-size:14; font-family:&apos;Times New Roman&apos;;" transform="translate(252,19)">
      <text x="2" y="15" style="clip-path:url(#clipPath2); stroke:none;" xml:space="preserve">-activityID : string</text>
      <text x="2" y="31" style="clip-path:url(#clipPath2); stroke:none;" xml:space="preserve">-activityName : string</text>
      <text x="2" y="47" style="clip-path:url(#clipPath2); stroke:none;" xml:space="preserve">-activityClass : char</text>
      <text x="2" y="63" style="clip-path:url(#clipPath2); stroke:none;" xml:space="preserve">-reapt : int</text>
      <text x="2" y="79" style="clip-path:url(#clipPath2); stroke:none;" xml:space="preserve">-note : string</text>
    </g>
    <g transform="translate(252,2)" style="text-rendering:geometricPrecision; font-size:14; font-weight:bold; font-family:&apos;Times New Roman&apos;;">
      <text x="58" y="14" style="clip-path:url(#clipPath3); stroke:none;" xml:space="preserve">calendar</text>
    </g>
    <g transform="translate(482,152)" style="font-size:14; fill:rgb(122,207,245); text-rendering:geometricPrecision; font-family:&apos;Times New Roman&apos;; stroke:rgb(122,207,245); font-weight:bold;">
      <rect x="0" y="0" width="150" style="clip-path:url(#clipPath4); stroke:none;" height="110" />
    </g>
    <g transform="translate(482,152)" style="font-size:14; stroke-linecap:butt; text-rendering:geometricPrecision; font-family:&apos;Times New Roman&apos;; stroke-linejoin:round; font-weight:bold; stroke-miterlimit:0;">
      <rect x="0" y="0" width="150" style="clip-path:url(#clipPath4); fill:none;" height="110" />
      <line x1="0" x2="150" y1="17" style="clip-path:url(#clipPath4); fill:none;" y2="17" />
    </g>
    <g style="text-rendering:geometricPrecision; font-size:14; font-family:&apos;Times New Roman&apos;;" transform="translate(482,169)">
      <text x="2" y="15" style="clip-path:url(#clipPath5); stroke:none;" xml:space="preserve">-activityID : string</text>
      <text x="2" y="31" style="clip-path:url(#clipPath5); stroke:none;" xml:space="preserve">-current : timestamp</text>
      <text x="2" y="47" style="clip-path:url(#clipPath5); stroke:none;" xml:space="preserve">-terminalTime : date</text>
      <text x="2" y="63" style="clip-path:url(#clipPath5); stroke:none;" xml:space="preserve">-remind : char</text>
      <text x="2" y="79" style="clip-path:url(#clipPath5); stroke:none;" xml:space="preserve">-countDown : int</text>
    </g>
    <g transform="translate(482,152)" style="text-rendering:geometricPrecision; font-size:14; font-weight:bold; font-family:&apos;Times New Roman&apos;;">
      <text x="58" y="14" style="clip-path:url(#clipPath6); stroke:none;" xml:space="preserve">timer</text>
    </g>
    <g transform="translate(42,152)" style="font-size:14; fill:rgb(122,207,245); text-rendering:geometricPrecision; font-family:&apos;Times New Roman&apos;; stroke:rgb(122,207,245); font-weight:bold;">
      <rect x="0" y="0" width="150" style="clip-path:url(#clipPath7); stroke:none;" height="80" />
    </g>
    <g transform="translate(42,152)" style="font-size:14; stroke-linecap:butt; text-rendering:geometricPrecision; font-family:&apos;Times New Roman&apos;; stroke-linejoin:round; font-weight:bold; stroke-miterlimit:0;">
      <rect x="0" y="0" width="150" style="clip-path:url(#clipPath7); fill:none;" height="80" />
      <line x1="0" x2="150" y1="17" style="clip-path:url(#clipPath7); fill:none;" y2="17" />
    </g>
    <g style="text-rendering:geometricPrecision; font-size:14; font-family:&apos;Times New Roman&apos;;" transform="translate(42,169)">
      <text x="2" y="15" style="clip-path:url(#clipPath8); stroke:none;" xml:space="preserve">-activityID : string</text>
      <text x="2" y="31" style="clip-path:url(#clipPath8); stroke:none;" xml:space="preserve">-startingTime : date</text>
      <text x="2" y="47" style="clip-path:url(#clipPath8); stroke:none;" xml:space="preserve">-termicalTime : date</text>
    </g>
    <g transform="translate(42,152)" style="text-rendering:geometricPrecision; font-size:14; font-weight:bold; font-family:&apos;Times New Roman&apos;;">
      <text x="41" y="14" style="clip-path:url(#clipPath6); stroke:none;" xml:space="preserve">timeStamp</text>
    </g>
    <g transform="translate(252,162)" style="font-size:14; fill:rgb(122,207,245); text-rendering:geometricPrecision; font-family:&apos;Times New Roman&apos;; stroke:rgb(122,207,245); font-weight:bold;">
      <rect x="0" y="0" width="170" style="clip-path:url(#clipPath9); stroke:none;" height="60" />
    </g>
    <g transform="translate(252,162)" style="font-size:14; stroke-linecap:butt; text-rendering:geometricPrecision; font-family:&apos;Times New Roman&apos;; stroke-linejoin:round; font-weight:bold; stroke-miterlimit:0;">
      <rect x="0" y="0" width="170" style="clip-path:url(#clipPath9); fill:none;" height="60" />
      <line x1="0" x2="170" y1="17" style="clip-path:url(#clipPath9); fill:none;" y2="17" />
    </g>
    <g style="text-rendering:geometricPrecision; font-size:14; font-family:&apos;Times New Roman&apos;;" transform="translate(252,179)">
      <text x="2" y="15" style="clip-path:url(#clipPath10); stroke:none;" xml:space="preserve">-activityClass : string</text>
      <text x="2" y="31" style="clip-path:url(#clipPath10); stroke:none;" xml:space="preserve">-activityClassName : string</text>
    </g>
    <g transform="translate(252,162)" style="text-rendering:geometricPrecision; font-size:14; font-weight:bold; font-family:&apos;Times New Roman&apos;;">
      <text x="62" y="14" style="clip-path:url(#clipPath3); stroke:none;" xml:space="preserve">activity</text>
    </g>
    <g transform="translate(252,282)" style="font-size:14; fill:rgb(122,207,245); text-rendering:geometricPrecision; font-family:&apos;Times New Roman&apos;; stroke:rgb(122,207,245); font-weight:bold;">
      <rect x="0" y="0" width="170" style="clip-path:url(#clipPath11); stroke:none;" height="50" />
    </g>
    <g transform="translate(252,282)" style="font-size:14; stroke-linecap:butt; text-rendering:geometricPrecision; font-family:&apos;Times New Roman&apos;; stroke-linejoin:round; font-weight:bold; stroke-miterlimit:0;">
      <rect x="0" y="0" width="170" style="clip-path:url(#clipPath11); fill:none;" height="50" />
      <line x1="0" x2="170" y1="17" style="clip-path:url(#clipPath11); fill:none;" y2="17" />
    </g>
    <g style="text-rendering:geometricPrecision; font-size:14; font-family:&apos;Times New Roman&apos;;" transform="translate(252,299)">
      <text x="2" y="15" style="clip-path:url(#clipPath12); stroke:none;" xml:space="preserve">-activityName : string</text>
    </g>
    <g transform="translate(252,282)" style="text-rendering:geometricPrecision; font-size:14; font-weight:bold; font-family:&apos;Times New Roman&apos;;">
      <text x="58" y="14" style="clip-path:url(#clipPath3); stroke:none;" xml:space="preserve">database</text>
    </g>
    <g transform="translate(372,22)" style="font-size:11; stroke-linecap:butt; text-rendering:geometricPrecision; font-family:sans-serif; stroke-linejoin:round;">
      <line x1="50" x2="180" y1="50" style="clip-path:url(#clipPath14); fill:none;" y2="50" />
      <line x1="180" x2="180" y1="50" style="clip-path:url(#clipPath14); fill:none;" y2="129" />
    </g>
    <g transform="translate(62,22)" style="font-size:11; stroke-linecap:butt; text-rendering:geometricPrecision; font-family:sans-serif; stroke-linejoin:round;">
      <line x1="189" x2="50" y1="50" style="clip-path:url(#clipPath15); fill:none;" y2="50" />
      <line x1="50" x2="50" y1="50" style="clip-path:url(#clipPath15); fill:none;" y2="129" />
    </g>
    <g transform="translate(292,62)" style="font-size:11; stroke-linecap:butt; text-rendering:geometricPrecision; font-family:sans-serif; stroke-linejoin:round;">
      <line x1="50" x2="50" y1="50" style="clip-path:url(#clipPath16); fill:none;" y2="99" />
    </g>
    <g transform="translate(-48,-28)" style="font-size:11; stroke-linecap:butt; text-rendering:geometricPrecision; font-family:sans-serif; stroke-linejoin:round;">
      <line x1="299" x2="50" y1="50" style="clip-path:url(#clipPath17); fill:none;" y2="50" />
      <line x1="50" x2="50" y1="50" style="clip-path:url(#clipPath17); fill:none;" y2="350" />
      <line x1="50" x2="299" y1="350" style="clip-path:url(#clipPath17); fill:none;" y2="350" />
    </g>
    <g transform="translate(292,172)" style="font-size:11; stroke-linecap:butt; text-rendering:geometricPrecision; font-family:sans-serif; stroke-linejoin:round;">
      <line x1="50" x2="50" y1="50" style="clip-path:url(#clipPath18); fill:none;" y2="109" />
    </g>
    <g transform="translate(142,182)" style="font-size:11; stroke-linecap:butt; text-rendering:geometricPrecision; font-family:sans-serif; stroke-linejoin:round;">
      <line x1="50" x2="80" y1="50" style="clip-path:url(#clipPath19); fill:none;" y2="50" />
      <line x1="80" x2="80" y1="50" style="clip-path:url(#clipPath19); fill:none;" y2="120" />
      <line x1="80" x2="109" y1="120" style="clip-path:url(#clipPath19); fill:none;" y2="120" />
    </g>
    <g transform="translate(372,182)" style="font-size:11; stroke-linecap:butt; text-rendering:geometricPrecision; font-family:sans-serif; stroke-linejoin:round;">
      <line x1="50" x2="80" y1="120" style="clip-path:url(#clipPath19); fill:none;" y2="120" />
      <line x1="80" x2="80" y1="120" style="clip-path:url(#clipPath19); fill:none;" y2="50" />
      <line x1="80" x2="109" y1="50" style="clip-path:url(#clipPath19); fill:none;" y2="50" />
    </g>
    <g style="text-rendering:geometricPrecision; font-size:11; font-family:sans-serif;" transform="translate(342,262)">
      <text x="17" y="15" style="clip-path:url(#clipPath20); stroke:none;" xml:space="preserve">1</text>
    </g>
    <g style="text-rendering:geometricPrecision; font-size:11; font-family:sans-serif;" transform="translate(342,222)">
      <text x="17" y="15" style="clip-path:url(#clipPath20); stroke:none;" xml:space="preserve">1</text>
    </g>
    <g style="text-rendering:geometricPrecision; font-size:11; font-family:sans-serif;" transform="translate(342,142)">
      <text x="11" y="15" style="clip-path:url(#clipPath20); stroke:none;" xml:space="preserve">1..*</text>
    </g>
    <g style="text-rendering:geometricPrecision; font-size:11; font-family:sans-serif;" transform="translate(342,112)">
      <text x="17" y="15" style="clip-path:url(#clipPath20); stroke:none;" xml:space="preserve">1</text>
    </g>
    <g style="text-rendering:geometricPrecision; font-size:11; font-family:sans-serif;" transform="translate(552,132)">
      <text x="11" y="15" style="clip-path:url(#clipPath20); stroke:none;" xml:space="preserve">1..*</text>
    </g>
    <g style="text-rendering:geometricPrecision; font-size:11; font-family:sans-serif;" transform="translate(422,52)">
      <text x="17" y="15" style="clip-path:url(#clipPath20); stroke:none;" xml:space="preserve">1</text>
    </g>
    <g style="text-rendering:geometricPrecision; font-size:11; font-family:sans-serif;" transform="translate(212,302)">
      <text x="17" y="15" style="clip-path:url(#clipPath20); stroke:none;" xml:space="preserve">1</text>
    </g>
    <g style="text-rendering:geometricPrecision; font-size:11; font-family:sans-serif;" transform="translate(212,2)">
      <text x="17" y="15" style="clip-path:url(#clipPath20); stroke:none;" xml:space="preserve">1</text>
    </g>
    <g style="text-rendering:geometricPrecision; font-size:11; font-family:sans-serif;" transform="translate(222,282)">
      <text x="17" y="15" style="clip-path:url(#clipPath20); stroke:none;" xml:space="preserve">1</text>
    </g>
    <g style="text-rendering:geometricPrecision; font-size:11; font-family:sans-serif;" transform="translate(182,212)">
      <text x="17" y="15" style="clip-path:url(#clipPath20); stroke:none;" xml:space="preserve">1</text>
    </g>
    <g style="text-rendering:geometricPrecision; font-size:11; font-family:sans-serif;" transform="translate(452,212)">
      <text x="17" y="15" style="clip-path:url(#clipPath20); stroke:none;" xml:space="preserve">1</text>
    </g>
    <g style="text-rendering:geometricPrecision; font-size:11; font-family:sans-serif;" transform="translate(412,282)">
      <text x="17" y="15" style="clip-path:url(#clipPath20); stroke:none;" xml:space="preserve">1</text>
    </g>
    <g style="text-rendering:geometricPrecision; font-size:11; font-family:sans-serif;" transform="translate(72,132)">
      <text x="11" y="15" style="clip-path:url(#clipPath20); stroke:none;" xml:space="preserve">1..*</text>
    </g>
    <g style="text-rendering:geometricPrecision; font-size:11; font-family:sans-serif;" transform="translate(212,52)">
      <text x="17" y="15" style="clip-path:url(#clipPath20); stroke:none;" xml:space="preserve">1</text>
    </g>
    <g style="fill:rgb(120,120,120); text-rendering:geometricPrecision; font-size:10; stroke:rgb(120,120,120);">
    </g>
  </g>
</svg>
