<?xml version="1.0" encoding="UTF-8"?>

<!DOCTYPE svg PUBLIC '-//W3C//DTD SVG 1.0//EN' 'http://www.w3.org/TR/2001/REC-SVG-20010904/DTD/svg10.dtd'>
<svg style="fill-opacity:1; color-rendering:auto; color-interpolation:auto; stroke:black; text-rendering:auto; stroke-linecap:square; stroke-miterlimit:10; stroke-opacity:1; shape-rendering:auto; fill:black; stroke-dasharray:none; font-weight:normal; stroke-width:1; font-family:&apos;Dialog&apos;; font-style:normal; stroke-linejoin:miter; font-size:12; stroke-dashoffset:0; image-rendering:auto;" xmlns="http://www.w3.org/2000/svg" width="556" xmlns:xlink="http://www.w3.org/1999/xlink" height="296">
  <!--Generated by the Batik Graphics2D SVG Generator-->
  <defs id="genericDefs" />
  <g>
    <defs id="defs1">
      <clipPath clipPathUnits="userSpaceOnUse" id="clipPath1">
        <path d="M-3 -3 L177 -3 L177 147 L-3 147 L-3 -3 Z" />
      </clipPath>
      <clipPath clipPathUnits="userSpaceOnUse" id="clipPath2">
        <path d="M0 0 L0 130 L170 130 L170 0 Z" />
      </clipPath>
      <clipPath clipPathUnits="userSpaceOnUse" id="clipPath3">
        <path d="M0 0 L170 0 L170 17 L0 17 L0 0 Z" />
      </clipPath>
      <clipPath clipPathUnits="userSpaceOnUse" id="clipPath4">
        <path d="M-3 -3 L147 -3 L147 87 L-3 87 L-3 -3 Z" />
      </clipPath>
      <clipPath clipPathUnits="userSpaceOnUse" id="clipPath5">
        <path d="M0 0 L0 70 L140 70 L140 0 Z" />
      </clipPath>
      <clipPath clipPathUnits="userSpaceOnUse" id="clipPath6">
        <path d="M0 0 L140 0 L140 17 L0 17 L0 0 Z" />
      </clipPath>
      <clipPath clipPathUnits="userSpaceOnUse" id="clipPath7">
        <path d="M-3 -3 L147 -3 L147 167 L-3 167 L-3 -3 Z" />
      </clipPath>
      <clipPath clipPathUnits="userSpaceOnUse" id="clipPath8">
        <path d="M0 0 L0 150 L140 150 L140 0 Z" />
      </clipPath>
      <clipPath clipPathUnits="userSpaceOnUse" id="clipPath9">
        <path d="M-3 -3 L177 -3 L177 97 L-3 97 L-3 -3 Z" />
      </clipPath>
      <clipPath clipPathUnits="userSpaceOnUse" id="clipPath10">
        <path d="M0 0 L0 80 L170 80 L170 0 Z" />
      </clipPath>
      <clipPath clipPathUnits="userSpaceOnUse" id="clipPath11">
        <path d="M-3 -3 L47 -3 L47 27 L-3 27 L-3 -3 Z" />
      </clipPath>
      <clipPath clipPathUnits="userSpaceOnUse" id="clipPath12">
        <path d="M0 0 L204 0 L204 183 L0 183 L0 0 Z" />
      </clipPath>
      <clipPath clipPathUnits="userSpaceOnUse" id="clipPath13">
        <path d="M0 0 L153 0 L153 104 L0 104 L0 0 Z" />
      </clipPath>
      <clipPath clipPathUnits="userSpaceOnUse" id="clipPath14">
        <path d="M0 0 L104 0 L104 143 L0 143 L0 0 Z" />
      </clipPath>
      <clipPath clipPathUnits="userSpaceOnUse" id="clipPath15">
        <path d="M0 0 L213 0 L213 183 L0 183 L0 0 Z" />
      </clipPath>
      <clipPath clipPathUnits="userSpaceOnUse" id="clipPath16">
        <path d="M0 0 L40 0 L40 20 L0 20 L0 0 Z" />
      </clipPath>
    </defs>
    <g style="fill:white; text-rendering:geometricPrecision; stroke:white;">
      <rect x="0" y="0" width="556" style="stroke:none;" height="296" />
    </g>
    <g transform="translate(382,132)" style="font-size:14; fill:rgb(122,207,245); text-rendering:geometricPrecision; font-family:&apos;Times New Roman&apos;; stroke:rgb(122,207,245); font-weight:bold;">
      <rect x="0" y="0" width="170" style="clip-path:url(#clipPath1); stroke:none;" height="140" />
    </g>
    <g transform="translate(382,132)" style="font-size:14; stroke-linecap:butt; text-rendering:geometricPrecision; font-family:&apos;Times New Roman&apos;; stroke-linejoin:round; font-weight:bold; stroke-miterlimit:0;">
      <rect x="0" y="0" width="170" style="clip-path:url(#clipPath1); fill:none;" height="140" />
      <line x1="0" x2="170" y1="17" style="clip-path:url(#clipPath1); fill:none;" y2="17" />
    </g>
    <g style="text-rendering:geometricPrecision; font-size:14; font-family:&apos;Times New Roman&apos;;" transform="translate(382,149)">
      <text x="2" y="15" style="clip-path:url(#clipPath2); stroke:none;" xml:space="preserve">-memID : string</text>
      <text x="2" y="31" style="clip-path:url(#clipPath2); stroke:none;" xml:space="preserve">-memName : string</text>
      <text x="2" y="47" style="clip-path:url(#clipPath2); stroke:none;" xml:space="preserve">-memBir : data</text>
      <text x="2" y="63" style="clip-path:url(#clipPath2); stroke:none;" xml:space="preserve">-memMail : string</text>
      <text x="2" y="79" style="clip-path:url(#clipPath2); stroke:none;" xml:space="preserve">-memGender : char</text>
      <text x="2" y="95" style="clip-path:url(#clipPath2); stroke:none;" xml:space="preserve">-memAddr : string</text>
      <text x="2" y="111" style="clip-path:url(#clipPath2); stroke:none;" xml:space="preserve">-type : char</text>
    </g>
    <g transform="translate(382,132)" style="text-rendering:geometricPrecision; font-size:14; font-weight:bold; font-family:&apos;Times New Roman&apos;;">
      <text x="60" y="14" style="clip-path:url(#clipPath3); stroke:none;" xml:space="preserve">member</text>
    </g>
    <g transform="translate(192,132)" style="font-size:14; fill:rgb(122,207,245); text-rendering:geometricPrecision; font-family:&apos;Times New Roman&apos;; stroke:rgb(122,207,245); font-weight:bold;">
      <rect x="0" y="0" width="140" style="clip-path:url(#clipPath4); stroke:none;" height="80" />
    </g>
    <g transform="translate(192,132)" style="font-size:14; stroke-linecap:butt; text-rendering:geometricPrecision; font-family:&apos;Times New Roman&apos;; stroke-linejoin:round; font-weight:bold; stroke-miterlimit:0;">
      <rect x="0" y="0" width="140" style="clip-path:url(#clipPath4); fill:none;" height="80" />
      <line x1="0" x2="140" y1="17" style="clip-path:url(#clipPath4); fill:none;" y2="17" />
    </g>
    <g style="text-rendering:geometricPrecision; font-size:14; font-family:&apos;Times New Roman&apos;;" transform="translate(192,149)">
      <text x="2" y="15" style="clip-path:url(#clipPath5); stroke:none;" xml:space="preserve">-memID : string</text>
      <text x="2" y="31" style="clip-path:url(#clipPath5); stroke:none;" xml:space="preserve">-memAcct : string</text>
      <text x="2" y="47" style="clip-path:url(#clipPath5); stroke:none;" xml:space="preserve">-memPsd : string</text>
    </g>
    <g transform="translate(192,132)" style="text-rendering:geometricPrecision; font-size:14; font-weight:bold; font-family:&apos;Times New Roman&apos;;">
      <text x="46" y="14" style="clip-path:url(#clipPath6); stroke:none;" xml:space="preserve">account</text>
    </g>
    <g transform="translate(2,132)" style="font-size:14; fill:rgb(122,207,245); text-rendering:geometricPrecision; font-family:&apos;Times New Roman&apos;; stroke:rgb(122,207,245); font-weight:bold;">
      <rect x="0" y="0" width="140" style="clip-path:url(#clipPath7); stroke:none;" height="160" />
    </g>
    <g transform="translate(2,132)" style="font-size:14; stroke-linecap:butt; text-rendering:geometricPrecision; font-family:&apos;Times New Roman&apos;; stroke-linejoin:round; font-weight:bold; stroke-miterlimit:0;">
      <rect x="0" y="0" width="140" style="clip-path:url(#clipPath7); fill:none;" height="160" />
      <line x1="0" x2="140" y1="17" style="clip-path:url(#clipPath7); fill:none;" y2="17" />
    </g>
    <g style="text-rendering:geometricPrecision; font-size:14; font-family:&apos;Times New Roman&apos;;" transform="translate(2,149)">
      <text x="2" y="15" style="clip-path:url(#clipPath8); stroke:none;" xml:space="preserve">-memID : string</text>
      <text x="2" y="31" style="clip-path:url(#clipPath8); stroke:none;" xml:space="preserve">-petID : string</text>
      <text x="2" y="47" style="clip-path:url(#clipPath8); stroke:none;" xml:space="preserve">-petName : string</text>
      <text x="2" y="63" style="clip-path:url(#clipPath8); stroke:none;" xml:space="preserve">-petGender : char</text>
      <text x="2" y="79" style="clip-path:url(#clipPath8); stroke:none;" xml:space="preserve">-petBir : data</text>
      <text x="2" y="95" style="clip-path:url(#clipPath8); stroke:none;" xml:space="preserve">-petKind : char</text>
      <text x="2" y="111" style="clip-path:url(#clipPath8); stroke:none;" xml:space="preserve">-petInterest : string</text>
      <text x="2" y="127" style="clip-path:url(#clipPath8); stroke:none;" xml:space="preserve">-note : string</text>
    </g>
    <g transform="translate(2,132)" style="text-rendering:geometricPrecision; font-size:14; font-weight:bold; font-family:&apos;Times New Roman&apos;;">
      <text x="60" y="14" style="clip-path:url(#clipPath6); stroke:none;" xml:space="preserve">pet</text>
    </g>
    <g transform="translate(192,2)" style="font-size:14; fill:rgb(122,207,245); text-rendering:geometricPrecision; font-family:&apos;Times New Roman&apos;; stroke:rgb(122,207,245); font-weight:bold;">
      <rect x="0" y="0" width="170" style="clip-path:url(#clipPath9); stroke:none;" height="90" />
    </g>
    <g transform="translate(192,2)" style="font-size:14; stroke-linecap:butt; text-rendering:geometricPrecision; font-family:&apos;Times New Roman&apos;; stroke-linejoin:round; font-weight:bold; stroke-miterlimit:0;">
      <rect x="0" y="0" width="170" style="clip-path:url(#clipPath9); fill:none;" height="90" />
      <line x1="0" x2="170" y1="17" style="clip-path:url(#clipPath9); fill:none;" y2="17" />
    </g>
    <g style="text-rendering:geometricPrecision; font-size:14; font-family:&apos;Times New Roman&apos;;" transform="translate(192,19)">
      <text x="2" y="15" style="clip-path:url(#clipPath10); stroke:none;" xml:space="preserve">-memName : string</text>
      <text x="2" y="31" style="clip-path:url(#clipPath10); stroke:none;" xml:space="preserve">-managerName : string</text>
      <text x="2" y="47" style="clip-path:url(#clipPath10); stroke:none;" xml:space="preserve">-adoptAgencyName : string</text>
      <text x="2" y="63" style="clip-path:url(#clipPath10); stroke:none;" xml:space="preserve">-petName : string</text>
    </g>
    <g transform="translate(192,2)" style="text-rendering:geometricPrecision; font-size:14; font-weight:bold; font-family:&apos;Times New Roman&apos;;">
      <text x="58" y="14" style="clip-path:url(#clipPath3); stroke:none;" xml:space="preserve">database</text>
    </g>
    <g transform="translate(312,2)" style="font-size:11; stroke-linecap:butt; text-rendering:geometricPrecision; font-family:sans-serif; stroke-linejoin:round;">
      <line x1="150" x2="150" y1="129" style="clip-path:url(#clipPath12); fill:none;" y2="50" />
      <line x1="150" x2="50" y1="50" style="clip-path:url(#clipPath12); fill:none;" y2="50" />
    </g>
    <g transform="translate(282,122)" style="font-size:11; stroke-linecap:butt; text-rendering:geometricPrecision; font-family:sans-serif; stroke-linejoin:round;">
      <line x1="99" x2="50" y1="50" style="clip-path:url(#clipPath13); fill:none;" y2="50" />
    </g>
    <g transform="translate(222,42)" style="font-size:11; stroke-linecap:butt; text-rendering:geometricPrecision; font-family:sans-serif; stroke-linejoin:round;">
      <line x1="50" x2="50" y1="50" style="clip-path:url(#clipPath14); fill:none;" y2="89" />
    </g>
    <g transform="translate(92,122)" style="font-size:11; stroke-linecap:butt; text-rendering:geometricPrecision; font-family:sans-serif; stroke-linejoin:round;">
      <line x1="99" x2="50" y1="50" style="clip-path:url(#clipPath13); fill:none;" y2="50" />
    </g>
    <g transform="translate(32,2)" style="font-size:11; stroke-linecap:butt; text-rendering:geometricPrecision; font-family:sans-serif; stroke-linejoin:round;">
      <line x1="159" x2="50" y1="50" style="clip-path:url(#clipPath15); fill:none;" y2="50" />
      <line x1="50" x2="50" y1="50" style="clip-path:url(#clipPath15); fill:none;" y2="129" />
    </g>
    <g style="text-rendering:geometricPrecision; font-size:11; font-family:sans-serif;" transform="translate(352,32)">
      <text x="17" y="15" style="clip-path:url(#clipPath16); stroke:none;" xml:space="preserve">1</text>
    </g>
    <g style="text-rendering:geometricPrecision; font-size:11; font-family:sans-serif;" transform="translate(462,112)">
      <text x="17" y="15" style="clip-path:url(#clipPath16); stroke:none;" xml:space="preserve">1</text>
    </g>
    <g style="text-rendering:geometricPrecision; font-size:11; font-family:sans-serif;" transform="translate(262,112)">
      <text x="17" y="15" style="clip-path:url(#clipPath16); stroke:none;" xml:space="preserve">1</text>
    </g>
    <g style="text-rendering:geometricPrecision; font-size:11; font-family:sans-serif;" transform="translate(262,92)">
      <text x="17" y="15" style="clip-path:url(#clipPath16); stroke:none;" xml:space="preserve">1</text>
    </g>
    <g style="text-rendering:geometricPrecision; font-size:11; font-family:sans-serif;" transform="translate(52,112)">
      <text x="17" y="15" style="clip-path:url(#clipPath16); stroke:none;" xml:space="preserve">1</text>
    </g>
    <g style="text-rendering:geometricPrecision; font-size:11; font-family:sans-serif;" transform="translate(162,32)">
      <text x="17" y="15" style="clip-path:url(#clipPath16); stroke:none;" xml:space="preserve">1</text>
    </g>
    <g style="text-rendering:geometricPrecision; font-size:11; font-family:sans-serif;" transform="translate(132,152)">
      <text x="11" y="15" style="clip-path:url(#clipPath16); stroke:none;" xml:space="preserve">1..*</text>
    </g>
    <g style="text-rendering:geometricPrecision; font-size:11; font-family:sans-serif;" transform="translate(162,152)">
      <text x="17" y="15" style="clip-path:url(#clipPath16); stroke:none;" xml:space="preserve">1</text>
    </g>
    <g style="text-rendering:geometricPrecision; font-size:11; font-family:sans-serif;" transform="translate(322,152)">
      <text x="17" y="15" style="clip-path:url(#clipPath16); stroke:none;" xml:space="preserve">1</text>
    </g>
    <g style="text-rendering:geometricPrecision; font-size:11; font-family:sans-serif;" transform="translate(352,152)">
      <text x="17" y="15" style="clip-path:url(#clipPath16); stroke:none;" xml:space="preserve">1</text>
    </g>
    <g style="fill:rgb(120,120,120); text-rendering:geometricPrecision; font-size:10; stroke:rgb(120,120,120);">
    </g>
  </g>
</svg>
