<?xml version="1.0" encoding="UTF-8"?>

<!DOCTYPE svg PUBLIC '-//W3C//DTD SVG 1.0//EN' 'http://www.w3.org/TR/2001/REC-SVG-20010904/DTD/svg10.dtd'>
<svg style="fill-opacity:1; color-rendering:auto; color-interpolation:auto; stroke:black; text-rendering:auto; stroke-linecap:square; stroke-miterlimit:10; stroke-opacity:1; shape-rendering:auto; fill:black; stroke-dasharray:none; font-weight:normal; stroke-width:1; font-family:&apos;Dialog&apos;; font-style:normal; stroke-linejoin:miter; font-size:12; stroke-dashoffset:0; image-rendering:auto;" xmlns="http://www.w3.org/2000/svg" width="734" xmlns:xlink="http://www.w3.org/1999/xlink" height="524">
  <!--Generated by the Batik Graphics2D SVG Generator-->
  <defs id="genericDefs" />
  <g>
    <defs id="defs1">
      <clipPath clipPathUnits="userSpaceOnUse" id="clipPath1">
        <path d="M-3 -3 L737 -3 L737 527 L-3 527 L-3 -3 Z" />
      </clipPath>
      <clipPath clipPathUnits="userSpaceOnUse" id="clipPath2">
        <path d="M0 0 L0 510 L7 510 L7 0 Z" />
      </clipPath>
      <clipPath clipPathUnits="userSpaceOnUse" id="clipPath3">
        <path d="M-3 -3 L147 -3 L147 24 L-3 24 L-3 -3 Z" />
      </clipPath>
      <clipPath clipPathUnits="userSpaceOnUse" id="clipPath4">
        <path d="M0 0 L140 0 L140 17 L0 17 L0 0 Z" />
      </clipPath>
      <clipPath clipPathUnits="userSpaceOnUse" id="clipPath5">
        <path d="M-3 -3 L147 -3 L147 509 L-3 509 L-3 -3 Z" />
      </clipPath>
      <clipPath clipPathUnits="userSpaceOnUse" id="clipPath6">
        <path d="M-3 -3 L217 -3 L217 24 L-3 24 L-3 -3 Z" />
      </clipPath>
      <clipPath clipPathUnits="userSpaceOnUse" id="clipPath7">
        <path d="M0 0 L210 0 L210 17 L0 17 L0 0 Z" />
      </clipPath>
      <clipPath clipPathUnits="userSpaceOnUse" id="clipPath8">
        <path d="M-3 -3 L217 -3 L217 509 L-3 509 L-3 -3 Z" />
      </clipPath>
      <clipPath clipPathUnits="userSpaceOnUse" id="clipPath9">
        <path d="M-3 -3 L387 -3 L387 24 L-3 24 L-3 -3 Z" />
      </clipPath>
      <clipPath clipPathUnits="userSpaceOnUse" id="clipPath10">
        <path d="M0 0 L380 0 L380 17 L0 17 L0 0 Z" />
      </clipPath>
      <clipPath clipPathUnits="userSpaceOnUse" id="clipPath11">
        <path d="M-3 -3 L387 -3 L387 509 L-3 509 L-3 -3 Z" />
      </clipPath>
      <clipPath clipPathUnits="userSpaceOnUse" id="clipPath12">
        <path d="M-3 -3 L47 -3 L47 27 L-3 27 L-3 -3 Z" />
      </clipPath>
      <clipPath clipPathUnits="userSpaceOnUse" id="clipPath13">
        <path d="M-3 -3 L87 -3 L87 47 L-3 47 L-3 -3 Z" />
      </clipPath>
      <clipPath clipPathUnits="userSpaceOnUse" id="clipPath14">
        <path d="M0 0 L80 0 L80 40 L0 40 L0 0 Z" />
      </clipPath>
      <clipPath clipPathUnits="userSpaceOnUse" id="clipPath15">
        <path d="M-3 -3 L28 -3 L28 47 L-3 47 L-3 -3 Z" />
      </clipPath>
      <clipPath clipPathUnits="userSpaceOnUse" id="clipPath16">
        <path d="M-3 -3 L97 -3 L97 47 L-3 47 L-3 -3 Z" />
      </clipPath>
      <clipPath clipPathUnits="userSpaceOnUse" id="clipPath17">
        <path d="M0 0 L90 0 L90 40 L0 40 L0 0 Z" />
      </clipPath>
      <clipPath clipPathUnits="userSpaceOnUse" id="clipPath18">
        <path d="M-3 -3 L77 -3 L77 47 L-3 47 L-3 -3 Z" />
      </clipPath>
      <clipPath clipPathUnits="userSpaceOnUse" id="clipPath19">
        <path d="M0 0 L70 0 L70 40 L0 40 L0 0 Z" />
      </clipPath>
      <clipPath clipPathUnits="userSpaceOnUse" id="clipPath20">
        <path d="M-3 -3 L27 -3 L27 47 L-3 47 L-3 -3 Z" />
      </clipPath>
      <clipPath clipPathUnits="userSpaceOnUse" id="clipPath21">
        <path d="M-3 -3 L27 -3 L27 27 L-3 27 L-3 -3 Z" />
      </clipPath>
      <clipPath clipPathUnits="userSpaceOnUse" id="clipPath22">
        <path d="M0 0 L380 0 L380 502 L0 502 L0 0 Z" />
      </clipPath>
      <clipPath clipPathUnits="userSpaceOnUse" id="clipPath23">
        <path d="M0 0 L210 0 L210 502 L0 502 L0 0 Z" />
      </clipPath>
      <clipPath clipPathUnits="userSpaceOnUse" id="clipPath24">
        <path d="M0 0 L140 0 L140 502 L0 502 L0 0 Z" />
      </clipPath>
      <clipPath clipPathUnits="userSpaceOnUse" id="clipPath25">
        <path d="M0 0 L129 0 L129 231 L0 231 L0 0 Z" />
      </clipPath>
      <clipPath clipPathUnits="userSpaceOnUse" id="clipPath26">
        <path d="M0 0 L129 0 L129 171 L0 171 L0 0 Z" />
      </clipPath>
      <clipPath clipPathUnits="userSpaceOnUse" id="clipPath27">
        <path d="M0 0 L232 0 L232 129 L0 129 L0 0 Z" />
      </clipPath>
      <clipPath clipPathUnits="userSpaceOnUse" id="clipPath28">
        <path d="M0 0 L615 0 L615 185 L0 185 L0 0 Z" />
      </clipPath>
      <clipPath clipPathUnits="userSpaceOnUse" id="clipPath29">
        <path d="M0 0 L217 0 L217 156 L0 156 L0 0 Z" />
      </clipPath>
      <clipPath clipPathUnits="userSpaceOnUse" id="clipPath30">
        <path d="M0 0 L615 0 L615 241 L0 241 L0 0 Z" />
      </clipPath>
      <clipPath clipPathUnits="userSpaceOnUse" id="clipPath31">
        <path d="M0 0 L220 0 L220 211 L0 211 L0 0 Z" />
      </clipPath>
      <clipPath clipPathUnits="userSpaceOnUse" id="clipPath32">
        <path d="M0 0 L164 0 L164 129 L0 129 L0 0 Z" />
      </clipPath>
      <clipPath clipPathUnits="userSpaceOnUse" id="clipPath33">
        <path d="M0 0 L267 0 L267 214 L0 214 L0 0 Z" />
      </clipPath>
      <clipPath clipPathUnits="userSpaceOnUse" id="clipPath34">
        <path d="M0 0 L266 0 L266 211 L0 211 L0 0 Z" />
      </clipPath>
      <clipPath clipPathUnits="userSpaceOnUse" id="clipPath35">
        <path d="M0 0 L264 0 L264 155 L0 155 L0 0 Z" />
      </clipPath>
      <clipPath clipPathUnits="userSpaceOnUse" id="clipPath36">
        <path d="M0 0 L615 0 L615 242 L0 242 L0 0 Z" />
      </clipPath>
      <clipPath clipPathUnits="userSpaceOnUse" id="clipPath37">
        <path d="M0 0 L730 0 L730 299 L0 299 L0 0 Z" />
      </clipPath>
      <clipPath clipPathUnits="userSpaceOnUse" id="clipPath38">
        <path d="M0 0 L90 0 L90 18 L0 18 L0 0 Z" />
      </clipPath>
      <clipPath clipPathUnits="userSpaceOnUse" id="clipPath39">
        <path d="M0 0 L76 0 L76 18 L0 18 L0 0 Z" />
      </clipPath>
    </defs>
    <g style="fill:white; text-rendering:geometricPrecision; stroke:white;">
      <rect x="0" y="0" width="734" style="stroke:none;" height="524" />
    </g>
    <g style="text-rendering:geometricPrecision; stroke-width:2; font-size:11; font-family:sans-serif;">
      <rect x="0" y="0" width="140" style="clip-path:url(#clipPath3); fill:none;" height="17" />
    </g>
    <g style="text-rendering:geometricPrecision; font-size:11; font-family:sans-serif;">
      <text x="59" y="14" style="clip-path:url(#clipPath4); stroke:none;" xml:space="preserve">會員</text>
    </g>
    <g transform="translate(0,17)" style="text-rendering:geometricPrecision; stroke-width:2; font-size:11; font-family:sans-serif;">
      <rect x="0" y="0" width="140" style="clip-path:url(#clipPath5); fill:none;" height="502" />
    </g>
    <g transform="translate(140,0)" style="text-rendering:geometricPrecision; stroke-width:2; font-size:11; font-family:sans-serif;">
      <rect x="0" y="0" width="210" style="clip-path:url(#clipPath6); fill:none;" height="17" />
    </g>
    <g style="text-rendering:geometricPrecision; font-size:11; font-family:sans-serif;" transform="translate(140,0)">
      <text x="77" y="14" style="clip-path:url(#clipPath7); stroke:none;" xml:space="preserve">行事曆管理</text>
    </g>
    <g transform="translate(140,17)" style="text-rendering:geometricPrecision; stroke-width:2; font-size:11; font-family:sans-serif;">
      <rect x="0" y="0" width="210" style="clip-path:url(#clipPath8); fill:none;" height="502" />
    </g>
    <g transform="translate(350,0)" style="text-rendering:geometricPrecision; stroke-width:2; font-size:11; font-family:sans-serif;">
      <rect x="0" y="0" width="380" style="clip-path:url(#clipPath9); fill:none;" height="17" />
    </g>
    <g style="text-rendering:geometricPrecision; font-size:11; font-family:sans-serif;" transform="translate(350,0)">
      <text x="173" y="14" style="clip-path:url(#clipPath10); stroke:none;" xml:space="preserve">資料庫</text>
    </g>
    <g transform="translate(350,17)" style="text-rendering:geometricPrecision; stroke-width:2; font-size:11; font-family:sans-serif;">
      <rect x="0" y="0" width="380" style="clip-path:url(#clipPath11); fill:none;" height="502" />
    </g>
    <g style="text-rendering:geometricPrecision; font-size:11; font-family:sans-serif;" transform="translate(40,40)">
      <circle style="clip-path:url(#clipPath12); stroke:none;" r="10" cx="20" cy="10" />
    </g>
    <g transform="translate(20,100)" style="font-size:14; fill:rgb(122,207,245); text-rendering:geometricPrecision; font-family:&apos;標楷體&apos;; stroke:rgb(122,207,245);">
      <rect x="1" y="1" width="78" style="clip-path:url(#clipPath13); stroke:none;" rx="15" ry="15" height="38" />
    </g>
    <g transform="translate(20,100)" style="font-size:14; stroke-linecap:butt; text-rendering:geometricPrecision; font-family:&apos;標楷體&apos;; stroke-linejoin:round; stroke-miterlimit:0;">
      <rect x="1" y="1" width="78" style="clip-path:url(#clipPath13); fill:none;" rx="15" ry="15" height="38" />
    </g>
    <g style="text-rendering:geometricPrecision; font-size:14; font-family:&apos;標楷體&apos;;" transform="translate(20,100)">
      <text x="12" y="27" style="clip-path:url(#clipPath14); stroke:none;" xml:space="preserve">登入會員</text>
    </g>
    <g transform="translate(50,230)" style="font-size:11; fill:rgb(122,207,245); text-rendering:geometricPrecision; font-family:sans-serif; stroke:rgb(122,207,245);">
      <polygon style="clip-path:url(#clipPath15); stroke:none;" points=" 10 7 18 20 10 32 3 20" />
    </g>
    <g transform="translate(50,230)" style="font-size:11; stroke-linecap:butt; text-rendering:geometricPrecision; font-family:sans-serif; stroke-linejoin:round; stroke-miterlimit:0;">
      <polygon style="fill:none; clip-path:url(#clipPath15);" points=" 10 7 18 20 10 32 3 20" />
    </g>
    <g transform="translate(170,230)" style="font-size:14; fill:rgb(122,207,245); text-rendering:geometricPrecision; font-family:&apos;標楷體&apos;; stroke:rgb(122,207,245);">
      <rect x="1" y="1" width="88" style="clip-path:url(#clipPath16); stroke:none;" rx="15" ry="15" height="38" />
    </g>
    <g transform="translate(170,230)" style="font-size:14; stroke-linecap:butt; text-rendering:geometricPrecision; font-family:&apos;標楷體&apos;; stroke-linejoin:round; stroke-miterlimit:0;">
      <rect x="1" y="1" width="88" style="clip-path:url(#clipPath16); fill:none;" rx="15" ry="15" height="38" />
    </g>
    <g style="text-rendering:geometricPrecision; font-size:14; font-family:&apos;標楷體&apos;;" transform="translate(170,230)">
      <text x="10" y="27" style="clip-path:url(#clipPath17); stroke:none;" xml:space="preserve">行事曆管理</text>
    </g>
    <g transform="translate(290,230)" style="font-size:11; fill:rgb(122,207,245); text-rendering:geometricPrecision; font-family:sans-serif; stroke:rgb(122,207,245);">
      <polygon style="clip-path:url(#clipPath15); stroke:none;" points=" 10 7 18 20 10 32 3 20" />
    </g>
    <g transform="translate(290,230)" style="font-size:11; stroke-linecap:butt; text-rendering:geometricPrecision; font-family:sans-serif; stroke-linejoin:round; stroke-miterlimit:0;">
      <polygon style="fill:none; clip-path:url(#clipPath15);" points=" 10 7 18 20 10 32 3 20" />
    </g>
    <g transform="translate(440,140)" style="font-size:14; fill:rgb(122,207,245); text-rendering:geometricPrecision; font-family:&apos;標楷體&apos;; stroke:rgb(122,207,245);">
      <rect x="1" y="1" width="68" style="clip-path:url(#clipPath18); stroke:none;" rx="15" ry="15" height="38" />
    </g>
    <g transform="translate(440,140)" style="font-size:14; stroke-linecap:butt; text-rendering:geometricPrecision; font-family:&apos;標楷體&apos;; stroke-linejoin:round; stroke-miterlimit:0;">
      <rect x="1" y="1" width="68" style="clip-path:url(#clipPath18); fill:none;" rx="15" ry="15" height="38" />
    </g>
    <g style="text-rendering:geometricPrecision; font-size:14; font-family:&apos;標楷體&apos;;" transform="translate(440,140)">
      <text x="21" y="27" style="clip-path:url(#clipPath19); stroke:none;" xml:space="preserve">新增</text>
    </g>
    <g transform="translate(440,200)" style="font-size:14; fill:rgb(122,207,245); text-rendering:geometricPrecision; font-family:&apos;標楷體&apos;; stroke:rgb(122,207,245);">
      <rect x="1" y="1" width="68" style="clip-path:url(#clipPath18); stroke:none;" rx="15" ry="15" height="38" />
    </g>
    <g transform="translate(440,200)" style="font-size:14; stroke-linecap:butt; text-rendering:geometricPrecision; font-family:&apos;標楷體&apos;; stroke-linejoin:round; stroke-miterlimit:0;">
      <rect x="1" y="1" width="68" style="clip-path:url(#clipPath18); fill:none;" rx="15" ry="15" height="38" />
    </g>
    <g style="text-rendering:geometricPrecision; font-size:14; font-family:&apos;標楷體&apos;;" transform="translate(440,200)">
      <text x="21" y="27" style="clip-path:url(#clipPath19); stroke:none;" xml:space="preserve">刪除</text>
    </g>
    <g transform="translate(440,260)" style="font-size:14; fill:rgb(122,207,245); text-rendering:geometricPrecision; font-family:&apos;標楷體&apos;; stroke:rgb(122,207,245);">
      <rect x="1" y="1" width="68" style="clip-path:url(#clipPath18); stroke:none;" rx="15" ry="15" height="38" />
    </g>
    <g transform="translate(440,260)" style="font-size:14; stroke-linecap:butt; text-rendering:geometricPrecision; font-family:&apos;標楷體&apos;; stroke-linejoin:round; stroke-miterlimit:0;">
      <rect x="1" y="1" width="68" style="clip-path:url(#clipPath18); fill:none;" rx="15" ry="15" height="38" />
    </g>
    <g style="text-rendering:geometricPrecision; font-size:14; font-family:&apos;標楷體&apos;;" transform="translate(440,260)">
      <text x="21" y="27" style="clip-path:url(#clipPath19); stroke:none;" xml:space="preserve">修改</text>
    </g>
    <g transform="translate(440,320)" style="font-size:14; fill:rgb(122,207,245); text-rendering:geometricPrecision; font-family:&apos;標楷體&apos;; stroke:rgb(122,207,245);">
      <rect x="1" y="1" width="68" style="clip-path:url(#clipPath18); stroke:none;" rx="15" ry="15" height="38" />
    </g>
    <g transform="translate(440,320)" style="font-size:14; stroke-linecap:butt; text-rendering:geometricPrecision; font-family:&apos;標楷體&apos;; stroke-linejoin:round; stroke-miterlimit:0;">
      <rect x="1" y="1" width="68" style="clip-path:url(#clipPath18); fill:none;" rx="15" ry="15" height="38" />
    </g>
    <g style="text-rendering:geometricPrecision; font-size:14; font-family:&apos;標楷體&apos;;" transform="translate(440,320)">
      <text x="21" y="27" style="clip-path:url(#clipPath19); stroke:none;" xml:space="preserve">查詢</text>
    </g>
    <g transform="translate(540,140)" style="font-size:11; fill:rgb(122,207,245); text-rendering:geometricPrecision; font-family:sans-serif; stroke:rgb(122,207,245);">
      <polygon style="clip-path:url(#clipPath15); stroke:none;" points=" 10 7 18 20 10 32 3 20" />
    </g>
    <g transform="translate(540,140)" style="font-size:11; stroke-linecap:butt; text-rendering:geometricPrecision; font-family:sans-serif; stroke-linejoin:round; stroke-miterlimit:0;">
      <polygon style="fill:none; clip-path:url(#clipPath15);" points=" 10 7 18 20 10 32 3 20" />
    </g>
    <g transform="translate(540,200)" style="font-size:11; fill:rgb(122,207,245); text-rendering:geometricPrecision; font-family:sans-serif; stroke:rgb(122,207,245);">
      <polygon style="clip-path:url(#clipPath15); stroke:none;" points=" 10 7 18 20 10 32 3 20" />
    </g>
    <g transform="translate(540,200)" style="font-size:11; stroke-linecap:butt; text-rendering:geometricPrecision; font-family:sans-serif; stroke-linejoin:round; stroke-miterlimit:0;">
      <polygon style="fill:none; clip-path:url(#clipPath15);" points=" 10 7 18 20 10 32 3 20" />
    </g>
    <g transform="translate(540,260)" style="font-size:11; fill:rgb(122,207,245); text-rendering:geometricPrecision; font-family:sans-serif; stroke:rgb(122,207,245);">
      <polygon style="clip-path:url(#clipPath15); stroke:none;" points=" 10 7 18 20 10 32 3 20" />
    </g>
    <g transform="translate(540,260)" style="font-size:11; stroke-linecap:butt; text-rendering:geometricPrecision; font-family:sans-serif; stroke-linejoin:round; stroke-miterlimit:0;">
      <polygon style="fill:none; clip-path:url(#clipPath15);" points=" 10 7 18 20 10 32 3 20" />
    </g>
    <g transform="translate(540,320)" style="font-size:11; fill:rgb(122,207,245); text-rendering:geometricPrecision; font-family:sans-serif; stroke:rgb(122,207,245);">
      <polygon style="clip-path:url(#clipPath15); stroke:none;" points=" 10 7 18 20 10 32 3 20" />
    </g>
    <g transform="translate(540,320)" style="font-size:11; stroke-linecap:butt; text-rendering:geometricPrecision; font-family:sans-serif; stroke-linejoin:round; stroke-miterlimit:0;">
      <polygon style="fill:none; clip-path:url(#clipPath15);" points=" 10 7 18 20 10 32 3 20" />
    </g>
    <g transform="translate(640,230)" style="font-size:11; fill:rgb(122,207,245); text-rendering:geometricPrecision; font-family:sans-serif; stroke:rgb(122,207,245);">
      <polygon style="clip-path:url(#clipPath20); stroke:none;" points=" 10 7 17 20 10 32 3 20" />
    </g>
    <g transform="translate(640,230)" style="font-size:11; stroke-linecap:butt; text-rendering:geometricPrecision; font-family:sans-serif; stroke-linejoin:round; stroke-miterlimit:0;">
      <polygon style="fill:none; clip-path:url(#clipPath20);" points=" 10 7 17 20 10 32 3 20" />
    </g>
    <g style="text-rendering:geometricPrecision; font-size:11; font-family:sans-serif;" transform="translate(50,480)">
      <circle style="clip-path:url(#clipPath21); stroke:none;" r="6.6667" cx="10" cy="10" />
      <circle style="stroke-linecap:butt; clip-path:url(#clipPath21); fill:none; stroke-linejoin:round; stroke-miterlimit:0;" r="10" cx="10" cy="10" />
    </g>
    <g transform="translate(20,400)" style="font-size:14; fill:rgb(122,207,245); text-rendering:geometricPrecision; font-family:&apos;標楷體&apos;; stroke:rgb(122,207,245);">
      <rect x="1" y="1" width="78" style="clip-path:url(#clipPath13); stroke:none;" rx="15" ry="15" height="38" />
    </g>
    <g transform="translate(20,400)" style="font-size:14; stroke-linecap:butt; text-rendering:geometricPrecision; font-family:&apos;標楷體&apos;; stroke-linejoin:round; stroke-miterlimit:0;">
      <rect x="1" y="1" width="78" style="clip-path:url(#clipPath13); fill:none;" rx="15" ry="15" height="38" />
    </g>
    <g style="text-rendering:geometricPrecision; font-size:14; font-family:&apos;標楷體&apos;;" transform="translate(20,400)">
      <text x="12" y="27" style="clip-path:url(#clipPath14); stroke:none;" xml:space="preserve">顯示結果</text>
    </g>
    <g transform="translate(-2,76)" style="font-size:11; stroke-linecap:butt; text-rendering:geometricPrecision; font-family:sans-serif; stroke-linejoin:round;">
      <line x1="62" x2="62" y1="62" style="clip-path:url(#clipPath25); fill:none;" y2="165" />
      <line x1="62" x2="68" y1="165" style="clip-path:url(#clipPath25); fill:none;" y2="153" />
      <line x1="62" x2="56" y1="165" style="clip-path:url(#clipPath25); fill:none;" y2="153" />
    </g>
    <g transform="translate(-2,-3)" style="font-size:11; stroke-linecap:butt; text-rendering:geometricPrecision; font-family:sans-serif; stroke-linejoin:round;">
      <line x1="62" x2="62" y1="61" style="clip-path:url(#clipPath26); fill:none;" y2="104" />
      <line x1="62" x2="68" y1="104" style="clip-path:url(#clipPath26); fill:none;" y2="92" />
      <line x1="62" x2="56" y1="104" style="clip-path:url(#clipPath26); fill:none;" y2="92" />
    </g>
    <g transform="translate(5,187)" style="font-size:11; stroke-linecap:butt; text-rendering:geometricPrecision; font-family:sans-serif; stroke-linejoin:round;">
      <line x1="62" x2="166" y1="63" style="clip-path:url(#clipPath27); fill:none;" y2="63" />
      <line x1="166" x2="154" y1="63" style="clip-path:url(#clipPath27); fill:none;" y2="57" />
      <line x1="166" x2="154" y1="63" style="clip-path:url(#clipPath27); fill:none;" y2="69" />
    </g>
    <g transform="translate(1,191)" style="font-size:14; stroke-linecap:butt; text-rendering:geometricPrecision; font-family:&apos;標楷體&apos;; stroke-linejoin:round;">
      <line x1="549" x2="549" y1="97" style="clip-path:url(#clipPath28); fill:none;" y2="119" />
      <line x1="549" x2="119" y1="119" style="clip-path:url(#clipPath28); fill:none;" y2="119" />
      <line x1="119" x2="62" y1="119" style="clip-path:url(#clipPath28); fill:none;" y2="62" />
      <line x1="62" x2="65" y1="62" style="clip-path:url(#clipPath28); fill:none;" y2="74" />
      <line x1="62" x2="74" y1="62" style="clip-path:url(#clipPath28); fill:none;" y2="65" />
    </g>
    <g transform="translate(495,190)" style="font-size:14; stroke-linecap:butt; text-rendering:geometricPrecision; font-family:&apos;標楷體&apos;; stroke-linejoin:round;">
      <line x1="62" x2="105" y1="90" style="clip-path:url(#clipPath29); fill:none;" y2="90" />
      <line x1="105" x2="151" y1="90" style="clip-path:url(#clipPath29); fill:none;" y2="62" />
      <line x1="151" x2="138" y1="62" style="clip-path:url(#clipPath29); fill:none;" y2="62" />
      <line x1="151" x2="144" y1="62" style="clip-path:url(#clipPath29); fill:none;" y2="73" />
    </g>
    <g transform="translate(1,127)" style="font-size:14; stroke-linecap:butt; text-rendering:geometricPrecision; font-family:&apos;標楷體&apos;; stroke-linejoin:round;">
      <line x1="549" x2="549" y1="84" style="clip-path:url(#clipPath28); fill:none;" y2="63" />
      <line x1="549" x2="119" y1="63" style="clip-path:url(#clipPath28); fill:none;" y2="63" />
      <line x1="119" x2="62" y1="63" style="clip-path:url(#clipPath28); fill:none;" y2="119" />
      <line x1="62" x2="74" y1="119" style="clip-path:url(#clipPath28); fill:none;" y2="115" />
      <line x1="62" x2="65" y1="119" style="clip-path:url(#clipPath28); fill:none;" y2="106" />
    </g>
    <g transform="translate(495,157)" style="font-size:14; stroke-linecap:butt; text-rendering:geometricPrecision; font-family:&apos;標楷體&apos;; stroke-linejoin:round;">
      <line x1="62" x2="105" y1="63" style="clip-path:url(#clipPath29); fill:none;" y2="63" />
      <line x1="105" x2="151" y1="63" style="clip-path:url(#clipPath29); fill:none;" y2="90" />
      <line x1="151" x2="144" y1="90" style="clip-path:url(#clipPath29); fill:none;" y2="78" />
      <line x1="151" x2="138" y1="90" style="clip-path:url(#clipPath29); fill:none;" y2="89" />
    </g>
    <g transform="translate(1,195)" style="font-size:14; stroke-linecap:butt; text-rendering:geometricPrecision; font-family:&apos;標楷體&apos;; stroke-linejoin:round;">
      <line x1="549" x2="549" y1="153" style="clip-path:url(#clipPath30); fill:none;" y2="175" />
      <line x1="549" x2="109" y1="175" style="clip-path:url(#clipPath30); fill:none;" y2="175" />
      <line x1="109" x2="62" y1="175" style="clip-path:url(#clipPath30); fill:none;" y2="62" />
      <line x1="62" x2="60" y1="62" style="clip-path:url(#clipPath30); fill:none;" y2="74" />
      <line x1="62" x2="71" y1="62" style="clip-path:url(#clipPath30); fill:none;" y2="69" />
    </g>
    <g transform="translate(493,193)" style="font-size:14; stroke-linecap:butt; text-rendering:geometricPrecision; font-family:&apos;標楷體&apos;; stroke-linejoin:round;">
      <line x1="63" x2="127" y1="145" style="clip-path:url(#clipPath31); fill:none;" y2="137" />
      <line x1="127" x2="154" y1="137" style="clip-path:url(#clipPath31); fill:none;" y2="63" />
      <line x1="154" x2="144" y1="63" style="clip-path:url(#clipPath31); fill:none;" y2="72" />
      <line x1="154" x2="155" y1="63" style="clip-path:url(#clipPath31); fill:none;" y2="76" />
    </g>
    <g transform="translate(196,187)" style="font-size:11; stroke-linecap:butt; text-rendering:geometricPrecision; font-family:sans-serif; stroke-linejoin:round;">
      <line x1="62" x2="97" y1="63" style="clip-path:url(#clipPath32); fill:none;" y2="63" />
      <line x1="97" x2="85" y1="63" style="clip-path:url(#clipPath32); fill:none;" y2="57" />
      <line x1="97" x2="85" y1="63" style="clip-path:url(#clipPath32); fill:none;" y2="69" />
    </g>
    <g transform="translate(240,97)" style="font-size:14; stroke-linecap:butt; text-rendering:geometricPrecision; font-family:&apos;標楷體&apos;; stroke-linejoin:round;">
      <line x1="62" x2="90" y1="148" style="clip-path:url(#clipPath33); fill:none;" y2="63" />
      <line x1="90" x2="201" y1="63" style="clip-path:url(#clipPath33); fill:none;" y2="63" />
      <line x1="201" x2="189" y1="63" style="clip-path:url(#clipPath33); fill:none;" y2="57" />
      <line x1="201" x2="189" y1="63" style="clip-path:url(#clipPath33); fill:none;" y2="69" />
    </g>
    <g transform="translate(240,195)" style="font-size:14; stroke-linecap:butt; text-rendering:geometricPrecision; font-family:&apos;標楷體&apos;; stroke-linejoin:round;">
      <line x1="62" x2="90" y1="62" style="clip-path:url(#clipPath34); fill:none;" y2="145" />
      <line x1="90" x2="200" y1="145" style="clip-path:url(#clipPath34); fill:none;" y2="145" />
      <line x1="200" x2="188" y1="145" style="clip-path:url(#clipPath34); fill:none;" y2="139" />
      <line x1="200" x2="188" y1="145" style="clip-path:url(#clipPath34); fill:none;" y2="151" />
    </g>
    <g transform="translate(446,277)" style="font-size:11; stroke-linecap:butt; text-rendering:geometricPrecision; font-family:sans-serif; stroke-linejoin:round;">
      <line x1="62" x2="97" y1="63" style="clip-path:url(#clipPath32); fill:none;" y2="63" />
      <line x1="97" x2="85" y1="63" style="clip-path:url(#clipPath32); fill:none;" y2="57" />
      <line x1="97" x2="85" y1="63" style="clip-path:url(#clipPath32); fill:none;" y2="69" />
    </g>
    <g transform="translate(242,191)" style="font-size:14; stroke-linecap:butt; text-rendering:geometricPrecision; font-family:&apos;標楷體&apos;; stroke-linejoin:round;">
      <line x1="63" x2="88" y1="62" style="clip-path:url(#clipPath35); fill:none;" y2="89" />
      <line x1="88" x2="198" y1="89" style="clip-path:url(#clipPath35); fill:none;" y2="89" />
      <line x1="198" x2="186" y1="89" style="clip-path:url(#clipPath35); fill:none;" y2="83" />
      <line x1="198" x2="186" y1="89" style="clip-path:url(#clipPath35); fill:none;" y2="95" />
    </g>
    <g transform="translate(446,217)" style="font-size:11; stroke-linecap:butt; text-rendering:geometricPrecision; font-family:sans-serif; stroke-linejoin:round;">
      <line x1="62" x2="97" y1="63" style="clip-path:url(#clipPath32); fill:none;" y2="63" />
      <line x1="97" x2="85" y1="63" style="clip-path:url(#clipPath32); fill:none;" y2="57" />
      <line x1="97" x2="85" y1="63" style="clip-path:url(#clipPath32); fill:none;" y2="69" />
    </g>
    <g transform="translate(242,157)" style="font-size:14; stroke-linecap:butt; text-rendering:geometricPrecision; font-family:&apos;標楷體&apos;; stroke-linejoin:round;">
      <line x1="63" x2="88" y1="89" style="clip-path:url(#clipPath35); fill:none;" y2="63" />
      <line x1="88" x2="198" y1="63" style="clip-path:url(#clipPath35); fill:none;" y2="63" />
      <line x1="198" x2="186" y1="63" style="clip-path:url(#clipPath35); fill:none;" y2="57" />
      <line x1="198" x2="186" y1="63" style="clip-path:url(#clipPath35); fill:none;" y2="69" />
    </g>
    <g transform="translate(446,157)" style="font-size:11; stroke-linecap:butt; text-rendering:geometricPrecision; font-family:sans-serif; stroke-linejoin:round;">
      <line x1="62" x2="97" y1="63" style="clip-path:url(#clipPath32); fill:none;" y2="63" />
      <line x1="97" x2="85" y1="63" style="clip-path:url(#clipPath32); fill:none;" y2="57" />
      <line x1="97" x2="85" y1="63" style="clip-path:url(#clipPath32); fill:none;" y2="69" />
    </g>
    <g transform="translate(446,97)" style="font-size:11; stroke-linecap:butt; text-rendering:geometricPrecision; font-family:sans-serif; stroke-linejoin:round;">
      <line x1="62" x2="97" y1="63" style="clip-path:url(#clipPath32); fill:none;" y2="63" />
      <line x1="97" x2="85" y1="63" style="clip-path:url(#clipPath32); fill:none;" y2="57" />
      <line x1="97" x2="85" y1="63" style="clip-path:url(#clipPath32); fill:none;" y2="69" />
    </g>
    <g transform="translate(1,67)" style="font-size:14; stroke-linecap:butt; text-rendering:geometricPrecision; font-family:&apos;標楷體&apos;; stroke-linejoin:round;">
      <line x1="549" x2="549" y1="84" style="clip-path:url(#clipPath36); fill:none;" y2="63" />
      <line x1="549" x2="119" y1="63" style="clip-path:url(#clipPath36); fill:none;" y2="63" />
      <line x1="119" x2="62" y1="63" style="clip-path:url(#clipPath36); fill:none;" y2="176" />
      <line x1="62" x2="72" y1="176" style="clip-path:url(#clipPath36); fill:none;" y2="168" />
      <line x1="62" x2="61" y1="176" style="clip-path:url(#clipPath36); fill:none;" y2="162" />
    </g>
    <g transform="translate(493,98)" style="font-size:14; stroke-linecap:butt; text-rendering:geometricPrecision; font-family:&apos;標楷體&apos;; stroke-linejoin:round;">
      <line x1="63" x2="127" y1="63" style="clip-path:url(#clipPath31); fill:none;" y2="72" />
      <line x1="127" x2="154" y1="72" style="clip-path:url(#clipPath31); fill:none;" y2="145" />
      <line x1="154" x2="155" y1="145" style="clip-path:url(#clipPath31); fill:none;" y2="131" />
      <line x1="154" x2="144" y1="145" style="clip-path:url(#clipPath31); fill:none;" y2="135" />
    </g>
    <g transform="translate(36,187)" style="font-size:11; stroke-linecap:butt; text-rendering:geometricPrecision; font-family:sans-serif; stroke-linejoin:round;">
      <line x1="620" x2="664" y1="63" style="clip-path:url(#clipPath37); fill:none;" y2="63" />
      <line x1="664" x2="664" y1="63" style="clip-path:url(#clipPath37); fill:none;" y2="233" />
      <line x1="664" x2="62" y1="233" style="clip-path:url(#clipPath37); fill:none;" y2="233" />
      <line x1="62" x2="74" y1="233" style="clip-path:url(#clipPath37); fill:none;" y2="239" />
      <line x1="62" x2="74" y1="233" style="clip-path:url(#clipPath37); fill:none;" y2="227" />
    </g>
    <g transform="translate(-2,376)" style="font-size:11; stroke-linecap:butt; text-rendering:geometricPrecision; font-family:sans-serif; stroke-linejoin:round;">
      <line x1="62" x2="62" y1="62" style="clip-path:url(#clipPath26); fill:none;" y2="105" />
      <line x1="62" x2="68" y1="105" style="clip-path:url(#clipPath26); fill:none;" y2="93" />
      <line x1="62" x2="56" y1="105" style="clip-path:url(#clipPath26); fill:none;" y2="93" />
    </g>
    <g style="text-rendering:geometricPrecision; font-size:14; font-family:&apos;標楷體&apos;;" transform="translate(561,136)">
      <text x="10" y="16" style="clip-path:url(#clipPath38); stroke:none;" xml:space="preserve">[新增成功]</text>
    </g>
    <g style="text-rendering:geometricPrecision; font-size:14; font-family:&apos;標楷體&apos;;" transform="translate(185,107)">
      <text x="10" y="16" style="clip-path:url(#clipPath38); stroke:none;" xml:space="preserve">[新增失敗]</text>
    </g>
    <g style="text-rendering:geometricPrecision; font-size:14; font-family:&apos;標楷體&apos;;" transform="translate(357,197)">
      <text x="10" y="16" style="clip-path:url(#clipPath39); stroke:none;" xml:space="preserve">刪除行程</text>
    </g>
    <g style="text-rendering:geometricPrecision; font-size:14; font-family:&apos;標楷體&apos;;" transform="translate(361,257)">
      <text x="10" y="16" style="clip-path:url(#clipPath39); stroke:none;" xml:space="preserve">修改行程</text>
    </g>
    <g style="text-rendering:geometricPrecision; font-size:14; font-family:&apos;標楷體&apos;;" transform="translate(357,317)">
      <text x="10" y="16" style="clip-path:url(#clipPath39); stroke:none;" xml:space="preserve">查詢行程</text>
    </g>
    <g style="text-rendering:geometricPrecision; font-size:14; font-family:&apos;標楷體&apos;;" transform="translate(361,137)">
      <text x="10" y="16" style="clip-path:url(#clipPath39); stroke:none;" xml:space="preserve">新增行程</text>
    </g>
    <g style="text-rendering:geometricPrecision; font-size:14; font-family:&apos;標楷體&apos;;" transform="translate(551,345)">
      <text x="10" y="16" style="clip-path:url(#clipPath38); stroke:none;" xml:space="preserve">[查詢成功]</text>
    </g>
    <g style="text-rendering:geometricPrecision; font-size:14; font-family:&apos;標楷體&apos;;" transform="translate(175,372)">
      <text x="10" y="16" style="clip-path:url(#clipPath38); stroke:none;" xml:space="preserve">[查詢失敗]</text>
    </g>
    <g style="text-rendering:geometricPrecision; font-size:14; font-family:&apos;標楷體&apos;;" transform="translate(550,197)">
      <text x="10" y="16" style="clip-path:url(#clipPath38); stroke:none;" xml:space="preserve">[刪除成功]</text>
    </g>
    <g style="text-rendering:geometricPrecision; font-size:14; font-family:&apos;標楷體&apos;;" transform="translate(185,167)">
      <text x="10" y="16" style="clip-path:url(#clipPath38); stroke:none;" xml:space="preserve">[刪除失敗]</text>
    </g>
    <g style="text-rendering:geometricPrecision; font-size:14; font-family:&apos;標楷體&apos;;" transform="translate(550,282)">
      <text x="10" y="16" style="clip-path:url(#clipPath38); stroke:none;" xml:space="preserve">[修改成功]</text>
    </g>
    <g style="text-rendering:geometricPrecision; font-size:14; font-family:&apos;標楷體&apos;;" transform="translate(178,312)">
      <text x="10" y="16" style="clip-path:url(#clipPath38); stroke:none;" xml:space="preserve">[修改失敗]</text>
    </g>
    <g style="fill:rgb(120,120,120); text-rendering:geometricPrecision; font-size:10; stroke:rgb(120,120,120);">
    </g>
  </g>
</svg>
