<?xml version="1.0" encoding="UTF-8"?>

<!DOCTYPE svg PUBLIC '-//W3C//DTD SVG 1.0//EN' 'http://www.w3.org/TR/2001/REC-SVG-20010904/DTD/svg10.dtd'>
<svg style="fill-opacity:1; color-rendering:auto; color-interpolation:auto; stroke:black; text-rendering:auto; stroke-linecap:square; stroke-miterlimit:10; stroke-opacity:1; shape-rendering:auto; fill:black; stroke-dasharray:none; font-weight:normal; stroke-width:1; font-family:&apos;Dialog&apos;; font-style:normal; stroke-linejoin:miter; font-size:12; stroke-dashoffset:0; image-rendering:auto;" xmlns="http://www.w3.org/2000/svg" width="726" xmlns:xlink="http://www.w3.org/1999/xlink" height="436">
  <!--Generated by the Batik Graphics2D SVG Generator-->
  <defs id="genericDefs" />
  <g>
    <defs id="defs1">
      <clipPath clipPathUnits="userSpaceOnUse" id="clipPath1">
        <path d="M-3 -3 L727 -3 L727 437 L-3 437 L-3 -3 Z" />
      </clipPath>
      <clipPath clipPathUnits="userSpaceOnUse" id="clipPath2">
        <path d="M0 0 L0 419 L7 419 L7 0 Z" />
      </clipPath>
      <clipPath clipPathUnits="userSpaceOnUse" id="clipPath3">
        <path d="M-3 -3 L232 -3 L232 25 L-3 25 L-3 -3 Z" />
      </clipPath>
      <clipPath clipPathUnits="userSpaceOnUse" id="clipPath4">
        <path d="M0 0 L225 0 L225 18 L0 18 L0 0 Z" />
      </clipPath>
      <clipPath clipPathUnits="userSpaceOnUse" id="clipPath5">
        <path d="M-3 -3 L232 -3 L232 419 L-3 419 L-3 -3 Z" />
      </clipPath>
      <clipPath clipPathUnits="userSpaceOnUse" id="clipPath6">
        <path d="M-3 -3 L287 -3 L287 25 L-3 25 L-3 -3 Z" />
      </clipPath>
      <clipPath clipPathUnits="userSpaceOnUse" id="clipPath7">
        <path d="M0 0 L280 0 L280 18 L0 18 L0 0 Z" />
      </clipPath>
      <clipPath clipPathUnits="userSpaceOnUse" id="clipPath8">
        <path d="M-3 -3 L287 -3 L287 419 L-3 419 L-3 -3 Z" />
      </clipPath>
      <clipPath clipPathUnits="userSpaceOnUse" id="clipPath9">
        <path d="M-3 -3 L222 -3 L222 25 L-3 25 L-3 -3 Z" />
      </clipPath>
      <clipPath clipPathUnits="userSpaceOnUse" id="clipPath10">
        <path d="M0 0 L215 0 L215 18 L0 18 L0 0 Z" />
      </clipPath>
      <clipPath clipPathUnits="userSpaceOnUse" id="clipPath11">
        <path d="M-3 -3 L222 -3 L222 419 L-3 419 L-3 -3 Z" />
      </clipPath>
      <clipPath clipPathUnits="userSpaceOnUse" id="clipPath12">
        <path d="M-3 -3 L47 -3 L47 27 L-3 27 L-3 -3 Z" />
      </clipPath>
      <clipPath clipPathUnits="userSpaceOnUse" id="clipPath13">
        <path d="M-3 -3 L27 -3 L27 47 L-3 47 L-3 -3 Z" />
      </clipPath>
      <clipPath clipPathUnits="userSpaceOnUse" id="clipPath14">
        <path d="M-3 -3 L107 -3 L107 67 L-3 67 L-3 -3 Z" />
      </clipPath>
      <clipPath clipPathUnits="userSpaceOnUse" id="clipPath15">
        <path d="M0 0 L100 0 L100 60 L0 60 L0 0 Z" />
      </clipPath>
      <clipPath clipPathUnits="userSpaceOnUse" id="clipPath16">
        <path d="M-3 -3 L97 -3 L97 57 L-3 57 L-3 -3 Z" />
      </clipPath>
      <clipPath clipPathUnits="userSpaceOnUse" id="clipPath17">
        <path d="M0 0 L90 0 L90 50 L0 50 L0 0 Z" />
      </clipPath>
      <clipPath clipPathUnits="userSpaceOnUse" id="clipPath18">
        <path d="M-3 -3 L107 -3 L107 57 L-3 57 L-3 -3 Z" />
      </clipPath>
      <clipPath clipPathUnits="userSpaceOnUse" id="clipPath19">
        <path d="M0 0 L100 0 L100 50 L0 50 L0 0 Z" />
      </clipPath>
      <clipPath clipPathUnits="userSpaceOnUse" id="clipPath20">
        <path d="M-3 -3 L27 -3 L27 27 L-3 27 L-3 -3 Z" />
      </clipPath>
      <clipPath clipPathUnits="userSpaceOnUse" id="clipPath21">
        <path d="M0 0 L215 0 L215 412 L0 412 L0 0 Z" />
      </clipPath>
      <clipPath clipPathUnits="userSpaceOnUse" id="clipPath22">
        <path d="M0 0 L280 0 L280 412 L0 412 L0 0 Z" />
      </clipPath>
      <clipPath clipPathUnits="userSpaceOnUse" id="clipPath23">
        <path d="M0 0 L225 0 L225 412 L0 412 L0 0 Z" />
      </clipPath>
      <clipPath clipPathUnits="userSpaceOnUse" id="clipPath24">
        <path d="M0 0 L148 0 L148 132 L0 132 L0 0 Z" />
      </clipPath>
      <clipPath clipPathUnits="userSpaceOnUse" id="clipPath25">
        <path d="M0 0 L148 0 L148 133 L0 133 L0 0 Z" />
      </clipPath>
      <clipPath clipPathUnits="userSpaceOnUse" id="clipPath26">
        <path d="M0 0 L184 0 L184 104 L0 104 L0 0 Z" />
      </clipPath>
      <clipPath clipPathUnits="userSpaceOnUse" id="clipPath27">
        <path d="M0 0 L124 0 L124 104 L0 104 L0 0 Z" />
      </clipPath>
      <clipPath clipPathUnits="userSpaceOnUse" id="clipPath28">
        <path d="M0 0 L138 0 L138 132 L0 132 L0 0 Z" />
      </clipPath>
      <clipPath clipPathUnits="userSpaceOnUse" id="clipPath29">
        <path d="M0 0 L138 0 L138 133 L0 133 L0 0 Z" />
      </clipPath>
      <clipPath clipPathUnits="userSpaceOnUse" id="clipPath30">
        <path d="M0 0 L104 0 L104 154 L0 154 L0 0 Z" />
      </clipPath>
      <clipPath clipPathUnits="userSpaceOnUse" id="clipPath31">
        <path d="M0 0 L585 0 L585 224 L0 224 L0 0 Z" />
      </clipPath>
      <clipPath clipPathUnits="userSpaceOnUse" id="clipPath32">
        <path d="M0 0 L104 0 L104 133 L0 133 L0 0 Z" />
      </clipPath>
      <clipPath clipPathUnits="userSpaceOnUse" id="clipPath33">
        <path d="M0 0 L104 0 L104 153 L0 153 L0 0 Z" />
      </clipPath>
      <clipPath clipPathUnits="userSpaceOnUse" id="clipPath34">
        <path d="M0 0 L529 0 L529 171 L0 171 L0 0 Z" />
      </clipPath>
      <clipPath clipPathUnits="userSpaceOnUse" id="clipPath35">
        <path d="M0 0 L528 0 L528 171 L0 171 L0 0 Z" />
      </clipPath>
      <clipPath clipPathUnits="userSpaceOnUse" id="clipPath36">
        <path d="M0 0 L167 0 L167 284 L0 284 L0 0 Z" />
      </clipPath>
      <clipPath clipPathUnits="userSpaceOnUse" id="clipPath37">
        <path d="M0 0 L192 0 L192 104 L0 104 L0 0 Z" />
      </clipPath>
      <clipPath clipPathUnits="userSpaceOnUse" id="clipPath38">
        <path d="M0 0 L90 0 L90 18 L0 18 L0 0 Z" />
      </clipPath>
      <clipPath clipPathUnits="userSpaceOnUse" id="clipPath39">
        <path d="M0 0 L118 0 L118 18 L0 18 L0 0 Z" />
      </clipPath>
      <clipPath clipPathUnits="userSpaceOnUse" id="clipPath40">
        <path d="M0 0 L76 0 L76 18 L0 18 L0 0 Z" />
      </clipPath>
    </defs>
    <g style="fill:white; text-rendering:geometricPrecision; stroke:white;">
      <rect x="0" y="0" width="726" style="stroke:none;" height="436" />
    </g>
    <g transform="translate(2,2)" style="text-rendering:geometricPrecision; stroke-width:2; font-size:14; font-family:&apos;標楷體&apos;;">
      <rect x="0" y="0" width="225" style="clip-path:url(#clipPath3); fill:none;" height="18" />
    </g>
    <g style="text-rendering:geometricPrecision; font-size:14; font-family:&apos;標楷體&apos;;" transform="translate(2,2)">
      <text x="98" y="16" style="clip-path:url(#clipPath4); stroke:none;" xml:space="preserve">會員</text>
    </g>
    <g transform="translate(2,20)" style="text-rendering:geometricPrecision; stroke-width:2; font-size:14; font-family:&apos;標楷體&apos;;">
      <rect x="0" y="0" width="225" style="clip-path:url(#clipPath5); fill:none;" height="412" />
    </g>
    <g transform="translate(227,2)" style="text-rendering:geometricPrecision; stroke-width:2; font-size:14; font-family:&apos;標楷體&apos;;">
      <rect x="0" y="0" width="280" style="clip-path:url(#clipPath6); fill:none;" height="18" />
    </g>
    <g style="text-rendering:geometricPrecision; font-size:14; font-family:&apos;標楷體&apos;;" transform="translate(227,2)">
      <text x="112" y="16" style="clip-path:url(#clipPath7); stroke:none;" xml:space="preserve">會員專區</text>
    </g>
    <g transform="translate(227,20)" style="text-rendering:geometricPrecision; stroke-width:2; font-size:14; font-family:&apos;標楷體&apos;;">
      <rect x="0" y="0" width="280" style="clip-path:url(#clipPath8); fill:none;" height="412" />
    </g>
    <g transform="translate(507,2)" style="text-rendering:geometricPrecision; stroke-width:2; font-size:14; font-family:&apos;標楷體&apos;;">
      <rect x="0" y="0" width="215" style="clip-path:url(#clipPath9); fill:none;" height="18" />
    </g>
    <g style="text-rendering:geometricPrecision; font-size:14; font-family:&apos;標楷體&apos;;" transform="translate(507,2)">
      <text x="86" y="16" style="clip-path:url(#clipPath10); stroke:none;" xml:space="preserve">資料庫</text>
    </g>
    <g transform="translate(507,20)" style="text-rendering:geometricPrecision; stroke-width:2; font-size:14; font-family:&apos;標楷體&apos;;">
      <rect x="0" y="0" width="215" style="clip-path:url(#clipPath11); fill:none;" height="412" />
    </g>
    <g style="text-rendering:geometricPrecision; font-size:14; font-family:&apos;標楷體&apos;;" transform="translate(132,52)">
      <circle style="clip-path:url(#clipPath12); stroke:none;" r="10" cx="20" cy="10" />
    </g>
    <g transform="translate(142,112)" style="font-size:14; fill:rgb(122,207,245); text-rendering:geometricPrecision; font-family:&apos;標楷體&apos;; stroke:rgb(122,207,245);">
      <polygon style="clip-path:url(#clipPath13); stroke:none;" points=" 10 7 17 20 10 32 3 20" />
    </g>
    <g transform="translate(142,112)" style="font-size:14; stroke-linecap:butt; text-rendering:geometricPrecision; font-family:&apos;標楷體&apos;; stroke-linejoin:round; stroke-miterlimit:0;">
      <polygon style="fill:none; clip-path:url(#clipPath13);" points=" 10 7 17 20 10 32 3 20" />
    </g>
    <g transform="translate(246,102)" style="font-size:14; fill:rgb(122,207,245); text-rendering:geometricPrecision; font-family:&apos;標楷體&apos;; stroke:rgb(122,207,245);">
      <rect x="1" y="1" width="98" style="clip-path:url(#clipPath14); stroke:none;" rx="15" ry="15" height="58" />
    </g>
    <g transform="translate(246,102)" style="font-size:14; stroke-linecap:butt; text-rendering:geometricPrecision; font-family:&apos;標楷體&apos;; stroke-linejoin:round; stroke-miterlimit:0;">
      <rect x="1" y="1" width="98" style="clip-path:url(#clipPath14); fill:none;" rx="15" ry="15" height="58" />
    </g>
    <g style="text-rendering:geometricPrecision; font-size:14; font-family:&apos;標楷體&apos;;" transform="translate(246,102)">
      <text x="8" y="37" style="clip-path:url(#clipPath15); stroke:none;" xml:space="preserve">寵物醫院資訊</text>
    </g>
    <g transform="translate(362,112)" style="font-size:14; fill:rgb(122,207,245); text-rendering:geometricPrecision; font-family:&apos;標楷體&apos;; stroke:rgb(122,207,245);">
      <polygon style="clip-path:url(#clipPath13); stroke:none;" points=" 10 7 17 20 10 32 3 20" />
    </g>
    <g transform="translate(362,112)" style="font-size:14; stroke-linecap:butt; text-rendering:geometricPrecision; font-family:&apos;標楷體&apos;; stroke-linejoin:round; stroke-miterlimit:0;">
      <polygon style="fill:none; clip-path:url(#clipPath13);" points=" 10 7 17 20 10 32 3 20" />
    </g>
    <g transform="translate(406,72)" style="font-size:14; fill:rgb(122,207,245); text-rendering:geometricPrecision; font-family:&apos;標楷體&apos;; stroke:rgb(122,207,245);">
      <rect x="1" y="1" width="88" style="clip-path:url(#clipPath16); stroke:none;" rx="15" ry="15" height="48" />
    </g>
    <g transform="translate(406,72)" style="font-size:14; stroke-linecap:butt; text-rendering:geometricPrecision; font-family:&apos;標楷體&apos;; stroke-linejoin:round; stroke-miterlimit:0;">
      <rect x="1" y="1" width="88" style="clip-path:url(#clipPath16); fill:none;" rx="15" ry="15" height="48" />
    </g>
    <g style="text-rendering:geometricPrecision; font-size:14; font-family:&apos;標楷體&apos;;" transform="translate(406,72)">
      <text x="17" y="32" style="clip-path:url(#clipPath17); stroke:none;" xml:space="preserve">條件篩選</text>
    </g>
    <g transform="translate(406,142)" style="font-size:14; fill:rgb(122,207,245); text-rendering:geometricPrecision; font-family:&apos;標楷體&apos;; stroke:rgb(122,207,245);">
      <rect x="1" y="1" width="88" style="clip-path:url(#clipPath16); stroke:none;" rx="15" ry="15" height="48" />
    </g>
    <g transform="translate(406,142)" style="font-size:14; stroke-linecap:butt; text-rendering:geometricPrecision; font-family:&apos;標楷體&apos;; stroke-linejoin:round; stroke-miterlimit:0;">
      <rect x="1" y="1" width="88" style="clip-path:url(#clipPath16); fill:none;" rx="15" ry="15" height="48" />
    </g>
    <g style="text-rendering:geometricPrecision; font-size:14; font-family:&apos;標楷體&apos;;" transform="translate(406,142)">
      <text x="10" y="32" style="clip-path:url(#clipPath17); stroke:none;" xml:space="preserve">關鍵字查詢</text>
    </g>
    <g transform="translate(572,72)" style="font-size:14; fill:rgb(122,207,245); text-rendering:geometricPrecision; font-family:&apos;標楷體&apos;; stroke:rgb(122,207,245);">
      <polygon style="clip-path:url(#clipPath13); stroke:none;" points=" 10 7 17 20 10 32 3 20" />
    </g>
    <g transform="translate(572,72)" style="font-size:14; stroke-linecap:butt; text-rendering:geometricPrecision; font-family:&apos;標楷體&apos;; stroke-linejoin:round; stroke-miterlimit:0;">
      <polygon style="fill:none; clip-path:url(#clipPath13);" points=" 10 7 17 20 10 32 3 20" />
    </g>
    <g transform="translate(572,152)" style="font-size:14; fill:rgb(122,207,245); text-rendering:geometricPrecision; font-family:&apos;標楷體&apos;; stroke:rgb(122,207,245);">
      <polygon style="clip-path:url(#clipPath13); stroke:none;" points=" 10 7 17 20 10 32 3 20" />
    </g>
    <g transform="translate(572,152)" style="font-size:14; stroke-linecap:butt; text-rendering:geometricPrecision; font-family:&apos;標楷體&apos;; stroke-linejoin:round; stroke-miterlimit:0;">
      <polygon style="fill:none; clip-path:url(#clipPath13);" points=" 10 7 17 20 10 32 3 20" />
    </g>
    <g transform="translate(622,112)" style="font-size:14; fill:rgb(122,207,245); text-rendering:geometricPrecision; font-family:&apos;標楷體&apos;; stroke:rgb(122,207,245);">
      <polygon style="clip-path:url(#clipPath13); stroke:none;" points=" 10 7 17 20 10 32 3 20" />
    </g>
    <g transform="translate(622,112)" style="font-size:14; stroke-linecap:butt; text-rendering:geometricPrecision; font-family:&apos;標楷體&apos;; stroke-linejoin:round; stroke-miterlimit:0;">
      <polygon style="fill:none; clip-path:url(#clipPath13);" points=" 10 7 17 20 10 32 3 20" />
    </g>
    <g transform="translate(102,222)" style="font-size:14; fill:rgb(122,207,245); text-rendering:geometricPrecision; font-family:&apos;標楷體&apos;; stroke:rgb(122,207,245);">
      <rect x="1" y="1" width="98" style="clip-path:url(#clipPath18); stroke:none;" rx="15" ry="15" height="48" />
    </g>
    <g transform="translate(102,222)" style="font-size:14; stroke-linecap:butt; text-rendering:geometricPrecision; font-family:&apos;標楷體&apos;; stroke-linejoin:round; stroke-miterlimit:0;">
      <rect x="1" y="1" width="98" style="clip-path:url(#clipPath18); fill:none;" rx="15" ry="15" height="48" />
    </g>
    <g style="text-rendering:geometricPrecision; font-size:14; font-family:&apos;標楷體&apos;;" transform="translate(102,222)">
      <text x="8" y="32" style="clip-path:url(#clipPath19); stroke:none;" xml:space="preserve">顯示查詢資訊</text>
    </g>
    <g transform="translate(142,292)" style="font-size:14; fill:rgb(122,207,245); text-rendering:geometricPrecision; font-family:&apos;標楷體&apos;; stroke:rgb(122,207,245);">
      <polygon style="clip-path:url(#clipPath13); stroke:none;" points=" 10 7 17 20 10 32 3 20" />
    </g>
    <g transform="translate(142,292)" style="font-size:14; stroke-linecap:butt; text-rendering:geometricPrecision; font-family:&apos;標楷體&apos;; stroke-linejoin:round; stroke-miterlimit:0;">
      <polygon style="fill:none; clip-path:url(#clipPath13);" points=" 10 7 17 20 10 32 3 20" />
    </g>
    <g style="text-rendering:geometricPrecision; font-size:14; font-family:&apos;標楷體&apos;;" transform="translate(142,372)">
      <circle style="clip-path:url(#clipPath20); stroke:none;" r="6.6667" cx="10" cy="10" />
      <circle style="stroke-linecap:butt; clip-path:url(#clipPath20); fill:none; stroke-linejoin:round; stroke-miterlimit:0;" r="10" cx="10" cy="10" />
    </g>
    <g transform="translate(538,42)" style="font-size:14; stroke-linecap:butt; text-rendering:geometricPrecision; font-family:&apos;標楷體&apos;; stroke-linejoin:round;">
      <line x1="50" x2="94" y1="50" style="clip-path:url(#clipPath24); fill:none;" y2="50" />
      <line x1="94" x2="94" y1="50" style="clip-path:url(#clipPath24); fill:none;" y2="78" />
      <line x1="94" x2="100" y1="78" style="clip-path:url(#clipPath24); fill:none;" y2="66" />
      <line x1="94" x2="88" y1="78" style="clip-path:url(#clipPath24); fill:none;" y2="66" />
    </g>
    <g transform="translate(538,93)" style="font-size:14; stroke-linecap:butt; text-rendering:geometricPrecision; font-family:&apos;標楷體&apos;; stroke-linejoin:round;">
      <line x1="50" x2="94" y1="79" style="clip-path:url(#clipPath25); fill:none;" y2="79" />
      <line x1="94" x2="94" y1="79" style="clip-path:url(#clipPath25); fill:none;" y2="50" />
      <line x1="94" x2="88" y1="50" style="clip-path:url(#clipPath25); fill:none;" y2="62" />
      <line x1="94" x2="100" y1="50" style="clip-path:url(#clipPath25); fill:none;" y2="62" />
    </g>
    <g transform="translate(445,42)" style="font-size:14; stroke-linecap:butt; text-rendering:geometricPrecision; font-family:&apos;標楷體&apos;; stroke-linejoin:round;">
      <line x1="50" x2="130" y1="50" style="clip-path:url(#clipPath26); fill:none;" y2="50" />
      <line x1="130" x2="118" y1="50" style="clip-path:url(#clipPath26); fill:none;" y2="44" />
      <line x1="130" x2="118" y1="50" style="clip-path:url(#clipPath26); fill:none;" y2="56" />
    </g>
    <g transform="translate(445,122)" style="font-size:14; stroke-linecap:butt; text-rendering:geometricPrecision; font-family:&apos;標楷體&apos;; stroke-linejoin:round;">
      <line x1="50" x2="130" y1="50" style="clip-path:url(#clipPath26); fill:none;" y2="50" />
      <line x1="130" x2="118" y1="50" style="clip-path:url(#clipPath26); fill:none;" y2="44" />
      <line x1="130" x2="118" y1="50" style="clip-path:url(#clipPath26); fill:none;" y2="56" />
    </g>
    <g transform="translate(295,82)" style="font-size:14; stroke-linecap:butt; text-rendering:geometricPrecision; font-family:&apos;標楷體&apos;; stroke-linejoin:round;">
      <line x1="50" x2="70" y1="50" style="clip-path:url(#clipPath27); fill:none;" y2="50" />
      <line x1="70" x2="58" y1="50" style="clip-path:url(#clipPath27); fill:none;" y2="44" />
      <line x1="70" x2="58" y1="50" style="clip-path:url(#clipPath27); fill:none;" y2="56" />
    </g>
    <g transform="translate(322,42)" style="font-size:14; stroke-linecap:butt; text-rendering:geometricPrecision; font-family:&apos;標楷體&apos;; stroke-linejoin:round;">
      <line x1="50" x2="50" y1="78" style="clip-path:url(#clipPath28); fill:none;" y2="50" />
      <line x1="50" x2="84" y1="50" style="clip-path:url(#clipPath28); fill:none;" y2="50" />
      <line x1="84" x2="72" y1="50" style="clip-path:url(#clipPath28); fill:none;" y2="44" />
      <line x1="84" x2="72" y1="50" style="clip-path:url(#clipPath28); fill:none;" y2="56" />
    </g>
    <g transform="translate(322,93)" style="font-size:14; stroke-linecap:butt; text-rendering:geometricPrecision; font-family:&apos;標楷體&apos;; stroke-linejoin:round;">
      <line x1="50" x2="50" y1="50" style="clip-path:url(#clipPath29); fill:none;" y2="79" />
      <line x1="50" x2="84" y1="79" style="clip-path:url(#clipPath29); fill:none;" y2="79" />
      <line x1="84" x2="72" y1="79" style="clip-path:url(#clipPath29); fill:none;" y2="73" />
      <line x1="84" x2="72" y1="79" style="clip-path:url(#clipPath29); fill:none;" y2="85" />
    </g>
    <g transform="translate(102,273)" style="font-size:14; stroke-linecap:butt; text-rendering:geometricPrecision; font-family:&apos;標楷體&apos;; stroke-linejoin:round;">
      <line x1="50" x2="50" y1="50" style="clip-path:url(#clipPath30); fill:none;" y2="100" />
      <line x1="50" x2="56" y1="100" style="clip-path:url(#clipPath30); fill:none;" y2="88" />
      <line x1="50" x2="44" y1="100" style="clip-path:url(#clipPath30); fill:none;" y2="88" />
    </g>
    <g transform="translate(151,82)" style="font-size:14; stroke-linecap:butt; text-rendering:geometricPrecision; font-family:&apos;標楷體&apos;; stroke-linejoin:round;">
      <line x1="487" x2="531" y1="50" style="clip-path:url(#clipPath31); fill:none;" y2="50" />
      <line x1="531" x2="531" y1="50" style="clip-path:url(#clipPath31); fill:none;" y2="170" />
      <line x1="531" x2="50" y1="170" style="clip-path:url(#clipPath31); fill:none;" y2="170" />
      <line x1="50" x2="62" y1="170" style="clip-path:url(#clipPath31); fill:none;" y2="176" />
      <line x1="50" x2="62" y1="170" style="clip-path:url(#clipPath31); fill:none;" y2="164" />
    </g>
    <g transform="translate(102,221)" style="font-size:14; stroke-linecap:butt; text-rendering:geometricPrecision; font-family:&apos;標楷體&apos;; stroke-linejoin:round;">
      <line x1="50" x2="50" y1="50" style="clip-path:url(#clipPath32); fill:none;" y2="79" />
      <line x1="50" x2="56" y1="79" style="clip-path:url(#clipPath32); fill:none;" y2="67" />
      <line x1="50" x2="44" y1="79" style="clip-path:url(#clipPath32); fill:none;" y2="67" />
    </g>
    <g transform="translate(102,21)" style="font-size:14; stroke-linecap:butt; text-rendering:geometricPrecision; font-family:&apos;標楷體&apos;; stroke-linejoin:round;">
      <line x1="50" x2="50" y1="50" style="clip-path:url(#clipPath33); fill:none;" y2="99" />
      <line x1="50" x2="56" y1="99" style="clip-path:url(#clipPath33); fill:none;" y2="87" />
      <line x1="50" x2="44" y1="99" style="clip-path:url(#clipPath33); fill:none;" y2="87" />
    </g>
    <g transform="translate(107,12)" style="font-size:14; stroke-linecap:butt; text-rendering:geometricPrecision; font-family:&apos;標楷體&apos;; stroke-linejoin:round;">
      <line x1="475" x2="475" y1="68" style="clip-path:url(#clipPath34); fill:none;" y2="50" />
      <line x1="475" x2="145" y1="50" style="clip-path:url(#clipPath34); fill:none;" y2="50" />
      <line x1="145" x2="50" y1="50" style="clip-path:url(#clipPath34); fill:none;" y2="117" />
      <line x1="50" x2="63" y1="117" style="clip-path:url(#clipPath34); fill:none;" y2="115" />
      <line x1="50" x2="56" y1="117" style="clip-path:url(#clipPath34); fill:none;" y2="105" />
    </g>
    <g transform="translate(108,85)" style="font-size:14; stroke-linecap:butt; text-rendering:geometricPrecision; font-family:&apos;標楷體&apos;; stroke-linejoin:round;">
      <line x1="474" x2="474" y1="98" style="clip-path:url(#clipPath35); fill:none;" y2="117" />
      <line x1="474" x2="164" y1="117" style="clip-path:url(#clipPath35); fill:none;" y2="117" />
      <line x1="164" x2="50" y1="117" style="clip-path:url(#clipPath35); fill:none;" y2="50" />
      <line x1="50" x2="56" y1="50" style="clip-path:url(#clipPath35); fill:none;" y2="61" />
      <line x1="50" x2="62" y1="50" style="clip-path:url(#clipPath35); fill:none;" y2="50" />
    </g>
    <g transform="translate(32,82)" style="font-size:14; stroke-linecap:butt; text-rendering:geometricPrecision; font-family:&apos;標楷體&apos;; stroke-linejoin:round;">
      <line x1="113" x2="50" y1="230" style="clip-path:url(#clipPath36); fill:none;" y2="230" />
      <line x1="50" x2="50" y1="230" style="clip-path:url(#clipPath36); fill:none;" y2="50" />
      <line x1="50" x2="113" y1="50" style="clip-path:url(#clipPath36); fill:none;" y2="50" />
      <line x1="113" x2="101" y1="50" style="clip-path:url(#clipPath36); fill:none;" y2="44" />
      <line x1="113" x2="101" y1="50" style="clip-path:url(#clipPath36); fill:none;" y2="56" />
    </g>
    <g transform="translate(108,82)" style="font-size:14; stroke-linecap:butt; text-rendering:geometricPrecision; font-family:&apos;標楷體&apos;; stroke-linejoin:round;">
      <line x1="50" x2="138" y1="50" style="clip-path:url(#clipPath37); fill:none;" y2="50" />
      <line x1="138" x2="126" y1="50" style="clip-path:url(#clipPath37); fill:none;" y2="44" />
      <line x1="138" x2="126" y1="50" style="clip-path:url(#clipPath37); fill:none;" y2="56" />
    </g>
    <g style="text-rendering:geometricPrecision; font-size:14; font-family:&apos;標楷體&apos;;" transform="translate(2,233)">
      <text x="10" y="16" style="clip-path:url(#clipPath38); stroke:none;" xml:space="preserve">[重新搜尋]</text>
    </g>
    <g style="text-rendering:geometricPrecision; font-size:14; font-family:&apos;標楷體&apos;;" transform="translate(502,202)">
      <text x="10" y="16" style="clip-path:url(#clipPath39); stroke:none;" xml:space="preserve">[查無相關資料]</text>
    </g>
    <g style="text-rendering:geometricPrecision; font-size:14; font-family:&apos;標楷體&apos;;" transform="translate(502,42)">
      <text x="10" y="16" style="clip-path:url(#clipPath39); stroke:none;" xml:space="preserve">[查無符合條件]</text>
    </g>
    <g style="text-rendering:geometricPrecision; font-size:14; font-family:&apos;標楷體&apos;;" transform="translate(142,330)">
      <text x="10" y="16" style="clip-path:url(#clipPath38); stroke:none;" xml:space="preserve">[不再搜尋]</text>
    </g>
    <g style="text-rendering:geometricPrecision; font-size:14; font-family:&apos;標楷體&apos;;" transform="translate(312,172)">
      <text x="10" y="16" style="clip-path:url(#clipPath38); stroke:none;" xml:space="preserve">關鍵字查詢</text>
    </g>
    <g style="text-rendering:geometricPrecision; font-size:14; font-family:&apos;標楷體&apos;;" transform="translate(322,72)">
      <text x="10" y="16" style="clip-path:url(#clipPath40); stroke:none;" xml:space="preserve">條件篩選</text>
    </g>
    <g style="text-rendering:geometricPrecision; font-size:14; font-family:&apos;標楷體&apos;;" transform="translate(582,172)">
      <text x="10" y="16" style="clip-path:url(#clipPath38); stroke:none;" xml:space="preserve">[查詢成功]</text>
    </g>
    <g style="text-rendering:geometricPrecision; font-size:14; font-family:&apos;標楷體&apos;;" transform="translate(586,72)">
      <text x="10" y="16" style="clip-path:url(#clipPath38); stroke:none;" xml:space="preserve">[條件符合]</text>
    </g>
    <g style="fill:rgb(120,120,120); text-rendering:geometricPrecision; font-size:10; stroke:rgb(120,120,120);">
    </g>
  </g>
</svg>
