<?xml version="1.0" encoding="UTF-8"?>

<!DOCTYPE svg PUBLIC '-//W3C//DTD SVG 1.0//EN' 'http://www.w3.org/TR/2001/REC-SVG-20010904/DTD/svg10.dtd'>
<svg style="fill-opacity:1; color-rendering:auto; color-interpolation:auto; stroke:black; text-rendering:auto; stroke-linecap:square; stroke-miterlimit:10; stroke-opacity:1; shape-rendering:auto; fill:black; stroke-dasharray:none; font-weight:normal; stroke-width:1; font-family:&apos;Dialog&apos;; font-style:normal; stroke-linejoin:miter; font-size:12; stroke-dashoffset:0; image-rendering:auto;" xmlns="http://www.w3.org/2000/svg" width="856" xmlns:xlink="http://www.w3.org/1999/xlink" height="706">
  <!--Generated by the Batik Graphics2D SVG Generator-->
  <defs id="genericDefs" />
  <g>
    <defs id="defs1">
      <clipPath clipPathUnits="userSpaceOnUse" id="clipPath1">
        <path d="M-3 -3 L167 -3 L167 137 L-3 137 L-3 -3 Z" />
      </clipPath>
      <clipPath clipPathUnits="userSpaceOnUse" id="clipPath2">
        <path d="M0 0 L0 120 L160 120 L160 0 Z" />
      </clipPath>
      <clipPath clipPathUnits="userSpaceOnUse" id="clipPath3">
        <path d="M0 0 L160 0 L160 17 L0 17 L0 0 Z" />
      </clipPath>
      <clipPath clipPathUnits="userSpaceOnUse" id="clipPath4">
        <path d="M-3 -3 L167 -3 L167 87 L-3 87 L-3 -3 Z" />
      </clipPath>
      <clipPath clipPathUnits="userSpaceOnUse" id="clipPath5">
        <path d="M0 0 L0 70 L160 70 L160 0 Z" />
      </clipPath>
      <clipPath clipPathUnits="userSpaceOnUse" id="clipPath6">
        <path d="M-3 -3 L167 -3 L167 107 L-3 107 L-3 -3 Z" />
      </clipPath>
      <clipPath clipPathUnits="userSpaceOnUse" id="clipPath7">
        <path d="M0 0 L0 90 L160 90 L160 0 Z" />
      </clipPath>
      <clipPath clipPathUnits="userSpaceOnUse" id="clipPath8">
        <path d="M-3 -3 L167 -3 L167 177 L-3 177 L-3 -3 Z" />
      </clipPath>
      <clipPath clipPathUnits="userSpaceOnUse" id="clipPath9">
        <path d="M0 0 L0 160 L160 160 L160 0 Z" />
      </clipPath>
      <clipPath clipPathUnits="userSpaceOnUse" id="clipPath10">
        <path d="M-3 -3 L187 -3 L187 167 L-3 167 L-3 -3 Z" />
      </clipPath>
      <clipPath clipPathUnits="userSpaceOnUse" id="clipPath11">
        <path d="M0 0 L0 150 L180 150 L180 0 Z" />
      </clipPath>
      <clipPath clipPathUnits="userSpaceOnUse" id="clipPath12">
        <path d="M0 0 L180 0 L180 17 L0 17 L0 0 Z" />
      </clipPath>
      <clipPath clipPathUnits="userSpaceOnUse" id="clipPath13">
        <path d="M-3 -3 L167 -3 L167 187 L-3 187 L-3 -3 Z" />
      </clipPath>
      <clipPath clipPathUnits="userSpaceOnUse" id="clipPath14">
        <path d="M0 0 L0 170 L160 170 L160 0 Z" />
      </clipPath>
      <clipPath clipPathUnits="userSpaceOnUse" id="clipPath15">
        <path d="M-3 -3 L47 -3 L47 27 L-3 27 L-3 -3 Z" />
      </clipPath>
      <clipPath clipPathUnits="userSpaceOnUse" id="clipPath16">
        <path d="M0 0 L129 0 L129 167 L0 167 L0 0 Z" />
      </clipPath>
      <clipPath clipPathUnits="userSpaceOnUse" id="clipPath17">
        <path d="M0 0 L279 0 L279 217 L0 217 L0 0 Z" />
      </clipPath>
      <clipPath clipPathUnits="userSpaceOnUse" id="clipPath18">
        <path d="M0 0 L287 0 L287 207 L0 207 L0 0 Z" />
      </clipPath>
      <clipPath clipPathUnits="userSpaceOnUse" id="clipPath19">
        <path d="M0 0 L397 0 L397 129 L0 129 L0 0 Z" />
      </clipPath>
      <clipPath clipPathUnits="userSpaceOnUse" id="clipPath20">
        <path d="M0 0 L407 0 L407 147 L0 147 L0 0 Z" />
      </clipPath>
      <clipPath clipPathUnits="userSpaceOnUse" id="clipPath21">
        <path d="M0 0 L869 0 L869 639 L0 639 L0 0 Z" />
      </clipPath>
      <clipPath clipPathUnits="userSpaceOnUse" id="clipPath22">
        <path d="M0 0 L639 0 L639 599 L0 599 L0 0 Z" />
      </clipPath>
      <clipPath clipPathUnits="userSpaceOnUse" id="clipPath23">
        <path d="M0 0 L439 0 L439 559 L0 559 L0 0 Z" />
      </clipPath>
      <clipPath clipPathUnits="userSpaceOnUse" id="clipPath24">
        <path d="M0 0 L189 0 L189 279 L0 279 L0 0 Z" />
      </clipPath>
      <clipPath clipPathUnits="userSpaceOnUse" id="clipPath25">
        <path d="M0 0 L40 0 L40 20 L0 20 L0 0 Z" />
      </clipPath>
    </defs>
    <g style="fill:white; text-rendering:geometricPrecision; stroke:white;">
      <rect x="0" y="0" width="856" style="stroke:none;" height="706" />
    </g>
    <g transform="translate(242,2)" style="font-size:14; fill:rgb(122,207,245); text-rendering:geometricPrecision; font-family:&apos;Times New Roman&apos;; stroke:rgb(122,207,245); font-weight:bold;">
      <rect x="0" y="0" width="160" style="clip-path:url(#clipPath1); stroke:none;" height="130" />
    </g>
    <g transform="translate(242,2)" style="font-size:14; stroke-linecap:butt; text-rendering:geometricPrecision; font-family:&apos;Times New Roman&apos;; stroke-linejoin:round; font-weight:bold; stroke-miterlimit:0;">
      <rect x="0" y="0" width="160" style="clip-path:url(#clipPath1); fill:none;" height="130" />
      <line x1="0" x2="160" y1="17" style="clip-path:url(#clipPath1); fill:none;" y2="17" />
    </g>
    <g style="text-rendering:geometricPrecision; font-size:14; font-family:&apos;Times New Roman&apos;;" transform="translate(242,19)">
      <text x="2" y="15" style="clip-path:url(#clipPath2); stroke:none;" xml:space="preserve">-categoryID : string</text>
      <text x="2" y="31" style="clip-path:url(#clipPath2); stroke:none;" xml:space="preserve">-storeID : string</text>
      <text x="2" y="47" style="clip-path:url(#clipPath2); stroke:none;" xml:space="preserve">-storeName : string</text>
      <text x="2" y="63" style="clip-path:url(#clipPath2); stroke:none;" xml:space="preserve">-storeAddr : string</text>
      <line x1="0" x2="160" y1="68" style="stroke-linecap:butt; clip-path:url(#clipPath2); fill:none; stroke-linejoin:bevel; stroke-miterlimit:0;" y2="68" />
      <text x="2" y="83" style="clip-path:url(#clipPath2); stroke:none;" xml:space="preserve">+checkStoreName()</text>
      <text x="2" y="99" style="clip-path:url(#clipPath2); stroke:none;" xml:space="preserve">+checkStoreAddr()</text>
    </g>
    <g transform="translate(242,2)" style="text-rendering:geometricPrecision; font-size:14; font-weight:bold; font-family:&apos;Times New Roman&apos;;">
      <text x="65" y="14" style="clip-path:url(#clipPath3); stroke:none;" xml:space="preserve">store</text>
    </g>
    <g transform="translate(242,172)" style="font-size:14; fill:rgb(122,207,245); text-rendering:geometricPrecision; font-family:&apos;Times New Roman&apos;; stroke:rgb(122,207,245); font-weight:bold;">
      <rect x="0" y="0" width="160" style="clip-path:url(#clipPath4); stroke:none;" height="80" />
    </g>
    <g transform="translate(242,172)" style="font-size:14; stroke-linecap:butt; text-rendering:geometricPrecision; font-family:&apos;Times New Roman&apos;; stroke-linejoin:round; font-weight:bold; stroke-miterlimit:0;">
      <rect x="0" y="0" width="160" style="clip-path:url(#clipPath4); fill:none;" height="80" />
      <line x1="0" x2="160" y1="17" style="clip-path:url(#clipPath4); fill:none;" y2="17" />
    </g>
    <g style="text-rendering:geometricPrecision; font-size:14; font-family:&apos;Times New Roman&apos;;" transform="translate(242,189)">
      <text x="2" y="15" style="clip-path:url(#clipPath5); stroke:none;" xml:space="preserve">-categoryID : string</text>
      <text x="2" y="31" style="clip-path:url(#clipPath5); stroke:none;" xml:space="preserve">-categoryName : string</text>
      <line x1="0" x2="160" y1="36" style="stroke-linecap:butt; clip-path:url(#clipPath5); fill:none; stroke-linejoin:bevel; stroke-miterlimit:0;" y2="36" />
      <text x="2" y="51" style="clip-path:url(#clipPath5); stroke:none;" xml:space="preserve">+checkCategoryName()</text>
    </g>
    <g transform="translate(242,172)" style="text-rendering:geometricPrecision; font-size:14; font-weight:bold; font-family:&apos;Times New Roman&apos;;">
      <text x="55" y="14" style="clip-path:url(#clipPath3); stroke:none;" xml:space="preserve">analysis</text>
    </g>
    <g transform="translate(242,292)" style="font-size:14; fill:rgb(122,207,245); text-rendering:geometricPrecision; font-family:&apos;Times New Roman&apos;; stroke:rgb(122,207,245); font-weight:bold;">
      <rect x="0" y="0" width="160" style="clip-path:url(#clipPath6); stroke:none;" height="100" />
    </g>
    <g transform="translate(242,292)" style="font-size:14; stroke-linecap:butt; text-rendering:geometricPrecision; font-family:&apos;Times New Roman&apos;; stroke-linejoin:round; font-weight:bold; stroke-miterlimit:0;">
      <rect x="0" y="0" width="160" style="clip-path:url(#clipPath6); fill:none;" height="100" />
      <line x1="0" x2="160" y1="17" style="clip-path:url(#clipPath6); fill:none;" y2="17" />
    </g>
    <g style="text-rendering:geometricPrecision; font-size:14; font-family:&apos;Times New Roman&apos;;" transform="translate(242,309)">
      <text x="2" y="15" style="clip-path:url(#clipPath7); stroke:none;" xml:space="preserve">-categoryID : string</text>
      <text x="2" y="31" style="clip-path:url(#clipPath7); stroke:none;" xml:space="preserve">-photoID : string</text>
      <text x="2" y="47" style="clip-path:url(#clipPath7); stroke:none;" xml:space="preserve">-albumID : string</text>
      <line x1="0" x2="160" y1="52" style="stroke-linecap:butt; clip-path:url(#clipPath7); fill:none; stroke-linejoin:bevel; stroke-miterlimit:0;" y2="52" />
      <text x="2" y="67" style="clip-path:url(#clipPath7); stroke:none;" xml:space="preserve">+getPhoto()</text>
    </g>
    <g transform="translate(242,292)" style="text-rendering:geometricPrecision; font-size:14; font-weight:bold; font-family:&apos;Times New Roman&apos;;">
      <text x="13" y="14" style="clip-path:url(#clipPath3); stroke:none;" xml:space="preserve">photoStyleConversion</text>
    </g>
    <g transform="translate(482,292)" style="font-size:14; fill:rgb(122,207,245); text-rendering:geometricPrecision; font-family:&apos;Times New Roman&apos;; stroke:rgb(122,207,245); font-weight:bold;">
      <rect x="0" y="0" width="160" style="clip-path:url(#clipPath6); stroke:none;" height="100" />
    </g>
    <g transform="translate(482,292)" style="font-size:14; stroke-linecap:butt; text-rendering:geometricPrecision; font-family:&apos;Times New Roman&apos;; stroke-linejoin:round; font-weight:bold; stroke-miterlimit:0;">
      <rect x="0" y="0" width="160" style="clip-path:url(#clipPath6); fill:none;" height="100" />
      <line x1="0" x2="160" y1="17" style="clip-path:url(#clipPath6); fill:none;" y2="17" />
    </g>
    <g style="text-rendering:geometricPrecision; font-size:14; font-family:&apos;Times New Roman&apos;;" transform="translate(482,309)">
      <text x="2" y="15" style="clip-path:url(#clipPath7); stroke:none;" xml:space="preserve">-categoryID : string</text>
      <text x="2" y="31" style="clip-path:url(#clipPath7); stroke:none;" xml:space="preserve">-photoID : string</text>
      <text x="2" y="47" style="clip-path:url(#clipPath7); stroke:none;" xml:space="preserve">-albumID : string</text>
      <line x1="0" x2="160" y1="52" style="stroke-linecap:butt; clip-path:url(#clipPath7); fill:none; stroke-linejoin:bevel; stroke-miterlimit:0;" y2="52" />
      <text x="2" y="67" style="clip-path:url(#clipPath7); stroke:none;" xml:space="preserve">+getPhoto()</text>
    </g>
    <g transform="translate(482,292)" style="text-rendering:geometricPrecision; font-size:14; font-weight:bold; font-family:&apos;Times New Roman&apos;;">
      <text x="39" y="14" style="clip-path:url(#clipPath3); stroke:none;" xml:space="preserve">photoIdentify</text>
    </g>
    <g transform="translate(2,282)" style="font-size:14; fill:rgb(122,207,245); text-rendering:geometricPrecision; font-family:&apos;Times New Roman&apos;; stroke:rgb(122,207,245); font-weight:bold;">
      <rect x="0" y="0" width="160" style="clip-path:url(#clipPath8); stroke:none;" height="170" />
    </g>
    <g transform="translate(2,282)" style="font-size:14; stroke-linecap:butt; text-rendering:geometricPrecision; font-family:&apos;Times New Roman&apos;; stroke-linejoin:round; font-weight:bold; stroke-miterlimit:0;">
      <rect x="0" y="0" width="160" style="clip-path:url(#clipPath8); fill:none;" height="170" />
      <line x1="0" x2="160" y1="17" style="clip-path:url(#clipPath8); fill:none;" y2="17" />
    </g>
    <g style="text-rendering:geometricPrecision; font-size:14; font-family:&apos;Times New Roman&apos;;" transform="translate(2,299)">
      <text x="2" y="15" style="clip-path:url(#clipPath9); stroke:none;" xml:space="preserve">-categoryID : string</text>
      <text x="2" y="31" style="clip-path:url(#clipPath9); stroke:none;" xml:space="preserve">-feedID : string</text>
      <text x="2" y="47" style="clip-path:url(#clipPath9); stroke:none;" xml:space="preserve">-feedName : string</text>
      <text x="2" y="63" style="clip-path:url(#clipPath9); stroke:none;" xml:space="preserve">-feed : string</text>
      <text x="2" y="79" style="clip-path:url(#clipPath9); stroke:none;" xml:space="preserve">-feedInfo : string</text>
      <line x1="0" x2="160" y1="84" style="stroke-linecap:butt; clip-path:url(#clipPath9); fill:none; stroke-linejoin:bevel; stroke-miterlimit:0;" y2="84" />
      <text x="2" y="99" style="clip-path:url(#clipPath9); stroke:none;" xml:space="preserve">+checkFeedName()</text>
      <text x="2" y="115" style="clip-path:url(#clipPath9); stroke:none;" xml:space="preserve">+checkFeed()</text>
      <text x="2" y="131" style="clip-path:url(#clipPath9); stroke:none;" xml:space="preserve">+checkFeedInfo()</text>
    </g>
    <g transform="translate(2,282)" style="text-rendering:geometricPrecision; font-size:14; font-weight:bold; font-family:&apos;Times New Roman&apos;;">
      <text x="67" y="14" style="clip-path:url(#clipPath3); stroke:none;" xml:space="preserve">feed</text>
    </g>
    <g transform="translate(352,432)" style="font-size:14; fill:rgb(122,207,245); text-rendering:geometricPrecision; font-family:&apos;Times New Roman&apos;; stroke:rgb(122,207,245); font-weight:bold;">
      <rect x="0" y="0" width="180" style="clip-path:url(#clipPath10); stroke:none;" height="160" />
    </g>
    <g transform="translate(352,432)" style="font-size:14; stroke-linecap:butt; text-rendering:geometricPrecision; font-family:&apos;Times New Roman&apos;; stroke-linejoin:round; font-weight:bold; stroke-miterlimit:0;">
      <rect x="0" y="0" width="180" style="clip-path:url(#clipPath10); fill:none;" height="160" />
      <line x1="0" x2="180" y1="17" style="clip-path:url(#clipPath10); fill:none;" y2="17" />
    </g>
    <g style="text-rendering:geometricPrecision; font-size:14; font-family:&apos;Times New Roman&apos;;" transform="translate(352,449)">
      <text x="2" y="15" style="clip-path:url(#clipPath11); stroke:none;" xml:space="preserve">-albumID : string</text>
      <text x="2" y="31" style="clip-path:url(#clipPath11); stroke:none;" xml:space="preserve">-albumName : string</text>
      <text x="2" y="47" style="clip-path:url(#clipPath11); stroke:none;" xml:space="preserve">-photoID : string</text>
      <text x="2" y="63" style="clip-path:url(#clipPath11); stroke:none;" xml:space="preserve">-photo : string</text>
      <line x1="0" x2="180" y1="68" style="stroke-linecap:butt; clip-path:url(#clipPath11); fill:none; stroke-linejoin:bevel; stroke-miterlimit:0;" y2="68" />
      <text x="2" y="83" style="clip-path:url(#clipPath11); stroke:none;" xml:space="preserve">+checkAlbumID()</text>
      <text x="2" y="99" style="clip-path:url(#clipPath11); stroke:none;" xml:space="preserve">+createAlbum()</text>
      <text x="2" y="115" style="clip-path:url(#clipPath11); stroke:none;" xml:space="preserve">+delAlbum()</text>
      <text x="2" y="131" style="clip-path:url(#clipPath11); stroke:none;" xml:space="preserve">+checkPhotoID()</text>
    </g>
    <g transform="translate(352,432)" style="text-rendering:geometricPrecision; font-size:14; font-weight:bold; font-family:&apos;Times New Roman&apos;;">
      <text x="70" y="14" style="clip-path:url(#clipPath12); stroke:none;" xml:space="preserve">album</text>
    </g>
    <g transform="translate(672,12)" style="font-size:14; fill:rgb(122,207,245); text-rendering:geometricPrecision; font-family:&apos;Times New Roman&apos;; stroke:rgb(122,207,245); font-weight:bold;">
      <rect x="0" y="0" width="160" style="clip-path:url(#clipPath13); stroke:none;" height="180" />
    </g>
    <g transform="translate(672,12)" style="font-size:14; stroke-linecap:butt; text-rendering:geometricPrecision; font-family:&apos;Times New Roman&apos;; stroke-linejoin:round; font-weight:bold; stroke-miterlimit:0;">
      <rect x="0" y="0" width="160" style="clip-path:url(#clipPath13); fill:none;" height="180" />
      <line x1="0" x2="160" y1="17" style="clip-path:url(#clipPath13); fill:none;" y2="17" />
    </g>
    <g style="text-rendering:geometricPrecision; font-size:14; font-family:&apos;Times New Roman&apos;;" transform="translate(672,29)">
      <text x="2" y="15" style="clip-path:url(#clipPath14); stroke:none;" xml:space="preserve">-categoryName : string</text>
      <text x="2" y="31" style="clip-path:url(#clipPath14); stroke:none;" xml:space="preserve">-storeName : string</text>
      <text x="2" y="47" style="clip-path:url(#clipPath14); stroke:none;" xml:space="preserve">-photoName : string</text>
      <text x="2" y="63" style="clip-path:url(#clipPath14); stroke:none;" xml:space="preserve">-albumName : string</text>
      <text x="2" y="79" style="clip-path:url(#clipPath14); stroke:none;" xml:space="preserve">-feedName : string</text>
      <line x1="0" x2="160" y1="84" style="stroke-linecap:butt; clip-path:url(#clipPath14); fill:none; stroke-linejoin:bevel; stroke-miterlimit:0;" y2="84" />
      <text x="2" y="99" style="clip-path:url(#clipPath14); stroke:none;" xml:space="preserve">+addGetID()</text>
      <text x="2" y="115" style="clip-path:url(#clipPath14); stroke:none;" xml:space="preserve">+deleteGetID()</text>
      <text x="2" y="131" style="clip-path:url(#clipPath14); stroke:none;" xml:space="preserve">+modifyGetID()</text>
      <text x="2" y="147" style="clip-path:url(#clipPath14); stroke:none;" xml:space="preserve">+queryGetID()</text>
    </g>
    <g transform="translate(672,12)" style="text-rendering:geometricPrecision; font-size:14; font-weight:bold; font-family:&apos;Times New Roman&apos;;">
      <text x="53" y="14" style="clip-path:url(#clipPath3); stroke:none;" xml:space="preserve">database</text>
    </g>
    <g transform="translate(259,69)" style="font-size:11; stroke-linecap:butt; text-rendering:geometricPrecision; font-family:sans-serif; stroke-linejoin:round;">
      <line x1="63" x2="63" y1="63" style="clip-path:url(#clipPath16); fill:none;" y2="101" />
    </g>
    <g transform="translate(259,189)" style="font-size:11; stroke-linecap:butt; text-rendering:geometricPrecision; font-family:sans-serif; stroke-linejoin:round;">
      <line x1="63" x2="63" y1="63" style="clip-path:url(#clipPath16); fill:none;" y2="101" />
    </g>
    <g transform="translate(339,139)" style="font-size:11; stroke-linecap:butt; text-rendering:geometricPrecision; font-family:sans-serif; stroke-linejoin:round;">
      <line x1="63" x2="213" y1="63" style="clip-path:url(#clipPath17); fill:none;" y2="63" />
      <line x1="213" x2="213" y1="63" style="clip-path:url(#clipPath17); fill:none;" y2="151" />
    </g>
    <g transform="translate(19,139)" style="font-size:11; stroke-linecap:butt; text-rendering:geometricPrecision; font-family:sans-serif; stroke-linejoin:round;">
      <line x1="221" x2="63" y1="63" style="clip-path:url(#clipPath18); fill:none;" y2="63" />
      <line x1="63" x2="63" y1="63" style="clip-path:url(#clipPath18); fill:none;" y2="141" />
    </g>
    <g transform="translate(309,329)" style="font-size:11; stroke-linecap:butt; text-rendering:geometricPrecision; font-family:sans-serif; stroke-linejoin:round;">
      <line x1="63" x2="63" y1="63" style="clip-path:url(#clipPath16); fill:none;" y2="101" />
    </g>
    <g transform="translate(439,329)" style="font-size:11; stroke-linecap:butt; text-rendering:geometricPrecision; font-family:sans-serif; stroke-linejoin:round;">
      <line x1="63" x2="63" y1="63" style="clip-path:url(#clipPath16); fill:none;" y2="101" />
    </g>
    <g transform="translate(339,-1)" style="font-size:11; stroke-linecap:butt; text-rendering:geometricPrecision; font-family:sans-serif; stroke-linejoin:round;">
      <line x1="63" x2="331" y1="63" style="clip-path:url(#clipPath19); fill:none;" y2="63" />
    </g>
    <g transform="translate(329,89)" style="font-size:11; stroke-linecap:butt; text-rendering:geometricPrecision; font-family:sans-serif; stroke-linejoin:round;">
      <line x1="63" x2="63" y1="81" style="clip-path:url(#clipPath20); fill:none;" y2="63" />
      <line x1="63" x2="341" y1="63" style="clip-path:url(#clipPath20); fill:none;" y2="63" />
    </g>
    <g transform="translate(19,129)" style="font-size:11; stroke-linecap:butt; text-rendering:geometricPrecision; font-family:sans-serif; stroke-linejoin:round;">
      <line x1="63" x2="63" y1="323" style="clip-path:url(#clipPath21); fill:none;" y2="573" />
      <line x1="63" x2="803" y1="573" style="clip-path:url(#clipPath21); fill:none;" y2="573" />
      <line x1="803" x2="803" y1="573" style="clip-path:url(#clipPath21); fill:none;" y2="63" />
    </g>
    <g transform="translate(209,129)" style="font-size:11; stroke-linecap:butt; text-rendering:geometricPrecision; font-family:sans-serif; stroke-linejoin:round;">
      <line x1="63" x2="63" y1="263" style="clip-path:url(#clipPath22); fill:none;" y2="533" />
      <line x1="63" x2="573" y1="533" style="clip-path:url(#clipPath22); fill:none;" y2="533" />
      <line x1="573" x2="573" y1="533" style="clip-path:url(#clipPath22); fill:none;" y2="63" />
    </g>
    <g transform="translate(369,129)" style="font-size:11; stroke-linecap:butt; text-rendering:geometricPrecision; font-family:sans-serif; stroke-linejoin:round;">
      <line x1="63" x2="63" y1="463" style="clip-path:url(#clipPath23); fill:none;" y2="493" />
      <line x1="63" x2="373" y1="493" style="clip-path:url(#clipPath23); fill:none;" y2="493" />
      <line x1="373" x2="373" y1="493" style="clip-path:url(#clipPath23); fill:none;" y2="63" />
    </g>
    <g transform="translate(579,129)" style="font-size:11; stroke-linecap:butt; text-rendering:geometricPrecision; font-family:sans-serif; stroke-linejoin:round;">
      <line x1="63" x2="123" y1="213" style="clip-path:url(#clipPath24); fill:none;" y2="213" />
      <line x1="123" x2="123" y1="213" style="clip-path:url(#clipPath24); fill:none;" y2="63" />
    </g>
    <g style="text-rendering:geometricPrecision; font-size:11; font-family:sans-serif;" transform="translate(562,262)">
      <text x="11" y="15" style="clip-path:url(#clipPath25); stroke:none;" xml:space="preserve">1..*</text>
    </g>
    <g style="text-rendering:geometricPrecision; font-size:11; font-family:sans-serif;" transform="translate(402,182)">
      <text x="17" y="15" style="clip-path:url(#clipPath25); stroke:none;" xml:space="preserve">1</text>
    </g>
    <g style="text-rendering:geometricPrecision; font-size:11; font-family:sans-serif;" transform="translate(692,192)">
      <text x="17" y="15" style="clip-path:url(#clipPath25); stroke:none;" xml:space="preserve">1</text>
    </g>
    <g style="text-rendering:geometricPrecision; font-size:11; font-family:sans-serif;" transform="translate(632,322)">
      <text x="17" y="15" style="clip-path:url(#clipPath25); stroke:none;" xml:space="preserve">1</text>
    </g>
    <g style="text-rendering:geometricPrecision; font-size:11; font-family:sans-serif;" transform="translate(372,412)">
      <text x="17" y="15" style="clip-path:url(#clipPath25); stroke:none;" xml:space="preserve">1</text>
    </g>
    <g style="text-rendering:geometricPrecision; font-size:11; font-family:sans-serif;" transform="translate(372,392)">
      <text x="17" y="15" style="clip-path:url(#clipPath25); stroke:none;" xml:space="preserve">1</text>
    </g>
    <g style="text-rendering:geometricPrecision; font-size:11; font-family:sans-serif;" transform="translate(502,412)">
      <text x="17" y="15" style="clip-path:url(#clipPath25); stroke:none;" xml:space="preserve">1</text>
    </g>
    <g style="text-rendering:geometricPrecision; font-size:11; font-family:sans-serif;" transform="translate(502,392)">
      <text x="17" y="15" style="clip-path:url(#clipPath25); stroke:none;" xml:space="preserve">1</text>
    </g>
    <g style="text-rendering:geometricPrecision; font-size:11; font-family:sans-serif;" transform="translate(642,42)">
      <text x="17" y="15" style="clip-path:url(#clipPath25); stroke:none;" xml:space="preserve">1</text>
    </g>
    <g style="text-rendering:geometricPrecision; font-size:11; font-family:sans-serif;" transform="translate(392,42)">
      <text x="17" y="15" style="clip-path:url(#clipPath25); stroke:none;" xml:space="preserve">1</text>
    </g>
    <g style="text-rendering:geometricPrecision; font-size:11; font-family:sans-serif;" transform="translate(322,152)">
      <text x="17" y="15" style="clip-path:url(#clipPath25); stroke:none;" xml:space="preserve">1</text>
    </g>
    <g style="text-rendering:geometricPrecision; font-size:11; font-family:sans-serif;" transform="translate(322,132)">
      <text x="11" y="15" style="clip-path:url(#clipPath25); stroke:none;" xml:space="preserve">1..*</text>
    </g>
    <g style="text-rendering:geometricPrecision; font-size:11; font-family:sans-serif;" transform="translate(732,192)">
      <text x="17" y="15" style="clip-path:url(#clipPath25); stroke:none;" xml:space="preserve">1</text>
    </g>
    <g style="text-rendering:geometricPrecision; font-size:11; font-family:sans-serif;" transform="translate(422,592)">
      <text x="17" y="15" style="clip-path:url(#clipPath25); stroke:none;" xml:space="preserve">1</text>
    </g>
    <g style="text-rendering:geometricPrecision; font-size:11; font-family:sans-serif;" transform="translate(642,132)">
      <text x="17" y="15" style="clip-path:url(#clipPath25); stroke:none;" xml:space="preserve">1</text>
    </g>
    <g style="text-rendering:geometricPrecision; font-size:11; font-family:sans-serif;" transform="translate(362,152)">
      <text x="17" y="15" style="clip-path:url(#clipPath25); stroke:none;" xml:space="preserve">1</text>
    </g>
    <g style="text-rendering:geometricPrecision; font-size:11; font-family:sans-serif;" transform="translate(52,262)">
      <text x="11" y="15" style="clip-path:url(#clipPath25); stroke:none;" xml:space="preserve">1..*</text>
    </g>
    <g style="text-rendering:geometricPrecision; font-size:11; font-family:sans-serif;" transform="translate(202,182)">
      <text x="17" y="15" style="clip-path:url(#clipPath25); stroke:none;" xml:space="preserve">1</text>
    </g>
    <g style="text-rendering:geometricPrecision; font-size:11; font-family:sans-serif;" transform="translate(812,192)">
      <text x="17" y="15" style="clip-path:url(#clipPath25); stroke:none;" xml:space="preserve">1</text>
    </g>
    <g style="text-rendering:geometricPrecision; font-size:11; font-family:sans-serif;" transform="translate(52,452)">
      <text x="17" y="15" style="clip-path:url(#clipPath25); stroke:none;" xml:space="preserve">1</text>
    </g>
    <g style="text-rendering:geometricPrecision; font-size:11; font-family:sans-serif;" transform="translate(772,192)">
      <text x="17" y="15" style="clip-path:url(#clipPath25); stroke:none;" xml:space="preserve">1</text>
    </g>
    <g style="text-rendering:geometricPrecision; font-size:11; font-family:sans-serif;" transform="translate(262,392)">
      <text x="17" y="15" style="clip-path:url(#clipPath25); stroke:none;" xml:space="preserve">1</text>
    </g>
    <g style="text-rendering:geometricPrecision; font-size:11; font-family:sans-serif;" transform="translate(322,272)">
      <text x="11" y="15" style="clip-path:url(#clipPath25); stroke:none;" xml:space="preserve">1..*</text>
    </g>
    <g style="text-rendering:geometricPrecision; font-size:11; font-family:sans-serif;" transform="translate(322,252)">
      <text x="17" y="15" style="clip-path:url(#clipPath25); stroke:none;" xml:space="preserve">1</text>
    </g>
    <g style="fill:rgb(120,120,120); text-rendering:geometricPrecision; font-size:10; stroke:rgb(120,120,120);">
    </g>
  </g>
</svg>
