<?xml version="1.0" encoding="UTF-8"?>

<!DOCTYPE svg PUBLIC '-//W3C//DTD SVG 1.0//EN' 'http://www.w3.org/TR/2001/REC-SVG-20010904/DTD/svg10.dtd'>
<svg style="fill-opacity:1; color-rendering:auto; color-interpolation:auto; stroke:black; text-rendering:auto; stroke-linecap:square; stroke-miterlimit:10; stroke-opacity:1; shape-rendering:auto; fill:black; stroke-dasharray:none; font-weight:normal; stroke-width:1; font-family:&apos;Dialog&apos;; font-style:normal; stroke-linejoin:miter; font-size:12; stroke-dashoffset:0; image-rendering:auto;" xmlns="http://www.w3.org/2000/svg" width="576" xmlns:xlink="http://www.w3.org/1999/xlink" height="446">
  <!--Generated by the Batik Graphics2D SVG Generator-->
  <defs id="genericDefs" />
  <g>
    <defs id="defs1">
      <clipPath clipPathUnits="userSpaceOnUse" id="clipPath1">
        <path d="M-3 -3 L177 -3 L177 157 L-3 157 L-3 -3 Z" />
      </clipPath>
      <clipPath clipPathUnits="userSpaceOnUse" id="clipPath2">
        <path d="M0 0 L0 140 L170 140 L170 0 Z" />
      </clipPath>
      <clipPath clipPathUnits="userSpaceOnUse" id="clipPath3">
        <path d="M0 0 L170 0 L170 17 L0 17 L0 0 Z" />
      </clipPath>
      <clipPath clipPathUnits="userSpaceOnUse" id="clipPath4">
        <path d="M-3 -3 L147 -3 L147 87 L-3 87 L-3 -3 Z" />
      </clipPath>
      <clipPath clipPathUnits="userSpaceOnUse" id="clipPath5">
        <path d="M0 0 L0 70 L140 70 L140 0 Z" />
      </clipPath>
      <clipPath clipPathUnits="userSpaceOnUse" id="clipPath6">
        <path d="M0 0 L140 0 L140 17 L0 17 L0 0 Z" />
      </clipPath>
      <clipPath clipPathUnits="userSpaceOnUse" id="clipPath7">
        <path d="M-3 -3 L187 -3 L187 67 L-3 67 L-3 -3 Z" />
      </clipPath>
      <clipPath clipPathUnits="userSpaceOnUse" id="clipPath8">
        <path d="M0 0 L0 50 L180 50 L180 0 Z" />
      </clipPath>
      <clipPath clipPathUnits="userSpaceOnUse" id="clipPath9">
        <path d="M0 0 L180 0 L180 17 L0 17 L0 0 Z" />
      </clipPath>
      <clipPath clipPathUnits="userSpaceOnUse" id="clipPath10">
        <path d="M-3 -3 L187 -3 L187 87 L-3 87 L-3 -3 Z" />
      </clipPath>
      <clipPath clipPathUnits="userSpaceOnUse" id="clipPath11">
        <path d="M0 0 L0 70 L180 70 L180 0 Z" />
      </clipPath>
      <clipPath clipPathUnits="userSpaceOnUse" id="clipPath12">
        <path d="M-3 -3 L187 -3 L187 117 L-3 117 L-3 -3 Z" />
      </clipPath>
      <clipPath clipPathUnits="userSpaceOnUse" id="clipPath13">
        <path d="M0 0 L0 100 L180 100 L180 0 Z" />
      </clipPath>
      <clipPath clipPathUnits="userSpaceOnUse" id="clipPath14">
        <path d="M-3 -3 L147 -3 L147 167 L-3 167 L-3 -3 Z" />
      </clipPath>
      <clipPath clipPathUnits="userSpaceOnUse" id="clipPath15">
        <path d="M0 0 L0 150 L140 150 L140 0 Z" />
      </clipPath>
      <clipPath clipPathUnits="userSpaceOnUse" id="clipPath16">
        <path d="M-3 -3 L177 -3 L177 97 L-3 97 L-3 -3 Z" />
      </clipPath>
      <clipPath clipPathUnits="userSpaceOnUse" id="clipPath17">
        <path d="M0 0 L0 80 L170 80 L170 0 Z" />
      </clipPath>
      <clipPath clipPathUnits="userSpaceOnUse" id="clipPath18">
        <path d="M-3 -3 L47 -3 L47 27 L-3 27 L-3 -3 Z" />
      </clipPath>
      <clipPath clipPathUnits="userSpaceOnUse" id="clipPath19">
        <path d="M0 0 L223 0 L223 143 L0 143 L0 0 Z" />
      </clipPath>
      <clipPath clipPathUnits="userSpaceOnUse" id="clipPath20">
        <path d="M0 0 L234 0 L234 143 L0 143 L0 0 Z" />
      </clipPath>
      <clipPath clipPathUnits="userSpaceOnUse" id="clipPath21">
        <path d="M0 0 L104 0 L104 143 L0 143 L0 0 Z" />
      </clipPath>
      <clipPath clipPathUnits="userSpaceOnUse" id="clipPath22">
        <path d="M0 0 L104 0 L104 153 L0 153 L0 0 Z" />
      </clipPath>
      <clipPath clipPathUnits="userSpaceOnUse" id="clipPath23">
        <path d="M0 0 L143 0 L143 164 L0 164 L0 0 Z" />
      </clipPath>
      <clipPath clipPathUnits="userSpaceOnUse" id="clipPath24">
        <path d="M0 0 L143 0 L143 104 L0 104 L0 0 Z" />
      </clipPath>
      <clipPath clipPathUnits="userSpaceOnUse" id="clipPath25">
        <path d="M0 0 L143 0 L143 214 L0 214 L0 0 Z" />
      </clipPath>
      <clipPath clipPathUnits="userSpaceOnUse" id="clipPath26">
        <path d="M0 0 L143 0 L143 184 L0 184 L0 0 Z" />
      </clipPath>
      <clipPath clipPathUnits="userSpaceOnUse" id="clipPath27">
        <path d="M0 0 L40 0 L40 20 L0 20 L0 0 Z" />
      </clipPath>
    </defs>
    <g style="fill:white; text-rendering:geometricPrecision; stroke:white;">
      <rect x="0" y="0" width="576" style="stroke:none;" height="446" />
    </g>
    <g transform="translate(182,2)" style="font-size:14; fill:rgb(122,207,245); text-rendering:geometricPrecision; font-family:&apos;Times New Roman&apos;; stroke:rgb(122,207,245); font-weight:bold;">
      <rect x="0" y="0" width="170" style="clip-path:url(#clipPath1); stroke:none;" height="150" />
    </g>
    <g transform="translate(182,2)" style="font-size:14; stroke-linecap:butt; text-rendering:geometricPrecision; font-family:&apos;Times New Roman&apos;; stroke-linejoin:round; font-weight:bold; stroke-miterlimit:0;">
      <rect x="0" y="0" width="170" style="clip-path:url(#clipPath1); fill:none;" height="150" />
      <line x1="0" x2="170" y1="17" style="clip-path:url(#clipPath1); fill:none;" y2="17" />
    </g>
    <g style="text-rendering:geometricPrecision; font-size:14; font-family:&apos;Times New Roman&apos;;" transform="translate(182,19)">
      <text x="2" y="15" style="clip-path:url(#clipPath2); stroke:none;" xml:space="preserve">-memID : string</text>
      <text x="2" y="31" style="clip-path:url(#clipPath2); stroke:none;" xml:space="preserve">-memName : string</text>
      <text x="2" y="47" style="clip-path:url(#clipPath2); stroke:none;" xml:space="preserve">-memBir : data</text>
      <text x="2" y="63" style="clip-path:url(#clipPath2); stroke:none;" xml:space="preserve">-memMail : string</text>
      <text x="2" y="79" style="clip-path:url(#clipPath2); stroke:none;" xml:space="preserve">-memGender : char</text>
      <text x="2" y="95" style="clip-path:url(#clipPath2); stroke:none;" xml:space="preserve">-memAddr : string</text>
      <text x="2" y="111" style="clip-path:url(#clipPath2); stroke:none;" xml:space="preserve">-type : char</text>
    </g>
    <g transform="translate(182,2)" style="text-rendering:geometricPrecision; font-size:14; font-weight:bold; font-family:&apos;Times New Roman&apos;;">
      <text x="60" y="14" style="clip-path:url(#clipPath3); stroke:none;" xml:space="preserve">member</text>
    </g>
    <g transform="translate(2,112)" style="font-size:14; fill:rgb(122,207,245); text-rendering:geometricPrecision; font-family:&apos;Times New Roman&apos;; stroke:rgb(122,207,245); font-weight:bold;">
      <rect x="0" y="0" width="140" style="clip-path:url(#clipPath4); stroke:none;" height="80" />
    </g>
    <g transform="translate(2,112)" style="font-size:14; stroke-linecap:butt; text-rendering:geometricPrecision; font-family:&apos;Times New Roman&apos;; stroke-linejoin:round; font-weight:bold; stroke-miterlimit:0;">
      <rect x="0" y="0" width="140" style="clip-path:url(#clipPath4); fill:none;" height="80" />
      <line x1="0" x2="140" y1="17" style="clip-path:url(#clipPath4); fill:none;" y2="17" />
    </g>
    <g style="text-rendering:geometricPrecision; font-size:14; font-family:&apos;Times New Roman&apos;;" transform="translate(2,129)">
      <text x="2" y="15" style="clip-path:url(#clipPath5); stroke:none;" xml:space="preserve">-memID : string</text>
      <text x="2" y="31" style="clip-path:url(#clipPath5); stroke:none;" xml:space="preserve">-memAcct : string</text>
      <text x="2" y="47" style="clip-path:url(#clipPath5); stroke:none;" xml:space="preserve">-memPsd : string</text>
    </g>
    <g transform="translate(2,112)" style="text-rendering:geometricPrecision; font-size:14; font-weight:bold; font-family:&apos;Times New Roman&apos;;">
      <text x="46" y="14" style="clip-path:url(#clipPath6); stroke:none;" xml:space="preserve">account</text>
    </g>
    <g transform="translate(392,112)" style="font-size:14; fill:rgb(122,207,245); text-rendering:geometricPrecision; font-family:&apos;Times New Roman&apos;; stroke:rgb(122,207,245); font-weight:bold;">
      <rect x="0" y="0" width="180" style="clip-path:url(#clipPath7); stroke:none;" height="60" />
    </g>
    <g transform="translate(392,112)" style="font-size:14; stroke-linecap:butt; text-rendering:geometricPrecision; font-family:&apos;Times New Roman&apos;; stroke-linejoin:round; font-weight:bold; stroke-miterlimit:0;">
      <rect x="0" y="0" width="180" style="clip-path:url(#clipPath7); fill:none;" height="60" />
      <line x1="0" x2="180" y1="17" style="clip-path:url(#clipPath7); fill:none;" y2="17" />
    </g>
    <g style="text-rendering:geometricPrecision; font-size:14; font-family:&apos;Times New Roman&apos;;" transform="translate(392,129)">
      <text x="2" y="15" style="clip-path:url(#clipPath8); stroke:none;" xml:space="preserve">-type : char</text>
      <text x="2" y="31" style="clip-path:url(#clipPath8); stroke:none;" xml:space="preserve">-typeName : string</text>
    </g>
    <g transform="translate(392,112)" style="text-rendering:geometricPrecision; font-size:14; font-weight:bold; font-family:&apos;Times New Roman&apos;;">
      <text x="62" y="14" style="clip-path:url(#clipPath9); stroke:none;" xml:space="preserve">authority</text>
    </g>
    <g transform="translate(392,212)" style="font-size:14; fill:rgb(122,207,245); text-rendering:geometricPrecision; font-family:&apos;Times New Roman&apos;; stroke:rgb(122,207,245); font-weight:bold;">
      <rect x="0" y="0" width="180" style="clip-path:url(#clipPath10); stroke:none;" height="80" />
    </g>
    <g transform="translate(392,212)" style="font-size:14; stroke-linecap:butt; text-rendering:geometricPrecision; font-family:&apos;Times New Roman&apos;; stroke-linejoin:round; font-weight:bold; stroke-miterlimit:0;">
      <rect x="0" y="0" width="180" style="clip-path:url(#clipPath10); fill:none;" height="80" />
      <line x1="0" x2="180" y1="17" style="clip-path:url(#clipPath10); fill:none;" y2="17" />
    </g>
    <g style="text-rendering:geometricPrecision; font-size:14; font-family:&apos;Times New Roman&apos;;" transform="translate(392,229)">
      <text x="2" y="15" style="clip-path:url(#clipPath11); stroke:none;" xml:space="preserve">-managerID : string</text>
      <text x="2" y="31" style="clip-path:url(#clipPath11); stroke:none;" xml:space="preserve">-managerName : string</text>
      <text x="2" y="47" style="clip-path:url(#clipPath11); stroke:none;" xml:space="preserve">-type : char</text>
    </g>
    <g transform="translate(392,212)" style="text-rendering:geometricPrecision; font-size:14; font-weight:bold; font-family:&apos;Times New Roman&apos;;">
      <text x="63" y="14" style="clip-path:url(#clipPath9); stroke:none;" xml:space="preserve">manager</text>
    </g>
    <g transform="translate(392,332)" style="font-size:14; fill:rgb(122,207,245); text-rendering:geometricPrecision; font-family:&apos;Times New Roman&apos;; stroke:rgb(122,207,245); font-weight:bold;">
      <rect x="0" y="0" width="180" style="clip-path:url(#clipPath12); stroke:none;" height="110" />
    </g>
    <g transform="translate(392,332)" style="font-size:14; stroke-linecap:butt; text-rendering:geometricPrecision; font-family:&apos;Times New Roman&apos;; stroke-linejoin:round; font-weight:bold; stroke-miterlimit:0;">
      <rect x="0" y="0" width="180" style="clip-path:url(#clipPath12); fill:none;" height="110" />
      <line x1="0" x2="180" y1="17" style="clip-path:url(#clipPath12); fill:none;" y2="17" />
    </g>
    <g style="text-rendering:geometricPrecision; font-size:14; font-family:&apos;Times New Roman&apos;;" transform="translate(392,349)">
      <text x="2" y="15" style="clip-path:url(#clipPath13); stroke:none;" xml:space="preserve">-adoptAgencyID : string</text>
      <text x="2" y="31" style="clip-path:url(#clipPath13); stroke:none;" xml:space="preserve">-adoptAgencyName : string</text>
      <text x="2" y="47" style="clip-path:url(#clipPath13); stroke:none;" xml:space="preserve">-adoptAgencyAddr : string</text>
      <text x="2" y="63" style="clip-path:url(#clipPath13); stroke:none;" xml:space="preserve">-adoptAgencyInfo : string</text>
      <text x="2" y="79" style="clip-path:url(#clipPath13); stroke:none;" xml:space="preserve">-adoptAgencyPhoto : string</text>
    </g>
    <g transform="translate(392,332)" style="text-rendering:geometricPrecision; font-size:14; font-weight:bold; font-family:&apos;Times New Roman&apos;;">
      <text x="78" y="14" style="clip-path:url(#clipPath9); stroke:none;" xml:space="preserve">edit</text>
    </g>
    <g transform="translate(2,232)" style="font-size:14; fill:rgb(122,207,245); text-rendering:geometricPrecision; font-family:&apos;Times New Roman&apos;; stroke:rgb(122,207,245); font-weight:bold;">
      <rect x="0" y="0" width="140" style="clip-path:url(#clipPath14); stroke:none;" height="160" />
    </g>
    <g transform="translate(2,232)" style="font-size:14; stroke-linecap:butt; text-rendering:geometricPrecision; font-family:&apos;Times New Roman&apos;; stroke-linejoin:round; font-weight:bold; stroke-miterlimit:0;">
      <rect x="0" y="0" width="140" style="clip-path:url(#clipPath14); fill:none;" height="160" />
      <line x1="0" x2="140" y1="17" style="clip-path:url(#clipPath14); fill:none;" y2="17" />
    </g>
    <g style="text-rendering:geometricPrecision; font-size:14; font-family:&apos;Times New Roman&apos;;" transform="translate(2,249)">
      <text x="2" y="15" style="clip-path:url(#clipPath15); stroke:none;" xml:space="preserve">-memID : string</text>
      <text x="2" y="31" style="clip-path:url(#clipPath15); stroke:none;" xml:space="preserve">-petID : string</text>
      <text x="2" y="47" style="clip-path:url(#clipPath15); stroke:none;" xml:space="preserve">-petName : string</text>
      <text x="2" y="63" style="clip-path:url(#clipPath15); stroke:none;" xml:space="preserve">-petGender : char</text>
      <text x="2" y="79" style="clip-path:url(#clipPath15); stroke:none;" xml:space="preserve">-petBir : data</text>
      <text x="2" y="95" style="clip-path:url(#clipPath15); stroke:none;" xml:space="preserve">-petKind : char</text>
      <text x="2" y="111" style="clip-path:url(#clipPath15); stroke:none;" xml:space="preserve">-petInterest : string</text>
      <text x="2" y="127" style="clip-path:url(#clipPath15); stroke:none;" xml:space="preserve">-note : string</text>
    </g>
    <g transform="translate(2,232)" style="text-rendering:geometricPrecision; font-size:14; font-weight:bold; font-family:&apos;Times New Roman&apos;;">
      <text x="60" y="14" style="clip-path:url(#clipPath6); stroke:none;" xml:space="preserve">pet</text>
    </g>
    <g transform="translate(182,202)" style="font-size:14; fill:rgb(122,207,245); text-rendering:geometricPrecision; font-family:&apos;Times New Roman&apos;; stroke:rgb(122,207,245); font-weight:bold;">
      <rect x="0" y="0" width="170" style="clip-path:url(#clipPath16); stroke:none;" height="90" />
    </g>
    <g transform="translate(182,202)" style="font-size:14; stroke-linecap:butt; text-rendering:geometricPrecision; font-family:&apos;Times New Roman&apos;; stroke-linejoin:round; font-weight:bold; stroke-miterlimit:0;">
      <rect x="0" y="0" width="170" style="clip-path:url(#clipPath16); fill:none;" height="90" />
      <line x1="0" x2="170" y1="17" style="clip-path:url(#clipPath16); fill:none;" y2="17" />
    </g>
    <g style="text-rendering:geometricPrecision; font-size:14; font-family:&apos;Times New Roman&apos;;" transform="translate(182,219)">
      <text x="2" y="15" style="clip-path:url(#clipPath17); stroke:none;" xml:space="preserve">-memName : string</text>
      <text x="2" y="31" style="clip-path:url(#clipPath17); stroke:none;" xml:space="preserve">-managerName : string</text>
      <text x="2" y="47" style="clip-path:url(#clipPath17); stroke:none;" xml:space="preserve">-adoptAgencyName : string</text>
      <text x="2" y="63" style="clip-path:url(#clipPath17); stroke:none;" xml:space="preserve">-petName : string</text>
    </g>
    <g transform="translate(182,202)" style="text-rendering:geometricPrecision; font-size:14; font-weight:bold; font-family:&apos;Times New Roman&apos;;">
      <text x="58" y="14" style="clip-path:url(#clipPath3); stroke:none;" xml:space="preserve">database</text>
    </g>
    <g transform="translate(12,22)" style="font-size:11; stroke-linecap:butt; text-rendering:geometricPrecision; font-family:sans-serif; stroke-linejoin:round;">
      <line x1="169" x2="50" y1="50" style="clip-path:url(#clipPath19); fill:none;" y2="50" />
      <line x1="50" x2="50" y1="50" style="clip-path:url(#clipPath19); fill:none;" y2="89" />
    </g>
    <g transform="translate(302,22)" style="font-size:11; stroke-linecap:butt; text-rendering:geometricPrecision; font-family:sans-serif; stroke-linejoin:round;">
      <line x1="50" x2="180" y1="50" style="clip-path:url(#clipPath20); fill:none;" y2="50" />
      <line x1="180" x2="180" y1="50" style="clip-path:url(#clipPath20); fill:none;" y2="89" />
    </g>
    <g transform="translate(432,122)" style="font-size:11; stroke-linecap:butt; text-rendering:geometricPrecision; font-family:sans-serif; stroke-linejoin:round;">
      <line x1="50" x2="50" y1="50" style="clip-path:url(#clipPath21); fill:none;" y2="89" />
    </g>
    <g transform="translate(432,242)" style="font-size:11; stroke-linecap:butt; text-rendering:geometricPrecision; font-family:sans-serif; stroke-linejoin:round;">
      <line x1="50" x2="50" y1="50" style="clip-path:url(#clipPath21); fill:none;" y2="89" />
    </g>
    <g transform="translate(12,142)" style="font-size:11; stroke-linecap:butt; text-rendering:geometricPrecision; font-family:sans-serif; stroke-linejoin:round;">
      <line x1="50" x2="50" y1="50" style="clip-path:url(#clipPath21); fill:none;" y2="89" />
    </g>
    <g transform="translate(212,102)" style="font-size:11; stroke-linecap:butt; text-rendering:geometricPrecision; font-family:sans-serif; stroke-linejoin:round;">
      <line x1="50" x2="50" y1="50" style="clip-path:url(#clipPath22); fill:none;" y2="99" />
    </g>
    <g transform="translate(302,102)" style="font-size:11; stroke-linecap:butt; text-rendering:geometricPrecision; font-family:sans-serif; stroke-linejoin:round;">
      <line x1="89" x2="70" y1="50" style="clip-path:url(#clipPath23); fill:none;" y2="50" />
      <line x1="70" x2="70" y1="50" style="clip-path:url(#clipPath23); fill:none;" y2="110" />
      <line x1="70" x2="50" y1="110" style="clip-path:url(#clipPath23); fill:none;" y2="110" />
    </g>
    <g transform="translate(302,202)" style="font-size:11; stroke-linecap:butt; text-rendering:geometricPrecision; font-family:sans-serif; stroke-linejoin:round;">
      <line x1="50" x2="89" y1="50" style="clip-path:url(#clipPath24); fill:none;" y2="50" />
    </g>
    <g transform="translate(302,232)" style="font-size:11; stroke-linecap:butt; text-rendering:geometricPrecision; font-family:sans-serif; stroke-linejoin:round;">
      <line x1="50" x2="70" y1="50" style="clip-path:url(#clipPath25); fill:none;" y2="50" />
      <line x1="70" x2="70" y1="50" style="clip-path:url(#clipPath25); fill:none;" y2="160" />
      <line x1="70" x2="89" y1="160" style="clip-path:url(#clipPath25); fill:none;" y2="160" />
    </g>
    <g transform="translate(92,222)" style="font-size:11; stroke-linecap:butt; text-rendering:geometricPrecision; font-family:sans-serif; stroke-linejoin:round;">
      <line x1="89" x2="50" y1="50" style="clip-path:url(#clipPath24); fill:none;" y2="50" />
    </g>
    <g transform="translate(92,102)" style="font-size:11; stroke-linecap:butt; text-rendering:geometricPrecision; font-family:sans-serif; stroke-linejoin:round;">
      <line x1="89" x2="70" y1="130" style="clip-path:url(#clipPath26); fill:none;" y2="130" />
      <line x1="70" x2="70" y1="130" style="clip-path:url(#clipPath26); fill:none;" y2="50" />
      <line x1="70" x2="50" y1="50" style="clip-path:url(#clipPath26); fill:none;" y2="50" />
    </g>
    <g style="text-rendering:geometricPrecision; font-size:11; font-family:sans-serif;" transform="translate(222,182)">
      <text x="17" y="15" style="clip-path:url(#clipPath27); stroke:none;" xml:space="preserve">1</text>
    </g>
    <g style="text-rendering:geometricPrecision; font-size:11; font-family:sans-serif;" transform="translate(222,152)">
      <text x="17" y="15" style="clip-path:url(#clipPath27); stroke:none;" xml:space="preserve">1</text>
    </g>
    <g style="text-rendering:geometricPrecision; font-size:11; font-family:sans-serif;" transform="translate(362,232)">
      <text x="17" y="15" style="clip-path:url(#clipPath27); stroke:none;" xml:space="preserve">1</text>
    </g>
    <g style="text-rendering:geometricPrecision; font-size:11; font-family:sans-serif;" transform="translate(342,232)">
      <text x="17" y="15" style="clip-path:url(#clipPath27); stroke:none;" xml:space="preserve">1</text>
    </g>
    <g style="text-rendering:geometricPrecision; font-size:11; font-family:sans-serif;" transform="translate(362,372)">
      <text x="17" y="15" style="clip-path:url(#clipPath27); stroke:none;" xml:space="preserve">1</text>
    </g>
    <g style="text-rendering:geometricPrecision; font-size:11; font-family:sans-serif;" transform="translate(342,262)">
      <text x="17" y="15" style="clip-path:url(#clipPath27); stroke:none;" xml:space="preserve">1</text>
    </g>
    <g style="text-rendering:geometricPrecision; font-size:11; font-family:sans-serif;" transform="translate(132,132)">
      <text x="17" y="15" style="clip-path:url(#clipPath27); stroke:none;" xml:space="preserve">1</text>
    </g>
    <g style="text-rendering:geometricPrecision; font-size:11; font-family:sans-serif;" transform="translate(152,212)">
      <text x="17" y="15" style="clip-path:url(#clipPath27); stroke:none;" xml:space="preserve">1</text>
    </g>
    <g style="text-rendering:geometricPrecision; font-size:11; font-family:sans-serif;" transform="translate(442,92)">
      <text x="17" y="15" style="clip-path:url(#clipPath27); stroke:none;" xml:space="preserve">1</text>
    </g>
    <g style="text-rendering:geometricPrecision; font-size:11; font-family:sans-serif;" transform="translate(352,52)">
      <text x="11" y="15" style="clip-path:url(#clipPath27); stroke:none;" xml:space="preserve">1..*</text>
    </g>
    <g style="text-rendering:geometricPrecision; font-size:11; font-family:sans-serif;" transform="translate(62,92)">
      <text x="17" y="15" style="clip-path:url(#clipPath27); stroke:none;" xml:space="preserve">1</text>
    </g>
    <g style="text-rendering:geometricPrecision; font-size:11; font-family:sans-serif;" transform="translate(142,52)">
      <text x="17" y="15" style="clip-path:url(#clipPath27); stroke:none;" xml:space="preserve">1</text>
    </g>
    <g style="text-rendering:geometricPrecision; font-size:11; font-family:sans-serif;" transform="translate(62,212)">
      <text x="11" y="15" style="clip-path:url(#clipPath27); stroke:none;" xml:space="preserve">1..*</text>
    </g>
    <g style="text-rendering:geometricPrecision; font-size:11; font-family:sans-serif;" transform="translate(62,192)">
      <text x="17" y="15" style="clip-path:url(#clipPath27); stroke:none;" xml:space="preserve">1</text>
    </g>
    <g style="text-rendering:geometricPrecision; font-size:11; font-family:sans-serif;" transform="translate(132,252)">
      <text x="17" y="15" style="clip-path:url(#clipPath27); stroke:none;" xml:space="preserve">1</text>
    </g>
    <g style="text-rendering:geometricPrecision; font-size:11; font-family:sans-serif;" transform="translate(152,252)">
      <text x="17" y="15" style="clip-path:url(#clipPath27); stroke:none;" xml:space="preserve">1</text>
    </g>
    <g style="text-rendering:geometricPrecision; font-size:11; font-family:sans-serif;" transform="translate(332,192)">
      <text x="17" y="15" style="clip-path:url(#clipPath27); stroke:none;" xml:space="preserve">1</text>
    </g>
    <g style="text-rendering:geometricPrecision; font-size:11; font-family:sans-serif;" transform="translate(362,132)">
      <text x="17" y="15" style="clip-path:url(#clipPath27); stroke:none;" xml:space="preserve">1</text>
    </g>
    <g style="text-rendering:geometricPrecision; font-size:11; font-family:sans-serif;" transform="translate(482,312)">
      <text x="11" y="15" style="clip-path:url(#clipPath27); stroke:none;" xml:space="preserve">0..*</text>
    </g>
    <g style="text-rendering:geometricPrecision; font-size:11; font-family:sans-serif;" transform="translate(482,292)">
      <text x="17" y="15" style="clip-path:url(#clipPath27); stroke:none;" xml:space="preserve">1</text>
    </g>
    <g style="text-rendering:geometricPrecision; font-size:11; font-family:sans-serif;" transform="translate(482,192)">
      <text x="11" y="15" style="clip-path:url(#clipPath27); stroke:none;" xml:space="preserve">1..*</text>
    </g>
    <g style="text-rendering:geometricPrecision; font-size:11; font-family:sans-serif;" transform="translate(482,172)">
      <text x="17" y="15" style="clip-path:url(#clipPath27); stroke:none;" xml:space="preserve">1</text>
    </g>
    <g style="fill:rgb(120,120,120); text-rendering:geometricPrecision; font-size:10; stroke:rgb(120,120,120);">
    </g>
  </g>
</svg>
