<?xml version="1.0" encoding="UTF-8"?>

<!DOCTYPE svg PUBLIC '-//W3C//DTD SVG 1.0//EN' 'http://www.w3.org/TR/2001/REC-SVG-20010904/DTD/svg10.dtd'>
<svg style="fill-opacity:1; color-rendering:auto; color-interpolation:auto; stroke:black; text-rendering:auto; stroke-linecap:square; stroke-miterlimit:10; stroke-opacity:1; shape-rendering:auto; fill:black; stroke-dasharray:none; font-weight:normal; stroke-width:1; font-family:&apos;Dialog&apos;; font-style:normal; stroke-linejoin:miter; font-size:12; stroke-dashoffset:0; image-rendering:auto;" xmlns="http://www.w3.org/2000/svg" width="596" xmlns:xlink="http://www.w3.org/1999/xlink" height="596">
  <!--Generated by the Batik Graphics2D SVG Generator-->
  <defs id="genericDefs" />
  <g>
    <defs id="defs1">
      <clipPath clipPathUnits="userSpaceOnUse" id="clipPath1">
        <path d="M-3 -3 L47 -3 L47 27 L-3 27 L-3 -3 Z" />
      </clipPath>
      <clipPath clipPathUnits="userSpaceOnUse" id="clipPath2">
        <path d="M-3 -3 L127 -3 L127 47 L-3 47 L-3 -3 Z" />
      </clipPath>
      <clipPath clipPathUnits="userSpaceOnUse" id="clipPath3">
        <path d="M0 0 L120 0 L120 40 L0 40 L0 0 Z" />
      </clipPath>
      <clipPath clipPathUnits="userSpaceOnUse" id="clipPath4">
        <path d="M-3 -3 L27 -3 L27 47 L-3 47 L-3 -3 Z" />
      </clipPath>
      <clipPath clipPathUnits="userSpaceOnUse" id="clipPath5">
        <path d="M-3 -3 L147 -3 L147 47 L-3 47 L-3 -3 Z" />
      </clipPath>
      <clipPath clipPathUnits="userSpaceOnUse" id="clipPath6">
        <path d="M0 0 L140 0 L140 40 L0 40 L0 0 Z" />
      </clipPath>
      <clipPath clipPathUnits="userSpaceOnUse" id="clipPath7">
        <path d="M-3 -3 L27 -3 L27 27 L-3 27 L-3 -3 Z" />
      </clipPath>
      <clipPath clipPathUnits="userSpaceOnUse" id="clipPath8">
        <path d="M-3 -3 L28 -3 L28 47 L-3 47 L-3 -3 Z" />
      </clipPath>
      <clipPath clipPathUnits="userSpaceOnUse" id="clipPath9">
        <path d="M0 0 L128 0 L128 161 L0 161 L0 0 Z" />
      </clipPath>
      <clipPath clipPathUnits="userSpaceOnUse" id="clipPath10">
        <path d="M0 0 L128 0 L128 171 L0 171 L0 0 Z" />
      </clipPath>
      <clipPath clipPathUnits="userSpaceOnUse" id="clipPath11">
        <path d="M0 0 L289 0 L289 156 L0 156 L0 0 Z" />
      </clipPath>
      <clipPath clipPathUnits="userSpaceOnUse" id="clipPath12">
        <path d="M0 0 L288 0 L288 156 L0 156 L0 0 Z" />
      </clipPath>
      <clipPath clipPathUnits="userSpaceOnUse" id="clipPath13">
        <path d="M0 0 L115 0 L115 145 L0 145 L0 0 Z" />
      </clipPath>
      <clipPath clipPathUnits="userSpaceOnUse" id="clipPath14">
        <path d="M0 0 L115 0 L115 156 L0 156 L0 0 Z" />
      </clipPath>
      <clipPath clipPathUnits="userSpaceOnUse" id="clipPath15">
        <path d="M0 0 L189 0 L189 235 L0 235 L0 0 Z" />
      </clipPath>
      <clipPath clipPathUnits="userSpaceOnUse" id="clipPath16">
        <path d="M0 0 L200 0 L200 136 L0 136 L0 0 Z" />
      </clipPath>
      <clipPath clipPathUnits="userSpaceOnUse" id="clipPath17">
        <path d="M0 0 L198 0 L198 136 L0 136 L0 0 Z" />
      </clipPath>
      <clipPath clipPathUnits="userSpaceOnUse" id="clipPath18">
        <path d="M0 0 L115 0 L115 155 L0 155 L0 0 Z" />
      </clipPath>
      <clipPath clipPathUnits="userSpaceOnUse" id="clipPath19">
        <path d="M0 0 L249 0 L249 226 L0 226 L0 0 Z" />
      </clipPath>
      <clipPath clipPathUnits="userSpaceOnUse" id="clipPath20">
        <path d="M0 0 L238 0 L238 154 L0 154 L0 0 Z" />
      </clipPath>
      <clipPath clipPathUnits="userSpaceOnUse" id="clipPath21">
        <path d="M0 0 L90 0 L90 18 L0 18 L0 0 Z" />
      </clipPath>
      <clipPath clipPathUnits="userSpaceOnUse" id="clipPath22">
        <path d="M0 0 L104 0 L104 18 L0 18 L0 0 Z" />
      </clipPath>
      <clipPath clipPathUnits="userSpaceOnUse" id="clipPath23">
        <path d="M0 0 L76 0 L76 18 L0 18 L0 0 Z" />
      </clipPath>
    </defs>
    <g style="fill:white; text-rendering:geometricPrecision; stroke:white;">
      <rect x="0" y="0" width="596" style="stroke:none;" height="596" />
    </g>
    <g style="text-rendering:geometricPrecision; font-size:11; font-family:sans-serif;" transform="translate(222,2)">
      <circle style="clip-path:url(#clipPath1); stroke:none;" r="10" cx="20" cy="10" />
    </g>
    <g transform="translate(182,52)" style="font-size:14; fill:rgb(122,207,245); text-rendering:geometricPrecision; font-family:&apos;標楷體&apos;; stroke:rgb(122,207,245);">
      <rect x="1" y="1" width="118" style="clip-path:url(#clipPath2); stroke:none;" rx="15" ry="15" height="38" />
    </g>
    <g transform="translate(182,52)" style="font-size:14; stroke-linecap:butt; text-rendering:geometricPrecision; font-family:&apos;標楷體&apos;; stroke-linejoin:round; stroke-miterlimit:0;">
      <rect x="1" y="1" width="118" style="clip-path:url(#clipPath2); fill:none;" rx="15" ry="15" height="38" />
    </g>
    <g style="text-rendering:geometricPrecision; font-size:14; font-family:&apos;標楷體&apos;;" transform="translate(182,52)">
      <text x="32" y="27" style="clip-path:url(#clipPath3); stroke:none;" xml:space="preserve">註冊帳號</text>
    </g>
    <g transform="translate(232,122)" style="font-size:11; fill:rgb(122,207,245); text-rendering:geometricPrecision; font-family:sans-serif; stroke:rgb(122,207,245);">
      <polygon style="clip-path:url(#clipPath4); stroke:none;" points=" 10 7 17 20 10 32 3 20" />
    </g>
    <g transform="translate(232,122)" style="font-size:11; stroke-linecap:butt; text-rendering:geometricPrecision; font-family:sans-serif; stroke-linejoin:round; stroke-miterlimit:0;">
      <polygon style="fill:none; clip-path:url(#clipPath4);" points=" 10 7 17 20 10 32 3 20" />
    </g>
    <g transform="translate(2,182)" style="font-size:14; fill:rgb(122,207,245); text-rendering:geometricPrecision; font-family:&apos;標楷體&apos;; stroke:rgb(122,207,245);">
      <rect x="1" y="1" width="118" style="clip-path:url(#clipPath2); stroke:none;" rx="15" ry="15" height="38" />
    </g>
    <g transform="translate(2,182)" style="font-size:14; stroke-linecap:butt; text-rendering:geometricPrecision; font-family:&apos;標楷體&apos;; stroke-linejoin:round; stroke-miterlimit:0;">
      <rect x="1" y="1" width="118" style="clip-path:url(#clipPath2); fill:none;" rx="15" ry="15" height="38" />
    </g>
    <g style="text-rendering:geometricPrecision; font-size:14; font-family:&apos;標楷體&apos;;" transform="translate(2,182)">
      <text x="25" y="27" style="clip-path:url(#clipPath3); stroke:none;" xml:space="preserve">Google註冊</text>
    </g>
    <g transform="translate(362,182)" style="font-size:14; fill:rgb(122,207,245); text-rendering:geometricPrecision; font-family:&apos;標楷體&apos;; stroke:rgb(122,207,245);">
      <rect x="1" y="1" width="118" style="clip-path:url(#clipPath2); stroke:none;" rx="15" ry="15" height="38" />
    </g>
    <g transform="translate(362,182)" style="font-size:14; stroke-linecap:butt; text-rendering:geometricPrecision; font-family:&apos;標楷體&apos;; stroke-linejoin:round; stroke-miterlimit:0;">
      <rect x="1" y="1" width="118" style="clip-path:url(#clipPath2); fill:none;" rx="15" ry="15" height="38" />
    </g>
    <g style="text-rendering:geometricPrecision; font-size:14; font-family:&apos;標楷體&apos;;" transform="translate(362,182)">
      <text x="32" y="27" style="clip-path:url(#clipPath3); stroke:none;" xml:space="preserve">系統註冊</text>
    </g>
    <g transform="translate(182,182)" style="font-size:14; fill:rgb(122,207,245); text-rendering:geometricPrecision; font-family:&apos;標楷體&apos;; stroke:rgb(122,207,245);">
      <rect x="1" y="1" width="118" style="clip-path:url(#clipPath2); stroke:none;" rx="15" ry="15" height="38" />
    </g>
    <g transform="translate(182,182)" style="font-size:14; stroke-linecap:butt; text-rendering:geometricPrecision; font-family:&apos;標楷體&apos;; stroke-linejoin:round; stroke-miterlimit:0;">
      <rect x="1" y="1" width="118" style="clip-path:url(#clipPath2); fill:none;" rx="15" ry="15" height="38" />
    </g>
    <g style="text-rendering:geometricPrecision; font-size:14; font-family:&apos;標楷體&apos;;" transform="translate(182,182)">
      <text x="18" y="27" style="clip-path:url(#clipPath3); stroke:none;" xml:space="preserve">Facebook註冊</text>
    </g>
    <g transform="translate(82,292)" style="font-size:14; fill:rgb(122,207,245); text-rendering:geometricPrecision; font-family:&apos;標楷體&apos;; stroke:rgb(122,207,245);">
      <rect x="1" y="1" width="138" style="clip-path:url(#clipPath5); stroke:none;" rx="15" ry="15" height="38" />
    </g>
    <g transform="translate(82,292)" style="font-size:14; stroke-linecap:butt; text-rendering:geometricPrecision; font-family:&apos;標楷體&apos;; stroke-linejoin:round; stroke-miterlimit:0;">
      <rect x="1" y="1" width="138" style="clip-path:url(#clipPath5); fill:none;" rx="15" ry="15" height="38" />
    </g>
    <g style="text-rendering:geometricPrecision; font-size:14; font-family:&apos;標楷體&apos;;" transform="translate(82,292)">
      <text x="21" y="27" style="clip-path:url(#clipPath6); stroke:none;" xml:space="preserve">選擇欲註冊帳號</text>
    </g>
    <g transform="translate(412,252)" style="font-size:11; fill:rgb(122,207,245); text-rendering:geometricPrecision; font-family:sans-serif; stroke:rgb(122,207,245);">
      <polygon style="clip-path:url(#clipPath4); stroke:none;" points=" 10 7 17 20 10 32 3 20" />
    </g>
    <g transform="translate(412,252)" style="font-size:11; stroke-linecap:butt; text-rendering:geometricPrecision; font-family:sans-serif; stroke-linejoin:round; stroke-miterlimit:0;">
      <polygon style="fill:none; clip-path:url(#clipPath4);" points=" 10 7 17 20 10 32 3 20" />
    </g>
    <g transform="translate(362,312)" style="font-size:14; fill:rgb(122,207,245); text-rendering:geometricPrecision; font-family:&apos;標楷體&apos;; stroke:rgb(122,207,245);">
      <rect x="1" y="1" width="118" style="clip-path:url(#clipPath2); stroke:none;" rx="15" ry="15" height="38" />
    </g>
    <g transform="translate(362,312)" style="font-size:14; stroke-linecap:butt; text-rendering:geometricPrecision; font-family:&apos;標楷體&apos;; stroke-linejoin:round; stroke-miterlimit:0;">
      <rect x="1" y="1" width="118" style="clip-path:url(#clipPath2); fill:none;" rx="15" ry="15" height="38" />
    </g>
    <g style="text-rendering:geometricPrecision; font-size:14; font-family:&apos;標楷體&apos;;" transform="translate(362,312)">
      <text x="18" y="27" style="clip-path:url(#clipPath3); stroke:none;" xml:space="preserve">填寫基本資料</text>
    </g>
    <g transform="translate(412,372)" style="font-size:11; fill:rgb(122,207,245); text-rendering:geometricPrecision; font-family:sans-serif; stroke:rgb(122,207,245);">
      <polygon style="clip-path:url(#clipPath4); stroke:none;" points=" 10 7 17 20 10 32 3 20" />
    </g>
    <g transform="translate(412,372)" style="font-size:11; stroke-linecap:butt; text-rendering:geometricPrecision; font-family:sans-serif; stroke-linejoin:round; stroke-miterlimit:0;">
      <polygon style="fill:none; clip-path:url(#clipPath4);" points=" 10 7 17 20 10 32 3 20" />
    </g>
    <g transform="translate(232,492)" style="font-size:14; fill:rgb(122,207,245); text-rendering:geometricPrecision; font-family:&apos;標楷體&apos;; stroke:rgb(122,207,245);">
      <rect x="1" y="1" width="118" style="clip-path:url(#clipPath2); stroke:none;" rx="15" ry="15" height="38" />
    </g>
    <g transform="translate(232,492)" style="font-size:14; stroke-linecap:butt; text-rendering:geometricPrecision; font-family:&apos;標楷體&apos;; stroke-linejoin:round; stroke-miterlimit:0;">
      <rect x="1" y="1" width="118" style="clip-path:url(#clipPath2); fill:none;" rx="15" ry="15" height="38" />
    </g>
    <g style="text-rendering:geometricPrecision; font-size:14; font-family:&apos;標楷體&apos;;" transform="translate(232,492)">
      <text x="32" y="27" style="clip-path:url(#clipPath3); stroke:none;" xml:space="preserve">系統儲存</text>
    </g>
    <g style="text-rendering:geometricPrecision; font-size:11; font-family:sans-serif;" transform="translate(282,572)">
      <circle style="clip-path:url(#clipPath7); stroke:none;" r="6.6667" cx="10" cy="10" />
      <circle style="stroke-linecap:butt; clip-path:url(#clipPath7); fill:none; stroke-linejoin:round; stroke-miterlimit:0;" r="10" cx="10" cy="10" />
    </g>
    <g transform="translate(142,222)" style="font-size:11; fill:rgb(122,207,245); text-rendering:geometricPrecision; font-family:sans-serif; stroke:rgb(122,207,245);">
      <polygon style="clip-path:url(#clipPath8); stroke:none;" points=" 10 7 18 20 10 32 3 20" />
    </g>
    <g transform="translate(142,222)" style="font-size:11; stroke-linecap:butt; text-rendering:geometricPrecision; font-family:sans-serif; stroke-linejoin:round; stroke-miterlimit:0;">
      <polygon style="fill:none; clip-path:url(#clipPath8);" points=" 10 7 18 20 10 32 3 20" />
    </g>
    <g transform="translate(282,422)" style="font-size:11; fill:rgb(122,207,245); text-rendering:geometricPrecision; font-family:sans-serif; stroke:rgb(122,207,245);">
      <polygon style="clip-path:url(#clipPath8); stroke:none;" points=" 10 7 18 20 10 32 3 20" />
    </g>
    <g transform="translate(282,422)" style="font-size:11; stroke-linecap:butt; text-rendering:geometricPrecision; font-family:sans-serif; stroke-linejoin:round; stroke-miterlimit:0;">
      <polygon style="fill:none; clip-path:url(#clipPath8);" points=" 10 7 18 20 10 32 3 20" />
    </g>
    <g transform="translate(178,-41)" style="font-size:11; stroke-linecap:butt; text-rendering:geometricPrecision; font-family:sans-serif; stroke-linejoin:round;">
      <line x1="64" x2="64" y1="63" style="clip-path:url(#clipPath9); fill:none;" y2="95" />
      <line x1="64" x2="70" y1="95" style="clip-path:url(#clipPath9); fill:none;" y2="83" />
      <line x1="64" x2="58" y1="95" style="clip-path:url(#clipPath9); fill:none;" y2="83" />
    </g>
    <g transform="translate(178,27)" style="font-size:11; stroke-linecap:butt; text-rendering:geometricPrecision; font-family:sans-serif; stroke-linejoin:round;">
      <line x1="64" x2="64" y1="63" style="clip-path:url(#clipPath10); fill:none;" y2="106" />
      <line x1="64" x2="70" y1="106" style="clip-path:url(#clipPath10); fill:none;" y2="94" />
      <line x1="64" x2="58" y1="106" style="clip-path:url(#clipPath10); fill:none;" y2="94" />
    </g>
    <g transform="translate(6,86)" style="font-size:14; stroke-linecap:butt; text-rendering:geometricPrecision; font-family:&apos;標楷體&apos;; stroke-linejoin:round;">
      <line x1="230" x2="56" y1="56" style="clip-path:url(#clipPath11); fill:none;" y2="56" />
      <line x1="56" x2="56" y1="56" style="clip-path:url(#clipPath11); fill:none;" y2="97" />
      <line x1="56" x2="62" y1="97" style="clip-path:url(#clipPath11); fill:none;" y2="85" />
      <line x1="56" x2="50" y1="97" style="clip-path:url(#clipPath11); fill:none;" y2="85" />
    </g>
    <g transform="translate(192,86)" style="font-size:14; stroke-linecap:butt; text-rendering:geometricPrecision; font-family:&apos;標楷體&apos;; stroke-linejoin:round;">
      <line x1="55" x2="228" y1="56" style="clip-path:url(#clipPath12); fill:none;" y2="56" />
      <line x1="228" x2="228" y1="56" style="clip-path:url(#clipPath12); fill:none;" y2="97" />
      <line x1="228" x2="234" y1="97" style="clip-path:url(#clipPath12); fill:none;" y2="85" />
      <line x1="228" x2="222" y1="97" style="clip-path:url(#clipPath12); fill:none;" y2="85" />
    </g>
    <g transform="translate(186,97)" style="font-size:14; stroke-linecap:butt; text-rendering:geometricPrecision; font-family:&apos;標楷體&apos;; stroke-linejoin:round;">
      <line x1="56" x2="56" y1="56" style="clip-path:url(#clipPath13); fill:none;" y2="86" />
      <line x1="56" x2="62" y1="86" style="clip-path:url(#clipPath13); fill:none;" y2="74" />
      <line x1="56" x2="50" y1="86" style="clip-path:url(#clipPath13); fill:none;" y2="74" />
    </g>
    <g transform="translate(366,165)" style="font-size:11; stroke-linecap:butt; text-rendering:geometricPrecision; font-family:sans-serif; stroke-linejoin:round;">
      <line x1="56" x2="56" y1="55" style="clip-path:url(#clipPath14); fill:none;" y2="96" />
      <line x1="56" x2="62" y1="96" style="clip-path:url(#clipPath14); fill:none;" y2="84" />
      <line x1="56" x2="50" y1="96" style="clip-path:url(#clipPath14); fill:none;" y2="84" />
    </g>
    <g transform="translate(366,227)" style="font-size:11; stroke-linecap:butt; text-rendering:geometricPrecision; font-family:sans-serif; stroke-linejoin:round;">
      <line x1="56" x2="56" y1="56" style="clip-path:url(#clipPath13); fill:none;" y2="86" />
      <line x1="56" x2="62" y1="86" style="clip-path:url(#clipPath13); fill:none;" y2="74" />
      <line x1="56" x2="50" y1="86" style="clip-path:url(#clipPath13); fill:none;" y2="74" />
    </g>
    <g transform="translate(366,295)" style="font-size:11; stroke-linecap:butt; text-rendering:geometricPrecision; font-family:sans-serif; stroke-linejoin:round;">
      <line x1="56" x2="56" y1="55" style="clip-path:url(#clipPath13); fill:none;" y2="85" />
      <line x1="56" x2="62" y1="85" style="clip-path:url(#clipPath13); fill:none;" y2="73" />
      <line x1="56" x2="50" y1="85" style="clip-path:url(#clipPath13); fill:none;" y2="73" />
    </g>
    <g transform="translate(372,216)" style="font-size:14; stroke-linecap:butt; text-rendering:geometricPrecision; font-family:&apos;標楷體&apos;; stroke-linejoin:round;">
      <line x1="55" x2="130" y1="176" style="clip-path:url(#clipPath15); fill:none;" y2="176" />
      <line x1="130" x2="130" y1="176" style="clip-path:url(#clipPath15); fill:none;" y2="56" />
      <line x1="130" x2="55" y1="56" style="clip-path:url(#clipPath15); fill:none;" y2="56" />
      <line x1="55" x2="67" y1="56" style="clip-path:url(#clipPath15); fill:none;" y2="62" />
      <line x1="55" x2="67" y1="56" style="clip-path:url(#clipPath15); fill:none;" y2="50" />
    </g>
    <g transform="translate(6,165)" style="font-size:11; stroke-linecap:butt; text-rendering:geometricPrecision; font-family:sans-serif; stroke-linejoin:round;">
      <line x1="56" x2="56" y1="55" style="clip-path:url(#clipPath16); fill:none;" y2="76" />
      <line x1="56" x2="141" y1="76" style="clip-path:url(#clipPath16); fill:none;" y2="76" />
      <line x1="141" x2="129" y1="76" style="clip-path:url(#clipPath16); fill:none;" y2="70" />
      <line x1="141" x2="129" y1="76" style="clip-path:url(#clipPath16); fill:none;" y2="82" />
    </g>
    <g transform="translate(103,164)" style="font-size:11; stroke-linecap:butt; text-rendering:geometricPrecision; font-family:sans-serif; stroke-linejoin:round;">
      <line x1="139" x2="139" y1="55" style="clip-path:url(#clipPath17); fill:none;" y2="76" />
      <line x1="139" x2="55" y1="76" style="clip-path:url(#clipPath17); fill:none;" y2="76" />
      <line x1="55" x2="67" y1="76" style="clip-path:url(#clipPath17); fill:none;" y2="82" />
      <line x1="55" x2="67" y1="76" style="clip-path:url(#clipPath17); fill:none;" y2="70" />
    </g>
    <g transform="translate(96,197)" style="font-size:11; stroke-linecap:butt; text-rendering:geometricPrecision; font-family:sans-serif; stroke-linejoin:round;">
      <line x1="56" x2="56" y1="56" style="clip-path:url(#clipPath18); fill:none;" y2="96" />
      <line x1="56" x2="62" y1="96" style="clip-path:url(#clipPath18); fill:none;" y2="84" />
      <line x1="56" x2="50" y1="96" style="clip-path:url(#clipPath18); fill:none;" y2="84" />
    </g>
    <g transform="translate(228,467)" style="font-size:11; stroke-linecap:butt; text-rendering:geometricPrecision; font-family:sans-serif; stroke-linejoin:round;">
      <line x1="63" x2="63" y1="63" style="clip-path:url(#clipPath10); fill:none;" y2="106" />
      <line x1="63" x2="69" y1="106" style="clip-path:url(#clipPath10); fill:none;" y2="94" />
      <line x1="63" x2="57" y1="106" style="clip-path:url(#clipPath10); fill:none;" y2="94" />
    </g>
    <g transform="translate(96,275)" style="font-size:11; stroke-linecap:butt; text-rendering:geometricPrecision; font-family:sans-serif; stroke-linejoin:round;">
      <line x1="56" x2="56" y1="55" style="clip-path:url(#clipPath19); fill:none;" y2="167" />
      <line x1="56" x2="190" y1="167" style="clip-path:url(#clipPath19); fill:none;" y2="167" />
      <line x1="190" x2="178" y1="167" style="clip-path:url(#clipPath19); fill:none;" y2="161" />
      <line x1="190" x2="178" y1="167" style="clip-path:url(#clipPath19); fill:none;" y2="173" />
    </g>
    <g transform="translate(243,347)" style="font-size:14; stroke-linecap:butt; text-rendering:geometricPrecision; font-family:&apos;標楷體&apos;; stroke-linejoin:round;">
      <line x1="179" x2="179" y1="56" style="clip-path:url(#clipPath20); fill:none;" y2="94" />
      <line x1="179" x2="55" y1="94" style="clip-path:url(#clipPath20); fill:none;" y2="94" />
      <line x1="55" x2="67" y1="94" style="clip-path:url(#clipPath20); fill:none;" y2="100" />
      <line x1="55" x2="67" y1="94" style="clip-path:url(#clipPath20); fill:none;" y2="88" />
    </g>
    <g transform="translate(228,387)" style="font-size:11; stroke-linecap:butt; text-rendering:geometricPrecision; font-family:sans-serif; stroke-linejoin:round;">
      <line x1="63" x2="63" y1="63" style="clip-path:url(#clipPath10); fill:none;" y2="106" />
      <line x1="63" x2="69" y1="106" style="clip-path:url(#clipPath10); fill:none;" y2="94" />
      <line x1="63" x2="57" y1="106" style="clip-path:url(#clipPath10); fill:none;" y2="94" />
    </g>
    <g style="text-rendering:geometricPrecision; font-size:14; font-family:&apos;標楷體&apos;;" transform="translate(422,412)">
      <text x="10" y="16" style="clip-path:url(#clipPath21); stroke:none;" xml:space="preserve">[註冊成功]</text>
    </g>
    <g style="text-rendering:geometricPrecision; font-size:14; font-family:&apos;標楷體&apos;;" transform="translate(502,300)">
      <text x="10" y="16" style="clip-path:url(#clipPath21); stroke:none;" xml:space="preserve">[註冊失敗]</text>
    </g>
    <g style="text-rendering:geometricPrecision; font-size:14; font-family:&apos;標楷體&apos;;" transform="translate(242,152)">
      <text x="10" y="16" style="clip-path:url(#clipPath22); stroke:none;" xml:space="preserve">Facebook註冊</text>
    </g>
    <g style="text-rendering:geometricPrecision; font-size:14; font-family:&apos;標楷體&apos;;" transform="translate(308,119)">
      <text x="10" y="16" style="clip-path:url(#clipPath23); stroke:none;" xml:space="preserve">系統註冊</text>
    </g>
    <g style="text-rendering:geometricPrecision; font-size:14; font-family:&apos;標楷體&apos;;" transform="translate(97,122)">
      <text x="10" y="16" style="clip-path:url(#clipPath21); stroke:none;" xml:space="preserve">Google註冊</text>
    </g>
    <g style="fill:rgb(120,120,120); text-rendering:geometricPrecision; font-size:10; stroke:rgb(120,120,120);">
    </g>
  </g>
</svg>
