<?xml version="1.0" encoding="UTF-8"?>

<!DOCTYPE svg PUBLIC '-//W3C//DTD SVG 1.0//EN' 'http://www.w3.org/TR/2001/REC-SVG-20010904/DTD/svg10.dtd'>
<svg style="fill-opacity:1; color-rendering:auto; color-interpolation:auto; stroke:black; text-rendering:auto; stroke-linecap:square; stroke-miterlimit:10; stroke-opacity:1; shape-rendering:auto; fill:black; stroke-dasharray:none; font-weight:normal; stroke-width:1; font-family:&apos;Dialog&apos;; font-style:normal; stroke-linejoin:miter; font-size:12; stroke-dashoffset:0; image-rendering:auto;" xmlns="http://www.w3.org/2000/svg" width="656" xmlns:xlink="http://www.w3.org/1999/xlink" height="459">
  <!--Generated by the Batik Graphics2D SVG Generator-->
  <defs id="genericDefs" />
  <g>
    <defs id="defs1">
      <clipPath clipPathUnits="userSpaceOnUse" id="clipPath1">
        <path d="M-3 -3 L67 -3 L67 417 L-3 417 L-3 -3 Z" />
      </clipPath>
      <clipPath clipPathUnits="userSpaceOnUse" id="clipPath2">
        <path d="M-3 -3 L117 -3 L117 417 L-3 417 L-3 -3 Z" />
      </clipPath>
      <clipPath clipPathUnits="userSpaceOnUse" id="clipPath3">
        <path d="M-3 -3 L157 -3 L157 417 L-3 417 L-3 -3 Z" />
      </clipPath>
      <clipPath clipPathUnits="userSpaceOnUse" id="clipPath4">
        <path d="M-3 -3 L15 -3 L15 337 L-3 337 L-3 -3 Z" />
      </clipPath>
      <clipPath clipPathUnits="userSpaceOnUse" id="clipPath5">
        <path d="M-3 -3 L637 -3 L637 267 L-3 267 L-3 -3 Z" />
      </clipPath>
      <clipPath clipPathUnits="userSpaceOnUse" id="clipPath6">
        <path d="M0 0 L23 0 L23 20 L0 20 L0 0 Z" />
      </clipPath>
      <clipPath clipPathUnits="userSpaceOnUse" id="clipPath7">
        <path d="M-3 -3 L15 -3 L15 18 L-3 18 L-3 -3 Z" />
      </clipPath>
      <clipPath clipPathUnits="userSpaceOnUse" id="clipPath8">
        <path d="M-3 -3 L637 -3 L637 168 L-3 168 L-3 -3 Z" />
      </clipPath>
      <clipPath clipPathUnits="userSpaceOnUse" id="clipPath9">
        <path d="M0 0 L70 0 L70 17 L0 17 L0 0 Z" />
      </clipPath>
      <clipPath clipPathUnits="userSpaceOnUse" id="clipPath10">
        <path d="M0 0 L0 4 L630 4 L630 0 Z" />
      </clipPath>
      <clipPath clipPathUnits="userSpaceOnUse" id="clipPath11">
        <path d="M-3 -3 L14 -3 L14 94 L-3 94 L-3 -3 Z" />
      </clipPath>
      <clipPath clipPathUnits="userSpaceOnUse" id="clipPath12">
        <path d="M-3 -3 L14 -3 L14 19 L-3 19 L-3 -3 Z" />
      </clipPath>
      <clipPath clipPathUnits="userSpaceOnUse" id="clipPath13">
        <path d="M-3 -3 L637 -3 L637 94 L-3 94 L-3 -3 Z" />
      </clipPath>
      <clipPath clipPathUnits="userSpaceOnUse" id="clipPath14">
        <path d="M0 0 L150 0 L150 17 L0 17 L0 0 Z" />
      </clipPath>
      <clipPath clipPathUnits="userSpaceOnUse" id="clipPath15">
        <path d="M0 0 L110 0 L110 18 L0 18 L0 0 Z" />
      </clipPath>
      <clipPath clipPathUnits="userSpaceOnUse" id="clipPath16">
        <path d="M0 0 L48 0 L48 18 L0 18 L0 0 Z" />
      </clipPath>
      <clipPath clipPathUnits="userSpaceOnUse" id="clipPath17">
        <path d="M0 0 L331 0 L331 104 L0 104 L0 0 Z" />
      </clipPath>
      <clipPath clipPathUnits="userSpaceOnUse" id="clipPath18">
        <path d="M0 0 L123 0 L123 124 L0 124 L0 0 Z" />
      </clipPath>
      <clipPath clipPathUnits="userSpaceOnUse" id="clipPath19">
        <path d="M0 0 L277 0 L277 104 L0 104 L0 0 Z" />
      </clipPath>
      <clipPath clipPathUnits="userSpaceOnUse" id="clipPath20">
        <path d="M0 0 L115 0 L115 124 L0 124 L0 0 Z" />
      </clipPath>
      <clipPath clipPathUnits="userSpaceOnUse" id="clipPath21">
        <path d="M0 0 L76 0 L76 18 L0 18 L0 0 Z" />
      </clipPath>
      <clipPath clipPathUnits="userSpaceOnUse" id="clipPath22">
        <path d="M0 0 L104 0 L104 18 L0 18 L0 0 Z" />
      </clipPath>
      <clipPath clipPathUnits="userSpaceOnUse" id="clipPath23">
        <path d="M0 0 L146 0 L146 18 L0 18 L0 0 Z" />
      </clipPath>
      <clipPath clipPathUnits="userSpaceOnUse" id="clipPath24">
        <path d="M0 0 L118 0 L118 18 L0 18 L0 0 Z" />
      </clipPath>
      <clipPath clipPathUnits="userSpaceOnUse" id="clipPath25">
        <path d="M0 0 L132 0 L132 18 L0 18 L0 0 Z" />
      </clipPath>
    </defs>
    <g style="fill:white; text-rendering:geometricPrecision; stroke:white;">
      <rect x="0" y="0" width="656" style="stroke:none;" height="459" />
      <rect x="58" y="38" transform="translate(-58,-38)" width="655" style="fill:none; stroke:black;" height="458" />
      <text x="65" y="57" transform="translate(-58,-38)" style="fill:black; stroke:none; font-weight:bold;" xml:space="preserve">sd</text>
      <text x="86" y="57" transform="translate(-58,-38)" style="fill:black; stroke:none;" xml:space="preserve">圖片風格轉換</text>
      <line transform="translate(-58,-38)" x1="58" x2="158" y1="64" style="fill:none; stroke:black;" y2="64" />
      <line transform="translate(-58,-38)" x1="164" x2="164" y1="38" style="fill:none; stroke:black;" y2="53" />
      <line transform="translate(-58,-38)" x1="164" x2="158" y1="53" style="fill:none; stroke:black;" y2="64" />
    </g>
    <g transform="translate(102,35)" style="font-size:14; fill:rgb(122,207,245); text-rendering:geometricPrecision; font-family:&apos;標楷體&apos;; stroke:rgb(122,207,245);">
      <circle style="clip-path:url(#clipPath1); stroke:none;" r="5" cx="30" cy="5" />
      <rect x="26" y="53" width="8" style="clip-path:url(#clipPath1); stroke:none;" height="356" />
    </g>
    <g transform="translate(102,35)" style="font-size:14; stroke-linecap:butt; text-rendering:geometricPrecision; font-family:&apos;標楷體&apos;; stroke-linejoin:round; stroke-miterlimit:0;">
      <circle style="fill:none; clip-path:url(#clipPath1);" r="5" cx="30" cy="5" />
      <rect x="26" y="53" width="8" style="clip-path:url(#clipPath1); fill:none;" height="356" />
      <line x1="30" x2="30" y1="10" style="clip-path:url(#clipPath1); fill:none;" y2="25" />
      <line x1="30" x2="21" y1="25" style="clip-path:url(#clipPath1); fill:none;" y2="36" />
      <line x1="30" x2="39" y1="25" style="clip-path:url(#clipPath1); fill:none;" y2="36" />
      <line x1="21" x2="39" y1="16" style="clip-path:url(#clipPath1); fill:none;" y2="16" />
    </g>
    <g transform="translate(312,35)" style="font-size:14; fill:rgb(122,207,245); text-rendering:geometricPrecision; font-family:&apos;標楷體&apos;; stroke:rgb(122,207,245);">
      <rect x="0" y="0" width="109" style="clip-path:url(#clipPath2); stroke:none;" height="35" />
    </g>
    <g transform="translate(312,35)" style="font-size:14; stroke-linecap:butt; text-rendering:geometricPrecision; font-family:&apos;標楷體&apos;; stroke-linejoin:round; stroke-miterlimit:0;">
      <rect x="0" y="0" width="109" style="clip-path:url(#clipPath2); fill:none;" height="35" />
      <line x1="54" x2="54" y1="35" style="clip-path:url(#clipPath2); fill:none; stroke-linejoin:bevel; stroke-dasharray:8,3;" y2="410" />
    </g>
    <g transform="translate(472,35)" style="font-size:14; fill:rgb(122,207,245); text-rendering:geometricPrecision; font-family:&apos;Times New Roman&apos;; stroke:rgb(122,207,245);">
      <rect x="0" y="0" width="149" style="clip-path:url(#clipPath3); stroke:none;" height="35" />
    </g>
    <g transform="translate(472,35)" style="font-size:14; stroke-linecap:butt; text-rendering:geometricPrecision; font-family:&apos;Times New Roman&apos;; stroke-linejoin:round; stroke-miterlimit:0;">
      <rect x="0" y="0" width="149" style="clip-path:url(#clipPath3); fill:none;" height="35" />
      <line x1="74" x2="74" y1="35" style="clip-path:url(#clipPath3); fill:none; stroke-linejoin:bevel; stroke-dasharray:8,3;" y2="410" />
    </g>
    <g transform="translate(363,89)" style="font-size:11; fill:rgb(122,207,245); text-rendering:geometricPrecision; font-family:sans-serif; stroke:rgb(122,207,245);">
      <rect x="0" y="0" width="8" style="clip-path:url(#clipPath4); stroke:none;" height="330" />
    </g>
    <g transform="translate(363,89)" style="font-size:11; stroke-linecap:butt; text-rendering:geometricPrecision; font-family:sans-serif; stroke-linejoin:round; stroke-miterlimit:0;">
      <rect x="0" y="0" width="8" style="clip-path:url(#clipPath4); fill:none;" height="330" />
    </g>
    <g transform="translate(12,165)" style="font-size:11; stroke-linecap:butt; text-rendering:geometricPrecision; font-family:sans-serif; stroke-linejoin:round; font-weight:bold; stroke-miterlimit:0;">
      <rect x="0" y="0" width="630" style="clip-path:url(#clipPath5); fill:none;" height="260" />
    </g>
    <g transform="translate(12,165)" style="font-size:11; fill:white; text-rendering:geometricPrecision; font-family:sans-serif; stroke:white; font-weight:bold;">
      <path d="M22 0 L22 10 L16 19 L0 19 L0 0 Z" style="clip-path:url(#clipPath5); stroke:none;" />
    </g>
    <g transform="translate(12,165)" style="font-size:11; stroke-linecap:butt; text-rendering:geometricPrecision; font-family:sans-serif; stroke-linejoin:round; font-weight:bold; stroke-miterlimit:0;">
      <path d="M22 0 L22 10 L16 19 L0 19 L0 0 Z" style="fill:none; clip-path:url(#clipPath5);" />
    </g>
    <g transform="translate(12,165)" style="text-rendering:geometricPrecision; font-size:11; font-weight:bold; font-family:sans-serif;">
      <text x="5" y="14" style="clip-path:url(#clipPath6); stroke:none;" xml:space="preserve">alt</text>
    </g>
    <g transform="translate(367,219)" style="font-size:11; fill:rgb(122,207,245); text-rendering:geometricPrecision; font-family:sans-serif; stroke:rgb(122,207,245);">
      <rect x="0" y="0" width="8" style="clip-path:url(#clipPath7); stroke:none;" height="11" />
    </g>
    <g transform="translate(367,219)" style="font-size:11; stroke-linecap:butt; text-rendering:geometricPrecision; font-family:sans-serif; stroke-linejoin:round; stroke-miterlimit:0;">
      <rect x="0" y="0" width="8" style="clip-path:url(#clipPath7); fill:none;" height="11" />
    </g>
    <g transform="translate(12,267)" style="font-size:11; fill:white; text-rendering:geometricPrecision; font-family:sans-serif; stroke:white;">
      <rect x="28" y="5" width="70" style="clip-path:url(#clipPath8); stroke:none;" height="17" />
    </g>
    <g style="text-rendering:geometricPrecision; font-size:11; font-family:sans-serif;" transform="translate(40,272)">
      <text x="10" y="14" style="clip-path:url(#clipPath9); stroke:none;" xml:space="preserve">[選擇相簿]</text>
    </g>
    <g transform="translate(544,309)" style="font-size:11; fill:rgb(122,207,245); text-rendering:geometricPrecision; font-family:sans-serif; stroke:rgb(122,207,245);">
      <rect x="0" y="0" width="7" style="clip-path:url(#clipPath11); stroke:none;" height="87" />
    </g>
    <g transform="translate(544,309)" style="font-size:11; stroke-linecap:butt; text-rendering:geometricPrecision; font-family:sans-serif; stroke-linejoin:round; stroke-miterlimit:0;">
      <rect x="0" y="0" width="7" style="clip-path:url(#clipPath11); fill:none;" height="87" />
    </g>
    <g transform="translate(547,339)" style="font-size:11; fill:rgb(122,207,245); text-rendering:geometricPrecision; font-family:sans-serif; stroke:rgb(122,207,245);">
      <rect x="0" y="0" width="7" style="clip-path:url(#clipPath12); stroke:none;" height="12" />
    </g>
    <g transform="translate(547,339)" style="font-size:11; stroke-linecap:butt; text-rendering:geometricPrecision; font-family:sans-serif; stroke-linejoin:round; stroke-miterlimit:0;">
      <rect x="0" y="0" width="7" style="clip-path:url(#clipPath12); fill:none;" height="12" />
    </g>
    <g transform="translate(367,389)" style="font-size:11; fill:rgb(122,207,245); text-rendering:geometricPrecision; font-family:sans-serif; stroke:rgb(122,207,245);">
      <rect x="0" y="0" width="8" style="clip-path:url(#clipPath7); stroke:none;" height="11" />
    </g>
    <g transform="translate(367,389)" style="font-size:11; stroke-linecap:butt; text-rendering:geometricPrecision; font-family:sans-serif; stroke-linejoin:round; stroke-miterlimit:0;">
      <rect x="0" y="0" width="8" style="clip-path:url(#clipPath7); fill:none;" height="11" />
    </g>
    <g transform="translate(12,177)" style="font-size:11; fill:white; text-rendering:geometricPrecision; font-family:sans-serif; stroke:white;">
      <rect x="28" y="5" width="70" style="clip-path:url(#clipPath13); stroke:none;" height="17" />
    </g>
    <g transform="translate(12,177)" style="font-size:11; stroke-linecap:butt; text-rendering:geometricPrecision; font-family:sans-serif; stroke-linejoin:bevel; stroke-dasharray:5,2; stroke-miterlimit:0;">
      <line x1="0" x2="629" y1="86" style="clip-path:url(#clipPath13); fill:none;" y2="86" />
    </g>
    <g style="text-rendering:geometricPrecision; font-size:11; font-family:sans-serif;" transform="translate(40,182)">
      <text x="10" y="14" style="clip-path:url(#clipPath9); stroke:none;" xml:space="preserve">[上傳相片]</text>
    </g>
    <g style="text-rendering:geometricPrecision; font-size:14; font-family:&apos;Times New Roman&apos;;" transform="translate(472,35)">
      <text x="11" y="14" style="clip-path:url(#clipPath14); stroke:none;" xml:space="preserve">photoStyleConversion</text>
    </g>
    <g style="text-rendering:geometricPrecision; font-size:14; font-family:&apos;標楷體&apos;;" transform="translate(312,35)">
      <text x="6" y="16" style="clip-path:url(#clipPath15); stroke:none;" xml:space="preserve">圖片風格轉換UI</text>
    </g>
    <g style="text-rendering:geometricPrecision; font-size:14; font-family:&apos;標楷體&apos;;" transform="translate(108,70)">
      <text x="10" y="16" style="clip-path:url(#clipPath16); stroke:none;" xml:space="preserve">會員</text>
    </g>
    <g transform="translate(86,55)" style="font-size:14; stroke-linecap:butt; text-rendering:geometricPrecision; font-family:&apos;標楷體&apos;; stroke-linejoin:round;">
      <line x1="50" x2="277" y1="50" style="clip-path:url(#clipPath17); fill:none;" y2="50" />
      <polygon style="clip-path:url(#clipPath17); stroke:none;" points=" 277 50 265 44 265 56" />
      <polygon style="fill:none; clip-path:url(#clipPath17);" points=" 277 50 265 44 265 56" />
    </g>
    <g transform="translate(86,145)" style="font-size:14; stroke-linecap:butt; text-rendering:geometricPrecision; font-family:&apos;標楷體&apos;; stroke-linejoin:round;">
      <line x1="50" x2="277" y1="50" style="clip-path:url(#clipPath17); fill:none;" y2="50" />
      <polygon style="clip-path:url(#clipPath17); stroke:none;" points=" 277 50 265 44 265 56" />
      <polygon style="fill:none; clip-path:url(#clipPath17);" points=" 277 50 265 44 265 56" />
    </g>
    <g transform="translate(321,155)" style="font-size:14; stroke-linecap:butt; text-rendering:geometricPrecision; font-family:&apos;標楷體&apos;; stroke-linejoin:round;">
      <line x1="50" x2="69" y1="50" style="clip-path:url(#clipPath18); fill:none;" y2="50" />
      <line x1="69" x2="69" y1="50" style="clip-path:url(#clipPath18); fill:none;" y2="70" />
      <line x1="69" x2="54" y1="70" style="clip-path:url(#clipPath18); fill:none;" y2="70" />
      <polygon style="clip-path:url(#clipPath18); stroke:none;" points=" 54 70 66 76 66 64" />
      <polygon style="fill:none; clip-path:url(#clipPath18);" points=" 54 70 66 76 66 64" />
    </g>
    <g transform="translate(86,255)" style="font-size:14; stroke-linecap:butt; text-rendering:geometricPrecision; font-family:&apos;標楷體&apos;; stroke-linejoin:round;">
      <line x1="50" x2="277" y1="50" style="clip-path:url(#clipPath17); fill:none;" y2="50" />
      <polygon style="clip-path:url(#clipPath17); stroke:none;" points=" 277 50 265 44 265 56" />
      <polygon style="fill:none; clip-path:url(#clipPath17);" points=" 277 50 265 44 265 56" />
    </g>
    <g transform="translate(321,325)" style="font-size:14; stroke-linecap:butt; text-rendering:geometricPrecision; font-family:&apos;標楷體&apos;; stroke-linejoin:round;">
      <line x1="50" x2="69" y1="50" style="clip-path:url(#clipPath18); fill:none;" y2="50" />
      <line x1="69" x2="69" y1="50" style="clip-path:url(#clipPath18); fill:none;" y2="70" />
      <line x1="69" x2="54" y1="70" style="clip-path:url(#clipPath18); fill:none;" y2="70" />
      <polygon style="clip-path:url(#clipPath18); stroke:none;" points=" 54 70 66 76 66 64" />
      <polygon style="fill:none; clip-path:url(#clipPath18);" points=" 54 70 66 76 66 64" />
    </g>
    <g transform="translate(86,95)" style="font-size:14; stroke-linecap:butt; text-rendering:geometricPrecision; font-family:&apos;標楷體&apos;; stroke-linejoin:round; stroke-dasharray:8,3; stroke-miterlimit:0;">
      <line x1="277" x2="50" y1="50" style="clip-path:url(#clipPath17); fill:none;" y2="50" />
      <line x1="50" x2="62" y1="50" style="clip-path:url(#clipPath17); fill:none; stroke-dasharray:none; stroke-miterlimit:10;" y2="56" />
      <line x1="50" x2="62" y1="50" style="clip-path:url(#clipPath17); fill:none; stroke-dasharray:none; stroke-miterlimit:10;" y2="44" />
    </g>
    <g transform="translate(86,195)" style="font-size:14; stroke-linecap:butt; text-rendering:geometricPrecision; font-family:&apos;標楷體&apos;; stroke-linejoin:round; stroke-dasharray:8,3; stroke-miterlimit:0;">
      <line x1="277" x2="50" y1="50" style="clip-path:url(#clipPath17); fill:none;" y2="50" />
      <line x1="50" x2="62" y1="50" style="clip-path:url(#clipPath17); fill:none; stroke-dasharray:none; stroke-miterlimit:10;" y2="56" />
      <line x1="50" x2="62" y1="50" style="clip-path:url(#clipPath17); fill:none; stroke-dasharray:none; stroke-miterlimit:10;" y2="44" />
    </g>
    <g transform="translate(86,355)" style="font-size:14; stroke-linecap:butt; text-rendering:geometricPrecision; font-family:&apos;標楷體&apos;; stroke-linejoin:round; stroke-dasharray:8,3; stroke-miterlimit:0;">
      <line x1="277" x2="50" y1="50" style="clip-path:url(#clipPath17); fill:none;" y2="50" />
      <line x1="50" x2="62" y1="50" style="clip-path:url(#clipPath17); fill:none; stroke-dasharray:none; stroke-miterlimit:10;" y2="56" />
      <line x1="50" x2="62" y1="50" style="clip-path:url(#clipPath17); fill:none; stroke-dasharray:none; stroke-miterlimit:10;" y2="44" />
    </g>
    <g transform="translate(321,265)" style="font-size:14; stroke-linecap:butt; text-rendering:geometricPrecision; font-family:&apos;標楷體&apos;; stroke-linejoin:round;">
      <line x1="50" x2="223" y1="50" style="clip-path:url(#clipPath19); fill:none;" y2="50" />
      <polygon style="clip-path:url(#clipPath19); stroke:none;" points=" 223 50 211 44 211 56" />
      <polygon style="fill:none; clip-path:url(#clipPath19);" points=" 223 50 211 44 211 56" />
    </g>
    <g transform="translate(501,275)" style="font-size:14; stroke-linecap:butt; text-rendering:geometricPrecision; font-family:&apos;標楷體&apos;; stroke-linejoin:round;">
      <line x1="50" x2="61" y1="50" style="clip-path:url(#clipPath20); fill:none;" y2="50" />
      <line x1="61" x2="61" y1="50" style="clip-path:url(#clipPath20); fill:none;" y2="70" />
      <line x1="61" x2="53" y1="70" style="clip-path:url(#clipPath20); fill:none;" y2="70" />
      <polygon style="clip-path:url(#clipPath20); stroke:none;" points=" 53 70 65 76 65 64" />
      <polygon style="fill:none; clip-path:url(#clipPath20);" points=" 53 70 65 76 65 64" />
    </g>
    <g transform="translate(321,315)" style="font-size:14; stroke-linecap:butt; text-rendering:geometricPrecision; font-family:&apos;標楷體&apos;; stroke-linejoin:round; stroke-dasharray:8,3; stroke-miterlimit:0;">
      <line x1="223" x2="50" y1="50" style="clip-path:url(#clipPath19); fill:none;" y2="50" />
      <line x1="50" x2="62" y1="50" style="clip-path:url(#clipPath19); fill:none; stroke-dasharray:none; stroke-miterlimit:10;" y2="56" />
      <line x1="50" x2="62" y1="50" style="clip-path:url(#clipPath19); fill:none; stroke-dasharray:none; stroke-miterlimit:10;" y2="44" />
    </g>
    <g style="text-rendering:geometricPrecision; font-size:14; font-family:&apos;標楷體&apos;;" transform="translate(420,342)">
      <text x="10" y="16" style="clip-path:url(#clipPath21); stroke:none;" xml:space="preserve">回傳圖片</text>
    </g>
    <g style="text-rendering:geometricPrecision; font-size:14; font-family:&apos;標楷體&apos;;" transform="translate(562,326)">
      <text x="10" y="16" style="clip-path:url(#clipPath21); stroke:none;" xml:space="preserve">取得相片</text>
    </g>
    <g style="text-rendering:geometricPrecision; font-size:14; font-family:&apos;標楷體&apos;;" transform="translate(405,292)">
      <text x="10" y="16" style="clip-path:url(#clipPath22); stroke:none;" xml:space="preserve">請求取得相片</text>
    </g>
    <g style="text-rendering:geometricPrecision; font-size:14; font-family:&apos;標楷體&apos;;" transform="translate(198,382)">
      <text x="10" y="16" style="clip-path:url(#clipPath22); stroke:none;" xml:space="preserve">顯示轉換結果</text>
    </g>
    <g style="text-rendering:geometricPrecision; font-size:14; font-family:&apos;標楷體&apos;;" transform="translate(198,222)">
      <text x="10" y="16" style="clip-path:url(#clipPath22); stroke:none;" xml:space="preserve">顯示轉換結果</text>
    </g>
    <g style="text-rendering:geometricPrecision; font-size:14; font-family:&apos;標楷體&apos;;" transform="translate(177,122)">
      <text x="10" y="16" style="clip-path:url(#clipPath23); stroke:none;" xml:space="preserve">選擇相簿或上傳相片</text>
    </g>
    <g style="text-rendering:geometricPrecision; font-size:14; font-family:&apos;標楷體&apos;;" transform="translate(392,376)">
      <text x="10" y="16" style="clip-path:url(#clipPath22); stroke:none;" xml:space="preserve">圖片風格轉換</text>
    </g>
    <g style="text-rendering:geometricPrecision; font-size:14; font-family:&apos;標楷體&apos;;" transform="translate(190,282)">
      <text x="10" y="16" style="clip-path:url(#clipPath24); stroke:none;" xml:space="preserve">選擇相簿內相片</text>
    </g>
    <g style="text-rendering:geometricPrecision; font-size:14; font-family:&apos;標楷體&apos;;" transform="translate(392,206)">
      <text x="10" y="16" style="clip-path:url(#clipPath22); stroke:none;" xml:space="preserve">圖片風格轉換</text>
    </g>
    <g style="text-rendering:geometricPrecision; font-size:14; font-family:&apos;標楷體&apos;;" transform="translate(211,172)">
      <text x="10" y="16" style="clip-path:url(#clipPath21); stroke:none;" xml:space="preserve">上傳相片</text>
    </g>
    <g style="text-rendering:geometricPrecision; font-size:14; font-family:&apos;標楷體&apos;;" transform="translate(183,82)">
      <text x="10" y="16" style="clip-path:url(#clipPath25); stroke:none;" xml:space="preserve">瀏覽圖片風格轉換</text>
    </g>
    <g style="fill:rgb(120,120,120); text-rendering:geometricPrecision; font-size:10; stroke:rgb(120,120,120);">
    </g>
  </g>
</svg>
