<?xml version="1.0" encoding="UTF-8"?>

<!DOCTYPE svg PUBLIC '-//W3C//DTD SVG 1.0//EN' 'http://www.w3.org/TR/2001/REC-SVG-20010904/DTD/svg10.dtd'>
<svg style="fill-opacity:1; color-rendering:auto; color-interpolation:auto; stroke:black; text-rendering:auto; stroke-linecap:square; stroke-miterlimit:10; stroke-opacity:1; shape-rendering:auto; fill:black; stroke-dasharray:none; font-weight:normal; stroke-width:1; font-family:&apos;Dialog&apos;; font-style:normal; stroke-linejoin:miter; font-size:12; stroke-dashoffset:0; image-rendering:auto;" xmlns="http://www.w3.org/2000/svg" width="686" xmlns:xlink="http://www.w3.org/1999/xlink" height="409">
  <!--Generated by the Batik Graphics2D SVG Generator-->
  <defs id="genericDefs" />
  <g>
    <defs id="defs1">
      <clipPath clipPathUnits="userSpaceOnUse" id="clipPath1">
        <path d="M-3 -3 L67 -3 L67 367 L-3 367 L-3 -3 Z" />
      </clipPath>
      <clipPath clipPathUnits="userSpaceOnUse" id="clipPath2">
        <path d="M-3 -3 L97 -3 L97 367 L-3 367 L-3 -3 Z" />
      </clipPath>
      <clipPath clipPathUnits="userSpaceOnUse" id="clipPath3">
        <path d="M-3 -3 L15 -3 L15 169 L-3 169 L-3 -3 Z" />
      </clipPath>
      <clipPath clipPathUnits="userSpaceOnUse" id="clipPath4">
        <path d="M-3 -3 L667 -3 L667 227 L-3 227 L-3 -3 Z" />
      </clipPath>
      <clipPath clipPathUnits="userSpaceOnUse" id="clipPath5">
        <path d="M0 0 L23 0 L23 20 L0 20 L0 0 Z" />
      </clipPath>
      <clipPath clipPathUnits="userSpaceOnUse" id="clipPath6">
        <path d="M-3 -3 L15 -3 L15 76 L-3 76 L-3 -3 Z" />
      </clipPath>
      <clipPath clipPathUnits="userSpaceOnUse" id="clipPath7">
        <path d="M-3 -3 L15 -3 L15 19 L-3 19 L-3 -3 Z" />
      </clipPath>
      <clipPath clipPathUnits="userSpaceOnUse" id="clipPath8">
        <path d="M-3 -3 L15 -3 L15 84 L-3 84 L-3 -3 Z" />
      </clipPath>
      <clipPath clipPathUnits="userSpaceOnUse" id="clipPath9">
        <path d="M-3 -3 L15 -3 L15 92 L-3 92 L-3 -3 Z" />
      </clipPath>
      <clipPath clipPathUnits="userSpaceOnUse" id="clipPath10">
        <path d="M-3 -3 L667 -3 L667 97 L-3 97 L-3 -3 Z" />
      </clipPath>
      <clipPath clipPathUnits="userSpaceOnUse" id="clipPath11">
        <path d="M0 0 L70 0 L70 17 L0 17 L0 0 Z" />
      </clipPath>
      <clipPath clipPathUnits="userSpaceOnUse" id="clipPath12">
        <path d="M0 0 L0 4 L660 4 L660 0 Z" />
      </clipPath>
      <clipPath clipPathUnits="userSpaceOnUse" id="clipPath13">
        <path d="M-3 -3 L667 -3 L667 117 L-3 117 L-3 -3 Z" />
      </clipPath>
      <clipPath clipPathUnits="userSpaceOnUse" id="clipPath14">
        <path d="M0 0 L60 0 L60 17 L0 17 L0 0 Z" />
      </clipPath>
      <clipPath clipPathUnits="userSpaceOnUse" id="clipPath15">
        <path d="M0 0 L90 0 L90 18 L0 18 L0 0 Z" />
      </clipPath>
      <clipPath clipPathUnits="userSpaceOnUse" id="clipPath16">
        <path d="M0 0 L48 0 L48 18 L0 18 L0 0 Z" />
      </clipPath>
      <clipPath clipPathUnits="userSpaceOnUse" id="clipPath17">
        <path d="M0 0 L341 0 L341 104 L0 104 L0 0 Z" />
      </clipPath>
      <clipPath clipPathUnits="userSpaceOnUse" id="clipPath18">
        <path d="M0 0 L281 0 L281 104 L0 104 L0 0 Z" />
      </clipPath>
      <clipPath clipPathUnits="userSpaceOnUse" id="clipPath19">
        <path d="M0 0 L130 0 L130 124 L0 124 L0 0 Z" />
      </clipPath>
      <clipPath clipPathUnits="userSpaceOnUse" id="clipPath20">
        <path d="M0 0 L132 0 L132 18 L0 18 L0 0 Z" />
      </clipPath>
      <clipPath clipPathUnits="userSpaceOnUse" id="clipPath21">
        <path d="M0 0 L76 0 L76 18 L0 18 L0 0 Z" />
      </clipPath>
      <clipPath clipPathUnits="userSpaceOnUse" id="clipPath22">
        <path d="M0 0 L209 0 L209 18 L0 18 L0 0 Z" />
      </clipPath>
      <clipPath clipPathUnits="userSpaceOnUse" id="clipPath23">
        <path d="M0 0 L188 0 L188 18 L0 18 L0 0 Z" />
      </clipPath>
      <clipPath clipPathUnits="userSpaceOnUse" id="clipPath24">
        <path d="M0 0 L118 0 L118 18 L0 18 L0 0 Z" />
      </clipPath>
    </defs>
    <g style="fill:white; text-rendering:geometricPrecision; stroke:white;">
      <rect x="0" y="0" width="686" style="stroke:none;" height="409" />
      <rect x="98" y="38" transform="translate(-98,-38)" width="685" style="fill:none; stroke:black;" height="408" />
      <text x="105" y="57" transform="translate(-98,-38)" style="fill:black; stroke:none; font-weight:bold;" xml:space="preserve">sd</text>
      <text x="126" y="57" transform="translate(-98,-38)" style="fill:black; stroke:none;" xml:space="preserve">相簿管理</text>
      <line transform="translate(-98,-38)" x1="98" x2="174" y1="64" style="fill:none; stroke:black;" y2="64" />
      <line transform="translate(-98,-38)" x1="180" x2="180" y1="38" style="fill:none; stroke:black;" y2="53" />
      <line transform="translate(-98,-38)" x1="180" x2="174" y1="53" style="fill:none; stroke:black;" y2="64" />
    </g>
    <g transform="translate(92,35)" style="font-size:14; fill:rgb(122,207,245); text-rendering:geometricPrecision; font-family:&apos;標楷體&apos;; stroke:rgb(122,207,245);">
      <circle style="clip-path:url(#clipPath1); stroke:none;" r="5" cx="30" cy="5" />
      <rect x="26" y="53" width="8" style="clip-path:url(#clipPath1); stroke:none;" height="306" />
    </g>
    <g transform="translate(92,35)" style="font-size:14; stroke-linecap:butt; text-rendering:geometricPrecision; font-family:&apos;標楷體&apos;; stroke-linejoin:round; stroke-miterlimit:0;">
      <circle style="fill:none; clip-path:url(#clipPath1);" r="5" cx="30" cy="5" />
      <rect x="26" y="53" width="8" style="clip-path:url(#clipPath1); fill:none;" height="306" />
      <line x1="30" x2="30" y1="10" style="clip-path:url(#clipPath1); fill:none;" y2="25" />
      <line x1="30" x2="21" y1="25" style="clip-path:url(#clipPath1); fill:none;" y2="36" />
      <line x1="30" x2="39" y1="25" style="clip-path:url(#clipPath1); fill:none;" y2="36" />
      <line x1="21" x2="39" y1="16" style="clip-path:url(#clipPath1); fill:none;" y2="16" />
    </g>
    <g transform="translate(322,35)" style="font-size:14; fill:rgb(122,207,245); text-rendering:geometricPrecision; font-family:&apos;標楷體&apos;; stroke:rgb(122,207,245);">
      <rect x="0" y="0" width="89" style="clip-path:url(#clipPath2); stroke:none;" height="35" />
    </g>
    <g transform="translate(322,35)" style="font-size:14; stroke-linecap:butt; text-rendering:geometricPrecision; font-family:&apos;標楷體&apos;; stroke-linejoin:round; stroke-miterlimit:0;">
      <rect x="0" y="0" width="89" style="clip-path:url(#clipPath2); fill:none;" height="35" />
      <line x1="44" x2="44" y1="35" style="clip-path:url(#clipPath2); fill:none; stroke-linejoin:bevel; stroke-dasharray:8,3;" y2="360" />
    </g>
    <g transform="translate(363,95)" style="font-size:11; fill:rgb(122,207,245); text-rendering:geometricPrecision; font-family:sans-serif; stroke:rgb(122,207,245);">
      <rect x="0" y="0" width="8" style="clip-path:url(#clipPath3); stroke:none;" height="162" />
    </g>
    <g transform="translate(363,95)" style="font-size:11; stroke-linecap:butt; text-rendering:geometricPrecision; font-family:sans-serif; stroke-linejoin:round; stroke-miterlimit:0;">
      <rect x="0" y="0" width="8" style="clip-path:url(#clipPath3); fill:none;" height="162" />
    </g>
    <g transform="translate(522,35)" style="font-size:14; fill:rgb(122,207,245); text-rendering:geometricPrecision; font-family:&apos;Times New Roman&apos;; stroke:rgb(122,207,245);">
      <rect x="0" y="0" width="59" style="clip-path:url(#clipPath1); stroke:none;" height="35" />
    </g>
    <g transform="translate(522,35)" style="font-size:14; stroke-linecap:butt; text-rendering:geometricPrecision; font-family:&apos;Times New Roman&apos;; stroke-linejoin:round; stroke-miterlimit:0;">
      <rect x="0" y="0" width="59" style="clip-path:url(#clipPath1); fill:none;" height="35" />
      <line x1="29" x2="29" y1="35" style="clip-path:url(#clipPath1); fill:none; stroke-linejoin:bevel; stroke-dasharray:8,3;" y2="360" />
    </g>
    <g transform="translate(12,155)" style="font-size:11; stroke-linecap:butt; text-rendering:geometricPrecision; font-family:sans-serif; stroke-linejoin:round; font-weight:bold; stroke-miterlimit:0;">
      <rect x="0" y="0" width="660" style="clip-path:url(#clipPath4); fill:none;" height="220" />
    </g>
    <g transform="translate(12,155)" style="font-size:11; fill:white; text-rendering:geometricPrecision; font-family:sans-serif; stroke:white; font-weight:bold;">
      <path d="M22 0 L22 10 L16 19 L0 19 L0 0 Z" style="clip-path:url(#clipPath4); stroke:none;" />
    </g>
    <g transform="translate(12,155)" style="font-size:11; stroke-linecap:butt; text-rendering:geometricPrecision; font-family:sans-serif; stroke-linejoin:round; font-weight:bold; stroke-miterlimit:0;">
      <path d="M22 0 L22 10 L16 19 L0 19 L0 0 Z" style="fill:none; clip-path:url(#clipPath4);" />
    </g>
    <g transform="translate(12,155)" style="text-rendering:geometricPrecision; font-size:11; font-weight:bold; font-family:sans-serif;">
      <text x="5" y="14" style="clip-path:url(#clipPath5); stroke:none;" xml:space="preserve">alt</text>
    </g>
    <g transform="translate(548,175)" style="font-size:11; fill:rgb(122,207,245); text-rendering:geometricPrecision; font-family:sans-serif; stroke:rgb(122,207,245);">
      <rect x="0" y="0" width="8" style="clip-path:url(#clipPath6); stroke:none;" height="69" />
    </g>
    <g transform="translate(548,175)" style="font-size:11; stroke-linecap:butt; text-rendering:geometricPrecision; font-family:sans-serif; stroke-linejoin:round; stroke-miterlimit:0;">
      <rect x="0" y="0" width="8" style="clip-path:url(#clipPath6); fill:none;" height="69" />
    </g>
    <g transform="translate(552,211)" style="font-size:11; fill:rgb(122,207,245); text-rendering:geometricPrecision; font-family:sans-serif; stroke:rgb(122,207,245);">
      <rect x="0" y="0" width="8" style="clip-path:url(#clipPath7); stroke:none;" height="12" />
    </g>
    <g transform="translate(552,211)" style="font-size:11; stroke-linecap:butt; text-rendering:geometricPrecision; font-family:sans-serif; stroke-linejoin:round; stroke-miterlimit:0;">
      <rect x="0" y="0" width="8" style="clip-path:url(#clipPath7); fill:none;" height="12" />
    </g>
    <g transform="translate(548,285)" style="font-size:11; fill:rgb(122,207,245); text-rendering:geometricPrecision; font-family:sans-serif; stroke:rgb(122,207,245);">
      <rect x="0" y="0" width="8" style="clip-path:url(#clipPath8); stroke:none;" height="77" />
    </g>
    <g transform="translate(548,285)" style="font-size:11; stroke-linecap:butt; text-rendering:geometricPrecision; font-family:sans-serif; stroke-linejoin:round; stroke-miterlimit:0;">
      <rect x="0" y="0" width="8" style="clip-path:url(#clipPath8); fill:none;" height="77" />
    </g>
    <g transform="translate(552,335)" style="font-size:11; fill:rgb(122,207,245); text-rendering:geometricPrecision; font-family:sans-serif; stroke:rgb(122,207,245);">
      <rect x="0" y="0" width="8" style="clip-path:url(#clipPath7); stroke:none;" height="12" />
    </g>
    <g transform="translate(552,335)" style="font-size:11; stroke-linecap:butt; text-rendering:geometricPrecision; font-family:sans-serif; stroke-linejoin:round; stroke-miterlimit:0;">
      <rect x="0" y="0" width="8" style="clip-path:url(#clipPath7); fill:none;" height="12" />
    </g>
    <g transform="translate(363,285)" style="font-size:11; fill:rgb(122,207,245); text-rendering:geometricPrecision; font-family:sans-serif; stroke:rgb(122,207,245);">
      <rect x="0" y="0" width="8" style="clip-path:url(#clipPath9); stroke:none;" height="85" />
    </g>
    <g transform="translate(363,285)" style="font-size:11; stroke-linecap:butt; text-rendering:geometricPrecision; font-family:sans-serif; stroke-linejoin:round; stroke-miterlimit:0;">
      <rect x="0" y="0" width="8" style="clip-path:url(#clipPath9); fill:none;" height="85" />
    </g>
    <g transform="translate(12,175)" style="font-size:11; fill:white; text-rendering:geometricPrecision; font-family:sans-serif; stroke:white;">
      <rect x="28" y="5" width="70" style="clip-path:url(#clipPath10); stroke:none;" height="17" />
    </g>
    <g transform="translate(12,175)" style="font-size:11; stroke-linecap:butt; text-rendering:geometricPrecision; font-family:sans-serif; stroke-linejoin:bevel; stroke-dasharray:5,2; stroke-miterlimit:0;">
      <line x1="0" x2="659" y1="89" style="clip-path:url(#clipPath10); fill:none;" y2="89" />
    </g>
    <g style="text-rendering:geometricPrecision; font-size:11; font-family:sans-serif;" transform="translate(40,180)">
      <text x="10" y="14" style="clip-path:url(#clipPath11); stroke:none;" xml:space="preserve">[新增相簿]</text>
    </g>
    <g transform="translate(12,265)" style="font-size:11; fill:white; text-rendering:geometricPrecision; font-family:sans-serif; stroke:white;">
      <rect x="28" y="5" width="70" style="clip-path:url(#clipPath13); stroke:none;" height="17" />
    </g>
    <g style="text-rendering:geometricPrecision; font-size:11; font-family:sans-serif;" transform="translate(40,270)">
      <text x="10" y="14" style="clip-path:url(#clipPath11); stroke:none;" xml:space="preserve">[刪除相簿]</text>
    </g>
    <g style="text-rendering:geometricPrecision; font-size:14; font-family:&apos;Times New Roman&apos;;" transform="translate(522,35)">
      <text x="12" y="14" style="clip-path:url(#clipPath14); stroke:none;" xml:space="preserve">album</text>
    </g>
    <g style="text-rendering:geometricPrecision; font-size:14; font-family:&apos;標楷體&apos;;" transform="translate(322,35)">
      <text x="10" y="16" style="clip-path:url(#clipPath15); stroke:none;" xml:space="preserve">相簿管理UI</text>
    </g>
    <g style="text-rendering:geometricPrecision; font-size:14; font-family:&apos;標楷體&apos;;" transform="translate(98,70)">
      <text x="10" y="16" style="clip-path:url(#clipPath16); stroke:none;" xml:space="preserve">會員</text>
    </g>
    <g transform="translate(76,55)" style="font-size:14; stroke-linecap:butt; text-rendering:geometricPrecision; font-family:&apos;標楷體&apos;; stroke-linejoin:round;">
      <line x1="50" x2="287" y1="50" style="clip-path:url(#clipPath17); fill:none;" y2="50" />
      <polygon style="clip-path:url(#clipPath17); stroke:none;" points=" 287 50 275 44 275 56" />
      <polygon style="fill:none; clip-path:url(#clipPath17);" points=" 287 50 275 44 275 56" />
    </g>
    <g transform="translate(76,125)" style="font-size:14; stroke-linecap:butt; text-rendering:geometricPrecision; font-family:&apos;標楷體&apos;; stroke-linejoin:round;">
      <line x1="50" x2="287" y1="50" style="clip-path:url(#clipPath17); fill:none;" y2="50" />
      <polygon style="clip-path:url(#clipPath17); stroke:none;" points=" 287 50 275 44 275 56" />
      <polygon style="fill:none; clip-path:url(#clipPath17);" points=" 287 50 275 44 275 56" />
    </g>
    <g transform="translate(76,245)" style="font-size:14; stroke-linecap:butt; text-rendering:geometricPrecision; font-family:&apos;標楷體&apos;; stroke-linejoin:round;">
      <line x1="50" x2="287" y1="50" style="clip-path:url(#clipPath17); fill:none;" y2="50" />
      <polygon style="clip-path:url(#clipPath17); stroke:none;" points=" 287 50 275 44 275 56" />
      <polygon style="fill:none; clip-path:url(#clipPath17);" points=" 287 50 275 44 275 56" />
    </g>
    <g transform="translate(76,85)" style="font-size:14; stroke-linecap:butt; text-rendering:geometricPrecision; font-family:&apos;標楷體&apos;; stroke-linejoin:round; stroke-dasharray:8,3; stroke-miterlimit:0;">
      <line x1="287" x2="50" y1="50" style="clip-path:url(#clipPath17); fill:none;" y2="50" />
      <line x1="50" x2="62" y1="50" style="clip-path:url(#clipPath17); fill:none; stroke-dasharray:none; stroke-miterlimit:10;" y2="56" />
      <line x1="50" x2="62" y1="50" style="clip-path:url(#clipPath17); fill:none; stroke-dasharray:none; stroke-miterlimit:10;" y2="44" />
    </g>
    <g transform="translate(76,195)" style="font-size:14; stroke-linecap:butt; text-rendering:geometricPrecision; font-family:&apos;標楷體&apos;; stroke-linejoin:round; stroke-dasharray:8,3; stroke-miterlimit:0;">
      <line x1="287" x2="50" y1="50" style="clip-path:url(#clipPath17); fill:none;" y2="50" />
      <line x1="50" x2="62" y1="50" style="clip-path:url(#clipPath17); fill:none; stroke-dasharray:none; stroke-miterlimit:10;" y2="56" />
      <line x1="50" x2="62" y1="50" style="clip-path:url(#clipPath17); fill:none; stroke-dasharray:none; stroke-miterlimit:10;" y2="44" />
    </g>
    <g transform="translate(76,315)" style="font-size:14; stroke-linecap:butt; text-rendering:geometricPrecision; font-family:&apos;標楷體&apos;; stroke-linejoin:round; stroke-dasharray:8,3; stroke-miterlimit:0;">
      <line x1="287" x2="50" y1="50" style="clip-path:url(#clipPath17); fill:none;" y2="50" />
      <line x1="50" x2="62" y1="50" style="clip-path:url(#clipPath17); fill:none; stroke-dasharray:none; stroke-miterlimit:10;" y2="56" />
      <line x1="50" x2="62" y1="50" style="clip-path:url(#clipPath17); fill:none; stroke-dasharray:none; stroke-miterlimit:10;" y2="44" />
    </g>
    <g transform="translate(321,135)" style="font-size:14; stroke-linecap:butt; text-rendering:geometricPrecision; font-family:&apos;標楷體&apos;; stroke-linejoin:round;">
      <line x1="50" x2="227" y1="50" style="clip-path:url(#clipPath18); fill:none;" y2="50" />
      <polygon style="clip-path:url(#clipPath18); stroke:none;" points=" 227 50 215 44 215 56" />
      <polygon style="fill:none; clip-path:url(#clipPath18);" points=" 227 50 215 44 215 56" />
    </g>
    <g transform="translate(506,145)" style="font-size:14; stroke-linecap:butt; text-rendering:geometricPrecision; font-family:&apos;標楷體&apos;; stroke-linejoin:round;">
      <line x1="50" x2="76" y1="50" style="clip-path:url(#clipPath19); fill:none;" y2="50" />
      <line x1="76" x2="76" y1="50" style="clip-path:url(#clipPath19); fill:none;" y2="70" />
      <line x1="76" x2="54" y1="70" style="clip-path:url(#clipPath19); fill:none;" y2="70" />
      <polygon style="clip-path:url(#clipPath19); stroke:none;" points=" 54 70 66 76 66 64" />
      <polygon style="fill:none; clip-path:url(#clipPath19);" points=" 54 70 66 76 66 64" />
    </g>
    <g transform="translate(506,265)" style="font-size:14; stroke-linecap:butt; text-rendering:geometricPrecision; font-family:&apos;標楷體&apos;; stroke-linejoin:round;">
      <line x1="50" x2="76" y1="50" style="clip-path:url(#clipPath19); fill:none;" y2="50" />
      <line x1="76" x2="76" y1="50" style="clip-path:url(#clipPath19); fill:none;" y2="70" />
      <line x1="76" x2="54" y1="70" style="clip-path:url(#clipPath19); fill:none;" y2="70" />
      <polygon style="clip-path:url(#clipPath19); stroke:none;" points=" 54 70 66 76 66 64" />
      <polygon style="fill:none; clip-path:url(#clipPath19);" points=" 54 70 66 76 66 64" />
    </g>
    <g transform="translate(321,255)" style="font-size:14; stroke-linecap:butt; text-rendering:geometricPrecision; font-family:&apos;標楷體&apos;; stroke-linejoin:round;">
      <line x1="50" x2="227" y1="50" style="clip-path:url(#clipPath18); fill:none;" y2="50" />
      <polygon style="clip-path:url(#clipPath18); stroke:none;" points=" 227 50 215 44 215 56" />
      <polygon style="fill:none; clip-path:url(#clipPath18);" points=" 227 50 215 44 215 56" />
    </g>
    <g transform="translate(321,185)" style="font-size:14; stroke-linecap:butt; text-rendering:geometricPrecision; font-family:&apos;標楷體&apos;; stroke-linejoin:round; stroke-dasharray:8,3; stroke-miterlimit:0;">
      <line x1="227" x2="50" y1="50" style="clip-path:url(#clipPath18); fill:none;" y2="50" />
      <line x1="50" x2="62" y1="50" style="clip-path:url(#clipPath18); fill:none; stroke-dasharray:none; stroke-miterlimit:10;" y2="56" />
      <line x1="50" x2="62" y1="50" style="clip-path:url(#clipPath18); fill:none; stroke-dasharray:none; stroke-miterlimit:10;" y2="44" />
    </g>
    <g transform="translate(321,305)" style="font-size:14; stroke-linecap:butt; text-rendering:geometricPrecision; font-family:&apos;標楷體&apos;; stroke-linejoin:round; stroke-dasharray:8,3; stroke-miterlimit:0;">
      <line x1="227" x2="50" y1="50" style="clip-path:url(#clipPath18); fill:none;" y2="50" />
      <line x1="50" x2="62" y1="50" style="clip-path:url(#clipPath18); fill:none; stroke-dasharray:none; stroke-miterlimit:10;" y2="56" />
      <line x1="50" x2="62" y1="50" style="clip-path:url(#clipPath18); fill:none; stroke-dasharray:none; stroke-miterlimit:10;" y2="44" />
    </g>
    <g style="text-rendering:geometricPrecision; font-size:14; font-family:&apos;標楷體&apos;;" transform="translate(394,332)">
      <text x="10" y="16" style="clip-path:url(#clipPath20); stroke:none;" xml:space="preserve">回傳刪除成功訊息</text>
    </g>
    <g style="text-rendering:geometricPrecision; font-size:14; font-family:&apos;標楷體&apos;;" transform="translate(394,212)">
      <text x="10" y="16" style="clip-path:url(#clipPath20); stroke:none;" xml:space="preserve">回傳新增成功訊息</text>
    </g>
    <g style="text-rendering:geometricPrecision; font-size:14; font-family:&apos;標楷體&apos;;" transform="translate(421,282)">
      <text x="10" y="16" style="clip-path:url(#clipPath21); stroke:none;" xml:space="preserve">請求刪除</text>
    </g>
    <g style="text-rendering:geometricPrecision; font-size:14; font-family:&apos;標楷體&apos;;" transform="translate(582,315)">
      <text x="10" y="16" style="clip-path:url(#clipPath21); stroke:none;" xml:space="preserve">刪除成功</text>
    </g>
    <g style="text-rendering:geometricPrecision; font-size:14; font-family:&apos;標楷體&apos;;" transform="translate(582,195)">
      <text x="10" y="16" style="clip-path:url(#clipPath21); stroke:none;" xml:space="preserve">新增成功</text>
    </g>
    <g style="text-rendering:geometricPrecision; font-size:14; font-family:&apos;標楷體&apos;;" transform="translate(421,162)">
      <text x="10" y="16" style="clip-path:url(#clipPath21); stroke:none;" xml:space="preserve">請求新增</text>
    </g>
    <g style="text-rendering:geometricPrecision; font-size:14; font-family:&apos;標楷體&apos;;" transform="translate(140,342)">
      <text x="10" y="16" style="clip-path:url(#clipPath22); stroke:none;" xml:space="preserve">顯示刪除成功並刪除相片/相簿</text>
    </g>
    <g style="text-rendering:geometricPrecision; font-size:14; font-family:&apos;標楷體&apos;;" transform="translate(151,222)">
      <text x="10" y="16" style="clip-path:url(#clipPath23); stroke:none;" xml:space="preserve">顯示新增成功並新增於相簿</text>
    </g>
    <g style="text-rendering:geometricPrecision; font-size:14; font-family:&apos;標楷體&apos;;" transform="translate(207,112)">
      <text x="10" y="16" style="clip-path:url(#clipPath21); stroke:none;" xml:space="preserve">顯示相簿</text>
    </g>
    <g style="text-rendering:geometricPrecision; font-size:14; font-family:&apos;標楷體&apos;;" transform="translate(185,272)">
      <text x="10" y="16" style="clip-path:url(#clipPath24); stroke:none;" xml:space="preserve">刪除相簿或相片</text>
    </g>
    <g style="text-rendering:geometricPrecision; font-size:14; font-family:&apos;標楷體&apos;;" transform="translate(185,152)">
      <text x="10" y="16" style="clip-path:url(#clipPath24); stroke:none;" xml:space="preserve">新增相片或相簿</text>
    </g>
    <g style="text-rendering:geometricPrecision; font-size:14; font-family:&apos;標楷體&apos;;" transform="translate(206,82)">
      <text x="10" y="16" style="clip-path:url(#clipPath21); stroke:none;" xml:space="preserve">瀏覽相簿</text>
    </g>
    <g style="fill:rgb(120,120,120); text-rendering:geometricPrecision; font-size:10; stroke:rgb(120,120,120);">
    </g>
  </g>
</svg>
