<?xml version="1.0" encoding="UTF-8"?>

<!DOCTYPE svg PUBLIC '-//W3C//DTD SVG 1.0//EN' 'http://www.w3.org/TR/2001/REC-SVG-20010904/DTD/svg10.dtd'>
<svg style="fill-opacity:1; color-rendering:auto; color-interpolation:auto; stroke:black; text-rendering:auto; stroke-linecap:square; stroke-miterlimit:10; stroke-opacity:1; shape-rendering:auto; fill:black; stroke-dasharray:none; font-weight:normal; stroke-width:1; font-family:&apos;Dialog&apos;; font-style:normal; stroke-linejoin:miter; font-size:12; stroke-dashoffset:0; image-rendering:auto;" xmlns="http://www.w3.org/2000/svg" width="816" xmlns:xlink="http://www.w3.org/1999/xlink" height="689">
  <!--Generated by the Batik Graphics2D SVG Generator-->
  <defs id="genericDefs" />
  <g>
    <defs id="defs1">
      <clipPath clipPathUnits="userSpaceOnUse" id="clipPath1">
        <path d="M-3 -3 L67 -3 L67 647 L-3 647 L-3 -3 Z" />
      </clipPath>
      <clipPath clipPathUnits="userSpaceOnUse" id="clipPath2">
        <path d="M-3 -3 L107 -3 L107 647 L-3 647 L-3 -3 Z" />
      </clipPath>
      <clipPath clipPathUnits="userSpaceOnUse" id="clipPath3">
        <path d="M-3 -3 L14 -3 L14 71 L-3 71 L-3 -3 Z" />
      </clipPath>
      <clipPath clipPathUnits="userSpaceOnUse" id="clipPath4">
        <path d="M-3 -3 L77 -3 L77 647 L-3 647 L-3 -3 Z" />
      </clipPath>
      <clipPath clipPathUnits="userSpaceOnUse" id="clipPath5">
        <path d="M-3 -3 L15 -3 L15 77 L-3 77 L-3 -3 Z" />
      </clipPath>
      <clipPath clipPathUnits="userSpaceOnUse" id="clipPath6">
        <path d="M-3 -3 L797 -3 L797 486 L-3 486 L-3 -3 Z" />
      </clipPath>
      <clipPath clipPathUnits="userSpaceOnUse" id="clipPath7">
        <path d="M0 0 L23 0 L23 20 L0 20 L0 0 Z" />
      </clipPath>
      <clipPath clipPathUnits="userSpaceOnUse" id="clipPath8">
        <path d="M-3 -3 L14 -3 L14 108 L-3 108 L-3 -3 Z" />
      </clipPath>
      <clipPath clipPathUnits="userSpaceOnUse" id="clipPath9">
        <path d="M-3 -3 L14 -3 L14 107 L-3 107 L-3 -3 Z" />
      </clipPath>
      <clipPath clipPathUnits="userSpaceOnUse" id="clipPath10">
        <path d="M-3 -3 L14 -3 L14 98 L-3 98 L-3 -3 Z" />
      </clipPath>
      <clipPath clipPathUnits="userSpaceOnUse" id="clipPath11">
        <path d="M-3 -3 L15 -3 L15 18 L-3 18 L-3 -3 Z" />
      </clipPath>
      <clipPath clipPathUnits="userSpaceOnUse" id="clipPath12">
        <path d="M-3 -3 L14 -3 L14 75 L-3 75 L-3 -3 Z" />
      </clipPath>
      <clipPath clipPathUnits="userSpaceOnUse" id="clipPath13">
        <path d="M-3 -3 L15 -3 L15 85 L-3 85 L-3 -3 Z" />
      </clipPath>
      <clipPath clipPathUnits="userSpaceOnUse" id="clipPath14">
        <path d="M-3 -3 L797 -3 L797 127 L-3 127 L-3 -3 Z" />
      </clipPath>
      <clipPath clipPathUnits="userSpaceOnUse" id="clipPath15">
        <path d="M0 0 L70 0 L70 17 L0 17 L0 0 Z" />
      </clipPath>
      <clipPath clipPathUnits="userSpaceOnUse" id="clipPath16">
        <path d="M0 0 L0 4 L790 4 L790 0 Z" />
      </clipPath>
      <clipPath clipPathUnits="userSpaceOnUse" id="clipPath17">
        <path d="M-3 -3 L15 -3 L15 76 L-3 76 L-3 -3 Z" />
      </clipPath>
      <clipPath clipPathUnits="userSpaceOnUse" id="clipPath18">
        <path d="M-3 -3 L797 -3 L797 117 L-3 117 L-3 -3 Z" />
      </clipPath>
      <clipPath clipPathUnits="userSpaceOnUse" id="clipPath19">
        <path d="M-3 -3 L797 -3 L797 114 L-3 114 L-3 -3 Z" />
      </clipPath>
      <clipPath clipPathUnits="userSpaceOnUse" id="clipPath20">
        <path d="M0 0 L100 0 L100 18 L0 18 L0 0 Z" />
      </clipPath>
      <clipPath clipPathUnits="userSpaceOnUse" id="clipPath21">
        <path d="M0 0 L48 0 L48 18 L0 18 L0 0 Z" />
      </clipPath>
      <clipPath clipPathUnits="userSpaceOnUse" id="clipPath22">
        <path d="M0 0 L407 0 L407 104 L0 104 L0 0 Z" />
      </clipPath>
      <clipPath clipPathUnits="userSpaceOnUse" id="clipPath23">
        <path d="M0 0 L331 0 L331 104 L0 104 L0 0 Z" />
      </clipPath>
      <clipPath clipPathUnits="userSpaceOnUse" id="clipPath24">
        <path d="M0 0 L125 0 L125 124 L0 124 L0 0 Z" />
      </clipPath>
      <clipPath clipPathUnits="userSpaceOnUse" id="clipPath25">
        <path d="M0 0 L132 0 L132 18 L0 18 L0 0 Z" />
      </clipPath>
      <clipPath clipPathUnits="userSpaceOnUse" id="clipPath26">
        <path d="M0 0 L76 0 L76 18 L0 18 L0 0 Z" />
      </clipPath>
      <clipPath clipPathUnits="userSpaceOnUse" id="clipPath27">
        <path d="M0 0 L104 0 L104 18 L0 18 L0 0 Z" />
      </clipPath>
      <clipPath clipPathUnits="userSpaceOnUse" id="clipPath28">
        <path d="M0 0 L174 0 L174 18 L0 18 L0 0 Z" />
      </clipPath>
      <clipPath clipPathUnits="userSpaceOnUse" id="clipPath29">
        <path d="M0 0 L272 0 L272 18 L0 18 L0 0 Z" />
      </clipPath>
    </defs>
    <g style="fill:white; text-rendering:geometricPrecision; stroke:white;">
      <rect x="0" y="0" width="816" style="stroke:none;" height="689" />
      <rect x="78" y="38" transform="translate(-78,-38)" width="815" style="fill:none; stroke:black;" height="688" />
      <text x="85" y="57" transform="translate(-78,-38)" style="fill:black; stroke:none; font-weight:bold;" xml:space="preserve">sd</text>
      <text x="106" y="57" transform="translate(-78,-38)" style="fill:black; stroke:none;" xml:space="preserve">行事曆</text>
      <line transform="translate(-78,-38)" x1="78" x2="142" y1="64" style="fill:none; stroke:black;" y2="64" />
      <line transform="translate(-78,-38)" x1="148" x2="148" y1="38" style="fill:none; stroke:black;" y2="53" />
      <line transform="translate(-78,-38)" x1="148" x2="142" y1="53" style="fill:none; stroke:black;" y2="64" />
    </g>
    <g transform="translate(112,35)" style="font-size:14; fill:rgb(122,207,245); text-rendering:geometricPrecision; font-family:&apos;標楷體&apos;; stroke:rgb(122,207,245);">
      <circle style="clip-path:url(#clipPath1); stroke:none;" r="5" cx="30" cy="5" />
      <rect x="26" y="53" width="8" style="clip-path:url(#clipPath1); stroke:none;" height="586" />
    </g>
    <g transform="translate(112,35)" style="font-size:14; stroke-linecap:butt; text-rendering:geometricPrecision; font-family:&apos;標楷體&apos;; stroke-linejoin:round; stroke-miterlimit:0;">
      <circle style="fill:none; clip-path:url(#clipPath1);" r="5" cx="30" cy="5" />
      <rect x="26" y="53" width="8" style="clip-path:url(#clipPath1); fill:none;" height="586" />
      <line x1="30" x2="30" y1="10" style="clip-path:url(#clipPath1); fill:none;" y2="25" />
      <line x1="30" x2="21" y1="25" style="clip-path:url(#clipPath1); fill:none;" y2="36" />
      <line x1="30" x2="39" y1="25" style="clip-path:url(#clipPath1); fill:none;" y2="36" />
      <line x1="21" x2="39" y1="16" style="clip-path:url(#clipPath1); fill:none;" y2="16" />
    </g>
    <g transform="translate(402,35)" style="font-size:14; fill:rgb(122,207,245); text-rendering:geometricPrecision; font-family:&apos;標楷體&apos;; stroke:rgb(122,207,245);">
      <rect x="0" y="0" width="99" style="clip-path:url(#clipPath2); stroke:none;" height="35" />
    </g>
    <g transform="translate(402,35)" style="font-size:14; stroke-linecap:butt; text-rendering:geometricPrecision; font-family:&apos;標楷體&apos;; stroke-linejoin:round; stroke-miterlimit:0;">
      <rect x="0" y="0" width="99" style="clip-path:url(#clipPath2); fill:none;" height="35" />
      <line x1="49" x2="49" y1="35" style="clip-path:url(#clipPath2); fill:none; stroke-linejoin:bevel; stroke-dasharray:8,3;" y2="640" />
    </g>
    <g transform="translate(449,99)" style="font-size:14; fill:rgb(122,207,245); text-rendering:geometricPrecision; font-family:&apos;標楷體&apos;; stroke:rgb(122,207,245);">
      <rect x="0" y="0" width="7" style="clip-path:url(#clipPath3); stroke:none;" height="64" />
    </g>
    <g transform="translate(449,99)" style="font-size:14; stroke-linecap:butt; text-rendering:geometricPrecision; font-family:&apos;標楷體&apos;; stroke-linejoin:round; stroke-miterlimit:0;">
      <rect x="0" y="0" width="7" style="clip-path:url(#clipPath3); fill:none;" height="64" />
    </g>
    <g transform="translate(652,35)" style="font-size:14; fill:rgb(122,207,245); text-rendering:geometricPrecision; font-family:&apos;Times New Roman&apos;; stroke:rgb(122,207,245);">
      <rect x="0" y="0" width="69" style="clip-path:url(#clipPath4); stroke:none;" height="35" />
    </g>
    <g transform="translate(652,35)" style="font-size:14; stroke-linecap:butt; text-rendering:geometricPrecision; font-family:&apos;Times New Roman&apos;; stroke-linejoin:round; stroke-miterlimit:0;">
      <rect x="0" y="0" width="69" style="clip-path:url(#clipPath4); fill:none;" height="35" />
      <line x1="34" x2="34" y1="35" style="clip-path:url(#clipPath4); fill:none; stroke-linejoin:bevel; stroke-dasharray:8,3;" y2="640" />
    </g>
    <g transform="translate(683,89)" style="font-size:11; fill:rgb(122,207,245); text-rendering:geometricPrecision; font-family:sans-serif; stroke:rgb(122,207,245);">
      <rect x="0" y="0" width="8" style="clip-path:url(#clipPath5); stroke:none;" height="70" />
    </g>
    <g transform="translate(683,89)" style="font-size:11; stroke-linecap:butt; text-rendering:geometricPrecision; font-family:sans-serif; stroke-linejoin:round; stroke-miterlimit:0;">
      <rect x="0" y="0" width="8" style="clip-path:url(#clipPath5); fill:none;" height="70" />
    </g>
    <g transform="translate(12,175)" style="font-size:11; stroke-linecap:butt; text-rendering:geometricPrecision; font-family:sans-serif; stroke-linejoin:round; font-weight:bold; stroke-miterlimit:0;">
      <rect x="0" y="0" width="790" style="clip-path:url(#clipPath6); fill:none;" height="479" />
    </g>
    <g transform="translate(12,175)" style="font-size:11; fill:white; text-rendering:geometricPrecision; font-family:sans-serif; stroke:white; font-weight:bold;">
      <path d="M22 0 L22 10 L16 19 L0 19 L0 0 Z" style="clip-path:url(#clipPath6); stroke:none;" />
    </g>
    <g transform="translate(12,175)" style="font-size:11; stroke-linecap:butt; text-rendering:geometricPrecision; font-family:sans-serif; stroke-linejoin:round; font-weight:bold; stroke-miterlimit:0;">
      <path d="M22 0 L22 10 L16 19 L0 19 L0 0 Z" style="fill:none; clip-path:url(#clipPath6);" />
    </g>
    <g transform="translate(12,175)" style="text-rendering:geometricPrecision; font-size:11; font-weight:bold; font-family:sans-serif;">
      <text x="5" y="14" style="clip-path:url(#clipPath7); stroke:none;" xml:space="preserve">alt</text>
    </g>
    <g transform="translate(683,205)" style="font-size:11; fill:rgb(122,207,245); text-rendering:geometricPrecision; font-family:sans-serif; stroke:rgb(122,207,245);">
      <rect x="0" y="0" width="8" style="clip-path:url(#clipPath5); stroke:none;" height="70" />
    </g>
    <g transform="translate(683,205)" style="font-size:11; stroke-linecap:butt; text-rendering:geometricPrecision; font-family:sans-serif; stroke-linejoin:round; stroke-miterlimit:0;">
      <rect x="0" y="0" width="8" style="clip-path:url(#clipPath5); fill:none;" height="70" />
    </g>
    <g transform="translate(449,189)" style="font-size:11; fill:rgb(122,207,245); text-rendering:geometricPrecision; font-family:sans-serif; stroke:rgb(122,207,245);">
      <rect x="0" y="0" width="7" style="clip-path:url(#clipPath8); stroke:none;" height="101" />
    </g>
    <g transform="translate(449,189)" style="font-size:11; stroke-linecap:butt; text-rendering:geometricPrecision; font-family:sans-serif; stroke-linejoin:round; stroke-miterlimit:0;">
      <rect x="0" y="0" width="7" style="clip-path:url(#clipPath8); fill:none;" height="101" />
    </g>
    <g transform="translate(449,438)" style="font-size:11; fill:rgb(122,207,245); text-rendering:geometricPrecision; font-family:sans-serif; stroke:rgb(122,207,245);">
      <rect x="0" y="0" width="7" style="clip-path:url(#clipPath9); stroke:none;" height="100" />
    </g>
    <g transform="translate(449,438)" style="font-size:11; stroke-linecap:butt; text-rendering:geometricPrecision; font-family:sans-serif; stroke-linejoin:round; stroke-miterlimit:0;">
      <rect x="0" y="0" width="7" style="clip-path:url(#clipPath9); fill:none;" height="100" />
    </g>
    <g transform="translate(449,321)" style="font-size:11; fill:rgb(122,207,245); text-rendering:geometricPrecision; font-family:sans-serif; stroke:rgb(122,207,245);">
      <rect x="0" y="0" width="7" style="clip-path:url(#clipPath10); stroke:none;" height="91" />
    </g>
    <g transform="translate(449,321)" style="font-size:11; stroke-linecap:butt; text-rendering:geometricPrecision; font-family:sans-serif; stroke-linejoin:round; stroke-miterlimit:0;">
      <rect x="0" y="0" width="7" style="clip-path:url(#clipPath10); fill:none;" height="91" />
    </g>
    <g transform="translate(687,237)" style="font-size:11; fill:rgb(122,207,245); text-rendering:geometricPrecision; font-family:sans-serif; stroke:rgb(122,207,245);">
      <rect x="0" y="0" width="8" style="clip-path:url(#clipPath11); stroke:none;" height="11" />
    </g>
    <g transform="translate(687,237)" style="font-size:11; stroke-linecap:butt; text-rendering:geometricPrecision; font-family:sans-serif; stroke-linejoin:round; stroke-miterlimit:0;">
      <rect x="0" y="0" width="8" style="clip-path:url(#clipPath11); fill:none;" height="11" />
    </g>
    <g transform="translate(449,568)" style="font-size:11; fill:rgb(122,207,245); text-rendering:geometricPrecision; font-family:sans-serif; stroke:rgb(122,207,245);">
      <rect x="0" y="0" width="7" style="clip-path:url(#clipPath12); stroke:none;" height="68" />
    </g>
    <g transform="translate(449,568)" style="font-size:11; stroke-linecap:butt; text-rendering:geometricPrecision; font-family:sans-serif; stroke-linejoin:round; stroke-miterlimit:0;">
      <rect x="0" y="0" width="7" style="clip-path:url(#clipPath12); fill:none;" height="68" />
    </g>
    <g transform="translate(683,329)" style="font-size:11; fill:rgb(122,207,245); text-rendering:geometricPrecision; font-family:sans-serif; stroke:rgb(122,207,245);">
      <rect x="0" y="0" width="8" style="clip-path:url(#clipPath13); stroke:none;" height="78" />
    </g>
    <g transform="translate(683,329)" style="font-size:11; stroke-linecap:butt; text-rendering:geometricPrecision; font-family:sans-serif; stroke-linejoin:round; stroke-miterlimit:0;">
      <rect x="0" y="0" width="8" style="clip-path:url(#clipPath13); fill:none;" height="78" />
    </g>
    <g transform="translate(687,366)" style="font-size:11; fill:rgb(122,207,245); text-rendering:geometricPrecision; font-family:sans-serif; stroke:rgb(122,207,245);">
      <rect x="0" y="0" width="8" style="clip-path:url(#clipPath11); stroke:none;" height="11" />
    </g>
    <g transform="translate(687,366)" style="font-size:11; stroke-linecap:butt; text-rendering:geometricPrecision; font-family:sans-serif; stroke-linejoin:round; stroke-miterlimit:0;">
      <rect x="0" y="0" width="8" style="clip-path:url(#clipPath11); fill:none;" height="11" />
    </g>
    <g transform="translate(12,427)" style="font-size:11; fill:white; text-rendering:geometricPrecision; font-family:sans-serif; stroke:white;">
      <rect x="28" y="5" width="70" style="clip-path:url(#clipPath14); stroke:none;" height="17" />
    </g>
    <g transform="translate(12,427)" style="font-size:11; stroke-linecap:butt; text-rendering:geometricPrecision; font-family:sans-serif; stroke-linejoin:bevel; stroke-dasharray:5,2; stroke-miterlimit:0;">
      <line x1="0" x2="789" y1="119" style="clip-path:url(#clipPath14); fill:none;" y2="119" />
    </g>
    <g style="text-rendering:geometricPrecision; font-size:11; font-family:sans-serif;" transform="translate(40,432)">
      <text x="10" y="14" style="clip-path:url(#clipPath15); stroke:none;" xml:space="preserve">[修改行程]</text>
    </g>
    <g transform="translate(683,455)" style="font-size:11; fill:rgb(122,207,245); text-rendering:geometricPrecision; font-family:sans-serif; stroke:rgb(122,207,245);">
      <rect x="0" y="0" width="8" style="clip-path:url(#clipPath17); stroke:none;" height="69" />
    </g>
    <g transform="translate(683,455)" style="font-size:11; stroke-linecap:butt; text-rendering:geometricPrecision; font-family:sans-serif; stroke-linejoin:round; stroke-miterlimit:0;">
      <rect x="0" y="0" width="8" style="clip-path:url(#clipPath17); fill:none;" height="69" />
    </g>
    <g transform="translate(687,492)" style="font-size:11; fill:rgb(122,207,245); text-rendering:geometricPrecision; font-family:sans-serif; stroke:rgb(122,207,245);">
      <rect x="0" y="0" width="8" style="clip-path:url(#clipPath11); stroke:none;" height="11" />
    </g>
    <g transform="translate(687,492)" style="font-size:11; stroke-linecap:butt; text-rendering:geometricPrecision; font-family:sans-serif; stroke-linejoin:round; stroke-miterlimit:0;">
      <rect x="0" y="0" width="8" style="clip-path:url(#clipPath11); fill:none;" height="11" />
    </g>
    <g transform="translate(12,195)" style="font-size:11; fill:white; text-rendering:geometricPrecision; font-family:sans-serif; stroke:white;">
      <rect x="28" y="5" width="70" style="clip-path:url(#clipPath18); stroke:none;" height="17" />
    </g>
    <g transform="translate(12,195)" style="font-size:11; stroke-linecap:butt; text-rendering:geometricPrecision; font-family:sans-serif; stroke-linejoin:bevel; stroke-dasharray:5,2; stroke-miterlimit:0;">
      <line x1="0" x2="789" y1="109" style="clip-path:url(#clipPath18); fill:none;" y2="109" />
    </g>
    <g style="text-rendering:geometricPrecision; font-size:11; font-family:sans-serif;" transform="translate(40,200)">
      <text x="10" y="14" style="clip-path:url(#clipPath15); stroke:none;" xml:space="preserve">[新增行程]</text>
    </g>
    <g transform="translate(12,307)" style="font-size:11; fill:white; text-rendering:geometricPrecision; font-family:sans-serif; stroke:white;">
      <rect x="28" y="5" width="70" style="clip-path:url(#clipPath14); stroke:none;" height="17" />
    </g>
    <g transform="translate(12,307)" style="font-size:11; stroke-linecap:butt; text-rendering:geometricPrecision; font-family:sans-serif; stroke-linejoin:bevel; stroke-dasharray:5,2; stroke-miterlimit:0;">
      <line x1="0" x2="789" y1="119" style="clip-path:url(#clipPath14); fill:none;" y2="119" />
    </g>
    <g style="text-rendering:geometricPrecision; font-size:11; font-family:sans-serif;" transform="translate(40,312)">
      <text x="10" y="14" style="clip-path:url(#clipPath15); stroke:none;" xml:space="preserve">[刪除行程]</text>
    </g>
    <g transform="translate(12,547)" style="font-size:11; fill:white; text-rendering:geometricPrecision; font-family:sans-serif; stroke:white;">
      <rect x="28" y="5" width="70" style="clip-path:url(#clipPath19); stroke:none;" height="17" />
    </g>
    <g style="text-rendering:geometricPrecision; font-size:11; font-family:sans-serif;" transform="translate(40,552)">
      <text x="10" y="14" style="clip-path:url(#clipPath15); stroke:none;" xml:space="preserve">[查詢行程]</text>
    </g>
    <g style="text-rendering:geometricPrecision; font-size:14; font-family:&apos;Times New Roman&apos;;" transform="translate(652,35)">
      <text x="10" y="14" style="clip-path:url(#clipPath15); stroke:none;" xml:space="preserve">calendar</text>
    </g>
    <g style="text-rendering:geometricPrecision; font-size:14; font-family:&apos;標楷體&apos;;" transform="translate(402,35)">
      <text x="8" y="16" style="clip-path:url(#clipPath20); stroke:none;" xml:space="preserve">行事曆管理UI</text>
    </g>
    <g style="text-rendering:geometricPrecision; font-size:14; font-family:&apos;標楷體&apos;;" transform="translate(118,70)">
      <text x="10" y="16" style="clip-path:url(#clipPath21); stroke:none;" xml:space="preserve">會員</text>
    </g>
    <g transform="translate(96,55)" style="font-size:14; stroke-linecap:butt; text-rendering:geometricPrecision; font-family:&apos;標楷體&apos;; stroke-linejoin:round;">
      <line x1="50" x2="353" y1="50" style="clip-path:url(#clipPath22); fill:none;" y2="50" />
      <polygon style="clip-path:url(#clipPath22); stroke:none;" points=" 353 50 341 44 341 56" />
      <polygon style="fill:none; clip-path:url(#clipPath22);" points=" 353 50 341 44 341 56" />
    </g>
    <g transform="translate(96,285)" style="font-size:14; stroke-linecap:butt; text-rendering:geometricPrecision; font-family:&apos;標楷體&apos;; stroke-linejoin:round;">
      <line x1="50" x2="353" y1="50" style="clip-path:url(#clipPath22); fill:none;" y2="50" />
      <polygon style="clip-path:url(#clipPath22); stroke:none;" points=" 353 50 341 44 341 56" />
      <polygon style="fill:none; clip-path:url(#clipPath22);" points=" 353 50 341 44 341 56" />
    </g>
    <g transform="translate(96,405)" style="font-size:14; stroke-linecap:butt; text-rendering:geometricPrecision; font-family:&apos;標楷體&apos;; stroke-linejoin:round;">
      <line x1="50" x2="353" y1="50" style="clip-path:url(#clipPath22); fill:none;" y2="50" />
      <polygon style="clip-path:url(#clipPath22); stroke:none;" points=" 353 50 341 44 341 56" />
      <polygon style="fill:none; clip-path:url(#clipPath22);" points=" 353 50 341 44 341 56" />
    </g>
    <g transform="translate(96,155)" style="font-size:14; stroke-linecap:butt; text-rendering:geometricPrecision; font-family:&apos;標楷體&apos;; stroke-linejoin:round;">
      <line x1="50" x2="353" y1="50" style="clip-path:url(#clipPath22); fill:none;" y2="50" />
      <polygon style="clip-path:url(#clipPath22); stroke:none;" points=" 353 50 341 44 341 56" />
      <polygon style="fill:none; clip-path:url(#clipPath22);" points=" 353 50 341 44 341 56" />
    </g>
    <g transform="translate(96,535)" style="font-size:14; stroke-linecap:butt; text-rendering:geometricPrecision; font-family:&apos;標楷體&apos;; stroke-linejoin:round;">
      <line x1="50" x2="353" y1="50" style="clip-path:url(#clipPath22); fill:none;" y2="50" />
      <polygon style="clip-path:url(#clipPath22); stroke:none;" points=" 353 50 341 44 341 56" />
      <polygon style="fill:none; clip-path:url(#clipPath22);" points=" 353 50 341 44 341 56" />
    </g>
    <g transform="translate(96,105)" style="font-size:14; stroke-linecap:butt; text-rendering:geometricPrecision; font-family:&apos;標楷體&apos;; stroke-linejoin:round; stroke-dasharray:8,3; stroke-miterlimit:0;">
      <line x1="353" x2="50" y1="50" style="clip-path:url(#clipPath22); fill:none;" y2="50" />
      <line x1="50" x2="62" y1="50" style="clip-path:url(#clipPath22); fill:none; stroke-dasharray:none; stroke-miterlimit:10;" y2="56" />
      <line x1="50" x2="62" y1="50" style="clip-path:url(#clipPath22); fill:none; stroke-dasharray:none; stroke-miterlimit:10;" y2="44" />
    </g>
    <g transform="translate(96,355)" style="font-size:14; stroke-linecap:butt; text-rendering:geometricPrecision; font-family:&apos;標楷體&apos;; stroke-linejoin:round; stroke-dasharray:8,3; stroke-miterlimit:0;">
      <line x1="353" x2="50" y1="50" style="clip-path:url(#clipPath22); fill:none;" y2="50" />
      <line x1="50" x2="62" y1="50" style="clip-path:url(#clipPath22); fill:none; stroke-dasharray:none; stroke-miterlimit:10;" y2="56" />
      <line x1="50" x2="62" y1="50" style="clip-path:url(#clipPath22); fill:none; stroke-dasharray:none; stroke-miterlimit:10;" y2="44" />
    </g>
    <g transform="translate(96,475)" style="font-size:14; stroke-linecap:butt; text-rendering:geometricPrecision; font-family:&apos;標楷體&apos;; stroke-linejoin:round; stroke-dasharray:8,3; stroke-miterlimit:0;">
      <line x1="353" x2="50" y1="50" style="clip-path:url(#clipPath22); fill:none;" y2="50" />
      <line x1="50" x2="62" y1="50" style="clip-path:url(#clipPath22); fill:none; stroke-dasharray:none; stroke-miterlimit:10;" y2="56" />
      <line x1="50" x2="62" y1="50" style="clip-path:url(#clipPath22); fill:none; stroke-dasharray:none; stroke-miterlimit:10;" y2="44" />
    </g>
    <g transform="translate(96,225)" style="font-size:14; stroke-linecap:butt; text-rendering:geometricPrecision; font-family:&apos;標楷體&apos;; stroke-linejoin:round; stroke-dasharray:8,3; stroke-miterlimit:0;">
      <line x1="353" x2="50" y1="50" style="clip-path:url(#clipPath22); fill:none;" y2="50" />
      <line x1="50" x2="62" y1="50" style="clip-path:url(#clipPath22); fill:none; stroke-dasharray:none; stroke-miterlimit:10;" y2="56" />
      <line x1="50" x2="62" y1="50" style="clip-path:url(#clipPath22); fill:none; stroke-dasharray:none; stroke-miterlimit:10;" y2="44" />
    </g>
    <g transform="translate(96,575)" style="font-size:14; stroke-linecap:butt; text-rendering:geometricPrecision; font-family:&apos;標楷體&apos;; stroke-linejoin:round; stroke-dasharray:8,3; stroke-miterlimit:0;">
      <line x1="353" x2="50" y1="50" style="clip-path:url(#clipPath22); fill:none;" y2="50" />
      <line x1="50" x2="62" y1="50" style="clip-path:url(#clipPath22); fill:none; stroke-dasharray:none; stroke-miterlimit:10;" y2="56" />
      <line x1="50" x2="62" y1="50" style="clip-path:url(#clipPath22); fill:none; stroke-dasharray:none; stroke-miterlimit:10;" y2="44" />
    </g>
    <g transform="translate(406,65)" style="font-size:14; stroke-linecap:butt; text-rendering:geometricPrecision; font-family:&apos;標楷體&apos;; stroke-linejoin:round;">
      <line x1="50" x2="277" y1="50" style="clip-path:url(#clipPath23); fill:none;" y2="50" />
      <polygon style="clip-path:url(#clipPath23); stroke:none;" points=" 277 50 265 44 265 56" />
      <polygon style="fill:none; clip-path:url(#clipPath23);" points=" 277 50 265 44 265 56" />
    </g>
    <g transform="translate(406,165)" style="font-size:14; stroke-linecap:butt; text-rendering:geometricPrecision; font-family:&apos;標楷體&apos;; stroke-linejoin:round;">
      <line x1="50" x2="277" y1="50" style="clip-path:url(#clipPath23); fill:none;" y2="50" />
      <polygon style="clip-path:url(#clipPath23); stroke:none;" points=" 277 50 265 44 265 56" />
      <polygon style="fill:none; clip-path:url(#clipPath23);" points=" 277 50 265 44 265 56" />
    </g>
    <g transform="translate(641,175)" style="font-size:14; stroke-linecap:butt; text-rendering:geometricPrecision; font-family:&apos;標楷體&apos;; stroke-linejoin:round;">
      <line x1="50" x2="71" y1="50" style="clip-path:url(#clipPath24); fill:none;" y2="50" />
      <line x1="71" x2="71" y1="50" style="clip-path:url(#clipPath24); fill:none;" y2="70" />
      <line x1="71" x2="54" y1="70" style="clip-path:url(#clipPath24); fill:none;" y2="70" />
      <polygon style="clip-path:url(#clipPath24); stroke:none;" points=" 54 70 66 76 66 64" />
      <polygon style="fill:none; clip-path:url(#clipPath24);" points=" 54 70 66 76 66 64" />
    </g>
    <g transform="translate(406,295)" style="font-size:14; stroke-linecap:butt; text-rendering:geometricPrecision; font-family:&apos;標楷體&apos;; stroke-linejoin:round;">
      <line x1="50" x2="277" y1="50" style="clip-path:url(#clipPath23); fill:none;" y2="50" />
      <polygon style="clip-path:url(#clipPath23); stroke:none;" points=" 277 50 265 44 265 56" />
      <polygon style="fill:none; clip-path:url(#clipPath23);" points=" 277 50 265 44 265 56" />
    </g>
    <g transform="translate(641,305)" style="font-size:14; stroke-linecap:butt; text-rendering:geometricPrecision; font-family:&apos;標楷體&apos;; stroke-linejoin:round;">
      <line x1="50" x2="71" y1="50" style="clip-path:url(#clipPath24); fill:none;" y2="50" />
      <line x1="71" x2="71" y1="50" style="clip-path:url(#clipPath24); fill:none;" y2="70" />
      <line x1="71" x2="54" y1="70" style="clip-path:url(#clipPath24); fill:none;" y2="70" />
      <polygon style="clip-path:url(#clipPath24); stroke:none;" points=" 54 70 66 76 66 64" />
      <polygon style="fill:none; clip-path:url(#clipPath24);" points=" 54 70 66 76 66 64" />
    </g>
    <g transform="translate(406,415)" style="font-size:14; stroke-linecap:butt; text-rendering:geometricPrecision; font-family:&apos;標楷體&apos;; stroke-linejoin:round;">
      <line x1="50" x2="277" y1="50" style="clip-path:url(#clipPath23); fill:none;" y2="50" />
      <polygon style="clip-path:url(#clipPath23); stroke:none;" points=" 277 50 265 44 265 56" />
      <polygon style="fill:none; clip-path:url(#clipPath23);" points=" 277 50 265 44 265 56" />
    </g>
    <g transform="translate(641,425)" style="font-size:14; stroke-linecap:butt; text-rendering:geometricPrecision; font-family:&apos;標楷體&apos;; stroke-linejoin:round;">
      <line x1="50" x2="71" y1="50" style="clip-path:url(#clipPath24); fill:none;" y2="50" />
      <line x1="71" x2="71" y1="50" style="clip-path:url(#clipPath24); fill:none;" y2="70" />
      <line x1="71" x2="54" y1="70" style="clip-path:url(#clipPath24); fill:none;" y2="70" />
      <polygon style="clip-path:url(#clipPath24); stroke:none;" points=" 54 70 66 76 66 64" />
      <polygon style="fill:none; clip-path:url(#clipPath24);" points=" 54 70 66 76 66 64" />
    </g>
    <g transform="translate(406,95)" style="font-size:14; stroke-linecap:butt; text-rendering:geometricPrecision; font-family:&apos;標楷體&apos;; stroke-linejoin:round; stroke-dasharray:8,3; stroke-miterlimit:0;">
      <line x1="277" x2="50" y1="50" style="clip-path:url(#clipPath23); fill:none;" y2="50" />
      <line x1="50" x2="62" y1="50" style="clip-path:url(#clipPath23); fill:none; stroke-dasharray:none; stroke-miterlimit:10;" y2="56" />
      <line x1="50" x2="62" y1="50" style="clip-path:url(#clipPath23); fill:none; stroke-dasharray:none; stroke-miterlimit:10;" y2="44" />
    </g>
    <g transform="translate(406,215)" style="font-size:14; stroke-linecap:butt; text-rendering:geometricPrecision; font-family:&apos;標楷體&apos;; stroke-linejoin:round; stroke-dasharray:8,3; stroke-miterlimit:0;">
      <line x1="277" x2="50" y1="50" style="clip-path:url(#clipPath23); fill:none;" y2="50" />
      <line x1="50" x2="62" y1="50" style="clip-path:url(#clipPath23); fill:none; stroke-dasharray:none; stroke-miterlimit:10;" y2="56" />
      <line x1="50" x2="62" y1="50" style="clip-path:url(#clipPath23); fill:none; stroke-dasharray:none; stroke-miterlimit:10;" y2="44" />
    </g>
    <g transform="translate(406,345)" style="font-size:14; stroke-linecap:butt; text-rendering:geometricPrecision; font-family:&apos;標楷體&apos;; stroke-linejoin:round; stroke-dasharray:8,3; stroke-miterlimit:0;">
      <line x1="277" x2="50" y1="50" style="clip-path:url(#clipPath23); fill:none;" y2="50" />
      <line x1="50" x2="62" y1="50" style="clip-path:url(#clipPath23); fill:none; stroke-dasharray:none; stroke-miterlimit:10;" y2="56" />
      <line x1="50" x2="62" y1="50" style="clip-path:url(#clipPath23); fill:none; stroke-dasharray:none; stroke-miterlimit:10;" y2="44" />
    </g>
    <g transform="translate(406,465)" style="font-size:14; stroke-linecap:butt; text-rendering:geometricPrecision; font-family:&apos;標楷體&apos;; stroke-linejoin:round; stroke-dasharray:8,3; stroke-miterlimit:0;">
      <line x1="277" x2="50" y1="50" style="clip-path:url(#clipPath23); fill:none;" y2="50" />
      <line x1="50" x2="62" y1="50" style="clip-path:url(#clipPath23); fill:none; stroke-dasharray:none; stroke-miterlimit:10;" y2="56" />
      <line x1="50" x2="62" y1="50" style="clip-path:url(#clipPath23); fill:none; stroke-dasharray:none; stroke-miterlimit:10;" y2="44" />
    </g>
    <g style="text-rendering:geometricPrecision; font-size:14; font-family:&apos;標楷體&apos;;" transform="translate(504,492)">
      <text x="10" y="16" style="clip-path:url(#clipPath25); stroke:none;" xml:space="preserve">回傳修改行程成功</text>
    </g>
    <g style="text-rendering:geometricPrecision; font-size:14; font-family:&apos;標楷體&apos;;" transform="translate(504,372)">
      <text x="10" y="16" style="clip-path:url(#clipPath25); stroke:none;" xml:space="preserve">回傳刪除行程成功</text>
    </g>
    <g style="text-rendering:geometricPrecision; font-size:14; font-family:&apos;標楷體&apos;;" transform="translate(504,242)">
      <text x="10" y="16" style="clip-path:url(#clipPath25); stroke:none;" xml:space="preserve">回傳新增行程成功</text>
    </g>
    <g style="text-rendering:geometricPrecision; font-size:14; font-family:&apos;標楷體&apos;;" transform="translate(532,122)">
      <text x="10" y="16" style="clip-path:url(#clipPath26); stroke:none;" xml:space="preserve">回傳行程</text>
    </g>
    <g style="text-rendering:geometricPrecision; font-size:14; font-family:&apos;標楷體&apos;;" transform="translate(712,475)">
      <text x="10" y="16" style="clip-path:url(#clipPath26); stroke:none;" xml:space="preserve">更新成功</text>
    </g>
    <g style="text-rendering:geometricPrecision; font-size:14; font-family:&apos;標楷體&apos;;" transform="translate(517,442)">
      <text x="10" y="16" style="clip-path:url(#clipPath27); stroke:none;" xml:space="preserve">要求修改行程</text>
    </g>
    <g style="text-rendering:geometricPrecision; font-size:14; font-family:&apos;標楷體&apos;;" transform="translate(712,355)">
      <text x="10" y="16" style="clip-path:url(#clipPath26); stroke:none;" xml:space="preserve">更新成功</text>
    </g>
    <g style="text-rendering:geometricPrecision; font-size:14; font-family:&apos;標楷體&apos;;" transform="translate(517,322)">
      <text x="10" y="16" style="clip-path:url(#clipPath27); stroke:none;" xml:space="preserve">要求刪除行程</text>
    </g>
    <g style="text-rendering:geometricPrecision; font-size:14; font-family:&apos;標楷體&apos;;" transform="translate(712,225)">
      <text x="10" y="16" style="clip-path:url(#clipPath26); stroke:none;" xml:space="preserve">更新成功</text>
    </g>
    <g style="text-rendering:geometricPrecision; font-size:14; font-family:&apos;標楷體&apos;;" transform="translate(517,192)">
      <text x="10" y="16" style="clip-path:url(#clipPath27); stroke:none;" xml:space="preserve">要求新增行程</text>
    </g>
    <g style="text-rendering:geometricPrecision; font-size:14; font-family:&apos;標楷體&apos;;" transform="translate(531,92)">
      <text x="10" y="16" style="clip-path:url(#clipPath26); stroke:none;" xml:space="preserve">查詢行程</text>
    </g>
    <g style="text-rendering:geometricPrecision; font-size:14; font-family:&apos;標楷體&apos;;" transform="translate(211,602)">
      <text x="10" y="16" style="clip-path:url(#clipPath28); stroke:none;" xml:space="preserve">在行事曆顯示查詢的行程</text>
    </g>
    <g style="text-rendering:geometricPrecision; font-size:14; font-family:&apos;標楷體&apos;;" transform="translate(162,252)">
      <text x="10" y="16" style="clip-path:url(#clipPath29); stroke:none;" xml:space="preserve">回傳新增成功訊息並將行程新增於行事曆</text>
    </g>
    <g style="text-rendering:geometricPrecision; font-size:14; font-family:&apos;標楷體&apos;;" transform="translate(162,502)">
      <text x="10" y="16" style="clip-path:url(#clipPath29); stroke:none;" xml:space="preserve">回傳修改成功訊息並將行程於行事曆修改</text>
    </g>
    <g style="text-rendering:geometricPrecision; font-size:14; font-family:&apos;標楷體&apos;;" transform="translate(162,382)">
      <text x="10" y="16" style="clip-path:url(#clipPath29); stroke:none;" xml:space="preserve">回傳刪除成功訊息並將行程於行事曆刪除</text>
    </g>
    <g style="text-rendering:geometricPrecision; font-size:14; font-family:&apos;標楷體&apos;;" transform="translate(260,132)">
      <text x="10" y="16" style="clip-path:url(#clipPath26); stroke:none;" xml:space="preserve">顯示行程</text>
    </g>
    <g style="text-rendering:geometricPrecision; font-size:14; font-family:&apos;標楷體&apos;;" transform="translate(259,562)">
      <text x="10" y="16" style="clip-path:url(#clipPath26); stroke:none;" xml:space="preserve">查詢行程</text>
    </g>
    <g style="text-rendering:geometricPrecision; font-size:14; font-family:&apos;標楷體&apos;;" transform="translate(259,182)">
      <text x="10" y="16" style="clip-path:url(#clipPath26); stroke:none;" xml:space="preserve">新增行程</text>
    </g>
    <g style="text-rendering:geometricPrecision; font-size:14; font-family:&apos;標楷體&apos;;" transform="translate(259,432)">
      <text x="10" y="16" style="clip-path:url(#clipPath26); stroke:none;" xml:space="preserve">修改行程</text>
    </g>
    <g style="text-rendering:geometricPrecision; font-size:14; font-family:&apos;標楷體&apos;;" transform="translate(259,312)">
      <text x="10" y="16" style="clip-path:url(#clipPath26); stroke:none;" xml:space="preserve">刪除行程</text>
    </g>
    <g style="text-rendering:geometricPrecision; font-size:14; font-family:&apos;標楷體&apos;;" transform="translate(259,82)">
      <text x="10" y="16" style="clip-path:url(#clipPath26); stroke:none;" xml:space="preserve">瀏覽行程</text>
    </g>
    <g style="fill:rgb(120,120,120); text-rendering:geometricPrecision; font-size:10; stroke:rgb(120,120,120);">
    </g>
  </g>
</svg>
