<?xml version="1.0" encoding="UTF-8"?>

<!DOCTYPE svg PUBLIC '-//W3C//DTD SVG 1.0//EN' 'http://www.w3.org/TR/2001/REC-SVG-20010904/DTD/svg10.dtd'>
<svg style="fill-opacity:1; color-rendering:auto; color-interpolation:auto; stroke:black; text-rendering:auto; stroke-linecap:square; stroke-miterlimit:10; stroke-opacity:1; shape-rendering:auto; fill:black; stroke-dasharray:none; font-weight:normal; stroke-width:1; font-family:&apos;Dialog&apos;; font-style:normal; stroke-linejoin:miter; font-size:12; stroke-dashoffset:0; image-rendering:auto;" xmlns="http://www.w3.org/2000/svg" width="824" xmlns:xlink="http://www.w3.org/1999/xlink" height="414">
  <!--Generated by the Batik Graphics2D SVG Generator-->
  <defs id="genericDefs" />
  <g>
    <defs id="defs1">
      <clipPath clipPathUnits="userSpaceOnUse" id="clipPath1">
        <path d="M-3 -3 L827 -3 L827 417 L-3 417 L-3 -3 Z" />
      </clipPath>
      <clipPath clipPathUnits="userSpaceOnUse" id="clipPath2">
        <path d="M0 0 L0 399 L7 399 L7 0 Z" />
      </clipPath>
      <clipPath clipPathUnits="userSpaceOnUse" id="clipPath3">
        <path d="M-3 -3 L147 -3 L147 25 L-3 25 L-3 -3 Z" />
      </clipPath>
      <clipPath clipPathUnits="userSpaceOnUse" id="clipPath4">
        <path d="M0 0 L140 0 L140 18 L0 18 L0 0 Z" />
      </clipPath>
      <clipPath clipPathUnits="userSpaceOnUse" id="clipPath5">
        <path d="M-3 -3 L147 -3 L147 398 L-3 398 L-3 -3 Z" />
      </clipPath>
      <clipPath clipPathUnits="userSpaceOnUse" id="clipPath6">
        <path d="M-3 -3 L557 -3 L557 25 L-3 25 L-3 -3 Z" />
      </clipPath>
      <clipPath clipPathUnits="userSpaceOnUse" id="clipPath7">
        <path d="M0 0 L550 0 L550 18 L0 18 L0 0 Z" />
      </clipPath>
      <clipPath clipPathUnits="userSpaceOnUse" id="clipPath8">
        <path d="M-3 -3 L557 -3 L557 398 L-3 398 L-3 -3 Z" />
      </clipPath>
      <clipPath clipPathUnits="userSpaceOnUse" id="clipPath9">
        <path d="M-3 -3 L137 -3 L137 25 L-3 25 L-3 -3 Z" />
      </clipPath>
      <clipPath clipPathUnits="userSpaceOnUse" id="clipPath10">
        <path d="M0 0 L130 0 L130 18 L0 18 L0 0 Z" />
      </clipPath>
      <clipPath clipPathUnits="userSpaceOnUse" id="clipPath11">
        <path d="M-3 -3 L137 -3 L137 398 L-3 398 L-3 -3 Z" />
      </clipPath>
      <clipPath clipPathUnits="userSpaceOnUse" id="clipPath12">
        <path d="M-3 -3 L47 -3 L47 27 L-3 27 L-3 -3 Z" />
      </clipPath>
      <clipPath clipPathUnits="userSpaceOnUse" id="clipPath13">
        <path d="M-3 -3 L87 -3 L87 47 L-3 47 L-3 -3 Z" />
      </clipPath>
      <clipPath clipPathUnits="userSpaceOnUse" id="clipPath14">
        <path d="M0 0 L80 0 L80 40 L0 40 L0 0 Z" />
      </clipPath>
      <clipPath clipPathUnits="userSpaceOnUse" id="clipPath15">
        <path d="M-3 -3 L27 -3 L27 47 L-3 47 L-3 -3 Z" />
      </clipPath>
      <clipPath clipPathUnits="userSpaceOnUse" id="clipPath16">
        <path d="M-3 -3 L28 -3 L28 47 L-3 47 L-3 -3 Z" />
      </clipPath>
      <clipPath clipPathUnits="userSpaceOnUse" id="clipPath17">
        <path d="M-3 -3 L27 -3 L27 27 L-3 27 L-3 -3 Z" />
      </clipPath>
      <clipPath clipPathUnits="userSpaceOnUse" id="clipPath18">
        <path d="M0 0 L130 0 L130 391 L0 391 L0 0 Z" />
      </clipPath>
      <clipPath clipPathUnits="userSpaceOnUse" id="clipPath19">
        <path d="M0 0 L550 0 L550 391 L0 391 L0 0 Z" />
      </clipPath>
      <clipPath clipPathUnits="userSpaceOnUse" id="clipPath20">
        <path d="M0 0 L140 0 L140 391 L0 391 L0 0 Z" />
      </clipPath>
      <clipPath clipPathUnits="userSpaceOnUse" id="clipPath21">
        <path d="M0 0 L129 0 L129 182 L0 182 L0 0 Z" />
      </clipPath>
      <clipPath clipPathUnits="userSpaceOnUse" id="clipPath22">
        <path d="M0 0 L129 0 L129 212 L0 212 L0 0 Z" />
      </clipPath>
      <clipPath clipPathUnits="userSpaceOnUse" id="clipPath23">
        <path d="M0 0 L224 0 L224 129 L0 129 L0 0 Z" />
      </clipPath>
      <clipPath clipPathUnits="userSpaceOnUse" id="clipPath24">
        <path d="M0 0 L164 0 L164 129 L0 129 L0 0 Z" />
      </clipPath>
      <clipPath clipPathUnits="userSpaceOnUse" id="clipPath25">
        <path d="M0 0 L164 0 L164 155 L0 155 L0 0 Z" />
      </clipPath>
      <clipPath clipPathUnits="userSpaceOnUse" id="clipPath26">
        <path d="M0 0 L165 0 L165 156 L0 156 L0 0 Z" />
      </clipPath>
      <clipPath clipPathUnits="userSpaceOnUse" id="clipPath27">
        <path d="M0 0 L471 0 L471 129 L0 129 L0 0 Z" />
      </clipPath>
      <clipPath clipPathUnits="userSpaceOnUse" id="clipPath28">
        <path d="M0 0 L212 0 L212 129 L0 129 L0 0 Z" />
      </clipPath>
      <clipPath clipPathUnits="userSpaceOnUse" id="clipPath29">
        <path d="M0 0 L215 0 L215 181 L0 181 L0 0 Z" />
      </clipPath>
      <clipPath clipPathUnits="userSpaceOnUse" id="clipPath30">
        <path d="M0 0 L339 0 L339 150 L0 150 L0 0 Z" />
      </clipPath>
      <clipPath clipPathUnits="userSpaceOnUse" id="clipPath31">
        <path d="M0 0 L502 0 L502 194 L0 194 L0 0 Z" />
      </clipPath>
      <clipPath clipPathUnits="userSpaceOnUse" id="clipPath32">
        <path d="M0 0 L90 0 L90 18 L0 18 L0 0 Z" />
      </clipPath>
    </defs>
    <g style="fill:white; text-rendering:geometricPrecision; stroke:white;">
      <rect x="0" y="0" width="824" style="stroke:none;" height="414" />
    </g>
    <g style="text-rendering:geometricPrecision; stroke-width:2; font-size:14; font-family:&apos;標楷體&apos;;">
      <rect x="0" y="0" width="140" style="clip-path:url(#clipPath3); fill:none;" height="18" />
    </g>
    <g style="text-rendering:geometricPrecision; font-size:14; font-family:&apos;標楷體&apos;;">
      <text x="56" y="16" style="clip-path:url(#clipPath4); stroke:none;" xml:space="preserve">會員</text>
    </g>
    <g transform="translate(0,18)" style="text-rendering:geometricPrecision; stroke-width:2; font-size:11; font-family:sans-serif;">
      <rect x="0" y="0" width="140" style="clip-path:url(#clipPath5); fill:none;" height="391" />
    </g>
    <g transform="translate(140,0)" style="text-rendering:geometricPrecision; stroke-width:2; font-size:14; font-family:&apos;標楷體&apos;;">
      <rect x="0" y="0" width="550" style="clip-path:url(#clipPath6); fill:none;" height="18" />
    </g>
    <g style="text-rendering:geometricPrecision; font-size:14; font-family:&apos;標楷體&apos;;" transform="translate(140,0)">
      <text x="247" y="16" style="clip-path:url(#clipPath7); stroke:none;" xml:space="preserve">相簿管理</text>
    </g>
    <g transform="translate(140,18)" style="text-rendering:geometricPrecision; stroke-width:2; font-size:11; font-family:sans-serif;">
      <rect x="0" y="0" width="550" style="clip-path:url(#clipPath8); fill:none;" height="391" />
    </g>
    <g transform="translate(690,0)" style="text-rendering:geometricPrecision; stroke-width:2; font-size:14; font-family:&apos;標楷體&apos;;">
      <rect x="0" y="0" width="130" style="clip-path:url(#clipPath9); fill:none;" height="18" />
    </g>
    <g style="text-rendering:geometricPrecision; font-size:14; font-family:&apos;標楷體&apos;;" transform="translate(690,0)">
      <text x="44" y="16" style="clip-path:url(#clipPath10); stroke:none;" xml:space="preserve">資料庫</text>
    </g>
    <g transform="translate(690,18)" style="text-rendering:geometricPrecision; stroke-width:2; font-size:11; font-family:sans-serif;">
      <rect x="0" y="0" width="130" style="clip-path:url(#clipPath11); fill:none;" height="391" />
    </g>
    <g style="text-rendering:geometricPrecision; font-size:11; font-family:sans-serif;" transform="translate(50,40)">
      <circle style="clip-path:url(#clipPath12); stroke:none;" r="10" cx="20" cy="10" />
    </g>
    <g transform="translate(30,110)" style="font-size:14; fill:rgb(122,207,245); text-rendering:geometricPrecision; font-family:&apos;標楷體&apos;; stroke:rgb(122,207,245);">
      <rect x="1" y="1" width="78" style="clip-path:url(#clipPath13); stroke:none;" rx="15" ry="15" height="38" />
    </g>
    <g transform="translate(30,110)" style="font-size:14; stroke-linecap:butt; text-rendering:geometricPrecision; font-family:&apos;標楷體&apos;; stroke-linejoin:round; stroke-miterlimit:0;">
      <rect x="1" y="1" width="78" style="clip-path:url(#clipPath13); fill:none;" rx="15" ry="15" height="38" />
    </g>
    <g style="text-rendering:geometricPrecision; font-size:14; font-family:&apos;標楷體&apos;;" transform="translate(30,110)">
      <text x="12" y="27" style="clip-path:url(#clipPath14); stroke:none;" xml:space="preserve">登入會員</text>
    </g>
    <g transform="translate(60,220)" style="font-size:11; fill:rgb(122,207,245); text-rendering:geometricPrecision; font-family:sans-serif; stroke:rgb(122,207,245);">
      <polygon style="clip-path:url(#clipPath15); stroke:none;" points=" 10 7 17 20 10 32 3 20" />
    </g>
    <g transform="translate(60,220)" style="font-size:11; stroke-linecap:butt; text-rendering:geometricPrecision; font-family:sans-serif; stroke-linejoin:round; stroke-miterlimit:0;">
      <polygon style="fill:none; clip-path:url(#clipPath15);" points=" 10 7 17 20 10 32 3 20" />
    </g>
    <g transform="translate(170,220)" style="font-size:14; fill:rgb(122,207,245); text-rendering:geometricPrecision; font-family:&apos;標楷體&apos;; stroke:rgb(122,207,245);">
      <rect x="1" y="1" width="78" style="clip-path:url(#clipPath13); stroke:none;" rx="15" ry="15" height="38" />
    </g>
    <g transform="translate(170,220)" style="font-size:14; stroke-linecap:butt; text-rendering:geometricPrecision; font-family:&apos;標楷體&apos;; stroke-linejoin:round; stroke-miterlimit:0;">
      <rect x="1" y="1" width="78" style="clip-path:url(#clipPath13); fill:none;" rx="15" ry="15" height="38" />
    </g>
    <g style="text-rendering:geometricPrecision; font-size:14; font-family:&apos;標楷體&apos;;" transform="translate(170,220)">
      <text x="12" y="27" style="clip-path:url(#clipPath14); stroke:none;" xml:space="preserve">查看相簿</text>
    </g>
    <g transform="translate(280,220)" style="font-size:11; fill:rgb(122,207,245); text-rendering:geometricPrecision; font-family:sans-serif; stroke:rgb(122,207,245);">
      <polygon style="clip-path:url(#clipPath16); stroke:none;" points=" 10 7 18 20 10 32 3 20" />
    </g>
    <g transform="translate(280,220)" style="font-size:11; stroke-linecap:butt; text-rendering:geometricPrecision; font-family:sans-serif; stroke-linejoin:round; stroke-miterlimit:0;">
      <polygon style="fill:none; clip-path:url(#clipPath16);" points=" 10 7 18 20 10 32 3 20" />
    </g>
    <g transform="translate(330,250)" style="font-size:14; fill:rgb(122,207,245); text-rendering:geometricPrecision; font-family:&apos;標楷體&apos;; stroke:rgb(122,207,245);">
      <rect x="1" y="1" width="78" style="clip-path:url(#clipPath13); stroke:none;" rx="15" ry="15" height="38" />
    </g>
    <g transform="translate(330,250)" style="font-size:14; stroke-linecap:butt; text-rendering:geometricPrecision; font-family:&apos;標楷體&apos;; stroke-linejoin:round; stroke-miterlimit:0;">
      <rect x="1" y="1" width="78" style="clip-path:url(#clipPath13); fill:none;" rx="15" ry="15" height="38" />
    </g>
    <g style="text-rendering:geometricPrecision; font-size:14; font-family:&apos;標楷體&apos;;" transform="translate(330,250)">
      <text x="12" y="27" style="clip-path:url(#clipPath14); stroke:none;" xml:space="preserve">刪除相簿</text>
    </g>
    <g transform="translate(330,190)" style="font-size:14; fill:rgb(122,207,245); text-rendering:geometricPrecision; font-family:&apos;標楷體&apos;; stroke:rgb(122,207,245);">
      <rect x="1" y="1" width="78" style="clip-path:url(#clipPath13); stroke:none;" rx="15" ry="15" height="38" />
    </g>
    <g transform="translate(330,190)" style="font-size:14; stroke-linecap:butt; text-rendering:geometricPrecision; font-family:&apos;標楷體&apos;; stroke-linejoin:round; stroke-miterlimit:0;">
      <rect x="1" y="1" width="78" style="clip-path:url(#clipPath13); fill:none;" rx="15" ry="15" height="38" />
    </g>
    <g style="text-rendering:geometricPrecision; font-size:14; font-family:&apos;標楷體&apos;;" transform="translate(330,190)">
      <text x="12" y="27" style="clip-path:url(#clipPath14); stroke:none;" xml:space="preserve">新增相簿</text>
    </g>
    <g style="text-rendering:geometricPrecision; font-size:11; font-family:sans-serif;" transform="translate(750,260)">
      <circle style="clip-path:url(#clipPath17); stroke:none;" r="6.6667" cx="10" cy="10" />
      <circle style="stroke-linecap:butt; clip-path:url(#clipPath17); fill:none; stroke-linejoin:round; stroke-miterlimit:0;" r="10" cx="10" cy="10" />
    </g>
    <g transform="translate(440,190)" style="font-size:11; fill:rgb(122,207,245); text-rendering:geometricPrecision; font-family:sans-serif; stroke:rgb(122,207,245);">
      <polygon style="clip-path:url(#clipPath16); stroke:none;" points=" 10 7 18 20 10 32 3 20" />
    </g>
    <g transform="translate(440,190)" style="font-size:11; stroke-linecap:butt; text-rendering:geometricPrecision; font-family:sans-serif; stroke-linejoin:round; stroke-miterlimit:0;">
      <polygon style="fill:none; clip-path:url(#clipPath16);" points=" 10 7 18 20 10 32 3 20" />
    </g>
    <g transform="translate(540,190)" style="font-size:14; fill:rgb(122,207,245); text-rendering:geometricPrecision; font-family:&apos;標楷體&apos;; stroke:rgb(122,207,245);">
      <rect x="1" y="1" width="78" style="clip-path:url(#clipPath13); stroke:none;" rx="15" ry="15" height="38" />
    </g>
    <g transform="translate(540,190)" style="font-size:14; stroke-linecap:butt; text-rendering:geometricPrecision; font-family:&apos;標楷體&apos;; stroke-linejoin:round; stroke-miterlimit:0;">
      <rect x="1" y="1" width="78" style="clip-path:url(#clipPath13); fill:none;" rx="15" ry="15" height="38" />
    </g>
    <g style="text-rendering:geometricPrecision; font-size:14; font-family:&apos;標楷體&apos;;" transform="translate(540,190)">
      <text x="12" y="27" style="clip-path:url(#clipPath14); stroke:none;" xml:space="preserve">選擇相片</text>
    </g>
    <g transform="translate(650,190)" style="font-size:11; fill:rgb(122,207,245); text-rendering:geometricPrecision; font-family:sans-serif; stroke:rgb(122,207,245);">
      <polygon style="clip-path:url(#clipPath16); stroke:none;" points=" 10 7 18 20 10 32 3 20" />
    </g>
    <g transform="translate(650,190)" style="font-size:11; stroke-linecap:butt; text-rendering:geometricPrecision; font-family:sans-serif; stroke-linejoin:round; stroke-miterlimit:0;">
      <polygon style="fill:none; clip-path:url(#clipPath16);" points=" 10 7 18 20 10 32 3 20" />
    </g>
    <g transform="translate(8,-4)" style="font-size:11; stroke-linecap:butt; text-rendering:geometricPrecision; font-family:sans-serif; stroke-linejoin:round;">
      <line x1="63" x2="63" y1="63" style="clip-path:url(#clipPath21); fill:none;" y2="115" />
      <line x1="63" x2="69" y1="115" style="clip-path:url(#clipPath21); fill:none;" y2="103" />
      <line x1="63" x2="57" y1="115" style="clip-path:url(#clipPath21); fill:none;" y2="103" />
    </g>
    <g transform="translate(8,86)" style="font-size:11; stroke-linecap:butt; text-rendering:geometricPrecision; font-family:sans-serif; stroke-linejoin:round;">
      <line x1="63" x2="63" y1="63" style="clip-path:url(#clipPath22); fill:none;" y2="145" />
      <line x1="63" x2="69" y1="145" style="clip-path:url(#clipPath22); fill:none;" y2="133" />
      <line x1="63" x2="57" y1="145" style="clip-path:url(#clipPath22); fill:none;" y2="133" />
    </g>
    <g transform="translate(13,177)" style="font-size:11; stroke-linecap:butt; text-rendering:geometricPrecision; font-family:sans-serif; stroke-linejoin:round;">
      <line x1="63" x2="158" y1="63" style="clip-path:url(#clipPath23); fill:none;" y2="63" />
      <line x1="158" x2="146" y1="63" style="clip-path:url(#clipPath23); fill:none;" y2="57" />
      <line x1="158" x2="146" y1="63" style="clip-path:url(#clipPath23); fill:none;" y2="69" />
    </g>
    <g transform="translate(186,177)" style="font-size:11; stroke-linecap:butt; text-rendering:geometricPrecision; font-family:sans-serif; stroke-linejoin:round;">
      <line x1="62" x2="97" y1="63" style="clip-path:url(#clipPath24); fill:none;" y2="63" />
      <line x1="97" x2="85" y1="63" style="clip-path:url(#clipPath24); fill:none;" y2="57" />
      <line x1="97" x2="85" y1="63" style="clip-path:url(#clipPath24); fill:none;" y2="69" />
    </g>
    <g transform="translate(232,181)" style="font-size:11; stroke-linecap:butt; text-rendering:geometricPrecision; font-family:sans-serif; stroke-linejoin:round;">
      <line x1="63" x2="98" y1="62" style="clip-path:url(#clipPath25); fill:none;" y2="89" />
      <line x1="98" x2="92" y1="89" style="clip-path:url(#clipPath25); fill:none;" y2="77" />
      <line x1="98" x2="85" y1="89" style="clip-path:url(#clipPath25); fill:none;" y2="87" />
    </g>
    <g transform="translate(231,147)" style="font-size:11; stroke-linecap:butt; text-rendering:geometricPrecision; font-family:sans-serif; stroke-linejoin:round;">
      <line x1="62" x2="99" y1="90" style="clip-path:url(#clipPath26); fill:none;" y2="63" />
      <line x1="99" x2="85" y1="63" style="clip-path:url(#clipPath26); fill:none;" y2="64" />
      <line x1="99" x2="92" y1="63" style="clip-path:url(#clipPath26); fill:none;" y2="74" />
    </g>
    <g transform="translate(346,207)" style="font-size:11; stroke-linecap:butt; text-rendering:geometricPrecision; font-family:sans-serif; stroke-linejoin:round;">
      <line x1="62" x2="405" y1="63" style="clip-path:url(#clipPath27); fill:none;" y2="63" />
      <line x1="405" x2="393" y1="63" style="clip-path:url(#clipPath27); fill:none;" y2="57" />
      <line x1="405" x2="393" y1="63" style="clip-path:url(#clipPath27); fill:none;" y2="69" />
    </g>
    <g transform="translate(346,147)" style="font-size:11; stroke-linecap:butt; text-rendering:geometricPrecision; font-family:sans-serif; stroke-linejoin:round;">
      <line x1="62" x2="97" y1="63" style="clip-path:url(#clipPath24); fill:none;" y2="63" />
      <line x1="97" x2="85" y1="63" style="clip-path:url(#clipPath24); fill:none;" y2="57" />
      <line x1="97" x2="85" y1="63" style="clip-path:url(#clipPath24); fill:none;" y2="69" />
    </g>
    <g transform="translate(395,147)" style="font-size:14; stroke-linecap:butt; text-rendering:geometricPrecision; font-family:&apos;標楷體&apos;; stroke-linejoin:round;">
      <line x1="62" x2="146" y1="63" style="clip-path:url(#clipPath28); fill:none;" y2="63" />
      <line x1="146" x2="134" y1="63" style="clip-path:url(#clipPath28); fill:none;" y2="57" />
      <line x1="146" x2="134" y1="63" style="clip-path:url(#clipPath28); fill:none;" y2="69" />
    </g>
    <g transform="translate(556,147)" style="font-size:11; stroke-linecap:butt; text-rendering:geometricPrecision; font-family:sans-serif; stroke-linejoin:round;">
      <line x1="62" x2="97" y1="63" style="clip-path:url(#clipPath24); fill:none;" y2="63" />
      <line x1="97" x2="85" y1="63" style="clip-path:url(#clipPath24); fill:none;" y2="57" />
      <line x1="97" x2="85" y1="63" style="clip-path:url(#clipPath24); fill:none;" y2="69" />
    </g>
    <g transform="translate(603,151)" style="font-size:14; stroke-linecap:butt; text-rendering:geometricPrecision; font-family:&apos;標楷體&apos;; stroke-linejoin:round;">
      <line x1="63" x2="149" y1="62" style="clip-path:url(#clipPath29); fill:none;" y2="115" />
      <line x1="149" x2="142" y1="115" style="clip-path:url(#clipPath29); fill:none;" y2="103" />
      <line x1="149" x2="136" y1="115" style="clip-path:url(#clipPath29); fill:none;" y2="114" />
    </g>
    <g transform="translate(387,156)" style="font-size:14; stroke-linecap:butt; text-rendering:geometricPrecision; font-family:&apos;標楷體&apos;; stroke-linejoin:round;">
      <line x1="273" x2="273" y1="62" style="clip-path:url(#clipPath30); fill:none;" y2="84" />
      <line x1="273" x2="63" y1="84" style="clip-path:url(#clipPath30); fill:none;" y2="84" />
      <line x1="63" x2="63" y1="84" style="clip-path:url(#clipPath30); fill:none;" y2="62" />
      <line x1="63" x2="57" y1="62" style="clip-path:url(#clipPath30); fill:none;" y2="74" />
      <line x1="63" x2="69" y1="62" style="clip-path:url(#clipPath30); fill:none;" y2="74" />
    </g>
    <g transform="translate(11,107)" style="font-size:14; stroke-linecap:butt; text-rendering:geometricPrecision; font-family:&apos;標楷體&apos;; stroke-linejoin:round;">
      <line x1="436" x2="409" y1="99" style="clip-path:url(#clipPath31); fill:none;" y2="63" />
      <line x1="409" x2="109" y1="63" style="clip-path:url(#clipPath31); fill:none;" y2="63" />
      <line x1="109" x2="62" y1="63" style="clip-path:url(#clipPath31); fill:none;" y2="128" />
      <line x1="62" x2="73" y1="128" style="clip-path:url(#clipPath31); fill:none;" y2="121" />
      <line x1="62" x2="63" y1="128" style="clip-path:url(#clipPath31); fill:none;" y2="114" />
    </g>
    <g style="text-rendering:geometricPrecision; font-size:14; font-family:&apos;標楷體&apos;;" transform="translate(205,150)">
      <text x="10" y="16" style="clip-path:url(#clipPath32); stroke:none;" xml:space="preserve">[新增失敗]</text>
    </g>
    <g style="text-rendering:geometricPrecision; font-size:14; font-family:&apos;標楷體&apos;;" transform="translate(512,240)">
      <text x="10" y="16" style="clip-path:url(#clipPath32); stroke:none;" xml:space="preserve">[新增失敗]</text>
    </g>
    <g style="text-rendering:geometricPrecision; font-size:14; font-family:&apos;標楷體&apos;;" transform="translate(690,220)">
      <text x="10" y="16" style="clip-path:url(#clipPath32); stroke:none;" xml:space="preserve">[新增成功]</text>
    </g>
    <g style="text-rendering:geometricPrecision; font-size:14; font-family:&apos;標楷體&apos;;" transform="translate(448,190)">
      <text x="10" y="16" style="clip-path:url(#clipPath32); stroke:none;" xml:space="preserve">[新增成功]</text>
    </g>
    <g style="fill:rgb(120,120,120); text-rendering:geometricPrecision; font-size:10; stroke:rgb(120,120,120);">
    </g>
  </g>
</svg>
