<?xml version="1.0" encoding="UTF-8"?>

<!DOCTYPE svg PUBLIC '-//W3C//DTD SVG 1.0//EN' 'http://www.w3.org/TR/2001/REC-SVG-20010904/DTD/svg10.dtd'>
<svg style="fill-opacity:1; color-rendering:auto; color-interpolation:auto; stroke:black; text-rendering:auto; stroke-linecap:square; stroke-miterlimit:10; stroke-opacity:1; shape-rendering:auto; fill:black; stroke-dasharray:none; font-weight:normal; stroke-width:1; font-family:&apos;Dialog&apos;; font-style:normal; stroke-linejoin:miter; font-size:12; stroke-dashoffset:0; image-rendering:auto;" xmlns="http://www.w3.org/2000/svg" width="836" xmlns:xlink="http://www.w3.org/1999/xlink" height="386">
  <!--Generated by the Batik Graphics2D SVG Generator-->
  <defs id="genericDefs" />
  <g>
    <defs id="defs1">
      <clipPath clipPathUnits="userSpaceOnUse" id="clipPath1">
        <path d="M-3 -3 L837 -3 L837 387 L-3 387 L-3 -3 Z" />
      </clipPath>
      <clipPath clipPathUnits="userSpaceOnUse" id="clipPath2">
        <path d="M0 0 L0 369 L7 369 L7 0 Z" />
      </clipPath>
      <clipPath clipPathUnits="userSpaceOnUse" id="clipPath3">
        <path d="M-3 -3 L147 -3 L147 25 L-3 25 L-3 -3 Z" />
      </clipPath>
      <clipPath clipPathUnits="userSpaceOnUse" id="clipPath4">
        <path d="M0 0 L140 0 L140 18 L0 18 L0 0 Z" />
      </clipPath>
      <clipPath clipPathUnits="userSpaceOnUse" id="clipPath5">
        <path d="M-3 -3 L147 -3 L147 368 L-3 368 L-3 -3 Z" />
      </clipPath>
      <clipPath clipPathUnits="userSpaceOnUse" id="clipPath6">
        <path d="M-3 -3 L317 -3 L317 25 L-3 25 L-3 -3 Z" />
      </clipPath>
      <clipPath clipPathUnits="userSpaceOnUse" id="clipPath7">
        <path d="M0 0 L310 0 L310 18 L0 18 L0 0 Z" />
      </clipPath>
      <clipPath clipPathUnits="userSpaceOnUse" id="clipPath8">
        <path d="M-3 -3 L317 -3 L317 368 L-3 368 L-3 -3 Z" />
      </clipPath>
      <clipPath clipPathUnits="userSpaceOnUse" id="clipPath9">
        <path d="M-3 -3 L387 -3 L387 25 L-3 25 L-3 -3 Z" />
      </clipPath>
      <clipPath clipPathUnits="userSpaceOnUse" id="clipPath10">
        <path d="M0 0 L380 0 L380 18 L0 18 L0 0 Z" />
      </clipPath>
      <clipPath clipPathUnits="userSpaceOnUse" id="clipPath11">
        <path d="M-3 -3 L387 -3 L387 368 L-3 368 L-3 -3 Z" />
      </clipPath>
      <clipPath clipPathUnits="userSpaceOnUse" id="clipPath12">
        <path d="M-3 -3 L47 -3 L47 27 L-3 27 L-3 -3 Z" />
      </clipPath>
      <clipPath clipPathUnits="userSpaceOnUse" id="clipPath13">
        <path d="M-3 -3 L87 -3 L87 47 L-3 47 L-3 -3 Z" />
      </clipPath>
      <clipPath clipPathUnits="userSpaceOnUse" id="clipPath14">
        <path d="M0 0 L80 0 L80 40 L0 40 L0 0 Z" />
      </clipPath>
      <clipPath clipPathUnits="userSpaceOnUse" id="clipPath15">
        <path d="M-3 -3 L27 -3 L27 47 L-3 47 L-3 -3 Z" />
      </clipPath>
      <clipPath clipPathUnits="userSpaceOnUse" id="clipPath16">
        <path d="M-3 -3 L28 -3 L28 47 L-3 47 L-3 -3 Z" />
      </clipPath>
      <clipPath clipPathUnits="userSpaceOnUse" id="clipPath17">
        <path d="M-3 -3 L27 -3 L27 27 L-3 27 L-3 -3 Z" />
      </clipPath>
      <clipPath clipPathUnits="userSpaceOnUse" id="clipPath18">
        <path d="M0 0 L380 0 L380 361 L0 361 L0 0 Z" />
      </clipPath>
      <clipPath clipPathUnits="userSpaceOnUse" id="clipPath19">
        <path d="M0 0 L310 0 L310 361 L0 361 L0 0 Z" />
      </clipPath>
      <clipPath clipPathUnits="userSpaceOnUse" id="clipPath20">
        <path d="M0 0 L140 0 L140 361 L0 361 L0 0 Z" />
      </clipPath>
      <clipPath clipPathUnits="userSpaceOnUse" id="clipPath21">
        <path d="M0 0 L129 0 L129 179 L0 179 L0 0 Z" />
      </clipPath>
      <clipPath clipPathUnits="userSpaceOnUse" id="clipPath22">
        <path d="M0 0 L129 0 L129 209 L0 209 L0 0 Z" />
      </clipPath>
      <clipPath clipPathUnits="userSpaceOnUse" id="clipPath23">
        <path d="M0 0 L545 0 L545 196 L0 196 L0 0 Z" />
      </clipPath>
      <clipPath clipPathUnits="userSpaceOnUse" id="clipPath24">
        <path d="M0 0 L224 0 L224 129 L0 129 L0 0 Z" />
      </clipPath>
      <clipPath clipPathUnits="userSpaceOnUse" id="clipPath25">
        <path d="M0 0 L225 0 L225 129 L0 129 L0 0 Z" />
      </clipPath>
      <clipPath clipPathUnits="userSpaceOnUse" id="clipPath26">
        <path d="M0 0 L164 0 L164 129 L0 129 L0 0 Z" />
      </clipPath>
      <clipPath clipPathUnits="userSpaceOnUse" id="clipPath27">
        <path d="M0 0 L342 0 L342 150 L0 150 L0 0 Z" />
      </clipPath>
      <clipPath clipPathUnits="userSpaceOnUse" id="clipPath28">
        <path d="M0 0 L166 0 L166 130 L0 130 L0 0 Z" />
      </clipPath>
      <clipPath clipPathUnits="userSpaceOnUse" id="clipPath29">
        <path d="M0 0 L172 0 L172 155 L0 155 L0 0 Z" />
      </clipPath>
      <clipPath clipPathUnits="userSpaceOnUse" id="clipPath30">
        <path d="M0 0 L175 0 L175 157 L0 157 L0 0 Z" />
      </clipPath>
      <clipPath clipPathUnits="userSpaceOnUse" id="clipPath31">
        <path d="M0 0 L196 0 L196 129 L0 129 L0 0 Z" />
      </clipPath>
      <clipPath clipPathUnits="userSpaceOnUse" id="clipPath32">
        <path d="M0 0 L454 0 L454 129 L0 129 L0 0 Z" />
      </clipPath>
      <clipPath clipPathUnits="userSpaceOnUse" id="clipPath33">
        <path d="M0 0 L162 0 L162 180 L0 180 L0 0 Z" />
      </clipPath>
      <clipPath clipPathUnits="userSpaceOnUse" id="clipPath34">
        <path d="M0 0 L800 0 L800 170 L0 170 L0 0 Z" />
      </clipPath>
      <clipPath clipPathUnits="userSpaceOnUse" id="clipPath35">
        <path d="M0 0 L90 0 L90 18 L0 18 L0 0 Z" />
      </clipPath>
    </defs>
    <g style="fill:white; text-rendering:geometricPrecision; stroke:white;">
      <rect x="0" y="0" width="836" style="stroke:none;" height="386" />
    </g>
    <g transform="translate(2,2)" style="text-rendering:geometricPrecision; stroke-width:2; font-size:14; font-family:&apos;標楷體&apos;;">
      <rect x="0" y="0" width="140" style="clip-path:url(#clipPath3); fill:none;" height="18" />
    </g>
    <g style="text-rendering:geometricPrecision; font-size:14; font-family:&apos;標楷體&apos;;" transform="translate(2,2)">
      <text x="56" y="16" style="clip-path:url(#clipPath4); stroke:none;" xml:space="preserve">會員</text>
    </g>
    <g transform="translate(2,20)" style="text-rendering:geometricPrecision; stroke-width:2; font-size:11; font-family:sans-serif;">
      <rect x="0" y="0" width="140" style="clip-path:url(#clipPath5); fill:none;" height="361" />
    </g>
    <g transform="translate(142,2)" style="text-rendering:geometricPrecision; stroke-width:2; font-size:14; font-family:&apos;標楷體&apos;;">
      <rect x="0" y="0" width="310" style="clip-path:url(#clipPath6); fill:none;" height="18" />
    </g>
    <g style="text-rendering:geometricPrecision; font-size:14; font-family:&apos;標楷體&apos;;" transform="translate(142,2)">
      <text x="127" y="16" style="clip-path:url(#clipPath7); stroke:none;" xml:space="preserve">相簿管理</text>
    </g>
    <g transform="translate(142,20)" style="text-rendering:geometricPrecision; stroke-width:2; font-size:11; font-family:sans-serif;">
      <rect x="0" y="0" width="310" style="clip-path:url(#clipPath8); fill:none;" height="361" />
    </g>
    <g transform="translate(452,2)" style="text-rendering:geometricPrecision; stroke-width:2; font-size:14; font-family:&apos;標楷體&apos;;">
      <rect x="0" y="0" width="380" style="clip-path:url(#clipPath9); fill:none;" height="18" />
    </g>
    <g style="text-rendering:geometricPrecision; font-size:14; font-family:&apos;標楷體&apos;;" transform="translate(452,2)">
      <text x="169" y="16" style="clip-path:url(#clipPath10); stroke:none;" xml:space="preserve">資料庫</text>
    </g>
    <g transform="translate(452,20)" style="text-rendering:geometricPrecision; stroke-width:2; font-size:11; font-family:sans-serif;">
      <rect x="0" y="0" width="380" style="clip-path:url(#clipPath11); fill:none;" height="361" />
    </g>
    <g style="text-rendering:geometricPrecision; font-size:11; font-family:sans-serif;" transform="translate(52,44)">
      <circle style="clip-path:url(#clipPath12); stroke:none;" r="10" cx="20" cy="10" />
    </g>
    <g transform="translate(32,114)" style="font-size:14; fill:rgb(122,207,245); text-rendering:geometricPrecision; font-family:&apos;標楷體&apos;; stroke:rgb(122,207,245);">
      <rect x="1" y="1" width="78" style="clip-path:url(#clipPath13); stroke:none;" rx="15" ry="15" height="38" />
    </g>
    <g transform="translate(32,114)" style="font-size:14; stroke-linecap:butt; text-rendering:geometricPrecision; font-family:&apos;標楷體&apos;; stroke-linejoin:round; stroke-miterlimit:0;">
      <rect x="1" y="1" width="78" style="clip-path:url(#clipPath13); fill:none;" rx="15" ry="15" height="38" />
    </g>
    <g style="text-rendering:geometricPrecision; font-size:14; font-family:&apos;標楷體&apos;;" transform="translate(32,114)">
      <text x="12" y="27" style="clip-path:url(#clipPath14); stroke:none;" xml:space="preserve">登入會員</text>
    </g>
    <g transform="translate(62,224)" style="font-size:11; fill:rgb(122,207,245); text-rendering:geometricPrecision; font-family:sans-serif; stroke:rgb(122,207,245);">
      <polygon style="clip-path:url(#clipPath15); stroke:none;" points=" 10 7 17 20 10 32 3 20" />
    </g>
    <g transform="translate(62,224)" style="font-size:11; stroke-linecap:butt; text-rendering:geometricPrecision; font-family:sans-serif; stroke-linejoin:round; stroke-miterlimit:0;">
      <polygon style="fill:none; clip-path:url(#clipPath15);" points=" 10 7 17 20 10 32 3 20" />
    </g>
    <g transform="translate(172,224)" style="font-size:14; fill:rgb(122,207,245); text-rendering:geometricPrecision; font-family:&apos;標楷體&apos;; stroke:rgb(122,207,245);">
      <rect x="1" y="1" width="78" style="clip-path:url(#clipPath13); stroke:none;" rx="15" ry="15" height="38" />
    </g>
    <g transform="translate(172,224)" style="font-size:14; stroke-linecap:butt; text-rendering:geometricPrecision; font-family:&apos;標楷體&apos;; stroke-linejoin:round; stroke-miterlimit:0;">
      <rect x="1" y="1" width="78" style="clip-path:url(#clipPath13); fill:none;" rx="15" ry="15" height="38" />
    </g>
    <g style="text-rendering:geometricPrecision; font-size:14; font-family:&apos;標楷體&apos;;" transform="translate(172,224)">
      <text x="12" y="27" style="clip-path:url(#clipPath14); stroke:none;" xml:space="preserve">查看相簿</text>
    </g>
    <g transform="translate(282,223)" style="font-size:11; fill:rgb(122,207,245); text-rendering:geometricPrecision; font-family:sans-serif; stroke:rgb(122,207,245);">
      <polygon style="clip-path:url(#clipPath16); stroke:none;" points=" 10 7 18 20 10 32 3 20" />
    </g>
    <g transform="translate(282,223)" style="font-size:11; stroke-linecap:butt; text-rendering:geometricPrecision; font-family:sans-serif; stroke-linejoin:round; stroke-miterlimit:0;">
      <polygon style="fill:none; clip-path:url(#clipPath16);" points=" 10 7 18 20 10 32 3 20" />
    </g>
    <g transform="translate(342,252)" style="font-size:14; fill:rgb(122,207,245); text-rendering:geometricPrecision; font-family:&apos;標楷體&apos;; stroke:rgb(122,207,245);">
      <rect x="1" y="1" width="78" style="clip-path:url(#clipPath13); stroke:none;" rx="15" ry="15" height="38" />
    </g>
    <g transform="translate(342,252)" style="font-size:14; stroke-linecap:butt; text-rendering:geometricPrecision; font-family:&apos;標楷體&apos;; stroke-linejoin:round; stroke-miterlimit:0;">
      <rect x="1" y="1" width="78" style="clip-path:url(#clipPath13); fill:none;" rx="15" ry="15" height="38" />
    </g>
    <g style="text-rendering:geometricPrecision; font-size:14; font-family:&apos;標楷體&apos;;" transform="translate(342,252)">
      <text x="12" y="27" style="clip-path:url(#clipPath14); stroke:none;" xml:space="preserve">刪除相簿</text>
    </g>
    <g transform="translate(342,192)" style="font-size:14; fill:rgb(122,207,245); text-rendering:geometricPrecision; font-family:&apos;標楷體&apos;; stroke:rgb(122,207,245);">
      <rect x="1" y="1" width="78" style="clip-path:url(#clipPath13); stroke:none;" rx="15" ry="15" height="38" />
    </g>
    <g transform="translate(342,192)" style="font-size:14; stroke-linecap:butt; text-rendering:geometricPrecision; font-family:&apos;標楷體&apos;; stroke-linejoin:round; stroke-miterlimit:0;">
      <rect x="1" y="1" width="78" style="clip-path:url(#clipPath13); fill:none;" rx="15" ry="15" height="38" />
    </g>
    <g style="text-rendering:geometricPrecision; font-size:14; font-family:&apos;標楷體&apos;;" transform="translate(342,192)">
      <text x="12" y="27" style="clip-path:url(#clipPath14); stroke:none;" xml:space="preserve">新增相簿</text>
    </g>
    <g style="text-rendering:geometricPrecision; font-size:11; font-family:sans-serif;" transform="translate(62,312)">
      <circle style="clip-path:url(#clipPath17); stroke:none;" r="6.6667" cx="10" cy="10" />
      <circle style="stroke-linecap:butt; clip-path:url(#clipPath17); fill:none; stroke-linejoin:round; stroke-miterlimit:0;" r="10" cx="10" cy="10" />
    </g>
    <g transform="translate(482,202)" style="font-size:11; fill:rgb(122,207,245); text-rendering:geometricPrecision; font-family:sans-serif; stroke:rgb(122,207,245);">
      <polygon style="clip-path:url(#clipPath16); stroke:none;" points=" 10 7 18 20 10 32 3 20" />
    </g>
    <g transform="translate(482,202)" style="font-size:11; stroke-linecap:butt; text-rendering:geometricPrecision; font-family:sans-serif; stroke-linejoin:round; stroke-miterlimit:0;">
      <polygon style="fill:none; clip-path:url(#clipPath16);" points=" 10 7 18 20 10 32 3 20" />
    </g>
    <g transform="translate(592,192)" style="font-size:14; fill:rgb(122,207,245); text-rendering:geometricPrecision; font-family:&apos;標楷體&apos;; stroke:rgb(122,207,245);">
      <rect x="1" y="1" width="78" style="clip-path:url(#clipPath13); stroke:none;" rx="15" ry="15" height="38" />
    </g>
    <g transform="translate(592,192)" style="font-size:14; stroke-linecap:butt; text-rendering:geometricPrecision; font-family:&apos;標楷體&apos;; stroke-linejoin:round; stroke-miterlimit:0;">
      <rect x="1" y="1" width="78" style="clip-path:url(#clipPath13); fill:none;" rx="15" ry="15" height="38" />
    </g>
    <g style="text-rendering:geometricPrecision; font-size:14; font-family:&apos;標楷體&apos;;" transform="translate(592,192)">
      <text x="12" y="27" style="clip-path:url(#clipPath14); stroke:none;" xml:space="preserve">選擇相片</text>
    </g>
    <g transform="translate(702,192)" style="font-size:11; fill:rgb(122,207,245); text-rendering:geometricPrecision; font-family:sans-serif; stroke:rgb(122,207,245);">
      <polygon style="clip-path:url(#clipPath16); stroke:none;" points=" 10 7 18 20 10 32 3 20" />
    </g>
    <g transform="translate(702,192)" style="font-size:11; stroke-linecap:butt; text-rendering:geometricPrecision; font-family:sans-serif; stroke-linejoin:round; stroke-miterlimit:0;">
      <polygon style="fill:none; clip-path:url(#clipPath16);" points=" 10 7 18 20 10 32 3 20" />
    </g>
    <g transform="translate(742,252)" style="font-size:11; fill:rgb(122,207,245); text-rendering:geometricPrecision; font-family:sans-serif; stroke:rgb(122,207,245);">
      <polygon style="clip-path:url(#clipPath16); stroke:none;" points=" 10 7 18 20 10 32 3 20" />
    </g>
    <g transform="translate(742,252)" style="font-size:11; stroke-linecap:butt; text-rendering:geometricPrecision; font-family:sans-serif; stroke-linejoin:round; stroke-miterlimit:0;">
      <polygon style="fill:none; clip-path:url(#clipPath16);" points=" 10 7 18 20 10 32 3 20" />
    </g>
    <g transform="translate(9,2)" style="font-size:11; stroke-linecap:butt; text-rendering:geometricPrecision; font-family:sans-serif; stroke-linejoin:round;">
      <line x1="63" x2="63" y1="62" style="clip-path:url(#clipPath21); fill:none;" y2="112" />
      <line x1="63" x2="69" y1="112" style="clip-path:url(#clipPath21); fill:none;" y2="100" />
      <line x1="63" x2="57" y1="112" style="clip-path:url(#clipPath21); fill:none;" y2="100" />
    </g>
    <g transform="translate(9,92)" style="font-size:11; stroke-linecap:butt; text-rendering:geometricPrecision; font-family:sans-serif; stroke-linejoin:round;">
      <line x1="63" x2="63" y1="62" style="clip-path:url(#clipPath22); fill:none;" y2="142" />
      <line x1="63" x2="69" y1="142" style="clip-path:url(#clipPath22); fill:none;" y2="130" />
      <line x1="63" x2="57" y1="142" style="clip-path:url(#clipPath22); fill:none;" y2="130" />
    </g>
    <g transform="translate(13,109)" style="font-size:14; stroke-linecap:butt; text-rendering:geometricPrecision; font-family:&apos;標楷體&apos;; stroke-linejoin:round;">
      <line x1="479" x2="479" y1="104" style="clip-path:url(#clipPath23); fill:none;" y2="63" />
      <line x1="479" x2="109" y1="63" style="clip-path:url(#clipPath23); fill:none;" y2="63" />
      <line x1="109" x2="62" y1="63" style="clip-path:url(#clipPath23); fill:none;" y2="130" />
      <line x1="62" x2="73" y1="130" style="clip-path:url(#clipPath23); fill:none;" y2="123" />
      <line x1="62" x2="63" y1="130" style="clip-path:url(#clipPath23); fill:none;" y2="116" />
    </g>
    <g transform="translate(15,182)" style="font-size:11; stroke-linecap:butt; text-rendering:geometricPrecision; font-family:sans-serif; stroke-linejoin:round;">
      <line x1="63" x2="158" y1="62" style="clip-path:url(#clipPath24); fill:none;" y2="62" />
      <line x1="158" x2="146" y1="62" style="clip-path:url(#clipPath24); fill:none;" y2="56" />
      <line x1="158" x2="146" y1="62" style="clip-path:url(#clipPath24); fill:none;" y2="68" />
    </g>
    <g transform="translate(437,159)" style="font-size:14; stroke-linecap:butt; text-rendering:geometricPrecision; font-family:&apos;標楷體&apos;; stroke-linejoin:round;">
      <line x1="62" x2="158" y1="63" style="clip-path:url(#clipPath25); fill:none;" y2="63" />
      <line x1="158" x2="146" y1="63" style="clip-path:url(#clipPath25); fill:none;" y2="57" />
      <line x1="158" x2="146" y1="63" style="clip-path:url(#clipPath25); fill:none;" y2="69" />
    </g>
    <g transform="translate(608,149)" style="font-size:11; stroke-linecap:butt; text-rendering:geometricPrecision; font-family:sans-serif; stroke-linejoin:round;">
      <line x1="62" x2="97" y1="63" style="clip-path:url(#clipPath26); fill:none;" y2="63" />
      <line x1="97" x2="85" y1="63" style="clip-path:url(#clipPath26); fill:none;" y2="57" />
      <line x1="97" x2="85" y1="63" style="clip-path:url(#clipPath26); fill:none;" y2="69" />
    </g>
    <g transform="translate(435,158)" style="font-size:14; stroke-linecap:butt; text-rendering:geometricPrecision; font-family:&apos;標楷體&apos;; stroke-linejoin:round;">
      <line x1="277" x2="277" y1="62" style="clip-path:url(#clipPath27); fill:none;" y2="84" />
      <line x1="277" x2="87" y1="84" style="clip-path:url(#clipPath27); fill:none;" y2="84" />
      <line x1="87" x2="63" y1="84" style="clip-path:url(#clipPath27); fill:none;" y2="67" />
      <line x1="63" x2="69" y1="67" style="clip-path:url(#clipPath27); fill:none;" y2="78" />
      <line x1="63" x2="76" y1="67" style="clip-path:url(#clipPath27); fill:none;" y2="68" />
    </g>
    <g transform="translate(188,179)" style="font-size:11; stroke-linecap:butt; text-rendering:geometricPrecision; font-family:sans-serif; stroke-linejoin:round;">
      <line x1="62" x2="100" y1="63" style="clip-path:url(#clipPath28); fill:none;" y2="64" />
      <line x1="100" x2="88" y1="64" style="clip-path:url(#clipPath28); fill:none;" y2="58" />
      <line x1="100" x2="88" y1="64" style="clip-path:url(#clipPath28); fill:none;" y2="70" />
    </g>
    <g transform="translate(235,183)" style="font-size:11; stroke-linecap:butt; text-rendering:geometricPrecision; font-family:sans-serif; stroke-linejoin:round;">
      <line x1="63" x2="107" y1="62" style="clip-path:url(#clipPath29); fill:none;" y2="89" />
      <line x1="107" x2="100" y1="89" style="clip-path:url(#clipPath29); fill:none;" y2="77" />
      <line x1="107" x2="94" y1="89" style="clip-path:url(#clipPath29); fill:none;" y2="88" />
    </g>
    <g transform="translate(233,149)" style="font-size:11; stroke-linecap:butt; text-rendering:geometricPrecision; font-family:sans-serif; stroke-linejoin:round;">
      <line x1="62" x2="109" y1="91" style="clip-path:url(#clipPath30); fill:none;" y2="63" />
      <line x1="109" x2="96" y1="63" style="clip-path:url(#clipPath30); fill:none;" y2="63" />
      <line x1="109" x2="102" y1="63" style="clip-path:url(#clipPath30); fill:none;" y2="74" />
    </g>
    <g transform="translate(357,159)" style="font-size:11; stroke-linecap:butt; text-rendering:geometricPrecision; font-family:sans-serif; stroke-linejoin:round;">
      <line x1="62" x2="130" y1="63" style="clip-path:url(#clipPath31); fill:none;" y2="63" />
      <line x1="130" x2="118" y1="63" style="clip-path:url(#clipPath31); fill:none;" y2="57" />
      <line x1="130" x2="118" y1="63" style="clip-path:url(#clipPath31); fill:none;" y2="69" />
    </g>
    <g transform="translate(358,209)" style="font-size:11; stroke-linecap:butt; text-rendering:geometricPrecision; font-family:sans-serif; stroke-linejoin:round;">
      <line x1="62" x2="387" y1="63" style="clip-path:url(#clipPath32); fill:none;" y2="63" />
      <line x1="387" x2="375" y1="63" style="clip-path:url(#clipPath32); fill:none;" y2="57" />
      <line x1="387" x2="375" y1="63" style="clip-path:url(#clipPath32); fill:none;" y2="69" />
    </g>
    <g transform="translate(653,154)" style="font-size:14; stroke-linecap:butt; text-rendering:geometricPrecision; font-family:&apos;標楷體&apos;; stroke-linejoin:round;">
      <line x1="62" x2="96" y1="63" style="clip-path:url(#clipPath33); fill:none;" y2="114" />
      <line x1="96" x2="95" y1="114" style="clip-path:url(#clipPath33); fill:none;" y2="101" />
      <line x1="96" x2="84" y1="114" style="clip-path:url(#clipPath33); fill:none;" y2="107" />
    </g>
    <g transform="translate(18,218)" style="font-size:11; stroke-linecap:butt; text-rendering:geometricPrecision; font-family:sans-serif; stroke-linejoin:round;">
      <line x1="734" x2="734" y1="62" style="clip-path:url(#clipPath34); fill:none;" y2="104" />
      <line x1="734" x2="62" y1="104" style="clip-path:url(#clipPath34); fill:none;" y2="104" />
      <line x1="62" x2="74" y1="104" style="clip-path:url(#clipPath34); fill:none;" y2="110" />
      <line x1="62" x2="74" y1="104" style="clip-path:url(#clipPath34); fill:none;" y2="98" />
    </g>
    <g style="text-rendering:geometricPrecision; font-size:14; font-family:&apos;標楷體&apos;;" transform="translate(728,225)">
      <text x="10" y="16" style="clip-path:url(#clipPath35); stroke:none;" xml:space="preserve">[新增成功]</text>
    </g>
    <g style="text-rendering:geometricPrecision; font-size:14; font-family:&apos;標楷體&apos;;" transform="translate(584,244)">
      <text x="10" y="16" style="clip-path:url(#clipPath35); stroke:none;" xml:space="preserve">[新增失敗]</text>
    </g>
    <g style="text-rendering:geometricPrecision; font-size:14; font-family:&apos;標楷體&apos;;" transform="translate(497,199)">
      <text x="10" y="16" style="clip-path:url(#clipPath35); stroke:none;" xml:space="preserve">[新增成功]</text>
    </g>
    <g style="text-rendering:geometricPrecision; font-size:14; font-family:&apos;標楷體&apos;;" transform="translate(342,142)">
      <text x="10" y="16" style="clip-path:url(#clipPath35); stroke:none;" xml:space="preserve">[新增失敗]</text>
    </g>
    <g style="fill:rgb(120,120,120); text-rendering:geometricPrecision; font-size:10; stroke:rgb(120,120,120);">
      <text xml:space="preserve" x="0" y="10" style="stroke:none;">Visual Paradigm for UML Personal Edition [not for commercial use] </text>
      <text xml:space="preserve" x="0" y="10" style="stroke:none;">Visual Paradigm for UML Personal Edition [not for commercial use] </text>
    </g>
  </g>
</svg>
