<?xml version="1.0" encoding="UTF-8"?>

<!DOCTYPE svg PUBLIC '-//W3C//DTD SVG 1.0//EN' 'http://www.w3.org/TR/2001/REC-SVG-20010904/DTD/svg10.dtd'>
<svg style="fill-opacity:1; color-rendering:auto; color-interpolation:auto; stroke:black; text-rendering:auto; stroke-linecap:square; stroke-miterlimit:10; stroke-opacity:1; shape-rendering:auto; fill:black; stroke-dasharray:none; font-weight:normal; stroke-width:1; font-family:&apos;Dialog&apos;; font-style:normal; stroke-linejoin:miter; font-size:12; stroke-dashoffset:0; image-rendering:auto;" xmlns="http://www.w3.org/2000/svg" width="336" xmlns:xlink="http://www.w3.org/1999/xlink" height="654">
  <!--Generated by the Batik Graphics2D SVG Generator-->
  <defs id="genericDefs" />
  <g>
    <defs id="defs1">
      <clipPath clipPathUnits="userSpaceOnUse" id="clipPath1">
        <path d="M-3 -3 L47 -3 L47 27 L-3 27 L-3 -3 Z" />
      </clipPath>
      <clipPath clipPathUnits="userSpaceOnUse" id="clipPath2">
        <path d="M-3 -3 L87 -3 L87 47 L-3 47 L-3 -3 Z" />
      </clipPath>
      <clipPath clipPathUnits="userSpaceOnUse" id="clipPath3">
        <path d="M0 0 L80 0 L80 40 L0 40 L0 0 Z" />
      </clipPath>
      <clipPath clipPathUnits="userSpaceOnUse" id="clipPath4">
        <path d="M-3 -3 L28 -3 L28 47 L-3 47 L-3 -3 Z" />
      </clipPath>
      <clipPath clipPathUnits="userSpaceOnUse" id="clipPath5">
        <path d="M-3 -3 L27 -3 L27 47 L-3 47 L-3 -3 Z" />
      </clipPath>
      <clipPath clipPathUnits="userSpaceOnUse" id="clipPath6">
        <path d="M-3 -3 L27 -3 L27 27 L-3 27 L-3 -3 Z" />
      </clipPath>
      <clipPath clipPathUnits="userSpaceOnUse" id="clipPath7">
        <path d="M0 0 L129 0 L129 162 L0 162 L0 0 Z" />
      </clipPath>
      <clipPath clipPathUnits="userSpaceOnUse" id="clipPath8">
        <path d="M0 0 L129 0 L129 160 L0 160 L0 0 Z" />
      </clipPath>
      <clipPath clipPathUnits="userSpaceOnUse" id="clipPath9">
        <path d="M0 0 L129 0 L129 150 L0 150 L0 0 Z" />
      </clipPath>
      <clipPath clipPathUnits="userSpaceOnUse" id="clipPath10">
        <path d="M0 0 L129 0 L129 172 L0 172 L0 0 Z" />
      </clipPath>
      <clipPath clipPathUnits="userSpaceOnUse" id="clipPath11">
        <path d="M0 0 L192 0 L192 179 L0 179 L0 0 Z" />
      </clipPath>
      <clipPath clipPathUnits="userSpaceOnUse" id="clipPath12">
        <path d="M0 0 L147 0 L147 187 L0 187 L0 0 Z" />
      </clipPath>
      <clipPath clipPathUnits="userSpaceOnUse" id="clipPath13">
        <path d="M0 0 L252 0 L252 389 L0 389 L0 0 Z" />
      </clipPath>
      <clipPath clipPathUnits="userSpaceOnUse" id="clipPath14">
        <path d="M0 0 L129 0 L129 198 L0 198 L0 0 Z" />
      </clipPath>
      <clipPath clipPathUnits="userSpaceOnUse" id="clipPath15">
        <path d="M0 0 L129 0 L129 182 L0 182 L0 0 Z" />
      </clipPath>
      <clipPath clipPathUnits="userSpaceOnUse" id="clipPath16">
        <path d="M0 0 L203 0 L203 309 L0 309 L0 0 Z" />
      </clipPath>
      <clipPath clipPathUnits="userSpaceOnUse" id="clipPath17">
        <path d="M0 0 L129 0 L129 179 L0 179 L0 0 Z" />
      </clipPath>
      <clipPath clipPathUnits="userSpaceOnUse" id="clipPath18">
        <path d="M0 0 L260 0 L260 430 L0 430 L0 0 Z" />
      </clipPath>
      <clipPath clipPathUnits="userSpaceOnUse" id="clipPath19">
        <path d="M0 0 L90 0 L90 19 L0 19 L0 0 Z" />
      </clipPath>
    </defs>
    <g style="fill:white; text-rendering:geometricPrecision; stroke:white;">
      <rect x="0" y="0" width="336" style="stroke:none;" height="654" />
    </g>
    <g style="text-rendering:geometricPrecision; font-size:11; font-family:sans-serif;" transform="translate(202,0)">
      <circle style="clip-path:url(#clipPath1); stroke:none;" r="10" cx="20" cy="10" />
    </g>
    <g transform="translate(182,50)" style="font-size:14; fill:rgb(122,207,245); text-rendering:geometricPrecision; font-family:&apos;標楷體&apos;; stroke:rgb(122,207,245);">
      <rect x="1" y="1" width="78" style="clip-path:url(#clipPath2); stroke:none;" rx="15" ry="15" height="38" />
    </g>
    <g transform="translate(182,50)" style="font-size:14; stroke-linecap:butt; text-rendering:geometricPrecision; font-family:&apos;標楷體&apos;; stroke-linejoin:round; stroke-miterlimit:0;">
      <rect x="1" y="1" width="78" style="clip-path:url(#clipPath2); fill:none;" rx="15" ry="15" height="38" />
    </g>
    <g style="text-rendering:geometricPrecision; font-size:14; font-family:&apos;標楷體&apos;;" transform="translate(182,50)">
      <text x="12" y="27" style="clip-path:url(#clipPath3); stroke:none;" xml:space="preserve">登入會員</text>
    </g>
    <g transform="translate(212,110)" style="font-size:11; fill:rgb(122,207,245); text-rendering:geometricPrecision; font-family:sans-serif; stroke:rgb(122,207,245);">
      <polygon style="clip-path:url(#clipPath4); stroke:none;" points=" 10 7 18 20 10 32 3 20" />
    </g>
    <g transform="translate(212,110)" style="font-size:11; stroke-linecap:butt; text-rendering:geometricPrecision; font-family:sans-serif; stroke-linejoin:round; stroke-miterlimit:0;">
      <polygon style="fill:none; clip-path:url(#clipPath4);" points=" 10 7 18 20 10 32 3 20" />
    </g>
    <g transform="translate(182,160)" style="font-size:14; fill:rgb(122,207,245); text-rendering:geometricPrecision; font-family:&apos;標楷體&apos;; stroke:rgb(122,207,245);">
      <rect x="1" y="1" width="78" style="clip-path:url(#clipPath2); stroke:none;" rx="15" ry="15" height="38" />
    </g>
    <g transform="translate(182,160)" style="font-size:14; stroke-linecap:butt; text-rendering:geometricPrecision; font-family:&apos;標楷體&apos;; stroke-linejoin:round; stroke-miterlimit:0;">
      <rect x="1" y="1" width="78" style="clip-path:url(#clipPath2); fill:none;" rx="15" ry="15" height="38" />
    </g>
    <g style="text-rendering:geometricPrecision; font-size:14; font-family:&apos;標楷體&apos;;" transform="translate(182,160)">
      <text x="12" y="27" style="clip-path:url(#clipPath3); stroke:none;" xml:space="preserve">查看相簿</text>
    </g>
    <g transform="translate(212,230)" style="font-size:11; fill:rgb(122,207,245); text-rendering:geometricPrecision; font-family:sans-serif; stroke:rgb(122,207,245);">
      <polygon style="clip-path:url(#clipPath4); stroke:none;" points=" 10 7 18 20 10 32 3 20" />
    </g>
    <g transform="translate(212,230)" style="font-size:11; stroke-linecap:butt; text-rendering:geometricPrecision; font-family:sans-serif; stroke-linejoin:round; stroke-miterlimit:0;">
      <polygon style="fill:none; clip-path:url(#clipPath4);" points=" 10 7 18 20 10 32 3 20" />
    </g>
    <g transform="translate(112,300)" style="font-size:14; fill:rgb(122,207,245); text-rendering:geometricPrecision; font-family:&apos;標楷體&apos;; stroke:rgb(122,207,245);">
      <rect x="1" y="1" width="78" style="clip-path:url(#clipPath2); stroke:none;" rx="15" ry="15" height="38" />
    </g>
    <g transform="translate(112,300)" style="font-size:14; stroke-linecap:butt; text-rendering:geometricPrecision; font-family:&apos;標楷體&apos;; stroke-linejoin:round; stroke-miterlimit:0;">
      <rect x="1" y="1" width="78" style="clip-path:url(#clipPath2); fill:none;" rx="15" ry="15" height="38" />
    </g>
    <g style="text-rendering:geometricPrecision; font-size:14; font-family:&apos;標楷體&apos;;" transform="translate(112,300)">
      <text x="12" y="27" style="clip-path:url(#clipPath3); stroke:none;" xml:space="preserve">新增相簿</text>
    </g>
    <g transform="translate(252,300)" style="font-size:14; fill:rgb(122,207,245); text-rendering:geometricPrecision; font-family:&apos;標楷體&apos;; stroke:rgb(122,207,245);">
      <rect x="1" y="1" width="78" style="clip-path:url(#clipPath2); stroke:none;" rx="15" ry="15" height="38" />
    </g>
    <g transform="translate(252,300)" style="font-size:14; stroke-linecap:butt; text-rendering:geometricPrecision; font-family:&apos;標楷體&apos;; stroke-linejoin:round; stroke-miterlimit:0;">
      <rect x="1" y="1" width="78" style="clip-path:url(#clipPath2); fill:none;" rx="15" ry="15" height="38" />
    </g>
    <g style="text-rendering:geometricPrecision; font-size:14; font-family:&apos;標楷體&apos;;" transform="translate(252,300)">
      <text x="12" y="27" style="clip-path:url(#clipPath3); stroke:none;" xml:space="preserve">刪除相簿</text>
    </g>
    <g transform="translate(142,370)" style="font-size:11; fill:rgb(122,207,245); text-rendering:geometricPrecision; font-family:sans-serif; stroke:rgb(122,207,245);">
      <polygon style="clip-path:url(#clipPath5); stroke:none;" points=" 10 7 17 20 10 32 3 20" />
    </g>
    <g transform="translate(142,370)" style="font-size:11; stroke-linecap:butt; text-rendering:geometricPrecision; font-family:sans-serif; stroke-linejoin:round; stroke-miterlimit:0;">
      <polygon style="fill:none; clip-path:url(#clipPath5);" points=" 10 7 17 20 10 32 3 20" />
    </g>
    <g transform="translate(112,470)" style="font-size:14; fill:rgb(122,207,245); text-rendering:geometricPrecision; font-family:&apos;標楷體&apos;; stroke:rgb(122,207,245);">
      <rect x="1" y="1" width="78" style="clip-path:url(#clipPath2); stroke:none;" rx="15" ry="15" height="38" />
    </g>
    <g transform="translate(112,470)" style="font-size:14; stroke-linecap:butt; text-rendering:geometricPrecision; font-family:&apos;標楷體&apos;; stroke-linejoin:round; stroke-miterlimit:0;">
      <rect x="1" y="1" width="78" style="clip-path:url(#clipPath2); fill:none;" rx="15" ry="15" height="38" />
    </g>
    <g style="text-rendering:geometricPrecision; font-size:14; font-family:&apos;標楷體&apos;;" transform="translate(112,470)">
      <text x="12" y="27" style="clip-path:url(#clipPath3); stroke:none;" xml:space="preserve">選擇相片</text>
    </g>
    <g transform="translate(142,550)" style="font-size:11; fill:rgb(122,207,245); text-rendering:geometricPrecision; font-family:sans-serif; stroke:rgb(122,207,245);">
      <polygon style="clip-path:url(#clipPath5); stroke:none;" points=" 10 7 17 20 10 32 3 20" />
    </g>
    <g transform="translate(142,550)" style="font-size:11; stroke-linecap:butt; text-rendering:geometricPrecision; font-family:sans-serif; stroke-linejoin:round; stroke-miterlimit:0;">
      <polygon style="fill:none; clip-path:url(#clipPath5);" points=" 10 7 17 20 10 32 3 20" />
    </g>
    <g style="text-rendering:geometricPrecision; font-size:11; font-family:sans-serif;" transform="translate(142,630)">
      <circle style="clip-path:url(#clipPath6); stroke:none;" r="6.6667" cx="10" cy="10" />
      <circle style="stroke-linecap:butt; clip-path:url(#clipPath6); fill:none; stroke-linejoin:round; stroke-miterlimit:0;" r="10" cx="10" cy="10" />
    </g>
    <g transform="translate(160,-44)" style="font-size:11; stroke-linecap:butt; text-rendering:geometricPrecision; font-family:sans-serif; stroke-linejoin:round;">
      <line x1="63" x2="63" y1="63" style="clip-path:url(#clipPath7); fill:none;" y2="95" />
      <line x1="63" x2="69" y1="95" style="clip-path:url(#clipPath7); fill:none;" y2="83" />
      <line x1="63" x2="57" y1="95" style="clip-path:url(#clipPath7); fill:none;" y2="83" />
    </g>
    <g transform="translate(160,28)" style="font-size:11; stroke-linecap:butt; text-rendering:geometricPrecision; font-family:sans-serif; stroke-linejoin:round;">
      <line x1="63" x2="63" y1="63" style="clip-path:url(#clipPath8); fill:none;" y2="94" />
      <line x1="63" x2="69" y1="94" style="clip-path:url(#clipPath8); fill:none;" y2="82" />
      <line x1="63" x2="57" y1="94" style="clip-path:url(#clipPath8); fill:none;" y2="82" />
    </g>
    <g transform="translate(160,76)" style="font-size:11; stroke-linecap:butt; text-rendering:geometricPrecision; font-family:sans-serif; stroke-linejoin:round;">
      <line x1="63" x2="63" y1="63" style="clip-path:url(#clipPath9); fill:none;" y2="84" />
      <line x1="63" x2="69" y1="84" style="clip-path:url(#clipPath9); fill:none;" y2="72" />
      <line x1="63" x2="57" y1="84" style="clip-path:url(#clipPath9); fill:none;" y2="72" />
    </g>
    <g transform="translate(160,136)" style="font-size:11; stroke-linecap:butt; text-rendering:geometricPrecision; font-family:sans-serif; stroke-linejoin:round;">
      <line x1="63" x2="63" y1="63" style="clip-path:url(#clipPath10); fill:none;" y2="105" />
      <line x1="63" x2="69" y1="105" style="clip-path:url(#clipPath10); fill:none;" y2="93" />
      <line x1="63" x2="57" y1="105" style="clip-path:url(#clipPath10); fill:none;" y2="93" />
    </g>
    <g transform="translate(90,188)" style="font-size:11; stroke-linecap:butt; text-rendering:geometricPrecision; font-family:sans-serif; stroke-linejoin:round;">
      <line x1="125" x2="63" y1="63" style="clip-path:url(#clipPath11); fill:none;" y2="63" />
      <line x1="63" x2="63" y1="63" style="clip-path:url(#clipPath11); fill:none;" y2="113" />
      <line x1="63" x2="69" y1="113" style="clip-path:url(#clipPath11); fill:none;" y2="101" />
      <line x1="63" x2="57" y1="113" style="clip-path:url(#clipPath11); fill:none;" y2="101" />
    </g>
    <g transform="translate(167,188)" style="font-size:11; stroke-linecap:butt; text-rendering:geometricPrecision; font-family:sans-serif; stroke-linejoin:round;">
      <line x1="63" x2="125" y1="63" style="clip-path:url(#clipPath11); fill:none;" y2="63" />
      <line x1="125" x2="125" y1="63" style="clip-path:url(#clipPath11); fill:none;" y2="113" />
      <line x1="125" x2="131" y1="113" style="clip-path:url(#clipPath11); fill:none;" y2="101" />
      <line x1="125" x2="119" y1="113" style="clip-path:url(#clipPath11); fill:none;" y2="101" />
    </g>
    <g transform="translate(81,267)" style="font-size:11; stroke-linecap:butt; text-rendering:geometricPrecision; font-family:sans-serif; stroke-linejoin:round;">
      <line x1="71" x2="71" y1="71" style="clip-path:url(#clipPath12); fill:none;" y2="111" />
      <line x1="71" x2="77" y1="111" style="clip-path:url(#clipPath12); fill:none;" y2="99" />
      <line x1="71" x2="65" y1="111" style="clip-path:url(#clipPath12); fill:none;" y2="99" />
    </g>
    <g transform="translate(30,68)" style="font-size:14; stroke-linecap:butt; text-rendering:geometricPrecision; font-family:&apos;標楷體&apos;; stroke-linejoin:round;">
      <line x1="116" x2="63" y1="323" style="clip-path:url(#clipPath13); fill:none;" y2="323" />
      <line x1="63" x2="63" y1="323" style="clip-path:url(#clipPath13); fill:none;" y2="63" />
      <line x1="63" x2="185" y1="63" style="clip-path:url(#clipPath13); fill:none;" y2="63" />
      <line x1="185" x2="173" y1="63" style="clip-path:url(#clipPath13); fill:none;" y2="57" />
      <line x1="185" x2="173" y1="63" style="clip-path:url(#clipPath13); fill:none;" y2="69" />
    </g>
    <g transform="translate(90,339)" style="font-size:14; stroke-linecap:butt; text-rendering:geometricPrecision; font-family:&apos;標楷體&apos;; stroke-linejoin:round;">
      <line x1="63" x2="63" y1="63" style="clip-path:url(#clipPath14); fill:none;" y2="131" />
      <line x1="63" x2="69" y1="131" style="clip-path:url(#clipPath14); fill:none;" y2="119" />
      <line x1="63" x2="57" y1="131" style="clip-path:url(#clipPath14); fill:none;" y2="119" />
    </g>
    <g transform="translate(90,446)" style="font-size:11; stroke-linecap:butt; text-rendering:geometricPrecision; font-family:sans-serif; stroke-linejoin:round;">
      <line x1="63" x2="63" y1="63" style="clip-path:url(#clipPath15); fill:none;" y2="115" />
      <line x1="63" x2="69" y1="115" style="clip-path:url(#clipPath15); fill:none;" y2="103" />
      <line x1="63" x2="57" y1="115" style="clip-path:url(#clipPath15); fill:none;" y2="103" />
    </g>
    <g transform="translate(96,328)" style="font-size:14; stroke-linecap:butt; text-rendering:geometricPrecision; font-family:&apos;標楷體&apos;; stroke-linejoin:round;">
      <line x1="63" x2="136" y1="243" style="clip-path:url(#clipPath16); fill:none;" y2="243" />
      <line x1="136" x2="136" y1="243" style="clip-path:url(#clipPath16); fill:none;" y2="63" />
      <line x1="136" x2="63" y1="63" style="clip-path:url(#clipPath16); fill:none;" y2="63" />
      <line x1="63" x2="75" y1="63" style="clip-path:url(#clipPath16); fill:none;" y2="69" />
      <line x1="63" x2="75" y1="63" style="clip-path:url(#clipPath16); fill:none;" y2="57" />
    </g>
    <g transform="translate(90,519)" style="font-size:14; stroke-linecap:butt; text-rendering:geometricPrecision; font-family:&apos;標楷體&apos;; stroke-linejoin:round;">
      <line x1="63" x2="63" y1="63" style="clip-path:url(#clipPath17); fill:none;" y2="113" />
      <line x1="63" x2="69" y1="113" style="clip-path:url(#clipPath17); fill:none;" y2="101" />
      <line x1="63" x2="57" y1="113" style="clip-path:url(#clipPath17); fill:none;" y2="101" />
    </g>
    <g transform="translate(98,276)" style="font-size:11; stroke-linecap:butt; text-rendering:geometricPrecision; font-family:sans-serif; stroke-linejoin:round;">
      <line x1="194" x2="194" y1="63" style="clip-path:url(#clipPath18); fill:none;" y2="364" />
      <line x1="194" x2="63" y1="364" style="clip-path:url(#clipPath18); fill:none;" y2="364" />
      <line x1="63" x2="75" y1="364" style="clip-path:url(#clipPath18); fill:none;" y2="370" />
      <line x1="63" x2="75" y1="364" style="clip-path:url(#clipPath18); fill:none;" y2="358" />
    </g>
    <g style="text-rendering:geometricPrecision; font-size:14; font-family:&apos;標楷體&apos;;" transform="translate(72,589)">
      <text x="10" y="16" style="clip-path:url(#clipPath19); stroke:none;" xml:space="preserve">[新增成功]</text>
    </g>
    <g style="text-rendering:geometricPrecision; font-size:14; font-family:&apos;標楷體&apos;;" transform="translate(182,490)">
      <text x="10" y="16" style="clip-path:url(#clipPath19); stroke:none;" xml:space="preserve">[新增失敗]</text>
    </g>
    <g style="text-rendering:geometricPrecision; font-size:14; font-family:&apos;標楷體&apos;;" transform="translate(122,428)">
      <text x="10" y="16" style="clip-path:url(#clipPath19); stroke:none;" xml:space="preserve">[新增成功]</text>
    </g>
    <g style="text-rendering:geometricPrecision; font-size:14; font-family:&apos;標楷體&apos;;" transform="translate(2,259)">
      <text x="10" y="16" style="clip-path:url(#clipPath19); stroke:none;" xml:space="preserve">[新增失敗]</text>
    </g>
    <g style="fill:rgb(120,120,120); text-rendering:geometricPrecision; font-size:10; stroke:rgb(120,120,120);">
    </g>
  </g>
</svg>
