<?xml version="1.0" encoding="UTF-8"?>

<!DOCTYPE svg PUBLIC '-//W3C//DTD SVG 1.0//EN' 'http://www.w3.org/TR/2001/REC-SVG-20010904/DTD/svg10.dtd'>
<svg style="fill-opacity:1; color-rendering:auto; color-interpolation:auto; stroke:black; text-rendering:auto; stroke-linecap:square; stroke-miterlimit:10; stroke-opacity:1; shape-rendering:auto; fill:black; stroke-dasharray:none; font-weight:normal; stroke-width:1; font-family:&apos;Dialog&apos;; font-style:normal; stroke-linejoin:miter; font-size:12; stroke-dashoffset:0; image-rendering:auto;" xmlns="http://www.w3.org/2000/svg" width="646" xmlns:xlink="http://www.w3.org/1999/xlink" height="646">
  <!--Generated by the Batik Graphics2D SVG Generator-->
  <defs id="genericDefs" />
  <g>
    <defs id="defs1">
      <clipPath clipPathUnits="userSpaceOnUse" id="clipPath1">
        <path d="M-3 -3 L167 -3 L167 147 L-3 147 L-3 -3 Z" />
      </clipPath>
      <clipPath clipPathUnits="userSpaceOnUse" id="clipPath2">
        <path d="M0 0 L0 130 L160 130 L160 0 Z" />
      </clipPath>
      <clipPath clipPathUnits="userSpaceOnUse" id="clipPath3">
        <path d="M0 0 L160 0 L160 17 L0 17 L0 0 Z" />
      </clipPath>
      <clipPath clipPathUnits="userSpaceOnUse" id="clipPath4">
        <path d="M-3 -3 L167 -3 L167 77 L-3 77 L-3 -3 Z" />
      </clipPath>
      <clipPath clipPathUnits="userSpaceOnUse" id="clipPath5">
        <path d="M0 0 L0 60 L160 60 L160 0 Z" />
      </clipPath>
      <clipPath clipPathUnits="userSpaceOnUse" id="clipPath6">
        <path d="M-3 -3 L167 -3 L167 67 L-3 67 L-3 -3 Z" />
      </clipPath>
      <clipPath clipPathUnits="userSpaceOnUse" id="clipPath7">
        <path d="M0 0 L0 50 L160 50 L160 0 Z" />
      </clipPath>
      <clipPath clipPathUnits="userSpaceOnUse" id="clipPath8">
        <path d="M-3 -3 L167 -3 L167 117 L-3 117 L-3 -3 Z" />
      </clipPath>
      <clipPath clipPathUnits="userSpaceOnUse" id="clipPath9">
        <path d="M0 0 L0 100 L160 100 L160 0 Z" />
      </clipPath>
      <clipPath clipPathUnits="userSpaceOnUse" id="clipPath10">
        <path d="M-3 -3 L187 -3 L187 127 L-3 127 L-3 -3 Z" />
      </clipPath>
      <clipPath clipPathUnits="userSpaceOnUse" id="clipPath11">
        <path d="M0 0 L0 110 L180 110 L180 0 Z" />
      </clipPath>
      <clipPath clipPathUnits="userSpaceOnUse" id="clipPath12">
        <path d="M0 0 L180 0 L180 17 L0 17 L0 0 Z" />
      </clipPath>
      <clipPath clipPathUnits="userSpaceOnUse" id="clipPath13">
        <path d="M-3 -3 L62 -3 L62 59 L-3 59 L-3 -3 Z" />
      </clipPath>
      <clipPath clipPathUnits="userSpaceOnUse" id="clipPath14">
        <path d="M-3 -3 L47 -3 L47 27 L-3 27 L-3 -3 Z" />
      </clipPath>
      <clipPath clipPathUnits="userSpaceOnUse" id="clipPath15">
        <path d="M0 0 L147 0 L147 215 L0 215 L0 0 Z" />
      </clipPath>
      <clipPath clipPathUnits="userSpaceOnUse" id="clipPath16">
        <path d="M0 0 L147 0 L147 225 L0 225 L0 0 Z" />
      </clipPath>
      <clipPath clipPathUnits="userSpaceOnUse" id="clipPath17">
        <path d="M0 0 L297 0 L297 275 L0 275 L0 0 Z" />
      </clipPath>
      <clipPath clipPathUnits="userSpaceOnUse" id="clipPath18">
        <path d="M0 0 L305 0 L305 225 L0 225 L0 0 Z" />
      </clipPath>
      <clipPath clipPathUnits="userSpaceOnUse" id="clipPath19">
        <path d="M0 0 L147 0 L147 245 L0 245 L0 0 Z" />
      </clipPath>
      <clipPath clipPathUnits="userSpaceOnUse" id="clipPath20">
        <path d="M0 0 L40 0 L40 20 L0 20 L0 0 Z" />
      </clipPath>
    </defs>
    <g style="fill:white; text-rendering:geometricPrecision; stroke:white;">
      <rect x="0" y="0" width="646" style="stroke:none;" height="646" />
    </g>
    <g transform="translate(242,2)" style="font-size:14; fill:rgb(122,207,245); text-rendering:geometricPrecision; font-family:&apos;Times New Roman&apos;; stroke:rgb(122,207,245); font-weight:bold;">
      <rect x="0" y="0" width="160" style="clip-path:url(#clipPath1); stroke:none;" height="140" />
    </g>
    <g transform="translate(242,2)" style="font-size:14; stroke-linecap:butt; text-rendering:geometricPrecision; font-family:&apos;Times New Roman&apos;; stroke-linejoin:round; font-weight:bold; stroke-miterlimit:0;">
      <rect x="0" y="0" width="160" style="clip-path:url(#clipPath1); fill:none;" height="140" />
      <line x1="0" x2="160" y1="17" style="clip-path:url(#clipPath1); fill:none;" y2="17" />
    </g>
    <g style="text-rendering:geometricPrecision; font-size:14; font-family:&apos;Times New Roman&apos;;" transform="translate(242,19)">
      <text x="2" y="15" style="clip-path:url(#clipPath2); stroke:none;" xml:space="preserve">-categoryID : varchar</text>
      <text x="2" y="31" style="clip-path:url(#clipPath2); stroke:none;" xml:space="preserve">-storeID : varchar</text>
      <text x="2" y="47" style="clip-path:url(#clipPath2); stroke:none;" xml:space="preserve">-storeName : varchar</text>
      <text x="2" y="63" style="clip-path:url(#clipPath2); stroke:none;" xml:space="preserve">-storeAddr : varchar</text>
    </g>
    <g transform="translate(242,2)" style="text-rendering:geometricPrecision; font-size:14; font-weight:bold; font-family:&apos;Times New Roman&apos;;">
      <text x="65" y="14" style="clip-path:url(#clipPath3); stroke:none;" xml:space="preserve">store</text>
    </g>
    <g transform="translate(242,212)" style="font-size:14; fill:rgb(122,207,245); text-rendering:geometricPrecision; font-family:&apos;Times New Roman&apos;; stroke:rgb(122,207,245); font-weight:bold;">
      <rect x="0" y="0" width="160" style="clip-path:url(#clipPath4); stroke:none;" height="70" />
    </g>
    <g transform="translate(242,212)" style="font-size:14; stroke-linecap:butt; text-rendering:geometricPrecision; font-family:&apos;Times New Roman&apos;; stroke-linejoin:round; font-weight:bold; stroke-miterlimit:0;">
      <rect x="0" y="0" width="160" style="clip-path:url(#clipPath4); fill:none;" height="70" />
      <line x1="0" x2="160" y1="17" style="clip-path:url(#clipPath4); fill:none;" y2="17" />
    </g>
    <g style="text-rendering:geometricPrecision; font-size:14; font-family:&apos;Times New Roman&apos;;" transform="translate(242,229)">
      <text x="2" y="15" style="clip-path:url(#clipPath5); stroke:none;" xml:space="preserve">-categoryID : varchar</text>
      <text x="2" y="31" style="clip-path:url(#clipPath5); stroke:none;" xml:space="preserve">-categoryName : varchar</text>
    </g>
    <g transform="translate(242,212)" style="text-rendering:geometricPrecision; font-size:14; font-weight:bold; font-family:&apos;Times New Roman&apos;;">
      <text x="55" y="14" style="clip-path:url(#clipPath3); stroke:none;" xml:space="preserve">analysis</text>
    </g>
    <g transform="translate(242,362)" style="font-size:14; fill:rgb(122,207,245); text-rendering:geometricPrecision; font-family:&apos;Times New Roman&apos;; stroke:rgb(122,207,245); font-weight:bold;">
      <rect x="0" y="0" width="160" style="clip-path:url(#clipPath6); stroke:none;" height="60" />
    </g>
    <g transform="translate(242,362)" style="font-size:14; stroke-linecap:butt; text-rendering:geometricPrecision; font-family:&apos;Times New Roman&apos;; stroke-linejoin:round; font-weight:bold; stroke-miterlimit:0;">
      <rect x="0" y="0" width="160" style="clip-path:url(#clipPath6); fill:none;" height="60" />
      <line x1="0" x2="160" y1="17" style="clip-path:url(#clipPath6); fill:none;" y2="17" />
    </g>
    <g style="text-rendering:geometricPrecision; font-size:14; font-family:&apos;Times New Roman&apos;;" transform="translate(242,379)">
      <text x="2" y="15" style="clip-path:url(#clipPath7); stroke:none;" xml:space="preserve">-categoryID : varchar</text>
      <text x="2" y="31" style="clip-path:url(#clipPath7); stroke:none;" xml:space="preserve">-photoID : varchar</text>
    </g>
    <g transform="translate(242,362)" style="text-rendering:geometricPrecision; font-size:14; font-weight:bold; font-family:&apos;Times New Roman&apos;;">
      <text x="13" y="14" style="clip-path:url(#clipPath3); stroke:none;" xml:space="preserve">photoStyleConversion</text>
    </g>
    <g transform="translate(482,362)" style="font-size:14; fill:rgb(122,207,245); text-rendering:geometricPrecision; font-family:&apos;Times New Roman&apos;; stroke:rgb(122,207,245); font-weight:bold;">
      <rect x="0" y="0" width="160" style="clip-path:url(#clipPath6); stroke:none;" height="60" />
    </g>
    <g transform="translate(482,362)" style="font-size:14; stroke-linecap:butt; text-rendering:geometricPrecision; font-family:&apos;Times New Roman&apos;; stroke-linejoin:round; font-weight:bold; stroke-miterlimit:0;">
      <rect x="0" y="0" width="160" style="clip-path:url(#clipPath6); fill:none;" height="60" />
      <line x1="0" x2="160" y1="17" style="clip-path:url(#clipPath6); fill:none;" y2="17" />
    </g>
    <g transform="translate(482,379)" style="font-size:14; stroke-linecap:butt; text-rendering:geometricPrecision; font-family:&apos;Times New Roman&apos;; stroke-linejoin:round; stroke-miterlimit:0;">
      <text x="2" y="15" style="clip-path:url(#clipPath7); stroke:none;" xml:space="preserve">-categoryID : varchar</text>
      <text x="2" y="31" style="clip-path:url(#clipPath7); stroke:none;" xml:space="preserve">-photoID : varchar</text>
    </g>
    <g transform="translate(482,362)" style="font-size:14; stroke-linecap:butt; text-rendering:geometricPrecision; font-family:&apos;Times New Roman&apos;; stroke-linejoin:round; font-weight:bold; stroke-miterlimit:0;">
      <text x="39" y="14" style="clip-path:url(#clipPath3); stroke:none;" xml:space="preserve">photoIdentify</text>
    </g>
    <g transform="translate(2,312)" style="font-size:14; fill:rgb(122,207,245); text-rendering:geometricPrecision; font-family:&apos;Times New Roman&apos;; stroke:rgb(122,207,245); font-weight:bold;">
      <rect x="0" y="0" width="160" style="clip-path:url(#clipPath8); stroke:none;" height="110" />
    </g>
    <g transform="translate(2,312)" style="font-size:14; stroke-linecap:butt; text-rendering:geometricPrecision; font-family:&apos;Times New Roman&apos;; stroke-linejoin:round; font-weight:bold; stroke-miterlimit:0;">
      <rect x="0" y="0" width="160" style="clip-path:url(#clipPath8); fill:none;" height="110" />
      <line x1="0" x2="160" y1="17" style="clip-path:url(#clipPath8); fill:none;" y2="17" />
    </g>
    <g style="text-rendering:geometricPrecision; font-size:14; font-family:&apos;Times New Roman&apos;;" transform="translate(2,329)">
      <text x="2" y="15" style="clip-path:url(#clipPath9); stroke:none;" xml:space="preserve">-categoryID : varchar</text>
      <text x="2" y="31" style="clip-path:url(#clipPath9); stroke:none;" xml:space="preserve">-feedID : varchar</text>
      <text x="2" y="47" style="clip-path:url(#clipPath9); stroke:none;" xml:space="preserve">-feedName : varchar</text>
      <text x="2" y="63" style="clip-path:url(#clipPath9); stroke:none;" xml:space="preserve">-feed : varchar</text>
      <text x="2" y="79" style="clip-path:url(#clipPath9); stroke:none;" xml:space="preserve">-feedInfo : varchar</text>
    </g>
    <g transform="translate(2,312)" style="text-rendering:geometricPrecision; font-size:14; font-weight:bold; font-family:&apos;Times New Roman&apos;;">
      <text x="67" y="14" style="clip-path:url(#clipPath3); stroke:none;" xml:space="preserve">feed</text>
    </g>
    <g transform="translate(342,522)" style="font-size:14; fill:rgb(122,207,245); text-rendering:geometricPrecision; font-family:&apos;Times New Roman&apos;; stroke:rgb(122,207,245); font-weight:bold;">
      <rect x="0" y="0" width="180" style="clip-path:url(#clipPath10); stroke:none;" height="120" />
    </g>
    <g transform="translate(342,522)" style="font-size:14; stroke-linecap:butt; text-rendering:geometricPrecision; font-family:&apos;Times New Roman&apos;; stroke-linejoin:round; font-weight:bold; stroke-miterlimit:0;">
      <rect x="0" y="0" width="180" style="clip-path:url(#clipPath10); fill:none;" height="120" />
      <line x1="0" x2="180" y1="17" style="clip-path:url(#clipPath10); fill:none;" y2="17" />
    </g>
    <g transform="translate(342,539)" style="font-size:14; stroke-linecap:butt; text-rendering:geometricPrecision; font-family:&apos;Times New Roman&apos;; stroke-linejoin:round; stroke-miterlimit:0;">
      <text x="2" y="15" style="clip-path:url(#clipPath11); stroke:none;" xml:space="preserve">-albumID : varchar</text>
      <text x="2" y="31" style="clip-path:url(#clipPath11); stroke:none;" xml:space="preserve">-albumName : varchar</text>
      <text x="2" y="47" style="clip-path:url(#clipPath11); stroke:none;" xml:space="preserve">-photoID : varchar</text>
      <text x="2" y="63" style="clip-path:url(#clipPath11); stroke:none;" xml:space="preserve">-photo : varchar</text>
    </g>
    <g transform="translate(342,522)" style="font-size:14; stroke-linecap:butt; text-rendering:geometricPrecision; font-family:&apos;Times New Roman&apos;; stroke-linejoin:round; font-weight:bold; stroke-miterlimit:0;">
      <text x="70" y="14" style="clip-path:url(#clipPath12); stroke:none;" xml:space="preserve">album</text>
    </g>
    <g transform="translate(251,71)" style="font-size:11; stroke-linecap:butt; text-rendering:geometricPrecision; font-family:sans-serif; stroke-linejoin:round;">
      <line x1="71" x2="71" y1="71" style="clip-path:url(#clipPath15); fill:none;" y2="140" />
    </g>
    <g transform="translate(251,211)" style="font-size:11; stroke-linecap:butt; text-rendering:geometricPrecision; font-family:sans-serif; stroke-linejoin:round;">
      <line x1="71" x2="71" y1="71" style="clip-path:url(#clipPath16); fill:none;" y2="150" />
    </g>
    <g transform="translate(331,161)" style="font-size:11; stroke-linecap:butt; text-rendering:geometricPrecision; font-family:sans-serif; stroke-linejoin:round;">
      <line x1="71" x2="221" y1="71" style="clip-path:url(#clipPath17); fill:none;" y2="71" />
      <line x1="221" x2="221" y1="71" style="clip-path:url(#clipPath17); fill:none;" y2="200" />
    </g>
    <g transform="translate(11,161)" style="font-size:11; stroke-linecap:butt; text-rendering:geometricPrecision; font-family:sans-serif; stroke-linejoin:round;">
      <line x1="230" x2="71" y1="71" style="clip-path:url(#clipPath18); fill:none;" y2="71" />
      <line x1="71" x2="71" y1="71" style="clip-path:url(#clipPath18); fill:none;" y2="150" />
    </g>
    <g transform="translate(301,351)" style="font-size:11; stroke-linecap:butt; text-rendering:geometricPrecision; font-family:sans-serif; stroke-linejoin:round;">
      <line x1="71" x2="71" y1="71" style="clip-path:url(#clipPath19); fill:none;" y2="170" />
    </g>
    <g transform="translate(431,351)" style="font-size:11; stroke-linecap:butt; text-rendering:geometricPrecision; font-family:sans-serif; stroke-linejoin:round;">
      <line x1="71" x2="71" y1="71" style="clip-path:url(#clipPath19); fill:none;" y2="170" />
    </g>
    <g style="text-rendering:geometricPrecision; font-size:11; font-family:sans-serif;" transform="translate(92,282)">
      <text x="11" y="15" style="clip-path:url(#clipPath20); stroke:none;" xml:space="preserve">1..*</text>
    </g>
    <g style="text-rendering:geometricPrecision; font-size:11; font-family:sans-serif;" transform="translate(202,212)">
      <text x="17" y="15" style="clip-path:url(#clipPath20); stroke:none;" xml:space="preserve">1</text>
    </g>
    <g style="text-rendering:geometricPrecision; font-size:11; font-family:sans-serif;" transform="translate(322,342)">
      <text x="11" y="15" style="clip-path:url(#clipPath20); stroke:none;" xml:space="preserve">1..*</text>
    </g>
    <g style="text-rendering:geometricPrecision; font-size:11; font-family:sans-serif;" transform="translate(322,282)">
      <text x="17" y="15" style="clip-path:url(#clipPath20); stroke:none;" xml:space="preserve">1</text>
    </g>
    <g style="text-rendering:geometricPrecision; font-size:11; font-family:sans-serif;" transform="translate(502,502)">
      <text x="11" y="15" style="clip-path:url(#clipPath20); stroke:none;" xml:space="preserve">1..*</text>
    </g>
    <g style="text-rendering:geometricPrecision; font-size:11; font-family:sans-serif;" transform="translate(502,422)">
      <text x="11" y="15" style="clip-path:url(#clipPath20); stroke:none;" xml:space="preserve">1..*</text>
    </g>
    <g style="text-rendering:geometricPrecision; font-size:11; font-family:sans-serif;" transform="translate(322,192)">
      <text x="17" y="15" style="clip-path:url(#clipPath20); stroke:none;" xml:space="preserve">1</text>
    </g>
    <g style="text-rendering:geometricPrecision; font-size:11; font-family:sans-serif;" transform="translate(322,142)">
      <text x="11" y="15" style="clip-path:url(#clipPath20); stroke:none;" xml:space="preserve">1..*</text>
    </g>
    <g style="text-rendering:geometricPrecision; font-size:11; font-family:sans-serif;" transform="translate(372,502)">
      <text x="11" y="15" style="clip-path:url(#clipPath20); stroke:none;" xml:space="preserve">1..*</text>
    </g>
    <g style="text-rendering:geometricPrecision; font-size:11; font-family:sans-serif;" transform="translate(372,422)">
      <text x="11" y="15" style="clip-path:url(#clipPath20); stroke:none;" xml:space="preserve">1..*</text>
    </g>
    <g style="text-rendering:geometricPrecision; font-size:11; font-family:sans-serif;" transform="translate(562,332)">
      <text x="11" y="15" style="clip-path:url(#clipPath20); stroke:none;" xml:space="preserve">1..*</text>
    </g>
    <g style="text-rendering:geometricPrecision; font-size:11; font-family:sans-serif;" transform="translate(402,212)">
      <text x="17" y="15" style="clip-path:url(#clipPath20); stroke:none;" xml:space="preserve">1</text>
    </g>
    <g style="fill:rgb(120,120,120); text-rendering:geometricPrecision; font-size:10; stroke:rgb(120,120,120);">
    </g>
  </g>
</svg>
