<?xml version="1.0" encoding="UTF-8"?>

<!DOCTYPE svg PUBLIC '-//W3C//DTD SVG 1.0//EN' 'http://www.w3.org/TR/2001/REC-SVG-20010904/DTD/svg10.dtd'>
<svg style="fill-opacity:1; color-rendering:auto; color-interpolation:auto; stroke:black; text-rendering:auto; stroke-linecap:square; stroke-miterlimit:10; stroke-opacity:1; shape-rendering:auto; fill:black; stroke-dasharray:none; font-weight:normal; stroke-width:1; font-family:&apos;Dialog&apos;; font-style:normal; stroke-linejoin:miter; font-size:12; stroke-dashoffset:0; image-rendering:auto;" xmlns="http://www.w3.org/2000/svg" width="556" xmlns:xlink="http://www.w3.org/1999/xlink" height="486">
  <!--Generated by the Batik Graphics2D SVG Generator-->
  <defs id="genericDefs" />
  <g>
    <defs id="defs1">
      <clipPath clipPathUnits="userSpaceOnUse" id="clipPath1">
        <path d="M-3 -3 L187 -3 L187 217 L-3 217 L-3 -3 Z" />
      </clipPath>
      <clipPath clipPathUnits="userSpaceOnUse" id="clipPath2">
        <path d="M0 0 L0 200 L180 200 L180 0 Z" />
      </clipPath>
      <clipPath clipPathUnits="userSpaceOnUse" id="clipPath3">
        <path d="M0 0 L180 0 L180 17 L0 17 L0 0 Z" />
      </clipPath>
      <clipPath clipPathUnits="userSpaceOnUse" id="clipPath4">
        <path d="M-3 -3 L137 -3 L137 147 L-3 147 L-3 -3 Z" />
      </clipPath>
      <clipPath clipPathUnits="userSpaceOnUse" id="clipPath5">
        <path d="M0 0 L0 130 L130 130 L130 0 Z" />
      </clipPath>
      <clipPath clipPathUnits="userSpaceOnUse" id="clipPath6">
        <path d="M0 0 L130 0 L130 17 L0 17 L0 0 Z" />
      </clipPath>
      <clipPath clipPathUnits="userSpaceOnUse" id="clipPath7">
        <path d="M-3 -3 L137 -3 L137 117 L-3 117 L-3 -3 Z" />
      </clipPath>
      <clipPath clipPathUnits="userSpaceOnUse" id="clipPath8">
        <path d="M0 0 L0 100 L130 100 L130 0 Z" />
      </clipPath>
      <clipPath clipPathUnits="userSpaceOnUse" id="clipPath9">
        <path d="M-3 -3 L187 -3 L187 87 L-3 87 L-3 -3 Z" />
      </clipPath>
      <clipPath clipPathUnits="userSpaceOnUse" id="clipPath10">
        <path d="M0 0 L0 70 L180 70 L180 0 Z" />
      </clipPath>
      <clipPath clipPathUnits="userSpaceOnUse" id="clipPath11">
        <path d="M-3 -3 L187 -3 L187 117 L-3 117 L-3 -3 Z" />
      </clipPath>
      <clipPath clipPathUnits="userSpaceOnUse" id="clipPath12">
        <path d="M0 0 L0 100 L180 100 L180 0 Z" />
      </clipPath>
      <clipPath clipPathUnits="userSpaceOnUse" id="clipPath13">
        <path d="M-3 -3 L47 -3 L47 27 L-3 27 L-3 -3 Z" />
      </clipPath>
      <clipPath clipPathUnits="userSpaceOnUse" id="clipPath14">
        <path d="M0 0 L214 0 L214 213 L0 213 L0 0 Z" />
      </clipPath>
      <clipPath clipPathUnits="userSpaceOnUse" id="clipPath15">
        <path d="M0 0 L213 0 L213 213 L0 213 L0 0 Z" />
      </clipPath>
      <clipPath clipPathUnits="userSpaceOnUse" id="clipPath16">
        <path d="M0 0 L104 0 L104 143 L0 143 L0 0 Z" />
      </clipPath>
      <clipPath clipPathUnits="userSpaceOnUse" id="clipPath17">
        <path d="M0 0 L303 0 L303 494 L0 494 L0 0 Z" />
      </clipPath>
      <clipPath clipPathUnits="userSpaceOnUse" id="clipPath18">
        <path d="M0 0 L143 0 L143 214 L0 214 L0 0 Z" />
      </clipPath>
      <clipPath clipPathUnits="userSpaceOnUse" id="clipPath19">
        <path d="M0 0 L40 0 L40 20 L0 20 L0 0 Z" />
      </clipPath>
    </defs>
    <g style="fill:white; text-rendering:geometricPrecision; stroke:white;">
      <rect x="0" y="0" width="556" style="stroke:none;" height="486" />
    </g>
    <g transform="translate(202,2)" style="font-size:14; fill:rgb(122,207,245); text-rendering:geometricPrecision; font-family:&apos;Times New Roman&apos;; stroke:rgb(122,207,245); font-weight:bold;">
      <rect x="0" y="0" width="180" style="clip-path:url(#clipPath1); stroke:none;" height="210" />
    </g>
    <g transform="translate(202,2)" style="font-size:14; stroke-linecap:butt; text-rendering:geometricPrecision; font-family:&apos;Times New Roman&apos;; stroke-linejoin:round; font-weight:bold; stroke-miterlimit:0;">
      <rect x="0" y="0" width="180" style="clip-path:url(#clipPath1); fill:none;" height="210" />
      <line x1="0" x2="180" y1="17" style="clip-path:url(#clipPath1); fill:none;" y2="17" />
    </g>
    <g style="text-rendering:geometricPrecision; font-size:14; font-family:&apos;Times New Roman&apos;;" transform="translate(202,19)">
      <text x="2" y="15" style="clip-path:url(#clipPath2); stroke:none;" xml:space="preserve">-activityID : varchar</text>
      <text x="2" y="31" style="clip-path:url(#clipPath2); stroke:none;" xml:space="preserve">-activityName : varchar</text>
      <text x="2" y="47" style="clip-path:url(#clipPath2); stroke:none;" xml:space="preserve">-activityClass : char</text>
      <text x="2" y="63" style="clip-path:url(#clipPath2); stroke:none;" xml:space="preserve">-repeat : int</text>
      <text x="2" y="79" style="clip-path:url(#clipPath2); stroke:none;" xml:space="preserve">-note : varchar</text>
      <line x1="0" x2="180" y1="84" style="stroke-linecap:butt; clip-path:url(#clipPath2); fill:none; stroke-linejoin:bevel; stroke-miterlimit:0;" y2="84" />
      <text x="2" y="99" style="clip-path:url(#clipPath2); stroke:none;" xml:space="preserve">+ckeckActivityID()</text>
      <text x="2" y="115" style="clip-path:url(#clipPath2); stroke:none;" xml:space="preserve">+createActivityID()</text>
      <text x="2" y="131" style="clip-path:url(#clipPath2); stroke:none;" xml:space="preserve">+delActivityID()</text>
      <text x="2" y="147" style="clip-path:url(#clipPath2); stroke:none;" xml:space="preserve">+modifyCalendar()</text>
      <text x="2" y="163" style="clip-path:url(#clipPath2); stroke:none;" xml:space="preserve">+searchCalendar()</text>
      <text x="2" y="179" style="clip-path:url(#clipPath2); stroke:none;" xml:space="preserve">+getActivityClass()</text>
    </g>
    <g transform="translate(202,2)" style="text-rendering:geometricPrecision; font-size:14; font-weight:bold; font-family:&apos;Times New Roman&apos;;">
      <text x="63" y="14" style="clip-path:url(#clipPath3); stroke:none;" xml:space="preserve">calendar</text>
    </g>
    <g transform="translate(422,252)" style="font-size:14; fill:rgb(122,207,245); text-rendering:geometricPrecision; font-family:&apos;Times New Roman&apos;; stroke:rgb(122,207,245); font-weight:bold;">
      <rect x="0" y="0" width="130" style="clip-path:url(#clipPath4); stroke:none;" height="140" />
    </g>
    <g transform="translate(422,252)" style="font-size:14; stroke-linecap:butt; text-rendering:geometricPrecision; font-family:&apos;Times New Roman&apos;; stroke-linejoin:round; font-weight:bold; stroke-miterlimit:0;">
      <rect x="0" y="0" width="130" style="clip-path:url(#clipPath4); fill:none;" height="140" />
      <line x1="0" x2="130" y1="17" style="clip-path:url(#clipPath4); fill:none;" y2="17" />
    </g>
    <g style="text-rendering:geometricPrecision; font-size:14; font-family:&apos;Times New Roman&apos;;" transform="translate(422,269)">
      <text x="2" y="15" style="clip-path:url(#clipPath5); stroke:none;" xml:space="preserve">-activityID : varchar</text>
      <text x="2" y="31" style="clip-path:url(#clipPath5); stroke:none;" xml:space="preserve">-current : timestamp</text>
      <text x="2" y="47" style="clip-path:url(#clipPath5); stroke:none;" xml:space="preserve">-terminalTime : date</text>
      <text x="2" y="63" style="clip-path:url(#clipPath5); stroke:none;" xml:space="preserve">-remind : char</text>
      <text x="2" y="79" style="clip-path:url(#clipPath5); stroke:none;" xml:space="preserve">-countDown : int</text>
      <line x1="0" x2="130" y1="84" style="stroke-linecap:butt; clip-path:url(#clipPath5); fill:none; stroke-linejoin:bevel; stroke-miterlimit:0;" y2="84" />
      <text x="2" y="99" style="clip-path:url(#clipPath5); stroke:none;" xml:space="preserve">+getCurrent()</text>
      <text x="2" y="115" style="clip-path:url(#clipPath5); stroke:none;" xml:space="preserve">+getTerminal()</text>
    </g>
    <g transform="translate(422,252)" style="text-rendering:geometricPrecision; font-size:14; font-weight:bold; font-family:&apos;Times New Roman&apos;;">
      <text x="48" y="14" style="clip-path:url(#clipPath6); stroke:none;" xml:space="preserve">timer</text>
    </g>
    <g transform="translate(32,252)" style="font-size:14; fill:rgb(122,207,245); text-rendering:geometricPrecision; font-family:&apos;Times New Roman&apos;; stroke:rgb(122,207,245); font-weight:bold;">
      <rect x="0" y="0" width="130" style="clip-path:url(#clipPath7); stroke:none;" height="110" />
    </g>
    <g transform="translate(32,252)" style="font-size:14; stroke-linecap:butt; text-rendering:geometricPrecision; font-family:&apos;Times New Roman&apos;; stroke-linejoin:round; font-weight:bold; stroke-miterlimit:0;">
      <rect x="0" y="0" width="130" style="clip-path:url(#clipPath7); fill:none;" height="110" />
      <line x1="0" x2="130" y1="17" style="clip-path:url(#clipPath7); fill:none;" y2="17" />
    </g>
    <g style="text-rendering:geometricPrecision; font-size:14; font-family:&apos;Times New Roman&apos;;" transform="translate(32,269)">
      <text x="2" y="15" style="clip-path:url(#clipPath8); stroke:none;" xml:space="preserve">-activityID : varchar</text>
      <text x="2" y="31" style="clip-path:url(#clipPath8); stroke:none;" xml:space="preserve">-startingTime : date</text>
      <text x="2" y="47" style="clip-path:url(#clipPath8); stroke:none;" xml:space="preserve">-terminalTime : date</text>
      <line x1="0" x2="130" y1="52" style="stroke-linecap:butt; clip-path:url(#clipPath8); fill:none; stroke-linejoin:bevel; stroke-miterlimit:0;" y2="52" />
      <text x="2" y="67" style="clip-path:url(#clipPath8); stroke:none;" xml:space="preserve">+getStarting()</text>
      <text x="2" y="83" style="clip-path:url(#clipPath8); stroke:none;" xml:space="preserve">+getTerminal()</text>
    </g>
    <g transform="translate(32,252)" style="text-rendering:geometricPrecision; font-size:14; font-weight:bold; font-family:&apos;Times New Roman&apos;;">
      <text x="31" y="14" style="clip-path:url(#clipPath6); stroke:none;" xml:space="preserve">timeStamp</text>
    </g>
    <g transform="translate(202,252)" style="font-size:14; fill:rgb(122,207,245); text-rendering:geometricPrecision; font-family:&apos;Times New Roman&apos;; stroke:rgb(122,207,245); font-weight:bold;">
      <rect x="0" y="0" width="180" style="clip-path:url(#clipPath9); stroke:none;" height="80" />
    </g>
    <g transform="translate(202,252)" style="font-size:14; stroke-linecap:butt; text-rendering:geometricPrecision; font-family:&apos;Times New Roman&apos;; stroke-linejoin:round; font-weight:bold; stroke-miterlimit:0;">
      <rect x="0" y="0" width="180" style="clip-path:url(#clipPath9); fill:none;" height="80" />
      <line x1="0" x2="180" y1="17" style="clip-path:url(#clipPath9); fill:none;" y2="17" />
    </g>
    <g style="text-rendering:geometricPrecision; font-size:14; font-family:&apos;Times New Roman&apos;;" transform="translate(202,269)">
      <text x="2" y="15" style="clip-path:url(#clipPath10); stroke:none;" xml:space="preserve">-activityClass : varchar</text>
      <text x="2" y="31" style="clip-path:url(#clipPath10); stroke:none;" xml:space="preserve">-activityClassName : varchar</text>
      <line x1="0" x2="180" y1="36" style="stroke-linecap:butt; clip-path:url(#clipPath10); fill:none; stroke-linejoin:bevel; stroke-miterlimit:0;" y2="36" />
      <text x="2" y="51" style="clip-path:url(#clipPath10); stroke:none;" xml:space="preserve">+checkActivityClass()</text>
    </g>
    <g transform="translate(202,252)" style="text-rendering:geometricPrecision; font-size:14; font-weight:bold; font-family:&apos;Times New Roman&apos;;">
      <text x="67" y="14" style="clip-path:url(#clipPath3); stroke:none;" xml:space="preserve">activity</text>
    </g>
    <g transform="translate(202,372)" style="font-size:14; fill:rgb(122,207,245); text-rendering:geometricPrecision; font-family:&apos;Times New Roman&apos;; stroke:rgb(122,207,245); font-weight:bold;">
      <rect x="0" y="0" width="180" style="clip-path:url(#clipPath11); stroke:none;" height="110" />
    </g>
    <g transform="translate(202,372)" style="font-size:14; stroke-linecap:butt; text-rendering:geometricPrecision; font-family:&apos;Times New Roman&apos;; stroke-linejoin:round; font-weight:bold; stroke-miterlimit:0;">
      <rect x="0" y="0" width="180" style="clip-path:url(#clipPath11); fill:none;" height="110" />
      <line x1="0" x2="180" y1="17" style="clip-path:url(#clipPath11); fill:none;" y2="17" />
    </g>
    <g style="text-rendering:geometricPrecision; font-size:14; font-family:&apos;Times New Roman&apos;;" transform="translate(202,389)">
      <text x="2" y="15" style="clip-path:url(#clipPath12); stroke:none;" xml:space="preserve">-activityName : string</text>
      <line x1="0" x2="180" y1="20" style="stroke-linecap:butt; clip-path:url(#clipPath12); fill:none; stroke-linejoin:bevel; stroke-miterlimit:0;" y2="20" />
      <text x="2" y="35" style="clip-path:url(#clipPath12); stroke:none;" xml:space="preserve">+addGetID()</text>
      <text x="2" y="51" style="clip-path:url(#clipPath12); stroke:none;" xml:space="preserve">+deleteGetID()</text>
      <text x="2" y="67" style="clip-path:url(#clipPath12); stroke:none;" xml:space="preserve">+modifyGetID()</text>
      <text x="2" y="83" style="clip-path:url(#clipPath12); stroke:none;" xml:space="preserve">+queryGetID()</text>
    </g>
    <g transform="translate(202,372)" style="text-rendering:geometricPrecision; font-size:14; font-weight:bold; font-family:&apos;Times New Roman&apos;;">
      <text x="63" y="14" style="clip-path:url(#clipPath3); stroke:none;" xml:space="preserve">database</text>
    </g>
    <g transform="translate(332,92)" style="font-size:11; stroke-linecap:butt; text-rendering:geometricPrecision; font-family:sans-serif; stroke-linejoin:round;">
      <line x1="50" x2="160" y1="50" style="clip-path:url(#clipPath14); fill:none;" y2="50" />
      <line x1="160" x2="160" y1="50" style="clip-path:url(#clipPath14); fill:none;" y2="159" />
    </g>
    <g transform="translate(42,92)" style="font-size:11; stroke-linecap:butt; text-rendering:geometricPrecision; font-family:sans-serif; stroke-linejoin:round;">
      <line x1="159" x2="50" y1="50" style="clip-path:url(#clipPath15); fill:none;" y2="50" />
      <line x1="50" x2="50" y1="50" style="clip-path:url(#clipPath15); fill:none;" y2="159" />
    </g>
    <g transform="translate(242,162)" style="font-size:11; stroke-linecap:butt; text-rendering:geometricPrecision; font-family:sans-serif; stroke-linejoin:round;">
      <line x1="50" x2="50" y1="50" style="clip-path:url(#clipPath16); fill:none;" y2="89" />
    </g>
    <g transform="translate(-48,12)" style="font-size:11; stroke-linecap:butt; text-rendering:geometricPrecision; font-family:sans-serif; stroke-linejoin:round;">
      <line x1="249" x2="50" y1="50" style="clip-path:url(#clipPath17); fill:none;" y2="50" />
      <line x1="50" x2="50" y1="50" style="clip-path:url(#clipPath17); fill:none;" y2="440" />
      <line x1="50" x2="249" y1="440" style="clip-path:url(#clipPath17); fill:none;" y2="440" />
    </g>
    <g transform="translate(242,282)" style="font-size:11; stroke-linecap:butt; text-rendering:geometricPrecision; font-family:sans-serif; stroke-linejoin:round;">
      <line x1="50" x2="50" y1="50" style="clip-path:url(#clipPath16); fill:none;" y2="89" />
    </g>
    <g transform="translate(332,252)" style="font-size:11; stroke-linecap:butt; text-rendering:geometricPrecision; font-family:sans-serif; stroke-linejoin:round;">
      <line x1="89" x2="70" y1="50" style="clip-path:url(#clipPath18); fill:none;" y2="50" />
      <line x1="70" x2="70" y1="50" style="clip-path:url(#clipPath18); fill:none;" y2="160" />
      <line x1="70" x2="50" y1="160" style="clip-path:url(#clipPath18); fill:none;" y2="160" />
    </g>
    <g transform="translate(112,252)" style="font-size:11; stroke-linecap:butt; text-rendering:geometricPrecision; font-family:sans-serif; stroke-linejoin:round;">
      <line x1="89" x2="70" y1="160" style="clip-path:url(#clipPath18); fill:none;" y2="160" />
      <line x1="70" x2="70" y1="160" style="clip-path:url(#clipPath18); fill:none;" y2="50" />
      <line x1="70" x2="50" y1="50" style="clip-path:url(#clipPath18); fill:none;" y2="50" />
    </g>
    <g style="text-rendering:geometricPrecision; font-size:11; font-family:sans-serif;" transform="translate(292,352)">
      <text x="17" y="15" style="clip-path:url(#clipPath19); stroke:none;" xml:space="preserve">1</text>
    </g>
    <g style="text-rendering:geometricPrecision; font-size:11; font-family:sans-serif;" transform="translate(292,332)">
      <text x="17" y="15" style="clip-path:url(#clipPath19); stroke:none;" xml:space="preserve">1</text>
    </g>
    <g style="text-rendering:geometricPrecision; font-size:11; font-family:sans-serif;" transform="translate(492,232)">
      <text x="11" y="15" style="clip-path:url(#clipPath19); stroke:none;" xml:space="preserve">1..*</text>
    </g>
    <g style="text-rendering:geometricPrecision; font-size:11; font-family:sans-serif;" transform="translate(382,122)">
      <text x="17" y="15" style="clip-path:url(#clipPath19); stroke:none;" xml:space="preserve">1</text>
    </g>
    <g style="text-rendering:geometricPrecision; font-size:11; font-family:sans-serif;" transform="translate(372,392)">
      <text x="17" y="15" style="clip-path:url(#clipPath19); stroke:none;" xml:space="preserve">1</text>
    </g>
    <g style="text-rendering:geometricPrecision; font-size:11; font-family:sans-serif;" transform="translate(392,282)">
      <text x="17" y="15" style="clip-path:url(#clipPath19); stroke:none;" xml:space="preserve">1</text>
    </g>
    <g style="text-rendering:geometricPrecision; font-size:11; font-family:sans-serif;" transform="translate(62,232)">
      <text x="11" y="15" style="clip-path:url(#clipPath19); stroke:none;" xml:space="preserve">1..*</text>
    </g>
    <g style="text-rendering:geometricPrecision; font-size:11; font-family:sans-serif;" transform="translate(162,122)">
      <text x="17" y="15" style="clip-path:url(#clipPath19); stroke:none;" xml:space="preserve">1</text>
    </g>
    <g style="text-rendering:geometricPrecision; font-size:11; font-family:sans-serif;" transform="translate(292,232)">
      <text x="11" y="15" style="clip-path:url(#clipPath19); stroke:none;" xml:space="preserve">1..*</text>
    </g>
    <g style="text-rendering:geometricPrecision; font-size:11; font-family:sans-serif;" transform="translate(292,212)">
      <text x="17" y="15" style="clip-path:url(#clipPath19); stroke:none;" xml:space="preserve">1</text>
    </g>
    <g style="text-rendering:geometricPrecision; font-size:11; font-family:sans-serif;" transform="translate(172,432)">
      <text x="17" y="15" style="clip-path:url(#clipPath19); stroke:none;" xml:space="preserve">1</text>
    </g>
    <g style="text-rendering:geometricPrecision; font-size:11; font-family:sans-serif;" transform="translate(162,42)">
      <text x="17" y="15" style="clip-path:url(#clipPath19); stroke:none;" xml:space="preserve">1</text>
    </g>
    <g style="text-rendering:geometricPrecision; font-size:11; font-family:sans-serif;" transform="translate(152,282)">
      <text x="17" y="15" style="clip-path:url(#clipPath19); stroke:none;" xml:space="preserve">1</text>
    </g>
    <g style="text-rendering:geometricPrecision; font-size:11; font-family:sans-serif;" transform="translate(172,392)">
      <text x="17" y="15" style="clip-path:url(#clipPath19); stroke:none;" xml:space="preserve">1</text>
    </g>
    <g style="fill:rgb(120,120,120); text-rendering:geometricPrecision; font-size:10; stroke:rgb(120,120,120);">
      <text xml:space="preserve" x="0" y="10" style="stroke:none;">Visual Paradigm for UML Personal Edition [not for commercial use] </text>
      <text xml:space="preserve" x="0" y="10" style="stroke:none;">Visual Paradigm for UML Personal Edition [not for commercial use] </text>
    </g>
  </g>
</svg>
