<?xml version="1.0" encoding="UTF-8"?>

<!DOCTYPE svg PUBLIC '-//W3C//DTD SVG 1.0//EN' 'http://www.w3.org/TR/2001/REC-SVG-20010904/DTD/svg10.dtd'>
<svg style="fill-opacity:1; color-rendering:auto; color-interpolation:auto; stroke:black; text-rendering:auto; stroke-linecap:square; stroke-miterlimit:10; stroke-opacity:1; shape-rendering:auto; fill:black; stroke-dasharray:none; font-weight:normal; stroke-width:1; font-family:&apos;Dialog&apos;; font-style:normal; stroke-linejoin:miter; font-size:12; stroke-dashoffset:0; image-rendering:auto;" xmlns="http://www.w3.org/2000/svg" width="804" xmlns:xlink="http://www.w3.org/1999/xlink" height="484">
  <!--Generated by the Batik Graphics2D SVG Generator-->
  <defs id="genericDefs" />
  <g>
    <defs id="defs1">
      <clipPath clipPathUnits="userSpaceOnUse" id="clipPath1">
        <path d="M-3 -3 L807 -3 L807 487 L-3 487 L-3 -3 Z" />
      </clipPath>
      <clipPath clipPathUnits="userSpaceOnUse" id="clipPath2">
        <path d="M0 0 L0 470 L7 470 L7 0 Z" />
      </clipPath>
      <clipPath clipPathUnits="userSpaceOnUse" id="clipPath3">
        <path d="M-3 -3 L147 -3 L147 24 L-3 24 L-3 -3 Z" />
      </clipPath>
      <clipPath clipPathUnits="userSpaceOnUse" id="clipPath4">
        <path d="M0 0 L140 0 L140 17 L0 17 L0 0 Z" />
      </clipPath>
      <clipPath clipPathUnits="userSpaceOnUse" id="clipPath5">
        <path d="M-3 -3 L147 -3 L147 469 L-3 469 L-3 -3 Z" />
      </clipPath>
      <clipPath clipPathUnits="userSpaceOnUse" id="clipPath6">
        <path d="M-3 -3 L527 -3 L527 24 L-3 24 L-3 -3 Z" />
      </clipPath>
      <clipPath clipPathUnits="userSpaceOnUse" id="clipPath7">
        <path d="M0 0 L520 0 L520 17 L0 17 L0 0 Z" />
      </clipPath>
      <clipPath clipPathUnits="userSpaceOnUse" id="clipPath8">
        <path d="M-3 -3 L527 -3 L527 469 L-3 469 L-3 -3 Z" />
      </clipPath>
      <clipPath clipPathUnits="userSpaceOnUse" id="clipPath9">
        <path d="M-3 -3 L47 -3 L47 27 L-3 27 L-3 -3 Z" />
      </clipPath>
      <clipPath clipPathUnits="userSpaceOnUse" id="clipPath10">
        <path d="M-3 -3 L87 -3 L87 47 L-3 47 L-3 -3 Z" />
      </clipPath>
      <clipPath clipPathUnits="userSpaceOnUse" id="clipPath11">
        <path d="M0 0 L80 0 L80 40 L0 40 L0 0 Z" />
      </clipPath>
      <clipPath clipPathUnits="userSpaceOnUse" id="clipPath12">
        <path d="M-3 -3 L28 -3 L28 47 L-3 47 L-3 -3 Z" />
      </clipPath>
      <clipPath clipPathUnits="userSpaceOnUse" id="clipPath13">
        <path d="M-3 -3 L97 -3 L97 47 L-3 47 L-3 -3 Z" />
      </clipPath>
      <clipPath clipPathUnits="userSpaceOnUse" id="clipPath14">
        <path d="M0 0 L90 0 L90 40 L0 40 L0 0 Z" />
      </clipPath>
      <clipPath clipPathUnits="userSpaceOnUse" id="clipPath15">
        <path d="M-3 -3 L77 -3 L77 47 L-3 47 L-3 -3 Z" />
      </clipPath>
      <clipPath clipPathUnits="userSpaceOnUse" id="clipPath16">
        <path d="M0 0 L70 0 L70 40 L0 40 L0 0 Z" />
      </clipPath>
      <clipPath clipPathUnits="userSpaceOnUse" id="clipPath17">
        <path d="M-3 -3 L27 -3 L27 47 L-3 47 L-3 -3 Z" />
      </clipPath>
      <clipPath clipPathUnits="userSpaceOnUse" id="clipPath18">
        <path d="M-3 -3 L27 -3 L27 27 L-3 27 L-3 -3 Z" />
      </clipPath>
      <clipPath clipPathUnits="userSpaceOnUse" id="clipPath19">
        <path d="M0 0 L140 0 L140 462 L0 462 L0 0 Z" />
      </clipPath>
      <clipPath clipPathUnits="userSpaceOnUse" id="clipPath20">
        <path d="M0 0 L520 0 L520 462 L0 462 L0 0 Z" />
      </clipPath>
      <clipPath clipPathUnits="userSpaceOnUse" id="clipPath21">
        <path d="M0 0 L129 0 L129 192 L0 192 L0 0 Z" />
      </clipPath>
      <clipPath clipPathUnits="userSpaceOnUse" id="clipPath22">
        <path d="M0 0 L129 0 L129 252 L0 252 L0 0 Z" />
      </clipPath>
      <clipPath clipPathUnits="userSpaceOnUse" id="clipPath23">
        <path d="M0 0 L232 0 L232 129 L0 129 L0 0 Z" />
      </clipPath>
      <clipPath clipPathUnits="userSpaceOnUse" id="clipPath24">
        <path d="M0 0 L164 0 L164 129 L0 129 L0 0 Z" />
      </clipPath>
      <clipPath clipPathUnits="userSpaceOnUse" id="clipPath25">
        <path d="M0 0 L237 0 L237 234 L0 234 L0 0 Z" />
      </clipPath>
      <clipPath clipPathUnits="userSpaceOnUse" id="clipPath26">
        <path d="M0 0 L234 0 L234 165 L0 165 L0 0 Z" />
      </clipPath>
      <clipPath clipPathUnits="userSpaceOnUse" id="clipPath27">
        <path d="M0 0 L235 0 L235 221 L0 221 L0 0 Z" />
      </clipPath>
      <clipPath clipPathUnits="userSpaceOnUse" id="clipPath28">
        <path d="M0 0 L174 0 L174 129 L0 129 L0 0 Z" />
      </clipPath>
      <clipPath clipPathUnits="userSpaceOnUse" id="clipPath29">
        <path d="M0 0 L596 0 L596 264 L0 264 L0 0 Z" />
      </clipPath>
      <clipPath clipPathUnits="userSpaceOnUse" id="clipPath30">
        <path d="M0 0 L594 0 L594 195 L0 195 L0 0 Z" />
      </clipPath>
      <clipPath clipPathUnits="userSpaceOnUse" id="clipPath31">
        <path d="M0 0 L176 0 L176 129 L0 129 L0 0 Z" />
      </clipPath>
      <clipPath clipPathUnits="userSpaceOnUse" id="clipPath32">
        <path d="M0 0 L595 0 L595 252 L0 252 L0 0 Z" />
      </clipPath>
      <clipPath clipPathUnits="userSpaceOnUse" id="clipPath33">
        <path d="M0 0 L220 0 L220 221 L0 221 L0 0 Z" />
      </clipPath>
      <clipPath clipPathUnits="userSpaceOnUse" id="clipPath34">
        <path d="M0 0 L217 0 L217 156 L0 156 L0 0 Z" />
      </clipPath>
      <clipPath clipPathUnits="userSpaceOnUse" id="clipPath35">
        <path d="M0 0 L217 0 L217 166 L0 166 L0 0 Z" />
      </clipPath>
      <clipPath clipPathUnits="userSpaceOnUse" id="clipPath36">
        <path d="M0 0 L220 0 L220 230 L0 230 L0 0 Z" />
      </clipPath>
      <clipPath clipPathUnits="userSpaceOnUse" id="clipPath37">
        <path d="M0 0 L214 0 L214 129 L0 129 L0 0 Z" />
      </clipPath>
      <clipPath clipPathUnits="userSpaceOnUse" id="clipPath38">
        <path d="M0 0 L90 0 L90 18 L0 18 L0 0 Z" />
      </clipPath>
    </defs>
    <g style="fill:white; text-rendering:geometricPrecision; stroke:white;">
      <rect x="0" y="0" width="804" style="stroke:none;" height="484" />
    </g>
    <g style="text-rendering:geometricPrecision; stroke-width:2; font-size:11; font-family:sans-serif;">
      <rect x="0" y="0" width="140" style="clip-path:url(#clipPath3); fill:none;" height="17" />
    </g>
    <g style="text-rendering:geometricPrecision; font-size:11; font-family:sans-serif;">
      <text x="59" y="14" style="clip-path:url(#clipPath4); stroke:none;" xml:space="preserve">會員</text>
    </g>
    <g transform="translate(0,17)" style="text-rendering:geometricPrecision; stroke-width:2; font-size:11; font-family:sans-serif;">
      <rect x="0" y="0" width="140" style="clip-path:url(#clipPath5); fill:none;" height="462" />
    </g>
    <g transform="translate(140,0)" style="text-rendering:geometricPrecision; stroke-width:2; font-size:11; font-family:sans-serif;">
      <rect x="0" y="0" width="520" style="clip-path:url(#clipPath6); fill:none;" height="17" />
    </g>
    <g style="text-rendering:geometricPrecision; font-size:11; font-family:sans-serif;" transform="translate(140,0)">
      <text x="232" y="14" style="clip-path:url(#clipPath7); stroke:none;" xml:space="preserve">行事曆管理</text>
    </g>
    <g transform="translate(140,17)" style="text-rendering:geometricPrecision; stroke-width:2; font-size:11; font-family:sans-serif;">
      <rect x="0" y="0" width="520" style="clip-path:url(#clipPath8); fill:none;" height="462" />
    </g>
    <g transform="translate(660,0)" style="text-rendering:geometricPrecision; stroke-width:2; font-size:11; font-family:sans-serif;">
      <rect x="0" y="0" width="140" style="clip-path:url(#clipPath3); fill:none;" height="17" />
    </g>
    <g style="text-rendering:geometricPrecision; font-size:11; font-family:sans-serif;" transform="translate(660,0)">
      <text x="53" y="14" style="clip-path:url(#clipPath4); stroke:none;" xml:space="preserve">資料庫</text>
    </g>
    <g transform="translate(660,17)" style="text-rendering:geometricPrecision; stroke-width:2; font-size:11; font-family:sans-serif;">
      <rect x="0" y="0" width="140" style="clip-path:url(#clipPath5); fill:none;" height="462" />
    </g>
    <g style="text-rendering:geometricPrecision; font-size:11; font-family:sans-serif;" transform="translate(40,40)">
      <circle style="clip-path:url(#clipPath9); stroke:none;" r="10" cx="20" cy="10" />
    </g>
    <g transform="translate(20,120)" style="font-size:14; fill:rgb(122,207,245); text-rendering:geometricPrecision; font-family:&apos;標楷體&apos;; stroke:rgb(122,207,245);">
      <rect x="1" y="1" width="78" style="clip-path:url(#clipPath10); stroke:none;" rx="15" ry="15" height="38" />
    </g>
    <g transform="translate(20,120)" style="font-size:14; stroke-linecap:butt; text-rendering:geometricPrecision; font-family:&apos;標楷體&apos;; stroke-linejoin:round; stroke-miterlimit:0;">
      <rect x="1" y="1" width="78" style="clip-path:url(#clipPath10); fill:none;" rx="15" ry="15" height="38" />
    </g>
    <g style="text-rendering:geometricPrecision; font-size:14; font-family:&apos;標楷體&apos;;" transform="translate(20,120)">
      <text x="12" y="27" style="clip-path:url(#clipPath11); stroke:none;" xml:space="preserve">登入會員</text>
    </g>
    <g transform="translate(50,270)" style="font-size:11; fill:rgb(122,207,245); text-rendering:geometricPrecision; font-family:sans-serif; stroke:rgb(122,207,245);">
      <polygon style="clip-path:url(#clipPath12); stroke:none;" points=" 10 7 18 20 10 32 3 20" />
    </g>
    <g transform="translate(50,270)" style="font-size:11; stroke-linecap:butt; text-rendering:geometricPrecision; font-family:sans-serif; stroke-linejoin:round; stroke-miterlimit:0;">
      <polygon style="fill:none; clip-path:url(#clipPath12);" points=" 10 7 18 20 10 32 3 20" />
    </g>
    <g transform="translate(170,270)" style="font-size:14; fill:rgb(122,207,245); text-rendering:geometricPrecision; font-family:&apos;標楷體&apos;; stroke:rgb(122,207,245);">
      <rect x="1" y="1" width="88" style="clip-path:url(#clipPath13); stroke:none;" rx="15" ry="15" height="38" />
    </g>
    <g transform="translate(170,270)" style="font-size:14; stroke-linecap:butt; text-rendering:geometricPrecision; font-family:&apos;標楷體&apos;; stroke-linejoin:round; stroke-miterlimit:0;">
      <rect x="1" y="1" width="88" style="clip-path:url(#clipPath13); fill:none;" rx="15" ry="15" height="38" />
    </g>
    <g style="text-rendering:geometricPrecision; font-size:14; font-family:&apos;標楷體&apos;;" transform="translate(170,270)">
      <text x="10" y="27" style="clip-path:url(#clipPath14); stroke:none;" xml:space="preserve">行事曆管理</text>
    </g>
    <g transform="translate(290,270)" style="font-size:11; fill:rgb(122,207,245); text-rendering:geometricPrecision; font-family:sans-serif; stroke:rgb(122,207,245);">
      <polygon style="clip-path:url(#clipPath12); stroke:none;" points=" 10 7 18 20 10 32 3 20" />
    </g>
    <g transform="translate(290,270)" style="font-size:11; stroke-linecap:butt; text-rendering:geometricPrecision; font-family:sans-serif; stroke-linejoin:round; stroke-miterlimit:0;">
      <polygon style="fill:none; clip-path:url(#clipPath12);" points=" 10 7 18 20 10 32 3 20" />
    </g>
    <g transform="translate(410,160)" style="font-size:14; fill:rgb(122,207,245); text-rendering:geometricPrecision; font-family:&apos;標楷體&apos;; stroke:rgb(122,207,245);">
      <rect x="1" y="1" width="68" style="clip-path:url(#clipPath15); stroke:none;" rx="15" ry="15" height="38" />
    </g>
    <g transform="translate(410,160)" style="font-size:14; stroke-linecap:butt; text-rendering:geometricPrecision; font-family:&apos;標楷體&apos;; stroke-linejoin:round; stroke-miterlimit:0;">
      <rect x="1" y="1" width="68" style="clip-path:url(#clipPath15); fill:none;" rx="15" ry="15" height="38" />
    </g>
    <g style="text-rendering:geometricPrecision; font-size:14; font-family:&apos;標楷體&apos;;" transform="translate(410,160)">
      <text x="21" y="27" style="clip-path:url(#clipPath16); stroke:none;" xml:space="preserve">新增</text>
    </g>
    <g transform="translate(410,230)" style="font-size:14; fill:rgb(122,207,245); text-rendering:geometricPrecision; font-family:&apos;標楷體&apos;; stroke:rgb(122,207,245);">
      <rect x="1" y="1" width="68" style="clip-path:url(#clipPath15); stroke:none;" rx="15" ry="15" height="38" />
    </g>
    <g transform="translate(410,230)" style="font-size:14; stroke-linecap:butt; text-rendering:geometricPrecision; font-family:&apos;標楷體&apos;; stroke-linejoin:round; stroke-miterlimit:0;">
      <rect x="1" y="1" width="68" style="clip-path:url(#clipPath15); fill:none;" rx="15" ry="15" height="38" />
    </g>
    <g style="text-rendering:geometricPrecision; font-size:14; font-family:&apos;標楷體&apos;;" transform="translate(410,230)">
      <text x="21" y="27" style="clip-path:url(#clipPath16); stroke:none;" xml:space="preserve">刪除</text>
    </g>
    <g transform="translate(410,310)" style="font-size:14; fill:rgb(122,207,245); text-rendering:geometricPrecision; font-family:&apos;標楷體&apos;; stroke:rgb(122,207,245);">
      <rect x="1" y="1" width="68" style="clip-path:url(#clipPath15); stroke:none;" rx="15" ry="15" height="38" />
    </g>
    <g transform="translate(410,310)" style="font-size:14; stroke-linecap:butt; text-rendering:geometricPrecision; font-family:&apos;標楷體&apos;; stroke-linejoin:round; stroke-miterlimit:0;">
      <rect x="1" y="1" width="68" style="clip-path:url(#clipPath15); fill:none;" rx="15" ry="15" height="38" />
    </g>
    <g style="text-rendering:geometricPrecision; font-size:14; font-family:&apos;標楷體&apos;;" transform="translate(410,310)">
      <text x="21" y="27" style="clip-path:url(#clipPath16); stroke:none;" xml:space="preserve">修改</text>
    </g>
    <g transform="translate(410,370)" style="font-size:14; fill:rgb(122,207,245); text-rendering:geometricPrecision; font-family:&apos;標楷體&apos;; stroke:rgb(122,207,245);">
      <rect x="1" y="1" width="68" style="clip-path:url(#clipPath15); stroke:none;" rx="15" ry="15" height="38" />
    </g>
    <g transform="translate(410,370)" style="font-size:14; stroke-linecap:butt; text-rendering:geometricPrecision; font-family:&apos;標楷體&apos;; stroke-linejoin:round; stroke-miterlimit:0;">
      <rect x="1" y="1" width="68" style="clip-path:url(#clipPath15); fill:none;" rx="15" ry="15" height="38" />
    </g>
    <g style="text-rendering:geometricPrecision; font-size:14; font-family:&apos;標楷體&apos;;" transform="translate(410,370)">
      <text x="21" y="27" style="clip-path:url(#clipPath16); stroke:none;" xml:space="preserve">查詢</text>
    </g>
    <g transform="translate(520,160)" style="font-size:11; fill:rgb(122,207,245); text-rendering:geometricPrecision; font-family:sans-serif; stroke:rgb(122,207,245);">
      <polygon style="clip-path:url(#clipPath12); stroke:none;" points=" 10 7 18 20 10 32 3 20" />
    </g>
    <g transform="translate(520,160)" style="font-size:11; stroke-linecap:butt; text-rendering:geometricPrecision; font-family:sans-serif; stroke-linejoin:round; stroke-miterlimit:0;">
      <polygon style="fill:none; clip-path:url(#clipPath12);" points=" 10 7 18 20 10 32 3 20" />
    </g>
    <g transform="translate(520,230)" style="font-size:11; fill:rgb(122,207,245); text-rendering:geometricPrecision; font-family:sans-serif; stroke:rgb(122,207,245);">
      <polygon style="clip-path:url(#clipPath12); stroke:none;" points=" 10 7 18 20 10 32 3 20" />
    </g>
    <g transform="translate(520,230)" style="font-size:11; stroke-linecap:butt; text-rendering:geometricPrecision; font-family:sans-serif; stroke-linejoin:round; stroke-miterlimit:0;">
      <polygon style="fill:none; clip-path:url(#clipPath12);" points=" 10 7 18 20 10 32 3 20" />
    </g>
    <g transform="translate(520,300)" style="font-size:11; fill:rgb(122,207,245); text-rendering:geometricPrecision; font-family:sans-serif; stroke:rgb(122,207,245);">
      <polygon style="clip-path:url(#clipPath12); stroke:none;" points=" 10 7 18 20 10 32 3 20" />
    </g>
    <g transform="translate(520,300)" style="font-size:11; stroke-linecap:butt; text-rendering:geometricPrecision; font-family:sans-serif; stroke-linejoin:round; stroke-miterlimit:0;">
      <polygon style="fill:none; clip-path:url(#clipPath12);" points=" 10 7 18 20 10 32 3 20" />
    </g>
    <g transform="translate(520,370)" style="font-size:11; fill:rgb(122,207,245); text-rendering:geometricPrecision; font-family:sans-serif; stroke:rgb(122,207,245);">
      <polygon style="clip-path:url(#clipPath12); stroke:none;" points=" 10 7 18 20 10 32 3 20" />
    </g>
    <g transform="translate(520,370)" style="font-size:11; stroke-linecap:butt; text-rendering:geometricPrecision; font-family:sans-serif; stroke-linejoin:round; stroke-miterlimit:0;">
      <polygon style="fill:none; clip-path:url(#clipPath12);" points=" 10 7 18 20 10 32 3 20" />
    </g>
    <g transform="translate(620,260)" style="font-size:11; fill:rgb(122,207,245); text-rendering:geometricPrecision; font-family:sans-serif; stroke:rgb(122,207,245);">
      <polygon style="clip-path:url(#clipPath17); stroke:none;" points=" 10 7 17 20 10 32 3 20" />
    </g>
    <g transform="translate(620,260)" style="font-size:11; stroke-linecap:butt; text-rendering:geometricPrecision; font-family:sans-serif; stroke-linejoin:round; stroke-miterlimit:0;">
      <polygon style="fill:none; clip-path:url(#clipPath17);" points=" 10 7 17 20 10 32 3 20" />
    </g>
    <g style="text-rendering:geometricPrecision; font-size:11; font-family:sans-serif;" transform="translate(720,270)">
      <circle style="clip-path:url(#clipPath18); stroke:none;" r="6.6667" cx="10" cy="10" />
      <circle style="stroke-linecap:butt; clip-path:url(#clipPath18); fill:none; stroke-linejoin:round; stroke-miterlimit:0;" r="10" cx="10" cy="10" />
    </g>
    <g transform="translate(-2,-4)" style="font-size:11; stroke-linecap:butt; text-rendering:geometricPrecision; font-family:sans-serif; stroke-linejoin:round;">
      <line x1="63" x2="63" y1="63" style="clip-path:url(#clipPath21); fill:none;" y2="125" />
      <line x1="63" x2="69" y1="125" style="clip-path:url(#clipPath21); fill:none;" y2="113" />
      <line x1="63" x2="57" y1="125" style="clip-path:url(#clipPath21); fill:none;" y2="113" />
    </g>
    <g transform="translate(-2,96)" style="font-size:11; stroke-linecap:butt; text-rendering:geometricPrecision; font-family:sans-serif; stroke-linejoin:round;">
      <line x1="63" x2="63" y1="63" style="clip-path:url(#clipPath22); fill:none;" y2="185" />
      <line x1="63" x2="69" y1="185" style="clip-path:url(#clipPath22); fill:none;" y2="173" />
      <line x1="63" x2="57" y1="185" style="clip-path:url(#clipPath22); fill:none;" y2="173" />
    </g>
    <g transform="translate(5,227)" style="font-size:11; stroke-linecap:butt; text-rendering:geometricPrecision; font-family:sans-serif; stroke-linejoin:round;">
      <line x1="62" x2="166" y1="63" style="clip-path:url(#clipPath23); fill:none;" y2="63" />
      <line x1="166" x2="154" y1="63" style="clip-path:url(#clipPath23); fill:none;" y2="57" />
      <line x1="166" x2="154" y1="63" style="clip-path:url(#clipPath23); fill:none;" y2="69" />
    </g>
    <g transform="translate(196,227)" style="font-size:11; stroke-linecap:butt; text-rendering:geometricPrecision; font-family:sans-serif; stroke-linejoin:round;">
      <line x1="62" x2="97" y1="63" style="clip-path:url(#clipPath24); fill:none;" y2="63" />
      <line x1="97" x2="85" y1="63" style="clip-path:url(#clipPath24); fill:none;" y2="57" />
      <line x1="97" x2="85" y1="63" style="clip-path:url(#clipPath24); fill:none;" y2="69" />
    </g>
    <g transform="translate(240,117)" style="font-size:14; stroke-linecap:butt; text-rendering:geometricPrecision; font-family:&apos;標楷體&apos;; stroke-linejoin:round;">
      <line x1="62" x2="100" y1="168" style="clip-path:url(#clipPath25); fill:none;" y2="63" />
      <line x1="100" x2="171" y1="63" style="clip-path:url(#clipPath25); fill:none;" y2="63" />
      <line x1="171" x2="159" y1="63" style="clip-path:url(#clipPath25); fill:none;" y2="57" />
      <line x1="171" x2="159" y1="63" style="clip-path:url(#clipPath25); fill:none;" y2="69" />
    </g>
    <g transform="translate(242,187)" style="font-size:14; stroke-linecap:butt; text-rendering:geometricPrecision; font-family:&apos;標楷體&apos;; stroke-linejoin:round;">
      <line x1="63" x2="98" y1="99" style="clip-path:url(#clipPath26); fill:none;" y2="63" />
      <line x1="98" x2="168" y1="63" style="clip-path:url(#clipPath26); fill:none;" y2="63" />
      <line x1="168" x2="156" y1="63" style="clip-path:url(#clipPath26); fill:none;" y2="57" />
      <line x1="168" x2="156" y1="63" style="clip-path:url(#clipPath26); fill:none;" y2="69" />
    </g>
    <g transform="translate(242,231)" style="font-size:14; stroke-linecap:butt; text-rendering:geometricPrecision; font-family:&apos;標楷體&apos;; stroke-linejoin:round;">
      <line x1="63" x2="98" y1="62" style="clip-path:url(#clipPath26); fill:none;" y2="99" />
      <line x1="98" x2="168" y1="99" style="clip-path:url(#clipPath26); fill:none;" y2="99" />
      <line x1="168" x2="156" y1="99" style="clip-path:url(#clipPath26); fill:none;" y2="93" />
      <line x1="168" x2="156" y1="99" style="clip-path:url(#clipPath26); fill:none;" y2="105" />
    </g>
    <g transform="translate(241,235)" style="font-size:14; stroke-linecap:butt; text-rendering:geometricPrecision; font-family:&apos;標楷體&apos;; stroke-linejoin:round;">
      <line x1="62" x2="99" y1="62" style="clip-path:url(#clipPath27); fill:none;" y2="155" />
      <line x1="99" x2="169" y1="155" style="clip-path:url(#clipPath27); fill:none;" y2="155" />
      <line x1="169" x2="157" y1="155" style="clip-path:url(#clipPath27); fill:none;" y2="149" />
      <line x1="169" x2="157" y1="155" style="clip-path:url(#clipPath27); fill:none;" y2="161" />
    </g>
    <g transform="translate(416,117)" style="font-size:11; stroke-linecap:butt; text-rendering:geometricPrecision; font-family:sans-serif; stroke-linejoin:round;">
      <line x1="62" x2="107" y1="63" style="clip-path:url(#clipPath28); fill:none;" y2="63" />
      <line x1="107" x2="95" y1="63" style="clip-path:url(#clipPath28); fill:none;" y2="57" />
      <line x1="107" x2="95" y1="63" style="clip-path:url(#clipPath28); fill:none;" y2="69" />
    </g>
    <g transform="translate(0,87)" style="font-size:14; stroke-linecap:butt; text-rendering:geometricPrecision; font-family:&apos;標楷體&apos;; stroke-linejoin:round;">
      <line x1="530" x2="530" y1="84" style="clip-path:url(#clipPath29); fill:none;" y2="63" />
      <line x1="530" x2="120" y1="63" style="clip-path:url(#clipPath29); fill:none;" y2="63" />
      <line x1="120" x2="62" y1="63" style="clip-path:url(#clipPath29); fill:none;" y2="198" />
      <line x1="62" x2="71" y1="198" style="clip-path:url(#clipPath29); fill:none;" y2="190" />
      <line x1="62" x2="60" y1="198" style="clip-path:url(#clipPath29); fill:none;" y2="185" />
    </g>
    <g transform="translate(416,187)" style="font-size:11; stroke-linecap:butt; text-rendering:geometricPrecision; font-family:sans-serif; stroke-linejoin:round;">
      <line x1="62" x2="107" y1="63" style="clip-path:url(#clipPath28); fill:none;" y2="63" />
      <line x1="107" x2="95" y1="63" style="clip-path:url(#clipPath28); fill:none;" y2="57" />
      <line x1="107" x2="95" y1="63" style="clip-path:url(#clipPath28); fill:none;" y2="69" />
    </g>
    <g transform="translate(2,157)" style="font-size:14; stroke-linecap:butt; text-rendering:geometricPrecision; font-family:&apos;標楷體&apos;; stroke-linejoin:round;">
      <line x1="528" x2="528" y1="84" style="clip-path:url(#clipPath30); fill:none;" y2="63" />
      <line x1="528" x2="128" y1="63" style="clip-path:url(#clipPath30); fill:none;" y2="63" />
      <line x1="128" x2="63" y1="63" style="clip-path:url(#clipPath30); fill:none;" y2="129" />
      <line x1="63" x2="75" y1="129" style="clip-path:url(#clipPath30); fill:none;" y2="125" />
      <line x1="63" x2="66" y1="129" style="clip-path:url(#clipPath30); fill:none;" y2="116" />
    </g>
    <g transform="translate(415,257)" style="font-size:11; stroke-linecap:butt; text-rendering:geometricPrecision; font-family:sans-serif; stroke-linejoin:round;">
      <line x1="62" x2="110" y1="63" style="clip-path:url(#clipPath31); fill:none;" y2="63" />
      <line x1="110" x2="98" y1="63" style="clip-path:url(#clipPath31); fill:none;" y2="57" />
      <line x1="110" x2="98" y1="63" style="clip-path:url(#clipPath31); fill:none;" y2="69" />
    </g>
    <g transform="translate(2,231)" style="font-size:14; stroke-linecap:butt; text-rendering:geometricPrecision; font-family:&apos;標楷體&apos;; stroke-linejoin:round;">
      <line x1="528" x2="528" y1="97" style="clip-path:url(#clipPath30); fill:none;" y2="129" />
      <line x1="528" x2="128" y1="129" style="clip-path:url(#clipPath30); fill:none;" y2="129" />
      <line x1="128" x2="63" y1="129" style="clip-path:url(#clipPath30); fill:none;" y2="62" />
      <line x1="63" x2="66" y1="62" style="clip-path:url(#clipPath30); fill:none;" y2="74" />
      <line x1="63" x2="75" y1="62" style="clip-path:url(#clipPath30); fill:none;" y2="65" />
    </g>
    <g transform="translate(416,327)" style="font-size:11; stroke-linecap:butt; text-rendering:geometricPrecision; font-family:sans-serif; stroke-linejoin:round;">
      <line x1="62" x2="107" y1="63" style="clip-path:url(#clipPath28); fill:none;" y2="63" />
      <line x1="107" x2="95" y1="63" style="clip-path:url(#clipPath28); fill:none;" y2="57" />
      <line x1="107" x2="95" y1="63" style="clip-path:url(#clipPath28); fill:none;" y2="69" />
    </g>
    <g transform="translate(1,233)" style="font-size:14; stroke-linecap:butt; text-rendering:geometricPrecision; font-family:&apos;標楷體&apos;; stroke-linejoin:round;">
      <line x1="529" x2="529" y1="165" style="clip-path:url(#clipPath32); fill:none;" y2="187" />
      <line x1="529" x2="119" y1="187" style="clip-path:url(#clipPath32); fill:none;" y2="187" />
      <line x1="119" x2="62" y1="187" style="clip-path:url(#clipPath32); fill:none;" y2="63" />
      <line x1="62" x2="60" y1="63" style="clip-path:url(#clipPath32); fill:none;" y2="75" />
      <line x1="62" x2="71" y1="63" style="clip-path:url(#clipPath32); fill:none;" y2="70" />
    </g>
    <g transform="translate(473,118)" style="font-size:14; stroke-linecap:butt; text-rendering:geometricPrecision; font-family:&apos;標楷體&apos;; stroke-linejoin:round;">
      <line x1="63" x2="127" y1="63" style="clip-path:url(#clipPath33); fill:none;" y2="82" />
      <line x1="127" x2="154" y1="82" style="clip-path:url(#clipPath33); fill:none;" y2="155" />
      <line x1="154" x2="155" y1="155" style="clip-path:url(#clipPath33); fill:none;" y2="141" />
      <line x1="154" x2="144" y1="155" style="clip-path:url(#clipPath33); fill:none;" y2="145" />
    </g>
    <g transform="translate(475,187)" style="font-size:14; stroke-linecap:butt; text-rendering:geometricPrecision; font-family:&apos;標楷體&apos;; stroke-linejoin:round;">
      <line x1="62" x2="105" y1="63" style="clip-path:url(#clipPath34); fill:none;" y2="63" />
      <line x1="105" x2="151" y1="63" style="clip-path:url(#clipPath34); fill:none;" y2="90" />
      <line x1="151" x2="144" y1="90" style="clip-path:url(#clipPath34); fill:none;" y2="78" />
      <line x1="151" x2="138" y1="90" style="clip-path:url(#clipPath34); fill:none;" y2="89" />
    </g>
    <g transform="translate(475,220)" style="font-size:14; stroke-linecap:butt; text-rendering:geometricPrecision; font-family:&apos;標楷體&apos;; stroke-linejoin:round;">
      <line x1="62" x2="105" y1="100" style="clip-path:url(#clipPath35); fill:none;" y2="100" />
      <line x1="105" x2="151" y1="100" style="clip-path:url(#clipPath35); fill:none;" y2="62" />
      <line x1="151" x2="138" y1="62" style="clip-path:url(#clipPath35); fill:none;" y2="64" />
      <line x1="151" x2="145" y1="62" style="clip-path:url(#clipPath35); fill:none;" y2="74" />
    </g>
    <g transform="translate(473,223)" style="font-size:14; stroke-linecap:butt; text-rendering:geometricPrecision; font-family:&apos;標楷體&apos;; stroke-linejoin:round;">
      <line x1="63" x2="127" y1="164" style="clip-path:url(#clipPath36); fill:none;" y2="137" />
      <line x1="127" x2="154" y1="137" style="clip-path:url(#clipPath36); fill:none;" y2="63" />
      <line x1="154" x2="144" y1="63" style="clip-path:url(#clipPath36); fill:none;" y2="72" />
      <line x1="154" x2="155" y1="63" style="clip-path:url(#clipPath36); fill:none;" y2="76" />
    </g>
    <g transform="translate(573,217)" style="font-size:11; stroke-linecap:butt; text-rendering:geometricPrecision; font-family:sans-serif; stroke-linejoin:round;">
      <line x1="63" x2="148" y1="63" style="clip-path:url(#clipPath37); fill:none;" y2="63" />
      <line x1="148" x2="136" y1="63" style="clip-path:url(#clipPath37); fill:none;" y2="57" />
      <line x1="148" x2="136" y1="63" style="clip-path:url(#clipPath37); fill:none;" y2="69" />
    </g>
    <g style="text-rendering:geometricPrecision; font-size:14; font-family:&apos;標楷體&apos;;" transform="translate(550,370)">
      <text x="10" y="16" style="clip-path:url(#clipPath38); stroke:none;" xml:space="preserve">[查詢成功]</text>
    </g>
    <g style="text-rendering:geometricPrecision; font-size:14; font-family:&apos;標楷體&apos;;" transform="translate(530,320)">
      <text x="10" y="16" style="clip-path:url(#clipPath38); stroke:none;" xml:space="preserve">[修改成功]</text>
    </g>
    <g style="text-rendering:geometricPrecision; font-size:14; font-family:&apos;標楷體&apos;;" transform="translate(530,230)">
      <text x="10" y="16" style="clip-path:url(#clipPath38); stroke:none;" xml:space="preserve">[刪除成功]</text>
    </g>
    <g style="text-rendering:geometricPrecision; font-size:14; font-family:&apos;標楷體&apos;;" transform="translate(550,170)">
      <text x="10" y="16" style="clip-path:url(#clipPath38); stroke:none;" xml:space="preserve">[新增成功]</text>
    </g>
    <g style="text-rendering:geometricPrecision; font-size:14; font-family:&apos;標楷體&apos;;" transform="translate(240,420)">
      <text x="10" y="16" style="clip-path:url(#clipPath38); stroke:none;" xml:space="preserve">[查詢失敗]</text>
    </g>
    <g style="text-rendering:geometricPrecision; font-size:14; font-family:&apos;標楷體&apos;;" transform="translate(240,360)">
      <text x="10" y="16" style="clip-path:url(#clipPath38); stroke:none;" xml:space="preserve">[修改失敗]</text>
    </g>
    <g style="text-rendering:geometricPrecision; font-size:14; font-family:&apos;標楷體&apos;;" transform="translate(240,200)">
      <text x="10" y="16" style="clip-path:url(#clipPath38); stroke:none;" xml:space="preserve">[刪除失敗]</text>
    </g>
    <g style="text-rendering:geometricPrecision; font-size:14; font-family:&apos;標楷體&apos;;" transform="translate(240,130)">
      <text x="10" y="16" style="clip-path:url(#clipPath38); stroke:none;" xml:space="preserve">[新增失敗]</text>
    </g>
    <g style="text-rendering:geometricPrecision; font-size:14; font-family:&apos;標楷體&apos;;" transform="translate(330,370)">
      <text x="10" y="16" style="clip-path:url(#clipPath38); stroke:none;" xml:space="preserve">[查詢行程]</text>
    </g>
    <g style="text-rendering:geometricPrecision; font-size:14; font-family:&apos;標楷體&apos;;" transform="translate(330,302)">
      <text x="10" y="16" style="clip-path:url(#clipPath38); stroke:none;" xml:space="preserve">[修改行程]</text>
    </g>
    <g style="text-rendering:geometricPrecision; font-size:14; font-family:&apos;標楷體&apos;;" transform="translate(330,250)">
      <text x="10" y="16" style="clip-path:url(#clipPath38); stroke:none;" xml:space="preserve">[刪除行程]</text>
    </g>
    <g style="text-rendering:geometricPrecision; font-size:14; font-family:&apos;標楷體&apos;;" transform="translate(330,180)">
      <text x="10" y="16" style="clip-path:url(#clipPath38); stroke:none;" xml:space="preserve">[新增行程]</text>
    </g>
    <g style="fill:rgb(120,120,120); text-rendering:geometricPrecision; font-size:10; stroke:rgb(120,120,120);">
    </g>
  </g>
</svg>
