<?xml version="1.0" encoding="UTF-8"?>

<!DOCTYPE svg PUBLIC '-//W3C//DTD SVG 1.0//EN' 'http://www.w3.org/TR/2001/REC-SVG-20010904/DTD/svg10.dtd'>
<svg style="fill-opacity:1; color-rendering:auto; color-interpolation:auto; stroke:black; text-rendering:auto; stroke-linecap:square; stroke-miterlimit:10; stroke-opacity:1; shape-rendering:auto; fill:black; stroke-dasharray:none; font-weight:normal; stroke-width:1; font-family:&apos;Dialog&apos;; font-style:normal; stroke-linejoin:miter; font-size:12; stroke-dashoffset:0; image-rendering:auto;" xmlns="http://www.w3.org/2000/svg" width="706" xmlns:xlink="http://www.w3.org/1999/xlink" height="466">
  <!--Generated by the Batik Graphics2D SVG Generator-->
  <defs id="genericDefs" />
  <g>
    <defs id="defs1">
      <clipPath clipPathUnits="userSpaceOnUse" id="clipPath1">
        <path d="M-3 -3 L707 -3 L707 467 L-3 467 L-3 -3 Z" />
      </clipPath>
      <clipPath clipPathUnits="userSpaceOnUse" id="clipPath2">
        <path d="M0 0 L0 449 L7 449 L7 0 Z" />
      </clipPath>
      <clipPath clipPathUnits="userSpaceOnUse" id="clipPath3">
        <path d="M-3 -3 L232 -3 L232 25 L-3 25 L-3 -3 Z" />
      </clipPath>
      <clipPath clipPathUnits="userSpaceOnUse" id="clipPath4">
        <path d="M0 0 L225 0 L225 18 L0 18 L0 0 Z" />
      </clipPath>
      <clipPath clipPathUnits="userSpaceOnUse" id="clipPath5">
        <path d="M-3 -3 L232 -3 L232 449 L-3 449 L-3 -3 Z" />
      </clipPath>
      <clipPath clipPathUnits="userSpaceOnUse" id="clipPath6">
        <path d="M-3 -3 L267 -3 L267 25 L-3 25 L-3 -3 Z" />
      </clipPath>
      <clipPath clipPathUnits="userSpaceOnUse" id="clipPath7">
        <path d="M0 0 L260 0 L260 18 L0 18 L0 0 Z" />
      </clipPath>
      <clipPath clipPathUnits="userSpaceOnUse" id="clipPath8">
        <path d="M-3 -3 L267 -3 L267 449 L-3 449 L-3 -3 Z" />
      </clipPath>
      <clipPath clipPathUnits="userSpaceOnUse" id="clipPath9">
        <path d="M-3 -3 L222 -3 L222 25 L-3 25 L-3 -3 Z" />
      </clipPath>
      <clipPath clipPathUnits="userSpaceOnUse" id="clipPath10">
        <path d="M0 0 L215 0 L215 18 L0 18 L0 0 Z" />
      </clipPath>
      <clipPath clipPathUnits="userSpaceOnUse" id="clipPath11">
        <path d="M-3 -3 L222 -3 L222 449 L-3 449 L-3 -3 Z" />
      </clipPath>
      <clipPath clipPathUnits="userSpaceOnUse" id="clipPath12">
        <path d="M-3 -3 L47 -3 L47 27 L-3 27 L-3 -3 Z" />
      </clipPath>
      <clipPath clipPathUnits="userSpaceOnUse" id="clipPath13">
        <path d="M-3 -3 L27 -3 L27 47 L-3 47 L-3 -3 Z" />
      </clipPath>
      <clipPath clipPathUnits="userSpaceOnUse" id="clipPath14">
        <path d="M-3 -3 L87 -3 L87 57 L-3 57 L-3 -3 Z" />
      </clipPath>
      <clipPath clipPathUnits="userSpaceOnUse" id="clipPath15">
        <path d="M0 0 L80 0 L80 50 L0 50 L0 0 Z" />
      </clipPath>
      <clipPath clipPathUnits="userSpaceOnUse" id="clipPath16">
        <path d="M-3 -3 L97 -3 L97 57 L-3 57 L-3 -3 Z" />
      </clipPath>
      <clipPath clipPathUnits="userSpaceOnUse" id="clipPath17">
        <path d="M0 0 L90 0 L90 50 L0 50 L0 0 Z" />
      </clipPath>
      <clipPath clipPathUnits="userSpaceOnUse" id="clipPath18">
        <path d="M-3 -3 L107 -3 L107 57 L-3 57 L-3 -3 Z" />
      </clipPath>
      <clipPath clipPathUnits="userSpaceOnUse" id="clipPath19">
        <path d="M0 0 L100 0 L100 50 L0 50 L0 0 Z" />
      </clipPath>
      <clipPath clipPathUnits="userSpaceOnUse" id="clipPath20">
        <path d="M-3 -3 L27 -3 L27 27 L-3 27 L-3 -3 Z" />
      </clipPath>
      <clipPath clipPathUnits="userSpaceOnUse" id="clipPath21">
        <path d="M0 0 L215 0 L215 442 L0 442 L0 0 Z" />
      </clipPath>
      <clipPath clipPathUnits="userSpaceOnUse" id="clipPath22">
        <path d="M0 0 L260 0 L260 442 L0 442 L0 0 Z" />
      </clipPath>
      <clipPath clipPathUnits="userSpaceOnUse" id="clipPath23">
        <path d="M0 0 L225 0 L225 442 L0 442 L0 0 Z" />
      </clipPath>
      <clipPath clipPathUnits="userSpaceOnUse" id="clipPath24">
        <path d="M0 0 L125 0 L125 104 L0 104 L0 0 Z" />
      </clipPath>
      <clipPath clipPathUnits="userSpaceOnUse" id="clipPath25">
        <path d="M0 0 L127 0 L127 132 L0 132 L0 0 Z" />
      </clipPath>
      <clipPath clipPathUnits="userSpaceOnUse" id="clipPath26">
        <path d="M0 0 L127 0 L127 133 L0 133 L0 0 Z" />
      </clipPath>
      <clipPath clipPathUnits="userSpaceOnUse" id="clipPath27">
        <path d="M0 0 L185 0 L185 104 L0 104 L0 0 Z" />
      </clipPath>
      <clipPath clipPathUnits="userSpaceOnUse" id="clipPath28">
        <path d="M0 0 L148 0 L148 132 L0 132 L0 0 Z" />
      </clipPath>
      <clipPath clipPathUnits="userSpaceOnUse" id="clipPath29">
        <path d="M0 0 L148 0 L148 143 L0 143 L0 0 Z" />
      </clipPath>
      <clipPath clipPathUnits="userSpaceOnUse" id="clipPath30">
        <path d="M0 0 L104 0 L104 144 L0 144 L0 0 Z" />
      </clipPath>
      <clipPath clipPathUnits="userSpaceOnUse" id="clipPath31">
        <path d="M0 0 L578 0 L578 254 L0 254 L0 0 Z" />
      </clipPath>
      <clipPath clipPathUnits="userSpaceOnUse" id="clipPath32">
        <path d="M0 0 L104 0 L104 142 L0 142 L0 0 Z" />
      </clipPath>
      <clipPath clipPathUnits="userSpaceOnUse" id="clipPath33">
        <path d="M0 0 L104 0 L104 153 L0 153 L0 0 Z" />
      </clipPath>
      <clipPath clipPathUnits="userSpaceOnUse" id="clipPath34">
        <path d="M0 0 L519 0 L519 190 L0 190 L0 0 Z" />
      </clipPath>
      <clipPath clipPathUnits="userSpaceOnUse" id="clipPath35">
        <path d="M0 0 L519 0 L519 180 L0 180 L0 0 Z" />
      </clipPath>
      <clipPath clipPathUnits="userSpaceOnUse" id="clipPath36">
        <path d="M0 0 L157 0 L157 324 L0 324 L0 0 Z" />
      </clipPath>
      <clipPath clipPathUnits="userSpaceOnUse" id="clipPath37">
        <path d="M0 0 L211 0 L211 104 L0 104 L0 0 Z" />
      </clipPath>
      <clipPath clipPathUnits="userSpaceOnUse" id="clipPath38">
        <path d="M0 0 L90 0 L90 18 L0 18 L0 0 Z" />
      </clipPath>
      <clipPath clipPathUnits="userSpaceOnUse" id="clipPath39">
        <path d="M0 0 L118 0 L118 18 L0 18 L0 0 Z" />
      </clipPath>
      <clipPath clipPathUnits="userSpaceOnUse" id="clipPath40">
        <path d="M0 0 L76 0 L76 18 L0 18 L0 0 Z" />
      </clipPath>
    </defs>
    <g style="fill:white; text-rendering:geometricPrecision; stroke:white;">
      <rect x="0" y="0" width="706" style="stroke:none;" height="466" />
    </g>
    <g transform="translate(2,2)" style="text-rendering:geometricPrecision; stroke-width:2; font-size:14; font-family:&apos;標楷體&apos;;">
      <rect x="0" y="0" width="225" style="clip-path:url(#clipPath3); fill:none;" height="18" />
    </g>
    <g style="text-rendering:geometricPrecision; font-size:14; font-family:&apos;標楷體&apos;;" transform="translate(2,2)">
      <text x="98" y="16" style="clip-path:url(#clipPath4); stroke:none;" xml:space="preserve">會員</text>
    </g>
    <g transform="translate(2,20)" style="text-rendering:geometricPrecision; stroke-width:2; font-size:14; font-family:&apos;標楷體&apos;;">
      <rect x="0" y="0" width="225" style="clip-path:url(#clipPath5); fill:none;" height="442" />
    </g>
    <g transform="translate(227,2)" style="text-rendering:geometricPrecision; stroke-width:2; font-size:14; font-family:&apos;標楷體&apos;;">
      <rect x="0" y="0" width="260" style="clip-path:url(#clipPath6); fill:none;" height="18" />
    </g>
    <g style="text-rendering:geometricPrecision; font-size:14; font-family:&apos;標楷體&apos;;" transform="translate(227,2)">
      <text x="102" y="16" style="clip-path:url(#clipPath7); stroke:none;" xml:space="preserve">會員專區</text>
    </g>
    <g transform="translate(227,20)" style="text-rendering:geometricPrecision; stroke-width:2; font-size:14; font-family:&apos;標楷體&apos;;">
      <rect x="0" y="0" width="260" style="clip-path:url(#clipPath8); fill:none;" height="442" />
    </g>
    <g transform="translate(487,2)" style="text-rendering:geometricPrecision; stroke-width:2; font-size:14; font-family:&apos;標楷體&apos;;">
      <rect x="0" y="0" width="215" style="clip-path:url(#clipPath9); fill:none;" height="18" />
    </g>
    <g style="text-rendering:geometricPrecision; font-size:14; font-family:&apos;標楷體&apos;;" transform="translate(487,2)">
      <text x="86" y="16" style="clip-path:url(#clipPath10); stroke:none;" xml:space="preserve">資料庫</text>
    </g>
    <g transform="translate(487,20)" style="text-rendering:geometricPrecision; stroke-width:2; font-size:14; font-family:&apos;標楷體&apos;;">
      <rect x="0" y="0" width="215" style="clip-path:url(#clipPath11); fill:none;" height="442" />
    </g>
    <g style="text-rendering:geometricPrecision; font-size:14; font-family:&apos;標楷體&apos;;" transform="translate(122,72)">
      <circle style="clip-path:url(#clipPath12); stroke:none;" r="10" cx="20" cy="10" />
    </g>
    <g transform="translate(132,132)" style="font-size:14; fill:rgb(122,207,245); text-rendering:geometricPrecision; font-family:&apos;標楷體&apos;; stroke:rgb(122,207,245);">
      <polygon style="clip-path:url(#clipPath13); stroke:none;" points=" 10 7 17 20 10 32 3 20" />
    </g>
    <g transform="translate(132,132)" style="font-size:14; stroke-linecap:butt; text-rendering:geometricPrecision; font-family:&apos;標楷體&apos;; stroke-linejoin:round; stroke-miterlimit:0;">
      <polygon style="fill:none; clip-path:url(#clipPath13);" points=" 10 7 17 20 10 32 3 20" />
    </g>
    <g transform="translate(252,122)" style="font-size:14; fill:rgb(122,207,245); text-rendering:geometricPrecision; font-family:&apos;標楷體&apos;; stroke:rgb(122,207,245);">
      <rect x="1" y="1" width="78" style="clip-path:url(#clipPath14); stroke:none;" rx="15" ry="15" height="48" />
    </g>
    <g transform="translate(252,122)" style="font-size:14; stroke-linecap:butt; text-rendering:geometricPrecision; font-family:&apos;標楷體&apos;; stroke-linejoin:round; stroke-miterlimit:0;">
      <rect x="1" y="1" width="78" style="clip-path:url(#clipPath14); fill:none;" rx="15" ry="15" height="48" />
    </g>
    <g style="text-rendering:geometricPrecision; font-size:14; font-family:&apos;標楷體&apos;;" transform="translate(252,122)">
      <text x="12" y="32" style="clip-path:url(#clipPath15); stroke:none;" xml:space="preserve">附近商店</text>
    </g>
    <g transform="translate(352,132)" style="font-size:14; fill:rgb(122,207,245); text-rendering:geometricPrecision; font-family:&apos;標楷體&apos;; stroke:rgb(122,207,245);">
      <polygon style="clip-path:url(#clipPath13); stroke:none;" points=" 10 7 17 20 10 32 3 20" />
    </g>
    <g transform="translate(352,132)" style="font-size:14; stroke-linecap:butt; text-rendering:geometricPrecision; font-family:&apos;標楷體&apos;; stroke-linejoin:round; stroke-miterlimit:0;">
      <polygon style="fill:none; clip-path:url(#clipPath13);" points=" 10 7 17 20 10 32 3 20" />
    </g>
    <g transform="translate(382,82)" style="font-size:14; fill:rgb(122,207,245); text-rendering:geometricPrecision; font-family:&apos;標楷體&apos;; stroke:rgb(122,207,245);">
      <rect x="1" y="1" width="88" style="clip-path:url(#clipPath16); stroke:none;" rx="15" ry="15" height="48" />
    </g>
    <g transform="translate(382,82)" style="font-size:14; stroke-linecap:butt; text-rendering:geometricPrecision; font-family:&apos;標楷體&apos;; stroke-linejoin:round; stroke-miterlimit:0;">
      <rect x="1" y="1" width="88" style="clip-path:url(#clipPath16); fill:none;" rx="15" ry="15" height="48" />
    </g>
    <g style="text-rendering:geometricPrecision; font-size:14; font-family:&apos;標楷體&apos;;" transform="translate(382,82)">
      <text x="17" y="32" style="clip-path:url(#clipPath17); stroke:none;" xml:space="preserve">條件篩選</text>
    </g>
    <g transform="translate(382,172)" style="font-size:14; fill:rgb(122,207,245); text-rendering:geometricPrecision; font-family:&apos;標楷體&apos;; stroke:rgb(122,207,245);">
      <rect x="1" y="1" width="88" style="clip-path:url(#clipPath16); stroke:none;" rx="15" ry="15" height="48" />
    </g>
    <g transform="translate(382,172)" style="font-size:14; stroke-linecap:butt; text-rendering:geometricPrecision; font-family:&apos;標楷體&apos;; stroke-linejoin:round; stroke-miterlimit:0;">
      <rect x="1" y="1" width="88" style="clip-path:url(#clipPath16); fill:none;" rx="15" ry="15" height="48" />
    </g>
    <g style="text-rendering:geometricPrecision; font-size:14; font-family:&apos;標楷體&apos;;" transform="translate(382,172)">
      <text x="10" y="32" style="clip-path:url(#clipPath17); stroke:none;" xml:space="preserve">關鍵字查詢</text>
    </g>
    <g transform="translate(552,182)" style="font-size:14; fill:rgb(122,207,245); text-rendering:geometricPrecision; font-family:&apos;標楷體&apos;; stroke:rgb(122,207,245);">
      <polygon style="clip-path:url(#clipPath13); stroke:none;" points=" 10 7 17 20 10 32 3 20" />
    </g>
    <g transform="translate(552,182)" style="font-size:14; stroke-linecap:butt; text-rendering:geometricPrecision; font-family:&apos;標楷體&apos;; stroke-linejoin:round; stroke-miterlimit:0;">
      <polygon style="fill:none; clip-path:url(#clipPath13);" points=" 10 7 17 20 10 32 3 20" />
    </g>
    <g transform="translate(552,92)" style="font-size:14; fill:rgb(122,207,245); text-rendering:geometricPrecision; font-family:&apos;標楷體&apos;; stroke:rgb(122,207,245);">
      <polygon style="clip-path:url(#clipPath13); stroke:none;" points=" 10 7 17 20 10 32 3 20" />
    </g>
    <g transform="translate(552,92)" style="font-size:14; stroke-linecap:butt; text-rendering:geometricPrecision; font-family:&apos;標楷體&apos;; stroke-linejoin:round; stroke-miterlimit:0;">
      <polygon style="fill:none; clip-path:url(#clipPath13);" points=" 10 7 17 20 10 32 3 20" />
    </g>
    <g transform="translate(602,132)" style="font-size:14; fill:rgb(122,207,245); text-rendering:geometricPrecision; font-family:&apos;標楷體&apos;; stroke:rgb(122,207,245);">
      <polygon style="clip-path:url(#clipPath13); stroke:none;" points=" 10 7 17 20 10 32 3 20" />
    </g>
    <g transform="translate(602,132)" style="font-size:14; stroke-linecap:butt; text-rendering:geometricPrecision; font-family:&apos;標楷體&apos;; stroke-linejoin:round; stroke-miterlimit:0;">
      <polygon style="fill:none; clip-path:url(#clipPath13);" points=" 10 7 17 20 10 32 3 20" />
    </g>
    <g transform="translate(102,272)" style="font-size:14; fill:rgb(122,207,245); text-rendering:geometricPrecision; font-family:&apos;標楷體&apos;; stroke:rgb(122,207,245);">
      <rect x="1" y="1" width="98" style="clip-path:url(#clipPath18); stroke:none;" rx="15" ry="15" height="48" />
    </g>
    <g transform="translate(102,272)" style="font-size:14; stroke-linecap:butt; text-rendering:geometricPrecision; font-family:&apos;標楷體&apos;; stroke-linejoin:round; stroke-miterlimit:0;">
      <rect x="1" y="1" width="98" style="clip-path:url(#clipPath18); fill:none;" rx="15" ry="15" height="48" />
    </g>
    <g style="text-rendering:geometricPrecision; font-size:14; font-family:&apos;標楷體&apos;;" transform="translate(102,272)">
      <text x="8" y="32" style="clip-path:url(#clipPath19); stroke:none;" xml:space="preserve">顯示查詢資料</text>
    </g>
    <g transform="translate(132,352)" style="font-size:14; fill:rgb(122,207,245); text-rendering:geometricPrecision; font-family:&apos;標楷體&apos;; stroke:rgb(122,207,245);">
      <polygon style="clip-path:url(#clipPath13); stroke:none;" points=" 10 7 17 20 10 32 3 20" />
    </g>
    <g transform="translate(132,352)" style="font-size:14; stroke-linecap:butt; text-rendering:geometricPrecision; font-family:&apos;標楷體&apos;; stroke-linejoin:round; stroke-miterlimit:0;">
      <polygon style="fill:none; clip-path:url(#clipPath13);" points=" 10 7 17 20 10 32 3 20" />
    </g>
    <g style="text-rendering:geometricPrecision; font-size:14; font-family:&apos;標楷體&apos;;" transform="translate(132,422)">
      <circle style="clip-path:url(#clipPath20); stroke:none;" r="6.6667" cx="10" cy="10" />
      <circle style="stroke-linecap:butt; clip-path:url(#clipPath20); fill:none; stroke-linejoin:round; stroke-miterlimit:0;" r="10" cx="10" cy="10" />
    </g>
    <g transform="translate(284,102)" style="font-size:14; stroke-linecap:butt; text-rendering:geometricPrecision; font-family:&apos;標楷體&apos;; stroke-linejoin:round;">
      <line x1="50" x2="71" y1="50" style="clip-path:url(#clipPath24); fill:none;" y2="50" />
      <line x1="71" x2="59" y1="50" style="clip-path:url(#clipPath24); fill:none;" y2="44" />
      <line x1="71" x2="59" y1="50" style="clip-path:url(#clipPath24); fill:none;" y2="56" />
    </g>
    <g transform="translate(312,62)" style="font-size:14; stroke-linecap:butt; text-rendering:geometricPrecision; font-family:&apos;標楷體&apos;; stroke-linejoin:round;">
      <line x1="50" x2="50" y1="78" style="clip-path:url(#clipPath25); fill:none;" y2="50" />
      <line x1="50" x2="73" y1="50" style="clip-path:url(#clipPath25); fill:none;" y2="50" />
      <line x1="73" x2="61" y1="50" style="clip-path:url(#clipPath25); fill:none;" y2="44" />
      <line x1="73" x2="61" y1="50" style="clip-path:url(#clipPath25); fill:none;" y2="56" />
    </g>
    <g transform="translate(312,113)" style="font-size:14; stroke-linecap:butt; text-rendering:geometricPrecision; font-family:&apos;標楷體&apos;; stroke-linejoin:round;">
      <line x1="50" x2="50" y1="50" style="clip-path:url(#clipPath26); fill:none;" y2="79" />
      <line x1="50" x2="73" y1="79" style="clip-path:url(#clipPath26); fill:none;" y2="79" />
      <line x1="73" x2="61" y1="79" style="clip-path:url(#clipPath26); fill:none;" y2="73" />
      <line x1="73" x2="61" y1="79" style="clip-path:url(#clipPath26); fill:none;" y2="85" />
    </g>
    <g transform="translate(424,62)" style="font-size:14; stroke-linecap:butt; text-rendering:geometricPrecision; font-family:&apos;標楷體&apos;; stroke-linejoin:round;">
      <line x1="50" x2="131" y1="50" style="clip-path:url(#clipPath27); fill:none;" y2="50" />
      <line x1="131" x2="119" y1="50" style="clip-path:url(#clipPath27); fill:none;" y2="44" />
      <line x1="131" x2="119" y1="50" style="clip-path:url(#clipPath27); fill:none;" y2="56" />
    </g>
    <g transform="translate(518,62)" style="font-size:14; stroke-linecap:butt; text-rendering:geometricPrecision; font-family:&apos;標楷體&apos;; stroke-linejoin:round;">
      <line x1="50" x2="94" y1="50" style="clip-path:url(#clipPath28); fill:none;" y2="50" />
      <line x1="94" x2="94" y1="50" style="clip-path:url(#clipPath28); fill:none;" y2="78" />
      <line x1="94" x2="100" y1="78" style="clip-path:url(#clipPath28); fill:none;" y2="66" />
      <line x1="94" x2="88" y1="78" style="clip-path:url(#clipPath28); fill:none;" y2="66" />
    </g>
    <g transform="translate(424,152)" style="font-size:14; stroke-linecap:butt; text-rendering:geometricPrecision; font-family:&apos;標楷體&apos;; stroke-linejoin:round;">
      <line x1="50" x2="131" y1="50" style="clip-path:url(#clipPath27); fill:none;" y2="50" />
      <line x1="131" x2="119" y1="50" style="clip-path:url(#clipPath27); fill:none;" y2="44" />
      <line x1="131" x2="119" y1="50" style="clip-path:url(#clipPath27); fill:none;" y2="56" />
    </g>
    <g transform="translate(518,113)" style="font-size:14; stroke-linecap:butt; text-rendering:geometricPrecision; font-family:&apos;標楷體&apos;; stroke-linejoin:round;">
      <line x1="50" x2="94" y1="89" style="clip-path:url(#clipPath29); fill:none;" y2="89" />
      <line x1="94" x2="94" y1="89" style="clip-path:url(#clipPath29); fill:none;" y2="50" />
      <line x1="94" x2="88" y1="50" style="clip-path:url(#clipPath29); fill:none;" y2="62" />
      <line x1="94" x2="100" y1="50" style="clip-path:url(#clipPath29); fill:none;" y2="62" />
    </g>
    <g transform="translate(92,333)" style="font-size:14; stroke-linecap:butt; text-rendering:geometricPrecision; font-family:&apos;標楷體&apos;; stroke-linejoin:round;">
      <line x1="50" x2="50" y1="50" style="clip-path:url(#clipPath30); fill:none;" y2="90" />
      <line x1="50" x2="56" y1="90" style="clip-path:url(#clipPath30); fill:none;" y2="78" />
      <line x1="50" x2="44" y1="90" style="clip-path:url(#clipPath30); fill:none;" y2="78" />
    </g>
    <g transform="translate(148,102)" style="font-size:14; stroke-linecap:butt; text-rendering:geometricPrecision; font-family:&apos;標楷體&apos;; stroke-linejoin:round;">
      <line x1="470" x2="524" y1="50" style="clip-path:url(#clipPath31); fill:none;" y2="50" />
      <line x1="524" x2="524" y1="50" style="clip-path:url(#clipPath31); fill:none;" y2="200" />
      <line x1="524" x2="50" y1="200" style="clip-path:url(#clipPath31); fill:none;" y2="200" />
      <line x1="50" x2="62" y1="200" style="clip-path:url(#clipPath31); fill:none;" y2="206" />
      <line x1="50" x2="62" y1="200" style="clip-path:url(#clipPath31); fill:none;" y2="194" />
    </g>
    <g transform="translate(92,272)" style="font-size:14; stroke-linecap:butt; text-rendering:geometricPrecision; font-family:&apos;標楷體&apos;; stroke-linejoin:round;">
      <line x1="50" x2="50" y1="50" style="clip-path:url(#clipPath32); fill:none;" y2="88" />
      <line x1="50" x2="56" y1="88" style="clip-path:url(#clipPath32); fill:none;" y2="76" />
      <line x1="50" x2="44" y1="88" style="clip-path:url(#clipPath32); fill:none;" y2="76" />
    </g>
    <g transform="translate(92,41)" style="font-size:14; stroke-linecap:butt; text-rendering:geometricPrecision; font-family:&apos;標楷體&apos;; stroke-linejoin:round;">
      <line x1="50" x2="50" y1="50" style="clip-path:url(#clipPath33); fill:none;" y2="99" />
      <line x1="50" x2="56" y1="99" style="clip-path:url(#clipPath33); fill:none;" y2="87" />
      <line x1="50" x2="44" y1="99" style="clip-path:url(#clipPath33); fill:none;" y2="87" />
    </g>
    <g transform="translate(97,106)" style="font-size:14; stroke-linecap:butt; text-rendering:geometricPrecision; font-family:&apos;標楷體&apos;; stroke-linejoin:round;">
      <line x1="465" x2="465" y1="107" style="clip-path:url(#clipPath34); fill:none;" y2="136" />
      <line x1="465" x2="145" y1="136" style="clip-path:url(#clipPath34); fill:none;" y2="136" />
      <line x1="145" x2="50" y1="136" style="clip-path:url(#clipPath34); fill:none;" y2="50" />
      <line x1="50" x2="54" y1="50" style="clip-path:url(#clipPath34); fill:none;" y2="61" />
      <line x1="50" x2="62" y1="50" style="clip-path:url(#clipPath34); fill:none;" y2="52" />
    </g>
    <g transform="translate(97,22)" style="font-size:14; stroke-linecap:butt; text-rendering:geometricPrecision; font-family:&apos;標楷體&apos;; stroke-linejoin:round;">
      <line x1="465" x2="465" y1="78" style="clip-path:url(#clipPath35); fill:none;" y2="50" />
      <line x1="465" x2="145" y1="50" style="clip-path:url(#clipPath35); fill:none;" y2="50" />
      <line x1="145" x2="50" y1="50" style="clip-path:url(#clipPath35); fill:none;" y2="126" />
      <line x1="50" x2="62" y1="126" style="clip-path:url(#clipPath35); fill:none;" y2="123" />
      <line x1="50" x2="55" y1="126" style="clip-path:url(#clipPath35); fill:none;" y2="113" />
    </g>
    <g transform="translate(32,102)" style="font-size:14; stroke-linecap:butt; text-rendering:geometricPrecision; font-family:&apos;標楷體&apos;; stroke-linejoin:round;">
      <line x1="103" x2="50" y1="270" style="clip-path:url(#clipPath36); fill:none;" y2="270" />
      <line x1="50" x2="50" y1="270" style="clip-path:url(#clipPath36); fill:none;" y2="50" />
      <line x1="50" x2="103" y1="50" style="clip-path:url(#clipPath36); fill:none;" y2="50" />
      <line x1="103" x2="91" y1="50" style="clip-path:url(#clipPath36); fill:none;" y2="44" />
      <line x1="103" x2="91" y1="50" style="clip-path:url(#clipPath36); fill:none;" y2="56" />
    </g>
    <g transform="translate(98,102)" style="font-size:14; stroke-linecap:butt; text-rendering:geometricPrecision; font-family:&apos;標楷體&apos;; stroke-linejoin:round;">
      <line x1="50" x2="157" y1="50" style="clip-path:url(#clipPath37); fill:none;" y2="50" />
      <line x1="157" x2="145" y1="50" style="clip-path:url(#clipPath37); fill:none;" y2="44" />
      <line x1="157" x2="145" y1="50" style="clip-path:url(#clipPath37); fill:none;" y2="56" />
    </g>
    <g style="text-rendering:geometricPrecision; font-size:14; font-family:&apos;標楷體&apos;;" transform="translate(2,334)">
      <text x="10" y="16" style="clip-path:url(#clipPath38); stroke:none;" xml:space="preserve">[重新搜尋]</text>
    </g>
    <g style="text-rendering:geometricPrecision; font-size:14; font-family:&apos;標楷體&apos;;" transform="translate(482,42)">
      <text x="10" y="16" style="clip-path:url(#clipPath39); stroke:none;" xml:space="preserve">[查無符合條件]</text>
    </g>
    <g style="text-rendering:geometricPrecision; font-size:14; font-family:&apos;標楷體&apos;;" transform="translate(482,252)">
      <text x="10" y="16" style="clip-path:url(#clipPath39); stroke:none;" xml:space="preserve">[查無相關資料]</text>
    </g>
    <g style="text-rendering:geometricPrecision; font-size:14; font-family:&apos;標楷體&apos;;" transform="translate(142,392)">
      <text x="10" y="16" style="clip-path:url(#clipPath38); stroke:none;" xml:space="preserve">[不再搜尋]</text>
    </g>
    <g style="text-rendering:geometricPrecision; font-size:14; font-family:&apos;標楷體&apos;;" transform="translate(561,212)">
      <text x="10" y="16" style="clip-path:url(#clipPath38); stroke:none;" xml:space="preserve">[查詢成功]</text>
    </g>
    <g style="text-rendering:geometricPrecision; font-size:14; font-family:&apos;標楷體&apos;;" transform="translate(562,82)">
      <text x="10" y="16" style="clip-path:url(#clipPath38); stroke:none;" xml:space="preserve">[條件符合]</text>
    </g>
    <g style="text-rendering:geometricPrecision; font-size:14; font-family:&apos;標楷體&apos;;" transform="translate(292,192)">
      <text x="10" y="16" style="clip-path:url(#clipPath38); stroke:none;" xml:space="preserve">關鍵字查詢</text>
    </g>
    <g style="text-rendering:geometricPrecision; font-size:14; font-family:&apos;標楷體&apos;;" transform="translate(302,92)">
      <text x="10" y="16" style="clip-path:url(#clipPath40); stroke:none;" xml:space="preserve">條件篩選</text>
    </g>
    <g style="fill:rgb(120,120,120); text-rendering:geometricPrecision; font-size:10; stroke:rgb(120,120,120);">
      <text xml:space="preserve" x="0" y="10" style="stroke:none;">Visual Paradigm for UML Personal Edition [not for commercial use] </text>
      <text xml:space="preserve" x="0" y="10" style="stroke:none;">Visual Paradigm for UML Personal Edition [not for commercial use] </text>
    </g>
  </g>
</svg>
