<?xml version="1.0" encoding="UTF-8"?>

<!DOCTYPE svg PUBLIC '-//W3C//DTD SVG 1.0//EN' 'http://www.w3.org/TR/2001/REC-SVG-20010904/DTD/svg10.dtd'>
<svg style="fill-opacity:1; color-rendering:auto; color-interpolation:auto; stroke:black; text-rendering:auto; stroke-linecap:square; stroke-miterlimit:10; stroke-opacity:1; shape-rendering:auto; fill:black; stroke-dasharray:none; font-weight:normal; stroke-width:1; font-family:&apos;Dialog&apos;; font-style:normal; stroke-linejoin:miter; font-size:12; stroke-dashoffset:0; image-rendering:auto;" xmlns="http://www.w3.org/2000/svg" width="766" xmlns:xlink="http://www.w3.org/1999/xlink" height="514">
  <!--Generated by the Batik Graphics2D SVG Generator-->
  <defs id="genericDefs" />
  <g>
    <defs id="defs1">
      <clipPath clipPathUnits="userSpaceOnUse" id="clipPath1">
        <path d="M-3 -3 L157 -3 L157 97 L-3 97 L-3 -3 Z" />
      </clipPath>
      <clipPath clipPathUnits="userSpaceOnUse" id="clipPath2">
        <path d="M0 0 L0 80 L150 80 L150 0 Z" />
      </clipPath>
      <clipPath clipPathUnits="userSpaceOnUse" id="clipPath3">
        <path d="M0 0 L150 0 L150 17 L0 17 L0 0 Z" />
      </clipPath>
      <clipPath clipPathUnits="userSpaceOnUse" id="clipPath4">
        <path d="M-3 -3 L157 -3 L157 67 L-3 67 L-3 -3 Z" />
      </clipPath>
      <clipPath clipPathUnits="userSpaceOnUse" id="clipPath5">
        <path d="M0 0 L0 50 L150 50 L150 0 Z" />
      </clipPath>
      <clipPath clipPathUnits="userSpaceOnUse" id="clipPath6">
        <path d="M-3 -3 L157 -3 L157 87 L-3 87 L-3 -3 Z" />
      </clipPath>
      <clipPath clipPathUnits="userSpaceOnUse" id="clipPath7">
        <path d="M0 0 L0 70 L150 70 L150 0 Z" />
      </clipPath>
      <clipPath clipPathUnits="userSpaceOnUse" id="clipPath8">
        <path d="M-3 -3 L157 -3 L157 117 L-3 117 L-3 -3 Z" />
      </clipPath>
      <clipPath clipPathUnits="userSpaceOnUse" id="clipPath9">
        <path d="M0 0 L0 100 L150 100 L150 0 Z" />
      </clipPath>
      <clipPath clipPathUnits="userSpaceOnUse" id="clipPath10">
        <path d="M-3 -3 L157 -3 L157 107 L-3 107 L-3 -3 Z" />
      </clipPath>
      <clipPath clipPathUnits="userSpaceOnUse" id="clipPath11">
        <path d="M0 0 L0 90 L150 90 L150 0 Z" />
      </clipPath>
      <clipPath clipPathUnits="userSpaceOnUse" id="clipPath12">
        <path d="M-3 -3 L47 -3 L47 27 L-3 27 L-3 -3 Z" />
      </clipPath>
      <clipPath clipPathUnits="userSpaceOnUse" id="clipPath13">
        <path d="M0 0 L146 0 L146 184 L0 184 L0 0 Z" />
      </clipPath>
      <clipPath clipPathUnits="userSpaceOnUse" id="clipPath14">
        <path d="M0 0 L286 0 L286 215 L0 215 L0 0 Z" />
      </clipPath>
      <clipPath clipPathUnits="userSpaceOnUse" id="clipPath15">
        <path d="M0 0 L104 0 L104 142 L0 142 L0 0 Z" />
      </clipPath>
      <clipPath clipPathUnits="userSpaceOnUse" id="clipPath16">
        <path d="M0 0 L232 0 L232 172 L0 172 L0 0 Z" />
      </clipPath>
      <clipPath clipPathUnits="userSpaceOnUse" id="clipPath17">
        <path d="M0 0 L146 0 L146 185 L0 185 L0 0 Z" />
      </clipPath>
      <clipPath clipPathUnits="userSpaceOnUse" id="clipPath18">
        <path d="M0 0 L385 0 L385 146 L0 146 L0 0 Z" />
      </clipPath>
      <clipPath clipPathUnits="userSpaceOnUse" id="clipPath19">
        <path d="M0 0 L395 0 L395 175 L0 175 L0 0 Z" />
      </clipPath>
      <clipPath clipPathUnits="userSpaceOnUse" id="clipPath20">
        <path d="M0 0 L796 0 L796 546 L0 546 L0 0 Z" />
      </clipPath>
      <clipPath clipPathUnits="userSpaceOnUse" id="clipPath21">
        <path d="M0 0 L546 0 L546 506 L0 506 L0 0 Z" />
      </clipPath>
      <clipPath clipPathUnits="userSpaceOnUse" id="clipPath22">
        <path d="M0 0 L325 0 L325 435 L0 435 L0 0 Z" />
      </clipPath>
      <clipPath clipPathUnits="userSpaceOnUse" id="clipPath23">
        <path d="M0 0 L186 0 L186 296 L0 296 L0 0 Z" />
      </clipPath>
      <clipPath clipPathUnits="userSpaceOnUse" id="clipPath24">
        <path d="M0 0 L40 0 L40 20 L0 20 L0 0 Z" />
      </clipPath>
    </defs>
    <g style="fill:white; text-rendering:geometricPrecision; stroke:white;">
      <rect x="0" y="0" width="766" style="stroke:none;" height="514" />
    </g>
    <g transform="translate(212,2)" style="font-size:14; fill:rgb(122,207,245); text-rendering:geometricPrecision; font-family:&apos;Times New Roman&apos;; stroke:rgb(122,207,245); font-weight:bold;">
      <rect x="0" y="0" width="150" style="clip-path:url(#clipPath1); stroke:none;" height="90" />
    </g>
    <g transform="translate(212,2)" style="font-size:14; stroke-linecap:butt; text-rendering:geometricPrecision; font-family:&apos;Times New Roman&apos;; stroke-linejoin:round; font-weight:bold; stroke-miterlimit:0;">
      <rect x="0" y="0" width="150" style="clip-path:url(#clipPath1); fill:none;" height="90" />
      <line x1="0" x2="150" y1="17" style="clip-path:url(#clipPath1); fill:none;" y2="17" />
    </g>
    <g style="text-rendering:geometricPrecision; font-size:14; font-family:&apos;Times New Roman&apos;;" transform="translate(212,19)">
      <text x="2" y="15" style="clip-path:url(#clipPath2); stroke:none;" xml:space="preserve">-categoryID : string</text>
      <text x="2" y="31" style="clip-path:url(#clipPath2); stroke:none;" xml:space="preserve">-storeID : string</text>
      <text x="2" y="47" style="clip-path:url(#clipPath2); stroke:none;" xml:space="preserve">-storeName : string</text>
      <text x="2" y="63" style="clip-path:url(#clipPath2); stroke:none;" xml:space="preserve">-storeAddr : string</text>
    </g>
    <g transform="translate(212,2)" style="text-rendering:geometricPrecision; font-size:14; font-weight:bold; font-family:&apos;Times New Roman&apos;;">
      <text x="60" y="14" style="clip-path:url(#clipPath3); stroke:none;" xml:space="preserve">store</text>
    </g>
    <g transform="translate(212,132)" style="font-size:14; fill:rgb(122,207,245); text-rendering:geometricPrecision; font-family:&apos;Times New Roman&apos;; stroke:rgb(122,207,245); font-weight:bold;">
      <rect x="0" y="0" width="150" style="clip-path:url(#clipPath4); stroke:none;" height="60" />
    </g>
    <g transform="translate(212,132)" style="font-size:14; stroke-linecap:butt; text-rendering:geometricPrecision; font-family:&apos;Times New Roman&apos;; stroke-linejoin:round; font-weight:bold; stroke-miterlimit:0;">
      <rect x="0" y="0" width="150" style="clip-path:url(#clipPath4); fill:none;" height="60" />
      <line x1="0" x2="150" y1="17" style="clip-path:url(#clipPath4); fill:none;" y2="17" />
    </g>
    <g style="text-rendering:geometricPrecision; font-size:14; font-family:&apos;Times New Roman&apos;;" transform="translate(212,149)">
      <text x="2" y="15" style="clip-path:url(#clipPath5); stroke:none;" xml:space="preserve">-categoryID : string</text>
      <text x="2" y="31" style="clip-path:url(#clipPath5); stroke:none;" xml:space="preserve">-categoryName : string</text>
    </g>
    <g transform="translate(212,132)" style="text-rendering:geometricPrecision; font-size:14; font-weight:bold; font-family:&apos;Times New Roman&apos;;">
      <text x="50" y="14" style="clip-path:url(#clipPath3); stroke:none;" xml:space="preserve">analysis</text>
    </g>
    <g transform="translate(422,232)" style="font-size:14; fill:rgb(122,207,245); text-rendering:geometricPrecision; font-family:&apos;Times New Roman&apos;; stroke:rgb(122,207,245); font-weight:bold;">
      <rect x="0" y="0" width="150" style="clip-path:url(#clipPath6); stroke:none;" height="80" />
    </g>
    <g transform="translate(422,232)" style="font-size:14; stroke-linecap:butt; text-rendering:geometricPrecision; font-family:&apos;Times New Roman&apos;; stroke-linejoin:round; font-weight:bold; stroke-miterlimit:0;">
      <rect x="0" y="0" width="150" style="clip-path:url(#clipPath6); fill:none;" height="80" />
      <line x1="0" x2="150" y1="17" style="clip-path:url(#clipPath6); fill:none;" y2="17" />
    </g>
    <g style="text-rendering:geometricPrecision; font-size:14; font-family:&apos;Times New Roman&apos;;" transform="translate(422,249)">
      <text x="2" y="15" style="clip-path:url(#clipPath7); stroke:none;" xml:space="preserve">-categoryID : string</text>
      <text x="2" y="31" style="clip-path:url(#clipPath7); stroke:none;" xml:space="preserve">-photoID : string</text>
      <text x="2" y="47" style="clip-path:url(#clipPath7); stroke:none;" xml:space="preserve">-albumID : string</text>
    </g>
    <g transform="translate(422,232)" style="text-rendering:geometricPrecision; font-size:14; font-weight:bold; font-family:&apos;Times New Roman&apos;;">
      <text x="34" y="14" style="clip-path:url(#clipPath3); stroke:none;" xml:space="preserve">photoIdentify</text>
    </g>
    <g transform="translate(212,232)" style="font-size:14; fill:rgb(122,207,245); text-rendering:geometricPrecision; font-family:&apos;Times New Roman&apos;; stroke:rgb(122,207,245); font-weight:bold;">
      <rect x="0" y="0" width="150" style="clip-path:url(#clipPath6); stroke:none;" height="80" />
    </g>
    <g transform="translate(212,232)" style="font-size:14; stroke-linecap:butt; text-rendering:geometricPrecision; font-family:&apos;Times New Roman&apos;; stroke-linejoin:round; font-weight:bold; stroke-miterlimit:0;">
      <rect x="0" y="0" width="150" style="clip-path:url(#clipPath6); fill:none;" height="80" />
      <line x1="0" x2="150" y1="17" style="clip-path:url(#clipPath6); fill:none;" y2="17" />
    </g>
    <g style="text-rendering:geometricPrecision; font-size:14; font-family:&apos;Times New Roman&apos;;" transform="translate(212,249)">
      <text x="2" y="15" style="clip-path:url(#clipPath7); stroke:none;" xml:space="preserve">-categoryID : string</text>
      <text x="2" y="31" style="clip-path:url(#clipPath7); stroke:none;" xml:space="preserve">-photoID : string</text>
      <text x="2" y="47" style="clip-path:url(#clipPath7); stroke:none;" xml:space="preserve">-albumID : string</text>
    </g>
    <g transform="translate(212,232)" style="text-rendering:geometricPrecision; font-size:14; font-weight:bold; font-family:&apos;Times New Roman&apos;;">
      <text x="8" y="14" style="clip-path:url(#clipPath3); stroke:none;" xml:space="preserve">photoStyleConversion</text>
    </g>
    <g transform="translate(2,232)" style="font-size:14; fill:rgb(122,207,245); text-rendering:geometricPrecision; font-family:&apos;Times New Roman&apos;; stroke:rgb(122,207,245); font-weight:bold;">
      <rect x="0" y="0" width="150" style="clip-path:url(#clipPath8); stroke:none;" height="110" />
    </g>
    <g transform="translate(2,232)" style="font-size:14; stroke-linecap:butt; text-rendering:geometricPrecision; font-family:&apos;Times New Roman&apos;; stroke-linejoin:round; font-weight:bold; stroke-miterlimit:0;">
      <rect x="0" y="0" width="150" style="clip-path:url(#clipPath8); fill:none;" height="110" />
      <line x1="0" x2="150" y1="17" style="clip-path:url(#clipPath8); fill:none;" y2="17" />
    </g>
    <g style="text-rendering:geometricPrecision; font-size:14; font-family:&apos;Times New Roman&apos;;" transform="translate(2,249)">
      <text x="2" y="15" style="clip-path:url(#clipPath9); stroke:none;" xml:space="preserve">-categoryID : string</text>
      <text x="2" y="31" style="clip-path:url(#clipPath9); stroke:none;" xml:space="preserve">-feedID : string</text>
      <text x="2" y="47" style="clip-path:url(#clipPath9); stroke:none;" xml:space="preserve">-feedName : string</text>
      <text x="2" y="63" style="clip-path:url(#clipPath9); stroke:none;" xml:space="preserve">-feed : string</text>
      <text x="2" y="79" style="clip-path:url(#clipPath9); stroke:none;" xml:space="preserve">-feedInfo : string</text>
    </g>
    <g transform="translate(2,232)" style="text-rendering:geometricPrecision; font-size:14; font-weight:bold; font-family:&apos;Times New Roman&apos;;">
      <text x="62" y="14" style="clip-path:url(#clipPath3); stroke:none;" xml:space="preserve">feed</text>
    </g>
    <g transform="translate(322,352)" style="font-size:14; fill:rgb(122,207,245); text-rendering:geometricPrecision; font-family:&apos;Times New Roman&apos;; stroke:rgb(122,207,245); font-weight:bold;">
      <rect x="0" y="0" width="150" style="clip-path:url(#clipPath10); stroke:none;" height="100" />
    </g>
    <g transform="translate(322,352)" style="font-size:14; stroke-linecap:butt; text-rendering:geometricPrecision; font-family:&apos;Times New Roman&apos;; stroke-linejoin:round; font-weight:bold; stroke-miterlimit:0;">
      <rect x="0" y="0" width="150" style="clip-path:url(#clipPath10); fill:none;" height="100" />
      <line x1="0" x2="150" y1="17" style="clip-path:url(#clipPath10); fill:none;" y2="17" />
    </g>
    <g style="text-rendering:geometricPrecision; font-size:14; font-family:&apos;Times New Roman&apos;;" transform="translate(322,369)">
      <text x="2" y="15" style="clip-path:url(#clipPath11); stroke:none;" xml:space="preserve">-albumID : string</text>
      <text x="2" y="31" style="clip-path:url(#clipPath11); stroke:none;" xml:space="preserve">-albumName : string</text>
      <text x="2" y="47" style="clip-path:url(#clipPath11); stroke:none;" xml:space="preserve">-photoID : string</text>
      <text x="2" y="63" style="clip-path:url(#clipPath11); stroke:none;" xml:space="preserve">-photo : string</text>
    </g>
    <g transform="translate(322,352)" style="text-rendering:geometricPrecision; font-size:14; font-weight:bold; font-family:&apos;Times New Roman&apos;;">
      <text x="55" y="14" style="clip-path:url(#clipPath3); stroke:none;" xml:space="preserve">album</text>
    </g>
    <g transform="translate(602,2)" style="font-size:14; fill:rgb(122,207,245); text-rendering:geometricPrecision; font-family:&apos;Times New Roman&apos;; stroke:rgb(122,207,245); font-weight:bold;">
      <rect x="0" y="0" width="150" style="clip-path:url(#clipPath8); stroke:none;" height="110" />
    </g>
    <g transform="translate(602,2)" style="font-size:14; stroke-linecap:butt; text-rendering:geometricPrecision; font-family:&apos;Times New Roman&apos;; stroke-linejoin:round; font-weight:bold; stroke-miterlimit:0;">
      <rect x="0" y="0" width="150" style="clip-path:url(#clipPath8); fill:none;" height="110" />
      <line x1="0" x2="150" y1="17" style="clip-path:url(#clipPath8); fill:none;" y2="17" />
    </g>
    <g style="text-rendering:geometricPrecision; font-size:14; font-family:&apos;Times New Roman&apos;;" transform="translate(602,19)">
      <text x="2" y="15" style="clip-path:url(#clipPath9); stroke:none;" xml:space="preserve">-categoryName : string</text>
      <text x="2" y="31" style="clip-path:url(#clipPath9); stroke:none;" xml:space="preserve">-storeName : string</text>
      <text x="2" y="47" style="clip-path:url(#clipPath9); stroke:none;" xml:space="preserve">-photoName : string</text>
      <text x="2" y="63" style="clip-path:url(#clipPath9); stroke:none;" xml:space="preserve">-albumName : string</text>
      <text x="2" y="79" style="clip-path:url(#clipPath9); stroke:none;" xml:space="preserve">-feedName : string</text>
    </g>
    <g transform="translate(602,2)" style="text-rendering:geometricPrecision; font-size:14; font-weight:bold; font-family:&apos;Times New Roman&apos;;">
      <text x="48" y="14" style="clip-path:url(#clipPath3); stroke:none;" xml:space="preserve">database</text>
    </g>
    <g transform="translate(220,22)" style="font-size:11; stroke-linecap:butt; text-rendering:geometricPrecision; font-family:sans-serif; stroke-linejoin:round;">
      <line x1="72" x2="72" y1="71" style="clip-path:url(#clipPath13); fill:none;" y2="108" />
    </g>
    <g transform="translate(290,90)" style="font-size:11; stroke-linecap:butt; text-rendering:geometricPrecision; font-family:sans-serif; stroke-linejoin:round;">
      <line x1="72" x2="212" y1="72" style="clip-path:url(#clipPath14); fill:none;" y2="72" />
      <line x1="212" x2="212" y1="72" style="clip-path:url(#clipPath14); fill:none;" y2="140" />
    </g>
    <g transform="translate(242,142)" style="font-size:11; stroke-linecap:butt; text-rendering:geometricPrecision; font-family:sans-serif; stroke-linejoin:round;">
      <line x1="50" x2="50" y1="50" style="clip-path:url(#clipPath15); fill:none;" y2="88" />
    </g>
    <g transform="translate(32,112)" style="font-size:11; stroke-linecap:butt; text-rendering:geometricPrecision; font-family:sans-serif; stroke-linejoin:round;">
      <line x1="178" x2="50" y1="50" style="clip-path:url(#clipPath16); fill:none;" y2="50" />
      <line x1="50" x2="50" y1="50" style="clip-path:url(#clipPath16); fill:none;" y2="118" />
    </g>
    <g transform="translate(270,240)" style="font-size:11; stroke-linecap:butt; text-rendering:geometricPrecision; font-family:sans-serif; stroke-linejoin:round;">
      <line x1="72" x2="72" y1="72" style="clip-path:url(#clipPath17); fill:none;" y2="110" />
    </g>
    <g transform="translate(389,240)" style="font-size:11; stroke-linecap:butt; text-rendering:geometricPrecision; font-family:sans-serif; stroke-linejoin:round;">
      <line x1="71" x2="71" y1="72" style="clip-path:url(#clipPath17); fill:none;" y2="110" />
    </g>
    <g transform="translate(290,-20)" style="font-size:11; stroke-linecap:butt; text-rendering:geometricPrecision; font-family:sans-serif; stroke-linejoin:round;">
      <line x1="72" x2="310" y1="72" style="clip-path:url(#clipPath18); fill:none;" y2="72" />
    </g>
    <g transform="translate(280,30)" style="font-size:11; stroke-linecap:butt; text-rendering:geometricPrecision; font-family:sans-serif; stroke-linejoin:round;">
      <line x1="72" x2="72" y1="100" style="clip-path:url(#clipPath19); fill:none;" y2="72" />
      <line x1="72" x2="320" y1="72" style="clip-path:url(#clipPath19); fill:none;" y2="72" />
    </g>
    <g transform="translate(9,39)" style="font-size:11; stroke-linecap:butt; text-rendering:geometricPrecision; font-family:sans-serif; stroke-linejoin:round;">
      <line x1="71" x2="71" y1="301" style="clip-path:url(#clipPath20); fill:none;" y2="471" />
      <line x1="71" x2="721" y1="471" style="clip-path:url(#clipPath20); fill:none;" y2="471" />
      <line x1="721" x2="721" y1="471" style="clip-path:url(#clipPath20); fill:none;" y2="71" />
    </g>
    <g transform="translate(220,39)" style="font-size:11; stroke-linecap:butt; text-rendering:geometricPrecision; font-family:sans-serif; stroke-linejoin:round;">
      <line x1="72" x2="72" y1="271" style="clip-path:url(#clipPath21); fill:none;" y2="431" />
      <line x1="72" x2="472" y1="431" style="clip-path:url(#clipPath21); fill:none;" y2="431" />
      <line x1="472" x2="472" y1="431" style="clip-path:url(#clipPath21); fill:none;" y2="71" />
    </g>
    <g transform="translate(400,40)" style="font-size:11; stroke-linecap:butt; text-rendering:geometricPrecision; font-family:sans-serif; stroke-linejoin:round;">
      <line x1="72" x2="250" y1="360" style="clip-path:url(#clipPath22); fill:none;" y2="360" />
      <line x1="250" x2="250" y1="360" style="clip-path:url(#clipPath22); fill:none;" y2="72" />
    </g>
    <g transform="translate(499,39)" style="font-size:11; stroke-linecap:butt; text-rendering:geometricPrecision; font-family:sans-serif; stroke-linejoin:round;">
      <line x1="71" x2="111" y1="221" style="clip-path:url(#clipPath23); fill:none;" y2="221" />
      <line x1="111" x2="111" y1="221" style="clip-path:url(#clipPath23); fill:none;" y2="71" />
    </g>
    <g style="text-rendering:geometricPrecision; font-size:11; font-family:sans-serif;" transform="translate(502,212)">
      <text x="11" y="15" style="clip-path:url(#clipPath24); stroke:none;" xml:space="preserve">1..*</text>
    </g>
    <g style="text-rendering:geometricPrecision; font-size:11; font-family:sans-serif;" transform="translate(362,142)">
      <text x="17" y="15" style="clip-path:url(#clipPath24); stroke:none;" xml:space="preserve">1</text>
    </g>
    <g style="text-rendering:geometricPrecision; font-size:11; font-family:sans-serif;" transform="translate(332,332)">
      <text x="11" y="15" style="clip-path:url(#clipPath24); stroke:none;" xml:space="preserve">1..*</text>
    </g>
    <g style="text-rendering:geometricPrecision; font-size:11; font-family:sans-serif;" transform="translate(332,312)">
      <text x="11" y="15" style="clip-path:url(#clipPath24); stroke:none;" xml:space="preserve">1..*</text>
    </g>
    <g style="text-rendering:geometricPrecision; font-size:11; font-family:sans-serif;" transform="translate(42,212)">
      <text x="11" y="15" style="clip-path:url(#clipPath24); stroke:none;" xml:space="preserve">1..*</text>
    </g>
    <g style="text-rendering:geometricPrecision; font-size:11; font-family:sans-serif;" transform="translate(172,142)">
      <text x="17" y="15" style="clip-path:url(#clipPath24); stroke:none;" xml:space="preserve">1</text>
    </g>
    <g style="text-rendering:geometricPrecision; font-size:11; font-family:sans-serif;" transform="translate(292,212)">
      <text x="11" y="15" style="clip-path:url(#clipPath24); stroke:none;" xml:space="preserve">1..*</text>
    </g>
    <g style="text-rendering:geometricPrecision; font-size:11; font-family:sans-serif;" transform="translate(292,192)">
      <text x="17" y="15" style="clip-path:url(#clipPath24); stroke:none;" xml:space="preserve">1</text>
    </g>
    <g style="text-rendering:geometricPrecision; font-size:11; font-family:sans-serif;" transform="translate(292,112)">
      <text x="17" y="15" style="clip-path:url(#clipPath24); stroke:none;" xml:space="preserve">1</text>
    </g>
    <g style="text-rendering:geometricPrecision; font-size:11; font-family:sans-serif;" transform="translate(292,92)">
      <text x="11" y="15" style="clip-path:url(#clipPath24); stroke:none;" xml:space="preserve">1..*</text>
    </g>
    <g style="text-rendering:geometricPrecision; font-size:11; font-family:sans-serif;" transform="translate(452,332)">
      <text x="11" y="15" style="clip-path:url(#clipPath24); stroke:none;" xml:space="preserve">1..*</text>
    </g>
    <g style="text-rendering:geometricPrecision; font-size:11; font-family:sans-serif;" transform="translate(452,312)">
      <text x="11" y="15" style="clip-path:url(#clipPath24); stroke:none;" xml:space="preserve">1..*</text>
    </g>
    <g style="text-rendering:geometricPrecision; font-size:11; font-family:sans-serif;" transform="translate(722,112)">
      <text x="17" y="15" style="clip-path:url(#clipPath24); stroke:none;" xml:space="preserve">1</text>
    </g>
    <g style="text-rendering:geometricPrecision; font-size:11; font-family:sans-serif;" transform="translate(72,342)">
      <text x="17" y="15" style="clip-path:url(#clipPath24); stroke:none;" xml:space="preserve">1</text>
    </g>
    <g style="text-rendering:geometricPrecision; font-size:11; font-family:sans-serif;" transform="translate(642,112)">
      <text x="17" y="15" style="clip-path:url(#clipPath24); stroke:none;" xml:space="preserve">1</text>
    </g>
    <g style="text-rendering:geometricPrecision; font-size:11; font-family:sans-serif;" transform="translate(462,382)">
      <text x="17" y="15" style="clip-path:url(#clipPath24); stroke:none;" xml:space="preserve">1</text>
    </g>
    <g style="text-rendering:geometricPrecision; font-size:11; font-family:sans-serif;" transform="translate(682,112)">
      <text x="17" y="15" style="clip-path:url(#clipPath24); stroke:none;" xml:space="preserve">1</text>
    </g>
    <g style="text-rendering:geometricPrecision; font-size:11; font-family:sans-serif;" transform="translate(282,312)">
      <text x="17" y="15" style="clip-path:url(#clipPath24); stroke:none;" xml:space="preserve">1</text>
    </g>
    <g style="text-rendering:geometricPrecision; font-size:11; font-family:sans-serif;" transform="translate(572,82)">
      <text x="17" y="15" style="clip-path:url(#clipPath24); stroke:none;" xml:space="preserve">1</text>
    </g>
    <g style="text-rendering:geometricPrecision; font-size:11; font-family:sans-serif;" transform="translate(322,112)">
      <text x="17" y="15" style="clip-path:url(#clipPath24); stroke:none;" xml:space="preserve">1</text>
    </g>
    <g style="text-rendering:geometricPrecision; font-size:11; font-family:sans-serif;" transform="translate(562,52)">
      <text x="17" y="15" style="clip-path:url(#clipPath24); stroke:none;" xml:space="preserve">1</text>
    </g>
    <g style="text-rendering:geometricPrecision; font-size:11; font-family:sans-serif;" transform="translate(362,52)">
      <text x="17" y="15" style="clip-path:url(#clipPath24); stroke:none;" xml:space="preserve">1</text>
    </g>
    <g style="text-rendering:geometricPrecision; font-size:11; font-family:sans-serif;" transform="translate(602,112)">
      <text x="17" y="15" style="clip-path:url(#clipPath24); stroke:none;" xml:space="preserve">1</text>
    </g>
    <g style="text-rendering:geometricPrecision; font-size:11; font-family:sans-serif;" transform="translate(562,242)">
      <text x="17" y="15" style="clip-path:url(#clipPath24); stroke:none;" xml:space="preserve">1</text>
    </g>
    <g style="fill:rgb(120,120,120); text-rendering:geometricPrecision; font-size:10; stroke:rgb(120,120,120);">
      <text xml:space="preserve" x="0" y="10" style="stroke:none;">Visual Paradigm for UML Personal Edition [not for commercial use] </text>
      <text xml:space="preserve" x="0" y="10" style="stroke:none;">Visual Paradigm for UML Personal Edition [not for commercial use] </text>
    </g>
  </g>
</svg>
