<?xml version="1.0" encoding="UTF-8"?>

<!DOCTYPE svg PUBLIC '-//W3C//DTD SVG 1.0//EN' 'http://www.w3.org/TR/2001/REC-SVG-20010904/DTD/svg10.dtd'>
<svg style="fill-opacity:1; color-rendering:auto; color-interpolation:auto; stroke:black; text-rendering:auto; stroke-linecap:square; stroke-miterlimit:10; stroke-opacity:1; shape-rendering:auto; fill:black; stroke-dasharray:none; font-weight:normal; stroke-width:1; font-family:&apos;Dialog&apos;; font-style:normal; stroke-linejoin:miter; font-size:12; stroke-dashoffset:0; image-rendering:auto;" xmlns="http://www.w3.org/2000/svg" width="373" xmlns:xlink="http://www.w3.org/1999/xlink" height="436">
  <!--Generated by the Batik Graphics2D SVG Generator-->
  <defs id="genericDefs" />
  <g>
    <defs id="defs1">
      <clipPath clipPathUnits="userSpaceOnUse" id="clipPath1">
        <path d="M-3 -3 L47 -3 L47 27 L-3 27 L-3 -3 Z" />
      </clipPath>
      <clipPath clipPathUnits="userSpaceOnUse" id="clipPath2">
        <path d="M-3 -3 L127 -3 L127 47 L-3 47 L-3 -3 Z" />
      </clipPath>
      <clipPath clipPathUnits="userSpaceOnUse" id="clipPath3">
        <path d="M0 0 L120 0 L120 40 L0 40 L0 0 Z" />
      </clipPath>
      <clipPath clipPathUnits="userSpaceOnUse" id="clipPath4">
        <path d="M-3 -3 L27 -3 L27 47 L-3 47 L-3 -3 Z" />
      </clipPath>
      <clipPath clipPathUnits="userSpaceOnUse" id="clipPath5">
        <path d="M-3 -3 L27 -3 L27 27 L-3 27 L-3 -3 Z" />
      </clipPath>
      <clipPath clipPathUnits="userSpaceOnUse" id="clipPath6">
        <path d="M0 0 L129 0 L129 171 L0 171 L0 0 Z" />
      </clipPath>
      <clipPath clipPathUnits="userSpaceOnUse" id="clipPath7">
        <path d="M0 0 L129 0 L129 172 L0 172 L0 0 Z" />
      </clipPath>
      <clipPath clipPathUnits="userSpaceOnUse" id="clipPath8">
        <path d="M0 0 L203 0 L203 269 L0 269 L0 0 Z" />
      </clipPath>
      <clipPath clipPathUnits="userSpaceOnUse" id="clipPath9">
        <path d="M0 0 L129 0 L129 182 L0 182 L0 0 Z" />
      </clipPath>
      <clipPath clipPathUnits="userSpaceOnUse" id="clipPath10">
        <path d="M0 0 L203 0 L203 419 L0 419 L0 0 Z" />
      </clipPath>
      <clipPath clipPathUnits="userSpaceOnUse" id="clipPath11">
        <path d="M0 0 L90 0 L90 18 L0 18 L0 0 Z" />
      </clipPath>
      <clipPath clipPathUnits="userSpaceOnUse" id="clipPath12">
        <path d="M0 0 L118 0 L118 18 L0 18 L0 0 Z" />
      </clipPath>
    </defs>
    <g style="fill:white; text-rendering:geometricPrecision; stroke:white;">
      <rect x="0" y="0" width="373" style="stroke:none;" height="436" />
    </g>
    <g style="text-rendering:geometricPrecision; font-size:11; font-family:sans-serif;" transform="translate(152,2)">
      <circle style="clip-path:url(#clipPath1); stroke:none;" r="10" cx="20" cy="10" />
    </g>
    <g transform="translate(112,122)" style="font-size:14; fill:rgb(122,207,245); text-rendering:geometricPrecision; font-family:&apos;標楷體&apos;; stroke:rgb(122,207,245);">
      <rect x="1" y="1" width="118" style="clip-path:url(#clipPath2); stroke:none;" rx="15" ry="15" height="38" />
    </g>
    <g transform="translate(112,122)" style="font-size:14; stroke-linecap:butt; text-rendering:geometricPrecision; font-family:&apos;標楷體&apos;; stroke-linejoin:round; stroke-miterlimit:0;">
      <rect x="1" y="1" width="118" style="clip-path:url(#clipPath2); fill:none;" rx="15" ry="15" height="38" />
    </g>
    <g style="text-rendering:geometricPrecision; font-size:14; font-family:&apos;標楷體&apos;;" transform="translate(112,122)">
      <text x="25" y="27" style="clip-path:url(#clipPath3); stroke:none;" xml:space="preserve">關鍵字搜尋</text>
    </g>
    <g transform="translate(162,52)" style="font-size:11; fill:rgb(122,207,245); text-rendering:geometricPrecision; font-family:sans-serif; stroke:rgb(122,207,245);">
      <polygon style="clip-path:url(#clipPath4); stroke:none;" points=" 10 7 17 20 10 32 3 20" />
    </g>
    <g transform="translate(162,52)" style="font-size:11; stroke-linecap:butt; text-rendering:geometricPrecision; font-family:sans-serif; stroke-linejoin:round; stroke-miterlimit:0;">
      <polygon style="fill:none; clip-path:url(#clipPath4);" points=" 10 7 17 20 10 32 3 20" />
    </g>
    <g transform="translate(162,192)" style="font-size:11; fill:rgb(122,207,245); text-rendering:geometricPrecision; font-family:sans-serif; stroke:rgb(122,207,245);">
      <polygon style="clip-path:url(#clipPath4); stroke:none;" points=" 10 7 17 20 10 32 3 20" />
    </g>
    <g transform="translate(162,192)" style="font-size:11; stroke-linecap:butt; text-rendering:geometricPrecision; font-family:sans-serif; stroke-linejoin:round; stroke-miterlimit:0;">
      <polygon style="fill:none; clip-path:url(#clipPath4);" points=" 10 7 17 20 10 32 3 20" />
    </g>
    <g transform="translate(112,272)" style="font-size:14; fill:rgb(122,207,245); text-rendering:geometricPrecision; font-family:&apos;標楷體&apos;; stroke:rgb(122,207,245);">
      <rect x="1" y="1" width="118" style="clip-path:url(#clipPath2); stroke:none;" rx="15" ry="15" height="38" />
    </g>
    <g transform="translate(112,272)" style="font-size:14; stroke-linecap:butt; text-rendering:geometricPrecision; font-family:&apos;標楷體&apos;; stroke-linejoin:round; stroke-miterlimit:0;">
      <rect x="1" y="1" width="118" style="clip-path:url(#clipPath2); fill:none;" rx="15" ry="15" height="38" />
    </g>
    <g style="text-rendering:geometricPrecision; font-size:14; font-family:&apos;標楷體&apos;;" transform="translate(112,272)">
      <text x="18" y="27" style="clip-path:url(#clipPath3); stroke:none;" xml:space="preserve">顯示查詢資料</text>
    </g>
    <g transform="translate(162,342)" style="font-size:11; fill:rgb(122,207,245); text-rendering:geometricPrecision; font-family:sans-serif; stroke:rgb(122,207,245);">
      <polygon style="clip-path:url(#clipPath4); stroke:none;" points=" 10 7 17 20 10 32 3 20" />
    </g>
    <g transform="translate(162,342)" style="font-size:11; stroke-linecap:butt; text-rendering:geometricPrecision; font-family:sans-serif; stroke-linejoin:round; stroke-miterlimit:0;">
      <polygon style="fill:none; clip-path:url(#clipPath4);" points=" 10 7 17 20 10 32 3 20" />
    </g>
    <g style="text-rendering:geometricPrecision; font-size:11; font-family:sans-serif;" transform="translate(162,412)">
      <circle style="clip-path:url(#clipPath5); stroke:none;" r="6.6667" cx="10" cy="10" />
      <circle style="stroke-linecap:butt; clip-path:url(#clipPath5); fill:none; stroke-linejoin:round; stroke-miterlimit:0;" r="10" cx="10" cy="10" />
    </g>
    <g transform="translate(109,-41)" style="font-size:11; stroke-linecap:butt; text-rendering:geometricPrecision; font-family:sans-serif; stroke-linejoin:round;">
      <line x1="63" x2="63" y1="61" style="clip-path:url(#clipPath6); fill:none;" y2="104" />
      <line x1="63" x2="69" y1="104" style="clip-path:url(#clipPath6); fill:none;" y2="92" />
      <line x1="63" x2="57" y1="104" style="clip-path:url(#clipPath6); fill:none;" y2="92" />
    </g>
    <g transform="translate(110,18)" style="font-size:11; stroke-linecap:butt; text-rendering:geometricPrecision; font-family:sans-serif; stroke-linejoin:round;">
      <line x1="63" x2="63" y1="63" style="clip-path:url(#clipPath7); fill:none;" y2="105" />
      <line x1="63" x2="69" y1="105" style="clip-path:url(#clipPath7); fill:none;" y2="93" />
      <line x1="63" x2="57" y1="105" style="clip-path:url(#clipPath7); fill:none;" y2="93" />
    </g>
    <g transform="translate(110,98)" style="font-size:11; stroke-linecap:butt; text-rendering:geometricPrecision; font-family:sans-serif; stroke-linejoin:round;">
      <line x1="63" x2="63" y1="63" style="clip-path:url(#clipPath7); fill:none;" y2="105" />
      <line x1="63" x2="69" y1="105" style="clip-path:url(#clipPath7); fill:none;" y2="93" />
      <line x1="63" x2="57" y1="105" style="clip-path:url(#clipPath7); fill:none;" y2="93" />
    </g>
    <g transform="translate(116,10)" style="font-size:14; stroke-linecap:butt; text-rendering:geometricPrecision; font-family:&apos;標楷體&apos;; stroke-linejoin:round;">
      <line x1="63" x2="136" y1="203" style="clip-path:url(#clipPath8); fill:none;" y2="203" />
      <line x1="136" x2="136" y1="203" style="clip-path:url(#clipPath8); fill:none;" y2="63" />
      <line x1="136" x2="63" y1="63" style="clip-path:url(#clipPath8); fill:none;" y2="63" />
      <line x1="63" x2="75" y1="63" style="clip-path:url(#clipPath8); fill:none;" y2="69" />
      <line x1="63" x2="75" y1="63" style="clip-path:url(#clipPath8); fill:none;" y2="57" />
    </g>
    <g transform="translate(110,158)" style="font-size:14; stroke-linecap:butt; text-rendering:geometricPrecision; font-family:&apos;標楷體&apos;; stroke-linejoin:round;">
      <line x1="63" x2="63" y1="63" style="clip-path:url(#clipPath9); fill:none;" y2="115" />
      <line x1="63" x2="69" y1="115" style="clip-path:url(#clipPath9); fill:none;" y2="103" />
      <line x1="63" x2="57" y1="115" style="clip-path:url(#clipPath9); fill:none;" y2="103" />
    </g>
    <g transform="translate(110,248)" style="font-size:11; stroke-linecap:butt; text-rendering:geometricPrecision; font-family:sans-serif; stroke-linejoin:round;">
      <line x1="63" x2="63" y1="63" style="clip-path:url(#clipPath7); fill:none;" y2="105" />
      <line x1="63" x2="69" y1="105" style="clip-path:url(#clipPath7); fill:none;" y2="93" />
      <line x1="63" x2="57" y1="105" style="clip-path:url(#clipPath7); fill:none;" y2="93" />
    </g>
    <g transform="translate(30,10)" style="font-size:14; stroke-linecap:butt; text-rendering:geometricPrecision; font-family:&apos;標楷體&apos;; stroke-linejoin:round;">
      <line x1="136" x2="63" y1="353" style="clip-path:url(#clipPath10); fill:none;" y2="353" />
      <line x1="63" x2="63" y1="353" style="clip-path:url(#clipPath10); fill:none;" y2="63" />
      <line x1="63" x2="136" y1="63" style="clip-path:url(#clipPath10); fill:none;" y2="63" />
      <line x1="136" x2="124" y1="63" style="clip-path:url(#clipPath10); fill:none;" y2="57" />
      <line x1="136" x2="124" y1="63" style="clip-path:url(#clipPath10); fill:none;" y2="69" />
    </g>
    <g transform="translate(110,308)" style="font-size:14; stroke-linecap:butt; text-rendering:geometricPrecision; font-family:&apos;標楷體&apos;; stroke-linejoin:round;">
      <line x1="63" x2="63" y1="63" style="clip-path:url(#clipPath7); fill:none;" y2="105" />
      <line x1="63" x2="69" y1="105" style="clip-path:url(#clipPath7); fill:none;" y2="93" />
      <line x1="63" x2="57" y1="105" style="clip-path:url(#clipPath7); fill:none;" y2="93" />
    </g>
    <g style="text-rendering:geometricPrecision; font-size:14; font-family:&apos;標楷體&apos;;" transform="translate(172,378)">
      <text x="10" y="16" style="clip-path:url(#clipPath11); stroke:none;" xml:space="preserve">[不再搜尋]</text>
    </g>
    <g style="text-rendering:geometricPrecision; font-size:14; font-family:&apos;標楷體&apos;;" transform="translate(2,210)">
      <text x="10" y="16" style="clip-path:url(#clipPath11); stroke:none;" xml:space="preserve">[重新搜尋]</text>
    </g>
    <g style="text-rendering:geometricPrecision; font-size:14; font-family:&apos;標楷體&apos;;" transform="translate(172,232)">
      <text x="10" y="16" style="clip-path:url(#clipPath11); stroke:none;" xml:space="preserve">[成功搜尋]</text>
    </g>
    <g style="text-rendering:geometricPrecision; font-size:14; font-family:&apos;標楷體&apos;;" transform="translate(252,132)">
      <text x="10" y="16" style="clip-path:url(#clipPath12); stroke:none;" xml:space="preserve">[查無相關資料]</text>
    </g>
    <g style="fill:rgb(120,120,120); text-rendering:geometricPrecision; font-size:10; stroke:rgb(120,120,120);">
    </g>
  </g>
</svg>
