<?xml version="1.0" encoding="UTF-8"?>

<!DOCTYPE svg PUBLIC '-//W3C//DTD SVG 1.0//EN' 'http://www.w3.org/TR/2001/REC-SVG-20010904/DTD/svg10.dtd'>
<svg style="fill-opacity:1; color-rendering:auto; color-interpolation:auto; stroke:black; text-rendering:auto; stroke-linecap:square; stroke-miterlimit:10; stroke-opacity:1; shape-rendering:auto; fill:black; stroke-dasharray:none; font-weight:normal; stroke-width:1; font-family:&apos;Dialog&apos;; font-style:normal; stroke-linejoin:miter; font-size:12; stroke-dashoffset:0; image-rendering:auto;" xmlns="http://www.w3.org/2000/svg" width="616" xmlns:xlink="http://www.w3.org/1999/xlink" height="606">
  <!--Generated by the Batik Graphics2D SVG Generator-->
  <defs id="genericDefs" />
  <g>
    <defs id="defs1">
      <clipPath clipPathUnits="userSpaceOnUse" id="clipPath1">
        <path d="M-3 -3 L157 -3 L157 197 L-3 197 L-3 -3 Z" />
      </clipPath>
      <clipPath clipPathUnits="userSpaceOnUse" id="clipPath2">
        <path d="M0 0 L0 180 L150 180 L150 0 Z" />
      </clipPath>
      <clipPath clipPathUnits="userSpaceOnUse" id="clipPath3">
        <path d="M0 0 L150 0 L150 17 L0 17 L0 0 Z" />
      </clipPath>
      <clipPath clipPathUnits="userSpaceOnUse" id="clipPath4">
        <path d="M-3 -3 L167 -3 L167 217 L-3 217 L-3 -3 Z" />
      </clipPath>
      <clipPath clipPathUnits="userSpaceOnUse" id="clipPath5">
        <path d="M0 0 L0 200 L160 200 L160 0 Z" />
      </clipPath>
      <clipPath clipPathUnits="userSpaceOnUse" id="clipPath6">
        <path d="M0 0 L160 0 L160 17 L0 17 L0 0 Z" />
      </clipPath>
      <clipPath clipPathUnits="userSpaceOnUse" id="clipPath7">
        <path d="M-3 -3 L167 -3 L167 167 L-3 167 L-3 -3 Z" />
      </clipPath>
      <clipPath clipPathUnits="userSpaceOnUse" id="clipPath8">
        <path d="M0 0 L0 150 L160 150 L160 0 Z" />
      </clipPath>
      <clipPath clipPathUnits="userSpaceOnUse" id="clipPath9">
        <path d="M-3 -3 L187 -3 L187 87 L-3 87 L-3 -3 Z" />
      </clipPath>
      <clipPath clipPathUnits="userSpaceOnUse" id="clipPath10">
        <path d="M0 0 L0 70 L180 70 L180 0 Z" />
      </clipPath>
      <clipPath clipPathUnits="userSpaceOnUse" id="clipPath11">
        <path d="M0 0 L180 0 L180 17 L0 17 L0 0 Z" />
      </clipPath>
      <clipPath clipPathUnits="userSpaceOnUse" id="clipPath12">
        <path d="M-3 -3 L187 -3 L187 107 L-3 107 L-3 -3 Z" />
      </clipPath>
      <clipPath clipPathUnits="userSpaceOnUse" id="clipPath13">
        <path d="M0 0 L0 90 L180 90 L180 0 Z" />
      </clipPath>
      <clipPath clipPathUnits="userSpaceOnUse" id="clipPath14">
        <path d="M-3 -3 L187 -3 L187 217 L-3 217 L-3 -3 Z" />
      </clipPath>
      <clipPath clipPathUnits="userSpaceOnUse" id="clipPath15">
        <path d="M0 0 L0 200 L180 200 L180 0 Z" />
      </clipPath>
      <clipPath clipPathUnits="userSpaceOnUse" id="clipPath16">
        <path d="M-3 -3 L157 -3 L157 167 L-3 167 L-3 -3 Z" />
      </clipPath>
      <clipPath clipPathUnits="userSpaceOnUse" id="clipPath17">
        <path d="M0 0 L0 150 L150 150 L150 0 Z" />
      </clipPath>
      <clipPath clipPathUnits="userSpaceOnUse" id="clipPath18">
        <path d="M-3 -3 L47 -3 L47 27 L-3 27 L-3 -3 Z" />
      </clipPath>
      <clipPath clipPathUnits="userSpaceOnUse" id="clipPath19">
        <path d="M0 0 L285 0 L285 175 L0 175 L0 0 Z" />
      </clipPath>
      <clipPath clipPathUnits="userSpaceOnUse" id="clipPath20">
        <path d="M0 0 L146 0 L146 195 L0 195 L0 0 Z" />
      </clipPath>
      <clipPath clipPathUnits="userSpaceOnUse" id="clipPath21">
        <path d="M0 0 L286 0 L286 185 L0 185 L0 0 Z" />
      </clipPath>
      <clipPath clipPathUnits="userSpaceOnUse" id="clipPath22">
        <path d="M0 0 L146 0 L146 185 L0 185 L0 0 Z" />
      </clipPath>
      <clipPath clipPathUnits="userSpaceOnUse" id="clipPath23">
        <path d="M0 0 L216 0 L216 185 L0 185 L0 0 Z" />
      </clipPath>
      <clipPath clipPathUnits="userSpaceOnUse" id="clipPath24">
        <path d="M0 0 L195 0 L195 146 L0 146 L0 0 Z" />
      </clipPath>
      <clipPath clipPathUnits="userSpaceOnUse" id="clipPath25">
        <path d="M0 0 L196 0 L196 226 L0 226 L0 0 Z" />
      </clipPath>
      <clipPath clipPathUnits="userSpaceOnUse" id="clipPath26">
        <path d="M0 0 L215 0 L215 246 L0 246 L0 0 Z" />
      </clipPath>
      <clipPath clipPathUnits="userSpaceOnUse" id="clipPath27">
        <path d="M0 0 L205 0 L205 146 L0 146 L0 0 Z" />
      </clipPath>
      <clipPath clipPathUnits="userSpaceOnUse" id="clipPath28">
        <path d="M0 0 L40 0 L40 20 L0 20 L0 0 Z" />
      </clipPath>
    </defs>
    <g style="fill:white; text-rendering:geometricPrecision; stroke:white;">
      <rect x="0" y="0" width="616" style="stroke:none;" height="606" />
    </g>
    <g transform="translate(232,2)" style="font-size:14; fill:rgb(122,207,245); text-rendering:geometricPrecision; font-family:&apos;Times New Roman&apos;; stroke:rgb(122,207,245); font-weight:bold;">
      <rect x="0" y="0" width="150" style="clip-path:url(#clipPath1); stroke:none;" height="190" />
    </g>
    <g transform="translate(232,2)" style="font-size:14; stroke-linecap:butt; text-rendering:geometricPrecision; font-family:&apos;Times New Roman&apos;; stroke-linejoin:round; font-weight:bold; stroke-miterlimit:0;">
      <rect x="0" y="0" width="150" style="clip-path:url(#clipPath1); fill:none;" height="190" />
      <line x1="0" x2="150" y1="17" style="clip-path:url(#clipPath1); fill:none;" y2="17" />
    </g>
    <g style="text-rendering:geometricPrecision; font-size:14; font-family:&apos;Times New Roman&apos;;" transform="translate(232,19)">
      <text x="2" y="15" style="clip-path:url(#clipPath2); stroke:none;" xml:space="preserve">-memID : varchar</text>
      <text x="2" y="31" style="clip-path:url(#clipPath2); stroke:none;" xml:space="preserve">-memName : varchar</text>
      <text x="2" y="47" style="clip-path:url(#clipPath2); stroke:none;" xml:space="preserve">-memBir : date</text>
      <text x="2" y="63" style="clip-path:url(#clipPath2); stroke:none;" xml:space="preserve">-memMail : varchar</text>
      <text x="2" y="79" style="clip-path:url(#clipPath2); stroke:none;" xml:space="preserve">-memGender : char</text>
      <text x="2" y="95" style="clip-path:url(#clipPath2); stroke:none;" xml:space="preserve">-memAddr : varchar</text>
      <text x="2" y="111" style="clip-path:url(#clipPath2); stroke:none;" xml:space="preserve">-type : char</text>
      <line x1="0" x2="150" y1="116" style="stroke-linecap:butt; clip-path:url(#clipPath2); fill:none; stroke-linejoin:bevel; stroke-miterlimit:0;" y2="116" />
      <text x="2" y="131" style="clip-path:url(#clipPath2); stroke:none;" xml:space="preserve">+createMem()</text>
      <text x="2" y="147" style="clip-path:url(#clipPath2); stroke:none;" xml:space="preserve">+modifyMem()</text>
      <text x="2" y="163" style="clip-path:url(#clipPath2); stroke:none;" xml:space="preserve">+delMem()</text>
    </g>
    <g transform="translate(232,2)" style="text-rendering:geometricPrecision; font-size:14; font-weight:bold; font-family:&apos;Times New Roman&apos;;">
      <text x="50" y="14" style="clip-path:url(#clipPath3); stroke:none;" xml:space="preserve">member</text>
    </g>
    <g transform="translate(2,312)" style="font-size:14; fill:rgb(122,207,245); text-rendering:geometricPrecision; font-family:&apos;Times New Roman&apos;; stroke:rgb(122,207,245); font-weight:bold;">
      <rect x="0" y="0" width="160" style="clip-path:url(#clipPath4); stroke:none;" height="210" />
    </g>
    <g transform="translate(2,312)" style="font-size:14; stroke-linecap:butt; text-rendering:geometricPrecision; font-family:&apos;Times New Roman&apos;; stroke-linejoin:round; font-weight:bold; stroke-miterlimit:0;">
      <rect x="0" y="0" width="160" style="clip-path:url(#clipPath4); fill:none;" height="210" />
      <line x1="0" x2="160" y1="17" style="clip-path:url(#clipPath4); fill:none;" y2="17" />
    </g>
    <g style="text-rendering:geometricPrecision; font-size:14; font-family:&apos;Times New Roman&apos;;" transform="translate(2,329)">
      <text x="2" y="15" style="clip-path:url(#clipPath5); stroke:none;" xml:space="preserve">-memID : varchar</text>
      <text x="2" y="31" style="clip-path:url(#clipPath5); stroke:none;" xml:space="preserve">-petID : varchar</text>
      <text x="2" y="47" style="clip-path:url(#clipPath5); stroke:none;" xml:space="preserve">-petName : varchar</text>
      <text x="2" y="63" style="clip-path:url(#clipPath5); stroke:none;" xml:space="preserve">-petGender : char</text>
      <text x="2" y="79" style="clip-path:url(#clipPath5); stroke:none;" xml:space="preserve">-petBir : date</text>
      <text x="2" y="95" style="clip-path:url(#clipPath5); stroke:none;" xml:space="preserve">-petKind : char</text>
      <text x="2" y="111" style="clip-path:url(#clipPath5); stroke:none;" xml:space="preserve">-petInterest : varchar</text>
      <text x="2" y="127" style="clip-path:url(#clipPath5); stroke:none;" xml:space="preserve">-note : varchar</text>
      <line x1="0" x2="160" y1="132" style="stroke-linecap:butt; clip-path:url(#clipPath5); fill:none; stroke-linejoin:bevel; stroke-miterlimit:0;" y2="132" />
      <text x="2" y="147" style="clip-path:url(#clipPath5); stroke:none;" xml:space="preserve">+checkPetID()</text>
      <text x="2" y="163" style="clip-path:url(#clipPath5); stroke:none;" xml:space="preserve">+createPet()</text>
      <text x="2" y="179" style="clip-path:url(#clipPath5); stroke:none;" xml:space="preserve">+searchPet()</text>
    </g>
    <g transform="translate(2,312)" style="text-rendering:geometricPrecision; font-size:14; font-weight:bold; font-family:&apos;Times New Roman&apos;;">
      <text x="70" y="14" style="clip-path:url(#clipPath6); stroke:none;" xml:space="preserve">pet</text>
    </g>
    <g transform="translate(12,102)" style="font-size:14; fill:rgb(122,207,245); text-rendering:geometricPrecision; font-family:&apos;Times New Roman&apos;; stroke:rgb(122,207,245); font-weight:bold;">
      <rect x="0" y="0" width="160" style="clip-path:url(#clipPath7); stroke:none;" height="160" />
    </g>
    <g transform="translate(12,102)" style="font-size:14; stroke-linecap:butt; text-rendering:geometricPrecision; font-family:&apos;Times New Roman&apos;; stroke-linejoin:round; font-weight:bold; stroke-miterlimit:0;">
      <rect x="0" y="0" width="160" style="clip-path:url(#clipPath7); fill:none;" height="160" />
      <line x1="0" x2="160" y1="17" style="clip-path:url(#clipPath7); fill:none;" y2="17" />
    </g>
    <g style="text-rendering:geometricPrecision; font-size:14; font-family:&apos;Times New Roman&apos;;" transform="translate(12,119)">
      <text x="2" y="15" style="clip-path:url(#clipPath8); stroke:none;" xml:space="preserve">-memID : varchar</text>
      <text x="2" y="31" style="clip-path:url(#clipPath8); stroke:none;" xml:space="preserve">-memAcct : varchar</text>
      <text x="2" y="47" style="clip-path:url(#clipPath8); stroke:none;" xml:space="preserve">-memPsd : varchar</text>
      <line x1="0" x2="160" y1="52" style="stroke-linecap:butt; clip-path:url(#clipPath8); fill:none; stroke-linejoin:bevel; stroke-miterlimit:0;" y2="52" />
      <text x="2" y="67" style="clip-path:url(#clipPath8); stroke:none;" xml:space="preserve">+checkMemID()</text>
      <text x="2" y="83" style="clip-path:url(#clipPath8); stroke:none;" xml:space="preserve">+checkAcct()</text>
      <text x="2" y="99" style="clip-path:url(#clipPath8); stroke:none;" xml:space="preserve">+checkPsd()</text>
      <text x="2" y="115" style="clip-path:url(#clipPath8); stroke:none;" xml:space="preserve">+login()</text>
      <text x="2" y="131" style="clip-path:url(#clipPath8); stroke:none;" xml:space="preserve">+modifyPsd()</text>
    </g>
    <g transform="translate(12,102)" style="text-rendering:geometricPrecision; font-size:14; font-weight:bold; font-family:&apos;Times New Roman&apos;;">
      <text x="56" y="14" style="clip-path:url(#clipPath6); stroke:none;" xml:space="preserve">account</text>
    </g>
    <g transform="translate(432,112)" style="font-size:14; fill:rgb(122,207,245); text-rendering:geometricPrecision; font-family:&apos;Times New Roman&apos;; stroke:rgb(122,207,245); font-weight:bold;">
      <rect x="0" y="0" width="180" style="clip-path:url(#clipPath9); stroke:none;" height="80" />
    </g>
    <g transform="translate(432,112)" style="font-size:14; stroke-linecap:butt; text-rendering:geometricPrecision; font-family:&apos;Times New Roman&apos;; stroke-linejoin:round; font-weight:bold; stroke-miterlimit:0;">
      <rect x="0" y="0" width="180" style="clip-path:url(#clipPath9); fill:none;" height="80" />
      <line x1="0" x2="180" y1="17" style="clip-path:url(#clipPath9); fill:none;" y2="17" />
    </g>
    <g style="text-rendering:geometricPrecision; font-size:14; font-family:&apos;Times New Roman&apos;;" transform="translate(432,129)">
      <text x="2" y="15" style="clip-path:url(#clipPath10); stroke:none;" xml:space="preserve">-type : char</text>
      <text x="2" y="31" style="clip-path:url(#clipPath10); stroke:none;" xml:space="preserve">-typeName : varchar</text>
      <line x1="0" x2="180" y1="36" style="stroke-linecap:butt; clip-path:url(#clipPath10); fill:none; stroke-linejoin:bevel; stroke-miterlimit:0;" y2="36" />
      <text x="2" y="51" style="clip-path:url(#clipPath10); stroke:none;" xml:space="preserve">+checkType()</text>
    </g>
    <g transform="translate(432,112)" style="text-rendering:geometricPrecision; font-size:14; font-weight:bold; font-family:&apos;Times New Roman&apos;;">
      <text x="62" y="14" style="clip-path:url(#clipPath11); stroke:none;" xml:space="preserve">authority</text>
    </g>
    <g transform="translate(432,242)" style="font-size:14; fill:rgb(122,207,245); text-rendering:geometricPrecision; font-family:&apos;Times New Roman&apos;; stroke:rgb(122,207,245); font-weight:bold;">
      <rect x="0" y="0" width="180" style="clip-path:url(#clipPath12); stroke:none;" height="100" />
    </g>
    <g transform="translate(432,242)" style="font-size:14; stroke-linecap:butt; text-rendering:geometricPrecision; font-family:&apos;Times New Roman&apos;; stroke-linejoin:round; font-weight:bold; stroke-miterlimit:0;">
      <rect x="0" y="0" width="180" style="clip-path:url(#clipPath12); fill:none;" height="100" />
      <line x1="0" x2="180" y1="17" style="clip-path:url(#clipPath12); fill:none;" y2="17" />
    </g>
    <g style="text-rendering:geometricPrecision; font-size:14; font-family:&apos;Times New Roman&apos;;" transform="translate(432,259)">
      <text x="2" y="15" style="clip-path:url(#clipPath13); stroke:none;" xml:space="preserve">-managerID : varchar</text>
      <text x="2" y="31" style="clip-path:url(#clipPath13); stroke:none;" xml:space="preserve">-managerName : varchar</text>
      <text x="2" y="47" style="clip-path:url(#clipPath13); stroke:none;" xml:space="preserve">-type : char</text>
      <line x1="0" x2="180" y1="52" style="stroke-linecap:butt; clip-path:url(#clipPath13); fill:none; stroke-linejoin:bevel; stroke-miterlimit:0;" y2="52" />
      <text x="2" y="67" style="clip-path:url(#clipPath13); stroke:none;" xml:space="preserve">+checkManagerID()</text>
    </g>
    <g transform="translate(432,242)" style="text-rendering:geometricPrecision; font-size:14; font-weight:bold; font-family:&apos;Times New Roman&apos;;">
      <text x="63" y="14" style="clip-path:url(#clipPath11); stroke:none;" xml:space="preserve">manager</text>
    </g>
    <g transform="translate(432,392)" style="font-size:14; fill:rgb(122,207,245); text-rendering:geometricPrecision; font-family:&apos;Times New Roman&apos;; stroke:rgb(122,207,245); font-weight:bold;">
      <rect x="0" y="0" width="180" style="clip-path:url(#clipPath14); stroke:none;" height="210" />
    </g>
    <g transform="translate(432,392)" style="font-size:14; stroke-linecap:butt; text-rendering:geometricPrecision; font-family:&apos;Times New Roman&apos;; stroke-linejoin:round; font-weight:bold; stroke-miterlimit:0;">
      <rect x="0" y="0" width="180" style="clip-path:url(#clipPath14); fill:none;" height="210" />
      <line x1="0" x2="180" y1="17" style="clip-path:url(#clipPath14); fill:none;" y2="17" />
    </g>
    <g style="text-rendering:geometricPrecision; font-size:14; font-family:&apos;Times New Roman&apos;;" transform="translate(432,409)">
      <text x="2" y="15" style="clip-path:url(#clipPath15); stroke:none;" xml:space="preserve">-adoptAgencyID : varchar</text>
      <text x="2" y="31" style="clip-path:url(#clipPath15); stroke:none;" xml:space="preserve">-adoptAgencyName : varchar</text>
      <text x="2" y="47" style="clip-path:url(#clipPath15); stroke:none;" xml:space="preserve">-adoptAgencyAddr : varchar</text>
      <text x="2" y="63" style="clip-path:url(#clipPath15); stroke:none;" xml:space="preserve">-adoptAgencyInfo : varchar</text>
      <text x="2" y="79" style="clip-path:url(#clipPath15); stroke:none;" xml:space="preserve">-adoptAgencyPhoto : varchar</text>
      <line x1="0" x2="180" y1="84" style="stroke-linecap:butt; clip-path:url(#clipPath15); fill:none; stroke-linejoin:bevel; stroke-miterlimit:0;" y2="84" />
      <text x="2" y="99" style="clip-path:url(#clipPath15); stroke:none;" xml:space="preserve">+editAdopt()</text>
      <text x="2" y="115" style="clip-path:url(#clipPath15); stroke:none;" xml:space="preserve">+createDogInfo()</text>
      <text x="2" y="131" style="clip-path:url(#clipPath15); stroke:none;" xml:space="preserve">+dogInfoID()</text>
      <text x="2" y="147" style="clip-path:url(#clipPath15); stroke:none;" xml:space="preserve">+dogInfoTitle()</text>
      <text x="2" y="163" style="clip-path:url(#clipPath15); stroke:none;" xml:space="preserve">+dogInfoContent()</text>
      <text x="2" y="179" style="clip-path:url(#clipPath15); stroke:none;" xml:space="preserve">+dogInfoPhoto()</text>
    </g>
    <g transform="translate(432,392)" style="text-rendering:geometricPrecision; font-size:14; font-weight:bold; font-family:&apos;Times New Roman&apos;;">
      <text x="78" y="14" style="clip-path:url(#clipPath11); stroke:none;" xml:space="preserve">edit</text>
    </g>
    <g transform="translate(232,232)" style="font-size:14; fill:rgb(122,207,245); text-rendering:geometricPrecision; font-family:&apos;Times New Roman&apos;; stroke:rgb(122,207,245); font-weight:bold;">
      <rect x="0" y="0" width="150" style="clip-path:url(#clipPath16); stroke:none;" height="160" />
    </g>
    <g transform="translate(232,232)" style="font-size:14; stroke-linecap:butt; text-rendering:geometricPrecision; font-family:&apos;Times New Roman&apos;; stroke-linejoin:round; font-weight:bold; stroke-miterlimit:0;">
      <rect x="0" y="0" width="150" style="clip-path:url(#clipPath16); fill:none;" height="160" />
      <line x1="0" x2="150" y1="17" style="clip-path:url(#clipPath16); fill:none;" y2="17" />
    </g>
    <g style="text-rendering:geometricPrecision; font-size:14; font-family:&apos;Times New Roman&apos;;" transform="translate(232,249)">
      <text x="2" y="15" style="clip-path:url(#clipPath17); stroke:none;" xml:space="preserve">-memName</text>
      <text x="2" y="31" style="clip-path:url(#clipPath17); stroke:none;" xml:space="preserve">-managerName</text>
      <text x="2" y="47" style="clip-path:url(#clipPath17); stroke:none;" xml:space="preserve">-adoptAgencyName</text>
      <text x="2" y="63" style="clip-path:url(#clipPath17); stroke:none;" xml:space="preserve">-petName</text>
      <line x1="0" x2="150" y1="68" style="stroke-linecap:butt; clip-path:url(#clipPath17); fill:none; stroke-linejoin:bevel; stroke-miterlimit:0;" y2="68" />
      <text x="2" y="83" style="clip-path:url(#clipPath17); stroke:none;" xml:space="preserve">+addGetID()</text>
      <text x="2" y="99" style="clip-path:url(#clipPath17); stroke:none;" xml:space="preserve">+deleteGetID()</text>
      <text x="2" y="115" style="clip-path:url(#clipPath17); stroke:none;" xml:space="preserve">+modifyGetID()</text>
      <text x="2" y="131" style="clip-path:url(#clipPath17); stroke:none;" xml:space="preserve">+queryGetID()</text>
    </g>
    <g transform="translate(232,232)" style="text-rendering:geometricPrecision; font-size:14; font-weight:bold; font-family:&apos;Times New Roman&apos;;">
      <text x="48" y="14" style="clip-path:url(#clipPath3); stroke:none;" xml:space="preserve">database</text>
    </g>
    <g transform="translate(20,0)" style="font-size:11; stroke-linecap:butt; text-rendering:geometricPrecision; font-family:sans-serif; stroke-linejoin:round;">
      <line x1="210" x2="72" y1="72" style="clip-path:url(#clipPath19); fill:none;" y2="72" />
      <line x1="72" x2="72" y1="72" style="clip-path:url(#clipPath19); fill:none;" y2="100" />
    </g>
    <g transform="translate(20,190)" style="font-size:11; stroke-linecap:butt; text-rendering:geometricPrecision; font-family:sans-serif; stroke-linejoin:round;">
      <line x1="72" x2="72" y1="72" style="clip-path:url(#clipPath20); fill:none;" y2="120" />
    </g>
    <g transform="translate(310,0)" style="font-size:11; stroke-linecap:butt; text-rendering:geometricPrecision; font-family:sans-serif; stroke-linejoin:round;">
      <line x1="72" x2="212" y1="72" style="clip-path:url(#clipPath21); fill:none;" y2="72" />
      <line x1="212" x2="212" y1="72" style="clip-path:url(#clipPath21); fill:none;" y2="110" />
    </g>
    <g transform="translate(450,120)" style="font-size:11; stroke-linecap:butt; text-rendering:geometricPrecision; font-family:sans-serif; stroke-linejoin:round;">
      <line x1="71" x2="71" y1="72" style="clip-path:url(#clipPath20); fill:none;" y2="120" />
    </g>
    <g transform="translate(450,270)" style="font-size:11; stroke-linecap:butt; text-rendering:geometricPrecision; font-family:sans-serif; stroke-linejoin:round;">
      <line x1="71" x2="71" y1="72" style="clip-path:url(#clipPath20); fill:none;" y2="120" />
    </g>
    <g transform="translate(240,120)" style="font-size:11; stroke-linecap:butt; text-rendering:geometricPrecision; font-family:sans-serif; stroke-linejoin:round;">
      <line x1="72" x2="72" y1="72" style="clip-path:url(#clipPath22); fill:none;" y2="110" />
    </g>
    <g transform="translate(300,120)" style="font-size:11; stroke-linecap:butt; text-rendering:geometricPrecision; font-family:sans-serif; stroke-linejoin:round;">
      <line x1="142" x2="142" y1="72" style="clip-path:url(#clipPath23); fill:none;" y2="92" />
      <line x1="142" x2="72" y1="92" style="clip-path:url(#clipPath23); fill:none;" y2="92" />
      <line x1="72" x2="72" y1="92" style="clip-path:url(#clipPath23); fill:none;" y2="110" />
    </g>
    <g transform="translate(310,230)" style="font-size:11; stroke-linecap:butt; text-rendering:geometricPrecision; font-family:sans-serif; stroke-linejoin:round;">
      <line x1="120" x2="72" y1="72" style="clip-path:url(#clipPath24); fill:none;" y2="72" />
    </g>
    <g transform="translate(310,280)" style="font-size:11; stroke-linecap:butt; text-rendering:geometricPrecision; font-family:sans-serif; stroke-linejoin:round;">
      <line x1="122" x2="122" y1="152" style="clip-path:url(#clipPath25); fill:none;" y2="152" />
      <line x1="122" x2="102" y1="152" style="clip-path:url(#clipPath25); fill:none;" y2="152" />
      <line x1="102" x2="102" y1="152" style="clip-path:url(#clipPath25); fill:none;" y2="72" />
      <line x1="102" x2="72" y1="72" style="clip-path:url(#clipPath25); fill:none;" y2="72" />
    </g>
    <g transform="translate(90,260)" style="font-size:11; stroke-linecap:butt; text-rendering:geometricPrecision; font-family:sans-serif; stroke-linejoin:round;">
      <line x1="140" x2="112" y1="72" style="clip-path:url(#clipPath26); fill:none;" y2="72" />
      <line x1="112" x2="112" y1="72" style="clip-path:url(#clipPath26); fill:none;" y2="172" />
      <line x1="112" x2="72" y1="172" style="clip-path:url(#clipPath26); fill:none;" y2="172" />
    </g>
    <g transform="translate(100,170)" style="font-size:11; stroke-linecap:butt; text-rendering:geometricPrecision; font-family:sans-serif; stroke-linejoin:round;">
      <line x1="130" x2="72" y1="72" style="clip-path:url(#clipPath27); fill:none;" y2="72" />
    </g>
    <g style="text-rendering:geometricPrecision; font-size:11; font-family:sans-serif;" transform="translate(522,222)">
      <text x="11" y="15" style="clip-path:url(#clipPath28); stroke:none;" xml:space="preserve">1..*</text>
    </g>
    <g style="text-rendering:geometricPrecision; font-size:11; font-family:sans-serif;" transform="translate(522,192)">
      <text x="17" y="15" style="clip-path:url(#clipPath28); stroke:none;" xml:space="preserve">1</text>
    </g>
    <g style="text-rendering:geometricPrecision; font-size:11; font-family:sans-serif;" transform="translate(162,222)">
      <text x="17" y="15" style="clip-path:url(#clipPath28); stroke:none;" xml:space="preserve">1</text>
    </g>
    <g style="text-rendering:geometricPrecision; font-size:11; font-family:sans-serif;" transform="translate(202,222)">
      <text x="17" y="15" style="clip-path:url(#clipPath28); stroke:none;" xml:space="preserve">1</text>
    </g>
    <g style="text-rendering:geometricPrecision; font-size:11; font-family:sans-serif;" transform="translate(482,92)">
      <text x="17" y="15" style="clip-path:url(#clipPath28); stroke:none;" xml:space="preserve">1</text>
    </g>
    <g style="text-rendering:geometricPrecision; font-size:11; font-family:sans-serif;" transform="translate(382,52)">
      <text x="11" y="15" style="clip-path:url(#clipPath28); stroke:none;" xml:space="preserve">1..*</text>
    </g>
    <g style="text-rendering:geometricPrecision; font-size:11; font-family:sans-serif;" transform="translate(372,332)">
      <text x="17" y="15" style="clip-path:url(#clipPath28); stroke:none;" xml:space="preserve">1</text>
    </g>
    <g style="text-rendering:geometricPrecision; font-size:11; font-family:sans-serif;" transform="translate(402,412)">
      <text x="17" y="15" style="clip-path:url(#clipPath28); stroke:none;" xml:space="preserve">1</text>
    </g>
    <g style="text-rendering:geometricPrecision; font-size:11; font-family:sans-serif;" transform="translate(92,292)">
      <text x="11" y="15" style="clip-path:url(#clipPath28); stroke:none;" xml:space="preserve">1..*</text>
    </g>
    <g style="text-rendering:geometricPrecision; font-size:11; font-family:sans-serif;" transform="translate(82,262)">
      <text x="17" y="15" style="clip-path:url(#clipPath28); stroke:none;" xml:space="preserve">1</text>
    </g>
    <g style="text-rendering:geometricPrecision; font-size:11; font-family:sans-serif;" transform="translate(52,82)">
      <text x="17" y="15" style="clip-path:url(#clipPath28); stroke:none;" xml:space="preserve">1</text>
    </g>
    <g style="text-rendering:geometricPrecision; font-size:11; font-family:sans-serif;" transform="translate(192,52)">
      <text x="17" y="15" style="clip-path:url(#clipPath28); stroke:none;" xml:space="preserve">1</text>
    </g>
    <g style="text-rendering:geometricPrecision; font-size:11; font-family:sans-serif;" transform="translate(372,282)">
      <text x="17" y="15" style="clip-path:url(#clipPath28); stroke:none;" xml:space="preserve">1</text>
    </g>
    <g style="text-rendering:geometricPrecision; font-size:11; font-family:sans-serif;" transform="translate(402,282)">
      <text x="17" y="15" style="clip-path:url(#clipPath28); stroke:none;" xml:space="preserve">1</text>
    </g>
    <g style="text-rendering:geometricPrecision; font-size:11; font-family:sans-serif;" transform="translate(522,372)">
      <text x="11" y="15" style="clip-path:url(#clipPath28); stroke:none;" xml:space="preserve">0..*</text>
    </g>
    <g style="text-rendering:geometricPrecision; font-size:11; font-family:sans-serif;" transform="translate(522,342)">
      <text x="17" y="15" style="clip-path:url(#clipPath28); stroke:none;" xml:space="preserve">1</text>
    </g>
    <g style="text-rendering:geometricPrecision; font-size:11; font-family:sans-serif;" transform="translate(312,212)">
      <text x="17" y="15" style="clip-path:url(#clipPath28); stroke:none;" xml:space="preserve">1</text>
    </g>
    <g style="text-rendering:geometricPrecision; font-size:11; font-family:sans-serif;" transform="translate(312,192)">
      <text x="17" y="15" style="clip-path:url(#clipPath28); stroke:none;" xml:space="preserve">1</text>
    </g>
    <g style="text-rendering:geometricPrecision; font-size:11; font-family:sans-serif;" transform="translate(152,412)">
      <text x="17" y="15" style="clip-path:url(#clipPath28); stroke:none;" xml:space="preserve">1</text>
    </g>
    <g style="text-rendering:geometricPrecision; font-size:11; font-family:sans-serif;" transform="translate(202,312)">
      <text x="17" y="15" style="clip-path:url(#clipPath28); stroke:none;" xml:space="preserve">1</text>
    </g>
    <g style="text-rendering:geometricPrecision; font-size:11; font-family:sans-serif;" transform="translate(362,212)">
      <text x="17" y="15" style="clip-path:url(#clipPath28); stroke:none;" xml:space="preserve">1</text>
    </g>
    <g style="text-rendering:geometricPrecision; font-size:11; font-family:sans-serif;" transform="translate(412,192)">
      <text x="17" y="15" style="clip-path:url(#clipPath28); stroke:none;" xml:space="preserve">1</text>
    </g>
    <g style="fill:rgb(120,120,120); text-rendering:geometricPrecision; font-size:10; stroke:rgb(120,120,120);">
      <text xml:space="preserve" x="0" y="10" style="stroke:none;">Visual Paradigm for UML Personal Edition [not for commercial use] </text>
      <text xml:space="preserve" x="0" y="10" style="stroke:none;">Visual Paradigm for UML Personal Edition [not for commercial use] </text>
    </g>
  </g>
</svg>
