<?xml version="1.0" encoding="UTF-8"?>

<!DOCTYPE svg PUBLIC '-//W3C//DTD SVG 1.0//EN' 'http://www.w3.org/TR/2001/REC-SVG-20010904/DTD/svg10.dtd'>
<svg style="fill-opacity:1; color-rendering:auto; color-interpolation:auto; stroke:black; text-rendering:auto; stroke-linecap:square; stroke-miterlimit:10; stroke-opacity:1; shape-rendering:auto; fill:black; stroke-dasharray:none; font-weight:normal; stroke-width:1; font-family:&apos;Dialog&apos;; font-style:normal; stroke-linejoin:miter; font-size:12; stroke-dashoffset:0; image-rendering:auto;" xmlns="http://www.w3.org/2000/svg" width="363" xmlns:xlink="http://www.w3.org/1999/xlink" height="686">
  <!--Generated by the Batik Graphics2D SVG Generator-->
  <defs id="genericDefs" />
  <g>
    <defs id="defs1">
      <clipPath clipPathUnits="userSpaceOnUse" id="clipPath1">
        <path d="M-3 -3 L47 -3 L47 27 L-3 27 L-3 -3 Z" />
      </clipPath>
      <clipPath clipPathUnits="userSpaceOnUse" id="clipPath2">
        <path d="M-3 -3 L107 -3 L107 67 L-3 67 L-3 -3 Z" />
      </clipPath>
      <clipPath clipPathUnits="userSpaceOnUse" id="clipPath3">
        <path d="M0 0 L100 0 L100 60 L0 60 L0 0 Z" />
      </clipPath>
      <clipPath clipPathUnits="userSpaceOnUse" id="clipPath4">
        <path d="M-3 -3 L27 -3 L27 47 L-3 47 L-3 -3 Z" />
      </clipPath>
      <clipPath clipPathUnits="userSpaceOnUse" id="clipPath5">
        <path d="M-3 -3 L127 -3 L127 77 L-3 77 L-3 -3 Z" />
      </clipPath>
      <clipPath clipPathUnits="userSpaceOnUse" id="clipPath6">
        <path d="M0 0 L120 0 L120 70 L0 70 L0 0 Z" />
      </clipPath>
      <clipPath clipPathUnits="userSpaceOnUse" id="clipPath7">
        <path d="M-3 -3 L137 -3 L137 67 L-3 67 L-3 -3 Z" />
      </clipPath>
      <clipPath clipPathUnits="userSpaceOnUse" id="clipPath8">
        <path d="M0 0 L130 0 L130 60 L0 60 L0 0 Z" />
      </clipPath>
      <clipPath clipPathUnits="userSpaceOnUse" id="clipPath9">
        <path d="M-3 -3 L28 -3 L28 47 L-3 47 L-3 -3 Z" />
      </clipPath>
      <clipPath clipPathUnits="userSpaceOnUse" id="clipPath10">
        <path d="M-3 -3 L27 -3 L27 27 L-3 27 L-3 -3 Z" />
      </clipPath>
      <clipPath clipPathUnits="userSpaceOnUse" id="clipPath11">
        <path d="M0 0 L129 0 L129 162 L0 162 L0 0 Z" />
      </clipPath>
      <clipPath clipPathUnits="userSpaceOnUse" id="clipPath12">
        <path d="M0 0 L129 0 L129 152 L0 152 L0 0 Z" />
      </clipPath>
      <clipPath clipPathUnits="userSpaceOnUse" id="clipPath13">
        <path d="M0 0 L183 0 L183 170 L0 170 L0 0 Z" />
      </clipPath>
      <clipPath clipPathUnits="userSpaceOnUse" id="clipPath14">
        <path d="M0 0 L193 0 L193 170 L0 170 L0 0 Z" />
      </clipPath>
      <clipPath clipPathUnits="userSpaceOnUse" id="clipPath15">
        <path d="M0 0 L129 0 L129 172 L0 172 L0 0 Z" />
      </clipPath>
      <clipPath clipPathUnits="userSpaceOnUse" id="clipPath16">
        <path d="M0 0 L183 0 L183 210 L0 210 L0 0 Z" />
      </clipPath>
      <clipPath clipPathUnits="userSpaceOnUse" id="clipPath17">
        <path d="M0 0 L192 0 L192 210 L0 210 L0 0 Z" />
      </clipPath>
      <clipPath clipPathUnits="userSpaceOnUse" id="clipPath18">
        <path d="M0 0 L293 0 L293 409 L0 409 L0 0 Z" />
      </clipPath>
      <clipPath clipPathUnits="userSpaceOnUse" id="clipPath19">
        <path d="M0 0 L303 0 L303 409 L0 409 L0 0 Z" />
      </clipPath>
      <clipPath clipPathUnits="userSpaceOnUse" id="clipPath20">
        <path d="M0 0 L118 0 L118 18 L0 18 L0 0 Z" />
      </clipPath>
      <clipPath clipPathUnits="userSpaceOnUse" id="clipPath21">
        <path d="M0 0 L90 0 L90 18 L0 18 L0 0 Z" />
      </clipPath>
    </defs>
    <g style="fill:white; text-rendering:geometricPrecision; stroke:white;">
      <rect x="0" y="0" width="363" style="stroke:none;" height="686" />
    </g>
    <g style="text-rendering:geometricPrecision; font-size:11; font-family:sans-serif;" transform="translate(152,2)">
      <circle style="clip-path:url(#clipPath1); stroke:none;" r="10" cx="20" cy="10" />
    </g>
    <g transform="translate(122,52)" style="font-size:14; fill:rgb(122,207,245); text-rendering:geometricPrecision; font-family:&apos;標楷體&apos;; stroke:rgb(122,207,245);">
      <rect x="1" y="1" width="98" style="clip-path:url(#clipPath2); stroke:none;" rx="15" ry="15" height="58" />
    </g>
    <g transform="translate(122,52)" style="font-size:14; stroke-linecap:butt; text-rendering:geometricPrecision; font-family:&apos;標楷體&apos;; stroke-linejoin:round; stroke-miterlimit:0;">
      <rect x="1" y="1" width="98" style="clip-path:url(#clipPath2); fill:none;" rx="15" ry="15" height="58" />
    </g>
    <g style="text-rendering:geometricPrecision; font-size:14; font-family:&apos;標楷體&apos;;" transform="translate(122,52)">
      <text x="22" y="37" style="clip-path:url(#clipPath3); stroke:none;" xml:space="preserve">會員登入</text>
    </g>
    <g transform="translate(162,132)" style="font-size:11; fill:rgb(122,207,245); text-rendering:geometricPrecision; font-family:sans-serif; stroke:rgb(122,207,245);">
      <polygon style="clip-path:url(#clipPath4); stroke:none;" points=" 10 7 17 20 10 32 3 20" />
    </g>
    <g transform="translate(162,132)" style="font-size:11; stroke-linecap:butt; text-rendering:geometricPrecision; font-family:sans-serif; stroke-linejoin:round; stroke-miterlimit:0;">
      <polygon style="fill:none; clip-path:url(#clipPath4);" points=" 10 7 17 20 10 32 3 20" />
    </g>
    <g transform="translate(112,182)" style="font-size:14; fill:rgb(122,207,245); text-rendering:geometricPrecision; font-family:&apos;標楷體&apos;; stroke:rgb(122,207,245);">
      <rect x="1" y="1" width="118" style="clip-path:url(#clipPath5); stroke:none;" rx="15" ry="15" height="68" />
    </g>
    <g transform="translate(112,182)" style="font-size:14; stroke-linecap:butt; text-rendering:geometricPrecision; font-family:&apos;標楷體&apos;; stroke-linejoin:round; stroke-miterlimit:0;">
      <rect x="1" y="1" width="118" style="clip-path:url(#clipPath5); fill:none;" rx="15" ry="15" height="68" />
    </g>
    <g style="text-rendering:geometricPrecision; font-size:14; font-family:&apos;標楷體&apos;;" transform="translate(112,182)">
      <text x="32" y="42" style="clip-path:url(#clipPath6); stroke:none;" xml:space="preserve">寵物辨識</text>
    </g>
    <g transform="translate(162,262)" style="font-size:11; fill:rgb(122,207,245); text-rendering:geometricPrecision; font-family:sans-serif; stroke:rgb(122,207,245);">
      <polygon style="clip-path:url(#clipPath4); stroke:none;" points=" 10 7 17 20 10 32 3 20" />
    </g>
    <g transform="translate(162,262)" style="font-size:11; stroke-linecap:butt; text-rendering:geometricPrecision; font-family:sans-serif; stroke-linejoin:round; stroke-miterlimit:0;">
      <polygon style="fill:none; clip-path:url(#clipPath4);" points=" 10 7 17 20 10 32 3 20" />
    </g>
    <g transform="translate(62,322)" style="font-size:14; fill:rgb(122,207,245); text-rendering:geometricPrecision; font-family:&apos;標楷體&apos;; stroke:rgb(122,207,245);">
      <rect x="1" y="1" width="98" style="clip-path:url(#clipPath2); stroke:none;" rx="15" ry="15" height="58" />
    </g>
    <g transform="translate(62,322)" style="font-size:14; stroke-linecap:butt; text-rendering:geometricPrecision; font-family:&apos;標楷體&apos;; stroke-linejoin:round; stroke-miterlimit:0;">
      <rect x="1" y="1" width="98" style="clip-path:url(#clipPath2); fill:none;" rx="15" ry="15" height="58" />
    </g>
    <g style="text-rendering:geometricPrecision; font-size:14; font-family:&apos;標楷體&apos;;" transform="translate(62,322)">
      <text x="22" y="37" style="clip-path:url(#clipPath3); stroke:none;" xml:space="preserve">上傳圖片</text>
    </g>
    <g transform="translate(192,322)" style="font-size:14; fill:rgb(122,207,245); text-rendering:geometricPrecision; font-family:&apos;標楷體&apos;; stroke:rgb(122,207,245);">
      <rect x="1" y="1" width="128" style="clip-path:url(#clipPath7); stroke:none;" rx="15" ry="15" height="58" />
    </g>
    <g transform="translate(192,322)" style="font-size:14; stroke-linecap:butt; text-rendering:geometricPrecision; font-family:&apos;標楷體&apos;; stroke-linejoin:round; stroke-miterlimit:0;">
      <rect x="1" y="1" width="128" style="clip-path:url(#clipPath7); fill:none;" rx="15" ry="15" height="58" />
    </g>
    <g style="text-rendering:geometricPrecision; font-size:14; font-family:&apos;標楷體&apos;;" transform="translate(192,322)">
      <text x="16" y="37" style="clip-path:url(#clipPath8); stroke:none;" xml:space="preserve">從相簿選擇照片</text>
    </g>
    <g transform="translate(102,412)" style="font-size:11; fill:rgb(122,207,245); text-rendering:geometricPrecision; font-family:sans-serif; stroke:rgb(122,207,245);">
      <polygon style="clip-path:url(#clipPath4); stroke:none;" points=" 10 7 17 20 10 32 3 20" />
    </g>
    <g transform="translate(102,412)" style="font-size:11; stroke-linecap:butt; text-rendering:geometricPrecision; font-family:sans-serif; stroke-linejoin:round; stroke-miterlimit:0;">
      <polygon style="fill:none; clip-path:url(#clipPath4);" points=" 10 7 17 20 10 32 3 20" />
    </g>
    <g transform="translate(232,412)" style="font-size:11; fill:rgb(122,207,245); text-rendering:geometricPrecision; font-family:sans-serif; stroke:rgb(122,207,245);">
      <polygon style="clip-path:url(#clipPath4); stroke:none;" points=" 10 7 17 20 10 32 3 20" />
    </g>
    <g transform="translate(232,412)" style="font-size:11; stroke-linecap:butt; text-rendering:geometricPrecision; font-family:sans-serif; stroke-linejoin:round; stroke-miterlimit:0;">
      <polygon style="fill:none; clip-path:url(#clipPath4);" points=" 10 7 17 20 10 32 3 20" />
    </g>
    <g transform="translate(162,502)" style="font-size:11; fill:rgb(122,207,245); text-rendering:geometricPrecision; font-family:sans-serif; stroke:rgb(122,207,245);">
      <polygon style="clip-path:url(#clipPath9); stroke:none;" points=" 10 7 18 20 10 32 3 20" />
    </g>
    <g transform="translate(162,502)" style="font-size:11; stroke-linecap:butt; text-rendering:geometricPrecision; font-family:sans-serif; stroke-linejoin:round; stroke-miterlimit:0;">
      <polygon style="fill:none; clip-path:url(#clipPath9);" points=" 10 7 18 20 10 32 3 20" />
    </g>
    <g transform="translate(122,572)" style="font-size:14; fill:rgb(122,207,245); text-rendering:geometricPrecision; font-family:&apos;標楷體&apos;; stroke:rgb(122,207,245);">
      <rect x="1" y="1" width="98" style="clip-path:url(#clipPath2); stroke:none;" rx="15" ry="15" height="58" />
    </g>
    <g transform="translate(122,572)" style="font-size:14; stroke-linecap:butt; text-rendering:geometricPrecision; font-family:&apos;標楷體&apos;; stroke-linejoin:round; stroke-miterlimit:0;">
      <rect x="1" y="1" width="98" style="clip-path:url(#clipPath2); fill:none;" rx="15" ry="15" height="58" />
    </g>
    <g style="text-rendering:geometricPrecision; font-size:14; font-family:&apos;標楷體&apos;;" transform="translate(122,572)">
      <text x="22" y="37" style="clip-path:url(#clipPath3); stroke:none;" xml:space="preserve">品種辨識</text>
    </g>
    <g style="text-rendering:geometricPrecision; font-size:11; font-family:sans-serif;" transform="translate(162,662)">
      <circle style="clip-path:url(#clipPath10); stroke:none;" r="6.6667" cx="10" cy="10" />
      <circle style="stroke-linecap:butt; clip-path:url(#clipPath10); fill:none; stroke-linejoin:round; stroke-miterlimit:0;" r="10" cx="10" cy="10" />
    </g>
    <g transform="translate(110,-42)" style="font-size:11; stroke-linecap:butt; text-rendering:geometricPrecision; font-family:sans-serif; stroke-linejoin:round;">
      <line x1="63" x2="63" y1="63" style="clip-path:url(#clipPath11); fill:none;" y2="95" />
      <line x1="63" x2="69" y1="95" style="clip-path:url(#clipPath11); fill:none;" y2="83" />
      <line x1="63" x2="57" y1="95" style="clip-path:url(#clipPath11); fill:none;" y2="83" />
    </g>
    <g transform="translate(110,48)" style="font-size:11; stroke-linecap:butt; text-rendering:geometricPrecision; font-family:sans-serif; stroke-linejoin:round;">
      <line x1="63" x2="63" y1="63" style="clip-path:url(#clipPath11); fill:none;" y2="95" />
      <line x1="63" x2="69" y1="95" style="clip-path:url(#clipPath11); fill:none;" y2="83" />
      <line x1="63" x2="57" y1="95" style="clip-path:url(#clipPath11); fill:none;" y2="83" />
    </g>
    <g transform="translate(110,98)" style="font-size:11; stroke-linecap:butt; text-rendering:geometricPrecision; font-family:sans-serif; stroke-linejoin:round;">
      <line x1="63" x2="63" y1="63" style="clip-path:url(#clipPath12); fill:none;" y2="85" />
      <line x1="63" x2="69" y1="85" style="clip-path:url(#clipPath12); fill:none;" y2="73" />
      <line x1="63" x2="57" y1="85" style="clip-path:url(#clipPath12); fill:none;" y2="73" />
    </g>
    <g transform="translate(110,188)" style="font-size:11; stroke-linecap:butt; text-rendering:geometricPrecision; font-family:sans-serif; stroke-linejoin:round;">
      <line x1="63" x2="63" y1="63" style="clip-path:url(#clipPath12); fill:none;" y2="85" />
      <line x1="63" x2="69" y1="85" style="clip-path:url(#clipPath12); fill:none;" y2="73" />
      <line x1="63" x2="57" y1="85" style="clip-path:url(#clipPath12); fill:none;" y2="73" />
    </g>
    <g transform="translate(50,220)" style="font-size:11; stroke-linecap:butt; text-rendering:geometricPrecision; font-family:sans-serif; stroke-linejoin:round;">
      <line x1="116" x2="63" y1="63" style="clip-path:url(#clipPath13); fill:none;" y2="63" />
      <line x1="63" x2="63" y1="63" style="clip-path:url(#clipPath13); fill:none;" y2="104" />
      <line x1="63" x2="69" y1="104" style="clip-path:url(#clipPath13); fill:none;" y2="92" />
      <line x1="63" x2="57" y1="104" style="clip-path:url(#clipPath13); fill:none;" y2="92" />
    </g>
    <g transform="translate(116,220)" style="font-size:11; stroke-linecap:butt; text-rendering:geometricPrecision; font-family:sans-serif; stroke-linejoin:round;">
      <line x1="63" x2="126" y1="63" style="clip-path:url(#clipPath14); fill:none;" y2="63" />
      <line x1="126" x2="126" y1="63" style="clip-path:url(#clipPath14); fill:none;" y2="104" />
      <line x1="126" x2="132" y1="104" style="clip-path:url(#clipPath14); fill:none;" y2="92" />
      <line x1="126" x2="120" y1="104" style="clip-path:url(#clipPath14); fill:none;" y2="92" />
    </g>
    <g transform="translate(50,318)" style="font-size:11; stroke-linecap:butt; text-rendering:geometricPrecision; font-family:sans-serif; stroke-linejoin:round;">
      <line x1="63" x2="63" y1="63" style="clip-path:url(#clipPath15); fill:none;" y2="105" />
      <line x1="63" x2="69" y1="105" style="clip-path:url(#clipPath15); fill:none;" y2="93" />
      <line x1="63" x2="57" y1="105" style="clip-path:url(#clipPath15); fill:none;" y2="93" />
    </g>
    <g transform="translate(180,318)" style="font-size:11; stroke-linecap:butt; text-rendering:geometricPrecision; font-family:sans-serif; stroke-linejoin:round;">
      <line x1="63" x2="63" y1="63" style="clip-path:url(#clipPath15); fill:none;" y2="105" />
      <line x1="63" x2="69" y1="105" style="clip-path:url(#clipPath15); fill:none;" y2="93" />
      <line x1="63" x2="57" y1="105" style="clip-path:url(#clipPath15); fill:none;" y2="93" />
    </g>
    <g transform="translate(50,378)" style="font-size:14; stroke-linecap:butt; text-rendering:geometricPrecision; font-family:&apos;標楷體&apos;; stroke-linejoin:round;">
      <line x1="63" x2="63" y1="63" style="clip-path:url(#clipPath16); fill:none;" y2="144" />
      <line x1="63" x2="116" y1="144" style="clip-path:url(#clipPath16); fill:none;" y2="144" />
      <line x1="116" x2="104" y1="144" style="clip-path:url(#clipPath16); fill:none;" y2="138" />
      <line x1="116" x2="104" y1="144" style="clip-path:url(#clipPath16); fill:none;" y2="150" />
    </g>
    <g transform="translate(117,378)" style="font-size:14; stroke-linecap:butt; text-rendering:geometricPrecision; font-family:&apos;標楷體&apos;; stroke-linejoin:round;">
      <line x1="125" x2="125" y1="63" style="clip-path:url(#clipPath17); fill:none;" y2="144" />
      <line x1="125" x2="63" y1="144" style="clip-path:url(#clipPath17); fill:none;" y2="144" />
      <line x1="63" x2="75" y1="144" style="clip-path:url(#clipPath17); fill:none;" y2="150" />
      <line x1="63" x2="75" y1="144" style="clip-path:url(#clipPath17); fill:none;" y2="138" />
    </g>
    <g transform="translate(110,468)" style="font-size:11; stroke-linecap:butt; text-rendering:geometricPrecision; font-family:sans-serif; stroke-linejoin:round;">
      <line x1="63" x2="63" y1="63" style="clip-path:url(#clipPath15); fill:none;" y2="105" />
      <line x1="63" x2="69" y1="105" style="clip-path:url(#clipPath15); fill:none;" y2="93" />
      <line x1="63" x2="57" y1="105" style="clip-path:url(#clipPath15); fill:none;" y2="93" />
    </g>
    <g transform="translate(110,568)" style="font-size:11; stroke-linecap:butt; text-rendering:geometricPrecision; font-family:sans-serif; stroke-linejoin:round;">
      <line x1="63" x2="63" y1="63" style="clip-path:url(#clipPath11); fill:none;" y2="95" />
      <line x1="63" x2="69" y1="95" style="clip-path:url(#clipPath11); fill:none;" y2="83" />
      <line x1="63" x2="57" y1="95" style="clip-path:url(#clipPath11); fill:none;" y2="83" />
    </g>
    <g transform="translate(-60,90)" style="font-size:14; stroke-linecap:butt; text-rendering:geometricPrecision; font-family:&apos;標楷體&apos;; stroke-linejoin:round;">
      <line x1="166" x2="63" y1="343" style="clip-path:url(#clipPath18); fill:none;" y2="343" />
      <line x1="63" x2="63" y1="343" style="clip-path:url(#clipPath18); fill:none;" y2="63" />
      <line x1="63" x2="226" y1="63" style="clip-path:url(#clipPath18); fill:none;" y2="63" />
      <line x1="226" x2="214" y1="63" style="clip-path:url(#clipPath18); fill:none;" y2="57" />
      <line x1="226" x2="214" y1="63" style="clip-path:url(#clipPath18); fill:none;" y2="69" />
    </g>
    <g transform="translate(116,90)" style="font-size:14; stroke-linecap:butt; text-rendering:geometricPrecision; font-family:&apos;標楷體&apos;; stroke-linejoin:round;">
      <line x1="133" x2="236" y1="343" style="clip-path:url(#clipPath19); fill:none;" y2="343" />
      <line x1="236" x2="236" y1="343" style="clip-path:url(#clipPath19); fill:none;" y2="63" />
      <line x1="236" x2="63" y1="63" style="clip-path:url(#clipPath19); fill:none;" y2="63" />
      <line x1="63" x2="75" y1="63" style="clip-path:url(#clipPath19); fill:none;" y2="69" />
      <line x1="63" x2="75" y1="63" style="clip-path:url(#clipPath19); fill:none;" y2="57" />
    </g>
    <g style="text-rendering:geometricPrecision; font-size:14; font-family:&apos;標楷體&apos;;" transform="translate(242,242)">
      <text x="10" y="16" style="clip-path:url(#clipPath20); stroke:none;" xml:space="preserve">[無法讀取照片]</text>
    </g>
    <g style="text-rendering:geometricPrecision; font-size:14; font-family:&apos;標楷體&apos;;" transform="translate(2,252)">
      <text x="10" y="16" style="clip-path:url(#clipPath21); stroke:none;" xml:space="preserve">[上傳失敗]</text>
    </g>
    <g style="text-rendering:geometricPrecision; font-size:14; font-family:&apos;標楷體&apos;;" transform="translate(242,482)">
      <text x="10" y="16" style="clip-path:url(#clipPath21); stroke:none;" xml:space="preserve">[讀取成功]</text>
    </g>
    <g style="text-rendering:geometricPrecision; font-size:14; font-family:&apos;標楷體&apos;;" transform="translate(22,482)">
      <text x="10" y="16" style="clip-path:url(#clipPath21); stroke:none;" xml:space="preserve">[上傳成功]</text>
    </g>
    <g style="fill:rgb(120,120,120); text-rendering:geometricPrecision; font-size:10; stroke:rgb(120,120,120);">
    </g>
  </g>
</svg>
