<?xml version="1.0" encoding="UTF-8"?>

<!DOCTYPE svg PUBLIC '-//W3C//DTD SVG 1.0//EN' 'http://www.w3.org/TR/2001/REC-SVG-20010904/DTD/svg10.dtd'>
<svg style="fill-opacity:1; color-rendering:auto; color-interpolation:auto; stroke:black; text-rendering:auto; stroke-linecap:square; stroke-miterlimit:10; stroke-opacity:1; shape-rendering:auto; fill:black; stroke-dasharray:none; font-weight:normal; stroke-width:1; font-family:&apos;Dialog&apos;; font-style:normal; stroke-linejoin:miter; font-size:12; stroke-dashoffset:0; image-rendering:auto;" xmlns="http://www.w3.org/2000/svg" width="876" xmlns:xlink="http://www.w3.org/1999/xlink" height="534">
  <!--Generated by the Batik Graphics2D SVG Generator-->
  <defs id="genericDefs" />
  <g>
    <defs id="defs1">
      <clipPath clipPathUnits="userSpaceOnUse" id="clipPath1">
        <path d="M-3 -3 L877 -3 L877 537 L-3 537 L-3 -3 Z" />
      </clipPath>
      <clipPath clipPathUnits="userSpaceOnUse" id="clipPath2">
        <path d="M0 0 L0 519 L7 519 L7 0 Z" />
      </clipPath>
      <clipPath clipPathUnits="userSpaceOnUse" id="clipPath3">
        <path d="M-3 -3 L125 -3 L125 25 L-3 25 L-3 -3 Z" />
      </clipPath>
      <clipPath clipPathUnits="userSpaceOnUse" id="clipPath4">
        <path d="M0 0 L118 0 L118 18 L0 18 L0 0 Z" />
      </clipPath>
      <clipPath clipPathUnits="userSpaceOnUse" id="clipPath5">
        <path d="M-3 -3 L125 -3 L125 519 L-3 519 L-3 -3 Z" />
      </clipPath>
      <clipPath clipPathUnits="userSpaceOnUse" id="clipPath6">
        <path d="M-3 -3 L237 -3 L237 25 L-3 25 L-3 -3 Z" />
      </clipPath>
      <clipPath clipPathUnits="userSpaceOnUse" id="clipPath7">
        <path d="M0 0 L230 0 L230 18 L0 18 L0 0 Z" />
      </clipPath>
      <clipPath clipPathUnits="userSpaceOnUse" id="clipPath8">
        <path d="M-3 -3 L237 -3 L237 519 L-3 519 L-3 -3 Z" />
      </clipPath>
      <clipPath clipPathUnits="userSpaceOnUse" id="clipPath9">
        <path d="M-3 -3 L529 -3 L529 25 L-3 25 L-3 -3 Z" />
      </clipPath>
      <clipPath clipPathUnits="userSpaceOnUse" id="clipPath10">
        <path d="M0 0 L522 0 L522 18 L0 18 L0 0 Z" />
      </clipPath>
      <clipPath clipPathUnits="userSpaceOnUse" id="clipPath11">
        <path d="M-3 -3 L529 -3 L529 519 L-3 519 L-3 -3 Z" />
      </clipPath>
      <clipPath clipPathUnits="userSpaceOnUse" id="clipPath12">
        <path d="M-3 -3 L47 -3 L47 27 L-3 27 L-3 -3 Z" />
      </clipPath>
      <clipPath clipPathUnits="userSpaceOnUse" id="clipPath13">
        <path d="M-3 -3 L87 -3 L87 57 L-3 57 L-3 -3 Z" />
      </clipPath>
      <clipPath clipPathUnits="userSpaceOnUse" id="clipPath14">
        <path d="M0 0 L80 0 L80 50 L0 50 L0 0 Z" />
      </clipPath>
      <clipPath clipPathUnits="userSpaceOnUse" id="clipPath15">
        <path d="M-3 -3 L27 -3 L27 47 L-3 47 L-3 -3 Z" />
      </clipPath>
      <clipPath clipPathUnits="userSpaceOnUse" id="clipPath16">
        <path d="M-3 -3 L77 -3 L77 57 L-3 57 L-3 -3 Z" />
      </clipPath>
      <clipPath clipPathUnits="userSpaceOnUse" id="clipPath17">
        <path d="M0 0 L70 0 L70 50 L0 50 L0 0 Z" />
      </clipPath>
      <clipPath clipPathUnits="userSpaceOnUse" id="clipPath18">
        <path d="M-3 -3 L107 -3 L107 57 L-3 57 L-3 -3 Z" />
      </clipPath>
      <clipPath clipPathUnits="userSpaceOnUse" id="clipPath19">
        <path d="M0 0 L100 0 L100 50 L0 50 L0 0 Z" />
      </clipPath>
      <clipPath clipPathUnits="userSpaceOnUse" id="clipPath20">
        <path d="M-3 -3 L27 -3 L27 27 L-3 27 L-3 -3 Z" />
      </clipPath>
      <clipPath clipPathUnits="userSpaceOnUse" id="clipPath21">
        <path d="M-3 -3 L117 -3 L117 57 L-3 57 L-3 -3 Z" />
      </clipPath>
      <clipPath clipPathUnits="userSpaceOnUse" id="clipPath22">
        <path d="M0 0 L110 0 L110 50 L0 50 L0 0 Z" />
      </clipPath>
      <clipPath clipPathUnits="userSpaceOnUse" id="clipPath23">
        <path d="M-3 -3 L87 -3 L87 47 L-3 47 L-3 -3 Z" />
      </clipPath>
      <clipPath clipPathUnits="userSpaceOnUse" id="clipPath24">
        <path d="M0 0 L80 0 L80 40 L0 40 L0 0 Z" />
      </clipPath>
      <clipPath clipPathUnits="userSpaceOnUse" id="clipPath25">
        <path d="M0 0 L522 0 L522 512 L0 512 L0 0 Z" />
      </clipPath>
      <clipPath clipPathUnits="userSpaceOnUse" id="clipPath26">
        <path d="M0 0 L230 0 L230 512 L0 512 L0 0 Z" />
      </clipPath>
      <clipPath clipPathUnits="userSpaceOnUse" id="clipPath27">
        <path d="M0 0 L118 0 L118 512 L0 512 L0 0 Z" />
      </clipPath>
      <clipPath clipPathUnits="userSpaceOnUse" id="clipPath28">
        <path d="M0 0 L104 0 L104 125 L0 125 L0 0 Z" />
      </clipPath>
      <clipPath clipPathUnits="userSpaceOnUse" id="clipPath29">
        <path d="M0 0 L104 0 L104 133 L0 133 L0 0 Z" />
      </clipPath>
      <clipPath clipPathUnits="userSpaceOnUse" id="clipPath30">
        <path d="M0 0 L104 0 L104 136 L0 136 L0 0 Z" />
      </clipPath>
      <clipPath clipPathUnits="userSpaceOnUse" id="clipPath31">
        <path d="M0 0 L178 0 L178 104 L0 104 L0 0 Z" />
      </clipPath>
      <clipPath clipPathUnits="userSpaceOnUse" id="clipPath32">
        <path d="M0 0 L129 0 L129 104 L0 104 L0 0 Z" />
      </clipPath>
      <clipPath clipPathUnits="userSpaceOnUse" id="clipPath33">
        <path d="M0 0 L124 0 L124 143 L0 143 L0 0 Z" />
      </clipPath>
      <clipPath clipPathUnits="userSpaceOnUse" id="clipPath34">
        <path d="M0 0 L168 0 L168 104 L0 104 L0 0 Z" />
      </clipPath>
      <clipPath clipPathUnits="userSpaceOnUse" id="clipPath35">
        <path d="M0 0 L699 0 L699 220 L0 220 L0 0 Z" />
      </clipPath>
      <clipPath clipPathUnits="userSpaceOnUse" id="clipPath36">
        <path d="M0 0 L540 0 L540 190 L0 190 L0 0 Z" />
      </clipPath>
      <clipPath clipPathUnits="userSpaceOnUse" id="clipPath37">
        <path d="M0 0 L194 0 L194 123 L0 123 L0 0 Z" />
      </clipPath>
      <clipPath clipPathUnits="userSpaceOnUse" id="clipPath38">
        <path d="M0 0 L148 0 L148 104 L0 104 L0 0 Z" />
      </clipPath>
      <clipPath clipPathUnits="userSpaceOnUse" id="clipPath39">
        <path d="M0 0 L234 0 L234 142 L0 142 L0 0 Z" />
      </clipPath>
      <clipPath clipPathUnits="userSpaceOnUse" id="clipPath40">
        <path d="M0 0 L126 0 L126 104 L0 104 L0 0 Z" />
      </clipPath>
      <clipPath clipPathUnits="userSpaceOnUse" id="clipPath41">
        <path d="M0 0 L145 0 L145 137 L0 137 L0 0 Z" />
      </clipPath>
      <clipPath clipPathUnits="userSpaceOnUse" id="clipPath42">
        <path d="M0 0 L237 0 L237 152 L0 152 L0 0 Z" />
      </clipPath>
      <clipPath clipPathUnits="userSpaceOnUse" id="clipPath43">
        <path d="M0 0 L174 0 L174 142 L0 142 L0 0 Z" />
      </clipPath>
      <clipPath clipPathUnits="userSpaceOnUse" id="clipPath44">
        <path d="M0 0 L818 0 L818 215 L0 215 L0 0 Z" />
      </clipPath>
      <clipPath clipPathUnits="userSpaceOnUse" id="clipPath45">
        <path d="M0 0 L877 0 L877 304 L0 304 L0 0 Z" />
      </clipPath>
      <clipPath clipPathUnits="userSpaceOnUse" id="clipPath46">
        <path d="M0 0 L90 0 L90 18 L0 18 L0 0 Z" />
      </clipPath>
      <clipPath clipPathUnits="userSpaceOnUse" id="clipPath47">
        <path d="M0 0 L48 0 L48 18 L0 18 L0 0 Z" />
      </clipPath>
      <clipPath clipPathUnits="userSpaceOnUse" id="clipPath48">
        <path d="M0 0 L62 0 L62 18 L0 18 L0 0 Z" />
      </clipPath>
    </defs>
    <g style="fill:white; text-rendering:geometricPrecision; stroke:white;">
      <rect x="0" y="0" width="876" style="stroke:none;" height="534" />
    </g>
    <g transform="translate(2,0)" style="text-rendering:geometricPrecision; stroke-width:2; font-size:14; font-family:&apos;標楷體&apos;;">
      <rect x="0" y="0" width="118" style="clip-path:url(#clipPath3); fill:none;" height="18" />
    </g>
    <g style="text-rendering:geometricPrecision; font-size:14; font-family:&apos;標楷體&apos;;" transform="translate(2,0)">
      <text x="45" y="16" style="clip-path:url(#clipPath4); stroke:none;" xml:space="preserve">會員</text>
    </g>
    <g transform="translate(2,18)" style="text-rendering:geometricPrecision; stroke-width:2; font-size:11; font-family:sans-serif;">
      <rect x="0" y="0" width="118" style="clip-path:url(#clipPath5); fill:none;" height="512" />
    </g>
    <g transform="translate(120,0)" style="text-rendering:geometricPrecision; stroke-width:2; font-size:14; font-family:&apos;標楷體&apos;;">
      <rect x="0" y="0" width="230" style="clip-path:url(#clipPath6); fill:none;" height="18" />
    </g>
    <g style="text-rendering:geometricPrecision; font-size:14; font-family:&apos;標楷體&apos;;" transform="translate(120,0)">
      <text x="87" y="16" style="clip-path:url(#clipPath7); stroke:none;" xml:space="preserve">寵物資訊</text>
    </g>
    <g transform="translate(120,18)" style="text-rendering:geometricPrecision; stroke-width:2; font-size:11; font-family:sans-serif;">
      <rect x="0" y="0" width="230" style="clip-path:url(#clipPath8); fill:none;" height="512" />
    </g>
    <g transform="translate(350,0)" style="text-rendering:geometricPrecision; stroke-width:2; font-size:14; font-family:&apos;標楷體&apos;;">
      <rect x="0" y="0" width="522" style="clip-path:url(#clipPath9); fill:none;" height="18" />
    </g>
    <g style="text-rendering:geometricPrecision; font-size:14; font-family:&apos;標楷體&apos;;" transform="translate(350,0)">
      <text x="240" y="16" style="clip-path:url(#clipPath10); stroke:none;" xml:space="preserve">資料庫</text>
    </g>
    <g transform="translate(350,18)" style="text-rendering:geometricPrecision; stroke-width:2; font-size:11; font-family:sans-serif;">
      <rect x="0" y="0" width="522" style="clip-path:url(#clipPath11); fill:none;" height="512" />
    </g>
    <g style="text-rendering:geometricPrecision; font-size:11; font-family:sans-serif;" transform="translate(42,80)">
      <circle style="clip-path:url(#clipPath12); stroke:none;" r="10" cx="20" cy="10" />
    </g>
    <g transform="translate(22,120)" style="font-size:14; fill:rgb(122,207,245); text-rendering:geometricPrecision; font-family:&apos;標楷體&apos;; stroke:rgb(122,207,245);">
      <rect x="1" y="1" width="78" style="clip-path:url(#clipPath13); stroke:none;" rx="15" ry="15" height="48" />
    </g>
    <g transform="translate(22,120)" style="font-size:14; stroke-linecap:butt; text-rendering:geometricPrecision; font-family:&apos;標楷體&apos;; stroke-linejoin:round; stroke-miterlimit:0;">
      <rect x="1" y="1" width="78" style="clip-path:url(#clipPath13); fill:none;" rx="15" ry="15" height="48" />
    </g>
    <g style="text-rendering:geometricPrecision; font-size:14; font-family:&apos;標楷體&apos;;" transform="translate(22,120)">
      <text x="12" y="32" style="clip-path:url(#clipPath14); stroke:none;" xml:space="preserve">登入會員</text>
    </g>
    <g transform="translate(52,190)" style="font-size:11; fill:rgb(122,207,245); text-rendering:geometricPrecision; font-family:sans-serif; stroke:rgb(122,207,245);">
      <polygon style="clip-path:url(#clipPath15); stroke:none;" points=" 10 7 17 20 10 32 3 20" />
    </g>
    <g transform="translate(52,190)" style="font-size:11; stroke-linecap:butt; text-rendering:geometricPrecision; font-family:sans-serif; stroke-linejoin:round; stroke-miterlimit:0;">
      <polygon style="fill:none; clip-path:url(#clipPath15);" points=" 10 7 17 20 10 32 3 20" />
    </g>
    <g transform="translate(142,190)" style="font-size:14; fill:rgb(122,207,245); text-rendering:geometricPrecision; font-family:&apos;標楷體&apos;; stroke:rgb(122,207,245);">
      <rect x="1" y="1" width="68" style="clip-path:url(#clipPath16); stroke:none;" rx="15" ry="15" height="48" />
    </g>
    <g transform="translate(142,190)" style="font-size:14; stroke-linecap:butt; text-rendering:geometricPrecision; font-family:&apos;標楷體&apos;; stroke-linejoin:round; stroke-miterlimit:0;">
      <rect x="1" y="1" width="68" style="clip-path:url(#clipPath16); fill:none;" rx="15" ry="15" height="48" />
    </g>
    <g style="text-rendering:geometricPrecision; font-size:14; font-family:&apos;標楷體&apos;;" transform="translate(142,190)">
      <text x="7" y="32" style="clip-path:url(#clipPath17); stroke:none;" xml:space="preserve">寵物資訊</text>
    </g>
    <g transform="translate(232,180)" style="font-size:11; fill:rgb(122,207,245); text-rendering:geometricPrecision; font-family:sans-serif; stroke:rgb(122,207,245);">
      <polygon style="clip-path:url(#clipPath15); stroke:none;" points=" 10 7 17 20 10 32 3 20" />
    </g>
    <g transform="translate(232,180)" style="font-size:11; stroke-linecap:butt; text-rendering:geometricPrecision; font-family:sans-serif; stroke-linejoin:round; stroke-miterlimit:0;">
      <polygon style="fill:none; clip-path:url(#clipPath15);" points=" 10 7 17 20 10 32 3 20" />
    </g>
    <g transform="translate(732,210)" style="font-size:14; fill:rgb(122,207,245); text-rendering:geometricPrecision; font-family:&apos;標楷體&apos;; stroke:rgb(122,207,245);">
      <rect x="1" y="1" width="98" style="clip-path:url(#clipPath18); stroke:none;" rx="15" ry="15" height="48" />
    </g>
    <g transform="translate(732,210)" style="font-size:14; stroke-linecap:butt; text-rendering:geometricPrecision; font-family:&apos;標楷體&apos;; stroke-linejoin:round; stroke-miterlimit:0;">
      <rect x="1" y="1" width="98" style="clip-path:url(#clipPath18); fill:none;" rx="15" ry="15" height="48" />
    </g>
    <g style="text-rendering:geometricPrecision; font-size:14; font-family:&apos;標楷體&apos;;" transform="translate(732,210)">
      <text x="22" y="32" style="clip-path:url(#clipPath19); stroke:none;" xml:space="preserve">系統儲存</text>
    </g>
    <g transform="translate(52,350)" style="font-size:11; fill:rgb(122,207,245); text-rendering:geometricPrecision; font-family:sans-serif; stroke:rgb(122,207,245);">
      <polygon style="clip-path:url(#clipPath15); stroke:none;" points=" 10 7 17 20 10 32 3 20" />
    </g>
    <g transform="translate(52,350)" style="font-size:11; stroke-linecap:butt; text-rendering:geometricPrecision; font-family:sans-serif; stroke-linejoin:round; stroke-miterlimit:0;">
      <polygon style="fill:none; clip-path:url(#clipPath15);" points=" 10 7 17 20 10 32 3 20" />
    </g>
    <g style="text-rendering:geometricPrecision; font-size:11; font-family:sans-serif;" transform="translate(52,480)">
      <circle style="clip-path:url(#clipPath20); stroke:none;" r="6.6667" cx="10" cy="10" />
      <circle style="stroke-linecap:butt; clip-path:url(#clipPath20); fill:none; stroke-linejoin:round; stroke-miterlimit:0;" r="10" cx="10" cy="10" />
    </g>
    <g transform="translate(372,130)" style="font-size:14; fill:rgb(122,207,245); text-rendering:geometricPrecision; font-family:&apos;標楷體&apos;; stroke:rgb(122,207,245);">
      <rect x="1" y="1" width="98" style="clip-path:url(#clipPath18); stroke:none;" rx="15" ry="15" height="48" />
    </g>
    <g transform="translate(372,130)" style="font-size:14; stroke-linecap:butt; text-rendering:geometricPrecision; font-family:&apos;標楷體&apos;; stroke-linejoin:round; stroke-miterlimit:0;">
      <rect x="1" y="1" width="98" style="clip-path:url(#clipPath18); fill:none;" rx="15" ry="15" height="48" />
    </g>
    <g style="text-rendering:geometricPrecision; font-size:14; font-family:&apos;標楷體&apos;;" transform="translate(372,130)">
      <text x="8" y="32" style="clip-path:url(#clipPath19); stroke:none;" xml:space="preserve">新增寵物資訊</text>
    </g>
    <g transform="translate(262,230)" style="font-size:14; fill:rgb(122,207,245); text-rendering:geometricPrecision; font-family:&apos;標楷體&apos;; stroke:rgb(122,207,245);">
      <rect x="1" y="1" width="78" style="clip-path:url(#clipPath13); stroke:none;" rx="15" ry="15" height="48" />
    </g>
    <g transform="translate(262,230)" style="font-size:14; stroke-linecap:butt; text-rendering:geometricPrecision; font-family:&apos;標楷體&apos;; stroke-linejoin:round; stroke-miterlimit:0;">
      <rect x="1" y="1" width="78" style="clip-path:url(#clipPath13); fill:none;" rx="15" ry="15" height="48" />
    </g>
    <g style="text-rendering:geometricPrecision; font-size:14; font-family:&apos;標楷體&apos;;" transform="translate(262,230)">
      <text x="12" y="32" style="clip-path:url(#clipPath14); stroke:none;" xml:space="preserve">選擇寵物</text>
    </g>
    <g transform="translate(492,130)" style="font-size:11; fill:rgb(122,207,245); text-rendering:geometricPrecision; font-family:sans-serif; stroke:rgb(122,207,245);">
      <polygon style="clip-path:url(#clipPath15); stroke:none;" points=" 10 7 17 20 10 32 3 20" />
    </g>
    <g transform="translate(492,130)" style="font-size:11; stroke-linecap:butt; text-rendering:geometricPrecision; font-family:sans-serif; stroke-linejoin:round; stroke-miterlimit:0;">
      <polygon style="fill:none; clip-path:url(#clipPath15);" points=" 10 7 17 20 10 32 3 20" />
    </g>
    <g transform="translate(402,230)" style="font-size:11; fill:rgb(122,207,245); text-rendering:geometricPrecision; font-family:sans-serif; stroke:rgb(122,207,245);">
      <polygon style="clip-path:url(#clipPath15); stroke:none;" points=" 10 7 17 20 10 32 3 20" />
    </g>
    <g transform="translate(402,230)" style="font-size:11; stroke-linecap:butt; text-rendering:geometricPrecision; font-family:sans-serif; stroke-linejoin:round; stroke-miterlimit:0;">
      <polygon style="fill:none; clip-path:url(#clipPath15);" points=" 10 7 17 20 10 32 3 20" />
    </g>
    <g transform="translate(542,170)" style="font-size:11; fill:rgb(122,207,245); text-rendering:geometricPrecision; font-family:sans-serif; stroke:rgb(122,207,245);">
      <polygon style="clip-path:url(#clipPath15); stroke:none;" points=" 10 7 17 20 10 32 3 20" />
    </g>
    <g transform="translate(542,170)" style="font-size:11; stroke-linecap:butt; text-rendering:geometricPrecision; font-family:sans-serif; stroke-linejoin:round; stroke-miterlimit:0;">
      <polygon style="fill:none; clip-path:url(#clipPath15);" points=" 10 7 17 20 10 32 3 20" />
    </g>
    <g transform="translate(502,260)" style="font-size:14; fill:rgb(122,207,245); text-rendering:geometricPrecision; font-family:&apos;標楷體&apos;; stroke:rgb(122,207,245);">
      <rect x="1" y="1" width="108" style="clip-path:url(#clipPath21); stroke:none;" rx="15" ry="15" height="48" />
    </g>
    <g transform="translate(502,260)" style="font-size:14; stroke-linecap:butt; text-rendering:geometricPrecision; font-family:&apos;標楷體&apos;; stroke-linejoin:round; stroke-miterlimit:0;">
      <rect x="1" y="1" width="108" style="clip-path:url(#clipPath21); fill:none;" rx="15" ry="15" height="48" />
    </g>
    <g style="text-rendering:geometricPrecision; font-size:14; font-family:&apos;標楷體&apos;;" transform="translate(502,260)">
      <text x="13" y="32" style="clip-path:url(#clipPath22); stroke:none;" xml:space="preserve">編輯寵物資訊</text>
    </g>
    <g transform="translate(652,260)" style="font-size:11; fill:rgb(122,207,245); text-rendering:geometricPrecision; font-family:sans-serif; stroke:rgb(122,207,245);">
      <polygon style="clip-path:url(#clipPath15); stroke:none;" points=" 10 7 17 20 10 32 3 20" />
    </g>
    <g transform="translate(652,260)" style="font-size:11; stroke-linecap:butt; text-rendering:geometricPrecision; font-family:sans-serif; stroke-linejoin:round; stroke-miterlimit:0;">
      <polygon style="fill:none; clip-path:url(#clipPath15);" points=" 10 7 17 20 10 32 3 20" />
    </g>
    <g transform="translate(22,410)" style="font-size:14; fill:rgb(122,207,245); text-rendering:geometricPrecision; font-family:&apos;標楷體&apos;; stroke:rgb(122,207,245);">
      <rect x="1" y="1" width="78" style="clip-path:url(#clipPath23); stroke:none;" rx="15" ry="15" height="38" />
    </g>
    <g transform="translate(22,410)" style="font-size:14; stroke-linecap:butt; text-rendering:geometricPrecision; font-family:&apos;標楷體&apos;; stroke-linejoin:round; stroke-miterlimit:0;">
      <rect x="1" y="1" width="78" style="clip-path:url(#clipPath23); fill:none;" rx="15" ry="15" height="38" />
    </g>
    <g style="text-rendering:geometricPrecision; font-size:14; font-family:&apos;標楷體&apos;;" transform="translate(22,410)">
      <text x="12" y="27" style="clip-path:url(#clipPath24); stroke:none;" xml:space="preserve">顯示結果</text>
    </g>
    <g transform="translate(12,49)" style="font-size:11; stroke-linecap:butt; text-rendering:geometricPrecision; font-family:sans-serif; stroke-linejoin:round;">
      <line x1="50" x2="50" y1="50" style="clip-path:url(#clipPath28); fill:none;" y2="71" />
      <line x1="50" x2="56" y1="71" style="clip-path:url(#clipPath28); fill:none;" y2="59" />
      <line x1="50" x2="44" y1="71" style="clip-path:url(#clipPath28); fill:none;" y2="59" />
    </g>
    <g transform="translate(12,331)" style="font-size:11; stroke-linecap:butt; text-rendering:geometricPrecision; font-family:sans-serif; stroke-linejoin:round;">
      <line x1="50" x2="50" y1="50" style="clip-path:url(#clipPath29); fill:none;" y2="79" />
      <line x1="50" x2="56" y1="79" style="clip-path:url(#clipPath29); fill:none;" y2="67" />
      <line x1="50" x2="44" y1="79" style="clip-path:url(#clipPath29); fill:none;" y2="67" />
    </g>
    <g transform="translate(12,399)" style="font-size:11; stroke-linecap:butt; text-rendering:geometricPrecision; font-family:sans-serif; stroke-linejoin:round;">
      <line x1="50" x2="50" y1="50" style="clip-path:url(#clipPath30); fill:none;" y2="82" />
      <line x1="50" x2="56" y1="82" style="clip-path:url(#clipPath30); fill:none;" y2="70" />
      <line x1="50" x2="44" y1="82" style="clip-path:url(#clipPath30); fill:none;" y2="70" />
    </g>
    <g transform="translate(12,119)" style="font-size:11; stroke-linecap:butt; text-rendering:geometricPrecision; font-family:sans-serif; stroke-linejoin:round;">
      <line x1="50" x2="50" y1="50" style="clip-path:url(#clipPath29); fill:none;" y2="79" />
      <line x1="50" x2="56" y1="79" style="clip-path:url(#clipPath29); fill:none;" y2="67" />
      <line x1="50" x2="44" y1="79" style="clip-path:url(#clipPath29); fill:none;" y2="67" />
    </g>
    <g transform="translate(18,160)" style="font-size:11; stroke-linecap:butt; text-rendering:geometricPrecision; font-family:sans-serif; stroke-linejoin:round;">
      <line x1="50" x2="124" y1="50" style="clip-path:url(#clipPath31); fill:none;" y2="50" />
      <line x1="124" x2="112" y1="50" style="clip-path:url(#clipPath31); fill:none;" y2="44" />
      <line x1="124" x2="112" y1="50" style="clip-path:url(#clipPath31); fill:none;" y2="56" />
    </g>
    <g transform="translate(160,150)" style="font-size:11; stroke-linecap:butt; text-rendering:geometricPrecision; font-family:sans-serif; stroke-linejoin:round;">
      <line x1="50" x2="75" y1="50" style="clip-path:url(#clipPath32); fill:none;" y2="50" />
      <line x1="75" x2="63" y1="50" style="clip-path:url(#clipPath32); fill:none;" y2="44" />
      <line x1="75" x2="63" y1="50" style="clip-path:url(#clipPath32); fill:none;" y2="56" />
    </g>
    <g transform="translate(192,161)" style="font-size:14; stroke-linecap:butt; text-rendering:geometricPrecision; font-family:&apos;標楷體&apos;; stroke-linejoin:round;">
      <line x1="50" x2="50" y1="50" style="clip-path:url(#clipPath33); fill:none;" y2="89" />
      <line x1="50" x2="70" y1="89" style="clip-path:url(#clipPath33); fill:none;" y2="89" />
      <line x1="70" x2="58" y1="89" style="clip-path:url(#clipPath33); fill:none;" y2="83" />
      <line x1="70" x2="58" y1="89" style="clip-path:url(#clipPath33); fill:none;" y2="95" />
    </g>
    <g transform="translate(291,200)" style="font-size:11; stroke-linecap:butt; text-rendering:geometricPrecision; font-family:sans-serif; stroke-linejoin:round;">
      <line x1="50" x2="114" y1="50" style="clip-path:url(#clipPath34); fill:none;" y2="50" />
      <line x1="114" x2="102" y1="50" style="clip-path:url(#clipPath34); fill:none;" y2="44" />
      <line x1="114" x2="102" y1="50" style="clip-path:url(#clipPath34); fill:none;" y2="56" />
    </g>
    <g transform="translate(17,164)" style="font-size:14; stroke-linecap:butt; text-rendering:geometricPrecision; font-family:&apos;標楷體&apos;; stroke-linejoin:round;">
      <line x1="645" x2="645" y1="127" style="clip-path:url(#clipPath35); fill:none;" y2="166" />
      <line x1="645" x2="205" y1="166" style="clip-path:url(#clipPath35); fill:none;" y2="166" />
      <line x1="205" x2="50" y1="166" style="clip-path:url(#clipPath35); fill:none;" y2="50" />
      <line x1="50" x2="55" y1="50" style="clip-path:url(#clipPath35); fill:none;" y2="61" />
      <line x1="50" x2="62" y1="50" style="clip-path:url(#clipPath35); fill:none;" y2="51" />
    </g>
    <g transform="translate(16,70)" style="font-size:14; stroke-linecap:butt; text-rendering:geometricPrecision; font-family:&apos;標楷體&apos;; stroke-linejoin:round;">
      <line x1="485" x2="486" y1="69" style="clip-path:url(#clipPath36); fill:none;" y2="50" />
      <line x1="486" x2="136" y1="50" style="clip-path:url(#clipPath36); fill:none;" y2="50" />
      <line x1="136" x2="50" y1="50" style="clip-path:url(#clipPath36); fill:none;" y2="136" />
      <line x1="50" x2="62" y1="136" style="clip-path:url(#clipPath36); fill:none;" y2="132" />
      <line x1="50" x2="53" y1="136" style="clip-path:url(#clipPath36); fill:none;" y2="123" />
    </g>
    <g transform="translate(362,211)" style="font-size:14; stroke-linecap:butt; text-rendering:geometricPrecision; font-family:&apos;標楷體&apos;; stroke-linejoin:round;">
      <line x1="50" x2="50" y1="50" style="clip-path:url(#clipPath37); fill:none;" y2="69" />
      <line x1="50" x2="140" y1="69" style="clip-path:url(#clipPath37); fill:none;" y2="69" />
      <line x1="140" x2="128" y1="69" style="clip-path:url(#clipPath37); fill:none;" y2="63" />
      <line x1="140" x2="128" y1="69" style="clip-path:url(#clipPath37); fill:none;" y2="75" />
    </g>
    <g transform="translate(561,230)" style="font-size:11; stroke-linecap:butt; text-rendering:geometricPrecision; font-family:sans-serif; stroke-linejoin:round;">
      <line x1="50" x2="94" y1="50" style="clip-path:url(#clipPath38); fill:none;" y2="50" />
      <line x1="94" x2="82" y1="50" style="clip-path:url(#clipPath38); fill:none;" y2="44" />
      <line x1="94" x2="82" y1="50" style="clip-path:url(#clipPath38); fill:none;" y2="56" />
    </g>
    <g transform="translate(192,100)" style="font-size:14; stroke-linecap:butt; text-rendering:geometricPrecision; font-family:&apos;標楷體&apos;; stroke-linejoin:round;">
      <line x1="50" x2="50" y1="88" style="clip-path:url(#clipPath39); fill:none;" y2="50" />
      <line x1="50" x2="180" y1="50" style="clip-path:url(#clipPath39); fill:none;" y2="50" />
      <line x1="180" x2="168" y1="50" style="clip-path:url(#clipPath39); fill:none;" y2="44" />
      <line x1="180" x2="168" y1="50" style="clip-path:url(#clipPath39); fill:none;" y2="56" />
    </g>
    <g transform="translate(421,100)" style="font-size:11; stroke-linecap:butt; text-rendering:geometricPrecision; font-family:sans-serif; stroke-linejoin:round;">
      <line x1="50" x2="72" y1="50" style="clip-path:url(#clipPath40); fill:none;" y2="50" />
      <line x1="72" x2="60" y1="50" style="clip-path:url(#clipPath40); fill:none;" y2="44" />
      <line x1="72" x2="60" y1="50" style="clip-path:url(#clipPath40); fill:none;" y2="56" />
    </g>
    <g transform="translate(455,104)" style="font-size:14; stroke-linecap:butt; text-rendering:geometricPrecision; font-family:&apos;標楷體&apos;; stroke-linejoin:round;">
      <line x1="50" x2="91" y1="50" style="clip-path:url(#clipPath41); fill:none;" y2="83" />
      <line x1="91" x2="85" y1="83" style="clip-path:url(#clipPath41); fill:none;" y2="70" />
      <line x1="91" x2="78" y1="83" style="clip-path:url(#clipPath41); fill:none;" y2="80" />
    </g>
    <g transform="translate(362,140)" style="font-size:14; stroke-linecap:butt; text-rendering:geometricPrecision; font-family:&apos;標楷體&apos;; stroke-linejoin:round;">
      <line x1="50" x2="50" y1="98" style="clip-path:url(#clipPath42); fill:none;" y2="50" />
      <line x1="50" x2="183" y1="50" style="clip-path:url(#clipPath42); fill:none;" y2="50" />
      <line x1="183" x2="171" y1="50" style="clip-path:url(#clipPath42); fill:none;" y2="44" />
      <line x1="183" x2="171" y1="50" style="clip-path:url(#clipPath42); fill:none;" y2="56" />
    </g>
    <g transform="translate(612,180)" style="font-size:14; stroke-linecap:butt; text-rendering:geometricPrecision; font-family:&apos;標楷體&apos;; stroke-linejoin:round;">
      <line x1="50" x2="50" y1="88" style="clip-path:url(#clipPath43); fill:none;" y2="50" />
      <line x1="50" x2="120" y1="50" style="clip-path:url(#clipPath43); fill:none;" y2="50" />
      <line x1="120" x2="108" y1="50" style="clip-path:url(#clipPath43); fill:none;" y2="44" />
      <line x1="120" x2="108" y1="50" style="clip-path:url(#clipPath43); fill:none;" y2="56" />
    </g>
    <g transform="translate(18,209)" style="font-size:11; stroke-linecap:butt; text-rendering:geometricPrecision; font-family:sans-serif; stroke-linejoin:round;">
      <line x1="764" x2="764" y1="50" style="clip-path:url(#clipPath44); fill:none;" y2="161" />
      <line x1="764" x2="50" y1="161" style="clip-path:url(#clipPath44); fill:none;" y2="161" />
      <line x1="50" x2="62" y1="161" style="clip-path:url(#clipPath44); fill:none;" y2="167" />
      <line x1="50" x2="62" y1="161" style="clip-path:url(#clipPath44); fill:none;" y2="155" />
    </g>
    <g transform="translate(19,140)" style="font-size:11; stroke-linecap:butt; text-rendering:geometricPrecision; font-family:sans-serif; stroke-linejoin:round;">
      <line x1="539" x2="823" y1="50" style="clip-path:url(#clipPath45); fill:none;" y2="50" />
      <line x1="823" x2="823" y1="50" style="clip-path:url(#clipPath45); fill:none;" y2="250" />
      <line x1="823" x2="143" y1="250" style="clip-path:url(#clipPath45); fill:none;" y2="250" />
      <line x1="143" x2="50" y1="250" style="clip-path:url(#clipPath45); fill:none;" y2="231" />
      <line x1="50" x2="59" y1="231" style="clip-path:url(#clipPath45); fill:none;" y2="239" />
      <line x1="50" x2="62" y1="231" style="clip-path:url(#clipPath45); fill:none;" y2="227" />
    </g>
    <g style="text-rendering:geometricPrecision; font-size:14; font-family:&apos;標楷體&apos;;" transform="translate(657,200)">
      <text x="10" y="16" style="clip-path:url(#clipPath46); stroke:none;" xml:space="preserve">[編輯成功]</text>
    </g>
    <g style="text-rendering:geometricPrecision; font-size:14; font-family:&apos;標楷體&apos;;" transform="translate(416,193)">
      <text x="10" y="16" style="clip-path:url(#clipPath47); stroke:none;" xml:space="preserve">查詢</text>
    </g>
    <g style="text-rendering:geometricPrecision; font-size:14; font-family:&apos;標楷體&apos;;" transform="translate(512,150)">
      <text x="10" y="16" style="clip-path:url(#clipPath46); stroke:none;" xml:space="preserve">[新增成功]</text>
    </g>
    <g style="text-rendering:geometricPrecision; font-size:14; font-family:&apos;標楷體&apos;;" transform="translate(260,129)">
      <text x="10" y="16" style="clip-path:url(#clipPath48); stroke:none;" xml:space="preserve">新寵物</text>
    </g>
    <g style="text-rendering:geometricPrecision; font-size:14; font-family:&apos;標楷體&apos;;" transform="translate(412,280)">
      <text x="10" y="16" style="clip-path:url(#clipPath47); stroke:none;" xml:space="preserve">編輯</text>
    </g>
    <g style="text-rendering:geometricPrecision; font-size:14; font-family:&apos;標楷體&apos;;" transform="translate(414,89)">
      <text x="10" y="16" style="clip-path:url(#clipPath46); stroke:none;" xml:space="preserve">[新增失敗]</text>
    </g>
    <g style="text-rendering:geometricPrecision; font-size:14; font-family:&apos;標楷體&apos;;" transform="translate(662,300)">
      <text x="10" y="16" style="clip-path:url(#clipPath46); stroke:none;" xml:space="preserve">[編輯失敗]</text>
    </g>
    <g style="text-rendering:geometricPrecision; font-size:14; font-family:&apos;標楷體&apos;;" transform="translate(202,260)">
      <text x="10" y="16" style="clip-path:url(#clipPath48); stroke:none;" xml:space="preserve">舊寵物</text>
    </g>
    <g style="fill:rgb(120,120,120); text-rendering:geometricPrecision; font-size:10; stroke:rgb(120,120,120);">
      <text xml:space="preserve" x="0" y="10" style="stroke:none;">Visual Paradigm for UML Personal Edition [not for commercial use] </text>
      <text xml:space="preserve" x="0" y="10" style="stroke:none;">Visual Paradigm for UML Personal Edition [not for commercial use] </text>
    </g>
  </g>
</svg>
