<?xml version="1.0" encoding="UTF-8"?>

<!DOCTYPE svg PUBLIC '-//W3C//DTD SVG 1.0//EN' 'http://www.w3.org/TR/2001/REC-SVG-20010904/DTD/svg10.dtd'>
<svg style="fill-opacity:1; color-rendering:auto; color-interpolation:auto; stroke:black; text-rendering:auto; stroke-linecap:square; stroke-miterlimit:10; stroke-opacity:1; shape-rendering:auto; fill:black; stroke-dasharray:none; font-weight:normal; stroke-width:1; font-family:&apos;Dialog&apos;; font-style:normal; stroke-linejoin:miter; font-size:12; stroke-dashoffset:0; image-rendering:auto;" xmlns="http://www.w3.org/2000/svg" width="666" xmlns:xlink="http://www.w3.org/1999/xlink" height="406">
  <!--Generated by the Batik Graphics2D SVG Generator-->
  <defs id="genericDefs" />
  <g>
    <defs id="defs1">
      <clipPath clipPathUnits="userSpaceOnUse" id="clipPath1">
        <path d="M-3 -3 L667 -3 L667 407 L-3 407 L-3 -3 Z" />
      </clipPath>
      <clipPath clipPathUnits="userSpaceOnUse" id="clipPath2">
        <path d="M0 0 L0 389 L7 389 L7 0 Z" />
      </clipPath>
      <clipPath clipPathUnits="userSpaceOnUse" id="clipPath3">
        <path d="M-3 -3 L167 -3 L167 25 L-3 25 L-3 -3 Z" />
      </clipPath>
      <clipPath clipPathUnits="userSpaceOnUse" id="clipPath4">
        <path d="M0 0 L160 0 L160 18 L0 18 L0 0 Z" />
      </clipPath>
      <clipPath clipPathUnits="userSpaceOnUse" id="clipPath5">
        <path d="M-3 -3 L167 -3 L167 389 L-3 389 L-3 -3 Z" />
      </clipPath>
      <clipPath clipPathUnits="userSpaceOnUse" id="clipPath6">
        <path d="M-3 -3 L317 -3 L317 25 L-3 25 L-3 -3 Z" />
      </clipPath>
      <clipPath clipPathUnits="userSpaceOnUse" id="clipPath7">
        <path d="M0 0 L310 0 L310 18 L0 18 L0 0 Z" />
      </clipPath>
      <clipPath clipPathUnits="userSpaceOnUse" id="clipPath8">
        <path d="M-3 -3 L317 -3 L317 389 L-3 389 L-3 -3 Z" />
      </clipPath>
      <clipPath clipPathUnits="userSpaceOnUse" id="clipPath9">
        <path d="M-3 -3 L197 -3 L197 25 L-3 25 L-3 -3 Z" />
      </clipPath>
      <clipPath clipPathUnits="userSpaceOnUse" id="clipPath10">
        <path d="M0 0 L190 0 L190 18 L0 18 L0 0 Z" />
      </clipPath>
      <clipPath clipPathUnits="userSpaceOnUse" id="clipPath11">
        <path d="M-3 -3 L197 -3 L197 389 L-3 389 L-3 -3 Z" />
      </clipPath>
      <clipPath clipPathUnits="userSpaceOnUse" id="clipPath12">
        <path d="M-3 -3 L47 -3 L47 27 L-3 27 L-3 -3 Z" />
      </clipPath>
      <clipPath clipPathUnits="userSpaceOnUse" id="clipPath13">
        <path d="M-3 -3 L87 -3 L87 47 L-3 47 L-3 -3 Z" />
      </clipPath>
      <clipPath clipPathUnits="userSpaceOnUse" id="clipPath14">
        <path d="M0 0 L80 0 L80 40 L0 40 L0 0 Z" />
      </clipPath>
      <clipPath clipPathUnits="userSpaceOnUse" id="clipPath15">
        <path d="M-3 -3 L27 -3 L27 47 L-3 47 L-3 -3 Z" />
      </clipPath>
      <clipPath clipPathUnits="userSpaceOnUse" id="clipPath16">
        <path d="M-3 -3 L87 -3 L87 57 L-3 57 L-3 -3 Z" />
      </clipPath>
      <clipPath clipPathUnits="userSpaceOnUse" id="clipPath17">
        <path d="M0 0 L80 0 L80 50 L0 50 L0 0 Z" />
      </clipPath>
      <clipPath clipPathUnits="userSpaceOnUse" id="clipPath18">
        <path d="M-3 -3 L117 -3 L117 67 L-3 67 L-3 -3 Z" />
      </clipPath>
      <clipPath clipPathUnits="userSpaceOnUse" id="clipPath19">
        <path d="M0 0 L110 0 L110 60 L0 60 L0 0 Z" />
      </clipPath>
      <clipPath clipPathUnits="userSpaceOnUse" id="clipPath20">
        <path d="M-3 -3 L97 -3 L97 57 L-3 57 L-3 -3 Z" />
      </clipPath>
      <clipPath clipPathUnits="userSpaceOnUse" id="clipPath21">
        <path d="M0 0 L90 0 L90 50 L0 50 L0 0 Z" />
      </clipPath>
      <clipPath clipPathUnits="userSpaceOnUse" id="clipPath22">
        <path d="M-3 -3 L137 -3 L137 57 L-3 57 L-3 -3 Z" />
      </clipPath>
      <clipPath clipPathUnits="userSpaceOnUse" id="clipPath23">
        <path d="M0 0 L130 0 L130 50 L0 50 L0 0 Z" />
      </clipPath>
      <clipPath clipPathUnits="userSpaceOnUse" id="clipPath24">
        <path d="M-3 -3 L27 -3 L27 27 L-3 27 L-3 -3 Z" />
      </clipPath>
      <clipPath clipPathUnits="userSpaceOnUse" id="clipPath25">
        <path d="M0 0 L190 0 L190 382 L0 382 L0 0 Z" />
      </clipPath>
      <clipPath clipPathUnits="userSpaceOnUse" id="clipPath26">
        <path d="M0 0 L310 0 L310 382 L0 382 L0 0 Z" />
      </clipPath>
      <clipPath clipPathUnits="userSpaceOnUse" id="clipPath27">
        <path d="M0 0 L160 0 L160 382 L0 382 L0 0 Z" />
      </clipPath>
      <clipPath clipPathUnits="userSpaceOnUse" id="clipPath28">
        <path d="M0 0 L104 0 L104 123 L0 123 L0 0 Z" />
      </clipPath>
      <clipPath clipPathUnits="userSpaceOnUse" id="clipPath29">
        <path d="M0 0 L104 0 L104 135 L0 135 L0 0 Z" />
      </clipPath>
      <clipPath clipPathUnits="userSpaceOnUse" id="clipPath30">
        <path d="M0 0 L104 0 L104 136 L0 136 L0 0 Z" />
      </clipPath>
      <clipPath clipPathUnits="userSpaceOnUse" id="clipPath31">
        <path d="M0 0 L124 0 L124 132 L0 132 L0 0 Z" />
      </clipPath>
      <clipPath clipPathUnits="userSpaceOnUse" id="clipPath32">
        <path d="M0 0 L124 0 L124 143 L0 143 L0 0 Z" />
      </clipPath>
      <clipPath clipPathUnits="userSpaceOnUse" id="clipPath33">
        <path d="M0 0 L198 0 L198 104 L0 104 L0 0 Z" />
      </clipPath>
      <clipPath clipPathUnits="userSpaceOnUse" id="clipPath34">
        <path d="M0 0 L128 0 L128 104 L0 104 L0 0 Z" />
      </clipPath>
      <clipPath clipPathUnits="userSpaceOnUse" id="clipPath35">
        <path d="M0 0 L178 0 L178 104 L0 104 L0 0 Z" />
      </clipPath>
      <clipPath clipPathUnits="userSpaceOnUse" id="clipPath36">
        <path d="M0 0 L138 0 L138 143 L0 143 L0 0 Z" />
      </clipPath>
      <clipPath clipPathUnits="userSpaceOnUse" id="clipPath37">
        <path d="M0 0 L519 0 L519 191 L0 191 L0 0 Z" />
      </clipPath>
      <clipPath clipPathUnits="userSpaceOnUse" id="clipPath38">
        <path d="M0 0 L118 0 L118 104 L0 104 L0 0 Z" />
      </clipPath>
      <clipPath clipPathUnits="userSpaceOnUse" id="clipPath39">
        <path d="M0 0 L565 0 L565 195 L0 195 L0 0 Z" />
      </clipPath>
      <clipPath clipPathUnits="userSpaceOnUse" id="clipPath40">
        <path d="M0 0 L138 0 L138 132 L0 132 L0 0 Z" />
      </clipPath>
      <clipPath clipPathUnits="userSpaceOnUse" id="clipPath41">
        <path d="M0 0 L519 0 L519 190 L0 190 L0 0 Z" />
      </clipPath>
      <clipPath clipPathUnits="userSpaceOnUse" id="clipPath42">
        <path d="M0 0 L90 0 L90 18 L0 18 L0 0 Z" />
      </clipPath>
      <clipPath clipPathUnits="userSpaceOnUse" id="clipPath43">
        <path d="M0 0 L118 0 L118 18 L0 18 L0 0 Z" />
      </clipPath>
      <clipPath clipPathUnits="userSpaceOnUse" id="clipPath44">
        <path d="M0 0 L76 0 L76 18 L0 18 L0 0 Z" />
      </clipPath>
    </defs>
    <g style="fill:white; text-rendering:geometricPrecision; stroke:white;">
      <rect x="0" y="0" width="666" style="stroke:none;" height="406" />
    </g>
    <g transform="translate(2,2)" style="text-rendering:geometricPrecision; stroke-width:2; font-size:14; font-family:&apos;標楷體&apos;;">
      <rect x="0" y="0" width="160" style="clip-path:url(#clipPath3); fill:none;" height="18" />
    </g>
    <g style="text-rendering:geometricPrecision; font-size:14; font-family:&apos;標楷體&apos;;" transform="translate(2,2)">
      <text x="66" y="16" style="clip-path:url(#clipPath4); stroke:none;" xml:space="preserve">會員</text>
    </g>
    <g transform="translate(2,20)" style="text-rendering:geometricPrecision; stroke-width:2; font-size:14; font-family:&apos;標楷體&apos;;">
      <rect x="0" y="0" width="160" style="clip-path:url(#clipPath5); fill:none;" height="382" />
    </g>
    <g transform="translate(162,2)" style="text-rendering:geometricPrecision; stroke-width:2; font-size:14; font-family:&apos;標楷體&apos;;">
      <rect x="0" y="0" width="310" style="clip-path:url(#clipPath6); fill:none;" height="18" />
    </g>
    <g style="text-rendering:geometricPrecision; font-size:14; font-family:&apos;標楷體&apos;;" transform="translate(162,2)">
      <text x="127" y="16" style="clip-path:url(#clipPath7); stroke:none;" xml:space="preserve">寵物辨識</text>
    </g>
    <g transform="translate(162,20)" style="text-rendering:geometricPrecision; stroke-width:2; font-size:14; font-family:&apos;標楷體&apos;;">
      <rect x="0" y="0" width="310" style="clip-path:url(#clipPath8); fill:none;" height="382" />
    </g>
    <g transform="translate(472,2)" style="text-rendering:geometricPrecision; stroke-width:2; font-size:14; font-family:&apos;標楷體&apos;;">
      <rect x="0" y="0" width="190" style="clip-path:url(#clipPath9); fill:none;" height="18" />
    </g>
    <g style="text-rendering:geometricPrecision; font-size:14; font-family:&apos;標楷體&apos;;" transform="translate(472,2)">
      <text x="74" y="16" style="clip-path:url(#clipPath10); stroke:none;" xml:space="preserve">資料庫</text>
    </g>
    <g transform="translate(472,20)" style="text-rendering:geometricPrecision; stroke-width:2; font-size:14; font-family:&apos;標楷體&apos;;">
      <rect x="0" y="0" width="190" style="clip-path:url(#clipPath11); fill:none;" height="382" />
    </g>
    <g style="text-rendering:geometricPrecision; font-size:14; font-family:&apos;標楷體&apos;;" transform="translate(62,62)">
      <circle style="clip-path:url(#clipPath12); stroke:none;" r="10" cx="20" cy="10" />
    </g>
    <g transform="translate(42,112)" style="font-size:14; fill:rgb(122,207,245); text-rendering:geometricPrecision; font-family:&apos;標楷體&apos;; stroke:rgb(122,207,245);">
      <rect x="1" y="1" width="78" style="clip-path:url(#clipPath13); stroke:none;" rx="15" ry="15" height="38" />
    </g>
    <g transform="translate(42,112)" style="font-size:14; stroke-linecap:butt; text-rendering:geometricPrecision; font-family:&apos;標楷體&apos;; stroke-linejoin:round; stroke-miterlimit:0;">
      <rect x="1" y="1" width="78" style="clip-path:url(#clipPath13); fill:none;" rx="15" ry="15" height="38" />
    </g>
    <g style="text-rendering:geometricPrecision; font-size:14; font-family:&apos;標楷體&apos;;" transform="translate(42,112)">
      <text x="12" y="27" style="clip-path:url(#clipPath14); stroke:none;" xml:space="preserve">會員登入</text>
    </g>
    <g transform="translate(72,162)" style="font-size:14; fill:rgb(122,207,245); text-rendering:geometricPrecision; font-family:&apos;標楷體&apos;; stroke:rgb(122,207,245);">
      <polygon style="clip-path:url(#clipPath15); stroke:none;" points=" 10 7 17 20 10 32 3 20" />
    </g>
    <g transform="translate(72,162)" style="font-size:14; stroke-linecap:butt; text-rendering:geometricPrecision; font-family:&apos;標楷體&apos;; stroke-linejoin:round; stroke-miterlimit:0;">
      <polygon style="fill:none; clip-path:url(#clipPath15);" points=" 10 7 17 20 10 32 3 20" />
    </g>
    <g transform="translate(182,152)" style="font-size:14; fill:rgb(122,207,245); text-rendering:geometricPrecision; font-family:&apos;標楷體&apos;; stroke:rgb(122,207,245);">
      <rect x="1" y="1" width="78" style="clip-path:url(#clipPath16); stroke:none;" rx="15" ry="15" height="48" />
    </g>
    <g transform="translate(182,152)" style="font-size:14; stroke-linecap:butt; text-rendering:geometricPrecision; font-family:&apos;標楷體&apos;; stroke-linejoin:round; stroke-miterlimit:0;">
      <rect x="1" y="1" width="78" style="clip-path:url(#clipPath16); fill:none;" rx="15" ry="15" height="48" />
    </g>
    <g style="text-rendering:geometricPrecision; font-size:14; font-family:&apos;標楷體&apos;;" transform="translate(182,152)">
      <text x="12" y="32" style="clip-path:url(#clipPath17); stroke:none;" xml:space="preserve">寵物辨識</text>
    </g>
    <g transform="translate(282,162)" style="font-size:14; fill:rgb(122,207,245); text-rendering:geometricPrecision; font-family:&apos;標楷體&apos;; stroke:rgb(122,207,245);">
      <polygon style="clip-path:url(#clipPath15); stroke:none;" points=" 10 7 17 20 10 32 3 20" />
    </g>
    <g transform="translate(282,162)" style="font-size:14; stroke-linecap:butt; text-rendering:geometricPrecision; font-family:&apos;標楷體&apos;; stroke-linejoin:round; stroke-miterlimit:0;">
      <polygon style="fill:none; clip-path:url(#clipPath15);" points=" 10 7 17 20 10 32 3 20" />
    </g>
    <g transform="translate(312,112)" style="font-size:14; fill:rgb(122,207,245); text-rendering:geometricPrecision; font-family:&apos;標楷體&apos;; stroke:rgb(122,207,245);">
      <rect x="1" y="1" width="108" style="clip-path:url(#clipPath18); stroke:none;" rx="15" ry="15" height="58" />
    </g>
    <g transform="translate(312,112)" style="font-size:14; stroke-linecap:butt; text-rendering:geometricPrecision; font-family:&apos;標楷體&apos;; stroke-linejoin:round; stroke-miterlimit:0;">
      <rect x="1" y="1" width="108" style="clip-path:url(#clipPath18); fill:none;" rx="15" ry="15" height="58" />
    </g>
    <g style="text-rendering:geometricPrecision; font-size:14; font-family:&apos;標楷體&apos;;" transform="translate(312,112)">
      <text x="27" y="37" style="clip-path:url(#clipPath19); stroke:none;" xml:space="preserve">上傳圖片</text>
    </g>
    <g transform="translate(312,202)" style="font-size:14; fill:rgb(122,207,245); text-rendering:geometricPrecision; font-family:&apos;標楷體&apos;; stroke:rgb(122,207,245);">
      <rect x="1" y="1" width="108" style="clip-path:url(#clipPath18); stroke:none;" rx="15" ry="15" height="58" />
    </g>
    <g transform="translate(312,202)" style="font-size:14; stroke-linecap:butt; text-rendering:geometricPrecision; font-family:&apos;標楷體&apos;; stroke-linejoin:round; stroke-miterlimit:0;">
      <rect x="1" y="1" width="108" style="clip-path:url(#clipPath18); fill:none;" rx="15" ry="15" height="58" />
    </g>
    <g style="text-rendering:geometricPrecision; font-size:14; font-family:&apos;標楷體&apos;;" transform="translate(312,202)">
      <text x="6" y="37" style="clip-path:url(#clipPath19); stroke:none;" xml:space="preserve">從相簿選擇照片</text>
    </g>
    <g transform="translate(492,122)" style="font-size:14; fill:rgb(122,207,245); text-rendering:geometricPrecision; font-family:&apos;標楷體&apos;; stroke:rgb(122,207,245);">
      <polygon style="clip-path:url(#clipPath15); stroke:none;" points=" 10 7 17 20 10 32 3 20" />
    </g>
    <g transform="translate(492,122)" style="font-size:14; stroke-linecap:butt; text-rendering:geometricPrecision; font-family:&apos;標楷體&apos;; stroke-linejoin:round; stroke-miterlimit:0;">
      <polygon style="fill:none; clip-path:url(#clipPath15);" points=" 10 7 17 20 10 32 3 20" />
    </g>
    <g transform="translate(492,212)" style="font-size:14; fill:rgb(122,207,245); text-rendering:geometricPrecision; font-family:&apos;標楷體&apos;; stroke:rgb(122,207,245);">
      <polygon style="clip-path:url(#clipPath15); stroke:none;" points=" 10 7 17 20 10 32 3 20" />
    </g>
    <g transform="translate(492,212)" style="font-size:14; stroke-linecap:butt; text-rendering:geometricPrecision; font-family:&apos;標楷體&apos;; stroke-linejoin:round; stroke-miterlimit:0;">
      <polygon style="fill:none; clip-path:url(#clipPath15);" points=" 10 7 17 20 10 32 3 20" />
    </g>
    <g transform="translate(532,162)" style="font-size:14; fill:rgb(122,207,245); text-rendering:geometricPrecision; font-family:&apos;標楷體&apos;; stroke:rgb(122,207,245);">
      <polygon style="clip-path:url(#clipPath15); stroke:none;" points=" 10 7 17 20 10 32 3 20" />
    </g>
    <g transform="translate(532,162)" style="font-size:14; stroke-linecap:butt; text-rendering:geometricPrecision; font-family:&apos;標楷體&apos;; stroke-linejoin:round; stroke-miterlimit:0;">
      <polygon style="fill:none; clip-path:url(#clipPath15);" points=" 10 7 17 20 10 32 3 20" />
    </g>
    <g transform="translate(562,162)" style="font-size:14; fill:rgb(122,207,245); text-rendering:geometricPrecision; font-family:&apos;標楷體&apos;; stroke:rgb(122,207,245);">
      <rect x="1" y="1" width="88" style="clip-path:url(#clipPath20); stroke:none;" rx="15" ry="15" height="48" />
    </g>
    <g transform="translate(562,162)" style="font-size:14; stroke-linecap:butt; text-rendering:geometricPrecision; font-family:&apos;標楷體&apos;; stroke-linejoin:round; stroke-miterlimit:0;">
      <rect x="1" y="1" width="88" style="clip-path:url(#clipPath20); fill:none;" rx="15" ry="15" height="48" />
    </g>
    <g style="text-rendering:geometricPrecision; font-size:14; font-family:&apos;標楷體&apos;;" transform="translate(562,162)">
      <text x="17" y="32" style="clip-path:url(#clipPath21); stroke:none;" xml:space="preserve">品種辨識</text>
    </g>
    <g transform="translate(12,282)" style="font-size:14; fill:rgb(122,207,245); text-rendering:geometricPrecision; font-family:&apos;標楷體&apos;; stroke:rgb(122,207,245);">
      <rect x="1" y="1" width="128" style="clip-path:url(#clipPath22); stroke:none;" rx="15" ry="15" height="48" />
    </g>
    <g transform="translate(12,282)" style="font-size:14; stroke-linecap:butt; text-rendering:geometricPrecision; font-family:&apos;標楷體&apos;; stroke-linejoin:round; stroke-miterlimit:0;">
      <rect x="1" y="1" width="128" style="clip-path:url(#clipPath22); fill:none;" rx="15" ry="15" height="48" />
    </g>
    <g style="text-rendering:geometricPrecision; font-size:14; font-family:&apos;標楷體&apos;;" transform="translate(12,282)">
      <text x="9" y="32" style="clip-path:url(#clipPath23); stroke:none;" xml:space="preserve">顯示寵物辨識結果</text>
    </g>
    <g style="text-rendering:geometricPrecision; font-size:14; font-family:&apos;標楷體&apos;;" transform="translate(72,362)">
      <circle style="clip-path:url(#clipPath24); stroke:none;" r="6.6667" cx="10" cy="10" />
      <circle style="stroke-linecap:butt; clip-path:url(#clipPath24); fill:none; stroke-linejoin:round; stroke-miterlimit:0;" r="10" cx="10" cy="10" />
    </g>
    <g transform="translate(32,101)" style="font-size:14; stroke-linecap:butt; text-rendering:geometricPrecision; font-family:&apos;標楷體&apos;; stroke-linejoin:round;">
      <line x1="50" x2="50" y1="50" style="clip-path:url(#clipPath28); fill:none;" y2="69" />
      <line x1="50" x2="56" y1="69" style="clip-path:url(#clipPath28); fill:none;" y2="57" />
      <line x1="50" x2="44" y1="69" style="clip-path:url(#clipPath28); fill:none;" y2="57" />
    </g>
    <g transform="translate(32,31)" style="font-size:14; stroke-linecap:butt; text-rendering:geometricPrecision; font-family:&apos;標楷體&apos;; stroke-linejoin:round;">
      <line x1="50" x2="50" y1="50" style="clip-path:url(#clipPath29); fill:none;" y2="81" />
      <line x1="50" x2="56" y1="81" style="clip-path:url(#clipPath29); fill:none;" y2="69" />
      <line x1="50" x2="44" y1="81" style="clip-path:url(#clipPath29); fill:none;" y2="69" />
    </g>
    <g transform="translate(32,281)" style="font-size:14; stroke-linecap:butt; text-rendering:geometricPrecision; font-family:&apos;標楷體&apos;; stroke-linejoin:round;">
      <line x1="50" x2="50" y1="50" style="clip-path:url(#clipPath30); fill:none;" y2="82" />
      <line x1="50" x2="56" y1="82" style="clip-path:url(#clipPath30); fill:none;" y2="70" />
      <line x1="50" x2="44" y1="82" style="clip-path:url(#clipPath30); fill:none;" y2="70" />
    </g>
    <g transform="translate(242,92)" style="font-size:14; stroke-linecap:butt; text-rendering:geometricPrecision; font-family:&apos;標楷體&apos;; stroke-linejoin:round;">
      <line x1="50" x2="50" y1="78" style="clip-path:url(#clipPath31); fill:none;" y2="50" />
      <line x1="50" x2="70" y1="50" style="clip-path:url(#clipPath31); fill:none;" y2="50" />
      <line x1="70" x2="58" y1="50" style="clip-path:url(#clipPath31); fill:none;" y2="44" />
      <line x1="70" x2="58" y1="50" style="clip-path:url(#clipPath31); fill:none;" y2="56" />
    </g>
    <g transform="translate(242,143)" style="font-size:14; stroke-linecap:butt; text-rendering:geometricPrecision; font-family:&apos;標楷體&apos;; stroke-linejoin:round;">
      <line x1="50" x2="50" y1="50" style="clip-path:url(#clipPath32); fill:none;" y2="89" />
      <line x1="50" x2="70" y1="89" style="clip-path:url(#clipPath32); fill:none;" y2="89" />
      <line x1="70" x2="58" y1="89" style="clip-path:url(#clipPath32); fill:none;" y2="83" />
      <line x1="70" x2="58" y1="89" style="clip-path:url(#clipPath32); fill:none;" y2="95" />
    </g>
    <g transform="translate(38,132)" style="font-size:14; stroke-linecap:butt; text-rendering:geometricPrecision; font-family:&apos;標楷體&apos;; stroke-linejoin:round;">
      <line x1="50" x2="144" y1="50" style="clip-path:url(#clipPath33); fill:none;" y2="50" />
      <line x1="144" x2="132" y1="50" style="clip-path:url(#clipPath33); fill:none;" y2="44" />
      <line x1="144" x2="132" y1="50" style="clip-path:url(#clipPath33); fill:none;" y2="56" />
    </g>
    <g transform="translate(211,132)" style="font-size:14; stroke-linecap:butt; text-rendering:geometricPrecision; font-family:&apos;標楷體&apos;; stroke-linejoin:round;">
      <line x1="50" x2="74" y1="50" style="clip-path:url(#clipPath34); fill:none;" y2="50" />
      <line x1="74" x2="62" y1="50" style="clip-path:url(#clipPath34); fill:none;" y2="44" />
      <line x1="74" x2="62" y1="50" style="clip-path:url(#clipPath34); fill:none;" y2="56" />
    </g>
    <g transform="translate(371,182)" style="font-size:14; stroke-linecap:butt; text-rendering:geometricPrecision; font-family:&apos;標楷體&apos;; stroke-linejoin:round;">
      <line x1="50" x2="124" y1="50" style="clip-path:url(#clipPath35); fill:none;" y2="50" />
      <line x1="124" x2="112" y1="50" style="clip-path:url(#clipPath35); fill:none;" y2="44" />
      <line x1="124" x2="112" y1="50" style="clip-path:url(#clipPath35); fill:none;" y2="56" />
    </g>
    <g transform="translate(458,143)" style="font-size:14; stroke-linecap:butt; text-rendering:geometricPrecision; font-family:&apos;標楷體&apos;; stroke-linejoin:round;">
      <line x1="50" x2="84" y1="89" style="clip-path:url(#clipPath36); fill:none;" y2="89" />
      <line x1="84" x2="84" y1="89" style="clip-path:url(#clipPath36); fill:none;" y2="50" />
      <line x1="84" x2="78" y1="50" style="clip-path:url(#clipPath36); fill:none;" y2="62" />
      <line x1="84" x2="90" y1="50" style="clip-path:url(#clipPath36); fill:none;" y2="62" />
    </g>
    <g transform="translate(37,135)" style="font-size:14; stroke-linecap:butt; text-rendering:geometricPrecision; font-family:&apos;標楷體&apos;; stroke-linejoin:round;">
      <line x1="465" x2="465" y1="109" style="clip-path:url(#clipPath37); fill:none;" y2="137" />
      <line x1="465" x2="175" y1="137" style="clip-path:url(#clipPath37); fill:none;" y2="137" />
      <line x1="175" x2="50" y1="137" style="clip-path:url(#clipPath37); fill:none;" y2="50" />
      <line x1="50" x2="56" y1="50" style="clip-path:url(#clipPath37); fill:none;" y2="61" />
      <line x1="50" x2="63" y1="50" style="clip-path:url(#clipPath37); fill:none;" y2="51" />
    </g>
    <g transform="translate(498,133)" style="font-size:14; stroke-linecap:butt; text-rendering:geometricPrecision; font-family:&apos;標楷體&apos;; stroke-linejoin:round;">
      <line x1="50" x2="64" y1="50" style="clip-path:url(#clipPath38); fill:none;" y2="50" />
      <line x1="64" x2="52" y1="50" style="clip-path:url(#clipPath38); fill:none;" y2="44" />
      <line x1="64" x2="52" y1="50" style="clip-path:url(#clipPath38); fill:none;" y2="56" />
    </g>
    <g transform="translate(91,161)" style="font-size:14; stroke-linecap:butt; text-rendering:geometricPrecision; font-family:&apos;標楷體&apos;; stroke-linejoin:round;">
      <line x1="511" x2="511" y1="50" style="clip-path:url(#clipPath39); fill:none;" y2="141" />
      <line x1="511" x2="50" y1="141" style="clip-path:url(#clipPath39); fill:none;" y2="141" />
      <line x1="50" x2="62" y1="141" style="clip-path:url(#clipPath39); fill:none;" y2="147" />
      <line x1="50" x2="62" y1="141" style="clip-path:url(#clipPath39); fill:none;" y2="135" />
    </g>
    <g transform="translate(371,92)" style="font-size:14; stroke-linecap:butt; text-rendering:geometricPrecision; font-family:&apos;標楷體&apos;; stroke-linejoin:round;">
      <line x1="50" x2="124" y1="50" style="clip-path:url(#clipPath35); fill:none;" y2="50" />
      <line x1="124" x2="112" y1="50" style="clip-path:url(#clipPath35); fill:none;" y2="44" />
      <line x1="124" x2="112" y1="50" style="clip-path:url(#clipPath35); fill:none;" y2="56" />
    </g>
    <g transform="translate(458,92)" style="font-size:14; stroke-linecap:butt; text-rendering:geometricPrecision; font-family:&apos;標楷體&apos;; stroke-linejoin:round;">
      <line x1="50" x2="84" y1="50" style="clip-path:url(#clipPath40); fill:none;" y2="50" />
      <line x1="84" x2="84" y1="50" style="clip-path:url(#clipPath40); fill:none;" y2="78" />
      <line x1="84" x2="90" y1="78" style="clip-path:url(#clipPath40); fill:none;" y2="66" />
      <line x1="84" x2="78" y1="78" style="clip-path:url(#clipPath40); fill:none;" y2="66" />
    </g>
    <g transform="translate(37,42)" style="font-size:14; stroke-linecap:butt; text-rendering:geometricPrecision; font-family:&apos;標楷體&apos;; stroke-linejoin:round;">
      <line x1="465" x2="465" y1="89" style="clip-path:url(#clipPath41); fill:none;" y2="50" />
      <line x1="465" x2="155" y1="50" style="clip-path:url(#clipPath41); fill:none;" y2="50" />
      <line x1="155" x2="50" y1="50" style="clip-path:url(#clipPath41); fill:none;" y2="136" />
      <line x1="50" x2="62" y1="136" style="clip-path:url(#clipPath41); fill:none;" y2="133" />
      <line x1="50" x2="55" y1="136" style="clip-path:url(#clipPath41); fill:none;" y2="123" />
    </g>
    <g style="text-rendering:geometricPrecision; font-size:14; font-family:&apos;標楷體&apos;;" transform="translate(472,71)">
      <text x="10" y="16" style="clip-path:url(#clipPath42); stroke:none;" xml:space="preserve">[上傳失敗]</text>
    </g>
    <g style="text-rendering:geometricPrecision; font-size:14; font-family:&apos;標楷體&apos;;" transform="translate(508,122)">
      <text x="10" y="16" style="clip-path:url(#clipPath42); stroke:none;" xml:space="preserve">[上傳成功]</text>
    </g>
    <g style="text-rendering:geometricPrecision; font-size:14; font-family:&apos;標楷體&apos;;" transform="translate(472,272)">
      <text x="10" y="16" style="clip-path:url(#clipPath43); stroke:none;" xml:space="preserve">[無法讀取照片]</text>
    </g>
    <g style="text-rendering:geometricPrecision; font-size:14; font-family:&apos;標楷體&apos;;" transform="translate(502,242)">
      <text x="10" y="16" style="clip-path:url(#clipPath42); stroke:none;" xml:space="preserve">[讀取成功]</text>
    </g>
    <g style="text-rendering:geometricPrecision; font-size:14; font-family:&apos;標楷體&apos;;" transform="translate(192,232)">
      <text x="10" y="16" style="clip-path:url(#clipPath43); stroke:none;" xml:space="preserve">從相簿選擇圖片</text>
    </g>
    <g style="text-rendering:geometricPrecision; font-size:14; font-family:&apos;標楷體&apos;;" transform="translate(232,122)">
      <text x="10" y="16" style="clip-path:url(#clipPath44); stroke:none;" xml:space="preserve">上傳圖片</text>
    </g>
    <g style="fill:rgb(120,120,120); text-rendering:geometricPrecision; font-size:10; stroke:rgb(120,120,120);">
      <text xml:space="preserve" x="0" y="10" style="stroke:none;">Visual Paradigm for UML Personal Edition [not for commercial use] </text>
      <text xml:space="preserve" x="0" y="10" style="stroke:none;">Visual Paradigm for UML Personal Edition [not for commercial use] </text>
    </g>
  </g>
</svg>
