<?xml version="1.0" encoding="UTF-8"?>

<!DOCTYPE svg PUBLIC '-//W3C//DTD SVG 1.0//EN' 'http://www.w3.org/TR/2001/REC-SVG-20010904/DTD/svg10.dtd'>
<svg style="fill-opacity:1; color-rendering:auto; color-interpolation:auto; stroke:black; text-rendering:auto; stroke-linecap:square; stroke-miterlimit:10; stroke-opacity:1; shape-rendering:auto; fill:black; stroke-dasharray:none; font-weight:normal; stroke-width:1; font-family:&apos;Dialog&apos;; font-style:normal; stroke-linejoin:miter; font-size:12; stroke-dashoffset:0; image-rendering:auto;" xmlns="http://www.w3.org/2000/svg" width="814" xmlns:xlink="http://www.w3.org/1999/xlink" height="434">
  <!--Generated by the Batik Graphics2D SVG Generator-->
  <defs id="genericDefs" />
  <g>
    <defs id="defs1">
      <clipPath clipPathUnits="userSpaceOnUse" id="clipPath1">
        <path d="M-3 -3 L817 -3 L817 437 L-3 437 L-3 -3 Z" />
      </clipPath>
      <clipPath clipPathUnits="userSpaceOnUse" id="clipPath2">
        <path d="M0 0 L0 419 L7 419 L7 0 Z" />
      </clipPath>
      <clipPath clipPathUnits="userSpaceOnUse" id="clipPath3">
        <path d="M-3 -3 L207 -3 L207 25 L-3 25 L-3 -3 Z" />
      </clipPath>
      <clipPath clipPathUnits="userSpaceOnUse" id="clipPath4">
        <path d="M0 0 L200 0 L200 18 L0 18 L0 0 Z" />
      </clipPath>
      <clipPath clipPathUnits="userSpaceOnUse" id="clipPath5">
        <path d="M-3 -3 L207 -3 L207 418 L-3 418 L-3 -3 Z" />
      </clipPath>
      <clipPath clipPathUnits="userSpaceOnUse" id="clipPath6">
        <path d="M-3 -3 L427 -3 L427 25 L-3 25 L-3 -3 Z" />
      </clipPath>
      <clipPath clipPathUnits="userSpaceOnUse" id="clipPath7">
        <path d="M0 0 L420 0 L420 18 L0 18 L0 0 Z" />
      </clipPath>
      <clipPath clipPathUnits="userSpaceOnUse" id="clipPath8">
        <path d="M-3 -3 L427 -3 L427 418 L-3 418 L-3 -3 Z" />
      </clipPath>
      <clipPath clipPathUnits="userSpaceOnUse" id="clipPath9">
        <path d="M-3 -3 L197 -3 L197 25 L-3 25 L-3 -3 Z" />
      </clipPath>
      <clipPath clipPathUnits="userSpaceOnUse" id="clipPath10">
        <path d="M0 0 L190 0 L190 18 L0 18 L0 0 Z" />
      </clipPath>
      <clipPath clipPathUnits="userSpaceOnUse" id="clipPath11">
        <path d="M-3 -3 L197 -3 L197 418 L-3 418 L-3 -3 Z" />
      </clipPath>
      <clipPath clipPathUnits="userSpaceOnUse" id="clipPath12">
        <path d="M-3 -3 L47 -3 L47 27 L-3 27 L-3 -3 Z" />
      </clipPath>
      <clipPath clipPathUnits="userSpaceOnUse" id="clipPath13">
        <path d="M-3 -3 L67 -3 L67 47 L-3 47 L-3 -3 Z" />
      </clipPath>
      <clipPath clipPathUnits="userSpaceOnUse" id="clipPath14">
        <path d="M0 0 L60 0 L60 40 L0 40 L0 0 Z" />
      </clipPath>
      <clipPath clipPathUnits="userSpaceOnUse" id="clipPath15">
        <path d="M-3 -3 L27 -3 L27 47 L-3 47 L-3 -3 Z" />
      </clipPath>
      <clipPath clipPathUnits="userSpaceOnUse" id="clipPath16">
        <path d="M-3 -3 L107 -3 L107 47 L-3 47 L-3 -3 Z" />
      </clipPath>
      <clipPath clipPathUnits="userSpaceOnUse" id="clipPath17">
        <path d="M0 0 L100 0 L100 40 L0 40 L0 0 Z" />
      </clipPath>
      <clipPath clipPathUnits="userSpaceOnUse" id="clipPath18">
        <path d="M-3 -3 L177 -3 L177 47 L-3 47 L-3 -3 Z" />
      </clipPath>
      <clipPath clipPathUnits="userSpaceOnUse" id="clipPath19">
        <path d="M0 0 L170 0 L170 40 L0 40 L0 0 Z" />
      </clipPath>
      <clipPath clipPathUnits="userSpaceOnUse" id="clipPath20">
        <path d="M-3 -3 L137 -3 L137 47 L-3 47 L-3 -3 Z" />
      </clipPath>
      <clipPath clipPathUnits="userSpaceOnUse" id="clipPath21">
        <path d="M0 0 L130 0 L130 40 L0 40 L0 0 Z" />
      </clipPath>
      <clipPath clipPathUnits="userSpaceOnUse" id="clipPath22">
        <path d="M-3 -3 L87 -3 L87 47 L-3 47 L-3 -3 Z" />
      </clipPath>
      <clipPath clipPathUnits="userSpaceOnUse" id="clipPath23">
        <path d="M0 0 L80 0 L80 40 L0 40 L0 0 Z" />
      </clipPath>
      <clipPath clipPathUnits="userSpaceOnUse" id="clipPath24">
        <path d="M-3 -3 L27 -3 L27 27 L-3 27 L-3 -3 Z" />
      </clipPath>
      <clipPath clipPathUnits="userSpaceOnUse" id="clipPath25">
        <path d="M0 0 L190 0 L190 411 L0 411 L0 0 Z" />
      </clipPath>
      <clipPath clipPathUnits="userSpaceOnUse" id="clipPath26">
        <path d="M0 0 L420 0 L420 411 L0 411 L0 0 Z" />
      </clipPath>
      <clipPath clipPathUnits="userSpaceOnUse" id="clipPath27">
        <path d="M0 0 L200 0 L200 411 L0 411 L0 0 Z" />
      </clipPath>
      <clipPath clipPathUnits="userSpaceOnUse" id="clipPath28">
        <path d="M0 0 L129 0 L129 161 L0 161 L0 0 Z" />
      </clipPath>
      <clipPath clipPathUnits="userSpaceOnUse" id="clipPath29">
        <path d="M0 0 L129 0 L129 241 L0 241 L0 0 Z" />
      </clipPath>
      <clipPath clipPathUnits="userSpaceOnUse" id="clipPath30">
        <path d="M0 0 L294 0 L294 206 L0 206 L0 0 Z" />
      </clipPath>
      <clipPath clipPathUnits="userSpaceOnUse" id="clipPath31">
        <path d="M0 0 L292 0 L292 130 L0 130 L0 0 Z" />
      </clipPath>
      <clipPath clipPathUnits="userSpaceOnUse" id="clipPath32">
        <path d="M0 0 L292 0 L292 186 L0 186 L0 0 Z" />
      </clipPath>
      <clipPath clipPathUnits="userSpaceOnUse" id="clipPath33">
        <path d="M0 0 L164 0 L164 129 L0 129 L0 0 Z" />
      </clipPath>
      <clipPath clipPathUnits="userSpaceOnUse" id="clipPath34">
        <path d="M0 0 L154 0 L154 129 L0 129 L0 0 Z" />
      </clipPath>
      <clipPath clipPathUnits="userSpaceOnUse" id="clipPath35">
        <path d="M0 0 L359 0 L359 170 L0 170 L0 0 Z" />
      </clipPath>
      <clipPath clipPathUnits="userSpaceOnUse" id="clipPath36">
        <path d="M0 0 L216 0 L216 175 L0 175 L0 0 Z" />
      </clipPath>
      <clipPath clipPathUnits="userSpaceOnUse" id="clipPath37">
        <path d="M0 0 L462 0 L462 190 L0 190 L0 0 Z" />
      </clipPath>
      <clipPath clipPathUnits="userSpaceOnUse" id="clipPath38">
        <path d="M0 0 L424 0 L424 129 L0 129 L0 0 Z" />
      </clipPath>
      <clipPath clipPathUnits="userSpaceOnUse" id="clipPath39">
        <path d="M0 0 L232 0 L232 170 L0 170 L0 0 Z" />
      </clipPath>
      <clipPath clipPathUnits="userSpaceOnUse" id="clipPath40">
        <path d="M0 0 L226 0 L226 175 L0 175 L0 0 Z" />
      </clipPath>
      <clipPath clipPathUnits="userSpaceOnUse" id="clipPath41">
        <path d="M0 0 L161 0 L161 129 L0 129 L0 0 Z" />
      </clipPath>
      <clipPath clipPathUnits="userSpaceOnUse" id="clipPath42">
        <path d="M0 0 L132 0 L132 18 L0 18 L0 0 Z" />
      </clipPath>
      <clipPath clipPathUnits="userSpaceOnUse" id="clipPath43">
        <path d="M0 0 L90 0 L90 18 L0 18 L0 0 Z" />
      </clipPath>
      <clipPath clipPathUnits="userSpaceOnUse" id="clipPath44">
        <path d="M0 0 L118 0 L118 18 L0 18 L0 0 Z" />
      </clipPath>
      <clipPath clipPathUnits="userSpaceOnUse" id="clipPath45">
        <path d="M0 0 L104 0 L104 18 L0 18 L0 0 Z" />
      </clipPath>
    </defs>
    <g style="fill:white; text-rendering:geometricPrecision; stroke:white;">
      <rect x="0" y="0" width="814" style="stroke:none;" height="434" />
    </g>
    <g style="text-rendering:geometricPrecision; stroke-width:2; font-size:14; font-family:&apos;標楷體&apos;;">
      <rect x="0" y="0" width="200" style="clip-path:url(#clipPath3); fill:none;" height="18" />
    </g>
    <g style="text-rendering:geometricPrecision; font-size:14; font-family:&apos;標楷體&apos;;">
      <text x="86" y="16" style="clip-path:url(#clipPath4); stroke:none;" xml:space="preserve">訪客</text>
    </g>
    <g transform="translate(0,18)" style="text-rendering:geometricPrecision; stroke-width:2; font-size:11; font-family:sans-serif;">
      <rect x="0" y="0" width="200" style="clip-path:url(#clipPath5); fill:none;" height="411" />
    </g>
    <g transform="translate(200,0)" style="text-rendering:geometricPrecision; stroke-width:2; font-size:14; font-family:&apos;標楷體&apos;;">
      <rect x="0" y="0" width="420" style="clip-path:url(#clipPath6); fill:none;" height="18" />
    </g>
    <g style="text-rendering:geometricPrecision; font-size:14; font-family:&apos;標楷體&apos;;" transform="translate(200,0)">
      <text x="196" y="16" style="clip-path:url(#clipPath7); stroke:none;" xml:space="preserve">登入</text>
    </g>
    <g transform="translate(200,18)" style="text-rendering:geometricPrecision; stroke-width:2; font-size:11; font-family:sans-serif;">
      <rect x="0" y="0" width="420" style="clip-path:url(#clipPath8); fill:none;" height="411" />
    </g>
    <g transform="translate(620,0)" style="text-rendering:geometricPrecision; stroke-width:2; font-size:14; font-family:&apos;標楷體&apos;;">
      <rect x="0" y="0" width="190" style="clip-path:url(#clipPath9); fill:none;" height="18" />
    </g>
    <g style="text-rendering:geometricPrecision; font-size:14; font-family:&apos;標楷體&apos;;" transform="translate(620,0)">
      <text x="74" y="16" style="clip-path:url(#clipPath10); stroke:none;" xml:space="preserve">資料庫</text>
    </g>
    <g transform="translate(620,18)" style="text-rendering:geometricPrecision; stroke-width:2; font-size:11; font-family:sans-serif;">
      <rect x="0" y="0" width="190" style="clip-path:url(#clipPath11); fill:none;" height="411" />
    </g>
    <g style="text-rendering:geometricPrecision; font-size:11; font-family:sans-serif;" transform="translate(30,40)">
      <circle style="clip-path:url(#clipPath12); stroke:none;" r="10" cx="20" cy="10" />
    </g>
    <g transform="translate(20,90)" style="font-size:14; fill:rgb(122,207,245); text-rendering:geometricPrecision; font-family:&apos;標楷體&apos;; stroke:rgb(122,207,245);">
      <rect x="1" y="1" width="58" style="clip-path:url(#clipPath13); stroke:none;" rx="15" ry="15" height="38" />
    </g>
    <g transform="translate(20,90)" style="font-size:14; stroke-linecap:butt; text-rendering:geometricPrecision; font-family:&apos;標楷體&apos;; stroke-linejoin:round; stroke-miterlimit:0;">
      <rect x="1" y="1" width="58" style="clip-path:url(#clipPath13); fill:none;" rx="15" ry="15" height="38" />
    </g>
    <g style="text-rendering:geometricPrecision; font-size:14; font-family:&apos;標楷體&apos;;" transform="translate(20,90)">
      <text x="16" y="27" style="clip-path:url(#clipPath14); stroke:none;" xml:space="preserve">登入</text>
    </g>
    <g transform="translate(40,230)" style="font-size:11; fill:rgb(122,207,245); text-rendering:geometricPrecision; font-family:sans-serif; stroke:rgb(122,207,245);">
      <polygon style="clip-path:url(#clipPath15); stroke:none;" points=" 10 7 17 20 10 32 3 20" />
    </g>
    <g transform="translate(40,230)" style="font-size:11; stroke-linecap:butt; text-rendering:geometricPrecision; font-family:sans-serif; stroke-linejoin:round; stroke-miterlimit:0;">
      <polygon style="fill:none; clip-path:url(#clipPath15);" points=" 10 7 17 20 10 32 3 20" />
    </g>
    <g transform="translate(220,150)" style="font-size:14; fill:rgb(122,207,245); text-rendering:geometricPrecision; font-family:&apos;標楷體&apos;; stroke:rgb(122,207,245);">
      <rect x="1" y="1" width="98" style="clip-path:url(#clipPath16); stroke:none;" rx="15" ry="15" height="38" />
    </g>
    <g transform="translate(220,150)" style="font-size:14; stroke-linecap:butt; text-rendering:geometricPrecision; font-family:&apos;標楷體&apos;; stroke-linejoin:round; stroke-miterlimit:0;">
      <rect x="1" y="1" width="98" style="clip-path:url(#clipPath16); fill:none;" rx="15" ry="15" height="38" />
    </g>
    <g style="text-rendering:geometricPrecision; font-size:14; font-family:&apos;標楷體&apos;;" transform="translate(220,150)">
      <text x="15" y="27" style="clip-path:url(#clipPath17); stroke:none;" xml:space="preserve">Google登入</text>
    </g>
    <g transform="translate(220,230)" style="font-size:14; fill:rgb(122,207,245); text-rendering:geometricPrecision; font-family:&apos;標楷體&apos;; stroke:rgb(122,207,245);">
      <rect x="1" y="1" width="98" style="clip-path:url(#clipPath16); stroke:none;" rx="15" ry="15" height="38" />
    </g>
    <g transform="translate(220,230)" style="font-size:14; stroke-linecap:butt; text-rendering:geometricPrecision; font-family:&apos;標楷體&apos;; stroke-linejoin:round; stroke-miterlimit:0;">
      <rect x="1" y="1" width="98" style="clip-path:url(#clipPath16); fill:none;" rx="15" ry="15" height="38" />
    </g>
    <g style="text-rendering:geometricPrecision; font-size:14; font-family:&apos;標楷體&apos;;" transform="translate(220,230)">
      <text x="8" y="27" style="clip-path:url(#clipPath17); stroke:none;" xml:space="preserve">Facebook登入</text>
    </g>
    <g transform="translate(220,290)" style="font-size:14; fill:rgb(122,207,245); text-rendering:geometricPrecision; font-family:&apos;標楷體&apos;; stroke:rgb(122,207,245);">
      <rect x="1" y="1" width="98" style="clip-path:url(#clipPath16); stroke:none;" rx="15" ry="15" height="38" />
    </g>
    <g transform="translate(220,290)" style="font-size:14; stroke-linecap:butt; text-rendering:geometricPrecision; font-family:&apos;標楷體&apos;; stroke-linejoin:round; stroke-miterlimit:0;">
      <rect x="1" y="1" width="98" style="clip-path:url(#clipPath16); fill:none;" rx="15" ry="15" height="38" />
    </g>
    <g style="text-rendering:geometricPrecision; font-size:14; font-family:&apos;標楷體&apos;;" transform="translate(220,290)">
      <text x="22" y="27" style="clip-path:url(#clipPath17); stroke:none;" xml:space="preserve">系統登入</text>
    </g>
    <g transform="translate(350,150)" style="font-size:11; fill:rgb(122,207,245); text-rendering:geometricPrecision; font-family:sans-serif; stroke:rgb(122,207,245);">
      <polygon style="clip-path:url(#clipPath15); stroke:none;" points=" 10 7 17 20 10 32 3 20" />
    </g>
    <g transform="translate(350,150)" style="font-size:11; stroke-linecap:butt; text-rendering:geometricPrecision; font-family:sans-serif; stroke-linejoin:round; stroke-miterlimit:0;">
      <polygon style="fill:none; clip-path:url(#clipPath15);" points=" 10 7 17 20 10 32 3 20" />
    </g>
    <g transform="translate(350,230)" style="font-size:11; fill:rgb(122,207,245); text-rendering:geometricPrecision; font-family:sans-serif; stroke:rgb(122,207,245);">
      <polygon style="clip-path:url(#clipPath15); stroke:none;" points=" 10 7 17 20 10 32 3 20" />
    </g>
    <g transform="translate(350,230)" style="font-size:11; stroke-linecap:butt; text-rendering:geometricPrecision; font-family:sans-serif; stroke-linejoin:round; stroke-miterlimit:0;">
      <polygon style="fill:none; clip-path:url(#clipPath15);" points=" 10 7 17 20 10 32 3 20" />
    </g>
    <g transform="translate(350,290)" style="font-size:11; fill:rgb(122,207,245); text-rendering:geometricPrecision; font-family:sans-serif; stroke:rgb(122,207,245);">
      <polygon style="clip-path:url(#clipPath15); stroke:none;" points=" 10 7 17 20 10 32 3 20" />
    </g>
    <g transform="translate(350,290)" style="font-size:11; stroke-linecap:butt; text-rendering:geometricPrecision; font-family:sans-serif; stroke-linejoin:round; stroke-miterlimit:0;">
      <polygon style="fill:none; clip-path:url(#clipPath15);" points=" 10 7 17 20 10 32 3 20" />
    </g>
    <g transform="translate(390,290)" style="font-size:14; fill:rgb(122,207,245); text-rendering:geometricPrecision; font-family:&apos;標楷體&apos;; stroke:rgb(122,207,245);">
      <rect x="1" y="1" width="168" style="clip-path:url(#clipPath18); stroke:none;" rx="15" ry="15" height="38" />
    </g>
    <g transform="translate(390,290)" style="font-size:14; stroke-linecap:butt; text-rendering:geometricPrecision; font-family:&apos;標楷體&apos;; stroke-linejoin:round; stroke-miterlimit:0;">
      <rect x="1" y="1" width="168" style="clip-path:url(#clipPath18); fill:none;" rx="15" ry="15" height="38" />
    </g>
    <g style="text-rendering:geometricPrecision; font-size:14; font-family:&apos;標楷體&apos;;" transform="translate(390,290)">
      <text x="8" y="27" style="clip-path:url(#clipPath19); stroke:none;" xml:space="preserve">輸入帳號、密碼及驗證碼</text>
    </g>
    <g transform="translate(580,290)" style="font-size:11; fill:rgb(122,207,245); text-rendering:geometricPrecision; font-family:sans-serif; stroke:rgb(122,207,245);">
      <polygon style="clip-path:url(#clipPath15); stroke:none;" points=" 10 7 17 20 10 32 3 20" />
    </g>
    <g transform="translate(580,290)" style="font-size:11; stroke-linecap:butt; text-rendering:geometricPrecision; font-family:sans-serif; stroke-linejoin:round; stroke-miterlimit:0;">
      <polygon style="fill:none; clip-path:url(#clipPath15);" points=" 10 7 17 20 10 32 3 20" />
    </g>
    <g transform="translate(450,100)" style="font-size:14; fill:rgb(122,207,245); text-rendering:geometricPrecision; font-family:&apos;標楷體&apos;; stroke:rgb(122,207,245);">
      <rect x="1" y="1" width="128" style="clip-path:url(#clipPath20); stroke:none;" rx="15" ry="15" height="38" />
    </g>
    <g transform="translate(450,100)" style="font-size:14; stroke-linecap:butt; text-rendering:geometricPrecision; font-family:&apos;標楷體&apos;; stroke-linejoin:round; stroke-miterlimit:0;">
      <rect x="1" y="1" width="128" style="clip-path:url(#clipPath20); fill:none;" rx="15" ry="15" height="38" />
    </g>
    <g style="text-rendering:geometricPrecision; font-size:14; font-family:&apos;標楷體&apos;;" transform="translate(450,100)">
      <text x="16" y="27" style="clip-path:url(#clipPath21); stroke:none;" xml:space="preserve">登入Google帳號</text>
    </g>
    <g transform="translate(660,230)" style="font-size:14; fill:rgb(122,207,245); text-rendering:geometricPrecision; font-family:&apos;標楷體&apos;; stroke:rgb(122,207,245);">
      <rect x="1" y="1" width="78" style="clip-path:url(#clipPath22); stroke:none;" rx="15" ry="15" height="38" />
    </g>
    <g transform="translate(660,230)" style="font-size:14; stroke-linecap:butt; text-rendering:geometricPrecision; font-family:&apos;標楷體&apos;; stroke-linejoin:round; stroke-miterlimit:0;">
      <rect x="1" y="1" width="78" style="clip-path:url(#clipPath22); fill:none;" rx="15" ry="15" height="38" />
    </g>
    <g style="text-rendering:geometricPrecision; font-size:14; font-family:&apos;標楷體&apos;;" transform="translate(660,230)">
      <text x="12" y="27" style="clip-path:url(#clipPath23); stroke:none;" xml:space="preserve">進入首頁</text>
    </g>
    <g transform="translate(460,180)" style="font-size:14; fill:rgb(122,207,245); text-rendering:geometricPrecision; font-family:&apos;標楷體&apos;; stroke:rgb(122,207,245);">
      <rect x="1" y="1" width="128" style="clip-path:url(#clipPath20); stroke:none;" rx="15" ry="15" height="38" />
    </g>
    <g transform="translate(460,180)" style="font-size:14; stroke-linecap:butt; text-rendering:geometricPrecision; font-family:&apos;標楷體&apos;; stroke-linejoin:round; stroke-miterlimit:0;">
      <rect x="1" y="1" width="128" style="clip-path:url(#clipPath20); fill:none;" rx="15" ry="15" height="38" />
    </g>
    <g style="text-rendering:geometricPrecision; font-size:14; font-family:&apos;標楷體&apos;;" transform="translate(460,180)">
      <text x="9" y="27" style="clip-path:url(#clipPath21); stroke:none;" xml:space="preserve">登入Facebook帳號</text>
    </g>
    <g style="text-rendering:geometricPrecision; font-size:11; font-family:sans-serif;" transform="translate(770,240)">
      <circle style="clip-path:url(#clipPath24); stroke:none;" r="6.6667" cx="10" cy="10" />
      <circle style="stroke-linecap:butt; clip-path:url(#clipPath24); fill:none; stroke-linejoin:round; stroke-miterlimit:0;" r="10" cx="10" cy="10" />
    </g>
    <g transform="translate(-12,-3)" style="font-size:11; stroke-linecap:butt; text-rendering:geometricPrecision; font-family:sans-serif; stroke-linejoin:round;">
      <line x1="62" x2="62" y1="61" style="clip-path:url(#clipPath28); fill:none;" y2="94" />
      <line x1="62" x2="68" y1="94" style="clip-path:url(#clipPath28); fill:none;" y2="82" />
      <line x1="62" x2="56" y1="94" style="clip-path:url(#clipPath28); fill:none;" y2="82" />
    </g>
    <g transform="translate(-12,66)" style="font-size:11; stroke-linecap:butt; text-rendering:geometricPrecision; font-family:sans-serif; stroke-linejoin:round;">
      <line x1="62" x2="62" y1="62" style="clip-path:url(#clipPath29); fill:none;" y2="175" />
      <line x1="62" x2="68" y1="175" style="clip-path:url(#clipPath29); fill:none;" y2="163" />
      <line x1="62" x2="56" y1="175" style="clip-path:url(#clipPath29); fill:none;" y2="163" />
    </g>
    <g transform="translate(-7,107)" style="font-size:14; stroke-linecap:butt; text-rendering:geometricPrecision; font-family:&apos;標楷體&apos;; stroke-linejoin:round;">
      <line x1="62" x2="107" y1="140" style="clip-path:url(#clipPath30); fill:none;" y2="63" />
      <line x1="107" x2="227" y1="63" style="clip-path:url(#clipPath30); fill:none;" y2="63" />
      <line x1="227" x2="215" y1="63" style="clip-path:url(#clipPath30); fill:none;" y2="57" />
      <line x1="227" x2="215" y1="63" style="clip-path:url(#clipPath30); fill:none;" y2="69" />
    </g>
    <g transform="translate(-6,187)" style="font-size:14; stroke-linecap:butt; text-rendering:geometricPrecision; font-family:&apos;標楷體&apos;; stroke-linejoin:round;">
      <line x1="62" x2="226" y1="64" style="clip-path:url(#clipPath31); fill:none;" y2="63" />
      <line x1="226" x2="214" y1="63" style="clip-path:url(#clipPath31); fill:none;" y2="57" />
      <line x1="226" x2="214" y1="63" style="clip-path:url(#clipPath31); fill:none;" y2="69" />
    </g>
    <g transform="translate(-6,190)" style="font-size:14; stroke-linecap:butt; text-rendering:geometricPrecision; font-family:&apos;標楷體&apos;; stroke-linejoin:round;">
      <line x1="62" x2="106" y1="62" style="clip-path:url(#clipPath32); fill:none;" y2="120" />
      <line x1="106" x2="226" y1="120" style="clip-path:url(#clipPath32); fill:none;" y2="120" />
      <line x1="226" x2="214" y1="120" style="clip-path:url(#clipPath32); fill:none;" y2="114" />
      <line x1="226" x2="214" y1="120" style="clip-path:url(#clipPath32); fill:none;" y2="126" />
    </g>
    <g transform="translate(256,107)" style="font-size:11; stroke-linecap:butt; text-rendering:geometricPrecision; font-family:sans-serif; stroke-linejoin:round;">
      <line x1="62" x2="97" y1="63" style="clip-path:url(#clipPath33); fill:none;" y2="63" />
      <line x1="97" x2="85" y1="63" style="clip-path:url(#clipPath33); fill:none;" y2="57" />
      <line x1="97" x2="85" y1="63" style="clip-path:url(#clipPath33); fill:none;" y2="69" />
    </g>
    <g transform="translate(256,187)" style="font-size:11; stroke-linecap:butt; text-rendering:geometricPrecision; font-family:sans-serif; stroke-linejoin:round;">
      <line x1="62" x2="97" y1="63" style="clip-path:url(#clipPath33); fill:none;" y2="63" />
      <line x1="97" x2="85" y1="63" style="clip-path:url(#clipPath33); fill:none;" y2="57" />
      <line x1="97" x2="85" y1="63" style="clip-path:url(#clipPath33); fill:none;" y2="69" />
    </g>
    <g transform="translate(256,247)" style="font-size:11; stroke-linecap:butt; text-rendering:geometricPrecision; font-family:sans-serif; stroke-linejoin:round;">
      <line x1="62" x2="97" y1="63" style="clip-path:url(#clipPath33); fill:none;" y2="63" />
      <line x1="97" x2="85" y1="63" style="clip-path:url(#clipPath33); fill:none;" y2="57" />
      <line x1="97" x2="85" y1="63" style="clip-path:url(#clipPath33); fill:none;" y2="69" />
    </g>
    <g transform="translate(303,247)" style="font-size:11; stroke-linecap:butt; text-rendering:geometricPrecision; font-family:sans-serif; stroke-linejoin:round;">
      <line x1="63" x2="88" y1="63" style="clip-path:url(#clipPath34); fill:none;" y2="63" />
      <line x1="88" x2="76" y1="63" style="clip-path:url(#clipPath34); fill:none;" y2="57" />
      <line x1="88" x2="76" y1="63" style="clip-path:url(#clipPath34); fill:none;" y2="69" />
    </g>
    <g transform="translate(496,247)" style="font-size:11; stroke-linecap:butt; text-rendering:geometricPrecision; font-family:sans-serif; stroke-linejoin:round;">
      <line x1="62" x2="87" y1="63" style="clip-path:url(#clipPath34); fill:none;" y2="63" />
      <line x1="87" x2="75" y1="63" style="clip-path:url(#clipPath34); fill:none;" y2="57" />
      <line x1="87" x2="75" y1="63" style="clip-path:url(#clipPath34); fill:none;" y2="69" />
    </g>
    <g transform="translate(297,256)" style="font-size:14; stroke-linecap:butt; text-rendering:geometricPrecision; font-family:&apos;標楷體&apos;; stroke-linejoin:round;">
      <line x1="293" x2="293" y1="62" style="clip-path:url(#clipPath35); fill:none;" y2="104" />
      <line x1="293" x2="63" y1="104" style="clip-path:url(#clipPath35); fill:none;" y2="104" />
      <line x1="63" x2="63" y1="104" style="clip-path:url(#clipPath35); fill:none;" y2="62" />
      <line x1="63" x2="57" y1="62" style="clip-path:url(#clipPath35); fill:none;" y2="74" />
      <line x1="63" x2="69" y1="62" style="clip-path:url(#clipPath35); fill:none;" y2="74" />
    </g>
    <g transform="translate(301,57)" style="font-size:14; stroke-linecap:butt; text-rendering:geometricPrecision; font-family:&apos;標楷體&apos;; stroke-linejoin:round;">
      <line x1="62" x2="99" y1="109" style="clip-path:url(#clipPath36); fill:none;" y2="63" />
      <line x1="99" x2="150" y1="63" style="clip-path:url(#clipPath36); fill:none;" y2="63" />
      <line x1="150" x2="138" y1="63" style="clip-path:url(#clipPath36); fill:none;" y2="57" />
      <line x1="150" x2="138" y1="63" style="clip-path:url(#clipPath36); fill:none;" y2="69" />
    </g>
    <g transform="translate(303,107)" style="font-size:14; stroke-linecap:butt; text-rendering:geometricPrecision; font-family:&apos;標楷體&apos;; stroke-linejoin:round;">
      <line x1="63" x2="397" y1="63" style="clip-path:url(#clipPath37); fill:none;" y2="63" />
      <line x1="397" x2="397" y1="63" style="clip-path:url(#clipPath37); fill:none;" y2="124" />
      <line x1="397" x2="403" y1="124" style="clip-path:url(#clipPath37); fill:none;" y2="112" />
      <line x1="397" x2="391" y1="124" style="clip-path:url(#clipPath37); fill:none;" y2="112" />
    </g>
    <g transform="translate(303,187)" style="font-size:14; stroke-linecap:butt; text-rendering:geometricPrecision; font-family:&apos;標楷體&apos;; stroke-linejoin:round;">
      <line x1="63" x2="358" y1="63" style="clip-path:url(#clipPath38); fill:none;" y2="63" />
      <line x1="358" x2="346" y1="63" style="clip-path:url(#clipPath38); fill:none;" y2="57" />
      <line x1="358" x2="346" y1="63" style="clip-path:url(#clipPath38); fill:none;" y2="69" />
    </g>
    <g transform="translate(533,206)" style="font-size:14; stroke-linecap:butt; text-rendering:geometricPrecision; font-family:&apos;標楷體&apos;; stroke-linejoin:round;">
      <line x1="63" x2="167" y1="104" style="clip-path:url(#clipPath39); fill:none;" y2="104" />
      <line x1="167" x2="167" y1="104" style="clip-path:url(#clipPath39); fill:none;" y2="62" />
      <line x1="167" x2="161" y1="62" style="clip-path:url(#clipPath39); fill:none;" y2="74" />
      <line x1="167" x2="173" y1="62" style="clip-path:url(#clipPath39); fill:none;" y2="74" />
    </g>
    <g transform="translate(301,137)" style="font-size:14; stroke-linecap:butt; text-rendering:geometricPrecision; font-family:&apos;標楷體&apos;; stroke-linejoin:round;">
      <line x1="62" x2="99" y1="109" style="clip-path:url(#clipPath40); fill:none;" y2="63" />
      <line x1="99" x2="160" y1="63" style="clip-path:url(#clipPath40); fill:none;" y2="63" />
      <line x1="160" x2="148" y1="63" style="clip-path:url(#clipPath40); fill:none;" y2="57" />
      <line x1="160" x2="148" y1="63" style="clip-path:url(#clipPath40); fill:none;" y2="69" />
    </g>
    <g transform="translate(676,187)" style="font-size:11; stroke-linecap:butt; text-rendering:geometricPrecision; font-family:sans-serif; stroke-linejoin:round;">
      <line x1="62" x2="95" y1="63" style="clip-path:url(#clipPath41); fill:none;" y2="63" />
      <line x1="95" x2="83" y1="63" style="clip-path:url(#clipPath41); fill:none;" y2="57" />
      <line x1="95" x2="83" y1="63" style="clip-path:url(#clipPath41); fill:none;" y2="69" />
    </g>
    <g style="text-rendering:geometricPrecision; font-size:14; font-family:&apos;標楷體&apos;;" transform="translate(330,180)">
      <text x="10" y="16" style="clip-path:url(#clipPath42); stroke:none;" xml:space="preserve">[未登入Facebook]</text>
    </g>
    <g style="text-rendering:geometricPrecision; font-size:14; font-family:&apos;標楷體&apos;;" transform="translate(615,290)">
      <text x="10" y="16" style="clip-path:url(#clipPath43); stroke:none;" xml:space="preserve">[登入成功]</text>
    </g>
    <g style="text-rendering:geometricPrecision; font-size:14; font-family:&apos;標楷體&apos;;" transform="translate(502,230)">
      <text x="10" y="16" style="clip-path:url(#clipPath43); stroke:none;" xml:space="preserve">[登入成功]</text>
    </g>
    <g style="text-rendering:geometricPrecision; font-size:14; font-family:&apos;標楷體&apos;;" transform="translate(476,152)">
      <text x="10" y="16" style="clip-path:url(#clipPath43); stroke:none;" xml:space="preserve">[登入成功]</text>
    </g>
    <g style="text-rendering:geometricPrecision; font-size:14; font-family:&apos;標楷體&apos;;" transform="translate(340,100)">
      <text x="10" y="16" style="clip-path:url(#clipPath44); stroke:none;" xml:space="preserve">[未登入google]</text>
    </g>
    <g style="text-rendering:geometricPrecision; font-size:14; font-family:&apos;標楷體&apos;;" transform="translate(426,361)">
      <text x="10" y="16" style="clip-path:url(#clipPath43); stroke:none;" xml:space="preserve">[登入失敗]</text>
    </g>
    <g style="text-rendering:geometricPrecision; font-size:14; font-family:&apos;標楷體&apos;;" transform="translate(106,290)">
      <text x="10" y="16" style="clip-path:url(#clipPath43); stroke:none;" xml:space="preserve">[系統登入]</text>
    </g>
    <g style="text-rendering:geometricPrecision; font-size:14; font-family:&apos;標楷體&apos;;" transform="translate(80,230)">
      <text x="10" y="16" style="clip-path:url(#clipPath44); stroke:none;" xml:space="preserve">[Facebook登入]</text>
    </g>
    <g style="text-rendering:geometricPrecision; font-size:14; font-family:&apos;標楷體&apos;;" transform="translate(90,150)">
      <text x="10" y="16" style="clip-path:url(#clipPath45); stroke:none;" xml:space="preserve">[Google登入]</text>
    </g>
    <g style="fill:rgb(120,120,120); text-rendering:geometricPrecision; font-size:10; stroke:rgb(120,120,120);">
    </g>
  </g>
</svg>
