<?xml version="1.0" encoding="UTF-8"?>

<!DOCTYPE svg PUBLIC '-//W3C//DTD SVG 1.0//EN' 'http://www.w3.org/TR/2001/REC-SVG-20010904/DTD/svg10.dtd'>
<svg style="fill-opacity:1; color-rendering:auto; color-interpolation:auto; stroke:black; text-rendering:auto; stroke-linecap:square; stroke-miterlimit:10; stroke-opacity:1; shape-rendering:auto; fill:black; stroke-dasharray:none; font-weight:normal; stroke-width:1; font-family:&apos;Dialog&apos;; font-style:normal; stroke-linejoin:miter; font-size:12; stroke-dashoffset:0; image-rendering:auto;" xmlns="http://www.w3.org/2000/svg" width="606" xmlns:xlink="http://www.w3.org/1999/xlink" height="436">
  <!--Generated by the Batik Graphics2D SVG Generator-->
  <defs id="genericDefs" />
  <g>
    <defs id="defs1">
      <clipPath clipPathUnits="userSpaceOnUse" id="clipPath1">
        <path d="M-3 -3 L47 -3 L47 27 L-3 27 L-3 -3 Z" />
      </clipPath>
      <clipPath clipPathUnits="userSpaceOnUse" id="clipPath2">
        <path d="M-3 -3 L127 -3 L127 47 L-3 47 L-3 -3 Z" />
      </clipPath>
      <clipPath clipPathUnits="userSpaceOnUse" id="clipPath3">
        <path d="M0 0 L120 0 L120 40 L0 40 L0 0 Z" />
      </clipPath>
      <clipPath clipPathUnits="userSpaceOnUse" id="clipPath4">
        <path d="M-3 -3 L27 -3 L27 47 L-3 47 L-3 -3 Z" />
      </clipPath>
      <clipPath clipPathUnits="userSpaceOnUse" id="clipPath5">
        <path d="M-3 -3 L147 -3 L147 47 L-3 47 L-3 -3 Z" />
      </clipPath>
      <clipPath clipPathUnits="userSpaceOnUse" id="clipPath6">
        <path d="M0 0 L140 0 L140 40 L0 40 L0 0 Z" />
      </clipPath>
      <clipPath clipPathUnits="userSpaceOnUse" id="clipPath7">
        <path d="M-3 -3 L107 -3 L107 47 L-3 47 L-3 -3 Z" />
      </clipPath>
      <clipPath clipPathUnits="userSpaceOnUse" id="clipPath8">
        <path d="M0 0 L100 0 L100 40 L0 40 L0 0 Z" />
      </clipPath>
      <clipPath clipPathUnits="userSpaceOnUse" id="clipPath9">
        <path d="M-3 -3 L27 -3 L27 27 L-3 27 L-3 -3 Z" />
      </clipPath>
      <clipPath clipPathUnits="userSpaceOnUse" id="clipPath10">
        <path d="M0 0 L129 0 L129 161 L0 161 L0 0 Z" />
      </clipPath>
      <clipPath clipPathUnits="userSpaceOnUse" id="clipPath11">
        <path d="M0 0 L302 0 L302 170 L0 170 L0 0 Z" />
      </clipPath>
      <clipPath clipPathUnits="userSpaceOnUse" id="clipPath12">
        <path d="M0 0 L150 0 L150 200 L0 200 L0 0 Z" />
      </clipPath>
      <clipPath clipPathUnits="userSpaceOnUse" id="clipPath13">
        <path d="M0 0 L129 0 L129 171 L0 171 L0 0 Z" />
      </clipPath>
      <clipPath clipPathUnits="userSpaceOnUse" id="clipPath14">
        <path d="M0 0 L129 0 L129 151 L0 151 L0 0 Z" />
      </clipPath>
      <clipPath clipPathUnits="userSpaceOnUse" id="clipPath15">
        <path d="M0 0 L344 0 L344 129 L0 129 L0 0 Z" />
      </clipPath>
      <clipPath clipPathUnits="userSpaceOnUse" id="clipPath16">
        <path d="M0 0 L212 0 L212 249 L0 249 L0 0 Z" />
      </clipPath>
      <clipPath clipPathUnits="userSpaceOnUse" id="clipPath17">
        <path d="M0 0 L90 0 L90 18 L0 18 L0 0 Z" />
      </clipPath>
      <clipPath clipPathUnits="userSpaceOnUse" id="clipPath18">
        <path d="M0 0 L118 0 L118 18 L0 18 L0 0 Z" />
      </clipPath>
      <clipPath clipPathUnits="userSpaceOnUse" id="clipPath19">
        <path d="M0 0 L104 0 L104 18 L0 18 L0 0 Z" />
      </clipPath>
    </defs>
    <g style="fill:white; text-rendering:geometricPrecision; stroke:white;">
      <rect x="0" y="0" width="606" style="stroke:none;" height="436" />
    </g>
    <g style="text-rendering:geometricPrecision; font-size:11; font-family:sans-serif;" transform="translate(222,2)">
      <circle style="clip-path:url(#clipPath1); stroke:none;" r="10" cx="20" cy="10" />
    </g>
    <g transform="translate(182,52)" style="font-size:14; fill:rgb(122,207,245); text-rendering:geometricPrecision; font-family:&apos;標楷體&apos;; stroke:rgb(122,207,245);">
      <rect x="1" y="1" width="118" style="clip-path:url(#clipPath2); stroke:none;" rx="15" ry="15" height="38" />
    </g>
    <g transform="translate(182,52)" style="font-size:14; stroke-linecap:butt; text-rendering:geometricPrecision; font-family:&apos;標楷體&apos;; stroke-linejoin:round; stroke-miterlimit:0;">
      <rect x="1" y="1" width="118" style="clip-path:url(#clipPath2); fill:none;" rx="15" ry="15" height="38" />
    </g>
    <g style="text-rendering:geometricPrecision; font-size:14; font-family:&apos;標楷體&apos;;" transform="translate(182,52)">
      <text x="32" y="27" style="clip-path:url(#clipPath3); stroke:none;" xml:space="preserve">註冊帳號</text>
    </g>
    <g transform="translate(232,112)" style="font-size:11; fill:rgb(122,207,245); text-rendering:geometricPrecision; font-family:sans-serif; stroke:rgb(122,207,245);">
      <polygon style="clip-path:url(#clipPath4); stroke:none;" points=" 10 7 17 20 10 32 3 20" />
    </g>
    <g transform="translate(232,112)" style="font-size:11; stroke-linecap:butt; text-rendering:geometricPrecision; font-family:sans-serif; stroke-linejoin:round; stroke-miterlimit:0;">
      <polygon style="fill:none; clip-path:url(#clipPath4);" points=" 10 7 17 20 10 32 3 20" />
    </g>
    <g transform="translate(2,172)" style="font-size:14; fill:rgb(122,207,245); text-rendering:geometricPrecision; font-family:&apos;標楷體&apos;; stroke:rgb(122,207,245);">
      <rect x="1" y="1" width="118" style="clip-path:url(#clipPath2); stroke:none;" rx="15" ry="15" height="38" />
    </g>
    <g transform="translate(2,172)" style="font-size:14; stroke-linecap:butt; text-rendering:geometricPrecision; font-family:&apos;標楷體&apos;; stroke-linejoin:round; stroke-miterlimit:0;">
      <rect x="1" y="1" width="118" style="clip-path:url(#clipPath2); fill:none;" rx="15" ry="15" height="38" />
    </g>
    <g style="text-rendering:geometricPrecision; font-size:14; font-family:&apos;標楷體&apos;;" transform="translate(2,172)">
      <text x="25" y="27" style="clip-path:url(#clipPath3); stroke:none;" xml:space="preserve">Google註冊</text>
    </g>
    <g transform="translate(362,172)" style="font-size:14; fill:rgb(122,207,245); text-rendering:geometricPrecision; font-family:&apos;標楷體&apos;; stroke:rgb(122,207,245);">
      <rect x="1" y="1" width="118" style="clip-path:url(#clipPath2); stroke:none;" rx="15" ry="15" height="38" />
    </g>
    <g transform="translate(362,172)" style="font-size:14; stroke-linecap:butt; text-rendering:geometricPrecision; font-family:&apos;標楷體&apos;; stroke-linejoin:round; stroke-miterlimit:0;">
      <rect x="1" y="1" width="118" style="clip-path:url(#clipPath2); fill:none;" rx="15" ry="15" height="38" />
    </g>
    <g style="text-rendering:geometricPrecision; font-size:14; font-family:&apos;標楷體&apos;;" transform="translate(362,172)">
      <text x="32" y="27" style="clip-path:url(#clipPath3); stroke:none;" xml:space="preserve">系統註冊</text>
    </g>
    <g transform="translate(182,172)" style="font-size:14; fill:rgb(122,207,245); text-rendering:geometricPrecision; font-family:&apos;標楷體&apos;; stroke:rgb(122,207,245);">
      <rect x="1" y="1" width="118" style="clip-path:url(#clipPath2); stroke:none;" rx="15" ry="15" height="38" />
    </g>
    <g transform="translate(182,172)" style="font-size:14; stroke-linecap:butt; text-rendering:geometricPrecision; font-family:&apos;標楷體&apos;; stroke-linejoin:round; stroke-miterlimit:0;">
      <rect x="1" y="1" width="118" style="clip-path:url(#clipPath2); fill:none;" rx="15" ry="15" height="38" />
    </g>
    <g style="text-rendering:geometricPrecision; font-size:14; font-family:&apos;標楷體&apos;;" transform="translate(182,172)">
      <text x="18" y="27" style="clip-path:url(#clipPath3); stroke:none;" xml:space="preserve">Facebook註冊</text>
    </g>
    <g transform="translate(82,262)" style="font-size:14; fill:rgb(122,207,245); text-rendering:geometricPrecision; font-family:&apos;標楷體&apos;; stroke:rgb(122,207,245);">
      <rect x="1" y="1" width="138" style="clip-path:url(#clipPath5); stroke:none;" rx="15" ry="15" height="38" />
    </g>
    <g transform="translate(82,262)" style="font-size:14; stroke-linecap:butt; text-rendering:geometricPrecision; font-family:&apos;標楷體&apos;; stroke-linejoin:round; stroke-miterlimit:0;">
      <rect x="1" y="1" width="138" style="clip-path:url(#clipPath5); fill:none;" rx="15" ry="15" height="38" />
    </g>
    <g style="text-rendering:geometricPrecision; font-size:14; font-family:&apos;標楷體&apos;;" transform="translate(82,262)">
      <text x="21" y="27" style="clip-path:url(#clipPath6); stroke:none;" xml:space="preserve">選擇欲註冊帳號</text>
    </g>
    <g transform="translate(102,342)" style="font-size:14; fill:rgb(122,207,245); text-rendering:geometricPrecision; font-family:&apos;標楷體&apos;; stroke:rgb(122,207,245);">
      <rect x="1" y="1" width="98" style="clip-path:url(#clipPath7); stroke:none;" rx="15" ry="15" height="38" />
    </g>
    <g transform="translate(102,342)" style="font-size:14; stroke-linecap:butt; text-rendering:geometricPrecision; font-family:&apos;標楷體&apos;; stroke-linejoin:round; stroke-miterlimit:0;">
      <rect x="1" y="1" width="98" style="clip-path:url(#clipPath7); fill:none;" rx="15" ry="15" height="38" />
    </g>
    <g style="text-rendering:geometricPrecision; font-size:14; font-family:&apos;標楷體&apos;;" transform="translate(102,342)">
      <text x="22" y="27" style="clip-path:url(#clipPath8); stroke:none;" xml:space="preserve">系統儲存</text>
    </g>
    <g style="text-rendering:geometricPrecision; font-size:11; font-family:sans-serif;" transform="translate(142,412)">
      <circle style="clip-path:url(#clipPath9); stroke:none;" r="6.6667" cx="10" cy="10" />
      <circle style="stroke-linecap:butt; clip-path:url(#clipPath9); fill:none; stroke-linejoin:round; stroke-miterlimit:0;" r="10" cx="10" cy="10" />
    </g>
    <g transform="translate(412,222)" style="font-size:11; fill:rgb(122,207,245); text-rendering:geometricPrecision; font-family:sans-serif; stroke:rgb(122,207,245);">
      <polygon style="clip-path:url(#clipPath4); stroke:none;" points=" 10 7 17 20 10 32 3 20" />
    </g>
    <g transform="translate(412,222)" style="font-size:11; stroke-linecap:butt; text-rendering:geometricPrecision; font-family:sans-serif; stroke-linejoin:round; stroke-miterlimit:0;">
      <polygon style="fill:none; clip-path:url(#clipPath4);" points=" 10 7 17 20 10 32 3 20" />
    </g>
    <g transform="translate(362,282)" style="font-size:14; fill:rgb(122,207,245); text-rendering:geometricPrecision; font-family:&apos;標楷體&apos;; stroke:rgb(122,207,245);">
      <rect x="1" y="1" width="118" style="clip-path:url(#clipPath2); stroke:none;" rx="15" ry="15" height="38" />
    </g>
    <g transform="translate(362,282)" style="font-size:14; stroke-linecap:butt; text-rendering:geometricPrecision; font-family:&apos;標楷體&apos;; stroke-linejoin:round; stroke-miterlimit:0;">
      <rect x="1" y="1" width="118" style="clip-path:url(#clipPath2); fill:none;" rx="15" ry="15" height="38" />
    </g>
    <g style="text-rendering:geometricPrecision; font-size:14; font-family:&apos;標楷體&apos;;" transform="translate(362,282)">
      <text x="18" y="27" style="clip-path:url(#clipPath3); stroke:none;" xml:space="preserve">填寫基本資料</text>
    </g>
    <g transform="translate(412,342)" style="font-size:11; fill:rgb(122,207,245); text-rendering:geometricPrecision; font-family:sans-serif; stroke:rgb(122,207,245);">
      <polygon style="clip-path:url(#clipPath4); stroke:none;" points=" 10 7 17 20 10 32 3 20" />
    </g>
    <g transform="translate(412,342)" style="font-size:11; stroke-linecap:butt; text-rendering:geometricPrecision; font-family:sans-serif; stroke-linejoin:round; stroke-miterlimit:0;">
      <polygon style="fill:none; clip-path:url(#clipPath4);" points=" 10 7 17 20 10 32 3 20" />
    </g>
    <g transform="translate(179,-41)" style="font-size:11; stroke-linecap:butt; text-rendering:geometricPrecision; font-family:sans-serif; stroke-linejoin:round;">
      <line x1="63" x2="63" y1="61" style="clip-path:url(#clipPath10); fill:none;" y2="94" />
      <line x1="63" x2="69" y1="94" style="clip-path:url(#clipPath10); fill:none;" y2="82" />
      <line x1="63" x2="57" y1="94" style="clip-path:url(#clipPath10); fill:none;" y2="82" />
    </g>
    <g transform="translate(179,28)" style="font-size:11; stroke-linecap:butt; text-rendering:geometricPrecision; font-family:sans-serif; stroke-linejoin:round;">
      <line x1="63" x2="63" y1="62" style="clip-path:url(#clipPath10); fill:none;" y2="95" />
      <line x1="63" x2="69" y1="95" style="clip-path:url(#clipPath10); fill:none;" y2="83" />
      <line x1="63" x2="57" y1="95" style="clip-path:url(#clipPath10); fill:none;" y2="83" />
    </g>
    <g transform="translate(-1,69)" style="font-size:14; stroke-linecap:butt; text-rendering:geometricPrecision; font-family:&apos;標楷體&apos;; stroke-linejoin:round;">
      <line x1="236" x2="63" y1="63" style="clip-path:url(#clipPath11); fill:none;" y2="63" />
      <line x1="63" x2="63" y1="63" style="clip-path:url(#clipPath11); fill:none;" y2="104" />
      <line x1="63" x2="69" y1="104" style="clip-path:url(#clipPath11); fill:none;" y2="92" />
      <line x1="63" x2="57" y1="104" style="clip-path:url(#clipPath11); fill:none;" y2="92" />
    </g>
    <g transform="translate(185,69)" style="font-size:14; stroke-linecap:butt; text-rendering:geometricPrecision; font-family:&apos;標楷體&apos;; stroke-linejoin:round;">
      <line x1="63" x2="237" y1="63" style="clip-path:url(#clipPath11); fill:none;" y2="63" />
      <line x1="237" x2="237" y1="63" style="clip-path:url(#clipPath11); fill:none;" y2="104" />
      <line x1="237" x2="243" y1="104" style="clip-path:url(#clipPath11); fill:none;" y2="92" />
      <line x1="237" x2="231" y1="104" style="clip-path:url(#clipPath11); fill:none;" y2="92" />
    </g>
    <g transform="translate(179,78)" style="font-size:14; stroke-linecap:butt; text-rendering:geometricPrecision; font-family:&apos;標楷體&apos;; stroke-linejoin:round;">
      <line x1="63" x2="63" y1="62" style="clip-path:url(#clipPath10); fill:none;" y2="95" />
      <line x1="63" x2="69" y1="95" style="clip-path:url(#clipPath10); fill:none;" y2="83" />
      <line x1="63" x2="57" y1="95" style="clip-path:url(#clipPath10); fill:none;" y2="83" />
    </g>
    <g transform="translate(-1,148)" style="font-size:11; stroke-linecap:butt; text-rendering:geometricPrecision; font-family:sans-serif; stroke-linejoin:round;">
      <line x1="63" x2="63" y1="62" style="clip-path:url(#clipPath12); fill:none;" y2="134" />
      <line x1="63" x2="84" y1="134" style="clip-path:url(#clipPath12); fill:none;" y2="134" />
      <line x1="84" x2="72" y1="134" style="clip-path:url(#clipPath12); fill:none;" y2="128" />
      <line x1="84" x2="72" y1="134" style="clip-path:url(#clipPath12); fill:none;" y2="140" />
    </g>
    <g transform="translate(158,148)" style="font-size:11; stroke-linecap:butt; text-rendering:geometricPrecision; font-family:sans-serif; stroke-linejoin:round;">
      <line x1="84" x2="84" y1="62" style="clip-path:url(#clipPath12); fill:none;" y2="134" />
      <line x1="84" x2="62" y1="134" style="clip-path:url(#clipPath12); fill:none;" y2="134" />
      <line x1="62" x2="74" y1="134" style="clip-path:url(#clipPath12); fill:none;" y2="140" />
      <line x1="62" x2="74" y1="134" style="clip-path:url(#clipPath12); fill:none;" y2="128" />
    </g>
    <g transform="translate(89,238)" style="font-size:11; stroke-linecap:butt; text-rendering:geometricPrecision; font-family:sans-serif; stroke-linejoin:round;">
      <line x1="63" x2="63" y1="62" style="clip-path:url(#clipPath13); fill:none;" y2="105" />
      <line x1="63" x2="69" y1="105" style="clip-path:url(#clipPath13); fill:none;" y2="93" />
      <line x1="63" x2="57" y1="105" style="clip-path:url(#clipPath13); fill:none;" y2="93" />
    </g>
    <g transform="translate(89,318)" style="font-size:11; stroke-linecap:butt; text-rendering:geometricPrecision; font-family:sans-serif; stroke-linejoin:round;">
      <line x1="63" x2="63" y1="62" style="clip-path:url(#clipPath10); fill:none;" y2="95" />
      <line x1="63" x2="69" y1="95" style="clip-path:url(#clipPath10); fill:none;" y2="83" />
      <line x1="63" x2="57" y1="95" style="clip-path:url(#clipPath10); fill:none;" y2="83" />
    </g>
    <g transform="translate(359,148)" style="font-size:11; stroke-linecap:butt; text-rendering:geometricPrecision; font-family:sans-serif; stroke-linejoin:round;">
      <line x1="63" x2="63" y1="62" style="clip-path:url(#clipPath14); fill:none;" y2="85" />
      <line x1="63" x2="69" y1="85" style="clip-path:url(#clipPath14); fill:none;" y2="73" />
      <line x1="63" x2="57" y1="85" style="clip-path:url(#clipPath14); fill:none;" y2="73" />
    </g>
    <g transform="translate(359,188)" style="font-size:11; stroke-linecap:butt; text-rendering:geometricPrecision; font-family:sans-serif; stroke-linejoin:round;">
      <line x1="63" x2="63" y1="62" style="clip-path:url(#clipPath10); fill:none;" y2="95" />
      <line x1="63" x2="69" y1="95" style="clip-path:url(#clipPath10); fill:none;" y2="83" />
      <line x1="63" x2="57" y1="95" style="clip-path:url(#clipPath10); fill:none;" y2="83" />
    </g>
    <g transform="translate(359,258)" style="font-size:11; stroke-linecap:butt; text-rendering:geometricPrecision; font-family:sans-serif; stroke-linejoin:round;">
      <line x1="63" x2="63" y1="62" style="clip-path:url(#clipPath10); fill:none;" y2="95" />
      <line x1="63" x2="69" y1="95" style="clip-path:url(#clipPath10); fill:none;" y2="83" />
      <line x1="63" x2="57" y1="95" style="clip-path:url(#clipPath10); fill:none;" y2="83" />
    </g>
    <g transform="translate(138,299)" style="font-size:14; stroke-linecap:butt; text-rendering:geometricPrecision; font-family:&apos;標楷體&apos;; stroke-linejoin:round;">
      <line x1="277" x2="62" y1="63" style="clip-path:url(#clipPath15); fill:none;" y2="63" />
      <line x1="62" x2="74" y1="63" style="clip-path:url(#clipPath15); fill:none;" y2="69" />
      <line x1="62" x2="74" y1="63" style="clip-path:url(#clipPath15); fill:none;" y2="57" />
    </g>
    <g transform="translate(365,179)" style="font-size:14; stroke-linecap:butt; text-rendering:geometricPrecision; font-family:&apos;標楷體&apos;; stroke-linejoin:round;">
      <line x1="63" x2="147" y1="183" style="clip-path:url(#clipPath16); fill:none;" y2="183" />
      <line x1="147" x2="147" y1="183" style="clip-path:url(#clipPath16); fill:none;" y2="63" />
      <line x1="147" x2="63" y1="63" style="clip-path:url(#clipPath16); fill:none;" y2="63" />
      <line x1="63" x2="75" y1="63" style="clip-path:url(#clipPath16); fill:none;" y2="69" />
      <line x1="63" x2="75" y1="63" style="clip-path:url(#clipPath16); fill:none;" y2="57" />
    </g>
    <g style="text-rendering:geometricPrecision; font-size:14; font-family:&apos;標楷體&apos;;" transform="translate(512,282)">
      <text x="10" y="16" style="clip-path:url(#clipPath17); stroke:none;" xml:space="preserve">[註冊失敗]</text>
    </g>
    <g style="text-rendering:geometricPrecision; font-size:14; font-family:&apos;標楷體&apos;;" transform="translate(262,342)">
      <text x="10" y="16" style="clip-path:url(#clipPath17); stroke:none;" xml:space="preserve">[註冊成功]</text>
    </g>
    <g style="text-rendering:geometricPrecision; font-size:14; font-family:&apos;標楷體&apos;;" transform="translate(242,142)">
      <text x="10" y="16" style="clip-path:url(#clipPath18); stroke:none;" xml:space="preserve">[Facebook註冊]</text>
    </g>
    <g style="text-rendering:geometricPrecision; font-size:14; font-family:&apos;標楷體&apos;;" transform="translate(287,112)">
      <text x="10" y="16" style="clip-path:url(#clipPath17); stroke:none;" xml:space="preserve">[系統註冊]</text>
    </g>
    <g style="text-rendering:geometricPrecision; font-size:14; font-family:&apos;標楷體&apos;;" transform="translate(87,112)">
      <text x="10" y="16" style="clip-path:url(#clipPath19); stroke:none;" xml:space="preserve">[Google註冊]</text>
    </g>
    <g style="fill:rgb(120,120,120); text-rendering:geometricPrecision; font-size:10; stroke:rgb(120,120,120);">
    </g>
  </g>
</svg>
