<?xml version="1.0" encoding="UTF-8"?>

<!DOCTYPE svg PUBLIC '-//W3C//DTD SVG 1.0//EN' 'http://www.w3.org/TR/2001/REC-SVG-20010904/DTD/svg10.dtd'>
<svg style="fill-opacity:1; color-rendering:auto; color-interpolation:auto; stroke:black; text-rendering:auto; stroke-linecap:square; stroke-miterlimit:10; stroke-opacity:1; shape-rendering:auto; fill:black; stroke-dasharray:none; font-weight:normal; stroke-width:1; font-family:&apos;Dialog&apos;; font-style:normal; stroke-linejoin:miter; font-size:12; stroke-dashoffset:0; image-rendering:auto;" xmlns="http://www.w3.org/2000/svg" width="770" xmlns:xlink="http://www.w3.org/1999/xlink" height="299">
  <!--Generated by the Batik Graphics2D SVG Generator-->
  <defs id="genericDefs" />
  <g>
    <defs id="defs1">
      <clipPath clipPathUnits="userSpaceOnUse" id="clipPath1">
        <path d="M-3 -3 L67 -3 L67 257 L-3 257 L-3 -3 Z" />
      </clipPath>
      <clipPath clipPathUnits="userSpaceOnUse" id="clipPath2">
        <path d="M-3 -3 L15 -3 L15 87 L-3 87 L-3 -3 Z" />
      </clipPath>
      <clipPath clipPathUnits="userSpaceOnUse" id="clipPath3">
        <path d="M-3 -3 L15 -3 L15 19 L-3 19 L-3 -3 Z" />
      </clipPath>
      <clipPath clipPathUnits="userSpaceOnUse" id="clipPath4">
        <path d="M-3 -3 L15 -3 L15 153 L-3 153 L-3 -3 Z" />
      </clipPath>
      <clipPath clipPathUnits="userSpaceOnUse" id="clipPath5">
        <path d="M0 0 L60 0 L60 18 L0 18 L0 0 Z" />
      </clipPath>
      <clipPath clipPathUnits="userSpaceOnUse" id="clipPath6">
        <path d="M0 0 L118 0 L118 18 L0 18 L0 0 Z" />
      </clipPath>
      <clipPath clipPathUnits="userSpaceOnUse" id="clipPath7">
        <path d="M0 0 L376 0 L376 104 L0 104 L0 0 Z" />
      </clipPath>
      <clipPath clipPathUnits="userSpaceOnUse" id="clipPath8">
        <path d="M0 0 L346 0 L346 104 L0 104 L0 0 Z" />
      </clipPath>
      <clipPath clipPathUnits="userSpaceOnUse" id="clipPath9">
        <path d="M0 0 L130 0 L130 124 L0 124 L0 0 Z" />
      </clipPath>
      <clipPath clipPathUnits="userSpaceOnUse" id="clipPath10">
        <path d="M0 0 L181 0 L181 18 L0 18 L0 0 Z" />
      </clipPath>
      <clipPath clipPathUnits="userSpaceOnUse" id="clipPath11">
        <path d="M0 0 L125 0 L125 18 L0 18 L0 0 Z" />
      </clipPath>
      <clipPath clipPathUnits="userSpaceOnUse" id="clipPath12">
        <path d="M0 0 L167 0 L167 18 L0 18 L0 0 Z" />
      </clipPath>
      <clipPath clipPathUnits="userSpaceOnUse" id="clipPath13">
        <path d="M0 0 L251 0 L251 18 L0 18 L0 0 Z" />
      </clipPath>
    </defs>
    <g style="fill:white; text-rendering:geometricPrecision; stroke:white;">
      <rect x="0" y="0" width="770" style="stroke:none;" height="299" />
      <rect x="69" y="38" transform="translate(-69,-38)" width="769" style="fill:none; stroke:black;" height="298" />
      <text x="76" y="57" transform="translate(-69,-38)" style="fill:black; stroke:none; font-weight:bold;" xml:space="preserve">sd</text>
      <text x="97" y="57" transform="translate(-69,-38)" style="fill:black; stroke:none;" xml:space="preserve">新增狗狗科普</text>
      <line transform="translate(-69,-38)" x1="69" x2="169" y1="64" style="fill:none; stroke:black;" y2="64" />
      <line transform="translate(-69,-38)" x1="175" x2="175" y1="38" style="fill:none; stroke:black;" y2="53" />
      <line transform="translate(-69,-38)" x1="175" x2="169" y1="53" style="fill:none; stroke:black;" y2="64" />
    </g>
    <g transform="translate(41,35)" style="font-size:14; fill:rgb(122,207,245); text-rendering:geometricPrecision; font-family:&apos;標楷體&apos;; stroke:rgb(122,207,245);">
      <circle style="clip-path:url(#clipPath1); stroke:none;" r="5" cx="30" cy="5" />
      <rect x="26" y="53" width="8" style="clip-path:url(#clipPath1); stroke:none;" height="196" />
    </g>
    <g transform="translate(41,35)" style="font-size:14; stroke-linecap:butt; text-rendering:geometricPrecision; font-family:&apos;標楷體&apos;; stroke-linejoin:round; stroke-miterlimit:0;">
      <circle style="fill:none; clip-path:url(#clipPath1);" r="5" cx="30" cy="5" />
      <rect x="26" y="53" width="8" style="clip-path:url(#clipPath1); fill:none;" height="196" />
      <line x1="30" x2="30" y1="10" style="clip-path:url(#clipPath1); fill:none;" y2="25" />
      <line x1="30" x2="21" y1="25" style="clip-path:url(#clipPath1); fill:none;" y2="36" />
      <line x1="30" x2="39" y1="25" style="clip-path:url(#clipPath1); fill:none;" y2="36" />
      <line x1="21" x2="39" y1="16" style="clip-path:url(#clipPath1); fill:none;" y2="16" />
    </g>
    <g transform="translate(321,35)" style="font-size:14; fill:rgb(122,207,245); text-rendering:geometricPrecision; font-family:&apos;標楷體&apos;; stroke:rgb(122,207,245);">
      <rect x="0" y="0" width="59" style="clip-path:url(#clipPath1); stroke:none;" height="35" />
    </g>
    <g transform="translate(321,35)" style="font-size:14; stroke-linecap:butt; text-rendering:geometricPrecision; font-family:&apos;標楷體&apos;; stroke-linejoin:round; stroke-miterlimit:0;">
      <rect x="0" y="0" width="59" style="clip-path:url(#clipPath1); fill:none;" height="35" />
      <line x1="29" x2="29" y1="35" style="clip-path:url(#clipPath1); fill:none; stroke-linejoin:bevel; stroke-dasharray:8,3;" y2="250" />
    </g>
    <g transform="translate(571,35)" style="font-size:14; fill:rgb(122,207,245); text-rendering:geometricPrecision; font-family:&apos;標楷體&apos;; stroke:rgb(122,207,245);">
      <rect x="0" y="0" width="59" style="clip-path:url(#clipPath1); stroke:none;" height="35" />
    </g>
    <g transform="translate(571,35)" style="font-size:14; stroke-linecap:butt; text-rendering:geometricPrecision; font-family:&apos;標楷體&apos;; stroke-linejoin:round; stroke-miterlimit:0;">
      <rect x="0" y="0" width="59" style="clip-path:url(#clipPath1); fill:none;" height="35" />
      <line x1="29" x2="29" y1="35" style="clip-path:url(#clipPath1); fill:none; stroke-linejoin:bevel; stroke-dasharray:8,3;" y2="250" />
    </g>
    <g transform="translate(597,155)" style="font-size:11; fill:rgb(122,207,245); text-rendering:geometricPrecision; font-family:sans-serif; stroke:rgb(122,207,245);">
      <rect x="0" y="0" width="8" style="clip-path:url(#clipPath2); stroke:none;" height="80" />
    </g>
    <g transform="translate(597,155)" style="font-size:11; stroke-linecap:butt; text-rendering:geometricPrecision; font-family:sans-serif; stroke-linejoin:round; stroke-miterlimit:0;">
      <rect x="0" y="0" width="8" style="clip-path:url(#clipPath2); fill:none;" height="80" />
    </g>
    <g transform="translate(601,195)" style="font-size:11; fill:rgb(122,207,245); text-rendering:geometricPrecision; font-family:sans-serif; stroke:rgb(122,207,245);">
      <rect x="0" y="0" width="8" style="clip-path:url(#clipPath3); stroke:none;" height="12" />
    </g>
    <g transform="translate(601,195)" style="font-size:11; stroke-linecap:butt; text-rendering:geometricPrecision; font-family:sans-serif; stroke-linejoin:round; stroke-miterlimit:0;">
      <rect x="0" y="0" width="8" style="clip-path:url(#clipPath3); fill:none;" height="12" />
    </g>
    <g transform="translate(347,115)" style="font-size:11; fill:rgb(122,207,245); text-rendering:geometricPrecision; font-family:sans-serif; stroke:rgb(122,207,245);">
      <rect x="0" y="0" width="8" style="clip-path:url(#clipPath4); stroke:none;" height="146" />
    </g>
    <g transform="translate(347,115)" style="font-size:11; stroke-linecap:butt; text-rendering:geometricPrecision; font-family:sans-serif; stroke-linejoin:round; stroke-miterlimit:0;">
      <rect x="0" y="0" width="8" style="clip-path:url(#clipPath4); fill:none;" height="146" />
    </g>
    <g style="text-rendering:geometricPrecision; font-size:14; font-family:&apos;標楷體&apos;;" transform="translate(571,35)">
      <text x="9" y="16" style="clip-path:url(#clipPath5); stroke:none;" xml:space="preserve">資料庫</text>
    </g>
    <g style="text-rendering:geometricPrecision; font-size:14; font-family:&apos;標楷體&apos;;" transform="translate(321,35)">
      <text x="16" y="16" style="clip-path:url(#clipPath5); stroke:none;" xml:space="preserve">系統</text>
    </g>
    <g style="text-rendering:geometricPrecision; font-size:14; font-family:&apos;標楷體&apos;;" transform="translate(12,70)">
      <text x="10" y="16" style="clip-path:url(#clipPath6); stroke:none;" xml:space="preserve">使用者(管理者)</text>
    </g>
    <g transform="translate(25,65)" style="font-size:14; stroke-linecap:butt; text-rendering:geometricPrecision; font-family:&apos;標楷體&apos;; stroke-linejoin:round;">
      <line x1="50" x2="322" y1="50" style="clip-path:url(#clipPath7); fill:none;" y2="50" />
      <polygon style="clip-path:url(#clipPath7); stroke:none;" points=" 322 50 310 44 310 56" />
      <polygon style="fill:none; clip-path:url(#clipPath7);" points=" 322 50 310 44 310 56" />
    </g>
    <g transform="translate(25,195)" style="font-size:14; stroke-linecap:butt; text-rendering:geometricPrecision; font-family:&apos;標楷體&apos;; stroke-linejoin:round; stroke-dasharray:8,3; stroke-miterlimit:0;">
      <line x1="322" x2="50" y1="50" style="clip-path:url(#clipPath7); fill:none;" y2="50" />
      <line x1="50" x2="62" y1="50" style="clip-path:url(#clipPath7); fill:none; stroke-dasharray:none; stroke-miterlimit:10;" y2="56" />
      <line x1="50" x2="62" y1="50" style="clip-path:url(#clipPath7); fill:none; stroke-dasharray:none; stroke-miterlimit:10;" y2="44" />
    </g>
    <g transform="translate(305,105)" style="font-size:14; stroke-linecap:butt; text-rendering:geometricPrecision; font-family:&apos;標楷體&apos;; stroke-linejoin:round;">
      <line x1="50" x2="292" y1="50" style="clip-path:url(#clipPath8); fill:none;" y2="50" />
      <polygon style="clip-path:url(#clipPath8); stroke:none;" points=" 292 50 280 44 280 56" />
      <polygon style="fill:none; clip-path:url(#clipPath8);" points=" 292 50 280 44 280 56" />
    </g>
    <g transform="translate(555,125)" style="font-size:14; stroke-linecap:butt; text-rendering:geometricPrecision; font-family:&apos;標楷體&apos;; stroke-linejoin:round;">
      <line x1="50" x2="76" y1="50" style="clip-path:url(#clipPath9); fill:none;" y2="50" />
      <line x1="76" x2="76" y1="50" style="clip-path:url(#clipPath9); fill:none;" y2="70" />
      <line x1="76" x2="54" y1="70" style="clip-path:url(#clipPath9); fill:none;" y2="70" />
      <polygon style="clip-path:url(#clipPath9); stroke:none;" points=" 54 70 66 76 66 64" />
      <polygon style="fill:none; clip-path:url(#clipPath9);" points=" 54 70 66 76 66 64" />
    </g>
    <g transform="translate(305,175)" style="font-size:14; stroke-linecap:butt; text-rendering:geometricPrecision; font-family:&apos;標楷體&apos;; stroke-linejoin:round; stroke-dasharray:8,3; stroke-miterlimit:0;">
      <line x1="292" x2="50" y1="50" style="clip-path:url(#clipPath8); fill:none;" y2="50" />
      <line x1="50" x2="62" y1="50" style="clip-path:url(#clipPath8); fill:none; stroke-dasharray:none; stroke-miterlimit:10;" y2="56" />
      <line x1="50" x2="62" y1="50" style="clip-path:url(#clipPath8); fill:none; stroke-dasharray:none; stroke-miterlimit:10;" y2="44" />
    </g>
    <g style="text-rendering:geometricPrecision; font-size:14; font-family:&apos;標楷體&apos;;" transform="translate(385,202)">
      <text x="10" y="16" style="clip-path:url(#clipPath10); stroke:none;" xml:space="preserve">1.1.2: 回傳新增成功訊息</text>
    </g>
    <g style="text-rendering:geometricPrecision; font-size:14; font-family:&apos;標楷體&apos;;" transform="translate(631,175)">
      <text x="10" y="16" style="clip-path:url(#clipPath11); stroke:none;" xml:space="preserve">1.1.1: 新增成功</text>
    </g>
    <g style="text-rendering:geometricPrecision; font-size:14; font-family:&apos;標楷體&apos;;" transform="translate(392,132)">
      <text x="10" y="16" style="clip-path:url(#clipPath12); stroke:none;" xml:space="preserve">1.1: 請求新增狗狗科普</text>
    </g>
    <g style="text-rendering:geometricPrecision; font-size:14; font-family:&apos;標楷體&apos;;" transform="translate(85,222)">
      <text x="10" y="16" style="clip-path:url(#clipPath13); stroke:none;" xml:space="preserve">2: 顯示新增成功訊息並新增狗狗科普</text>
    </g>
    <g style="text-rendering:geometricPrecision; font-size:14; font-family:&apos;標楷體&apos;;" transform="translate(148,92)">
      <text x="10" y="16" style="clip-path:url(#clipPath11); stroke:none;" xml:space="preserve">1: 新增狗狗科普</text>
    </g>
    <g style="fill:rgb(120,120,120); text-rendering:geometricPrecision; font-size:10; stroke:rgb(120,120,120);">
    </g>
  </g>
</svg>
