<?xml version="1.0" encoding="UTF-8"?>

<!DOCTYPE svg PUBLIC '-//W3C//DTD SVG 1.0//EN' 'http://www.w3.org/TR/2001/REC-SVG-20010904/DTD/svg10.dtd'>
<svg style="fill-opacity:1; color-rendering:auto; color-interpolation:auto; stroke:black; text-rendering:auto; stroke-linecap:square; stroke-miterlimit:10; stroke-opacity:1; shape-rendering:auto; fill:black; stroke-dasharray:none; font-weight:normal; stroke-width:1; font-family:&apos;Dialog&apos;; font-style:normal; stroke-linejoin:miter; font-size:12; stroke-dashoffset:0; image-rendering:auto;" xmlns="http://www.w3.org/2000/svg" width="946" xmlns:xlink="http://www.w3.org/1999/xlink" height="569">
  <!--Generated by the Batik Graphics2D SVG Generator-->
  <defs id="genericDefs" />
  <g>
    <defs id="defs1">
      <clipPath clipPathUnits="userSpaceOnUse" id="clipPath1">
        <path d="M-3 -3 L67 -3 L67 527 L-3 527 L-3 -3 Z" />
      </clipPath>
      <clipPath clipPathUnits="userSpaceOnUse" id="clipPath2">
        <path d="M-3 -3 L14 -3 L14 392 L-3 392 L-3 -3 Z" />
      </clipPath>
      <clipPath clipPathUnits="userSpaceOnUse" id="clipPath3">
        <path d="M-3 -3 L927 -3 L927 397 L-3 397 L-3 -3 Z" />
      </clipPath>
      <clipPath clipPathUnits="userSpaceOnUse" id="clipPath4">
        <path d="M0 0 L23 0 L23 20 L0 20 L0 0 Z" />
      </clipPath>
      <clipPath clipPathUnits="userSpaceOnUse" id="clipPath5">
        <path d="M-3 -3 L14 -3 L14 22 L-3 22 L-3 -3 Z" />
      </clipPath>
      <clipPath clipPathUnits="userSpaceOnUse" id="clipPath6">
        <path d="M-3 -3 L927 -3 L927 320 L-3 320 L-3 -3 Z" />
      </clipPath>
      <clipPath clipPathUnits="userSpaceOnUse" id="clipPath7">
        <path d="M0 0 L81 0 L81 17 L0 17 L0 0 Z" />
      </clipPath>
      <clipPath clipPathUnits="userSpaceOnUse" id="clipPath8">
        <path d="M0 0 L0 4 L920 4 L920 0 Z" />
      </clipPath>
      <clipPath clipPathUnits="userSpaceOnUse" id="clipPath9">
        <path d="M-3 -3 L13 -3 L13 227 L-3 227 L-3 -3 Z" />
      </clipPath>
      <clipPath clipPathUnits="userSpaceOnUse" id="clipPath10">
        <path d="M-3 -3 L897 -3 L897 227 L-3 227 L-3 -3 Z" />
      </clipPath>
      <clipPath clipPathUnits="userSpaceOnUse" id="clipPath11">
        <path d="M-3 -3 L14 -3 L14 20 L-3 20 L-3 -3 Z" />
      </clipPath>
      <clipPath clipPathUnits="userSpaceOnUse" id="clipPath12">
        <path d="M-3 -3 L897 -3 L897 96 L-3 96 L-3 -3 Z" />
      </clipPath>
      <clipPath clipPathUnits="userSpaceOnUse" id="clipPath13">
        <path d="M0 0 L92 0 L92 17 L0 17 L0 0 Z" />
      </clipPath>
      <clipPath clipPathUnits="userSpaceOnUse" id="clipPath14">
        <path d="M0 0 L0 4 L890 4 L890 0 Z" />
      </clipPath>
      <clipPath clipPathUnits="userSpaceOnUse" id="clipPath15">
        <path d="M-3 -3 L927 -3 L927 64 L-3 64 L-3 -3 Z" />
      </clipPath>
      <clipPath clipPathUnits="userSpaceOnUse" id="clipPath16">
        <path d="M-3 -3 L897 -3 L897 118 L-3 118 L-3 -3 Z" />
      </clipPath>
      <clipPath clipPathUnits="userSpaceOnUse" id="clipPath17">
        <path d="M0 0 L60 0 L60 17 L0 17 L0 0 Z" />
      </clipPath>
      <clipPath clipPathUnits="userSpaceOnUse" id="clipPath18">
        <path d="M0 0 L60 0 L60 18 L0 18 L0 0 Z" />
      </clipPath>
      <clipPath clipPathUnits="userSpaceOnUse" id="clipPath19">
        <path d="M0 0 L48 0 L48 18 L0 18 L0 0 Z" />
      </clipPath>
      <clipPath clipPathUnits="userSpaceOnUse" id="clipPath20">
        <path d="M0 0 L377 0 L377 104 L0 104 L0 0 Z" />
      </clipPath>
      <clipPath clipPathUnits="userSpaceOnUse" id="clipPath21">
        <path d="M0 0 L130 0 L130 124 L0 124 L0 0 Z" />
      </clipPath>
      <clipPath clipPathUnits="userSpaceOnUse" id="clipPath22">
        <path d="M0 0 L347 0 L347 104 L0 104 L0 0 Z" />
      </clipPath>
      <clipPath clipPathUnits="userSpaceOnUse" id="clipPath23">
        <path d="M0 0 L131 0 L131 124 L0 124 L0 0 Z" />
      </clipPath>
      <clipPath clipPathUnits="userSpaceOnUse" id="clipPath24">
        <path d="M0 0 L132 0 L132 18 L0 18 L0 0 Z" />
      </clipPath>
      <clipPath clipPathUnits="userSpaceOnUse" id="clipPath25">
        <path d="M0 0 L188 0 L188 18 L0 18 L0 0 Z" />
      </clipPath>
      <clipPath clipPathUnits="userSpaceOnUse" id="clipPath26">
        <path d="M0 0 L118 0 L118 18 L0 18 L0 0 Z" />
      </clipPath>
      <clipPath clipPathUnits="userSpaceOnUse" id="clipPath27">
        <path d="M0 0 L104 0 L104 18 L0 18 L0 0 Z" />
      </clipPath>
      <clipPath clipPathUnits="userSpaceOnUse" id="clipPath28">
        <path d="M0 0 L90 0 L90 18 L0 18 L0 0 Z" />
      </clipPath>
      <clipPath clipPathUnits="userSpaceOnUse" id="clipPath29">
        <path d="M0 0 L216 0 L216 18 L0 18 L0 0 Z" />
      </clipPath>
    </defs>
    <g style="fill:white; text-rendering:geometricPrecision; stroke:white;">
      <rect x="0" y="0" width="946" style="stroke:none;" height="569" />
      <rect x="28" y="38" transform="translate(-28,-38)" width="945" style="fill:none; stroke:black;" height="568" />
      <text x="35" y="57" transform="translate(-28,-38)" style="fill:black; stroke:none; font-weight:bold;" xml:space="preserve">sd</text>
      <text x="56" y="57" transform="translate(-28,-38)" style="fill:black; stroke:none;" xml:space="preserve">登入</text>
      <line transform="translate(-28,-38)" x1="28" x2="80" y1="64" style="fill:none; stroke:black;" y2="64" />
      <line transform="translate(-28,-38)" x1="86" x2="86" y1="38" style="fill:none; stroke:black;" y2="53" />
      <line transform="translate(-28,-38)" x1="86" x2="80" y1="53" style="fill:none; stroke:black;" y2="64" />
    </g>
    <g transform="translate(122,35)" style="font-size:14; fill:rgb(122,207,245); text-rendering:geometricPrecision; font-family:&apos;標楷體&apos;; stroke:rgb(122,207,245);">
      <circle style="clip-path:url(#clipPath1); stroke:none;" r="5" cx="30" cy="5" />
      <rect x="26" y="53" width="8" style="clip-path:url(#clipPath1); stroke:none;" height="466" />
    </g>
    <g transform="translate(122,35)" style="font-size:14; stroke-linecap:butt; text-rendering:geometricPrecision; font-family:&apos;標楷體&apos;; stroke-linejoin:round; stroke-miterlimit:0;">
      <circle style="fill:none; clip-path:url(#clipPath1);" r="5" cx="30" cy="5" />
      <rect x="26" y="53" width="8" style="clip-path:url(#clipPath1); fill:none;" height="466" />
      <line x1="30" x2="30" y1="10" style="clip-path:url(#clipPath1); fill:none;" y2="25" />
      <line x1="30" x2="21" y1="25" style="clip-path:url(#clipPath1); fill:none;" y2="36" />
      <line x1="30" x2="39" y1="25" style="clip-path:url(#clipPath1); fill:none;" y2="36" />
      <line x1="21" x2="39" y1="16" style="clip-path:url(#clipPath1); fill:none;" y2="16" />
    </g>
    <g transform="translate(402,35)" style="font-size:14; fill:rgb(122,207,245); text-rendering:geometricPrecision; font-family:&apos;標楷體&apos;; stroke:rgb(122,207,245);">
      <rect x="0" y="0" width="59" style="clip-path:url(#clipPath1); stroke:none;" height="35" />
    </g>
    <g transform="translate(402,35)" style="font-size:14; stroke-linecap:butt; text-rendering:geometricPrecision; font-family:&apos;標楷體&apos;; stroke-linejoin:round; stroke-miterlimit:0;">
      <rect x="0" y="0" width="59" style="clip-path:url(#clipPath1); fill:none;" height="35" />
      <line x1="29" x2="29" y1="35" style="clip-path:url(#clipPath1); fill:none; stroke-linejoin:bevel; stroke-dasharray:8,3;" y2="520" />
    </g>
    <g transform="translate(429,115)" style="font-size:14; fill:rgb(122,207,245); text-rendering:geometricPrecision; font-family:&apos;標楷體&apos;; stroke:rgb(122,207,245);">
      <rect x="0" y="0" width="7" style="clip-path:url(#clipPath2); stroke:none;" height="385" />
    </g>
    <g transform="translate(429,115)" style="font-size:14; stroke-linecap:butt; text-rendering:geometricPrecision; font-family:&apos;標楷體&apos;; stroke-linejoin:round; stroke-miterlimit:0;">
      <rect x="0" y="0" width="7" style="clip-path:url(#clipPath2); fill:none;" height="385" />
    </g>
    <g transform="translate(652,35)" style="font-size:14; fill:rgb(122,207,245); text-rendering:geometricPrecision; font-family:&apos;Times New Roman&apos;; stroke:rgb(122,207,245);">
      <rect x="0" y="0" width="59" style="clip-path:url(#clipPath1); stroke:none;" height="35" />
    </g>
    <g transform="translate(652,35)" style="font-size:14; stroke-linecap:butt; text-rendering:geometricPrecision; font-family:&apos;Times New Roman&apos;; stroke-linejoin:round; stroke-miterlimit:0;">
      <rect x="0" y="0" width="59" style="clip-path:url(#clipPath1); fill:none;" height="35" />
      <line x1="29" x2="29" y1="35" style="clip-path:url(#clipPath1); fill:none; stroke-linejoin:bevel; stroke-dasharray:8,3;" y2="520" />
    </g>
    <g transform="translate(12,145)" style="font-size:11; stroke-linecap:butt; text-rendering:geometricPrecision; font-family:sans-serif; stroke-linejoin:round; font-weight:bold; stroke-miterlimit:0;">
      <rect x="0" y="0" width="920" style="clip-path:url(#clipPath3); fill:none;" height="390" />
    </g>
    <g transform="translate(12,145)" style="font-size:11; fill:white; text-rendering:geometricPrecision; font-family:sans-serif; stroke:white; font-weight:bold;">
      <path d="M22 0 L22 10 L16 19 L0 19 L0 0 Z" style="clip-path:url(#clipPath3); stroke:none;" />
    </g>
    <g transform="translate(12,145)" style="font-size:11; stroke-linecap:butt; text-rendering:geometricPrecision; font-family:sans-serif; stroke-linejoin:round; font-weight:bold; stroke-miterlimit:0;">
      <path d="M22 0 L22 10 L16 19 L0 19 L0 0 Z" style="fill:none; clip-path:url(#clipPath3);" />
    </g>
    <g transform="translate(12,145)" style="text-rendering:geometricPrecision; font-size:11; font-weight:bold; font-family:sans-serif;">
      <text x="5" y="14" style="clip-path:url(#clipPath4); stroke:none;" xml:space="preserve">alt</text>
    </g>
    <g transform="translate(432,167)" style="font-size:11; fill:rgb(122,207,245); text-rendering:geometricPrecision; font-family:sans-serif; stroke:rgb(122,207,245);">
      <rect x="0" y="0" width="7" style="clip-path:url(#clipPath5); stroke:none;" height="15" />
    </g>
    <g transform="translate(432,167)" style="font-size:11; stroke-linecap:butt; text-rendering:geometricPrecision; font-family:sans-serif; stroke-linejoin:round; stroke-miterlimit:0;">
      <rect x="0" y="0" width="7" style="clip-path:url(#clipPath5); fill:none;" height="15" />
    </g>
    <g transform="translate(12,228)" style="font-size:11; fill:white; text-rendering:geometricPrecision; font-family:sans-serif; stroke:white;">
      <rect x="28" y="5" width="81" style="clip-path:url(#clipPath6); stroke:none;" height="17" />
    </g>
    <g style="text-rendering:geometricPrecision; font-size:11; font-family:sans-serif;" transform="translate(40,233)">
      <text x="10" y="14" style="clip-path:url(#clipPath7); stroke:none;" xml:space="preserve">[驗證碼正確]</text>
    </g>
    <g transform="translate(679,262)" style="font-size:11; fill:rgb(122,207,245); text-rendering:geometricPrecision; font-family:sans-serif; stroke:rgb(122,207,245);">
      <rect x="0" y="0" width="6" style="clip-path:url(#clipPath9); stroke:none;" height="220" />
    </g>
    <g transform="translate(679,262)" style="font-size:11; stroke-linecap:butt; text-rendering:geometricPrecision; font-family:sans-serif; stroke-linejoin:round; stroke-miterlimit:0;">
      <rect x="0" y="0" width="6" style="clip-path:url(#clipPath9); fill:none;" height="220" />
    </g>
    <g transform="translate(22,295)" style="font-size:11; stroke-linecap:butt; text-rendering:geometricPrecision; font-family:sans-serif; stroke-linejoin:round; font-weight:bold; stroke-miterlimit:0;">
      <rect x="0" y="0" width="890" style="clip-path:url(#clipPath10); fill:none;" height="220" />
    </g>
    <g transform="translate(22,295)" style="font-size:11; fill:white; text-rendering:geometricPrecision; font-family:sans-serif; stroke:white; font-weight:bold;">
      <path d="M22 0 L22 10 L16 19 L0 19 L0 0 Z" style="clip-path:url(#clipPath10); stroke:none;" />
    </g>
    <g transform="translate(22,295)" style="font-size:11; stroke-linecap:butt; text-rendering:geometricPrecision; font-family:sans-serif; stroke-linejoin:round; font-weight:bold; stroke-miterlimit:0;">
      <path d="M22 0 L22 10 L16 19 L0 19 L0 0 Z" style="fill:none; clip-path:url(#clipPath10);" />
    </g>
    <g transform="translate(22,295)" style="text-rendering:geometricPrecision; font-size:11; font-weight:bold; font-family:sans-serif;">
      <text x="5" y="14" style="clip-path:url(#clipPath4); stroke:none;" xml:space="preserve">alt</text>
    </g>
    <g transform="translate(682,449)" style="font-size:11; fill:rgb(122,207,245); text-rendering:geometricPrecision; font-family:sans-serif; stroke:rgb(122,207,245);">
      <rect x="0" y="0" width="7" style="clip-path:url(#clipPath11); stroke:none;" height="13" />
    </g>
    <g transform="translate(682,449)" style="font-size:11; stroke-linecap:butt; text-rendering:geometricPrecision; font-family:sans-serif; stroke-linejoin:round; stroke-miterlimit:0;">
      <rect x="0" y="0" width="7" style="clip-path:url(#clipPath11); fill:none;" height="13" />
    </g>
    <g transform="translate(22,315)" style="font-size:11; fill:white; text-rendering:geometricPrecision; font-family:sans-serif; stroke:white;">
      <rect x="28" y="5" width="92" style="clip-path:url(#clipPath12); stroke:none;" height="17" />
    </g>
    <g transform="translate(22,315)" style="font-size:11; stroke-linecap:butt; text-rendering:geometricPrecision; font-family:sans-serif; stroke-linejoin:bevel; stroke-dasharray:5,2; stroke-miterlimit:0;">
      <line x1="0" x2="889" y1="88" style="clip-path:url(#clipPath12); fill:none;" y2="88" />
    </g>
    <g style="text-rendering:geometricPrecision; font-size:11; font-family:sans-serif;" transform="translate(50,320)">
      <text x="10" y="14" style="clip-path:url(#clipPath13); stroke:none;" xml:space="preserve">[帳號密碼正確]</text>
    </g>
    <g transform="translate(682,319)" style="font-size:11; fill:rgb(122,207,245); text-rendering:geometricPrecision; font-family:sans-serif; stroke:rgb(122,207,245);">
      <rect x="0" y="0" width="7" style="clip-path:url(#clipPath11); stroke:none;" height="13" />
    </g>
    <g transform="translate(682,319)" style="font-size:11; stroke-linecap:butt; text-rendering:geometricPrecision; font-family:sans-serif; stroke-linejoin:round; stroke-miterlimit:0;">
      <rect x="0" y="0" width="7" style="clip-path:url(#clipPath11); fill:none;" height="13" />
    </g>
    <g transform="translate(12,165)" style="font-size:11; fill:white; text-rendering:geometricPrecision; font-family:sans-serif; stroke:white;">
      <rect x="28" y="5" width="81" style="clip-path:url(#clipPath15); stroke:none;" height="17" />
    </g>
    <g transform="translate(12,165)" style="font-size:11; stroke-linecap:butt; text-rendering:geometricPrecision; font-family:sans-serif; stroke-linejoin:bevel; stroke-dasharray:5,2; stroke-miterlimit:0;">
      <line x1="0" x2="919" y1="56" style="clip-path:url(#clipPath15); fill:none;" y2="56" />
    </g>
    <g style="text-rendering:geometricPrecision; font-size:11; font-family:sans-serif;" transform="translate(40,170)">
      <text x="10" y="14" style="clip-path:url(#clipPath7); stroke:none;" xml:space="preserve">[驗證碼錯誤]</text>
    </g>
    <g transform="translate(22,411)" style="font-size:11; fill:white; text-rendering:geometricPrecision; font-family:sans-serif; stroke:white;">
      <rect x="28" y="5" width="92" style="clip-path:url(#clipPath16); stroke:none;" height="17" />
    </g>
    <g style="text-rendering:geometricPrecision; font-size:11; font-family:sans-serif;" transform="translate(50,416)">
      <text x="10" y="14" style="clip-path:url(#clipPath13); stroke:none;" xml:space="preserve">[帳號密碼錯誤]</text>
    </g>
    <g style="text-rendering:geometricPrecision; font-size:14; font-family:&apos;Times New Roman&apos;;" transform="translate(652,35)">
      <text x="8" y="14" style="clip-path:url(#clipPath17); stroke:none;" xml:space="preserve">account</text>
    </g>
    <g style="text-rendering:geometricPrecision; font-size:14; font-family:&apos;標楷體&apos;;" transform="translate(402,35)">
      <text x="9" y="16" style="clip-path:url(#clipPath18); stroke:none;" xml:space="preserve">登入UI</text>
    </g>
    <g style="text-rendering:geometricPrecision; font-size:14; font-family:&apos;標楷體&apos;;" transform="translate(128,70)">
      <text x="10" y="16" style="clip-path:url(#clipPath19); stroke:none;" xml:space="preserve">訪客</text>
    </g>
    <g transform="translate(106,65)" style="font-size:14; stroke-linecap:butt; text-rendering:geometricPrecision; font-family:&apos;標楷體&apos;; stroke-linejoin:round;">
      <line x1="50" x2="323" y1="50" style="clip-path:url(#clipPath20); fill:none;" y2="50" />
      <polygon style="clip-path:url(#clipPath20); stroke:none;" points=" 323 50 311 44 311 56" />
      <polygon style="fill:none; clip-path:url(#clipPath20);" points=" 323 50 311 44 311 56" />
    </g>
    <g transform="translate(386,105)" style="font-size:14; stroke-linecap:butt; text-rendering:geometricPrecision; font-family:&apos;標楷體&apos;; stroke-linejoin:round;">
      <line x1="50" x2="76" y1="50" style="clip-path:url(#clipPath21); fill:none;" y2="50" />
      <line x1="76" x2="76" y1="50" style="clip-path:url(#clipPath21); fill:none;" y2="70" />
      <line x1="76" x2="53" y1="70" style="clip-path:url(#clipPath21); fill:none;" y2="70" />
      <polygon style="clip-path:url(#clipPath21); stroke:none;" points=" 53 70 65 76 65 64" />
      <polygon style="fill:none; clip-path:url(#clipPath21);" points=" 53 70 65 76 65 64" />
    </g>
    <g transform="translate(106,145)" style="font-size:14; stroke-linecap:butt; text-rendering:geometricPrecision; font-family:&apos;標楷體&apos;; stroke-linejoin:round; stroke-dasharray:8,3; stroke-miterlimit:0;">
      <line x1="323" x2="50" y1="50" style="clip-path:url(#clipPath20); fill:none;" y2="50" />
      <line x1="50" x2="62" y1="50" style="clip-path:url(#clipPath20); fill:none; stroke-dasharray:none; stroke-miterlimit:10;" y2="56" />
      <line x1="50" x2="62" y1="50" style="clip-path:url(#clipPath20); fill:none; stroke-dasharray:none; stroke-miterlimit:10;" y2="44" />
    </g>
    <g transform="translate(106,325)" style="font-size:14; stroke-linecap:butt; text-rendering:geometricPrecision; font-family:&apos;標楷體&apos;; stroke-linejoin:round; stroke-dasharray:8,3; stroke-miterlimit:0;">
      <line x1="323" x2="50" y1="50" style="clip-path:url(#clipPath20); fill:none;" y2="50" />
      <line x1="50" x2="62" y1="50" style="clip-path:url(#clipPath20); fill:none; stroke-dasharray:none; stroke-miterlimit:10;" y2="56" />
      <line x1="50" x2="62" y1="50" style="clip-path:url(#clipPath20); fill:none; stroke-dasharray:none; stroke-miterlimit:10;" y2="44" />
    </g>
    <g transform="translate(106,435)" style="font-size:14; stroke-linecap:butt; text-rendering:geometricPrecision; font-family:&apos;標楷體&apos;; stroke-linejoin:round; stroke-dasharray:8,3; stroke-miterlimit:0;">
      <line x1="323" x2="50" y1="50" style="clip-path:url(#clipPath20); fill:none;" y2="50" />
      <line x1="50" x2="62" y1="50" style="clip-path:url(#clipPath20); fill:none; stroke-dasharray:none; stroke-miterlimit:10;" y2="56" />
      <line x1="50" x2="62" y1="50" style="clip-path:url(#clipPath20); fill:none; stroke-dasharray:none; stroke-miterlimit:10;" y2="44" />
    </g>
    <g transform="translate(386,215)" style="font-size:14; stroke-linecap:butt; text-rendering:geometricPrecision; font-family:&apos;標楷體&apos;; stroke-linejoin:round;">
      <line x1="50" x2="293" y1="50" style="clip-path:url(#clipPath22); fill:none;" y2="50" />
      <polygon style="clip-path:url(#clipPath22); stroke:none;" points=" 293 50 281 44 281 56" />
      <polygon style="fill:none; clip-path:url(#clipPath22);" points=" 293 50 281 44 281 56" />
    </g>
    <g transform="translate(635,255)" style="font-size:14; stroke-linecap:butt; text-rendering:geometricPrecision; font-family:&apos;標楷體&apos;; stroke-linejoin:round;">
      <line x1="50" x2="77" y1="50" style="clip-path:url(#clipPath23); fill:none;" y2="50" />
      <line x1="77" x2="77" y1="50" style="clip-path:url(#clipPath23); fill:none;" y2="70" />
      <line x1="77" x2="54" y1="70" style="clip-path:url(#clipPath23); fill:none;" y2="70" />
      <polygon style="clip-path:url(#clipPath23); stroke:none;" points=" 54 70 66 76 66 64" />
      <polygon style="fill:none; clip-path:url(#clipPath23);" points=" 54 70 66 76 66 64" />
    </g>
    <g transform="translate(635,385)" style="font-size:14; stroke-linecap:butt; text-rendering:geometricPrecision; font-family:&apos;標楷體&apos;; stroke-linejoin:round;">
      <line x1="50" x2="77" y1="50" style="clip-path:url(#clipPath23); fill:none;" y2="50" />
      <line x1="77" x2="77" y1="50" style="clip-path:url(#clipPath23); fill:none;" y2="70" />
      <line x1="77" x2="54" y1="70" style="clip-path:url(#clipPath23); fill:none;" y2="70" />
      <polygon style="clip-path:url(#clipPath23); stroke:none;" points=" 54 70 66 76 66 64" />
      <polygon style="fill:none; clip-path:url(#clipPath23);" points=" 54 70 66 76 66 64" />
    </g>
    <g transform="translate(386,305)" style="font-size:14; stroke-linecap:butt; text-rendering:geometricPrecision; font-family:&apos;標楷體&apos;; stroke-linejoin:round; stroke-dasharray:8,3; stroke-miterlimit:0;">
      <line x1="293" x2="50" y1="50" style="clip-path:url(#clipPath22); fill:none;" y2="50" />
      <line x1="50" x2="62" y1="50" style="clip-path:url(#clipPath22); fill:none; stroke-dasharray:none; stroke-miterlimit:10;" y2="56" />
      <line x1="50" x2="62" y1="50" style="clip-path:url(#clipPath22); fill:none; stroke-dasharray:none; stroke-miterlimit:10;" y2="44" />
    </g>
    <g transform="translate(386,425)" style="font-size:14; stroke-linecap:butt; text-rendering:geometricPrecision; font-family:&apos;標楷體&apos;; stroke-linejoin:round; stroke-dasharray:8,3; stroke-miterlimit:0;">
      <line x1="293" x2="50" y1="50" style="clip-path:url(#clipPath22); fill:none;" y2="50" />
      <line x1="50" x2="62" y1="50" style="clip-path:url(#clipPath22); fill:none; stroke-dasharray:none; stroke-miterlimit:10;" y2="56" />
      <line x1="50" x2="62" y1="50" style="clip-path:url(#clipPath22); fill:none; stroke-dasharray:none; stroke-miterlimit:10;" y2="44" />
    </g>
    <g style="text-rendering:geometricPrecision; font-size:14; font-family:&apos;標楷體&apos;;" transform="translate(492,452)">
      <text x="10" y="16" style="clip-path:url(#clipPath24); stroke:none;" xml:space="preserve">回傳搜尋失敗訊息</text>
    </g>
    <g style="text-rendering:geometricPrecision; font-size:14; font-family:&apos;標楷體&apos;;" transform="translate(492,332)">
      <text x="10" y="16" style="clip-path:url(#clipPath24); stroke:none;" xml:space="preserve">回傳搜尋成功訊息</text>
    </g>
    <g style="text-rendering:geometricPrecision; font-size:14; font-family:&apos;標楷體&apos;;" transform="translate(712,436)">
      <text x="10" y="16" style="clip-path:url(#clipPath25); stroke:none;" xml:space="preserve">搜尋符合帳號密碼之使用者</text>
    </g>
    <g style="text-rendering:geometricPrecision; font-size:14; font-family:&apos;標楷體&apos;;" transform="translate(712,306)">
      <text x="10" y="16" style="clip-path:url(#clipPath25); stroke:none;" xml:space="preserve">搜尋符合帳號密碼之使用者</text>
    </g>
    <g style="text-rendering:geometricPrecision; font-size:14; font-family:&apos;標楷體&apos;;" transform="translate(498,242)">
      <text x="10" y="16" style="clip-path:url(#clipPath26); stroke:none;" xml:space="preserve">請求資料庫搜尋</text>
    </g>
    <g style="text-rendering:geometricPrecision; font-size:14; font-family:&apos;標楷體&apos;;" transform="translate(241,462)">
      <text x="10" y="16" style="clip-path:url(#clipPath27); stroke:none;" xml:space="preserve">顯示登入失敗</text>
    </g>
    <g style="text-rendering:geometricPrecision; font-size:14; font-family:&apos;標楷體&apos;;" transform="translate(241,352)">
      <text x="10" y="16" style="clip-path:url(#clipPath27); stroke:none;" xml:space="preserve">顯示登入成功</text>
    </g>
    <g style="text-rendering:geometricPrecision; font-size:14; font-family:&apos;標楷體&apos;;" transform="translate(241,172)">
      <text x="10" y="16" style="clip-path:url(#clipPath27); stroke:none;" xml:space="preserve">顯示驗證錯誤</text>
    </g>
    <g style="text-rendering:geometricPrecision; font-size:14; font-family:&apos;標楷體&apos;;" transform="translate(462,155)">
      <text x="10" y="16" style="clip-path:url(#clipPath28); stroke:none;" xml:space="preserve">檢查驗證碼</text>
    </g>
    <g style="text-rendering:geometricPrecision; font-size:14; font-family:&apos;標楷體&apos;;" transform="translate(184,92)">
      <text x="10" y="16" style="clip-path:url(#clipPath29); stroke:none;" xml:space="preserve">輸入帳號密碼及驗證碼請求登入</text>
    </g>
    <g style="fill:rgb(120,120,120); text-rendering:geometricPrecision; font-size:10; stroke:rgb(120,120,120);">
      <text xml:space="preserve" x="0" y="10" style="stroke:none;">Visual Paradigm for UML Personal Edition [not for commercial use] </text>
      <text xml:space="preserve" x="0" y="10" style="stroke:none;">Visual Paradigm for UML Personal Edition [not for commercial use] </text>
    </g>
  </g>
</svg>
