<?xml version="1.0" encoding="UTF-8"?>

<!DOCTYPE svg PUBLIC '-//W3C//DTD SVG 1.0//EN' 'http://www.w3.org/TR/2001/REC-SVG-20010904/DTD/svg10.dtd'>
<svg style="fill-opacity:1; color-rendering:auto; color-interpolation:auto; stroke:black; text-rendering:auto; stroke-linecap:square; stroke-miterlimit:10; stroke-opacity:1; shape-rendering:auto; fill:black; stroke-dasharray:none; font-weight:normal; stroke-width:1; font-family:&apos;Dialog&apos;; font-style:normal; stroke-linejoin:miter; font-size:12; stroke-dashoffset:0; image-rendering:auto;" xmlns="http://www.w3.org/2000/svg" width="924" xmlns:xlink="http://www.w3.org/1999/xlink" height="749">
  <!--Generated by the Batik Graphics2D SVG Generator-->
  <defs id="genericDefs" />
  <g>
    <defs id="defs1">
      <clipPath clipPathUnits="userSpaceOnUse" id="clipPath1">
        <path d="M-3 -3 L67 -3 L67 707 L-3 707 L-3 -3 Z" />
      </clipPath>
      <clipPath clipPathUnits="userSpaceOnUse" id="clipPath2">
        <path d="M-3 -3 L15 -3 L15 69 L-3 69 L-3 -3 Z" />
      </clipPath>
      <clipPath clipPathUnits="userSpaceOnUse" id="clipPath3">
        <path d="M-3 -3 L15 -3 L15 77 L-3 77 L-3 -3 Z" />
      </clipPath>
      <clipPath clipPathUnits="userSpaceOnUse" id="clipPath4">
        <path d="M-3 -3 L907 -3 L907 547 L-3 547 L-3 -3 Z" />
      </clipPath>
      <clipPath clipPathUnits="userSpaceOnUse" id="clipPath5">
        <path d="M0 0 L27 0 L27 20 L0 20 L0 0 Z" />
      </clipPath>
      <clipPath clipPathUnits="userSpaceOnUse" id="clipPath6">
        <path d="M-3 -3 L15 -3 L15 109 L-3 109 L-3 -3 Z" />
      </clipPath>
      <clipPath clipPathUnits="userSpaceOnUse" id="clipPath7">
        <path d="M-3 -3 L15 -3 L15 107 L-3 107 L-3 -3 Z" />
      </clipPath>
      <clipPath clipPathUnits="userSpaceOnUse" id="clipPath8">
        <path d="M-3 -3 L15 -3 L15 98 L-3 98 L-3 -3 Z" />
      </clipPath>
      <clipPath clipPathUnits="userSpaceOnUse" id="clipPath9">
        <path d="M-3 -3 L15 -3 L15 106 L-3 106 L-3 -3 Z" />
      </clipPath>
      <clipPath clipPathUnits="userSpaceOnUse" id="clipPath10">
        <path d="M-3 -3 L15 -3 L15 19 L-3 19 L-3 -3 Z" />
      </clipPath>
      <clipPath clipPathUnits="userSpaceOnUse" id="clipPath11">
        <path d="M-3 -3 L15 -3 L15 76 L-3 76 L-3 -3 Z" />
      </clipPath>
      <clipPath clipPathUnits="userSpaceOnUse" id="clipPath12">
        <path d="M-3 -3 L15 -3 L15 111 L-3 111 L-3 -3 Z" />
      </clipPath>
      <clipPath clipPathUnits="userSpaceOnUse" id="clipPath13">
        <path d="M-3 -3 L907 -3 L907 157 L-3 157 L-3 -3 Z" />
      </clipPath>
      <clipPath clipPathUnits="userSpaceOnUse" id="clipPath14">
        <path d="M0 0 L70 0 L70 17 L0 17 L0 0 Z" />
      </clipPath>
      <clipPath clipPathUnits="userSpaceOnUse" id="clipPath15">
        <path d="M0 0 L0 4 L900 4 L900 0 Z" />
      </clipPath>
      <clipPath clipPathUnits="userSpaceOnUse" id="clipPath16">
        <path d="M-3 -3 L907 -3 L907 127 L-3 127 L-3 -3 Z" />
      </clipPath>
      <clipPath clipPathUnits="userSpaceOnUse" id="clipPath17">
        <path d="M-3 -3 L907 -3 L907 147 L-3 147 L-3 -3 Z" />
      </clipPath>
      <clipPath clipPathUnits="userSpaceOnUse" id="clipPath18">
        <path d="M-3 -3 L907 -3 L907 117 L-3 117 L-3 -3 Z" />
      </clipPath>
      <clipPath clipPathUnits="userSpaceOnUse" id="clipPath19">
        <path d="M0 0 L60 0 L60 18 L0 18 L0 0 Z" />
      </clipPath>
      <clipPath clipPathUnits="userSpaceOnUse" id="clipPath20">
        <path d="M0 0 L62 0 L62 18 L0 18 L0 0 Z" />
      </clipPath>
      <clipPath clipPathUnits="userSpaceOnUse" id="clipPath21">
        <path d="M0 0 L412 0 L412 129 L0 129 L0 0 Z" />
      </clipPath>
      <clipPath clipPathUnits="userSpaceOnUse" id="clipPath22">
        <path d="M0 0 L346 0 L346 104 L0 104 L0 0 Z" />
      </clipPath>
      <clipPath clipPathUnits="userSpaceOnUse" id="clipPath23">
        <path d="M0 0 L130 0 L130 124 L0 124 L0 0 Z" />
      </clipPath>
      <clipPath clipPathUnits="userSpaceOnUse" id="clipPath24">
        <path d="M0 0 L174 0 L174 18 L0 18 L0 0 Z" />
      </clipPath>
      <clipPath clipPathUnits="userSpaceOnUse" id="clipPath25">
        <path d="M0 0 L168 0 L168 18 L0 18 L0 0 Z" />
      </clipPath>
      <clipPath clipPathUnits="userSpaceOnUse" id="clipPath26">
        <path d="M0 0 L98 0 L98 18 L0 18 L0 0 Z" />
      </clipPath>
      <clipPath clipPathUnits="userSpaceOnUse" id="clipPath27">
        <path d="M0 0 L118 0 L118 18 L0 18 L0 0 Z" />
      </clipPath>
      <clipPath clipPathUnits="userSpaceOnUse" id="clipPath28">
        <path d="M0 0 L132 0 L132 18 L0 18 L0 0 Z" />
      </clipPath>
      <clipPath clipPathUnits="userSpaceOnUse" id="clipPath29">
        <path d="M0 0 L111 0 L111 18 L0 18 L0 0 Z" />
      </clipPath>
      <clipPath clipPathUnits="userSpaceOnUse" id="clipPath30">
        <path d="M0 0 L125 0 L125 18 L0 18 L0 0 Z" />
      </clipPath>
      <clipPath clipPathUnits="userSpaceOnUse" id="clipPath31">
        <path d="M0 0 L202 0 L202 18 L0 18 L0 0 Z" />
      </clipPath>
      <clipPath clipPathUnits="userSpaceOnUse" id="clipPath32">
        <path d="M0 0 L292 0 L292 18 L0 18 L0 0 Z" />
      </clipPath>
      <clipPath clipPathUnits="userSpaceOnUse" id="clipPath33">
        <path d="M0 0 L300 0 L300 18 L0 18 L0 0 Z" />
      </clipPath>
      <clipPath clipPathUnits="userSpaceOnUse" id="clipPath34">
        <path d="M0 0 L104 0 L104 18 L0 18 L0 0 Z" />
      </clipPath>
    </defs>
    <g style="fill:white; text-rendering:geometricPrecision; stroke:white;">
      <rect x="0" y="0" width="924" style="stroke:none;" height="749" />
      <rect x="0" y="38" transform="translate(0,-38)" width="923" style="fill:none; stroke:black;" height="748" />
      <text x="7" y="57" transform="translate(0,-38)" style="fill:black; stroke:none; font-weight:bold;" xml:space="preserve">sd</text>
      <text x="28" y="57" transform="translate(0,-38)" style="fill:black; stroke:none;" xml:space="preserve">行事曆</text>
      <line transform="translate(0,-38)" x1="0" x2="64" y1="64" style="fill:none; stroke:black;" y2="64" />
      <line transform="translate(0,-38)" x1="70" x2="70" y1="38" style="fill:none; stroke:black;" y2="53" />
      <line transform="translate(0,-38)" x1="70" x2="64" y1="53" style="fill:none; stroke:black;" y2="64" />
    </g>
    <g transform="translate(130,35)" style="font-size:14; fill:rgb(122,207,245); text-rendering:geometricPrecision; font-family:&apos;標楷體&apos;; stroke:rgb(122,207,245);">
      <circle style="clip-path:url(#clipPath1); stroke:none;" r="5" cx="30" cy="5" />
      <rect x="26" y="53" width="8" style="clip-path:url(#clipPath1); stroke:none;" height="646" />
    </g>
    <g transform="translate(130,35)" style="font-size:14; stroke-linecap:butt; text-rendering:geometricPrecision; font-family:&apos;標楷體&apos;; stroke-linejoin:round; stroke-miterlimit:0;">
      <circle style="fill:none; clip-path:url(#clipPath1);" r="5" cx="30" cy="5" />
      <rect x="26" y="53" width="8" style="clip-path:url(#clipPath1); fill:none;" height="646" />
      <line x1="30" x2="30" y1="10" style="clip-path:url(#clipPath1); fill:none;" y2="25" />
      <line x1="30" x2="21" y1="25" style="clip-path:url(#clipPath1); fill:none;" y2="36" />
      <line x1="30" x2="39" y1="25" style="clip-path:url(#clipPath1); fill:none;" y2="36" />
      <line x1="21" x2="39" y1="16" style="clip-path:url(#clipPath1); fill:none;" y2="16" />
    </g>
    <g transform="translate(420,35)" style="font-size:14; fill:rgb(122,207,245); text-rendering:geometricPrecision; font-family:&apos;標楷體&apos;; stroke:rgb(122,207,245);">
      <rect x="0" y="0" width="59" style="clip-path:url(#clipPath1); stroke:none;" height="35" />
    </g>
    <g transform="translate(420,35)" style="font-size:14; stroke-linecap:butt; text-rendering:geometricPrecision; font-family:&apos;標楷體&apos;; stroke-linejoin:round; stroke-miterlimit:0;">
      <rect x="0" y="0" width="59" style="clip-path:url(#clipPath1); fill:none;" height="35" />
      <line x1="29" x2="29" y1="35" style="clip-path:url(#clipPath1); fill:none; stroke-linejoin:bevel; stroke-dasharray:8,3;" y2="700" />
    </g>
    <g transform="translate(446,99)" style="font-size:14; fill:rgb(122,207,245); text-rendering:geometricPrecision; font-family:&apos;標楷體&apos;; stroke:rgb(122,207,245);">
      <rect x="0" y="0" width="8" style="clip-path:url(#clipPath2); stroke:none;" height="62" />
    </g>
    <g transform="translate(446,99)" style="font-size:14; stroke-linecap:butt; text-rendering:geometricPrecision; font-family:&apos;標楷體&apos;; stroke-linejoin:round; stroke-miterlimit:0;">
      <rect x="0" y="0" width="8" style="clip-path:url(#clipPath2); fill:none;" height="62" />
    </g>
    <g transform="translate(670,35)" style="font-size:14; fill:rgb(122,207,245); text-rendering:geometricPrecision; font-family:&apos;標楷體&apos;; stroke:rgb(122,207,245);">
      <rect x="0" y="0" width="59" style="clip-path:url(#clipPath1); stroke:none;" height="35" />
    </g>
    <g transform="translate(670,35)" style="font-size:14; stroke-linecap:butt; text-rendering:geometricPrecision; font-family:&apos;標楷體&apos;; stroke-linejoin:round; stroke-miterlimit:0;">
      <rect x="0" y="0" width="59" style="clip-path:url(#clipPath1); fill:none;" height="35" />
      <line x1="29" x2="29" y1="35" style="clip-path:url(#clipPath1); fill:none; stroke-linejoin:bevel; stroke-dasharray:8,3;" y2="700" />
    </g>
    <g transform="translate(696,92)" style="font-size:11; fill:rgb(122,207,245); text-rendering:geometricPrecision; font-family:sans-serif; stroke:rgb(122,207,245);">
      <rect x="0" y="0" width="8" style="clip-path:url(#clipPath3); stroke:none;" height="70" />
    </g>
    <g transform="translate(696,92)" style="font-size:11; stroke-linecap:butt; text-rendering:geometricPrecision; font-family:sans-serif; stroke-linejoin:round; stroke-miterlimit:0;">
      <rect x="0" y="0" width="8" style="clip-path:url(#clipPath3); fill:none;" height="70" />
    </g>
    <g transform="translate(10,175)" style="font-size:11; stroke-linecap:butt; text-rendering:geometricPrecision; font-family:sans-serif; stroke-linejoin:round; font-weight:bold; stroke-miterlimit:0;">
      <rect x="0" y="0" width="900" style="clip-path:url(#clipPath4); fill:none;" height="540" />
    </g>
    <g transform="translate(10,175)" style="font-size:11; fill:white; text-rendering:geometricPrecision; font-family:sans-serif; stroke:white; font-weight:bold;">
      <path d="M26 0 L26 10 L20 19 L0 19 L0 0 Z" style="clip-path:url(#clipPath4); stroke:none;" />
    </g>
    <g transform="translate(10,175)" style="font-size:11; stroke-linecap:butt; text-rendering:geometricPrecision; font-family:sans-serif; stroke-linejoin:round; font-weight:bold; stroke-miterlimit:0;">
      <path d="M26 0 L26 10 L20 19 L0 19 L0 0 Z" style="fill:none; clip-path:url(#clipPath4);" />
    </g>
    <g transform="translate(10,175)" style="text-rendering:geometricPrecision; font-size:11; font-weight:bold; font-family:sans-serif;">
      <text x="4" y="14" style="clip-path:url(#clipPath5); stroke:none;" xml:space="preserve">opt</text>
    </g>
    <g transform="translate(446,195)" style="font-size:11; fill:rgb(122,207,245); text-rendering:geometricPrecision; font-family:sans-serif; stroke:rgb(122,207,245);">
      <rect x="0" y="0" width="8" style="clip-path:url(#clipPath6); stroke:none;" height="102" />
    </g>
    <g transform="translate(446,195)" style="font-size:11; stroke-linecap:butt; text-rendering:geometricPrecision; font-family:sans-serif; stroke-linejoin:round; stroke-miterlimit:0;">
      <rect x="0" y="0" width="8" style="clip-path:url(#clipPath6); fill:none;" height="102" />
    </g>
    <g transform="translate(446,475)" style="font-size:11; fill:rgb(122,207,245); text-rendering:geometricPrecision; font-family:sans-serif; stroke:rgb(122,207,245);">
      <rect x="0" y="0" width="8" style="clip-path:url(#clipPath7); stroke:none;" height="100" />
    </g>
    <g transform="translate(446,475)" style="font-size:11; stroke-linecap:butt; text-rendering:geometricPrecision; font-family:sans-serif; stroke-linejoin:round; stroke-miterlimit:0;">
      <rect x="0" y="0" width="8" style="clip-path:url(#clipPath7); fill:none;" height="100" />
    </g>
    <g transform="translate(446,338)" style="font-size:11; fill:rgb(122,207,245); text-rendering:geometricPrecision; font-family:sans-serif; stroke:rgb(122,207,245);">
      <rect x="0" y="0" width="8" style="clip-path:url(#clipPath8); stroke:none;" height="91" />
    </g>
    <g transform="translate(446,338)" style="font-size:11; stroke-linecap:butt; text-rendering:geometricPrecision; font-family:sans-serif; stroke-linejoin:round; stroke-miterlimit:0;">
      <rect x="0" y="0" width="8" style="clip-path:url(#clipPath8); fill:none;" height="91" />
    </g>
    <g transform="translate(696,198)" style="font-size:11; fill:rgb(122,207,245); text-rendering:geometricPrecision; font-family:sans-serif; stroke:rgb(122,207,245);">
      <rect x="0" y="0" width="8" style="clip-path:url(#clipPath9); stroke:none;" height="99" />
    </g>
    <g transform="translate(696,198)" style="font-size:11; stroke-linecap:butt; text-rendering:geometricPrecision; font-family:sans-serif; stroke-linejoin:round; stroke-miterlimit:0;">
      <rect x="0" y="0" width="8" style="clip-path:url(#clipPath9); fill:none;" height="99" />
    </g>
    <g transform="translate(700,255)" style="font-size:11; fill:rgb(122,207,245); text-rendering:geometricPrecision; font-family:sans-serif; stroke:rgb(122,207,245);">
      <rect x="0" y="0" width="8" style="clip-path:url(#clipPath10); stroke:none;" height="12" />
    </g>
    <g transform="translate(700,255)" style="font-size:11; stroke-linecap:butt; text-rendering:geometricPrecision; font-family:sans-serif; stroke-linejoin:round; stroke-miterlimit:0;">
      <rect x="0" y="0" width="8" style="clip-path:url(#clipPath10); fill:none;" height="12" />
    </g>
    <g transform="translate(446,635)" style="font-size:11; fill:rgb(122,207,245); text-rendering:geometricPrecision; font-family:sans-serif; stroke:rgb(122,207,245);">
      <rect x="0" y="0" width="8" style="clip-path:url(#clipPath11); stroke:none;" height="69" />
    </g>
    <g transform="translate(446,635)" style="font-size:11; stroke-linecap:butt; text-rendering:geometricPrecision; font-family:sans-serif; stroke-linejoin:round; stroke-miterlimit:0;">
      <rect x="0" y="0" width="8" style="clip-path:url(#clipPath11); fill:none;" height="69" />
    </g>
    <g transform="translate(696,337)" style="font-size:11; fill:rgb(122,207,245); text-rendering:geometricPrecision; font-family:sans-serif; stroke:rgb(122,207,245);">
      <rect x="0" y="0" width="8" style="clip-path:url(#clipPath12); stroke:none;" height="104" />
    </g>
    <g transform="translate(696,337)" style="font-size:11; stroke-linecap:butt; text-rendering:geometricPrecision; font-family:sans-serif; stroke-linejoin:round; stroke-miterlimit:0;">
      <rect x="0" y="0" width="8" style="clip-path:url(#clipPath12); fill:none;" height="104" />
    </g>
    <g transform="translate(700,395)" style="font-size:11; fill:rgb(122,207,245); text-rendering:geometricPrecision; font-family:sans-serif; stroke:rgb(122,207,245);">
      <rect x="0" y="0" width="8" style="clip-path:url(#clipPath10); stroke:none;" height="12" />
    </g>
    <g transform="translate(700,395)" style="font-size:11; stroke-linecap:butt; text-rendering:geometricPrecision; font-family:sans-serif; stroke-linejoin:round; stroke-miterlimit:0;">
      <rect x="0" y="0" width="8" style="clip-path:url(#clipPath10); fill:none;" height="12" />
    </g>
    <g transform="translate(10,455)" style="font-size:11; fill:white; text-rendering:geometricPrecision; font-family:sans-serif; stroke:white;">
      <rect x="28" y="5" width="70" style="clip-path:url(#clipPath13); stroke:none;" height="17" />
    </g>
    <g transform="translate(10,455)" style="font-size:11; stroke-linecap:butt; text-rendering:geometricPrecision; font-family:sans-serif; stroke-linejoin:bevel; stroke-dasharray:5,2; stroke-miterlimit:0;">
      <line x1="0" x2="899" y1="149" style="clip-path:url(#clipPath13); fill:none;" y2="149" />
    </g>
    <g style="text-rendering:geometricPrecision; font-size:11; font-family:sans-serif;" transform="translate(38,460)">
      <text x="10" y="14" style="clip-path:url(#clipPath14); stroke:none;" xml:space="preserve">[修改行程]</text>
    </g>
    <g transform="translate(696,479)" style="font-size:11; fill:rgb(122,207,245); text-rendering:geometricPrecision; font-family:sans-serif; stroke:rgb(122,207,245);">
      <rect x="0" y="0" width="8" style="clip-path:url(#clipPath7); stroke:none;" height="100" />
    </g>
    <g transform="translate(696,479)" style="font-size:11; stroke-linecap:butt; text-rendering:geometricPrecision; font-family:sans-serif; stroke-linejoin:round; stroke-miterlimit:0;">
      <rect x="0" y="0" width="8" style="clip-path:url(#clipPath7); fill:none;" height="100" />
    </g>
    <g transform="translate(700,535)" style="font-size:11; fill:rgb(122,207,245); text-rendering:geometricPrecision; font-family:sans-serif; stroke:rgb(122,207,245);">
      <rect x="0" y="0" width="8" style="clip-path:url(#clipPath10); stroke:none;" height="12" />
    </g>
    <g transform="translate(700,535)" style="font-size:11; stroke-linecap:butt; text-rendering:geometricPrecision; font-family:sans-serif; stroke-linejoin:round; stroke-miterlimit:0;">
      <rect x="0" y="0" width="8" style="clip-path:url(#clipPath10); fill:none;" height="12" />
    </g>
    <g transform="translate(10,195)" style="font-size:11; fill:white; text-rendering:geometricPrecision; font-family:sans-serif; stroke:white;">
      <rect x="28" y="5" width="70" style="clip-path:url(#clipPath16); stroke:none;" height="17" />
    </g>
    <g transform="translate(10,195)" style="font-size:11; stroke-linecap:butt; text-rendering:geometricPrecision; font-family:sans-serif; stroke-linejoin:bevel; stroke-dasharray:5,2; stroke-miterlimit:0;">
      <line x1="0" x2="899" y1="119" style="clip-path:url(#clipPath16); fill:none;" y2="119" />
    </g>
    <g style="text-rendering:geometricPrecision; font-size:11; font-family:sans-serif;" transform="translate(38,200)">
      <text x="10" y="14" style="clip-path:url(#clipPath14); stroke:none;" xml:space="preserve">[新增行程]</text>
    </g>
    <g transform="translate(10,315)" style="font-size:11; fill:white; text-rendering:geometricPrecision; font-family:sans-serif; stroke:white;">
      <rect x="28" y="5" width="70" style="clip-path:url(#clipPath17); stroke:none;" height="17" />
    </g>
    <g transform="translate(10,315)" style="font-size:11; stroke-linecap:butt; text-rendering:geometricPrecision; font-family:sans-serif; stroke-linejoin:bevel; stroke-dasharray:5,2; stroke-miterlimit:0;">
      <line x1="0" x2="899" y1="139" style="clip-path:url(#clipPath17); fill:none;" y2="139" />
    </g>
    <g style="text-rendering:geometricPrecision; font-size:11; font-family:sans-serif;" transform="translate(38,320)">
      <text x="10" y="14" style="clip-path:url(#clipPath14); stroke:none;" xml:space="preserve">[刪除行程]</text>
    </g>
    <g transform="translate(10,605)" style="font-size:11; fill:white; text-rendering:geometricPrecision; font-family:sans-serif; stroke:white;">
      <rect x="28" y="5" width="70" style="clip-path:url(#clipPath18); stroke:none;" height="17" />
    </g>
    <g style="text-rendering:geometricPrecision; font-size:11; font-family:sans-serif;" transform="translate(38,610)">
      <text x="10" y="14" style="clip-path:url(#clipPath14); stroke:none;" xml:space="preserve">[查詢行程]</text>
    </g>
    <g style="text-rendering:geometricPrecision; font-size:14; font-family:&apos;標楷體&apos;;" transform="translate(670,35)">
      <text x="9" y="16" style="clip-path:url(#clipPath19); stroke:none;" xml:space="preserve">資料庫</text>
    </g>
    <g style="text-rendering:geometricPrecision; font-size:14; font-family:&apos;標楷體&apos;;" transform="translate(420,35)">
      <text x="16" y="16" style="clip-path:url(#clipPath19); stroke:none;" xml:space="preserve">系統</text>
    </g>
    <g style="text-rendering:geometricPrecision; font-size:14; font-family:&apos;標楷體&apos;;" transform="translate(129,70)">
      <text x="10" y="16" style="clip-path:url(#clipPath20); stroke:none;" xml:space="preserve">使用者</text>
    </g>
    <g transform="translate(101,53)" style="font-size:14; stroke-linecap:butt; text-rendering:geometricPrecision; font-family:&apos;標楷體&apos;; stroke-linejoin:round;">
      <line x1="63" x2="345" y1="63" style="clip-path:url(#clipPath21); fill:none;" y2="63" />
      <polygon style="clip-path:url(#clipPath21); stroke:none;" points=" 345 63 333 57 333 69" />
      <polygon style="fill:none; clip-path:url(#clipPath21);" points=" 345 63 333 57 333 69" />
    </g>
    <g transform="translate(101,293)" style="font-size:14; stroke-linecap:butt; text-rendering:geometricPrecision; font-family:&apos;標楷體&apos;; stroke-linejoin:round;">
      <line x1="63" x2="345" y1="63" style="clip-path:url(#clipPath21); fill:none;" y2="63" />
      <polygon style="clip-path:url(#clipPath21); stroke:none;" points=" 345 63 333 57 333 69" />
      <polygon style="fill:none; clip-path:url(#clipPath21);" points=" 345 63 333 57 333 69" />
    </g>
    <g transform="translate(101,433)" style="font-size:14; stroke-linecap:butt; text-rendering:geometricPrecision; font-family:&apos;標楷體&apos;; stroke-linejoin:round;">
      <line x1="63" x2="345" y1="63" style="clip-path:url(#clipPath21); fill:none;" y2="63" />
      <polygon style="clip-path:url(#clipPath21); stroke:none;" points=" 345 63 333 57 333 69" />
      <polygon style="fill:none; clip-path:url(#clipPath21);" points=" 345 63 333 57 333 69" />
    </g>
    <g transform="translate(101,153)" style="font-size:14; stroke-linecap:butt; text-rendering:geometricPrecision; font-family:&apos;標楷體&apos;; stroke-linejoin:round;">
      <line x1="63" x2="345" y1="63" style="clip-path:url(#clipPath21); fill:none;" y2="63" />
      <polygon style="clip-path:url(#clipPath21); stroke:none;" points=" 345 63 333 57 333 69" />
      <polygon style="fill:none; clip-path:url(#clipPath21);" points=" 345 63 333 57 333 69" />
    </g>
    <g transform="translate(101,573)" style="font-size:14; stroke-linecap:butt; text-rendering:geometricPrecision; font-family:&apos;標楷體&apos;; stroke-linejoin:round;">
      <line x1="63" x2="345" y1="63" style="clip-path:url(#clipPath21); fill:none;" y2="63" />
      <polygon style="clip-path:url(#clipPath21); stroke:none;" points=" 345 63 333 57 333 69" />
      <polygon style="fill:none; clip-path:url(#clipPath21);" points=" 345 63 333 57 333 69" />
    </g>
    <g transform="translate(101,83)" style="font-size:14; stroke-linecap:butt; text-rendering:geometricPrecision; font-family:&apos;標楷體&apos;; stroke-linejoin:round; stroke-dasharray:8,3; stroke-miterlimit:0;">
      <line x1="345" x2="63" y1="63" style="clip-path:url(#clipPath21); fill:none;" y2="63" />
      <line x1="63" x2="75" y1="63" style="clip-path:url(#clipPath21); fill:none; stroke-dasharray:none; stroke-miterlimit:10;" y2="69" />
      <line x1="63" x2="75" y1="63" style="clip-path:url(#clipPath21); fill:none; stroke-dasharray:none; stroke-miterlimit:10;" y2="57" />
    </g>
    <g transform="translate(101,343)" style="font-size:14; stroke-linecap:butt; text-rendering:geometricPrecision; font-family:&apos;標楷體&apos;; stroke-linejoin:round; stroke-dasharray:8,3; stroke-miterlimit:0;">
      <line x1="345" x2="63" y1="63" style="clip-path:url(#clipPath21); fill:none;" y2="63" />
      <line x1="63" x2="75" y1="63" style="clip-path:url(#clipPath21); fill:none; stroke-dasharray:none; stroke-miterlimit:10;" y2="69" />
      <line x1="63" x2="75" y1="63" style="clip-path:url(#clipPath21); fill:none; stroke-dasharray:none; stroke-miterlimit:10;" y2="57" />
    </g>
    <g transform="translate(101,483)" style="font-size:14; stroke-linecap:butt; text-rendering:geometricPrecision; font-family:&apos;標楷體&apos;; stroke-linejoin:round; stroke-dasharray:8,3; stroke-miterlimit:0;">
      <line x1="345" x2="63" y1="63" style="clip-path:url(#clipPath21); fill:none;" y2="63" />
      <line x1="63" x2="75" y1="63" style="clip-path:url(#clipPath21); fill:none; stroke-dasharray:none; stroke-miterlimit:10;" y2="69" />
      <line x1="63" x2="75" y1="63" style="clip-path:url(#clipPath21); fill:none; stroke-dasharray:none; stroke-miterlimit:10;" y2="57" />
    </g>
    <g transform="translate(101,213)" style="font-size:14; stroke-linecap:butt; text-rendering:geometricPrecision; font-family:&apos;標楷體&apos;; stroke-linejoin:round; stroke-dasharray:8,3; stroke-miterlimit:0;">
      <line x1="345" x2="63" y1="63" style="clip-path:url(#clipPath21); fill:none;" y2="63" />
      <line x1="63" x2="75" y1="63" style="clip-path:url(#clipPath21); fill:none; stroke-dasharray:none; stroke-miterlimit:10;" y2="69" />
      <line x1="63" x2="75" y1="63" style="clip-path:url(#clipPath21); fill:none; stroke-dasharray:none; stroke-miterlimit:10;" y2="57" />
    </g>
    <g transform="translate(101,623)" style="font-size:14; stroke-linecap:butt; text-rendering:geometricPrecision; font-family:&apos;標楷體&apos;; stroke-linejoin:round; stroke-dasharray:8,3; stroke-miterlimit:0;">
      <line x1="345" x2="63" y1="63" style="clip-path:url(#clipPath21); fill:none;" y2="63" />
      <line x1="63" x2="75" y1="63" style="clip-path:url(#clipPath21); fill:none; stroke-dasharray:none; stroke-miterlimit:10;" y2="69" />
      <line x1="63" x2="75" y1="63" style="clip-path:url(#clipPath21); fill:none; stroke-dasharray:none; stroke-miterlimit:10;" y2="57" />
    </g>
    <g transform="translate(404,65)" style="font-size:14; stroke-linecap:butt; text-rendering:geometricPrecision; font-family:&apos;標楷體&apos;; stroke-linejoin:round;">
      <line x1="50" x2="292" y1="50" style="clip-path:url(#clipPath22); fill:none;" y2="50" />
      <polygon style="clip-path:url(#clipPath22); stroke:none;" points=" 292 50 280 44 280 56" />
      <polygon style="fill:none; clip-path:url(#clipPath22);" points=" 292 50 280 44 280 56" />
    </g>
    <g transform="translate(404,165)" style="font-size:14; stroke-linecap:butt; text-rendering:geometricPrecision; font-family:&apos;標楷體&apos;; stroke-linejoin:round;">
      <line x1="50" x2="292" y1="50" style="clip-path:url(#clipPath22); fill:none;" y2="50" />
      <polygon style="clip-path:url(#clipPath22); stroke:none;" points=" 292 50 280 44 280 56" />
      <polygon style="fill:none; clip-path:url(#clipPath22);" points=" 292 50 280 44 280 56" />
    </g>
    <g transform="translate(654,185)" style="font-size:14; stroke-linecap:butt; text-rendering:geometricPrecision; font-family:&apos;標楷體&apos;; stroke-linejoin:round;">
      <line x1="50" x2="76" y1="50" style="clip-path:url(#clipPath23); fill:none;" y2="50" />
      <line x1="76" x2="76" y1="50" style="clip-path:url(#clipPath23); fill:none;" y2="70" />
      <line x1="76" x2="54" y1="70" style="clip-path:url(#clipPath23); fill:none;" y2="70" />
      <polygon style="clip-path:url(#clipPath23); stroke:none;" points=" 54 70 66 76 66 64" />
      <polygon style="fill:none; clip-path:url(#clipPath23);" points=" 54 70 66 76 66 64" />
    </g>
    <g transform="translate(404,305)" style="font-size:14; stroke-linecap:butt; text-rendering:geometricPrecision; font-family:&apos;標楷體&apos;; stroke-linejoin:round;">
      <line x1="50" x2="292" y1="50" style="clip-path:url(#clipPath22); fill:none;" y2="50" />
      <polygon style="clip-path:url(#clipPath22); stroke:none;" points=" 292 50 280 44 280 56" />
      <polygon style="fill:none; clip-path:url(#clipPath22);" points=" 292 50 280 44 280 56" />
    </g>
    <g transform="translate(654,325)" style="font-size:14; stroke-linecap:butt; text-rendering:geometricPrecision; font-family:&apos;標楷體&apos;; stroke-linejoin:round;">
      <line x1="50" x2="76" y1="50" style="clip-path:url(#clipPath23); fill:none;" y2="50" />
      <line x1="76" x2="76" y1="50" style="clip-path:url(#clipPath23); fill:none;" y2="70" />
      <line x1="76" x2="54" y1="70" style="clip-path:url(#clipPath23); fill:none;" y2="70" />
      <polygon style="clip-path:url(#clipPath23); stroke:none;" points=" 54 70 66 76 66 64" />
      <polygon style="fill:none; clip-path:url(#clipPath23);" points=" 54 70 66 76 66 64" />
    </g>
    <g transform="translate(404,445)" style="font-size:14; stroke-linecap:butt; text-rendering:geometricPrecision; font-family:&apos;標楷體&apos;; stroke-linejoin:round;">
      <line x1="50" x2="292" y1="50" style="clip-path:url(#clipPath22); fill:none;" y2="50" />
      <polygon style="clip-path:url(#clipPath22); stroke:none;" points=" 292 50 280 44 280 56" />
      <polygon style="fill:none; clip-path:url(#clipPath22);" points=" 292 50 280 44 280 56" />
    </g>
    <g transform="translate(654,465)" style="font-size:14; stroke-linecap:butt; text-rendering:geometricPrecision; font-family:&apos;標楷體&apos;; stroke-linejoin:round;">
      <line x1="50" x2="76" y1="50" style="clip-path:url(#clipPath23); fill:none;" y2="50" />
      <line x1="76" x2="76" y1="50" style="clip-path:url(#clipPath23); fill:none;" y2="70" />
      <line x1="76" x2="54" y1="70" style="clip-path:url(#clipPath23); fill:none;" y2="70" />
      <polygon style="clip-path:url(#clipPath23); stroke:none;" points=" 54 70 66 76 66 64" />
      <polygon style="fill:none; clip-path:url(#clipPath23);" points=" 54 70 66 76 66 64" />
    </g>
    <g transform="translate(404,95)" style="font-size:14; stroke-linecap:butt; text-rendering:geometricPrecision; font-family:&apos;標楷體&apos;; stroke-linejoin:round; stroke-dasharray:8,3; stroke-miterlimit:0;">
      <line x1="292" x2="50" y1="50" style="clip-path:url(#clipPath22); fill:none;" y2="50" />
      <line x1="50" x2="62" y1="50" style="clip-path:url(#clipPath22); fill:none; stroke-dasharray:none; stroke-miterlimit:10;" y2="56" />
      <line x1="50" x2="62" y1="50" style="clip-path:url(#clipPath22); fill:none; stroke-dasharray:none; stroke-miterlimit:10;" y2="44" />
    </g>
    <g transform="translate(404,225)" style="font-size:14; stroke-linecap:butt; text-rendering:geometricPrecision; font-family:&apos;標楷體&apos;; stroke-linejoin:round; stroke-dasharray:8,3; stroke-miterlimit:0;">
      <line x1="292" x2="50" y1="50" style="clip-path:url(#clipPath22); fill:none;" y2="50" />
      <line x1="50" x2="62" y1="50" style="clip-path:url(#clipPath22); fill:none; stroke-dasharray:none; stroke-miterlimit:10;" y2="56" />
      <line x1="50" x2="62" y1="50" style="clip-path:url(#clipPath22); fill:none; stroke-dasharray:none; stroke-miterlimit:10;" y2="44" />
    </g>
    <g transform="translate(404,355)" style="font-size:14; stroke-linecap:butt; text-rendering:geometricPrecision; font-family:&apos;標楷體&apos;; stroke-linejoin:round; stroke-dasharray:8,3; stroke-miterlimit:0;">
      <line x1="292" x2="50" y1="50" style="clip-path:url(#clipPath22); fill:none;" y2="50" />
      <line x1="50" x2="62" y1="50" style="clip-path:url(#clipPath22); fill:none; stroke-dasharray:none; stroke-miterlimit:10;" y2="56" />
      <line x1="50" x2="62" y1="50" style="clip-path:url(#clipPath22); fill:none; stroke-dasharray:none; stroke-miterlimit:10;" y2="44" />
    </g>
    <g transform="translate(404,495)" style="font-size:14; stroke-linecap:butt; text-rendering:geometricPrecision; font-family:&apos;標楷體&apos;; stroke-linejoin:round; stroke-dasharray:8,3; stroke-miterlimit:0;">
      <line x1="292" x2="50" y1="50" style="clip-path:url(#clipPath22); fill:none;" y2="50" />
      <line x1="50" x2="62" y1="50" style="clip-path:url(#clipPath22); fill:none; stroke-dasharray:none; stroke-miterlimit:10;" y2="56" />
      <line x1="50" x2="62" y1="50" style="clip-path:url(#clipPath22); fill:none; stroke-dasharray:none; stroke-miterlimit:10;" y2="44" />
    </g>
    <g style="text-rendering:geometricPrecision; font-size:14; font-family:&apos;標楷體&apos;;" transform="translate(488,523)">
      <text x="10" y="16" style="clip-path:url(#clipPath24); stroke:none;" xml:space="preserve">13.2: 回傳修改行程成功</text>
    </g>
    <g style="text-rendering:geometricPrecision; font-size:14; font-family:&apos;標楷體&apos;;" transform="translate(491,383)">
      <text x="10" y="16" style="clip-path:url(#clipPath25); stroke:none;" xml:space="preserve">8.2: 回傳刪除行程成功</text>
    </g>
    <g style="text-rendering:geometricPrecision; font-size:14; font-family:&apos;標楷體&apos;;" transform="translate(491,251)">
      <text x="10" y="16" style="clip-path:url(#clipPath25); stroke:none;" xml:space="preserve">5.2: 回傳新增行程成功</text>
    </g>
    <g style="text-rendering:geometricPrecision; font-size:14; font-family:&apos;標楷體&apos;;" transform="translate(526,123)">
      <text x="10" y="16" style="clip-path:url(#clipPath26); stroke:none;" xml:space="preserve">4: 回傳行程</text>
    </g>
    <g style="text-rendering:geometricPrecision; font-size:14; font-family:&apos;標楷體&apos;;" transform="translate(730,515)">
      <text x="10" y="16" style="clip-path:url(#clipPath27); stroke:none;" xml:space="preserve">13.1: 更新成功</text>
    </g>
    <g style="text-rendering:geometricPrecision; font-size:14; font-family:&apos;標楷體&apos;;" transform="translate(509,473)">
      <text x="10" y="16" style="clip-path:url(#clipPath28); stroke:none;" xml:space="preserve">13: 要求修改行程</text>
    </g>
    <g style="text-rendering:geometricPrecision; font-size:14; font-family:&apos;標楷體&apos;;" transform="translate(730,375)">
      <text x="10" y="16" style="clip-path:url(#clipPath29); stroke:none;" xml:space="preserve">8.1: 更新成功</text>
    </g>
    <g style="text-rendering:geometricPrecision; font-size:14; font-family:&apos;標楷體&apos;;" transform="translate(512,333)">
      <text x="10" y="16" style="clip-path:url(#clipPath30); stroke:none;" xml:space="preserve">8: 要求刪除行程</text>
    </g>
    <g style="text-rendering:geometricPrecision; font-size:14; font-family:&apos;標楷體&apos;;" transform="translate(730,235)">
      <text x="10" y="16" style="clip-path:url(#clipPath29); stroke:none;" xml:space="preserve">5.1: 更新成功</text>
    </g>
    <g style="text-rendering:geometricPrecision; font-size:14; font-family:&apos;標楷體&apos;;" transform="translate(512,191)">
      <text x="10" y="16" style="clip-path:url(#clipPath30); stroke:none;" xml:space="preserve">5: 要求新增行程</text>
    </g>
    <g style="text-rendering:geometricPrecision; font-size:14; font-family:&apos;標楷體&apos;;" transform="translate(526,93)">
      <text x="10" y="16" style="clip-path:url(#clipPath26); stroke:none;" xml:space="preserve">3: 查詢行程</text>
    </g>
    <g style="text-rendering:geometricPrecision; font-size:14; font-family:&apos;標楷體&apos;;" transform="translate(204,661)">
      <text x="10" y="16" style="clip-path:url(#clipPath31); stroke:none;" xml:space="preserve">15: 在行事曆顯示查詢的行程</text>
    </g>
    <g style="text-rendering:geometricPrecision; font-size:14; font-family:&apos;標楷體&apos;;" transform="translate(159,251)">
      <text x="9" y="16" style="clip-path:url(#clipPath32); stroke:none;" xml:space="preserve">7: 回傳新增成功訊息並將行程新增於行事曆</text>
    </g>
    <g style="text-rendering:geometricPrecision; font-size:14; font-family:&apos;標楷體&apos;;" transform="translate(155,521)">
      <text x="10" y="16" style="clip-path:url(#clipPath33); stroke:none;" xml:space="preserve">12: 回傳修改成功訊息並將行程於行事曆修改</text>
    </g>
    <g style="text-rendering:geometricPrecision; font-size:14; font-family:&apos;標楷體&apos;;" transform="translate(155,381)">
      <text x="10" y="16" style="clip-path:url(#clipPath33); stroke:none;" xml:space="preserve">10: 回傳刪除成功訊息並將行程於行事曆刪除</text>
    </g>
    <g style="text-rendering:geometricPrecision; font-size:14; font-family:&apos;標楷體&apos;;" transform="translate(256,121)">
      <text x="10" y="16" style="clip-path:url(#clipPath26); stroke:none;" xml:space="preserve">2: 顯示行程</text>
    </g>
    <g style="text-rendering:geometricPrecision; font-size:14; font-family:&apos;標楷體&apos;;" transform="translate(252,611)">
      <text x="10" y="16" style="clip-path:url(#clipPath34); stroke:none;" xml:space="preserve">14: 查詢行程</text>
    </g>
    <g style="text-rendering:geometricPrecision; font-size:14; font-family:&apos;標楷體&apos;;" transform="translate(256,191)">
      <text x="10" y="16" style="clip-path:url(#clipPath26); stroke:none;" xml:space="preserve">6: 新增行程</text>
    </g>
    <g style="text-rendering:geometricPrecision; font-size:14; font-family:&apos;標楷體&apos;;" transform="translate(252,471)">
      <text x="10" y="16" style="clip-path:url(#clipPath34); stroke:none;" xml:space="preserve">11: 修改行程</text>
    </g>
    <g style="text-rendering:geometricPrecision; font-size:14; font-family:&apos;標楷體&apos;;" transform="translate(256,331)">
      <text x="10" y="16" style="clip-path:url(#clipPath26); stroke:none;" xml:space="preserve">9: 刪除行程</text>
    </g>
    <g style="text-rendering:geometricPrecision; font-size:14; font-family:&apos;標楷體&apos;;" transform="translate(256,91)">
      <text x="10" y="16" style="clip-path:url(#clipPath26); stroke:none;" xml:space="preserve">1: 瀏覽行程</text>
    </g>
    <g style="fill:rgb(120,120,120); text-rendering:geometricPrecision; font-size:10; stroke:rgb(120,120,120);">
    </g>
  </g>
</svg>
