<?xml version="1.0" encoding="UTF-8"?>

<!DOCTYPE svg PUBLIC '-//W3C//DTD SVG 1.0//EN' 'http://www.w3.org/TR/2001/REC-SVG-20010904/DTD/svg10.dtd'>
<svg style="fill-opacity:1; color-rendering:auto; color-interpolation:auto; stroke:black; text-rendering:auto; stroke-linecap:square; stroke-miterlimit:10; stroke-opacity:1; shape-rendering:auto; fill:black; stroke-dasharray:none; font-weight:normal; stroke-width:1; font-family:&apos;Dialog&apos;; font-style:normal; stroke-linejoin:miter; font-size:12; stroke-dashoffset:0; image-rendering:auto;" xmlns="http://www.w3.org/2000/svg" width="679" xmlns:xlink="http://www.w3.org/1999/xlink" height="409">
  <!--Generated by the Batik Graphics2D SVG Generator-->
  <defs id="genericDefs" />
  <g>
    <defs id="defs1">
      <clipPath clipPathUnits="userSpaceOnUse" id="clipPath1">
        <path d="M-3 -3 L67 -3 L67 367 L-3 367 L-3 -3 Z" />
      </clipPath>
      <clipPath clipPathUnits="userSpaceOnUse" id="clipPath2">
        <path d="M-3 -3 L15 -3 L15 251 L-3 251 L-3 -3 Z" />
      </clipPath>
      <clipPath clipPathUnits="userSpaceOnUse" id="clipPath3">
        <path d="M-3 -3 L77 -3 L77 367 L-3 367 L-3 -3 Z" />
      </clipPath>
      <clipPath clipPathUnits="userSpaceOnUse" id="clipPath4">
        <path d="M-3 -3 L15 -3 L15 210 L-3 210 L-3 -3 Z" />
      </clipPath>
      <clipPath clipPathUnits="userSpaceOnUse" id="clipPath5">
        <path d="M-3 -3 L660 -3 L660 237 L-3 237 L-3 -3 Z" />
      </clipPath>
      <clipPath clipPathUnits="userSpaceOnUse" id="clipPath6">
        <path d="M0 0 L23 0 L23 20 L0 20 L0 0 Z" />
      </clipPath>
      <clipPath clipPathUnits="userSpaceOnUse" id="clipPath7">
        <path d="M-3 -3 L15 -3 L15 19 L-3 19 L-3 -3 Z" />
      </clipPath>
      <clipPath clipPathUnits="userSpaceOnUse" id="clipPath8">
        <path d="M-3 -3 L660 -3 L660 97 L-3 97 L-3 -3 Z" />
      </clipPath>
      <clipPath clipPathUnits="userSpaceOnUse" id="clipPath9">
        <path d="M0 0 L70 0 L70 17 L0 17 L0 0 Z" />
      </clipPath>
      <clipPath clipPathUnits="userSpaceOnUse" id="clipPath10">
        <path d="M0 0 L0 4 L653 4 L653 0 Z" />
      </clipPath>
      <clipPath clipPathUnits="userSpaceOnUse" id="clipPath11">
        <path d="M-3 -3 L660 -3 L660 127 L-3 127 L-3 -3 Z" />
      </clipPath>
      <clipPath clipPathUnits="userSpaceOnUse" id="clipPath12">
        <path d="M0 0 L70 0 L70 18 L0 18 L0 0 Z" />
      </clipPath>
      <clipPath clipPathUnits="userSpaceOnUse" id="clipPath13">
        <path d="M0 0 L60 0 L60 18 L0 18 L0 0 Z" />
      </clipPath>
      <clipPath clipPathUnits="userSpaceOnUse" id="clipPath14">
        <path d="M0 0 L62 0 L62 18 L0 18 L0 0 Z" />
      </clipPath>
      <clipPath clipPathUnits="userSpaceOnUse" id="clipPath15">
        <path d="M0 0 L286 0 L286 104 L0 104 L0 0 Z" />
      </clipPath>
      <clipPath clipPathUnits="userSpaceOnUse" id="clipPath16">
        <path d="M0 0 L281 0 L281 104 L0 104 L0 0 Z" />
      </clipPath>
      <clipPath clipPathUnits="userSpaceOnUse" id="clipPath17">
        <path d="M0 0 L125 0 L125 124 L0 124 L0 0 Z" />
      </clipPath>
      <clipPath clipPathUnits="userSpaceOnUse" id="clipPath18">
        <path d="M0 0 L104 0 L104 18 L0 18 L0 0 Z" />
      </clipPath>
      <clipPath clipPathUnits="userSpaceOnUse" id="clipPath19">
        <path d="M0 0 L132 0 L132 18 L0 18 L0 0 Z" />
      </clipPath>
      <clipPath clipPathUnits="userSpaceOnUse" id="clipPath20">
        <path d="M0 0 L90 0 L90 18 L0 18 L0 0 Z" />
      </clipPath>
      <clipPath clipPathUnits="userSpaceOnUse" id="clipPath21">
        <path d="M0 0 L118 0 L118 18 L0 18 L0 0 Z" />
      </clipPath>
    </defs>
    <g style="fill:white; text-rendering:geometricPrecision; stroke:white;">
      <rect x="0" y="0" width="679" style="stroke:none;" height="409" />
      <rect x="78" y="38" transform="translate(-78,-38)" width="678" style="fill:none; stroke:black;" height="408" />
      <text x="85" y="57" transform="translate(-78,-38)" style="fill:black; stroke:none; font-weight:bold;" xml:space="preserve">sd</text>
      <text x="106" y="57" transform="translate(-78,-38)" style="fill:black; stroke:none;" xml:space="preserve">關鍵字搜尋</text>
      <line transform="translate(-78,-38)" x1="78" x2="166" y1="64" style="fill:none; stroke:black;" y2="64" />
      <line transform="translate(-78,-38)" x1="172" x2="172" y1="38" style="fill:none; stroke:black;" y2="53" />
      <line transform="translate(-78,-38)" x1="172" x2="166" y1="53" style="fill:none; stroke:black;" y2="64" />
    </g>
    <g transform="translate(102,35)" style="font-size:14; fill:rgb(122,207,245); text-rendering:geometricPrecision; font-family:&apos;標楷體&apos;; stroke:rgb(122,207,245);">
      <circle style="clip-path:url(#clipPath1); stroke:none;" r="5" cx="30" cy="5" />
      <rect x="26" y="53" width="8" style="clip-path:url(#clipPath1); stroke:none;" height="306" />
    </g>
    <g transform="translate(102,35)" style="font-size:14; stroke-linecap:butt; text-rendering:geometricPrecision; font-family:&apos;標楷體&apos;; stroke-linejoin:round; stroke-miterlimit:0;">
      <circle style="fill:none; clip-path:url(#clipPath1);" r="5" cx="30" cy="5" />
      <rect x="26" y="53" width="8" style="clip-path:url(#clipPath1); fill:none;" height="306" />
      <line x1="30" x2="30" y1="10" style="clip-path:url(#clipPath1); fill:none;" y2="25" />
      <line x1="30" x2="21" y1="25" style="clip-path:url(#clipPath1); fill:none;" y2="36" />
      <line x1="30" x2="39" y1="25" style="clip-path:url(#clipPath1); fill:none;" y2="36" />
      <line x1="21" x2="39" y1="16" style="clip-path:url(#clipPath1); fill:none;" y2="16" />
    </g>
    <g transform="translate(292,35)" style="font-size:14; fill:rgb(122,207,245); text-rendering:geometricPrecision; font-family:&apos;標楷體&apos;; stroke:rgb(122,207,245);">
      <rect x="0" y="0" width="59" style="clip-path:url(#clipPath1); stroke:none;" height="35" />
    </g>
    <g transform="translate(292,35)" style="font-size:14; stroke-linecap:butt; text-rendering:geometricPrecision; font-family:&apos;標楷體&apos;; stroke-linejoin:round; stroke-miterlimit:0;">
      <rect x="0" y="0" width="59" style="clip-path:url(#clipPath1); fill:none;" height="35" />
      <line x1="29" x2="29" y1="35" style="clip-path:url(#clipPath1); fill:none; stroke-linejoin:bevel; stroke-dasharray:8,3;" y2="360" />
    </g>
    <g transform="translate(318,105)" style="font-size:11; fill:rgb(122,207,245); text-rendering:geometricPrecision; font-family:sans-serif; stroke:rgb(122,207,245);">
      <rect x="0" y="0" width="8" style="clip-path:url(#clipPath2); stroke:none;" height="244" />
    </g>
    <g transform="translate(318,105)" style="font-size:11; stroke-linecap:butt; text-rendering:geometricPrecision; font-family:sans-serif; stroke-linejoin:round; stroke-miterlimit:0;">
      <rect x="0" y="0" width="8" style="clip-path:url(#clipPath2); fill:none;" height="244" />
    </g>
    <g transform="translate(472,35)" style="font-size:14; fill:rgb(122,207,245); text-rendering:geometricPrecision; font-family:&apos;標楷體&apos;; stroke:rgb(122,207,245);">
      <rect x="0" y="0" width="69" style="clip-path:url(#clipPath3); stroke:none;" height="35" />
    </g>
    <g transform="translate(472,35)" style="font-size:14; stroke-linecap:butt; text-rendering:geometricPrecision; font-family:&apos;標楷體&apos;; stroke-linejoin:round; stroke-miterlimit:0;">
      <rect x="0" y="0" width="69" style="clip-path:url(#clipPath3); fill:none;" height="35" />
      <line x1="34" x2="34" y1="35" style="clip-path:url(#clipPath3); fill:none; stroke-linejoin:bevel; stroke-dasharray:8,3;" y2="360" />
    </g>
    <g transform="translate(503,125)" style="font-size:11; fill:rgb(122,207,245); text-rendering:geometricPrecision; font-family:sans-serif; stroke:rgb(122,207,245);">
      <rect x="0" y="0" width="8" style="clip-path:url(#clipPath4); stroke:none;" height="203" />
    </g>
    <g transform="translate(503,125)" style="font-size:11; stroke-linecap:butt; text-rendering:geometricPrecision; font-family:sans-serif; stroke-linejoin:round; stroke-miterlimit:0;">
      <rect x="0" y="0" width="8" style="clip-path:url(#clipPath4); fill:none;" height="203" />
    </g>
    <g transform="translate(12,145)" style="font-size:11; stroke-linecap:butt; text-rendering:geometricPrecision; font-family:sans-serif; stroke-linejoin:round; font-weight:bold; stroke-miterlimit:0;">
      <rect x="0" y="0" width="653" style="clip-path:url(#clipPath5); fill:none;" height="230" />
    </g>
    <g transform="translate(12,145)" style="font-size:11; fill:white; text-rendering:geometricPrecision; font-family:sans-serif; stroke:white; font-weight:bold;">
      <path d="M22 0 L22 10 L16 19 L0 19 L0 0 Z" style="clip-path:url(#clipPath5); stroke:none;" />
    </g>
    <g transform="translate(12,145)" style="font-size:11; stroke-linecap:butt; text-rendering:geometricPrecision; font-family:sans-serif; stroke-linejoin:round; font-weight:bold; stroke-miterlimit:0;">
      <path d="M22 0 L22 10 L16 19 L0 19 L0 0 Z" style="fill:none; clip-path:url(#clipPath5);" />
    </g>
    <g transform="translate(12,145)" style="text-rendering:geometricPrecision; font-size:11; font-weight:bold; font-family:sans-serif;">
      <text x="5" y="14" style="clip-path:url(#clipPath6); stroke:none;" xml:space="preserve">alt</text>
    </g>
    <g transform="translate(507,285)" style="font-size:11; fill:rgb(122,207,245); text-rendering:geometricPrecision; font-family:sans-serif; stroke:rgb(122,207,245);">
      <rect x="0" y="0" width="8" style="clip-path:url(#clipPath7); stroke:none;" height="12" />
    </g>
    <g transform="translate(507,285)" style="font-size:11; stroke-linecap:butt; text-rendering:geometricPrecision; font-family:sans-serif; stroke-linejoin:round; stroke-miterlimit:0;">
      <rect x="0" y="0" width="8" style="clip-path:url(#clipPath7); fill:none;" height="12" />
    </g>
    <g transform="translate(12,165)" style="font-size:11; fill:white; text-rendering:geometricPrecision; font-family:sans-serif; stroke:white;">
      <rect x="28" y="5" width="70" style="clip-path:url(#clipPath8); stroke:none;" height="17" />
    </g>
    <g transform="translate(12,165)" style="font-size:11; stroke-linecap:butt; text-rendering:geometricPrecision; font-family:sans-serif; stroke-linejoin:bevel; stroke-dasharray:5,2; stroke-miterlimit:0;">
      <line x1="0" x2="652" y1="89" style="clip-path:url(#clipPath8); fill:none;" y2="89" />
    </g>
    <g style="text-rendering:geometricPrecision; font-size:11; font-family:sans-serif;" transform="translate(40,170)">
      <text x="10" y="14" style="clip-path:url(#clipPath9); stroke:none;" xml:space="preserve">[查無資料]</text>
    </g>
    <g transform="translate(507,185)" style="font-size:11; fill:rgb(122,207,245); text-rendering:geometricPrecision; font-family:sans-serif; stroke:rgb(122,207,245);">
      <rect x="0" y="0" width="8" style="clip-path:url(#clipPath7); stroke:none;" height="12" />
    </g>
    <g transform="translate(507,185)" style="font-size:11; stroke-linecap:butt; text-rendering:geometricPrecision; font-family:sans-serif; stroke-linejoin:round; stroke-miterlimit:0;">
      <rect x="0" y="0" width="8" style="clip-path:url(#clipPath7); fill:none;" height="12" />
    </g>
    <g transform="translate(12,253)" style="font-size:11; fill:white; text-rendering:geometricPrecision; font-family:sans-serif; stroke:white;">
      <rect x="28" y="5" width="70" style="clip-path:url(#clipPath11); stroke:none;" height="17" />
    </g>
    <g style="text-rendering:geometricPrecision; font-size:11; font-family:sans-serif;" transform="translate(40,258)">
      <text x="10" y="14" style="clip-path:url(#clipPath9); stroke:none;" xml:space="preserve">[查詢成功]</text>
    </g>
    <g style="text-rendering:geometricPrecision; font-size:14; font-family:&apos;標楷體&apos;;" transform="translate(472,35)">
      <text x="7" y="16" style="clip-path:url(#clipPath12); stroke:none;" xml:space="preserve">database</text>
    </g>
    <g style="text-rendering:geometricPrecision; font-size:14; font-family:&apos;標楷體&apos;;" transform="translate(292,35)">
      <text x="16" y="16" style="clip-path:url(#clipPath13); stroke:none;" xml:space="preserve">首頁</text>
    </g>
    <g style="text-rendering:geometricPrecision; font-size:14; font-family:&apos;標楷體&apos;;" transform="translate(101,70)">
      <text x="10" y="16" style="clip-path:url(#clipPath14); stroke:none;" xml:space="preserve">使用者</text>
    </g>
    <g transform="translate(86,65)" style="font-size:14; stroke-linecap:butt; text-rendering:geometricPrecision; font-family:&apos;標楷體&apos;; stroke-linejoin:round;">
      <line x1="50" x2="232" y1="50" style="clip-path:url(#clipPath15); fill:none;" y2="50" />
      <polygon style="clip-path:url(#clipPath15); stroke:none;" points=" 232 50 220 44 220 56" />
      <polygon style="fill:none; clip-path:url(#clipPath15);" points=" 232 50 220 44 220 56" />
    </g>
    <g transform="translate(86,165)" style="font-size:14; stroke-linecap:butt; text-rendering:geometricPrecision; font-family:&apos;標楷體&apos;; stroke-linejoin:round; stroke-dasharray:8,3; stroke-miterlimit:0;">
      <line x1="232" x2="50" y1="50" style="clip-path:url(#clipPath15); fill:none;" y2="50" />
      <line x1="50" x2="62" y1="50" style="clip-path:url(#clipPath15); fill:none; stroke-dasharray:none; stroke-miterlimit:10;" y2="56" />
      <line x1="50" x2="62" y1="50" style="clip-path:url(#clipPath15); fill:none; stroke-dasharray:none; stroke-miterlimit:10;" y2="44" />
    </g>
    <g transform="translate(86,285)" style="font-size:14; stroke-linecap:butt; text-rendering:geometricPrecision; font-family:&apos;標楷體&apos;; stroke-linejoin:round; stroke-dasharray:8,3; stroke-miterlimit:0;">
      <line x1="232" x2="50" y1="50" style="clip-path:url(#clipPath15); fill:none;" y2="50" />
      <line x1="50" x2="62" y1="50" style="clip-path:url(#clipPath15); fill:none; stroke-dasharray:none; stroke-miterlimit:10;" y2="56" />
      <line x1="50" x2="62" y1="50" style="clip-path:url(#clipPath15); fill:none; stroke-dasharray:none; stroke-miterlimit:10;" y2="44" />
    </g>
    <g transform="translate(276,85)" style="font-size:14; stroke-linecap:butt; text-rendering:geometricPrecision; font-family:&apos;標楷體&apos;; stroke-linejoin:round;">
      <line x1="50" x2="227" y1="50" style="clip-path:url(#clipPath16); fill:none;" y2="50" />
      <polygon style="clip-path:url(#clipPath16); stroke:none;" points=" 227 50 215 44 215 56" />
      <polygon style="fill:none; clip-path:url(#clipPath16);" points=" 227 50 215 44 215 56" />
    </g>
    <g transform="translate(461,115)" style="font-size:14; stroke-linecap:butt; text-rendering:geometricPrecision; font-family:&apos;標楷體&apos;; stroke-linejoin:round;">
      <line x1="50" x2="71" y1="50" style="clip-path:url(#clipPath17); fill:none;" y2="50" />
      <line x1="71" x2="71" y1="50" style="clip-path:url(#clipPath17); fill:none;" y2="70" />
      <line x1="71" x2="54" y1="70" style="clip-path:url(#clipPath17); fill:none;" y2="70" />
      <polygon style="clip-path:url(#clipPath17); stroke:none;" points=" 54 70 66 76 66 64" />
      <polygon style="fill:none; clip-path:url(#clipPath17);" points=" 54 70 66 76 66 64" />
    </g>
    <g transform="translate(461,215)" style="font-size:14; stroke-linecap:butt; text-rendering:geometricPrecision; font-family:&apos;標楷體&apos;; stroke-linejoin:round;">
      <line x1="50" x2="71" y1="50" style="clip-path:url(#clipPath17); fill:none;" y2="50" />
      <line x1="71" x2="71" y1="50" style="clip-path:url(#clipPath17); fill:none;" y2="70" />
      <line x1="71" x2="54" y1="70" style="clip-path:url(#clipPath17); fill:none;" y2="70" />
      <polygon style="clip-path:url(#clipPath17); stroke:none;" points=" 54 70 66 76 66 64" />
      <polygon style="fill:none; clip-path:url(#clipPath17);" points=" 54 70 66 76 66 64" />
    </g>
    <g transform="translate(276,155)" style="font-size:14; stroke-linecap:butt; text-rendering:geometricPrecision; font-family:&apos;標楷體&apos;; stroke-linejoin:round; stroke-dasharray:8,3; stroke-miterlimit:0;">
      <line x1="227" x2="50" y1="50" style="clip-path:url(#clipPath16); fill:none;" y2="50" />
      <line x1="50" x2="62" y1="50" style="clip-path:url(#clipPath16); fill:none; stroke-dasharray:none; stroke-miterlimit:10;" y2="56" />
      <line x1="50" x2="62" y1="50" style="clip-path:url(#clipPath16); fill:none; stroke-dasharray:none; stroke-miterlimit:10;" y2="44" />
    </g>
    <g transform="translate(276,265)" style="font-size:14; stroke-linecap:butt; text-rendering:geometricPrecision; font-family:&apos;標楷體&apos;; stroke-linejoin:round; stroke-dasharray:8,3; stroke-miterlimit:0;">
      <line x1="227" x2="50" y1="50" style="clip-path:url(#clipPath16); fill:none;" y2="50" />
      <line x1="50" x2="62" y1="50" style="clip-path:url(#clipPath16); fill:none; stroke-dasharray:none; stroke-miterlimit:10;" y2="56" />
      <line x1="50" x2="62" y1="50" style="clip-path:url(#clipPath16); fill:none; stroke-dasharray:none; stroke-miterlimit:10;" y2="44" />
    </g>
    <g style="text-rendering:geometricPrecision; font-size:14; font-family:&apos;標楷體&apos;;" transform="translate(363,292)">
      <text x="10" y="16" style="clip-path:url(#clipPath18); stroke:none;" xml:space="preserve">回傳符合資料</text>
    </g>
    <g style="text-rendering:geometricPrecision; font-size:14; font-family:&apos;標楷體&apos;;" transform="translate(363,182)">
      <text x="10" y="16" style="clip-path:url(#clipPath18); stroke:none;" xml:space="preserve">回傳查詢失敗</text>
    </g>
    <g style="text-rendering:geometricPrecision; font-size:14; font-family:&apos;標楷體&apos;;" transform="translate(532,265)">
      <text x="10" y="16" style="clip-path:url(#clipPath18); stroke:none;" xml:space="preserve">資料比對成功</text>
    </g>
    <g style="text-rendering:geometricPrecision; font-size:14; font-family:&apos;標楷體&apos;;" transform="translate(532,165)">
      <text x="10" y="16" style="clip-path:url(#clipPath19); stroke:none;" xml:space="preserve">資料比對查無資料</text>
    </g>
    <g style="text-rendering:geometricPrecision; font-size:14; font-family:&apos;標楷體&apos;;" transform="translate(369,112)">
      <text x="10" y="16" style="clip-path:url(#clipPath20); stroke:none;" xml:space="preserve">搜尋資料庫</text>
    </g>
    <g style="text-rendering:geometricPrecision; font-size:14; font-family:&apos;標楷體&apos;;" transform="translate(175,312)">
      <text x="10" y="16" style="clip-path:url(#clipPath18); stroke:none;" xml:space="preserve">顯示相關資料</text>
    </g>
    <g style="text-rendering:geometricPrecision; font-size:14; font-family:&apos;標楷體&apos;;" transform="translate(175,192)">
      <text x="10" y="16" style="clip-path:url(#clipPath18); stroke:none;" xml:space="preserve">顯示查無資料</text>
    </g>
    <g style="text-rendering:geometricPrecision; font-size:14; font-family:&apos;標楷體&apos;;" transform="translate(168,92)">
      <text x="10" y="16" style="clip-path:url(#clipPath21); stroke:none;" xml:space="preserve">輸入關鍵字搜尋</text>
    </g>
    <g style="fill:rgb(120,120,120); text-rendering:geometricPrecision; font-size:10; stroke:rgb(120,120,120);">
      <text xml:space="preserve" x="0" y="10" style="stroke:none;">Visual Paradigm for UML Personal Edition [not for commercial use] </text>
      <text xml:space="preserve" x="0" y="10" style="stroke:none;">Visual Paradigm for UML Personal Edition [not for commercial use] </text>
    </g>
  </g>
</svg>
