<?xml version="1.0" encoding="UTF-8"?>

<!DOCTYPE svg PUBLIC '-//W3C//DTD SVG 1.0//EN' 'http://www.w3.org/TR/2001/REC-SVG-20010904/DTD/svg10.dtd'>
<svg style="fill-opacity:1; color-rendering:auto; color-interpolation:auto; stroke:black; text-rendering:auto; stroke-linecap:square; stroke-miterlimit:10; stroke-opacity:1; shape-rendering:auto; fill:black; stroke-dasharray:none; font-weight:normal; stroke-width:1; font-family:&apos;Dialog&apos;; font-style:normal; stroke-linejoin:miter; font-size:12; stroke-dashoffset:0; image-rendering:auto;" xmlns="http://www.w3.org/2000/svg" width="872" xmlns:xlink="http://www.w3.org/1999/xlink" height="699">
  <!--Generated by the Batik Graphics2D SVG Generator-->
  <defs id="genericDefs" />
  <g>
    <defs id="defs1">
      <clipPath clipPathUnits="userSpaceOnUse" id="clipPath1">
        <path d="M-3 -3 L647 -3 L647 657 L-3 657 L-3 -3 Z" />
      </clipPath>
      <clipPath clipPathUnits="userSpaceOnUse" id="clipPath2">
        <path d="M-3 -3 L37 -3 L37 67 L-3 67 L-3 -3 Z" />
      </clipPath>
      <clipPath clipPathUnits="userSpaceOnUse" id="clipPath3">
        <path d="M-3 -3 L307 -3 L307 607 L-3 607 L-3 -3 Z" />
      </clipPath>
      <clipPath clipPathUnits="userSpaceOnUse" id="clipPath4">
        <path d="M0 0 L300 0 L300 18 L0 18 L0 0 Z" />
      </clipPath>
      <clipPath clipPathUnits="userSpaceOnUse" id="clipPath5">
        <path d="M-3 -3 L257 -3 L257 297 L-3 297 L-3 -3 Z" />
      </clipPath>
      <clipPath clipPathUnits="userSpaceOnUse" id="clipPath6">
        <path d="M0 0 L250 0 L250 18 L0 18 L0 0 Z" />
      </clipPath>
      <clipPath clipPathUnits="userSpaceOnUse" id="clipPath7">
        <path d="M-3 -3 L87 -3 L87 47 L-3 47 L-3 -3 Z" />
      </clipPath>
      <clipPath clipPathUnits="userSpaceOnUse" id="clipPath8">
        <path d="M-3 -3 L107 -3 L107 47 L-3 47 L-3 -3 Z" />
      </clipPath>
      <clipPath clipPathUnits="userSpaceOnUse" id="clipPath9">
        <path d="M-3 -3 L137 -3 L137 47 L-3 47 L-3 -3 Z" />
      </clipPath>
      <clipPath clipPathUnits="userSpaceOnUse" id="clipPath10">
        <path d="M-3 -3 L47 -3 L47 27 L-3 27 L-3 -3 Z" />
      </clipPath>
      <clipPath clipPathUnits="userSpaceOnUse" id="clipPath11">
        <path d="M0 0 L80 0 L80 40 L0 40 L0 0 Z" />
      </clipPath>
      <clipPath clipPathUnits="userSpaceOnUse" id="clipPath12">
        <path d="M0 0 L100 0 L100 40 L0 40 L0 0 Z" />
      </clipPath>
      <clipPath clipPathUnits="userSpaceOnUse" id="clipPath13">
        <path d="M0 0 L130 0 L130 40 L0 40 L0 0 Z" />
      </clipPath>
      <clipPath clipPathUnits="userSpaceOnUse" id="clipPath14">
        <path d="M0 0 L47 0 L47 16 L0 16 L0 0 Z" />
      </clipPath>
      <clipPath clipPathUnits="userSpaceOnUse" id="clipPath15">
        <path d="M0 0 L108 0 L108 18 L0 18 L0 0 Z" />
      </clipPath>
      <clipPath clipPathUnits="userSpaceOnUse" id="clipPath16">
        <path d="M0 0 L640 0 L640 18 L0 18 L0 0 Z" />
      </clipPath>
      <clipPath clipPathUnits="userSpaceOnUse" id="clipPath17">
        <path d="M0 0 L279 0 L279 170 L0 170 L0 0 Z" />
      </clipPath>
      <clipPath clipPathUnits="userSpaceOnUse" id="clipPath18">
        <path d="M0 0 L279 0 L279 139 L0 139 L0 0 Z" />
      </clipPath>
      <clipPath clipPathUnits="userSpaceOnUse" id="clipPath19">
        <path d="M0 0 L279 0 L279 148 L0 148 L0 0 Z" />
      </clipPath>
      <clipPath clipPathUnits="userSpaceOnUse" id="clipPath20">
        <path d="M0 0 L279 0 L279 179 L0 179 L0 0 Z" />
      </clipPath>
      <clipPath clipPathUnits="userSpaceOnUse" id="clipPath21">
        <path d="M0 0 L269 0 L269 160 L0 160 L0 0 Z" />
      </clipPath>
      <clipPath clipPathUnits="userSpaceOnUse" id="clipPath22">
        <path d="M0 0 L269 0 L269 129 L0 129 L0 0 Z" />
      </clipPath>
      <clipPath clipPathUnits="userSpaceOnUse" id="clipPath23">
        <path d="M0 0 L269 0 L269 159 L0 159 L0 0 Z" />
      </clipPath>
      <clipPath clipPathUnits="userSpaceOnUse" id="clipPath24">
        <path d="M0 0 L269 0 L269 189 L0 189 L0 0 Z" />
      </clipPath>
      <clipPath clipPathUnits="userSpaceOnUse" id="clipPath25">
        <path d="M0 0 L129 0 L129 330 L0 330 L0 0 Z" />
      </clipPath>
      <clipPath clipPathUnits="userSpaceOnUse" id="clipPath26">
        <path d="M0 0 L259 0 L259 209 L0 209 L0 0 Z" />
      </clipPath>
      <clipPath clipPathUnits="userSpaceOnUse" id="clipPath27">
        <path d="M0 0 L279 0 L279 159 L0 159 L0 0 Z" />
      </clipPath>
      <clipPath clipPathUnits="userSpaceOnUse" id="clipPath28">
        <path d="M0 0 L279 0 L279 129 L0 129 L0 0 Z" />
      </clipPath>
      <clipPath clipPathUnits="userSpaceOnUse" id="clipPath29">
        <path d="M0 0 L279 0 L279 169 L0 169 L0 0 Z" />
      </clipPath>
      <clipPath clipPathUnits="userSpaceOnUse" id="clipPath30">
        <path d="M0 0 L215 0 L215 165 L0 165 L0 0 Z" />
      </clipPath>
      <clipPath clipPathUnits="userSpaceOnUse" id="clipPath31">
        <path d="M0 0 L259 0 L259 259 L0 259 L0 0 Z" />
      </clipPath>
      <clipPath clipPathUnits="userSpaceOnUse" id="clipPath32">
        <path d="M0 0 L40 0 L40 20 L0 20 L0 0 Z" />
      </clipPath>
    </defs>
    <g style="fill:white; text-rendering:geometricPrecision; stroke:white;">
      <rect x="0" y="0" width="872" style="stroke:none;" height="699" />
      <rect x="0" y="8" transform="translate(0,-8)" width="871" style="fill:none; stroke:black;" height="698" />
      <text x="7" y="27" transform="translate(0,-8)" style="fill:black; stroke:none;" xml:space="preserve">userUseCase</text>
      <line transform="translate(0,-8)" x1="0" x2="85" y1="34" style="fill:none; stroke:black;" y2="34" />
      <line transform="translate(0,-8)" x1="91" x2="91" y1="8" style="fill:none; stroke:black;" y2="23" />
      <line transform="translate(0,-8)" x1="91" x2="85" y1="23" style="fill:none; stroke:black;" y2="34" />
    </g>
    <g transform="translate(90,35)" style="font-size:14; stroke-linecap:butt; text-rendering:geometricPrecision; font-family:&apos;Times New Roman&apos;; stroke-linejoin:round; stroke-miterlimit:0;">
      <rect x="0" y="0" width="639" style="clip-path:url(#clipPath1); fill:none;" height="649" />
    </g>
    <g transform="translate(790,195)" style="font-size:14; fill:rgb(122,207,245); text-rendering:geometricPrecision; font-family:&apos;標楷體&apos;; stroke:rgb(122,207,245);">
      <circle style="clip-path:url(#clipPath2); stroke:none;" r="7.5" cx="14.5" cy="7.5" />
    </g>
    <g transform="translate(790,195)" style="font-size:14; stroke-linecap:butt; text-rendering:geometricPrecision; font-family:&apos;標楷體&apos;; stroke-linejoin:round; stroke-miterlimit:0;">
      <circle style="fill:none; clip-path:url(#clipPath2);" r="7.5" cx="14.5" cy="7.5" />
      <line x1="15" x2="15" y1="15" style="clip-path:url(#clipPath2); fill:none;" y2="40" />
      <line x1="0" x2="30" y1="24" style="clip-path:url(#clipPath2); fill:none;" y2="24" />
      <line x1="15" x2="0" y1="40" style="clip-path:url(#clipPath2); fill:none;" y2="60" />
      <line x1="15" x2="30" y1="40" style="clip-path:url(#clipPath2); fill:none;" y2="60" />
    </g>
    <g transform="translate(10,165)" style="font-size:14; fill:rgb(122,207,245); text-rendering:geometricPrecision; font-family:&apos;標楷體&apos;; stroke:rgb(122,207,245);">
      <circle style="clip-path:url(#clipPath2); stroke:none;" r="7.5" cx="14.5" cy="7.5" />
    </g>
    <g transform="translate(10,165)" style="font-size:14; stroke-linecap:butt; text-rendering:geometricPrecision; font-family:&apos;標楷體&apos;; stroke-linejoin:round; stroke-miterlimit:0;">
      <circle style="fill:none; clip-path:url(#clipPath2);" r="7.5" cx="14.5" cy="7.5" />
      <line x1="15" x2="15" y1="15" style="clip-path:url(#clipPath2); fill:none;" y2="40" />
      <line x1="0" x2="30" y1="24" style="clip-path:url(#clipPath2); fill:none;" y2="24" />
      <line x1="15" x2="0" y1="40" style="clip-path:url(#clipPath2); fill:none;" y2="60" />
      <line x1="15" x2="30" y1="40" style="clip-path:url(#clipPath2); fill:none;" y2="60" />
    </g>
    <g transform="translate(10,445)" style="font-size:14; fill:rgb(122,207,245); text-rendering:geometricPrecision; font-family:&apos;標楷體&apos;; stroke:rgb(122,207,245);">
      <circle style="clip-path:url(#clipPath2); stroke:none;" r="7.5" cx="14.5" cy="7.5" />
    </g>
    <g transform="translate(10,445)" style="font-size:14; stroke-linecap:butt; text-rendering:geometricPrecision; font-family:&apos;標楷體&apos;; stroke-linejoin:round; stroke-miterlimit:0;">
      <circle style="fill:none; clip-path:url(#clipPath2);" r="7.5" cx="14.5" cy="7.5" />
      <line x1="15" x2="15" y1="15" style="clip-path:url(#clipPath2); fill:none;" y2="40" />
      <line x1="0" x2="30" y1="24" style="clip-path:url(#clipPath2); fill:none;" y2="24" />
      <line x1="15" x2="0" y1="40" style="clip-path:url(#clipPath2); fill:none;" y2="60" />
      <line x1="15" x2="30" y1="40" style="clip-path:url(#clipPath2); fill:none;" y2="60" />
    </g>
    <g transform="translate(110,65)" style="font-size:14; fill:rgb(122,207,245); text-rendering:geometricPrecision; font-family:&apos;標楷體&apos;; stroke:rgb(122,207,245);">
      <rect x="0" y="0" width="59" style="clip-path:url(#clipPath3); stroke:none;" height="20" />
      <rect x="0" y="20" width="299" style="clip-path:url(#clipPath3); stroke:none;" height="579" />
    </g>
    <g transform="translate(110,65)" style="font-size:14; stroke-linecap:butt; text-rendering:geometricPrecision; font-family:&apos;標楷體&apos;; stroke-linejoin:round; stroke-miterlimit:0;">
      <rect x="0" y="0" width="59" style="clip-path:url(#clipPath3); fill:none;" height="20" />
      <rect x="0" y="20" width="299" style="clip-path:url(#clipPath3); fill:none;" height="579" />
    </g>
    <g style="text-rendering:geometricPrecision; font-size:14; font-family:&apos;標楷體&apos;;" transform="translate(110,85)">
      <text x="136" y="16" style="clip-path:url(#clipPath4); stroke:none;" xml:space="preserve">前端</text>
    </g>
    <g transform="translate(440,65)" style="font-size:14; fill:rgb(122,207,245); text-rendering:geometricPrecision; font-family:&apos;標楷體&apos;; stroke:rgb(122,207,245);">
      <rect x="0" y="0" width="49" style="clip-path:url(#clipPath5); stroke:none;" height="20" />
      <rect x="0" y="20" width="249" style="clip-path:url(#clipPath5); stroke:none;" height="269" />
    </g>
    <g transform="translate(440,65)" style="font-size:14; stroke-linecap:butt; text-rendering:geometricPrecision; font-family:&apos;標楷體&apos;; stroke-linejoin:round; stroke-miterlimit:0;">
      <rect x="0" y="0" width="49" style="clip-path:url(#clipPath5); fill:none;" height="20" />
      <rect x="0" y="20" width="249" style="clip-path:url(#clipPath5); fill:none;" height="269" />
    </g>
    <g style="text-rendering:geometricPrecision; font-size:14; font-family:&apos;標楷體&apos;;" transform="translate(440,85)">
      <text x="111" y="16" style="clip-path:url(#clipPath6); stroke:none;" xml:space="preserve">後端</text>
    </g>
    <g transform="translate(180,115)" style="font-size:14; fill:rgb(122,207,245); text-rendering:geometricPrecision; font-family:&apos;標楷體&apos;; stroke:rgb(122,207,245);">
      <ellipse style="clip-path:url(#clipPath7); stroke:none;" rx="40" cx="40" ry="20" cy="20" />
    </g>
    <g transform="translate(180,115)" style="font-size:14; stroke-linecap:butt; text-rendering:geometricPrecision; font-family:&apos;標楷體&apos;; stroke-linejoin:round; stroke-miterlimit:0;">
      <ellipse style="clip-path:url(#clipPath7); fill:none;" rx="40" cx="40" ry="20" cy="20" />
    </g>
    <g transform="translate(180,165)" style="font-size:14; fill:rgb(122,207,245); text-rendering:geometricPrecision; font-family:&apos;標楷體&apos;; stroke:rgb(122,207,245);">
      <ellipse style="clip-path:url(#clipPath7); stroke:none;" rx="40" cx="40" ry="20" cy="20" />
    </g>
    <g transform="translate(180,165)" style="font-size:14; stroke-linecap:butt; text-rendering:geometricPrecision; font-family:&apos;標楷體&apos;; stroke-linejoin:round; stroke-miterlimit:0;">
      <ellipse style="clip-path:url(#clipPath7); fill:none;" rx="40" cx="40" ry="20" cy="20" />
    </g>
    <g transform="translate(180,215)" style="font-size:14; fill:rgb(122,207,245); text-rendering:geometricPrecision; font-family:&apos;標楷體&apos;; stroke:rgb(122,207,245);">
      <ellipse style="clip-path:url(#clipPath7); stroke:none;" rx="40" cx="40" ry="20" cy="20" />
    </g>
    <g transform="translate(180,215)" style="font-size:14; stroke-linecap:butt; text-rendering:geometricPrecision; font-family:&apos;標楷體&apos;; stroke-linejoin:round; stroke-miterlimit:0;">
      <ellipse style="clip-path:url(#clipPath7); fill:none;" rx="40" cx="40" ry="20" cy="20" />
    </g>
    <g transform="translate(180,265)" style="font-size:14; fill:rgb(122,207,245); text-rendering:geometricPrecision; font-family:&apos;標楷體&apos;; stroke:rgb(122,207,245);">
      <ellipse style="clip-path:url(#clipPath7); stroke:none;" rx="40" cx="40" ry="20" cy="20" />
    </g>
    <g transform="translate(180,265)" style="font-size:14; stroke-linecap:butt; text-rendering:geometricPrecision; font-family:&apos;標楷體&apos;; stroke-linejoin:round; stroke-miterlimit:0;">
      <ellipse style="clip-path:url(#clipPath7); fill:none;" rx="40" cx="40" ry="20" cy="20" />
    </g>
    <g transform="translate(170,345)" style="font-size:14; fill:rgb(122,207,245); text-rendering:geometricPrecision; font-family:&apos;標楷體&apos;; stroke:rgb(122,207,245);">
      <ellipse style="clip-path:url(#clipPath8); stroke:none;" rx="50" cx="50" ry="20" cy="20" />
    </g>
    <g transform="translate(170,345)" style="font-size:14; stroke-linecap:butt; text-rendering:geometricPrecision; font-family:&apos;標楷體&apos;; stroke-linejoin:round; stroke-miterlimit:0;">
      <ellipse style="clip-path:url(#clipPath8); fill:none;" rx="50" cx="50" ry="20" cy="20" />
    </g>
    <g transform="translate(190,405)" style="font-size:14; fill:rgb(122,207,245); text-rendering:geometricPrecision; font-family:&apos;標楷體&apos;; stroke:rgb(122,207,245);">
      <ellipse style="clip-path:url(#clipPath7); stroke:none;" rx="40" cx="40" ry="20" cy="20" />
    </g>
    <g transform="translate(190,405)" style="font-size:14; stroke-linecap:butt; text-rendering:geometricPrecision; font-family:&apos;標楷體&apos;; stroke-linejoin:round; stroke-miterlimit:0;">
      <ellipse style="clip-path:url(#clipPath7); fill:none;" rx="40" cx="40" ry="20" cy="20" />
    </g>
    <g transform="translate(190,455)" style="font-size:14; fill:rgb(122,207,245); text-rendering:geometricPrecision; font-family:&apos;標楷體&apos;; stroke:rgb(122,207,245);">
      <ellipse style="clip-path:url(#clipPath7); stroke:none;" rx="40" cx="40" ry="20" cy="20" />
    </g>
    <g transform="translate(190,455)" style="font-size:14; stroke-linecap:butt; text-rendering:geometricPrecision; font-family:&apos;標楷體&apos;; stroke-linejoin:round; stroke-miterlimit:0;">
      <ellipse style="clip-path:url(#clipPath7); fill:none;" rx="40" cx="40" ry="20" cy="20" />
    </g>
    <g transform="translate(190,505)" style="font-size:14; fill:rgb(122,207,245); text-rendering:geometricPrecision; font-family:&apos;標楷體&apos;; stroke:rgb(122,207,245);">
      <ellipse style="clip-path:url(#clipPath7); stroke:none;" rx="40" cx="40" ry="20" cy="20" />
    </g>
    <g transform="translate(190,505)" style="font-size:14; stroke-linecap:butt; text-rendering:geometricPrecision; font-family:&apos;標楷體&apos;; stroke-linejoin:round; stroke-miterlimit:0;">
      <ellipse style="clip-path:url(#clipPath7); fill:none;" rx="40" cx="40" ry="20" cy="20" />
    </g>
    <g transform="translate(180,565)" style="font-size:14; fill:rgb(122,207,245); text-rendering:geometricPrecision; font-family:&apos;標楷體&apos;; stroke:rgb(122,207,245);">
      <ellipse style="clip-path:url(#clipPath8); stroke:none;" rx="50" cx="50" ry="20" cy="20" />
    </g>
    <g transform="translate(180,565)" style="font-size:14; stroke-linecap:butt; text-rendering:geometricPrecision; font-family:&apos;標楷體&apos;; stroke-linejoin:round; stroke-miterlimit:0;">
      <ellipse style="clip-path:url(#clipPath8); fill:none;" rx="50" cx="50" ry="20" cy="20" />
    </g>
    <g transform="translate(170,615)" style="font-size:14; fill:rgb(122,207,245); text-rendering:geometricPrecision; font-family:&apos;標楷體&apos;; stroke:rgb(122,207,245);">
      <ellipse style="clip-path:url(#clipPath7); stroke:none;" rx="40" cx="40" ry="20" cy="20" />
    </g>
    <g transform="translate(170,615)" style="font-size:14; stroke-linecap:butt; text-rendering:geometricPrecision; font-family:&apos;標楷體&apos;; stroke-linejoin:round; stroke-miterlimit:0;">
      <ellipse style="clip-path:url(#clipPath7); fill:none;" rx="40" cx="40" ry="20" cy="20" />
    </g>
    <g transform="translate(540,135)" style="font-size:14; fill:rgb(122,207,245); text-rendering:geometricPrecision; font-family:&apos;標楷體&apos;; stroke:rgb(122,207,245);">
      <ellipse style="clip-path:url(#clipPath8); stroke:none;" rx="50" cx="50" ry="20" cy="20" />
    </g>
    <g transform="translate(540,135)" style="font-size:14; stroke-linecap:butt; text-rendering:geometricPrecision; font-family:&apos;標楷體&apos;; stroke-linejoin:round; stroke-miterlimit:0;">
      <ellipse style="clip-path:url(#clipPath8); fill:none;" rx="50" cx="50" ry="20" cy="20" />
    </g>
    <g transform="translate(510,185)" style="font-size:14; fill:rgb(122,207,245); text-rendering:geometricPrecision; font-family:&apos;標楷體&apos;; stroke:rgb(122,207,245);">
      <ellipse style="clip-path:url(#clipPath9); stroke:none;" rx="65" cx="65" ry="20" cy="20" />
    </g>
    <g transform="translate(510,185)" style="font-size:14; stroke-linecap:butt; text-rendering:geometricPrecision; font-family:&apos;標楷體&apos;; stroke-linejoin:round; stroke-miterlimit:0;">
      <ellipse style="clip-path:url(#clipPath9); fill:none;" rx="65" cx="65" ry="20" cy="20" />
    </g>
    <g transform="translate(540,235)" style="font-size:14; fill:rgb(122,207,245); text-rendering:geometricPrecision; font-family:&apos;標楷體&apos;; stroke:rgb(122,207,245);">
      <ellipse style="clip-path:url(#clipPath8); stroke:none;" rx="50" cx="50" ry="20" cy="20" />
    </g>
    <g transform="translate(540,235)" style="font-size:14; stroke-linecap:butt; text-rendering:geometricPrecision; font-family:&apos;標楷體&apos;; stroke-linejoin:round; stroke-miterlimit:0;">
      <ellipse style="clip-path:url(#clipPath8); fill:none;" rx="50" cx="50" ry="20" cy="20" />
    </g>
    <g transform="translate(560,285)" style="font-size:14; fill:rgb(122,207,245); text-rendering:geometricPrecision; font-family:&apos;標楷體&apos;; stroke:rgb(122,207,245);">
      <ellipse style="clip-path:url(#clipPath7); stroke:none;" rx="40" cx="40" ry="20" cy="20" />
    </g>
    <g transform="translate(560,285)" style="font-size:14; stroke-linecap:butt; text-rendering:geometricPrecision; font-family:&apos;標楷體&apos;; stroke-linejoin:round; stroke-miterlimit:0;">
      <ellipse style="clip-path:url(#clipPath7); fill:none;" rx="40" cx="40" ry="20" cy="20" />
    </g>
    <g style="text-rendering:geometricPrecision; font-size:14; font-family:&apos;標楷體&apos;;" transform="translate(560,285)">
      <text x="12" y="27" style="clip-path:url(#clipPath11); stroke:none;" xml:space="preserve">意見回饋</text>
    </g>
    <g style="text-rendering:geometricPrecision; font-size:14; font-family:&apos;標楷體&apos;;" transform="translate(540,235)">
      <text x="8" y="27" style="clip-path:url(#clipPath12); stroke:none;" xml:space="preserve">管理帳號密碼</text>
    </g>
    <g style="text-rendering:geometricPrecision; font-size:14; font-family:&apos;標楷體&apos;;" transform="translate(510,185)">
      <text x="9" y="27" style="clip-path:url(#clipPath13); stroke:none;" xml:space="preserve">新增狗狗科普文章</text>
    </g>
    <g style="text-rendering:geometricPrecision; font-size:14; font-family:&apos;標楷體&apos;;" transform="translate(540,135)">
      <text x="8" y="27" style="clip-path:url(#clipPath12); stroke:none;" xml:space="preserve">新增領養機構</text>
    </g>
    <g style="text-rendering:geometricPrecision; font-size:14; font-family:&apos;標楷體&apos;;" transform="translate(170,615)">
      <text x="26" y="27" style="clip-path:url(#clipPath11); stroke:none;" xml:space="preserve">登出</text>
    </g>
    <g style="text-rendering:geometricPrecision; font-size:14; font-family:&apos;標楷體&apos;;" transform="translate(180,565)">
      <text x="8" y="27" style="clip-path:url(#clipPath12); stroke:none;" xml:space="preserve">會員資料修改</text>
    </g>
    <g style="text-rendering:geometricPrecision; font-size:14; font-family:&apos;標楷體&apos;;" transform="translate(190,505)">
      <text x="12" y="27" style="clip-path:url(#clipPath11); stroke:none;" xml:space="preserve">相簿管理</text>
    </g>
    <g style="text-rendering:geometricPrecision; font-size:14; font-family:&apos;標楷體&apos;;" transform="translate(190,455)">
      <text x="12" y="27" style="clip-path:url(#clipPath11); stroke:none;" xml:space="preserve">會員專區</text>
    </g>
    <g style="text-rendering:geometricPrecision; font-size:14; font-family:&apos;標楷體&apos;;" transform="translate(190,405)">
      <text x="5" y="27" style="clip-path:url(#clipPath11); stroke:none;" xml:space="preserve">行事曆管理</text>
    </g>
    <g style="text-rendering:geometricPrecision; font-size:14; font-family:&apos;標楷體&apos;;" transform="translate(170,345)">
      <text x="8" y="27" style="clip-path:url(#clipPath12); stroke:none;" xml:space="preserve">寵物資訊管理</text>
    </g>
    <g style="text-rendering:geometricPrecision; font-size:14; font-family:&apos;標楷體&apos;;" transform="translate(180,265)">
      <text x="26" y="27" style="clip-path:url(#clipPath11); stroke:none;" xml:space="preserve">註冊</text>
    </g>
    <g style="text-rendering:geometricPrecision; font-size:14; font-family:&apos;標楷體&apos;;" transform="translate(180,215)">
      <text x="5" y="27" style="clip-path:url(#clipPath11); stroke:none;" xml:space="preserve">關鍵字查詢</text>
    </g>
    <g style="text-rendering:geometricPrecision; font-size:14; font-family:&apos;標楷體&apos;;" transform="translate(180,165)">
      <text x="26" y="27" style="clip-path:url(#clipPath11); stroke:none;" xml:space="preserve">瀏覽</text>
    </g>
    <g style="text-rendering:geometricPrecision; font-size:14; font-family:&apos;標楷體&apos;;" transform="translate(180,115)">
      <text x="26" y="27" style="clip-path:url(#clipPath11); stroke:none;" xml:space="preserve">登入</text>
    </g>
    <g style="text-rendering:geometricPrecision; font-size:14; font-family:&apos;標楷體&apos;;" transform="translate(10,505)">
      <text x="9" y="15" style="clip-path:url(#clipPath14); stroke:none;" xml:space="preserve">會員</text>
    </g>
    <g style="text-rendering:geometricPrecision; font-size:14; font-family:&apos;標楷體&apos;;" transform="translate(10,225)">
      <text x="9" y="15" style="clip-path:url(#clipPath14); stroke:none;" xml:space="preserve">訪客</text>
    </g>
    <g style="text-rendering:geometricPrecision; font-size:14; font-family:&apos;標楷體&apos;;" transform="translate(751,255)">
      <text x="8" y="16" style="clip-path:url(#clipPath15); stroke:none;" xml:space="preserve">前/後台管理者</text>
    </g>
    <g style="text-rendering:geometricPrecision; font-size:14; font-family:&apos;Times New Roman&apos;;" transform="translate(90,35)">
      <text x="305" y="14" style="clip-path:url(#clipPath16); stroke:none;" xml:space="preserve">iPets</text>
    </g>
    <g transform="translate(578,93)" style="font-size:11; stroke-linecap:butt; text-rendering:geometricPrecision; font-family:sans-serif; stroke-linejoin:round;">
      <line x1="213" x2="63" y1="104" style="clip-path:url(#clipPath17); fill:none;" y2="63" />
    </g>
    <g transform="translate(578,143)" style="font-size:11; stroke-linecap:butt; text-rendering:geometricPrecision; font-family:sans-serif; stroke-linejoin:round;">
      <line x1="213" x2="63" y1="73" style="clip-path:url(#clipPath18); fill:none;" y2="63" />
    </g>
    <g transform="translate(578,173)" style="font-size:11; stroke-linecap:butt; text-rendering:geometricPrecision; font-family:sans-serif; stroke-linejoin:round;">
      <line x1="213" x2="63" y1="63" style="clip-path:url(#clipPath19); fill:none;" y2="81" />
    </g>
    <g transform="translate(578,193)" style="font-size:11; stroke-linecap:butt; text-rendering:geometricPrecision; font-family:sans-serif; stroke-linejoin:round;">
      <line x1="213" x2="63" y1="63" style="clip-path:url(#clipPath20); fill:none;" y2="113" />
    </g>
    <g transform="translate(-22,72)" style="font-size:11; stroke-linecap:butt; text-rendering:geometricPrecision; font-family:sans-serif; stroke-linejoin:round;">
      <line x1="63" x2="203" y1="94" style="clip-path:url(#clipPath21); fill:none;" y2="63" />
    </g>
    <g transform="translate(-22,122)" style="font-size:11; stroke-linecap:butt; text-rendering:geometricPrecision; font-family:sans-serif; stroke-linejoin:round;">
      <line x1="63" x2="203" y1="63" style="clip-path:url(#clipPath22); fill:none;" y2="63" />
    </g>
    <g transform="translate(-22,142)" style="font-size:11; stroke-linecap:butt; text-rendering:geometricPrecision; font-family:sans-serif; stroke-linejoin:round;">
      <line x1="63" x2="203" y1="63" style="clip-path:url(#clipPath23); fill:none;" y2="93" />
    </g>
    <g transform="translate(-22,162)" style="font-size:11; stroke-linecap:butt; text-rendering:geometricPrecision; font-family:sans-serif; stroke-linejoin:round;">
      <line x1="63" x2="203" y1="63" style="clip-path:url(#clipPath24); fill:none;" y2="123" />
    </g>
    <g transform="translate(-42,180)" style="font-size:11; stroke-linecap:butt; text-rendering:geometricPrecision; font-family:sans-serif; stroke-linejoin:round;">
      <line x1="63" x2="63" y1="63" style="clip-path:url(#clipPath25); fill:none;" y2="264" />
      <polygon style="fill:white; clip-path:url(#clipPath25); stroke:none;" points=" 63 63 57 75 69 75" />
      <polygon style="fill:none; clip-path:url(#clipPath25);" points=" 63 63 57 75 69 75" />
    </g>
    <g transform="translate(-22,302)" style="font-size:11; stroke-linecap:butt; text-rendering:geometricPrecision; font-family:sans-serif; stroke-linejoin:round;">
      <line x1="63" x2="193" y1="143" style="clip-path:url(#clipPath26); fill:none;" y2="63" />
    </g>
    <g transform="translate(-22,362)" style="font-size:11; stroke-linecap:butt; text-rendering:geometricPrecision; font-family:sans-serif; stroke-linejoin:round;">
      <line x1="63" x2="213" y1="93" style="clip-path:url(#clipPath27); fill:none;" y2="63" />
    </g>
    <g transform="translate(-22,412)" style="font-size:11; stroke-linecap:butt; text-rendering:geometricPrecision; font-family:sans-serif; stroke-linejoin:round;">
      <line x1="63" x2="213" y1="63" style="clip-path:url(#clipPath28); fill:none;" y2="63" />
    </g>
    <g transform="translate(-21,421)" style="font-size:11; stroke-linecap:butt; text-rendering:geometricPrecision; font-family:sans-serif; stroke-linejoin:round;">
      <line x1="63" x2="213" y1="63" style="clip-path:url(#clipPath29); fill:none;" y2="103" />
    </g>
    <g transform="translate(4,459)" style="font-size:11; stroke-linecap:butt; text-rendering:geometricPrecision; font-family:sans-serif; stroke-linejoin:round;">
      <line x1="36" x2="176" y1="36" style="clip-path:url(#clipPath30); fill:none;" y2="126" />
    </g>
    <g transform="translate(-22,442)" style="font-size:11; stroke-linecap:butt; text-rendering:geometricPrecision; font-family:sans-serif; stroke-linejoin:round;">
      <line x1="63" x2="193" y1="63" style="clip-path:url(#clipPath31); fill:none;" y2="193" />
    </g>
    <g style="text-rendering:geometricPrecision; font-size:11; font-family:sans-serif;" transform="translate(160,405)">
      <text x="11" y="15" style="clip-path:url(#clipPath32); stroke:none;" xml:space="preserve">0..*</text>
    </g>
    <g style="text-rendering:geometricPrecision; font-size:11; font-family:sans-serif;" transform="translate(30,435)">
      <text x="17" y="15" style="clip-path:url(#clipPath32); stroke:none;" xml:space="preserve">1</text>
    </g>
    <g style="text-rendering:geometricPrecision; font-size:11; font-family:sans-serif;" transform="translate(160,455)">
      <text x="11" y="15" style="clip-path:url(#clipPath32); stroke:none;" xml:space="preserve">0..*</text>
    </g>
    <g style="text-rendering:geometricPrecision; font-size:11; font-family:sans-serif;" transform="translate(30,455)">
      <text x="17" y="15" style="clip-path:url(#clipPath32); stroke:none;" xml:space="preserve">1</text>
    </g>
    <g style="text-rendering:geometricPrecision; font-size:11; font-family:sans-serif;" transform="translate(150,215)">
      <text x="11" y="15" style="clip-path:url(#clipPath32); stroke:none;" xml:space="preserve">0..*</text>
    </g>
    <g style="text-rendering:geometricPrecision; font-size:11; font-family:sans-serif;" transform="translate(30,185)">
      <text x="17" y="15" style="clip-path:url(#clipPath32); stroke:none;" xml:space="preserve">1</text>
    </g>
    <g style="text-rendering:geometricPrecision; font-size:11; font-family:sans-serif;" transform="translate(630,185)">
      <text x="11" y="15" style="clip-path:url(#clipPath32); stroke:none;" xml:space="preserve">0..*</text>
    </g>
    <g style="text-rendering:geometricPrecision; font-size:11; font-family:sans-serif;" transform="translate(760,195)">
      <text x="17" y="15" style="clip-path:url(#clipPath32); stroke:none;" xml:space="preserve">1</text>
    </g>
    <g style="text-rendering:geometricPrecision; font-size:11; font-family:sans-serif;" transform="translate(150,255)">
      <text x="11" y="15" style="clip-path:url(#clipPath32); stroke:none;" xml:space="preserve">0..*</text>
    </g>
    <g style="text-rendering:geometricPrecision; font-size:11; font-family:sans-serif;" transform="translate(30,204)">
      <text x="17" y="15" style="clip-path:url(#clipPath32); stroke:none;" xml:space="preserve">1</text>
    </g>
    <g style="text-rendering:geometricPrecision; font-size:11; font-family:sans-serif;" transform="translate(140,345)">
      <text x="11" y="15" style="clip-path:url(#clipPath32); stroke:none;" xml:space="preserve">0..*</text>
    </g>
    <g style="text-rendering:geometricPrecision; font-size:11; font-family:sans-serif;" transform="translate(30,415)">
      <text x="17" y="15" style="clip-path:url(#clipPath32); stroke:none;" xml:space="preserve">1</text>
    </g>
    <g style="text-rendering:geometricPrecision; font-size:11; font-family:sans-serif;" transform="translate(150,165)">
      <text x="11" y="15" style="clip-path:url(#clipPath32); stroke:none;" xml:space="preserve">0..*</text>
    </g>
    <g style="text-rendering:geometricPrecision; font-size:11; font-family:sans-serif;" transform="translate(30,165)">
      <text x="17" y="15" style="clip-path:url(#clipPath32); stroke:none;" xml:space="preserve">1</text>
    </g>
    <g style="text-rendering:geometricPrecision; font-size:11; font-family:sans-serif;" transform="translate(150,555)">
      <text x="11" y="15" style="clip-path:url(#clipPath32); stroke:none;" xml:space="preserve">0..*</text>
    </g>
    <g style="text-rendering:geometricPrecision; font-size:11; font-family:sans-serif;" transform="translate(30,495)">
      <text x="17" y="15" style="clip-path:url(#clipPath32); stroke:none;" xml:space="preserve">1</text>
    </g>
    <g style="text-rendering:geometricPrecision; font-size:11; font-family:sans-serif;" transform="translate(140,605)">
      <text x="11" y="15" style="clip-path:url(#clipPath32); stroke:none;" xml:space="preserve">0..*</text>
    </g>
    <g style="text-rendering:geometricPrecision; font-size:11; font-family:sans-serif;" transform="translate(30,485)">
      <text x="17" y="15" style="clip-path:url(#clipPath32); stroke:none;" xml:space="preserve">1</text>
    </g>
    <g style="text-rendering:geometricPrecision; font-size:11; font-family:sans-serif;" transform="translate(160,505)">
      <text x="11" y="15" style="clip-path:url(#clipPath32); stroke:none;" xml:space="preserve">0..*</text>
    </g>
    <g style="text-rendering:geometricPrecision; font-size:11; font-family:sans-serif;" transform="translate(30,475)">
      <text x="17" y="15" style="clip-path:url(#clipPath32); stroke:none;" xml:space="preserve">1</text>
    </g>
    <g style="text-rendering:geometricPrecision; font-size:11; font-family:sans-serif;" transform="translate(630,285)">
      <text x="11" y="15" style="clip-path:url(#clipPath32); stroke:none;" xml:space="preserve">0..*</text>
    </g>
    <g style="text-rendering:geometricPrecision; font-size:11; font-family:sans-serif;" transform="translate(760,235)">
      <text x="17" y="15" style="clip-path:url(#clipPath32); stroke:none;" xml:space="preserve">1</text>
    </g>
    <g style="text-rendering:geometricPrecision; font-size:11; font-family:sans-serif;" transform="translate(150,114)">
      <text x="11" y="15" style="clip-path:url(#clipPath32); stroke:none;" xml:space="preserve">0..*</text>
    </g>
    <g style="text-rendering:geometricPrecision; font-size:11; font-family:sans-serif;" transform="translate(30,145)">
      <text x="17" y="15" style="clip-path:url(#clipPath32); stroke:none;" xml:space="preserve">1</text>
    </g>
    <g style="text-rendering:geometricPrecision; font-size:11; font-family:sans-serif;" transform="translate(630,235)">
      <text x="11" y="15" style="clip-path:url(#clipPath32); stroke:none;" xml:space="preserve">0..*</text>
    </g>
    <g style="text-rendering:geometricPrecision; font-size:11; font-family:sans-serif;" transform="translate(760,215)">
      <text x="17" y="15" style="clip-path:url(#clipPath32); stroke:none;" xml:space="preserve">1</text>
    </g>
    <g style="text-rendering:geometricPrecision; font-size:11; font-family:sans-serif;" transform="translate(630,135)">
      <text x="11" y="15" style="clip-path:url(#clipPath32); stroke:none;" xml:space="preserve">0..*</text>
    </g>
    <g style="text-rendering:geometricPrecision; font-size:11; font-family:sans-serif;" transform="translate(760,175)">
      <text x="17" y="15" style="clip-path:url(#clipPath32); stroke:none;" xml:space="preserve">1</text>
    </g>
    <g style="fill:rgb(120,120,120); text-rendering:geometricPrecision; font-size:10; stroke:rgb(120,120,120);">
    </g>
  </g>
</svg>
