<?xml version="1.0" encoding="UTF-8"?>

<!DOCTYPE svg PUBLIC '-//W3C//DTD SVG 1.0//EN' 'http://www.w3.org/TR/2001/REC-SVG-20010904/DTD/svg10.dtd'>
<svg style="fill-opacity:1; color-rendering:auto; color-interpolation:auto; stroke:black; text-rendering:auto; stroke-linecap:square; stroke-miterlimit:10; stroke-opacity:1; shape-rendering:auto; fill:black; stroke-dasharray:none; font-weight:normal; stroke-width:1; font-family:&apos;Dialog&apos;; font-style:normal; stroke-linejoin:miter; font-size:12; stroke-dashoffset:0; image-rendering:auto;" xmlns="http://www.w3.org/2000/svg" width="586" xmlns:xlink="http://www.w3.org/1999/xlink" height="707">
  <!--Generated by the Batik Graphics2D SVG Generator-->
  <defs id="genericDefs" />
  <g>
    <defs id="defs1">
      <clipPath clipPathUnits="userSpaceOnUse" id="clipPath1">
        <path d="M-3 -3 L157 -3 L157 217 L-3 217 L-3 -3 Z" />
      </clipPath>
      <clipPath clipPathUnits="userSpaceOnUse" id="clipPath2">
        <path d="M0 0 L0 193 L150 193 L150 0 Z" />
      </clipPath>
      <clipPath clipPathUnits="userSpaceOnUse" id="clipPath3">
        <path d="M0 0 L150 0 L150 17 L0 17 L0 0 Z" />
      </clipPath>
      <clipPath clipPathUnits="userSpaceOnUse" id="clipPath4">
        <path d="M-3 -3 L167 -3 L167 237 L-3 237 L-3 -3 Z" />
      </clipPath>
      <clipPath clipPathUnits="userSpaceOnUse" id="clipPath5">
        <path d="M0 0 L0 220 L160 220 L160 0 Z" />
      </clipPath>
      <clipPath clipPathUnits="userSpaceOnUse" id="clipPath6">
        <path d="M0 0 L160 0 L160 17 L0 17 L0 0 Z" />
      </clipPath>
      <clipPath clipPathUnits="userSpaceOnUse" id="clipPath7">
        <path d="M-3 -3 L167 -3 L167 197 L-3 197 L-3 -3 Z" />
      </clipPath>
      <clipPath clipPathUnits="userSpaceOnUse" id="clipPath8">
        <path d="M0 0 L0 180 L160 180 L160 0 Z" />
      </clipPath>
      <clipPath clipPathUnits="userSpaceOnUse" id="clipPath9">
        <path d="M-3 -3 L187 -3 L187 107 L-3 107 L-3 -3 Z" />
      </clipPath>
      <clipPath clipPathUnits="userSpaceOnUse" id="clipPath10">
        <path d="M0 0 L0 90 L180 90 L180 0 Z" />
      </clipPath>
      <clipPath clipPathUnits="userSpaceOnUse" id="clipPath11">
        <path d="M0 0 L180 0 L180 17 L0 17 L0 0 Z" />
      </clipPath>
      <clipPath clipPathUnits="userSpaceOnUse" id="clipPath12">
        <path d="M-3 -3 L187 -3 L187 127 L-3 127 L-3 -3 Z" />
      </clipPath>
      <clipPath clipPathUnits="userSpaceOnUse" id="clipPath13">
        <path d="M0 0 L0 110 L180 110 L180 0 Z" />
      </clipPath>
      <clipPath clipPathUnits="userSpaceOnUse" id="clipPath14">
        <path d="M-3 -3 L187 -3 L187 237 L-3 237 L-3 -3 Z" />
      </clipPath>
      <clipPath clipPathUnits="userSpaceOnUse" id="clipPath15">
        <path d="M0 0 L0 220 L180 220 L180 0 Z" />
      </clipPath>
      <clipPath clipPathUnits="userSpaceOnUse" id="clipPath16">
        <path d="M-3 -3 L47 -3 L47 27 L-3 27 L-3 -3 Z" />
      </clipPath>
      <clipPath clipPathUnits="userSpaceOnUse" id="clipPath17">
        <path d="M0 0 L193 0 L193 133 L0 133 L0 0 Z" />
      </clipPath>
      <clipPath clipPathUnits="userSpaceOnUse" id="clipPath18">
        <path d="M0 0 L104 0 L104 153 L0 153 L0 0 Z" />
      </clipPath>
      <clipPath clipPathUnits="userSpaceOnUse" id="clipPath19">
        <path d="M0 0 L204 0 L204 143 L0 143 L0 0 Z" />
      </clipPath>
      <clipPath clipPathUnits="userSpaceOnUse" id="clipPath20">
        <path d="M0 0 L40 0 L40 20 L0 20 L0 0 Z" />
      </clipPath>
    </defs>
    <g style="fill:white; text-rendering:geometricPrecision; stroke:white;">
      <rect x="0" y="0" width="586" style="stroke:none;" height="707" />
      <rect x="228" y="0" transform="translate(-228,0)" width="585" style="fill:none; stroke:black;" height="706" />
      <text x="235" y="19" transform="translate(-228,0)" style="fill:black; stroke:none;" xml:space="preserve">memberDesignClassDiagram</text>
      <line transform="translate(-228,0)" x1="228" x2="403" y1="26" style="fill:none; stroke:black;" y2="26" />
      <line transform="translate(-228,0)" x1="409" x2="409" y1="0" style="fill:none; stroke:black;" y2="15" />
      <line transform="translate(-228,0)" x1="409" x2="403" y1="15" style="fill:none; stroke:black;" y2="26" />
    </g>
    <g transform="translate(212,33)" style="font-size:14; fill:rgb(122,207,245); text-rendering:geometricPrecision; font-family:&apos;Times New Roman&apos;; stroke:rgb(122,207,245); font-weight:bold;">
      <rect x="0" y="0" width="150" style="clip-path:url(#clipPath1); stroke:none;" height="210" />
    </g>
    <g transform="translate(212,33)" style="font-size:14; stroke-linecap:butt; text-rendering:geometricPrecision; font-family:&apos;Times New Roman&apos;; stroke-linejoin:round; font-weight:bold; stroke-miterlimit:0;">
      <rect x="0" y="0" width="150" style="clip-path:url(#clipPath1); fill:none;" height="210" />
      <line x1="0" x2="150" y1="17" style="clip-path:url(#clipPath1); fill:none;" y2="17" />
    </g>
    <g style="text-rendering:geometricPrecision; font-size:14; font-family:&apos;Times New Roman&apos;;" transform="translate(212,50)">
      <text x="2" y="15" style="clip-path:url(#clipPath2); stroke:none;" xml:space="preserve">-memID : varchar</text>
      <text x="2" y="31" style="clip-path:url(#clipPath2); stroke:none;" xml:space="preserve">-memName : varchar</text>
      <text x="2" y="47" style="clip-path:url(#clipPath2); stroke:none;" xml:space="preserve">-memBir : date</text>
      <text x="2" y="63" style="clip-path:url(#clipPath2); stroke:none;" xml:space="preserve">-memMail : varchar</text>
      <text x="2" y="79" style="clip-path:url(#clipPath2); stroke:none;" xml:space="preserve">-memGender : char</text>
      <text x="2" y="95" style="clip-path:url(#clipPath2); stroke:none;" xml:space="preserve">-memAddr : varchar</text>
      <text x="2" y="111" style="clip-path:url(#clipPath2); stroke:none;" xml:space="preserve">-type : char</text>
      <line x1="0" x2="150" y1="116" style="stroke-linecap:butt; clip-path:url(#clipPath2); fill:none; stroke-linejoin:bevel; stroke-miterlimit:0;" y2="116" />
      <text x="2" y="131" style="clip-path:url(#clipPath2); stroke:none;" xml:space="preserve">+createMem()</text>
      <text x="2" y="147" style="clip-path:url(#clipPath2); stroke:none;" xml:space="preserve">+modifyMem()</text>
      <text x="2" y="163" style="clip-path:url(#clipPath2); stroke:none;" xml:space="preserve">+delMem()</text>
    </g>
    <g transform="translate(212,33)" style="text-rendering:geometricPrecision; font-size:14; font-weight:bold; font-family:&apos;Times New Roman&apos;;">
      <text x="50" y="14" style="clip-path:url(#clipPath3); stroke:none;" xml:space="preserve">member</text>
    </g>
    <g transform="translate(12,373)" style="font-size:14; fill:rgb(122,207,245); text-rendering:geometricPrecision; font-family:&apos;Times New Roman&apos;; stroke:rgb(122,207,245); font-weight:bold;">
      <rect x="0" y="0" width="160" style="clip-path:url(#clipPath4); stroke:none;" height="230" />
    </g>
    <g transform="translate(12,373)" style="font-size:14; stroke-linecap:butt; text-rendering:geometricPrecision; font-family:&apos;Times New Roman&apos;; stroke-linejoin:round; font-weight:bold; stroke-miterlimit:0;">
      <rect x="0" y="0" width="160" style="clip-path:url(#clipPath4); fill:none;" height="230" />
      <line x1="0" x2="160" y1="17" style="clip-path:url(#clipPath4); fill:none;" y2="17" />
    </g>
    <g style="text-rendering:geometricPrecision; font-size:14; font-family:&apos;Times New Roman&apos;;" transform="translate(12,390)">
      <text x="2" y="15" style="clip-path:url(#clipPath5); stroke:none;" xml:space="preserve">-memID : varchar</text>
      <text x="2" y="31" style="clip-path:url(#clipPath5); stroke:none;" xml:space="preserve">-petID : varchar</text>
      <text x="2" y="47" style="clip-path:url(#clipPath5); stroke:none;" xml:space="preserve">-petName : varchar</text>
      <text x="2" y="63" style="clip-path:url(#clipPath5); stroke:none;" xml:space="preserve">-petGender : char</text>
      <text x="2" y="79" style="clip-path:url(#clipPath5); stroke:none;" xml:space="preserve">-petBir : date</text>
      <text x="2" y="95" style="clip-path:url(#clipPath5); stroke:none;" xml:space="preserve">-petKind : char</text>
      <text x="2" y="111" style="clip-path:url(#clipPath5); stroke:none;" xml:space="preserve">-petInterest : varchar</text>
      <text x="2" y="127" style="clip-path:url(#clipPath5); stroke:none;" xml:space="preserve">-note : varchar</text>
      <line x1="0" x2="160" y1="132" style="stroke-linecap:butt; clip-path:url(#clipPath5); fill:none; stroke-linejoin:bevel; stroke-miterlimit:0;" y2="132" />
      <text x="2" y="147" style="clip-path:url(#clipPath5); stroke:none;" xml:space="preserve">+checkPetID()</text>
      <text x="2" y="163" style="clip-path:url(#clipPath5); stroke:none;" xml:space="preserve">+createPet()</text>
      <text x="2" y="179" style="clip-path:url(#clipPath5); stroke:none;" xml:space="preserve">+searchPet()</text>
    </g>
    <g transform="translate(12,373)" style="text-rendering:geometricPrecision; font-size:14; font-weight:bold; font-family:&apos;Times New Roman&apos;;">
      <text x="70" y="14" style="clip-path:url(#clipPath6); stroke:none;" xml:space="preserve">pet</text>
    </g>
    <g transform="translate(12,133)" style="font-size:14; fill:rgb(122,207,245); text-rendering:geometricPrecision; font-family:&apos;Times New Roman&apos;; stroke:rgb(122,207,245); font-weight:bold;">
      <rect x="0" y="0" width="160" style="clip-path:url(#clipPath7); stroke:none;" height="190" />
    </g>
    <g transform="translate(12,133)" style="font-size:14; stroke-linecap:butt; text-rendering:geometricPrecision; font-family:&apos;Times New Roman&apos;; stroke-linejoin:round; font-weight:bold; stroke-miterlimit:0;">
      <rect x="0" y="0" width="160" style="clip-path:url(#clipPath7); fill:none;" height="190" />
      <line x1="0" x2="160" y1="17" style="clip-path:url(#clipPath7); fill:none;" y2="17" />
    </g>
    <g style="text-rendering:geometricPrecision; font-size:14; font-family:&apos;Times New Roman&apos;;" transform="translate(12,150)">
      <text x="2" y="15" style="clip-path:url(#clipPath8); stroke:none;" xml:space="preserve">-memID : varchar</text>
      <text x="2" y="31" style="clip-path:url(#clipPath8); stroke:none;" xml:space="preserve">-memAcct : varchar</text>
      <text x="2" y="47" style="clip-path:url(#clipPath8); stroke:none;" xml:space="preserve">-memPsd : varchar</text>
      <line x1="0" x2="160" y1="52" style="stroke-linecap:butt; clip-path:url(#clipPath8); fill:none; stroke-linejoin:bevel; stroke-miterlimit:0;" y2="52" />
      <text x="2" y="67" style="clip-path:url(#clipPath8); stroke:none;" xml:space="preserve">+checkMemID()</text>
      <text x="2" y="83" style="clip-path:url(#clipPath8); stroke:none;" xml:space="preserve">+checkAcct()</text>
      <text x="2" y="99" style="clip-path:url(#clipPath8); stroke:none;" xml:space="preserve">+checkPsd()</text>
      <text x="2" y="115" style="clip-path:url(#clipPath8); stroke:none;" xml:space="preserve">+login()</text>
      <text x="2" y="131" style="clip-path:url(#clipPath8); stroke:none;" xml:space="preserve">+modifyPsd()</text>
    </g>
    <g transform="translate(12,133)" style="text-rendering:geometricPrecision; font-size:14; font-weight:bold; font-family:&apos;Times New Roman&apos;;">
      <text x="56" y="14" style="clip-path:url(#clipPath6); stroke:none;" xml:space="preserve">account</text>
    </g>
    <g transform="translate(392,143)" style="font-size:14; fill:rgb(122,207,245); text-rendering:geometricPrecision; font-family:&apos;Times New Roman&apos;; stroke:rgb(122,207,245); font-weight:bold;">
      <rect x="0" y="0" width="180" style="clip-path:url(#clipPath9); stroke:none;" height="100" />
    </g>
    <g transform="translate(392,143)" style="font-size:14; stroke-linecap:butt; text-rendering:geometricPrecision; font-family:&apos;Times New Roman&apos;; stroke-linejoin:round; font-weight:bold; stroke-miterlimit:0;">
      <rect x="0" y="0" width="180" style="clip-path:url(#clipPath9); fill:none;" height="100" />
      <line x1="0" x2="180" y1="17" style="clip-path:url(#clipPath9); fill:none;" y2="17" />
    </g>
    <g style="text-rendering:geometricPrecision; font-size:14; font-family:&apos;Times New Roman&apos;;" transform="translate(392,160)">
      <text x="2" y="15" style="clip-path:url(#clipPath10); stroke:none;" xml:space="preserve">-type : char</text>
      <text x="2" y="31" style="clip-path:url(#clipPath10); stroke:none;" xml:space="preserve">-typeName : varchar</text>
      <line x1="0" x2="180" y1="36" style="stroke-linecap:butt; clip-path:url(#clipPath10); fill:none; stroke-linejoin:bevel; stroke-miterlimit:0;" y2="36" />
      <text x="2" y="51" style="clip-path:url(#clipPath10); stroke:none;" xml:space="preserve">+checkType()</text>
    </g>
    <g transform="translate(392,143)" style="text-rendering:geometricPrecision; font-size:14; font-weight:bold; font-family:&apos;Times New Roman&apos;;">
      <text x="62" y="14" style="clip-path:url(#clipPath11); stroke:none;" xml:space="preserve">authority</text>
    </g>
    <g transform="translate(392,293)" style="font-size:14; fill:rgb(122,207,245); text-rendering:geometricPrecision; font-family:&apos;Times New Roman&apos;; stroke:rgb(122,207,245); font-weight:bold;">
      <rect x="0" y="0" width="180" style="clip-path:url(#clipPath12); stroke:none;" height="120" />
    </g>
    <g transform="translate(392,293)" style="font-size:14; stroke-linecap:butt; text-rendering:geometricPrecision; font-family:&apos;Times New Roman&apos;; stroke-linejoin:round; font-weight:bold; stroke-miterlimit:0;">
      <rect x="0" y="0" width="180" style="clip-path:url(#clipPath12); fill:none;" height="120" />
      <line x1="0" x2="180" y1="17" style="clip-path:url(#clipPath12); fill:none;" y2="17" />
    </g>
    <g style="text-rendering:geometricPrecision; font-size:14; font-family:&apos;Times New Roman&apos;;" transform="translate(392,310)">
      <text x="2" y="15" style="clip-path:url(#clipPath13); stroke:none;" xml:space="preserve">-managerID : varchar</text>
      <text x="2" y="31" style="clip-path:url(#clipPath13); stroke:none;" xml:space="preserve">-managerName : varchar</text>
      <text x="2" y="47" style="clip-path:url(#clipPath13); stroke:none;" xml:space="preserve">-type : char</text>
      <line x1="0" x2="180" y1="52" style="stroke-linecap:butt; clip-path:url(#clipPath13); fill:none; stroke-linejoin:bevel; stroke-miterlimit:0;" y2="52" />
      <text x="2" y="67" style="clip-path:url(#clipPath13); stroke:none;" xml:space="preserve">+checkManagerID()</text>
    </g>
    <g transform="translate(392,293)" style="text-rendering:geometricPrecision; font-size:14; font-weight:bold; font-family:&apos;Times New Roman&apos;;">
      <text x="63" y="14" style="clip-path:url(#clipPath11); stroke:none;" xml:space="preserve">manager</text>
    </g>
    <g transform="translate(392,463)" style="font-size:14; fill:rgb(122,207,245); text-rendering:geometricPrecision; font-family:&apos;Times New Roman&apos;; stroke:rgb(122,207,245); font-weight:bold;">
      <rect x="0" y="0" width="180" style="clip-path:url(#clipPath14); stroke:none;" height="230" />
    </g>
    <g transform="translate(392,463)" style="font-size:14; stroke-linecap:butt; text-rendering:geometricPrecision; font-family:&apos;Times New Roman&apos;; stroke-linejoin:round; font-weight:bold; stroke-miterlimit:0;">
      <rect x="0" y="0" width="180" style="clip-path:url(#clipPath14); fill:none;" height="230" />
      <line x1="0" x2="180" y1="17" style="clip-path:url(#clipPath14); fill:none;" y2="17" />
    </g>
    <g style="text-rendering:geometricPrecision; font-size:14; font-family:&apos;Times New Roman&apos;;" transform="translate(392,480)">
      <text x="2" y="15" style="clip-path:url(#clipPath15); stroke:none;" xml:space="preserve">-adoptAgencyID : varchar</text>
      <text x="2" y="31" style="clip-path:url(#clipPath15); stroke:none;" xml:space="preserve">-adoptAgencyName : varchar</text>
      <text x="2" y="47" style="clip-path:url(#clipPath15); stroke:none;" xml:space="preserve">-adoptAgencyAddr : varchar</text>
      <text x="2" y="63" style="clip-path:url(#clipPath15); stroke:none;" xml:space="preserve">-adoptAgencyInfo : varchar</text>
      <text x="2" y="79" style="clip-path:url(#clipPath15); stroke:none;" xml:space="preserve">-adoptAgencyPhoto : varchar</text>
      <line x1="0" x2="180" y1="84" style="stroke-linecap:butt; clip-path:url(#clipPath15); fill:none; stroke-linejoin:bevel; stroke-miterlimit:0;" y2="84" />
      <text x="2" y="99" style="clip-path:url(#clipPath15); stroke:none;" xml:space="preserve">+editAdopt()</text>
      <text x="2" y="115" style="clip-path:url(#clipPath15); stroke:none;" xml:space="preserve">+createDogInfo()</text>
      <text x="2" y="131" style="clip-path:url(#clipPath15); stroke:none;" xml:space="preserve">+dogInfoID()</text>
      <text x="2" y="147" style="clip-path:url(#clipPath15); stroke:none;" xml:space="preserve">+dogInfoTitle()</text>
      <text x="2" y="163" style="clip-path:url(#clipPath15); stroke:none;" xml:space="preserve">+dogInfoContent()</text>
      <text x="2" y="179" style="clip-path:url(#clipPath15); stroke:none;" xml:space="preserve">+dogInfoPhoto()</text>
    </g>
    <g transform="translate(392,463)" style="text-rendering:geometricPrecision; font-size:14; font-weight:bold; font-family:&apos;Times New Roman&apos;;">
      <text x="78" y="14" style="clip-path:url(#clipPath11); stroke:none;" xml:space="preserve">edit</text>
    </g>
    <g transform="translate(72,53)" style="font-size:11; stroke-linecap:butt; text-rendering:geometricPrecision; font-family:sans-serif; stroke-linejoin:round;">
      <line x1="139" x2="50" y1="50" style="clip-path:url(#clipPath17); fill:none;" y2="50" />
      <line x1="50" x2="50" y1="50" style="clip-path:url(#clipPath17); fill:none;" y2="79" />
    </g>
    <g transform="translate(42,273)" style="font-size:11; stroke-linecap:butt; text-rendering:geometricPrecision; font-family:sans-serif; stroke-linejoin:round;">
      <line x1="50" x2="50" y1="50" style="clip-path:url(#clipPath18); fill:none;" y2="99" />
    </g>
    <g transform="translate(312,53)" style="font-size:11; stroke-linecap:butt; text-rendering:geometricPrecision; font-family:sans-serif; stroke-linejoin:round;">
      <line x1="50" x2="150" y1="50" style="clip-path:url(#clipPath19); fill:none;" y2="50" />
      <line x1="150" x2="150" y1="50" style="clip-path:url(#clipPath19); fill:none;" y2="89" />
    </g>
    <g transform="translate(412,193)" style="font-size:11; stroke-linecap:butt; text-rendering:geometricPrecision; font-family:sans-serif; stroke-linejoin:round;">
      <line x1="50" x2="50" y1="50" style="clip-path:url(#clipPath18); fill:none;" y2="99" />
    </g>
    <g transform="translate(412,363)" style="font-size:11; stroke-linecap:butt; text-rendering:geometricPrecision; font-family:sans-serif; stroke-linejoin:round;">
      <line x1="50" x2="50" y1="50" style="clip-path:url(#clipPath18); fill:none;" y2="99" />
    </g>
    <g style="text-rendering:geometricPrecision; font-size:11; font-family:sans-serif;" transform="translate(462,443)">
      <text x="11" y="15" style="clip-path:url(#clipPath20); stroke:none;" xml:space="preserve">0..*</text>
    </g>
    <g style="text-rendering:geometricPrecision; font-size:11; font-family:sans-serif;" transform="translate(462,413)">
      <text x="17" y="15" style="clip-path:url(#clipPath20); stroke:none;" xml:space="preserve">1</text>
    </g>
    <g style="text-rendering:geometricPrecision; font-size:11; font-family:sans-serif;" transform="translate(92,353)">
      <text x="11" y="15" style="clip-path:url(#clipPath20); stroke:none;" xml:space="preserve">1..*</text>
    </g>
    <g style="text-rendering:geometricPrecision; font-size:11; font-family:sans-serif;" transform="translate(82,323)">
      <text x="17" y="15" style="clip-path:url(#clipPath20); stroke:none;" xml:space="preserve">1</text>
    </g>
    <g style="text-rendering:geometricPrecision; font-size:11; font-family:sans-serif;" transform="translate(422,123)">
      <text x="17" y="15" style="clip-path:url(#clipPath20); stroke:none;" xml:space="preserve">1</text>
    </g>
    <g style="text-rendering:geometricPrecision; font-size:11; font-family:sans-serif;" transform="translate(362,83)">
      <text x="11" y="15" style="clip-path:url(#clipPath20); stroke:none;" xml:space="preserve">1..*</text>
    </g>
    <g style="text-rendering:geometricPrecision; font-size:11; font-family:sans-serif;" transform="translate(122,113)">
      <text x="17" y="15" style="clip-path:url(#clipPath20); stroke:none;" xml:space="preserve">1</text>
    </g>
    <g style="text-rendering:geometricPrecision; font-size:11; font-family:sans-serif;" transform="translate(172,103)">
      <text x="17" y="15" style="clip-path:url(#clipPath20); stroke:none;" xml:space="preserve">1</text>
    </g>
    <g style="text-rendering:geometricPrecision; font-size:11; font-family:sans-serif;" transform="translate(462,273)">
      <text x="11" y="15" style="clip-path:url(#clipPath20); stroke:none;" xml:space="preserve">1..*</text>
    </g>
    <g style="text-rendering:geometricPrecision; font-size:11; font-family:sans-serif;" transform="translate(462,243)">
      <text x="17" y="15" style="clip-path:url(#clipPath20); stroke:none;" xml:space="preserve">1</text>
    </g>
    <g style="fill:rgb(120,120,120); text-rendering:geometricPrecision; font-size:10; stroke:rgb(120,120,120);">
    </g>
  </g>
</svg>
