<?xml version="1.0" encoding="UTF-8"?>

<!DOCTYPE svg PUBLIC '-//W3C//DTD SVG 1.0//EN' 'http://www.w3.org/TR/2001/REC-SVG-20010904/DTD/svg10.dtd'>
<svg style="fill-opacity:1; color-rendering:auto; color-interpolation:auto; stroke:black; text-rendering:auto; stroke-linecap:square; stroke-miterlimit:10; stroke-opacity:1; shape-rendering:auto; fill:black; stroke-dasharray:none; font-weight:normal; stroke-width:1; font-family:&apos;Dialog&apos;; font-style:normal; stroke-linejoin:miter; font-size:12; stroke-dashoffset:0; image-rendering:auto;" xmlns="http://www.w3.org/2000/svg" width="836" xmlns:xlink="http://www.w3.org/1999/xlink" height="499">
  <!--Generated by the Batik Graphics2D SVG Generator-->
  <defs id="genericDefs" />
  <g>
    <defs id="defs1">
      <clipPath clipPathUnits="userSpaceOnUse" id="clipPath1">
        <path d="M-3 -3 L67 -3 L67 457 L-3 457 L-3 -3 Z" />
      </clipPath>
      <clipPath clipPathUnits="userSpaceOnUse" id="clipPath2">
        <path d="M-3 -3 L87 -3 L87 457 L-3 457 L-3 -3 Z" />
      </clipPath>
      <clipPath clipPathUnits="userSpaceOnUse" id="clipPath3">
        <path d="M-3 -3 L107 -3 L107 457 L-3 457 L-3 -3 Z" />
      </clipPath>
      <clipPath clipPathUnits="userSpaceOnUse" id="clipPath4">
        <path d="M-3 -3 L14 -3 L14 357 L-3 357 L-3 -3 Z" />
      </clipPath>
      <clipPath clipPathUnits="userSpaceOnUse" id="clipPath5">
        <path d="M-3 -3 L817 -3 L817 297 L-3 297 L-3 -3 Z" />
      </clipPath>
      <clipPath clipPathUnits="userSpaceOnUse" id="clipPath6">
        <path d="M0 0 L23 0 L23 20 L0 20 L0 0 Z" />
      </clipPath>
      <clipPath clipPathUnits="userSpaceOnUse" id="clipPath7">
        <path d="M-3 -3 L14 -3 L14 18 L-3 18 L-3 -3 Z" />
      </clipPath>
      <clipPath clipPathUnits="userSpaceOnUse" id="clipPath8">
        <path d="M-3 -3 L817 -3 L817 182 L-3 182 L-3 -3 Z" />
      </clipPath>
      <clipPath clipPathUnits="userSpaceOnUse" id="clipPath9">
        <path d="M0 0 L70 0 L70 17 L0 17 L0 0 Z" />
      </clipPath>
      <clipPath clipPathUnits="userSpaceOnUse" id="clipPath10">
        <path d="M0 0 L0 4 L810 4 L810 0 Z" />
      </clipPath>
      <clipPath clipPathUnits="userSpaceOnUse" id="clipPath11">
        <path d="M-3 -3 L14 -3 L14 94 L-3 94 L-3 -3 Z" />
      </clipPath>
      <clipPath clipPathUnits="userSpaceOnUse" id="clipPath12">
        <path d="M-3 -3 L817 -3 L817 107 L-3 107 L-3 -3 Z" />
      </clipPath>
      <clipPath clipPathUnits="userSpaceOnUse" id="clipPath13">
        <path d="M0 0 L100 0 L100 17 L0 17 L0 0 Z" />
      </clipPath>
      <clipPath clipPathUnits="userSpaceOnUse" id="clipPath14">
        <path d="M0 0 L80 0 L80 18 L0 18 L0 0 Z" />
      </clipPath>
      <clipPath clipPathUnits="userSpaceOnUse" id="clipPath15">
        <path d="M0 0 L48 0 L48 18 L0 18 L0 0 Z" />
      </clipPath>
      <clipPath clipPathUnits="userSpaceOnUse" id="clipPath16">
        <path d="M0 0 L399 0 L399 146 L0 146 L0 0 Z" />
      </clipPath>
      <clipPath clipPathUnits="userSpaceOnUse" id="clipPath17">
        <path d="M0 0 L172 0 L172 166 L0 166 L0 0 Z" />
      </clipPath>
      <clipPath clipPathUnits="userSpaceOnUse" id="clipPath18">
        <path d="M0 0 L389 0 L389 146 L0 146 L0 0 Z" />
      </clipPath>
      <clipPath clipPathUnits="userSpaceOnUse" id="clipPath19">
        <path d="M0 0 L162 0 L162 166 L0 166 L0 0 Z" />
      </clipPath>
      <clipPath clipPathUnits="userSpaceOnUse" id="clipPath20">
        <path d="M0 0 L111 0 L111 17 L0 17 L0 0 Z" />
      </clipPath>
      <clipPath clipPathUnits="userSpaceOnUse" id="clipPath21">
        <path d="M0 0 L125 0 L125 17 L0 17 L0 0 Z" />
      </clipPath>
      <clipPath clipPathUnits="userSpaceOnUse" id="clipPath22">
        <path d="M0 0 L137 0 L137 17 L0 17 L0 0 Z" />
      </clipPath>
      <clipPath clipPathUnits="userSpaceOnUse" id="clipPath23">
        <path d="M0 0 L165 0 L165 17 L0 17 L0 0 Z" />
      </clipPath>
      <clipPath clipPathUnits="userSpaceOnUse" id="clipPath24">
        <path d="M0 0 L97 0 L97 17 L0 17 L0 0 Z" />
      </clipPath>
    </defs>
    <g style="fill:white; text-rendering:geometricPrecision; stroke:white;">
      <rect x="0" y="0" width="836" style="stroke:none;" height="499" />
      <rect x="98" y="38" transform="translate(-98,-38)" width="835" style="fill:none; stroke:black;" height="498" />
      <text x="105" y="57" transform="translate(-98,-38)" style="fill:black; stroke:none; font-weight:bold;" xml:space="preserve">sd</text>
      <text x="126" y="57" transform="translate(-98,-38)" style="fill:black; stroke:none;" xml:space="preserve">寵物辨識</text>
      <line transform="translate(-98,-38)" x1="98" x2="174" y1="64" style="fill:none; stroke:black;" y2="64" />
      <line transform="translate(-98,-38)" x1="180" x2="180" y1="38" style="fill:none; stroke:black;" y2="53" />
      <line transform="translate(-98,-38)" x1="180" x2="174" y1="53" style="fill:none; stroke:black;" y2="64" />
    </g>
    <g transform="translate(122,35)" style="font-size:14; fill:rgb(122,207,245); text-rendering:geometricPrecision; font-family:&apos;標楷體&apos;; stroke:rgb(122,207,245);">
      <circle style="clip-path:url(#clipPath1); stroke:none;" r="5" cx="30" cy="5" />
      <rect x="26" y="52" width="8" style="clip-path:url(#clipPath1); stroke:none;" height="397" />
    </g>
    <g transform="translate(122,35)" style="font-size:14; stroke-linecap:butt; text-rendering:geometricPrecision; font-family:&apos;標楷體&apos;; stroke-linejoin:round; stroke-miterlimit:0;">
      <circle style="fill:none; clip-path:url(#clipPath1);" r="5" cx="30" cy="5" />
      <rect x="26" y="52" width="8" style="clip-path:url(#clipPath1); fill:none;" height="397" />
      <line x1="30" x2="30" y1="10" style="clip-path:url(#clipPath1); fill:none;" y2="25" />
      <line x1="30" x2="21" y1="25" style="clip-path:url(#clipPath1); fill:none;" y2="36" />
      <line x1="30" x2="39" y1="25" style="clip-path:url(#clipPath1); fill:none;" y2="36" />
      <line x1="21" x2="39" y1="16" style="clip-path:url(#clipPath1); fill:none;" y2="16" />
    </g>
    <g transform="translate(372,35)" style="font-size:14; fill:rgb(122,207,245); text-rendering:geometricPrecision; font-family:&apos;標楷體&apos;; stroke:rgb(122,207,245);">
      <rect x="0" y="0" width="79" style="clip-path:url(#clipPath2); stroke:none;" height="35" />
    </g>
    <g transform="translate(372,35)" style="font-size:14; stroke-linecap:butt; text-rendering:geometricPrecision; font-family:&apos;標楷體&apos;; stroke-linejoin:round; stroke-miterlimit:0;">
      <rect x="0" y="0" width="79" style="clip-path:url(#clipPath2); fill:none;" height="35" />
      <line x1="39" x2="39" y1="35" style="clip-path:url(#clipPath2); fill:none; stroke-linejoin:bevel; stroke-dasharray:8,3;" y2="450" />
    </g>
    <g transform="translate(612,35)" style="font-size:14; fill:rgb(122,207,245); text-rendering:geometricPrecision; font-family:&apos;Times New Roman&apos;; stroke:rgb(122,207,245);">
      <rect x="0" y="0" width="99" style="clip-path:url(#clipPath3); stroke:none;" height="35" />
    </g>
    <g transform="translate(612,35)" style="font-size:14; stroke-linecap:butt; text-rendering:geometricPrecision; font-family:&apos;Times New Roman&apos;; stroke-linejoin:round; stroke-miterlimit:0;">
      <rect x="0" y="0" width="99" style="clip-path:url(#clipPath3); fill:none;" height="35" />
      <line x1="49" x2="49" y1="35" style="clip-path:url(#clipPath3); fill:none; stroke-linejoin:bevel; stroke-dasharray:8,3;" y2="450" />
    </g>
    <g transform="translate(409,92)" style="font-size:11; fill:rgb(122,207,245); text-rendering:geometricPrecision; font-family:sans-serif; stroke:rgb(122,207,245);">
      <rect x="0" y="0" width="7" style="clip-path:url(#clipPath4); stroke:none;" height="350" />
    </g>
    <g transform="translate(409,92)" style="font-size:11; stroke-linecap:butt; text-rendering:geometricPrecision; font-family:sans-serif; stroke-linejoin:round; stroke-miterlimit:0;">
      <rect x="0" y="0" width="7" style="clip-path:url(#clipPath4); fill:none;" height="350" />
    </g>
    <g transform="translate(12,165)" style="font-size:11; stroke-linecap:butt; text-rendering:geometricPrecision; font-family:sans-serif; stroke-linejoin:round; font-weight:bold; stroke-miterlimit:0;">
      <rect x="0" y="0" width="810" style="clip-path:url(#clipPath5); fill:none;" height="290" />
    </g>
    <g transform="translate(12,165)" style="font-size:11; fill:white; text-rendering:geometricPrecision; font-family:sans-serif; stroke:white; font-weight:bold;">
      <path d="M22 0 L22 10 L16 19 L0 19 L0 0 Z" style="clip-path:url(#clipPath5); stroke:none;" />
    </g>
    <g transform="translate(12,165)" style="font-size:11; stroke-linecap:butt; text-rendering:geometricPrecision; font-family:sans-serif; stroke-linejoin:round; font-weight:bold; stroke-miterlimit:0;">
      <path d="M22 0 L22 10 L16 19 L0 19 L0 0 Z" style="fill:none; clip-path:url(#clipPath5);" />
    </g>
    <g transform="translate(12,165)" style="text-rendering:geometricPrecision; font-size:11; font-weight:bold; font-family:sans-serif;">
      <text x="5" y="14" style="clip-path:url(#clipPath6); stroke:none;" xml:space="preserve">alt</text>
    </g>
    <g transform="translate(412,222)" style="font-size:11; fill:rgb(122,207,245); text-rendering:geometricPrecision; font-family:sans-serif; stroke:rgb(122,207,245);">
      <rect x="0" y="0" width="7" style="clip-path:url(#clipPath7); stroke:none;" height="11" />
    </g>
    <g transform="translate(412,222)" style="font-size:11; stroke-linecap:butt; text-rendering:geometricPrecision; font-family:sans-serif; stroke-linejoin:round; stroke-miterlimit:0;">
      <rect x="0" y="0" width="7" style="clip-path:url(#clipPath7); fill:none;" height="11" />
    </g>
    <g transform="translate(12,287)" style="font-size:11; fill:white; text-rendering:geometricPrecision; font-family:sans-serif; stroke:white;">
      <rect x="28" y="5" width="70" style="clip-path:url(#clipPath8); stroke:none;" height="17" />
    </g>
    <g style="text-rendering:geometricPrecision; font-size:11; font-family:sans-serif;" transform="translate(40,292)">
      <text x="10" y="14" style="clip-path:url(#clipPath9); stroke:none;" xml:space="preserve">[選擇相簿]</text>
    </g>
    <g transform="translate(659,320)" style="font-size:11; fill:rgb(122,207,245); text-rendering:geometricPrecision; font-family:sans-serif; stroke:rgb(122,207,245);">
      <rect x="0" y="0" width="7" style="clip-path:url(#clipPath11); stroke:none;" height="87" />
    </g>
    <g transform="translate(659,320)" style="font-size:11; stroke-linecap:butt; text-rendering:geometricPrecision; font-family:sans-serif; stroke-linejoin:round; stroke-miterlimit:0;">
      <rect x="0" y="0" width="7" style="clip-path:url(#clipPath11); fill:none;" height="87" />
    </g>
    <g transform="translate(662,350)" style="font-size:11; fill:rgb(122,207,245); text-rendering:geometricPrecision; font-family:sans-serif; stroke:rgb(122,207,245);">
      <rect x="0" y="0" width="7" style="clip-path:url(#clipPath7); stroke:none;" height="11" />
    </g>
    <g transform="translate(662,350)" style="font-size:11; stroke-linecap:butt; text-rendering:geometricPrecision; font-family:sans-serif; stroke-linejoin:round; stroke-miterlimit:0;">
      <rect x="0" y="0" width="7" style="clip-path:url(#clipPath7); fill:none;" height="11" />
    </g>
    <g transform="translate(412,403)" style="font-size:11; fill:rgb(122,207,245); text-rendering:geometricPrecision; font-family:sans-serif; stroke:rgb(122,207,245);">
      <rect x="0" y="0" width="7" style="clip-path:url(#clipPath7); stroke:none;" height="11" />
    </g>
    <g transform="translate(412,403)" style="font-size:11; stroke-linecap:butt; text-rendering:geometricPrecision; font-family:sans-serif; stroke-linejoin:round; stroke-miterlimit:0;">
      <rect x="0" y="0" width="7" style="clip-path:url(#clipPath7); fill:none;" height="11" />
    </g>
    <g transform="translate(12,179)" style="font-size:11; fill:white; text-rendering:geometricPrecision; font-family:sans-serif; stroke:white;">
      <rect x="28" y="5" width="70" style="clip-path:url(#clipPath12); stroke:none;" height="17" />
    </g>
    <g transform="translate(12,179)" style="font-size:11; stroke-linecap:butt; text-rendering:geometricPrecision; font-family:sans-serif; stroke-linejoin:bevel; stroke-dasharray:5,2; stroke-miterlimit:0;">
      <line x1="0" x2="809" y1="99" style="clip-path:url(#clipPath12); fill:none;" y2="99" />
    </g>
    <g style="text-rendering:geometricPrecision; font-size:11; font-family:sans-serif;" transform="translate(40,184)">
      <text x="10" y="14" style="clip-path:url(#clipPath9); stroke:none;" xml:space="preserve">[上傳相片]</text>
    </g>
    <g style="text-rendering:geometricPrecision; font-size:14; font-family:&apos;Times New Roman&apos;;" transform="translate(612,35)">
      <text x="11" y="14" style="clip-path:url(#clipPath13); stroke:none;" xml:space="preserve">photoIdentify</text>
    </g>
    <g style="text-rendering:geometricPrecision; font-size:14; font-family:&apos;標楷體&apos;;" transform="translate(372,35)">
      <text x="5" y="16" style="clip-path:url(#clipPath14); stroke:none;" xml:space="preserve">寵物辨識UI</text>
    </g>
    <g style="text-rendering:geometricPrecision; font-size:14; font-family:&apos;標楷體&apos;;" transform="translate(127,69)">
      <text x="10" y="16" style="clip-path:url(#clipPath15); stroke:none;" xml:space="preserve">會員</text>
    </g>
    <g transform="translate(84,33)" style="font-size:14; stroke-linecap:butt; text-rendering:geometricPrecision; font-family:&apos;標楷體&apos;; stroke-linejoin:round;">
      <line x1="72" x2="325" y1="72" style="clip-path:url(#clipPath16); fill:none;" y2="72" />
      <polygon style="clip-path:url(#clipPath16); stroke:none;" points=" 325 72 313 66 313 78" />
      <polygon style="fill:none; clip-path:url(#clipPath16);" points=" 325 72 313 66 313 78" />
    </g>
    <g transform="translate(84,123)" style="font-size:14; stroke-linecap:butt; text-rendering:geometricPrecision; font-family:&apos;標楷體&apos;; stroke-linejoin:round;">
      <line x1="72" x2="325" y1="72" style="clip-path:url(#clipPath16); fill:none;" y2="72" />
      <polygon style="clip-path:url(#clipPath16); stroke:none;" points=" 325 72 313 66 313 78" />
      <polygon style="fill:none; clip-path:url(#clipPath16);" points=" 325 72 313 66 313 78" />
    </g>
    <g transform="translate(344,133)" style="font-size:14; stroke-linecap:butt; text-rendering:geometricPrecision; font-family:&apos;標楷體&apos;; stroke-linejoin:round;">
      <line x1="72" x2="98" y1="72" style="clip-path:url(#clipPath17); fill:none;" y2="72" />
      <line x1="98" x2="98" y1="72" style="clip-path:url(#clipPath17); fill:none;" y2="92" />
      <line x1="98" x2="75" y1="92" style="clip-path:url(#clipPath17); fill:none;" y2="92" />
      <polygon style="clip-path:url(#clipPath17); stroke:none;" points=" 75 92 87 98 87 86" />
      <polygon style="fill:none; clip-path:url(#clipPath17);" points=" 75 92 87 98 87 86" />
    </g>
    <g transform="translate(84,243)" style="font-size:14; stroke-linecap:butt; text-rendering:geometricPrecision; font-family:&apos;標楷體&apos;; stroke-linejoin:round;">
      <line x1="72" x2="325" y1="72" style="clip-path:url(#clipPath16); fill:none;" y2="72" />
      <polygon style="clip-path:url(#clipPath16); stroke:none;" points=" 325 72 313 66 313 78" />
      <polygon style="fill:none; clip-path:url(#clipPath16);" points=" 325 72 313 66 313 78" />
    </g>
    <g transform="translate(84,73)" style="font-size:14; stroke-linecap:butt; text-rendering:geometricPrecision; font-family:&apos;標楷體&apos;; stroke-linejoin:round; stroke-dasharray:8,3; stroke-miterlimit:0;">
      <line x1="325" x2="72" y1="72" style="clip-path:url(#clipPath16); fill:none;" y2="72" />
      <line x1="72" x2="84" y1="72" style="clip-path:url(#clipPath16); fill:none; stroke-dasharray:none; stroke-miterlimit:10;" y2="78" />
      <line x1="72" x2="84" y1="72" style="clip-path:url(#clipPath16); fill:none; stroke-dasharray:none; stroke-miterlimit:10;" y2="66" />
    </g>
    <g transform="translate(84,173)" style="font-size:14; stroke-linecap:butt; text-rendering:geometricPrecision; font-family:&apos;標楷體&apos;; stroke-linejoin:round; stroke-dasharray:8,3; stroke-miterlimit:0;">
      <line x1="325" x2="72" y1="72" style="clip-path:url(#clipPath16); fill:none;" y2="72" />
      <line x1="72" x2="84" y1="72" style="clip-path:url(#clipPath16); fill:none; stroke-dasharray:none; stroke-miterlimit:10;" y2="78" />
      <line x1="72" x2="84" y1="72" style="clip-path:url(#clipPath16); fill:none; stroke-dasharray:none; stroke-miterlimit:10;" y2="66" />
    </g>
    <g transform="translate(84,353)" style="font-size:14; stroke-linecap:butt; text-rendering:geometricPrecision; font-family:&apos;標楷體&apos;; stroke-linejoin:round; stroke-dasharray:8,3; stroke-miterlimit:0;">
      <line x1="325" x2="72" y1="72" style="clip-path:url(#clipPath16); fill:none;" y2="72" />
      <line x1="72" x2="84" y1="72" style="clip-path:url(#clipPath16); fill:none; stroke-dasharray:none; stroke-miterlimit:10;" y2="78" />
      <line x1="72" x2="84" y1="72" style="clip-path:url(#clipPath16); fill:none; stroke-dasharray:none; stroke-miterlimit:10;" y2="66" />
    </g>
    <g transform="translate(344,253)" style="font-size:14; stroke-linecap:butt; text-rendering:geometricPrecision; font-family:&apos;標楷體&apos;; stroke-linejoin:round;">
      <line x1="72" x2="315" y1="72" style="clip-path:url(#clipPath18); fill:none;" y2="72" />
      <polygon style="clip-path:url(#clipPath18); stroke:none;" points=" 315 72 303 66 303 78" />
      <polygon style="fill:none; clip-path:url(#clipPath18);" points=" 315 72 303 66 303 78" />
    </g>
    <g transform="translate(594,263)" style="font-size:14; stroke-linecap:butt; text-rendering:geometricPrecision; font-family:&apos;標楷體&apos;; stroke-linejoin:round;">
      <line x1="72" x2="87" y1="72" style="clip-path:url(#clipPath19); fill:none;" y2="72" />
      <line x1="87" x2="87" y1="72" style="clip-path:url(#clipPath19); fill:none;" y2="92" />
      <line x1="87" x2="75" y1="92" style="clip-path:url(#clipPath19); fill:none;" y2="92" />
      <polygon style="clip-path:url(#clipPath19); stroke:none;" points=" 75 92 87 98 87 86" />
      <polygon style="fill:none; clip-path:url(#clipPath19);" points=" 75 92 87 98 87 86" />
    </g>
    <g transform="translate(344,303)" style="font-size:14; stroke-linecap:butt; text-rendering:geometricPrecision; font-family:&apos;標楷體&apos;; stroke-linejoin:round; stroke-dasharray:8,3; stroke-miterlimit:0;">
      <line x1="315" x2="72" y1="72" style="clip-path:url(#clipPath18); fill:none;" y2="72" />
      <line x1="72" x2="84" y1="72" style="clip-path:url(#clipPath18); fill:none; stroke-dasharray:none; stroke-miterlimit:10;" y2="78" />
      <line x1="72" x2="84" y1="72" style="clip-path:url(#clipPath18); fill:none; stroke-dasharray:none; stroke-miterlimit:10;" y2="66" />
    </g>
    <g transform="translate(344,313)" style="font-size:14; stroke-linecap:butt; text-rendering:geometricPrecision; font-family:&apos;標楷體&apos;; stroke-linejoin:round;">
      <line x1="72" x2="98" y1="72" style="clip-path:url(#clipPath17); fill:none;" y2="72" />
      <line x1="98" x2="98" y1="72" style="clip-path:url(#clipPath17); fill:none;" y2="92" />
      <line x1="98" x2="75" y1="92" style="clip-path:url(#clipPath17); fill:none;" y2="92" />
      <polygon style="clip-path:url(#clipPath17); stroke:none;" points=" 75 92 87 98 87 86" />
      <polygon style="fill:none; clip-path:url(#clipPath17);" points=" 75 92 87 98 87 86" />
    </g>
    <g style="text-rendering:geometricPrecision; font-size:14; font-family:&apos;標楷體&apos;;" transform="translate(452,385)">
      <text x="10" y="16" style="clip-path:url(#clipPath20); stroke:none;" xml:space="preserve">4.2: 辨識圖片</text>
    </g>
    <g style="text-rendering:geometricPrecision; font-size:14; font-family:&apos;標楷體&apos;;" transform="translate(474,352)">
      <text x="10" y="16" style="clip-path:url(#clipPath21); stroke:none;" xml:space="preserve">4.1.2: 回傳圖片</text>
    </g>
    <g style="text-rendering:geometricPrecision; font-size:14; font-family:&apos;標楷體&apos;;" transform="translate(692,335)">
      <text x="10" y="16" style="clip-path:url(#clipPath21); stroke:none;" xml:space="preserve">4.1.1: 取得相片</text>
    </g>
    <g style="text-rendering:geometricPrecision; font-size:14; font-family:&apos;標楷體&apos;;" transform="translate(469,302)">
      <text x="9" y="16" style="clip-path:url(#clipPath22); stroke:none;" xml:space="preserve">4.1: 請求取得相片</text>
    </g>
    <g style="text-rendering:geometricPrecision; font-size:14; font-family:&apos;標楷體&apos;;" transform="translate(212,405)">
      <text x="9" y="16" style="clip-path:url(#clipPath22); stroke:none;" xml:space="preserve">4.3: 顯示辨識結果</text>
    </g>
    <g style="text-rendering:geometricPrecision; font-size:14; font-family:&apos;標楷體&apos;;" transform="translate(212,225)">
      <text x="9" y="16" style="clip-path:url(#clipPath22); stroke:none;" xml:space="preserve">3.2: 顯示辨識結果</text>
    </g>
    <g style="text-rendering:geometricPrecision; font-size:14; font-family:&apos;標楷體&apos;;" transform="translate(202,125)">
      <text x="9" y="16" style="clip-path:url(#clipPath23); stroke:none;" xml:space="preserve">2: 選擇相簿或上傳相片</text>
    </g>
    <g style="text-rendering:geometricPrecision; font-size:14; font-family:&apos;標楷體&apos;;" transform="translate(212,295)">
      <text x="9" y="16" style="clip-path:url(#clipPath22); stroke:none;" xml:space="preserve">4: 選擇相簿內相片</text>
    </g>
    <g style="text-rendering:geometricPrecision; font-size:14; font-family:&apos;標楷體&apos;;" transform="translate(442,205)">
      <text x="10" y="16" style="clip-path:url(#clipPath20); stroke:none;" xml:space="preserve">3.1: 辨識圖片</text>
    </g>
    <g style="text-rendering:geometricPrecision; font-size:14; font-family:&apos;標楷體&apos;;" transform="translate(232,175)">
      <text x="10" y="16" style="clip-path:url(#clipPath24); stroke:none;" xml:space="preserve">3: 上傳相片</text>
    </g>
    <g style="text-rendering:geometricPrecision; font-size:14; font-family:&apos;標楷體&apos;;" transform="translate(222,85)">
      <text x="10" y="16" style="clip-path:url(#clipPath21); stroke:none;" xml:space="preserve">1: 瀏覽寵物辨識</text>
    </g>
    <g style="fill:rgb(120,120,120); text-rendering:geometricPrecision; font-size:10; stroke:rgb(120,120,120);">
    </g>
  </g>
</svg>
