<?xml version="1.0" encoding="UTF-8"?>

<!DOCTYPE svg PUBLIC '-//W3C//DTD SVG 1.0//EN' 'http://www.w3.org/TR/2001/REC-SVG-20010904/DTD/svg10.dtd'>
<svg style="fill-opacity:1; color-rendering:auto; color-interpolation:auto; stroke:black; text-rendering:auto; stroke-linecap:square; stroke-miterlimit:10; stroke-opacity:1; shape-rendering:auto; fill:black; stroke-dasharray:none; font-weight:normal; stroke-width:1; font-family:&apos;Dialog&apos;; font-style:normal; stroke-linejoin:miter; font-size:12; stroke-dashoffset:0; image-rendering:auto;" xmlns="http://www.w3.org/2000/svg" width="863" xmlns:xlink="http://www.w3.org/1999/xlink" height="409">
  <!--Generated by the Batik Graphics2D SVG Generator-->
  <defs id="genericDefs" />
  <g>
    <defs id="defs1">
      <clipPath clipPathUnits="userSpaceOnUse" id="clipPath1">
        <path d="M-3 -3 L67 -3 L67 367 L-3 367 L-3 -3 Z" />
      </clipPath>
      <clipPath clipPathUnits="userSpaceOnUse" id="clipPath2">
        <path d="M-3 -3 L117 -3 L117 367 L-3 367 L-3 -3 Z" />
      </clipPath>
      <clipPath clipPathUnits="userSpaceOnUse" id="clipPath3">
        <path d="M-3 -3 L15 -3 L15 173 L-3 173 L-3 -3 Z" />
      </clipPath>
      <clipPath clipPathUnits="userSpaceOnUse" id="clipPath4">
        <path d="M-3 -3 L15 -3 L15 120 L-3 120 L-3 -3 Z" />
      </clipPath>
      <clipPath clipPathUnits="userSpaceOnUse" id="clipPath5">
        <path d="M-3 -3 L15 -3 L15 19 L-3 19 L-3 -3 Z" />
      </clipPath>
      <clipPath clipPathUnits="userSpaceOnUse" id="clipPath6">
        <path d="M0 0 L60 0 L60 17 L0 17 L0 0 Z" />
      </clipPath>
      <clipPath clipPathUnits="userSpaceOnUse" id="clipPath7">
        <path d="M0 0 L110 0 L110 18 L0 18 L0 0 Z" />
      </clipPath>
      <clipPath clipPathUnits="userSpaceOnUse" id="clipPath8">
        <path d="M0 0 L62 0 L62 17 L0 17 L0 0 Z" />
      </clipPath>
      <clipPath clipPathUnits="userSpaceOnUse" id="clipPath9">
        <path d="M0 0 L456 0 L456 129 L0 129 L0 0 Z" />
      </clipPath>
      <clipPath clipPathUnits="userSpaceOnUse" id="clipPath10">
        <path d="M0 0 L426 0 L426 129 L0 129 L0 0 Z" />
      </clipPath>
      <clipPath clipPathUnits="userSpaceOnUse" id="clipPath11">
        <path d="M0 0 L130 0 L130 124 L0 124 L0 0 Z" />
      </clipPath>
      <clipPath clipPathUnits="userSpaceOnUse" id="clipPath12">
        <path d="M0 0 L181 0 L181 17 L0 17 L0 0 Z" />
      </clipPath>
      <clipPath clipPathUnits="userSpaceOnUse" id="clipPath13">
        <path d="M0 0 L125 0 L125 17 L0 17 L0 0 Z" />
      </clipPath>
      <clipPath clipPathUnits="userSpaceOnUse" id="clipPath14">
        <path d="M0 0 L167 0 L167 17 L0 17 L0 0 Z" />
      </clipPath>
      <clipPath clipPathUnits="userSpaceOnUse" id="clipPath15">
        <path d="M0 0 L251 0 L251 17 L0 17 L0 0 Z" />
      </clipPath>
    </defs>
    <g style="fill:white; text-rendering:geometricPrecision; stroke:white;">
      <rect x="0" y="0" width="863" style="stroke:none;" height="409" />
      <rect x="136" y="38" transform="translate(-136,-38)" width="862" style="fill:none; stroke:black;" height="408" />
      <text x="143" y="57" transform="translate(-136,-38)" style="fill:black; stroke:none; font-weight:bold;" xml:space="preserve">sd</text>
      <text x="164" y="57" transform="translate(-136,-38)" style="fill:black; stroke:none;" xml:space="preserve">新增狗狗科普</text>
      <line transform="translate(-136,-38)" x1="136" x2="236" y1="64" style="fill:none; stroke:black;" y2="64" />
      <line transform="translate(-136,-38)" x1="242" x2="242" y1="38" style="fill:none; stroke:black;" y2="53" />
      <line transform="translate(-136,-38)" x1="242" x2="236" y1="53" style="fill:none; stroke:black;" y2="64" />
    </g>
    <g transform="translate(14,35)" style="font-size:14; fill:rgb(122,207,245); text-rendering:geometricPrecision; font-family:&apos;標楷體&apos;; stroke:rgb(122,207,245);">
      <circle style="clip-path:url(#clipPath1); stroke:none;" r="5" cx="30" cy="5" />
      <rect x="26" y="52" width="8" style="clip-path:url(#clipPath1); stroke:none;" height="307" />
    </g>
    <g transform="translate(14,35)" style="font-size:14; stroke-linecap:butt; text-rendering:geometricPrecision; font-family:&apos;標楷體&apos;; stroke-linejoin:round; stroke-miterlimit:0;">
      <circle style="fill:none; clip-path:url(#clipPath1);" r="5" cx="30" cy="5" />
      <rect x="26" y="52" width="8" style="clip-path:url(#clipPath1); fill:none;" height="307" />
      <line x1="30" x2="30" y1="10" style="clip-path:url(#clipPath1); fill:none;" y2="25" />
      <line x1="30" x2="21" y1="25" style="clip-path:url(#clipPath1); fill:none;" y2="36" />
      <line x1="30" x2="39" y1="25" style="clip-path:url(#clipPath1); fill:none;" y2="36" />
      <line x1="21" x2="39" y1="16" style="clip-path:url(#clipPath1); fill:none;" y2="16" />
    </g>
    <g transform="translate(324,35)" style="font-size:14; fill:rgb(122,207,245); text-rendering:geometricPrecision; font-family:&apos;標楷體&apos;; stroke:rgb(122,207,245);">
      <rect x="0" y="0" width="109" style="clip-path:url(#clipPath2); stroke:none;" height="35" />
    </g>
    <g transform="translate(324,35)" style="font-size:14; stroke-linecap:butt; text-rendering:geometricPrecision; font-family:&apos;標楷體&apos;; stroke-linejoin:round; stroke-miterlimit:0;">
      <rect x="0" y="0" width="109" style="clip-path:url(#clipPath2); fill:none;" height="35" />
      <line x1="54" x2="54" y1="35" style="clip-path:url(#clipPath2); fill:none; stroke-linejoin:bevel; stroke-dasharray:8,3;" y2="360" />
    </g>
    <g transform="translate(654,35)" style="font-size:14; fill:rgb(122,207,245); text-rendering:geometricPrecision; font-family:&apos;Times New Roman&apos;; stroke:rgb(122,207,245);">
      <rect x="0" y="0" width="59" style="clip-path:url(#clipPath1); stroke:none;" height="35" />
    </g>
    <g transform="translate(654,35)" style="font-size:14; stroke-linecap:butt; text-rendering:geometricPrecision; font-family:&apos;Times New Roman&apos;; stroke-linejoin:round; stroke-miterlimit:0;">
      <rect x="0" y="0" width="59" style="clip-path:url(#clipPath1); fill:none;" height="35" />
      <line x1="29" x2="29" y1="35" style="clip-path:url(#clipPath1); fill:none; stroke-linejoin:bevel; stroke-dasharray:8,3;" y2="360" />
    </g>
    <g transform="translate(375,155)" style="font-size:14; fill:rgb(122,207,245); text-rendering:geometricPrecision; font-family:&apos;標楷體&apos;; stroke:rgb(122,207,245);">
      <rect x="0" y="0" width="8" style="clip-path:url(#clipPath3); stroke:none;" height="166" />
    </g>
    <g transform="translate(375,155)" style="font-size:14; stroke-linecap:butt; text-rendering:geometricPrecision; font-family:&apos;標楷體&apos;; stroke-linejoin:round; stroke-miterlimit:0;">
      <rect x="0" y="0" width="8" style="clip-path:url(#clipPath3); fill:none;" height="166" />
    </g>
    <g transform="translate(680,185)" style="font-size:11; fill:rgb(122,207,245); text-rendering:geometricPrecision; font-family:sans-serif; stroke:rgb(122,207,245);">
      <rect x="0" y="0" width="8" style="clip-path:url(#clipPath4); stroke:none;" height="113" />
    </g>
    <g transform="translate(680,185)" style="font-size:11; stroke-linecap:butt; text-rendering:geometricPrecision; font-family:sans-serif; stroke-linejoin:round; stroke-miterlimit:0;">
      <rect x="0" y="0" width="8" style="clip-path:url(#clipPath4); fill:none;" height="113" />
    </g>
    <g transform="translate(684,245)" style="font-size:11; fill:rgb(122,207,245); text-rendering:geometricPrecision; font-family:sans-serif; stroke:rgb(122,207,245);">
      <rect x="0" y="0" width="8" style="clip-path:url(#clipPath5); stroke:none;" height="12" />
    </g>
    <g transform="translate(684,245)" style="font-size:11; stroke-linecap:butt; text-rendering:geometricPrecision; font-family:sans-serif; stroke-linejoin:round; stroke-miterlimit:0;">
      <rect x="0" y="0" width="8" style="clip-path:url(#clipPath5); fill:none;" height="12" />
    </g>
    <g style="text-rendering:geometricPrecision; font-size:14; font-family:&apos;Times New Roman&apos;;" transform="translate(654,35)">
      <text x="19" y="14" style="clip-path:url(#clipPath6); stroke:none;" xml:space="preserve">edit</text>
    </g>
    <g style="text-rendering:geometricPrecision; font-size:14; font-family:&apos;標楷體&apos;;" transform="translate(324,35)">
      <text x="6" y="16" style="clip-path:url(#clipPath7); stroke:none;" xml:space="preserve">新增狗狗科普UI</text>
    </g>
    <g style="text-rendering:geometricPrecision; font-size:14; font-family:&apos;標楷體&apos;;" transform="translate(12,70)">
      <text x="10" y="16" style="clip-path:url(#clipPath8); stroke:none;" xml:space="preserve">管理者</text>
    </g>
    <g transform="translate(-15,92)" style="font-size:14; stroke-linecap:butt; text-rendering:geometricPrecision; font-family:&apos;標楷體&apos;; stroke-linejoin:round;">
      <line x1="62" x2="390" y1="63" style="clip-path:url(#clipPath9); fill:none;" y2="63" />
      <polygon style="clip-path:url(#clipPath9); stroke:none;" points=" 390 63 378 57 378 69" />
      <polygon style="fill:none; clip-path:url(#clipPath9);" points=" 390 63 378 57 378 69" />
    </g>
    <g transform="translate(-15,242)" style="font-size:14; stroke-linecap:butt; text-rendering:geometricPrecision; font-family:&apos;標楷體&apos;; stroke-linejoin:round; stroke-dasharray:8,3; stroke-miterlimit:0;">
      <line x1="390" x2="62" y1="63" style="clip-path:url(#clipPath9); fill:none;" y2="63" />
      <line x1="62" x2="74" y1="63" style="clip-path:url(#clipPath9); fill:none; stroke-dasharray:none; stroke-miterlimit:10;" y2="69" />
      <line x1="62" x2="74" y1="63" style="clip-path:url(#clipPath9); fill:none; stroke-dasharray:none; stroke-miterlimit:10;" y2="57" />
    </g>
    <g transform="translate(320,122)" style="font-size:14; stroke-linecap:butt; text-rendering:geometricPrecision; font-family:&apos;標楷體&apos;; stroke-linejoin:round;">
      <line x1="62" x2="360" y1="63" style="clip-path:url(#clipPath10); fill:none;" y2="63" />
      <polygon style="clip-path:url(#clipPath10); stroke:none;" points=" 360 63 348 57 348 69" />
      <polygon style="fill:none; clip-path:url(#clipPath10);" points=" 360 63 348 57 348 69" />
    </g>
    <g transform="translate(638,175)" style="font-size:14; stroke-linecap:butt; text-rendering:geometricPrecision; font-family:&apos;標楷體&apos;; stroke-linejoin:round;">
      <line x1="50" x2="76" y1="50" style="clip-path:url(#clipPath11); fill:none;" y2="50" />
      <line x1="76" x2="76" y1="50" style="clip-path:url(#clipPath11); fill:none;" y2="70" />
      <line x1="76" x2="54" y1="70" style="clip-path:url(#clipPath11); fill:none;" y2="70" />
      <polygon style="clip-path:url(#clipPath11); stroke:none;" points=" 54 70 66 76 66 64" />
      <polygon style="fill:none; clip-path:url(#clipPath11);" points=" 54 70 66 76 66 64" />
    </g>
    <g transform="translate(320,212)" style="font-size:14; stroke-linecap:butt; text-rendering:geometricPrecision; font-family:&apos;標楷體&apos;; stroke-linejoin:round; stroke-dasharray:8,3; stroke-miterlimit:0;">
      <line x1="360" x2="62" y1="63" style="clip-path:url(#clipPath10); fill:none;" y2="63" />
      <line x1="62" x2="74" y1="63" style="clip-path:url(#clipPath10); fill:none; stroke-dasharray:none; stroke-miterlimit:10;" y2="69" />
      <line x1="62" x2="74" y1="63" style="clip-path:url(#clipPath10); fill:none; stroke-dasharray:none; stroke-miterlimit:10;" y2="57" />
    </g>
    <g style="text-rendering:geometricPrecision; font-size:14; font-family:&apos;標楷體&apos;;" transform="translate(440,251)">
      <text x="10" y="16" style="clip-path:url(#clipPath12); stroke:none;" xml:space="preserve">1.1.2: 回傳新增成功訊息</text>
    </g>
    <g style="text-rendering:geometricPrecision; font-size:14; font-family:&apos;標楷體&apos;;" transform="translate(724,225)">
      <text x="10" y="16" style="clip-path:url(#clipPath13); stroke:none;" xml:space="preserve">1.1.1: 新增成功</text>
    </g>
    <g style="text-rendering:geometricPrecision; font-size:14; font-family:&apos;標楷體&apos;;" transform="translate(447,161)">
      <text x="10" y="16" style="clip-path:url(#clipPath14); stroke:none;" xml:space="preserve">1.1: 請求新增狗狗科普</text>
    </g>
    <g style="text-rendering:geometricPrecision; font-size:14; font-family:&apos;標楷體&apos;;" transform="translate(85,281)">
      <text x="10" y="16" style="clip-path:url(#clipPath15); stroke:none;" xml:space="preserve">2: 顯示新增成功訊息並新增狗狗科普</text>
    </g>
    <g style="text-rendering:geometricPrecision; font-size:14; font-family:&apos;標楷體&apos;;" transform="translate(149,131)">
      <text x="10" y="16" style="clip-path:url(#clipPath13); stroke:none;" xml:space="preserve">1: 新增狗狗科普</text>
    </g>
    <g style="fill:rgb(120,120,120); text-rendering:geometricPrecision; font-size:10; stroke:rgb(120,120,120);">
    </g>
  </g>
</svg>
