<?xml version="1.0" encoding="UTF-8"?>

<!DOCTYPE svg PUBLIC '-//W3C//DTD SVG 1.0//EN' 'http://www.w3.org/TR/2001/REC-SVG-20010904/DTD/svg10.dtd'>
<svg style="fill-opacity:1; color-rendering:auto; color-interpolation:auto; stroke:black; text-rendering:auto; stroke-linecap:square; stroke-miterlimit:10; stroke-opacity:1; shape-rendering:auto; fill:black; stroke-dasharray:none; font-weight:normal; stroke-width:1; font-family:&apos;Dialog&apos;; font-style:normal; stroke-linejoin:miter; font-size:12; stroke-dashoffset:0; image-rendering:auto;" xmlns="http://www.w3.org/2000/svg" width="896" xmlns:xlink="http://www.w3.org/1999/xlink" height="609">
  <!--Generated by the Batik Graphics2D SVG Generator-->
  <defs id="genericDefs" />
  <g>
    <defs id="defs1">
      <clipPath clipPathUnits="userSpaceOnUse" id="clipPath1">
        <path d="M-3 -3 L67 -3 L67 567 L-3 567 L-3 -3 Z" />
      </clipPath>
      <clipPath clipPathUnits="userSpaceOnUse" id="clipPath2">
        <path d="M-3 -3 L87 -3 L87 567 L-3 567 L-3 -3 Z" />
      </clipPath>
      <clipPath clipPathUnits="userSpaceOnUse" id="clipPath3">
        <path d="M-3 -3 L15 -3 L15 235 L-3 235 L-3 -3 Z" />
      </clipPath>
      <clipPath clipPathUnits="userSpaceOnUse" id="clipPath4">
        <path d="M-3 -3 L877 -3 L877 487 L-3 487 L-3 -3 Z" />
      </clipPath>
      <clipPath clipPathUnits="userSpaceOnUse" id="clipPath5">
        <path d="M0 0 L23 0 L23 20 L0 20 L0 0 Z" />
      </clipPath>
      <clipPath clipPathUnits="userSpaceOnUse" id="clipPath6">
        <path d="M-3 -3 L15 -3 L15 210 L-3 210 L-3 -3 Z" />
      </clipPath>
      <clipPath clipPathUnits="userSpaceOnUse" id="clipPath7">
        <path d="M-3 -3 L15 -3 L15 179 L-3 179 L-3 -3 Z" />
      </clipPath>
      <clipPath clipPathUnits="userSpaceOnUse" id="clipPath8">
        <path d="M-3 -3 L15 -3 L15 185 L-3 185 L-3 -3 Z" />
      </clipPath>
      <clipPath clipPathUnits="userSpaceOnUse" id="clipPath9">
        <path d="M-3 -3 L877 -3 L877 225 L-3 225 L-3 -3 Z" />
      </clipPath>
      <clipPath clipPathUnits="userSpaceOnUse" id="clipPath10">
        <path d="M0 0 L81 0 L81 17 L0 17 L0 0 Z" />
      </clipPath>
      <clipPath clipPathUnits="userSpaceOnUse" id="clipPath11">
        <path d="M0 0 L0 4 L870 4 L870 0 Z" />
      </clipPath>
      <clipPath clipPathUnits="userSpaceOnUse" id="clipPath12">
        <path d="M-3 -3 L15 -3 L15 19 L-3 19 L-3 -3 Z" />
      </clipPath>
      <clipPath clipPathUnits="userSpaceOnUse" id="clipPath13">
        <path d="M-3 -3 L877 -3 L877 249 L-3 249 L-3 -3 Z" />
      </clipPath>
      <clipPath clipPathUnits="userSpaceOnUse" id="clipPath14">
        <path d="M0 0 L70 0 L70 17 L0 17 L0 0 Z" />
      </clipPath>
      <clipPath clipPathUnits="userSpaceOnUse" id="clipPath15">
        <path d="M-3 -3 L827 -3 L827 59 L-3 59 L-3 -3 Z" />
      </clipPath>
      <clipPath clipPathUnits="userSpaceOnUse" id="clipPath16">
        <path d="M0 0 L0 4 L820 4 L820 0 Z" />
      </clipPath>
      <clipPath clipPathUnits="userSpaceOnUse" id="clipPath17">
        <path d="M-3 -3 L827 -3 L827 147 L-3 147 L-3 -3 Z" />
      </clipPath>
      <clipPath clipPathUnits="userSpaceOnUse" id="clipPath18">
        <path d="M-3 -3 L827 -3 L827 72 L-3 72 L-3 -3 Z" />
      </clipPath>
      <clipPath clipPathUnits="userSpaceOnUse" id="clipPath19">
        <path d="M-3 -3 L827 -3 L827 75 L-3 75 L-3 -3 Z" />
      </clipPath>
      <clipPath clipPathUnits="userSpaceOnUse" id="clipPath20">
        <path d="M-3 -3 L827 -3 L827 62 L-3 62 L-3 -3 Z" />
      </clipPath>
      <clipPath clipPathUnits="userSpaceOnUse" id="clipPath21">
        <path d="M0 0 L60 0 L60 17 L0 17 L0 0 Z" />
      </clipPath>
      <clipPath clipPathUnits="userSpaceOnUse" id="clipPath22">
        <path d="M0 0 L80 0 L80 18 L0 18 L0 0 Z" />
      </clipPath>
      <clipPath clipPathUnits="userSpaceOnUse" id="clipPath23">
        <path d="M0 0 L48 0 L48 18 L0 18 L0 0 Z" />
      </clipPath>
      <clipPath clipPathUnits="userSpaceOnUse" id="clipPath24">
        <path d="M0 0 L379 0 L379 146 L0 146 L0 0 Z" />
      </clipPath>
      <clipPath clipPathUnits="userSpaceOnUse" id="clipPath25">
        <path d="M0 0 L376 0 L376 146 L0 146 L0 0 Z" />
      </clipPath>
      <clipPath clipPathUnits="userSpaceOnUse" id="clipPath26">
        <path d="M0 0 L130 0 L130 124 L0 124 L0 0 Z" />
      </clipPath>
      <clipPath clipPathUnits="userSpaceOnUse" id="clipPath27">
        <path d="M0 0 L152 0 L152 18 L0 18 L0 0 Z" />
      </clipPath>
      <clipPath clipPathUnits="userSpaceOnUse" id="clipPath28">
        <path d="M0 0 L181 0 L181 18 L0 18 L0 0 Z" />
      </clipPath>
      <clipPath clipPathUnits="userSpaceOnUse" id="clipPath29">
        <path d="M0 0 L194 0 L194 18 L0 18 L0 0 Z" />
      </clipPath>
      <clipPath clipPathUnits="userSpaceOnUse" id="clipPath30">
        <path d="M0 0 L125 0 L125 18 L0 18 L0 0 Z" />
      </clipPath>
      <clipPath clipPathUnits="userSpaceOnUse" id="clipPath31">
        <path d="M0 0 L208 0 L208 18 L0 18 L0 0 Z" />
      </clipPath>
      <clipPath clipPathUnits="userSpaceOnUse" id="clipPath32">
        <path d="M0 0 L138 0 L138 18 L0 18 L0 0 Z" />
      </clipPath>
    </defs>
    <g style="fill:white; text-rendering:geometricPrecision; stroke:white;">
      <rect x="0" y="0" width="896" style="stroke:none;" height="609" />
      <rect x="48" y="38" transform="translate(-48,-38)" width="895" style="fill:none; stroke:black;" height="608" />
      <text x="55" y="57" transform="translate(-48,-38)" style="fill:black; stroke:none; font-weight:bold;" xml:space="preserve">sd</text>
      <text x="76" y="57" transform="translate(-48,-38)" style="fill:black; stroke:none;" xml:space="preserve">查詢飼料分析</text>
      <line transform="translate(-48,-38)" x1="48" x2="148" y1="64" style="fill:none; stroke:black;" y2="64" />
      <line transform="translate(-48,-38)" x1="154" x2="154" y1="38" style="fill:none; stroke:black;" y2="53" />
      <line transform="translate(-48,-38)" x1="154" x2="148" y1="53" style="fill:none; stroke:black;" y2="64" />
    </g>
    <g transform="translate(112,35)" style="font-size:14; fill:rgb(122,207,245); text-rendering:geometricPrecision; font-family:&apos;標楷體&apos;; stroke:rgb(122,207,245);">
      <circle style="clip-path:url(#clipPath1); stroke:none;" r="5" cx="30" cy="5" />
      <rect x="26" y="52" width="8" style="clip-path:url(#clipPath1); stroke:none;" height="507" />
    </g>
    <g transform="translate(112,35)" style="font-size:14; stroke-linecap:butt; text-rendering:geometricPrecision; font-family:&apos;標楷體&apos;; stroke-linejoin:round; stroke-miterlimit:0;">
      <circle style="fill:none; clip-path:url(#clipPath1);" r="5" cx="30" cy="5" />
      <rect x="26" y="52" width="8" style="clip-path:url(#clipPath1); fill:none;" height="507" />
      <line x1="30" x2="30" y1="10" style="clip-path:url(#clipPath1); fill:none;" y2="25" />
      <line x1="30" x2="21" y1="25" style="clip-path:url(#clipPath1); fill:none;" y2="36" />
      <line x1="30" x2="39" y1="25" style="clip-path:url(#clipPath1); fill:none;" y2="36" />
      <line x1="21" x2="39" y1="16" style="clip-path:url(#clipPath1); fill:none;" y2="16" />
    </g>
    <g transform="translate(342,35)" style="font-size:14; fill:rgb(122,207,245); text-rendering:geometricPrecision; font-family:&apos;標楷體&apos;; stroke:rgb(122,207,245);">
      <rect x="0" y="0" width="79" style="clip-path:url(#clipPath2); stroke:none;" height="35" />
    </g>
    <g transform="translate(342,35)" style="font-size:14; stroke-linecap:butt; text-rendering:geometricPrecision; font-family:&apos;標楷體&apos;; stroke-linejoin:round; stroke-miterlimit:0;">
      <rect x="0" y="0" width="79" style="clip-path:url(#clipPath2); fill:none;" height="35" />
      <line x1="39" x2="39" y1="35" style="clip-path:url(#clipPath2); fill:none; stroke-linejoin:bevel; stroke-dasharray:8,3;" y2="560" />
    </g>
    <g transform="translate(592,35)" style="font-size:14; fill:rgb(122,207,245); text-rendering:geometricPrecision; font-family:&apos;Times New Roman&apos;; stroke:rgb(122,207,245);">
      <rect x="0" y="0" width="59" style="clip-path:url(#clipPath1); stroke:none;" height="35" />
    </g>
    <g transform="translate(592,35)" style="font-size:14; stroke-linecap:butt; text-rendering:geometricPrecision; font-family:&apos;Times New Roman&apos;; stroke-linejoin:round; stroke-miterlimit:0;">
      <rect x="0" y="0" width="59" style="clip-path:url(#clipPath1); fill:none;" height="35" />
      <line x1="29" x2="29" y1="35" style="clip-path:url(#clipPath1); fill:none; stroke-linejoin:bevel; stroke-dasharray:8,3;" y2="560" />
    </g>
    <g transform="translate(379,83)" style="font-size:11; fill:rgb(122,207,245); text-rendering:geometricPrecision; font-family:sans-serif; stroke:rgb(122,207,245);">
      <rect x="0" y="0" width="8" style="clip-path:url(#clipPath3); stroke:none;" height="228" />
    </g>
    <g transform="translate(379,83)" style="font-size:11; stroke-linecap:butt; text-rendering:geometricPrecision; font-family:sans-serif; stroke-linejoin:round; stroke-miterlimit:0;">
      <rect x="0" y="0" width="8" style="clip-path:url(#clipPath3); fill:none;" height="228" />
    </g>
    <g transform="translate(12,95)" style="font-size:11; stroke-linecap:butt; text-rendering:geometricPrecision; font-family:sans-serif; stroke-linejoin:round; font-weight:bold; stroke-miterlimit:0;">
      <rect x="0" y="0" width="870" style="clip-path:url(#clipPath4); fill:none;" height="480" />
    </g>
    <g transform="translate(12,95)" style="font-size:11; fill:white; text-rendering:geometricPrecision; font-family:sans-serif; stroke:white; font-weight:bold;">
      <path d="M22 0 L22 10 L16 19 L0 19 L0 0 Z" style="clip-path:url(#clipPath4); stroke:none;" />
    </g>
    <g transform="translate(12,95)" style="font-size:11; stroke-linecap:butt; text-rendering:geometricPrecision; font-family:sans-serif; stroke-linejoin:round; font-weight:bold; stroke-miterlimit:0;">
      <path d="M22 0 L22 10 L16 19 L0 19 L0 0 Z" style="fill:none; clip-path:url(#clipPath4);" />
    </g>
    <g transform="translate(12,95)" style="text-rendering:geometricPrecision; font-size:11; font-weight:bold; font-family:sans-serif;">
      <text x="5" y="14" style="clip-path:url(#clipPath5); stroke:none;" xml:space="preserve">alt</text>
    </g>
    <g transform="translate(379,349)" style="font-size:11; fill:rgb(122,207,245); text-rendering:geometricPrecision; font-family:sans-serif; stroke:rgb(122,207,245);">
      <rect x="0" y="0" width="8" style="clip-path:url(#clipPath6); stroke:none;" height="203" />
    </g>
    <g transform="translate(379,349)" style="font-size:11; stroke-linecap:butt; text-rendering:geometricPrecision; font-family:sans-serif; stroke-linejoin:round; stroke-miterlimit:0;">
      <rect x="0" y="0" width="8" style="clip-path:url(#clipPath6); fill:none;" height="203" />
    </g>
    <g transform="translate(617,363)" style="font-size:11; fill:rgb(122,207,245); text-rendering:geometricPrecision; font-family:sans-serif; stroke:rgb(122,207,245);">
      <rect x="0" y="0" width="8" style="clip-path:url(#clipPath7); stroke:none;" height="172" />
    </g>
    <g transform="translate(617,363)" style="font-size:11; stroke-linecap:butt; text-rendering:geometricPrecision; font-family:sans-serif; stroke-linejoin:round; stroke-miterlimit:0;">
      <rect x="0" y="0" width="8" style="clip-path:url(#clipPath7); fill:none;" height="172" />
    </g>
    <g transform="translate(617,113)" style="font-size:11; fill:rgb(122,207,245); text-rendering:geometricPrecision; font-family:sans-serif; stroke:rgb(122,207,245);">
      <rect x="0" y="0" width="8" style="clip-path:url(#clipPath8); stroke:none;" height="178" />
    </g>
    <g transform="translate(617,113)" style="font-size:11; stroke-linecap:butt; text-rendering:geometricPrecision; font-family:sans-serif; stroke-linejoin:round; stroke-miterlimit:0;">
      <rect x="0" y="0" width="8" style="clip-path:url(#clipPath8); fill:none;" height="178" />
    </g>
    <g transform="translate(12,115)" style="font-size:11; fill:white; text-rendering:geometricPrecision; font-family:sans-serif; stroke:white;">
      <rect x="28" y="5" width="81" style="clip-path:url(#clipPath9); stroke:none;" height="17" />
    </g>
    <g transform="translate(12,115)" style="font-size:11; stroke-linecap:butt; text-rendering:geometricPrecision; font-family:sans-serif; stroke-linejoin:bevel; stroke-dasharray:5,2; stroke-miterlimit:0;">
      <line x1="0" x2="869" y1="217" style="clip-path:url(#clipPath9); fill:none;" y2="217" />
    </g>
    <g style="text-rendering:geometricPrecision; font-size:11; font-family:sans-serif;" transform="translate(40,120)">
      <text x="10" y="14" style="clip-path:url(#clipPath10); stroke:none;" xml:space="preserve">[關鍵字查詢]</text>
    </g>
    <g transform="translate(622,185)" style="font-size:11; fill:rgb(122,207,245); text-rendering:geometricPrecision; font-family:sans-serif; stroke:rgb(122,207,245);">
      <rect x="0" y="0" width="8" style="clip-path:url(#clipPath12); stroke:none;" height="12" />
    </g>
    <g transform="translate(622,185)" style="font-size:11; stroke-linecap:butt; text-rendering:geometricPrecision; font-family:sans-serif; stroke-linejoin:round; stroke-miterlimit:0;">
      <rect x="0" y="0" width="8" style="clip-path:url(#clipPath12); fill:none;" height="12" />
    </g>
    <g transform="translate(622,263)" style="font-size:11; fill:rgb(122,207,245); text-rendering:geometricPrecision; font-family:sans-serif; stroke:rgb(122,207,245);">
      <rect x="0" y="0" width="8" style="clip-path:url(#clipPath12); stroke:none;" height="12" />
    </g>
    <g transform="translate(622,263)" style="font-size:11; stroke-linecap:butt; text-rendering:geometricPrecision; font-family:sans-serif; stroke-linejoin:round; stroke-miterlimit:0;">
      <rect x="0" y="0" width="8" style="clip-path:url(#clipPath12); fill:none;" height="12" />
    </g>
    <g transform="translate(12,328)" style="font-size:11; fill:white; text-rendering:geometricPrecision; font-family:sans-serif; stroke:white;">
      <rect x="28" y="5" width="70" style="clip-path:url(#clipPath13); stroke:none;" height="17" />
    </g>
    <g style="text-rendering:geometricPrecision; font-size:11; font-family:sans-serif;" transform="translate(40,333)">
      <text x="10" y="14" style="clip-path:url(#clipPath14); stroke:none;" xml:space="preserve">[條件篩選]</text>
    </g>
    <g transform="translate(32,425)" style="font-size:11; fill:white; text-rendering:geometricPrecision; font-family:sans-serif; stroke:white;">
      <rect x="28" y="5" width="70" style="clip-path:url(#clipPath15); stroke:none;" height="17" />
    </g>
    <g transform="translate(32,425)" style="font-size:11; stroke-linecap:butt; text-rendering:geometricPrecision; font-family:sans-serif; stroke-linejoin:bevel; stroke-dasharray:5,2; stroke-miterlimit:0;">
      <line x1="0" x2="819" y1="51" style="clip-path:url(#clipPath15); fill:none;" y2="51" />
    </g>
    <g style="text-rendering:geometricPrecision; font-size:11; font-family:sans-serif;" transform="translate(60,430)">
      <text x="10" y="14" style="clip-path:url(#clipPath14); stroke:none;" xml:space="preserve">[查無資料]</text>
    </g>
    <g transform="translate(32,165)" style="font-size:11; stroke-linecap:butt; text-rendering:geometricPrecision; font-family:sans-serif; stroke-linejoin:round; font-weight:bold; stroke-miterlimit:0;">
      <rect x="0" y="0" width="820" style="clip-path:url(#clipPath17); fill:none;" height="140" />
    </g>
    <g transform="translate(32,165)" style="font-size:11; fill:white; text-rendering:geometricPrecision; font-family:sans-serif; stroke:white; font-weight:bold;">
      <path d="M22 0 L22 10 L16 19 L0 19 L0 0 Z" style="clip-path:url(#clipPath17); stroke:none;" />
    </g>
    <g transform="translate(32,165)" style="font-size:11; stroke-linecap:butt; text-rendering:geometricPrecision; font-family:sans-serif; stroke-linejoin:round; font-weight:bold; stroke-miterlimit:0;">
      <path d="M22 0 L22 10 L16 19 L0 19 L0 0 Z" style="fill:none; clip-path:url(#clipPath17);" />
    </g>
    <g transform="translate(32,165)" style="text-rendering:geometricPrecision; font-size:11; font-weight:bold; font-family:sans-serif;">
      <text x="5" y="14" style="clip-path:url(#clipPath5); stroke:none;" xml:space="preserve">alt</text>
    </g>
    <g transform="translate(32,238)" style="font-size:11; fill:white; text-rendering:geometricPrecision; font-family:sans-serif; stroke:white;">
      <rect x="28" y="5" width="70" style="clip-path:url(#clipPath18); stroke:none;" height="17" />
    </g>
    <g style="text-rendering:geometricPrecision; font-size:11; font-family:sans-serif;" transform="translate(60,243)">
      <text x="10" y="14" style="clip-path:url(#clipPath14); stroke:none;" xml:space="preserve">[查詢成功]</text>
    </g>
    <g transform="translate(32,405)" style="font-size:11; stroke-linecap:butt; text-rendering:geometricPrecision; font-family:sans-serif; stroke-linejoin:round; font-weight:bold; stroke-miterlimit:0;">
      <rect x="0" y="0" width="820" style="clip-path:url(#clipPath17); fill:none;" height="140" />
    </g>
    <g transform="translate(32,405)" style="font-size:11; fill:white; text-rendering:geometricPrecision; font-family:sans-serif; stroke:white; font-weight:bold;">
      <path d="M22 0 L22 10 L16 19 L0 19 L0 0 Z" style="clip-path:url(#clipPath17); stroke:none;" />
    </g>
    <g transform="translate(32,405)" style="font-size:11; stroke-linecap:butt; text-rendering:geometricPrecision; font-family:sans-serif; stroke-linejoin:round; font-weight:bold; stroke-miterlimit:0;">
      <path d="M22 0 L22 10 L16 19 L0 19 L0 0 Z" style="fill:none; clip-path:url(#clipPath17);" />
    </g>
    <g transform="translate(32,405)" style="text-rendering:geometricPrecision; font-size:11; font-weight:bold; font-family:sans-serif;">
      <text x="5" y="14" style="clip-path:url(#clipPath5); stroke:none;" xml:space="preserve">alt</text>
    </g>
    <g transform="translate(622,433)" style="font-size:11; fill:rgb(122,207,245); text-rendering:geometricPrecision; font-family:sans-serif; stroke:rgb(122,207,245);">
      <rect x="0" y="0" width="8" style="clip-path:url(#clipPath12); stroke:none;" height="12" />
    </g>
    <g transform="translate(622,433)" style="font-size:11; stroke-linecap:butt; text-rendering:geometricPrecision; font-family:sans-serif; stroke-linejoin:round; stroke-miterlimit:0;">
      <rect x="0" y="0" width="8" style="clip-path:url(#clipPath12); fill:none;" height="12" />
    </g>
    <g transform="translate(32,488)" style="font-size:11; fill:white; text-rendering:geometricPrecision; font-family:sans-serif; stroke:white;">
      <rect x="28" y="5" width="70" style="clip-path:url(#clipPath19); stroke:none;" height="17" />
    </g>
    <g style="text-rendering:geometricPrecision; font-size:11; font-family:sans-serif;" transform="translate(60,493)">
      <text x="10" y="14" style="clip-path:url(#clipPath14); stroke:none;" xml:space="preserve">[查詢成功]</text>
    </g>
    <g transform="translate(622,503)" style="font-size:11; fill:rgb(122,207,245); text-rendering:geometricPrecision; font-family:sans-serif; stroke:rgb(122,207,245);">
      <rect x="0" y="0" width="8" style="clip-path:url(#clipPath12); stroke:none;" height="12" />
    </g>
    <g transform="translate(622,503)" style="font-size:11; stroke-linecap:butt; text-rendering:geometricPrecision; font-family:sans-serif; stroke-linejoin:round; stroke-miterlimit:0;">
      <rect x="0" y="0" width="8" style="clip-path:url(#clipPath12); fill:none;" height="12" />
    </g>
    <g transform="translate(32,185)" style="font-size:11; fill:white; text-rendering:geometricPrecision; font-family:sans-serif; stroke:white;">
      <rect x="28" y="5" width="70" style="clip-path:url(#clipPath20); stroke:none;" height="17" />
    </g>
    <g transform="translate(32,185)" style="font-size:11; stroke-linecap:butt; text-rendering:geometricPrecision; font-family:sans-serif; stroke-linejoin:bevel; stroke-dasharray:5,2; stroke-miterlimit:0;">
      <line x1="0" x2="819" y1="54" style="clip-path:url(#clipPath20); fill:none;" y2="54" />
    </g>
    <g style="text-rendering:geometricPrecision; font-size:11; font-family:sans-serif;" transform="translate(60,190)">
      <text x="10" y="14" style="clip-path:url(#clipPath14); stroke:none;" xml:space="preserve">[查無資料]</text>
    </g>
    <g style="text-rendering:geometricPrecision; font-size:14; font-family:&apos;Times New Roman&apos;;" transform="translate(592,35)">
      <text x="17" y="14" style="clip-path:url(#clipPath21); stroke:none;" xml:space="preserve">feed</text>
    </g>
    <g style="text-rendering:geometricPrecision; font-size:14; font-family:&apos;標楷體&apos;;" transform="translate(342,35)">
      <text x="5" y="16" style="clip-path:url(#clipPath22); stroke:none;" xml:space="preserve">會員專區UI</text>
    </g>
    <g style="text-rendering:geometricPrecision; font-size:14; font-family:&apos;標楷體&apos;;" transform="translate(117,69)">
      <text x="10" y="16" style="clip-path:url(#clipPath23); stroke:none;" xml:space="preserve">會員</text>
    </g>
    <g transform="translate(74,53)" style="font-size:14; stroke-linecap:butt; text-rendering:geometricPrecision; font-family:&apos;標楷體&apos;; stroke-linejoin:round;">
      <line x1="72" x2="305" y1="72" style="clip-path:url(#clipPath24); fill:none;" y2="72" />
      <polygon style="clip-path:url(#clipPath24); stroke:none;" points=" 305 72 293 66 293 78" />
      <polygon style="fill:none; clip-path:url(#clipPath24);" points=" 305 72 293 66 293 78" />
    </g>
    <g transform="translate(74,293)" style="font-size:14; stroke-linecap:butt; text-rendering:geometricPrecision; font-family:&apos;標楷體&apos;; stroke-linejoin:round;">
      <line x1="72" x2="305" y1="72" style="clip-path:url(#clipPath24); fill:none;" y2="72" />
      <polygon style="clip-path:url(#clipPath24); stroke:none;" points=" 305 72 293 66 293 78" />
      <polygon style="fill:none; clip-path:url(#clipPath24);" points=" 305 72 293 66 293 78" />
    </g>
    <g transform="translate(74,153)" style="font-size:14; stroke-linecap:butt; text-rendering:geometricPrecision; font-family:&apos;標楷體&apos;; stroke-linejoin:round; stroke-dasharray:8,3; stroke-miterlimit:0;">
      <line x1="305" x2="72" y1="72" style="clip-path:url(#clipPath24); fill:none;" y2="72" />
      <line x1="72" x2="84" y1="72" style="clip-path:url(#clipPath24); fill:none; stroke-dasharray:none; stroke-miterlimit:10;" y2="78" />
      <line x1="72" x2="84" y1="72" style="clip-path:url(#clipPath24); fill:none; stroke-dasharray:none; stroke-miterlimit:10;" y2="66" />
    </g>
    <g transform="translate(74,223)" style="font-size:14; stroke-linecap:butt; text-rendering:geometricPrecision; font-family:&apos;標楷體&apos;; stroke-linejoin:round; stroke-dasharray:8,3; stroke-miterlimit:0;">
      <line x1="305" x2="72" y1="72" style="clip-path:url(#clipPath24); fill:none;" y2="72" />
      <line x1="72" x2="84" y1="72" style="clip-path:url(#clipPath24); fill:none; stroke-dasharray:none; stroke-miterlimit:10;" y2="78" />
      <line x1="72" x2="84" y1="72" style="clip-path:url(#clipPath24); fill:none; stroke-dasharray:none; stroke-miterlimit:10;" y2="66" />
    </g>
    <g transform="translate(74,393)" style="font-size:14; stroke-linecap:butt; text-rendering:geometricPrecision; font-family:&apos;標楷體&apos;; stroke-linejoin:round; stroke-dasharray:8,3; stroke-miterlimit:0;">
      <line x1="305" x2="72" y1="72" style="clip-path:url(#clipPath24); fill:none;" y2="72" />
      <line x1="72" x2="84" y1="72" style="clip-path:url(#clipPath24); fill:none; stroke-dasharray:none; stroke-miterlimit:10;" y2="78" />
      <line x1="72" x2="84" y1="72" style="clip-path:url(#clipPath24); fill:none; stroke-dasharray:none; stroke-miterlimit:10;" y2="66" />
    </g>
    <g transform="translate(74,463)" style="font-size:14; stroke-linecap:butt; text-rendering:geometricPrecision; font-family:&apos;標楷體&apos;; stroke-linejoin:round; stroke-dasharray:8,3; stroke-miterlimit:0;">
      <line x1="305" x2="72" y1="72" style="clip-path:url(#clipPath24); fill:none;" y2="72" />
      <line x1="72" x2="84" y1="72" style="clip-path:url(#clipPath24); fill:none; stroke-dasharray:none; stroke-miterlimit:10;" y2="78" />
      <line x1="72" x2="84" y1="72" style="clip-path:url(#clipPath24); fill:none; stroke-dasharray:none; stroke-miterlimit:10;" y2="66" />
    </g>
    <g transform="translate(316,63)" style="font-size:14; stroke-linecap:butt; text-rendering:geometricPrecision; font-family:&apos;標楷體&apos;; stroke-linejoin:round;">
      <line x1="71" x2="301" y1="72" style="clip-path:url(#clipPath25); fill:none;" y2="72" />
      <polygon style="clip-path:url(#clipPath25); stroke:none;" points=" 301 72 289 66 289 78" />
      <polygon style="fill:none; clip-path:url(#clipPath25);" points=" 301 72 289 66 289 78" />
    </g>
    <g transform="translate(576,125)" style="font-size:14; stroke-linecap:butt; text-rendering:geometricPrecision; font-family:&apos;標楷體&apos;; stroke-linejoin:round;">
      <line x1="50" x2="76" y1="50" style="clip-path:url(#clipPath26); fill:none;" y2="50" />
      <line x1="76" x2="76" y1="50" style="clip-path:url(#clipPath26); fill:none;" y2="70" />
      <line x1="76" x2="54" y1="70" style="clip-path:url(#clipPath26); fill:none;" y2="70" />
      <polygon style="clip-path:url(#clipPath26); stroke:none;" points=" 54 70 66 76 66 64" />
      <polygon style="fill:none; clip-path:url(#clipPath26);" points=" 54 70 66 76 66 64" />
    </g>
    <g transform="translate(576,195)" style="font-size:14; stroke-linecap:butt; text-rendering:geometricPrecision; font-family:&apos;標楷體&apos;; stroke-linejoin:round;">
      <line x1="50" x2="76" y1="50" style="clip-path:url(#clipPath26); fill:none;" y2="50" />
      <line x1="76" x2="76" y1="50" style="clip-path:url(#clipPath26); fill:none;" y2="70" />
      <line x1="76" x2="54" y1="70" style="clip-path:url(#clipPath26); fill:none;" y2="70" />
      <polygon style="clip-path:url(#clipPath26); stroke:none;" points=" 54 70 66 76 66 64" />
      <polygon style="fill:none; clip-path:url(#clipPath26);" points=" 54 70 66 76 66 64" />
    </g>
    <g transform="translate(316,303)" style="font-size:14; stroke-linecap:butt; text-rendering:geometricPrecision; font-family:&apos;標楷體&apos;; stroke-linejoin:round;">
      <line x1="71" x2="301" y1="72" style="clip-path:url(#clipPath25); fill:none;" y2="72" />
      <polygon style="clip-path:url(#clipPath25); stroke:none;" points=" 301 72 289 66 289 78" />
      <polygon style="fill:none; clip-path:url(#clipPath25);" points=" 301 72 289 66 289 78" />
    </g>
    <g transform="translate(576,365)" style="font-size:14; stroke-linecap:butt; text-rendering:geometricPrecision; font-family:&apos;標楷體&apos;; stroke-linejoin:round;">
      <line x1="50" x2="76" y1="50" style="clip-path:url(#clipPath26); fill:none;" y2="50" />
      <line x1="76" x2="76" y1="50" style="clip-path:url(#clipPath26); fill:none;" y2="70" />
      <line x1="76" x2="54" y1="70" style="clip-path:url(#clipPath26); fill:none;" y2="70" />
      <polygon style="clip-path:url(#clipPath26); stroke:none;" points=" 54 70 66 76 66 64" />
      <polygon style="fill:none; clip-path:url(#clipPath26);" points=" 54 70 66 76 66 64" />
    </g>
    <g transform="translate(576,435)" style="font-size:14; stroke-linecap:butt; text-rendering:geometricPrecision; font-family:&apos;標楷體&apos;; stroke-linejoin:round;">
      <line x1="50" x2="76" y1="50" style="clip-path:url(#clipPath26); fill:none;" y2="50" />
      <line x1="76" x2="76" y1="50" style="clip-path:url(#clipPath26); fill:none;" y2="70" />
      <line x1="76" x2="54" y1="70" style="clip-path:url(#clipPath26); fill:none;" y2="70" />
      <polygon style="clip-path:url(#clipPath26); stroke:none;" points=" 54 70 66 76 66 64" />
      <polygon style="fill:none; clip-path:url(#clipPath26);" points=" 54 70 66 76 66 64" />
    </g>
    <g transform="translate(316,143)" style="font-size:14; stroke-linecap:butt; text-rendering:geometricPrecision; font-family:&apos;標楷體&apos;; stroke-linejoin:round; stroke-dasharray:8,3; stroke-miterlimit:0;">
      <line x1="301" x2="71" y1="72" style="clip-path:url(#clipPath25); fill:none;" y2="72" />
      <line x1="71" x2="83" y1="72" style="clip-path:url(#clipPath25); fill:none; stroke-dasharray:none; stroke-miterlimit:10;" y2="78" />
      <line x1="71" x2="83" y1="72" style="clip-path:url(#clipPath25); fill:none; stroke-dasharray:none; stroke-miterlimit:10;" y2="66" />
    </g>
    <g transform="translate(316,213)" style="font-size:14; stroke-linecap:butt; text-rendering:geometricPrecision; font-family:&apos;標楷體&apos;; stroke-linejoin:round; stroke-dasharray:8,3; stroke-miterlimit:0;">
      <line x1="301" x2="71" y1="72" style="clip-path:url(#clipPath25); fill:none;" y2="72" />
      <line x1="71" x2="83" y1="72" style="clip-path:url(#clipPath25); fill:none; stroke-dasharray:none; stroke-miterlimit:10;" y2="78" />
      <line x1="71" x2="83" y1="72" style="clip-path:url(#clipPath25); fill:none; stroke-dasharray:none; stroke-miterlimit:10;" y2="66" />
    </g>
    <g transform="translate(316,383)" style="font-size:14; stroke-linecap:butt; text-rendering:geometricPrecision; font-family:&apos;標楷體&apos;; stroke-linejoin:round; stroke-dasharray:8,3; stroke-miterlimit:0;">
      <line x1="301" x2="71" y1="72" style="clip-path:url(#clipPath25); fill:none;" y2="72" />
      <line x1="71" x2="83" y1="72" style="clip-path:url(#clipPath25); fill:none; stroke-dasharray:none; stroke-miterlimit:10;" y2="78" />
      <line x1="71" x2="83" y1="72" style="clip-path:url(#clipPath25); fill:none; stroke-dasharray:none; stroke-miterlimit:10;" y2="66" />
    </g>
    <g transform="translate(316,453)" style="font-size:14; stroke-linecap:butt; text-rendering:geometricPrecision; font-family:&apos;標楷體&apos;; stroke-linejoin:round; stroke-dasharray:8,3; stroke-miterlimit:0;">
      <line x1="301" x2="71" y1="72" style="clip-path:url(#clipPath25); fill:none;" y2="72" />
      <line x1="71" x2="83" y1="72" style="clip-path:url(#clipPath25); fill:none; stroke-dasharray:none; stroke-miterlimit:10;" y2="78" />
      <line x1="71" x2="83" y1="72" style="clip-path:url(#clipPath25); fill:none; stroke-dasharray:none; stroke-miterlimit:10;" y2="66" />
    </g>
    <g style="text-rendering:geometricPrecision; font-size:14; font-family:&apos;標楷體&apos;;" transform="translate(426,500)">
      <text x="9" y="16" style="clip-path:url(#clipPath27); stroke:none;" xml:space="preserve">3.1.4: 回傳符合資料</text>
    </g>
    <g style="text-rendering:geometricPrecision; font-size:14; font-family:&apos;標楷體&apos;;" transform="translate(412,430)">
      <text x="10" y="16" style="clip-path:url(#clipPath28); stroke:none;" xml:space="preserve">3.1.2: 回傳查詢失敗訊息</text>
    </g>
    <g style="text-rendering:geometricPrecision; font-size:14; font-family:&apos;標楷體&apos;;" transform="translate(426,260)">
      <text x="9" y="16" style="clip-path:url(#clipPath27); stroke:none;" xml:space="preserve">1.1.4: 回傳符合資料</text>
    </g>
    <g style="text-rendering:geometricPrecision; font-size:14; font-family:&apos;標楷體&apos;;" transform="translate(406,190)">
      <text x="9" y="16" style="clip-path:url(#clipPath29); stroke:none;" xml:space="preserve">1.1.2: 回傳無相關資料訊息</text>
    </g>
    <g style="text-rendering:geometricPrecision; font-size:14; font-family:&apos;標楷體&apos;;" transform="translate(652,485)">
      <text x="9" y="16" style="clip-path:url(#clipPath27); stroke:none;" xml:space="preserve">3.1.3: 資料比對成功</text>
    </g>
    <g style="text-rendering:geometricPrecision; font-size:14; font-family:&apos;標楷體&apos;;" transform="translate(652,415)">
      <text x="10" y="16" style="clip-path:url(#clipPath28); stroke:none;" xml:space="preserve">3.1.1: 條件篩選查無資料</text>
    </g>
    <g style="text-rendering:geometricPrecision; font-size:14; font-family:&apos;標楷體&apos;;" transform="translate(439,350)">
      <text x="10" y="16" style="clip-path:url(#clipPath30); stroke:none;" xml:space="preserve">3.1: 搜尋資料庫</text>
    </g>
    <g style="text-rendering:geometricPrecision; font-size:14; font-family:&apos;標楷體&apos;;" transform="translate(652,245)">
      <text x="9" y="16" style="clip-path:url(#clipPath27); stroke:none;" xml:space="preserve">1.1.3: 資料比對成功</text>
    </g>
    <g style="text-rendering:geometricPrecision; font-size:14; font-family:&apos;標楷體&apos;;" transform="translate(652,175)">
      <text x="9" y="16" style="clip-path:url(#clipPath31); stroke:none;" xml:space="preserve">1.1.1: 資料比對查無相關資料</text>
    </g>
    <g style="text-rendering:geometricPrecision; font-size:14; font-family:&apos;標楷體&apos;;" transform="translate(439,110)">
      <text x="10" y="16" style="clip-path:url(#clipPath30); stroke:none;" xml:space="preserve">1.1: 搜尋資料庫</text>
    </g>
    <g style="text-rendering:geometricPrecision; font-size:14; font-family:&apos;標楷體&apos;;" transform="translate(200,510)">
      <text x="10" y="16" style="clip-path:url(#clipPath30); stroke:none;" xml:space="preserve">4: 顯示相關資料</text>
    </g>
    <g style="text-rendering:geometricPrecision; font-size:14; font-family:&apos;標楷體&apos;;" transform="translate(186,440)">
      <text x="9" y="16" style="clip-path:url(#clipPath27); stroke:none;" xml:space="preserve">4: 顯示查無相關資料</text>
    </g>
    <g style="text-rendering:geometricPrecision; font-size:14; font-family:&apos;標楷體&apos;;" transform="translate(200,270)">
      <text x="10" y="16" style="clip-path:url(#clipPath30); stroke:none;" xml:space="preserve">2: 顯示相關資料</text>
    </g>
    <g style="text-rendering:geometricPrecision; font-size:14; font-family:&apos;標楷體&apos;;" transform="translate(186,200)">
      <text x="9" y="16" style="clip-path:url(#clipPath27); stroke:none;" xml:space="preserve">2: 顯示查無相關資料</text>
    </g>
    <g style="text-rendering:geometricPrecision; font-size:14; font-family:&apos;標楷體&apos;;" transform="translate(199,340)">
      <text x="10" y="16" style="clip-path:url(#clipPath30); stroke:none;" xml:space="preserve">3: 選擇條件篩選</text>
    </g>
    <g style="text-rendering:geometricPrecision; font-size:14; font-family:&apos;標楷體&apos;;" transform="translate(192,100)">
      <text x="9" y="16" style="clip-path:url(#clipPath32); stroke:none;" xml:space="preserve">1: 輸入關鍵字搜尋</text>
    </g>
    <g style="fill:rgb(120,120,120); text-rendering:geometricPrecision; font-size:10; stroke:rgb(120,120,120);">
    </g>
  </g>
</svg>
