<?xml version="1.0" encoding="UTF-8"?>

<!DOCTYPE svg PUBLIC '-//W3C//DTD SVG 1.0//EN' 'http://www.w3.org/TR/2001/REC-SVG-20010904/DTD/svg10.dtd'>
<svg style="fill-opacity:1; color-rendering:auto; color-interpolation:auto; stroke:black; text-rendering:auto; stroke-linecap:square; stroke-miterlimit:10; stroke-opacity:1; shape-rendering:auto; fill:black; stroke-dasharray:none; font-weight:normal; stroke-width:1; font-family:&apos;Dialog&apos;; font-style:normal; stroke-linejoin:miter; font-size:12; stroke-dashoffset:0; image-rendering:auto;" xmlns="http://www.w3.org/2000/svg" width="751" xmlns:xlink="http://www.w3.org/1999/xlink" height="769">
  <!--Generated by the Batik Graphics2D SVG Generator-->
  <defs id="genericDefs" />
  <g>
    <defs id="defs1">
      <clipPath clipPathUnits="userSpaceOnUse" id="clipPath1">
        <path d="M-3 -3 L67 -3 L67 727 L-3 727 L-3 -3 Z" />
      </clipPath>
      <clipPath clipPathUnits="userSpaceOnUse" id="clipPath2">
        <path d="M-3 -3 L107 -3 L107 727 L-3 727 L-3 -3 Z" />
      </clipPath>
      <clipPath clipPathUnits="userSpaceOnUse" id="clipPath3">
        <path d="M-3 -3 L14 -3 L14 71 L-3 71 L-3 -3 Z" />
      </clipPath>
      <clipPath clipPathUnits="userSpaceOnUse" id="clipPath4">
        <path d="M-3 -3 L77 -3 L77 727 L-3 727 L-3 -3 Z" />
      </clipPath>
      <clipPath clipPathUnits="userSpaceOnUse" id="clipPath5">
        <path d="M-3 -3 L15 -3 L15 77 L-3 77 L-3 -3 Z" />
      </clipPath>
      <clipPath clipPathUnits="userSpaceOnUse" id="clipPath6">
        <path d="M-3 -3 L15 -3 L15 105 L-3 105 L-3 -3 Z" />
      </clipPath>
      <clipPath clipPathUnits="userSpaceOnUse" id="clipPath7">
        <path d="M-3 -3 L597 -3 L597 547 L-3 547 L-3 -3 Z" />
      </clipPath>
      <clipPath clipPathUnits="userSpaceOnUse" id="clipPath8">
        <path d="M0 0 L23 0 L23 20 L0 20 L0 0 Z" />
      </clipPath>
      <clipPath clipPathUnits="userSpaceOnUse" id="clipPath9">
        <path d="M-3 -3 L14 -3 L14 108 L-3 108 L-3 -3 Z" />
      </clipPath>
      <clipPath clipPathUnits="userSpaceOnUse" id="clipPath10">
        <path d="M-3 -3 L14 -3 L14 107 L-3 107 L-3 -3 Z" />
      </clipPath>
      <clipPath clipPathUnits="userSpaceOnUse" id="clipPath11">
        <path d="M-3 -3 L14 -3 L14 98 L-3 98 L-3 -3 Z" />
      </clipPath>
      <clipPath clipPathUnits="userSpaceOnUse" id="clipPath12">
        <path d="M-3 -3 L15 -3 L15 18 L-3 18 L-3 -3 Z" />
      </clipPath>
      <clipPath clipPathUnits="userSpaceOnUse" id="clipPath13">
        <path d="M-3 -3 L14 -3 L14 75 L-3 75 L-3 -3 Z" />
      </clipPath>
      <clipPath clipPathUnits="userSpaceOnUse" id="clipPath14">
        <path d="M-3 -3 L15 -3 L15 111 L-3 111 L-3 -3 Z" />
      </clipPath>
      <clipPath clipPathUnits="userSpaceOnUse" id="clipPath15">
        <path d="M-3 -3 L15 -3 L15 107 L-3 107 L-3 -3 Z" />
      </clipPath>
      <clipPath clipPathUnits="userSpaceOnUse" id="clipPath16">
        <path d="M-3 -3 L597 -3 L597 157 L-3 157 L-3 -3 Z" />
      </clipPath>
      <clipPath clipPathUnits="userSpaceOnUse" id="clipPath17">
        <path d="M0 0 L70 0 L70 17 L0 17 L0 0 Z" />
      </clipPath>
      <clipPath clipPathUnits="userSpaceOnUse" id="clipPath18">
        <path d="M0 0 L0 4 L590 4 L590 0 Z" />
      </clipPath>
      <clipPath clipPathUnits="userSpaceOnUse" id="clipPath19">
        <path d="M-3 -3 L597 -3 L597 127 L-3 127 L-3 -3 Z" />
      </clipPath>
      <clipPath clipPathUnits="userSpaceOnUse" id="clipPath20">
        <path d="M-3 -3 L597 -3 L597 147 L-3 147 L-3 -3 Z" />
      </clipPath>
      <clipPath clipPathUnits="userSpaceOnUse" id="clipPath21">
        <path d="M-3 -3 L597 -3 L597 117 L-3 117 L-3 -3 Z" />
      </clipPath>
      <clipPath clipPathUnits="userSpaceOnUse" id="clipPath22">
        <path d="M0 0 L100 0 L100 18 L0 18 L0 0 Z" />
      </clipPath>
      <clipPath clipPathUnits="userSpaceOnUse" id="clipPath23">
        <path d="M0 0 L48 0 L48 18 L0 18 L0 0 Z" />
      </clipPath>
      <clipPath clipPathUnits="userSpaceOnUse" id="clipPath24">
        <path d="M0 0 L449 0 L449 146 L0 146 L0 0 Z" />
      </clipPath>
      <clipPath clipPathUnits="userSpaceOnUse" id="clipPath25">
        <path d="M0 0 L372 0 L372 146 L0 146 L0 0 Z" />
      </clipPath>
      <clipPath clipPathUnits="userSpaceOnUse" id="clipPath26">
        <path d="M0 0 L168 0 L168 166 L0 166 L0 0 Z" />
      </clipPath>
      <clipPath clipPathUnits="userSpaceOnUse" id="clipPath27">
        <path d="M0 0 L181 0 L181 18 L0 18 L0 0 Z" />
      </clipPath>
      <clipPath clipPathUnits="userSpaceOnUse" id="clipPath28">
        <path d="M0 0 L111 0 L111 18 L0 18 L0 0 Z" />
      </clipPath>
      <clipPath clipPathUnits="userSpaceOnUse" id="clipPath29">
        <path d="M0 0 L125 0 L125 18 L0 18 L0 0 Z" />
      </clipPath>
      <clipPath clipPathUnits="userSpaceOnUse" id="clipPath30">
        <path d="M0 0 L138 0 L138 18 L0 18 L0 0 Z" />
      </clipPath>
      <clipPath clipPathUnits="userSpaceOnUse" id="clipPath31">
        <path d="M0 0 L201 0 L201 18 L0 18 L0 0 Z" />
      </clipPath>
      <clipPath clipPathUnits="userSpaceOnUse" id="clipPath32">
        <path d="M0 0 L292 0 L292 18 L0 18 L0 0 Z" />
      </clipPath>
      <clipPath clipPathUnits="userSpaceOnUse" id="clipPath33">
        <path d="M0 0 L97 0 L97 18 L0 18 L0 0 Z" />
      </clipPath>
    </defs>
    <g style="fill:white; text-rendering:geometricPrecision; stroke:white;">
      <rect x="0" y="0" width="751" style="stroke:none;" height="769" />
      <rect x="158" y="38" transform="translate(-158,-38)" width="750" style="fill:none; stroke:black;" height="768" />
      <text x="165" y="57" transform="translate(-158,-38)" style="fill:black; stroke:none; font-weight:bold;" xml:space="preserve">sd</text>
      <text x="186" y="57" transform="translate(-158,-38)" style="fill:black; stroke:none;" xml:space="preserve">行事曆</text>
      <line transform="translate(-158,-38)" x1="158" x2="222" y1="64" style="fill:none; stroke:black;" y2="64" />
      <line transform="translate(-158,-38)" x1="228" x2="228" y1="38" style="fill:none; stroke:black;" y2="53" />
      <line transform="translate(-158,-38)" x1="228" x2="222" y1="53" style="fill:none; stroke:black;" y2="64" />
    </g>
    <g transform="translate(12,35)" style="font-size:14; fill:rgb(122,207,245); text-rendering:geometricPrecision; font-family:&apos;標楷體&apos;; stroke:rgb(122,207,245);">
      <circle style="clip-path:url(#clipPath1); stroke:none;" r="5" cx="30" cy="5" />
      <rect x="26" y="52" width="8" style="clip-path:url(#clipPath1); stroke:none;" height="667" />
    </g>
    <g transform="translate(12,35)" style="font-size:14; stroke-linecap:butt; text-rendering:geometricPrecision; font-family:&apos;標楷體&apos;; stroke-linejoin:round; stroke-miterlimit:0;">
      <circle style="fill:none; clip-path:url(#clipPath1);" r="5" cx="30" cy="5" />
      <rect x="26" y="52" width="8" style="clip-path:url(#clipPath1); fill:none;" height="667" />
      <line x1="30" x2="30" y1="10" style="clip-path:url(#clipPath1); fill:none;" y2="25" />
      <line x1="30" x2="21" y1="25" style="clip-path:url(#clipPath1); fill:none;" y2="36" />
      <line x1="30" x2="39" y1="25" style="clip-path:url(#clipPath1); fill:none;" y2="36" />
      <line x1="21" x2="39" y1="16" style="clip-path:url(#clipPath1); fill:none;" y2="16" />
    </g>
    <g transform="translate(302,35)" style="font-size:14; fill:rgb(122,207,245); text-rendering:geometricPrecision; font-family:&apos;標楷體&apos;; stroke:rgb(122,207,245);">
      <rect x="0" y="0" width="99" style="clip-path:url(#clipPath2); stroke:none;" height="35" />
    </g>
    <g transform="translate(302,35)" style="font-size:14; stroke-linecap:butt; text-rendering:geometricPrecision; font-family:&apos;標楷體&apos;; stroke-linejoin:round; stroke-miterlimit:0;">
      <rect x="0" y="0" width="99" style="clip-path:url(#clipPath2); fill:none;" height="35" />
      <line x1="49" x2="49" y1="35" style="clip-path:url(#clipPath2); fill:none; stroke-linejoin:bevel; stroke-dasharray:8,3;" y2="720" />
    </g>
    <g transform="translate(349,99)" style="font-size:14; fill:rgb(122,207,245); text-rendering:geometricPrecision; font-family:&apos;標楷體&apos;; stroke:rgb(122,207,245);">
      <rect x="0" y="0" width="7" style="clip-path:url(#clipPath3); stroke:none;" height="64" />
    </g>
    <g transform="translate(349,99)" style="font-size:14; stroke-linecap:butt; text-rendering:geometricPrecision; font-family:&apos;標楷體&apos;; stroke-linejoin:round; stroke-miterlimit:0;">
      <rect x="0" y="0" width="7" style="clip-path:url(#clipPath3); fill:none;" height="64" />
    </g>
    <g transform="translate(552,35)" style="font-size:14; fill:rgb(122,207,245); text-rendering:geometricPrecision; font-family:&apos;Times New Roman&apos;; stroke:rgb(122,207,245);">
      <rect x="0" y="0" width="69" style="clip-path:url(#clipPath4); stroke:none;" height="35" />
    </g>
    <g transform="translate(552,35)" style="font-size:14; stroke-linecap:butt; text-rendering:geometricPrecision; font-family:&apos;Times New Roman&apos;; stroke-linejoin:round; stroke-miterlimit:0;">
      <rect x="0" y="0" width="69" style="clip-path:url(#clipPath4); fill:none;" height="35" />
      <line x1="34" x2="34" y1="35" style="clip-path:url(#clipPath4); fill:none; stroke-linejoin:bevel; stroke-dasharray:8,3;" y2="720" />
    </g>
    <g transform="translate(582,89)" style="font-size:11; fill:rgb(122,207,245); text-rendering:geometricPrecision; font-family:sans-serif; stroke:rgb(122,207,245);">
      <rect x="0" y="0" width="8" style="clip-path:url(#clipPath5); stroke:none;" height="70" />
    </g>
    <g transform="translate(582,89)" style="font-size:11; stroke-linecap:butt; text-rendering:geometricPrecision; font-family:sans-serif; stroke-linejoin:round; stroke-miterlimit:0;">
      <rect x="0" y="0" width="8" style="clip-path:url(#clipPath5); fill:none;" height="70" />
    </g>
    <g transform="translate(582,192)" style="font-size:11; fill:rgb(122,207,245); text-rendering:geometricPrecision; font-family:sans-serif; stroke:rgb(122,207,245);">
      <rect x="0" y="0" width="8" style="clip-path:url(#clipPath6); stroke:none;" height="98" />
    </g>
    <g transform="translate(582,192)" style="font-size:11; stroke-linecap:butt; text-rendering:geometricPrecision; font-family:sans-serif; stroke-linejoin:round; stroke-miterlimit:0;">
      <rect x="0" y="0" width="8" style="clip-path:url(#clipPath6); fill:none;" height="98" />
    </g>
    <g transform="translate(22,175)" style="font-size:11; stroke-linecap:butt; text-rendering:geometricPrecision; font-family:sans-serif; stroke-linejoin:round; font-weight:bold; stroke-miterlimit:0;">
      <rect x="0" y="0" width="590" style="clip-path:url(#clipPath7); fill:none;" height="540" />
    </g>
    <g transform="translate(22,175)" style="font-size:11; fill:white; text-rendering:geometricPrecision; font-family:sans-serif; stroke:white; font-weight:bold;">
      <path d="M22 0 L22 10 L16 19 L0 19 L0 0 Z" style="clip-path:url(#clipPath7); stroke:none;" />
    </g>
    <g transform="translate(22,175)" style="font-size:11; stroke-linecap:butt; text-rendering:geometricPrecision; font-family:sans-serif; stroke-linejoin:round; font-weight:bold; stroke-miterlimit:0;">
      <path d="M22 0 L22 10 L16 19 L0 19 L0 0 Z" style="fill:none; clip-path:url(#clipPath7);" />
    </g>
    <g transform="translate(22,175)" style="text-rendering:geometricPrecision; font-size:11; font-weight:bold; font-family:sans-serif;">
      <text x="5" y="14" style="clip-path:url(#clipPath8); stroke:none;" xml:space="preserve">alt</text>
    </g>
    <g transform="translate(349,189)" style="font-size:11; fill:rgb(122,207,245); text-rendering:geometricPrecision; font-family:sans-serif; stroke:rgb(122,207,245);">
      <rect x="0" y="0" width="7" style="clip-path:url(#clipPath9); stroke:none;" height="101" />
    </g>
    <g transform="translate(349,189)" style="font-size:11; stroke-linecap:butt; text-rendering:geometricPrecision; font-family:sans-serif; stroke-linejoin:round; stroke-miterlimit:0;">
      <rect x="0" y="0" width="7" style="clip-path:url(#clipPath9); fill:none;" height="101" />
    </g>
    <g transform="translate(349,469)" style="font-size:11; fill:rgb(122,207,245); text-rendering:geometricPrecision; font-family:sans-serif; stroke:rgb(122,207,245);">
      <rect x="0" y="0" width="7" style="clip-path:url(#clipPath10); stroke:none;" height="100" />
    </g>
    <g transform="translate(349,469)" style="font-size:11; stroke-linecap:butt; text-rendering:geometricPrecision; font-family:sans-serif; stroke-linejoin:round; stroke-miterlimit:0;">
      <rect x="0" y="0" width="7" style="clip-path:url(#clipPath10); fill:none;" height="100" />
    </g>
    <g transform="translate(349,332)" style="font-size:11; fill:rgb(122,207,245); text-rendering:geometricPrecision; font-family:sans-serif; stroke:rgb(122,207,245);">
      <rect x="0" y="0" width="7" style="clip-path:url(#clipPath11); stroke:none;" height="91" />
    </g>
    <g transform="translate(349,332)" style="font-size:11; stroke-linecap:butt; text-rendering:geometricPrecision; font-family:sans-serif; stroke-linejoin:round; stroke-miterlimit:0;">
      <rect x="0" y="0" width="7" style="clip-path:url(#clipPath11); fill:none;" height="91" />
    </g>
    <g transform="translate(586,237)" style="font-size:11; fill:rgb(122,207,245); text-rendering:geometricPrecision; font-family:sans-serif; stroke:rgb(122,207,245);">
      <rect x="0" y="0" width="8" style="clip-path:url(#clipPath12); stroke:none;" height="11" />
    </g>
    <g transform="translate(586,237)" style="font-size:11; stroke-linecap:butt; text-rendering:geometricPrecision; font-family:sans-serif; stroke-linejoin:round; stroke-miterlimit:0;">
      <rect x="0" y="0" width="8" style="clip-path:url(#clipPath12); fill:none;" height="11" />
    </g>
    <g transform="translate(349,629)" style="font-size:11; fill:rgb(122,207,245); text-rendering:geometricPrecision; font-family:sans-serif; stroke:rgb(122,207,245);">
      <rect x="0" y="0" width="7" style="clip-path:url(#clipPath13); stroke:none;" height="68" />
    </g>
    <g transform="translate(349,629)" style="font-size:11; stroke-linecap:butt; text-rendering:geometricPrecision; font-family:sans-serif; stroke-linejoin:round; stroke-miterlimit:0;">
      <rect x="0" y="0" width="7" style="clip-path:url(#clipPath13); fill:none;" height="68" />
    </g>
    <g transform="translate(582,330)" style="font-size:11; fill:rgb(122,207,245); text-rendering:geometricPrecision; font-family:sans-serif; stroke:rgb(122,207,245);">
      <rect x="0" y="0" width="8" style="clip-path:url(#clipPath14); stroke:none;" height="104" />
    </g>
    <g transform="translate(582,330)" style="font-size:11; stroke-linecap:butt; text-rendering:geometricPrecision; font-family:sans-serif; stroke-linejoin:round; stroke-miterlimit:0;">
      <rect x="0" y="0" width="8" style="clip-path:url(#clipPath14); fill:none;" height="104" />
    </g>
    <g transform="translate(586,377)" style="font-size:11; fill:rgb(122,207,245); text-rendering:geometricPrecision; font-family:sans-serif; stroke:rgb(122,207,245);">
      <rect x="0" y="0" width="8" style="clip-path:url(#clipPath12); stroke:none;" height="11" />
    </g>
    <g transform="translate(586,377)" style="font-size:11; stroke-linecap:butt; text-rendering:geometricPrecision; font-family:sans-serif; stroke-linejoin:round; stroke-miterlimit:0;">
      <rect x="0" y="0" width="8" style="clip-path:url(#clipPath12); fill:none;" height="11" />
    </g>
    <g transform="translate(582,479)" style="font-size:11; fill:rgb(122,207,245); text-rendering:geometricPrecision; font-family:sans-serif; stroke:rgb(122,207,245);">
      <rect x="0" y="0" width="8" style="clip-path:url(#clipPath15); stroke:none;" height="100" />
    </g>
    <g transform="translate(582,479)" style="font-size:11; stroke-linecap:butt; text-rendering:geometricPrecision; font-family:sans-serif; stroke-linejoin:round; stroke-miterlimit:0;">
      <rect x="0" y="0" width="8" style="clip-path:url(#clipPath15); fill:none;" height="100" />
    </g>
    <g transform="translate(586,523)" style="font-size:11; fill:rgb(122,207,245); text-rendering:geometricPrecision; font-family:sans-serif; stroke:rgb(122,207,245);">
      <rect x="0" y="0" width="8" style="clip-path:url(#clipPath12); stroke:none;" height="11" />
    </g>
    <g transform="translate(586,523)" style="font-size:11; stroke-linecap:butt; text-rendering:geometricPrecision; font-family:sans-serif; stroke-linejoin:round; stroke-miterlimit:0;">
      <rect x="0" y="0" width="8" style="clip-path:url(#clipPath12); fill:none;" height="11" />
    </g>
    <g transform="translate(22,455)" style="font-size:11; fill:white; text-rendering:geometricPrecision; font-family:sans-serif; stroke:white;">
      <rect x="28" y="5" width="70" style="clip-path:url(#clipPath16); stroke:none;" height="17" />
    </g>
    <g transform="translate(22,455)" style="font-size:11; stroke-linecap:butt; text-rendering:geometricPrecision; font-family:sans-serif; stroke-linejoin:bevel; stroke-dasharray:5,2; stroke-miterlimit:0;">
      <line x1="0" x2="589" y1="149" style="clip-path:url(#clipPath16); fill:none;" y2="149" />
    </g>
    <g style="text-rendering:geometricPrecision; font-size:11; font-family:sans-serif;" transform="translate(50,460)">
      <text x="10" y="14" style="clip-path:url(#clipPath17); stroke:none;" xml:space="preserve">[修改行程]</text>
    </g>
    <g transform="translate(22,195)" style="font-size:11; fill:white; text-rendering:geometricPrecision; font-family:sans-serif; stroke:white;">
      <rect x="28" y="5" width="70" style="clip-path:url(#clipPath19); stroke:none;" height="17" />
    </g>
    <g transform="translate(22,195)" style="font-size:11; stroke-linecap:butt; text-rendering:geometricPrecision; font-family:sans-serif; stroke-linejoin:bevel; stroke-dasharray:5,2; stroke-miterlimit:0;">
      <line x1="0" x2="589" y1="119" style="clip-path:url(#clipPath19); fill:none;" y2="119" />
    </g>
    <g style="text-rendering:geometricPrecision; font-size:11; font-family:sans-serif;" transform="translate(50,200)">
      <text x="10" y="14" style="clip-path:url(#clipPath17); stroke:none;" xml:space="preserve">[新增行程]</text>
    </g>
    <g transform="translate(22,315)" style="font-size:11; fill:white; text-rendering:geometricPrecision; font-family:sans-serif; stroke:white;">
      <rect x="28" y="5" width="70" style="clip-path:url(#clipPath20); stroke:none;" height="17" />
    </g>
    <g transform="translate(22,315)" style="font-size:11; stroke-linecap:butt; text-rendering:geometricPrecision; font-family:sans-serif; stroke-linejoin:bevel; stroke-dasharray:5,2; stroke-miterlimit:0;">
      <line x1="0" x2="589" y1="139" style="clip-path:url(#clipPath20); fill:none;" y2="139" />
    </g>
    <g style="text-rendering:geometricPrecision; font-size:11; font-family:sans-serif;" transform="translate(50,320)">
      <text x="10" y="14" style="clip-path:url(#clipPath17); stroke:none;" xml:space="preserve">[刪除行程]</text>
    </g>
    <g transform="translate(22,605)" style="font-size:11; fill:white; text-rendering:geometricPrecision; font-family:sans-serif; stroke:white;">
      <rect x="28" y="5" width="70" style="clip-path:url(#clipPath21); stroke:none;" height="17" />
    </g>
    <g style="text-rendering:geometricPrecision; font-size:11; font-family:sans-serif;" transform="translate(50,610)">
      <text x="10" y="14" style="clip-path:url(#clipPath17); stroke:none;" xml:space="preserve">[查詢行程]</text>
    </g>
    <g style="text-rendering:geometricPrecision; font-size:14; font-family:&apos;Times New Roman&apos;;" transform="translate(552,35)">
      <text x="10" y="14" style="clip-path:url(#clipPath17); stroke:none;" xml:space="preserve">calendar</text>
    </g>
    <g style="text-rendering:geometricPrecision; font-size:14; font-family:&apos;標楷體&apos;;" transform="translate(302,35)">
      <text x="8" y="16" style="clip-path:url(#clipPath22); stroke:none;" xml:space="preserve">行事曆管理UI</text>
    </g>
    <g style="text-rendering:geometricPrecision; font-size:14; font-family:&apos;標楷體&apos;;" transform="translate(17,69)">
      <text x="10" y="16" style="clip-path:url(#clipPath23); stroke:none;" xml:space="preserve">會員</text>
    </g>
    <g transform="translate(-26,33)" style="font-size:14; stroke-linecap:butt; text-rendering:geometricPrecision; font-family:&apos;標楷體&apos;; stroke-linejoin:round;">
      <line x1="72" x2="375" y1="72" style="clip-path:url(#clipPath24); fill:none;" y2="72" />
      <polygon style="clip-path:url(#clipPath24); stroke:none;" points=" 375 72 363 66 363 78" />
      <polygon style="fill:none; clip-path:url(#clipPath24);" points=" 375 72 363 66 363 78" />
    </g>
    <g transform="translate(-26,273)" style="font-size:14; stroke-linecap:butt; text-rendering:geometricPrecision; font-family:&apos;標楷體&apos;; stroke-linejoin:round;">
      <line x1="72" x2="375" y1="72" style="clip-path:url(#clipPath24); fill:none;" y2="72" />
      <polygon style="clip-path:url(#clipPath24); stroke:none;" points=" 375 72 363 66 363 78" />
      <polygon style="fill:none; clip-path:url(#clipPath24);" points=" 375 72 363 66 363 78" />
    </g>
    <g transform="translate(-26,413)" style="font-size:14; stroke-linecap:butt; text-rendering:geometricPrecision; font-family:&apos;標楷體&apos;; stroke-linejoin:round;">
      <line x1="72" x2="375" y1="72" style="clip-path:url(#clipPath24); fill:none;" y2="72" />
      <polygon style="clip-path:url(#clipPath24); stroke:none;" points=" 375 72 363 66 363 78" />
      <polygon style="fill:none; clip-path:url(#clipPath24);" points=" 375 72 363 66 363 78" />
    </g>
    <g transform="translate(-26,133)" style="font-size:14; stroke-linecap:butt; text-rendering:geometricPrecision; font-family:&apos;標楷體&apos;; stroke-linejoin:round;">
      <line x1="72" x2="375" y1="72" style="clip-path:url(#clipPath24); fill:none;" y2="72" />
      <polygon style="clip-path:url(#clipPath24); stroke:none;" points=" 375 72 363 66 363 78" />
      <polygon style="fill:none; clip-path:url(#clipPath24);" points=" 375 72 363 66 363 78" />
    </g>
    <g transform="translate(-26,573)" style="font-size:14; stroke-linecap:butt; text-rendering:geometricPrecision; font-family:&apos;標楷體&apos;; stroke-linejoin:round;">
      <line x1="72" x2="375" y1="71" style="clip-path:url(#clipPath24); fill:none;" y2="71" />
      <polygon style="clip-path:url(#clipPath24); stroke:none;" points=" 375 71 363 65 363 77" />
      <polygon style="fill:none; clip-path:url(#clipPath24);" points=" 375 71 363 65 363 77" />
    </g>
    <g transform="translate(-26,83)" style="font-size:14; stroke-linecap:butt; text-rendering:geometricPrecision; font-family:&apos;標楷體&apos;; stroke-linejoin:round; stroke-dasharray:8,3; stroke-miterlimit:0;">
      <line x1="375" x2="72" y1="72" style="clip-path:url(#clipPath24); fill:none;" y2="72" />
      <line x1="72" x2="84" y1="72" style="clip-path:url(#clipPath24); fill:none; stroke-dasharray:none; stroke-miterlimit:10;" y2="78" />
      <line x1="72" x2="84" y1="72" style="clip-path:url(#clipPath24); fill:none; stroke-dasharray:none; stroke-miterlimit:10;" y2="66" />
    </g>
    <g transform="translate(-26,343)" style="font-size:14; stroke-linecap:butt; text-rendering:geometricPrecision; font-family:&apos;標楷體&apos;; stroke-linejoin:round; stroke-dasharray:8,3; stroke-miterlimit:0;">
      <line x1="375" x2="72" y1="72" style="clip-path:url(#clipPath24); fill:none;" y2="72" />
      <line x1="72" x2="84" y1="72" style="clip-path:url(#clipPath24); fill:none; stroke-dasharray:none; stroke-miterlimit:10;" y2="78" />
      <line x1="72" x2="84" y1="72" style="clip-path:url(#clipPath24); fill:none; stroke-dasharray:none; stroke-miterlimit:10;" y2="66" />
    </g>
    <g transform="translate(-26,483)" style="font-size:14; stroke-linecap:butt; text-rendering:geometricPrecision; font-family:&apos;標楷體&apos;; stroke-linejoin:round; stroke-dasharray:8,3; stroke-miterlimit:0;">
      <line x1="375" x2="72" y1="72" style="clip-path:url(#clipPath24); fill:none;" y2="72" />
      <line x1="72" x2="84" y1="72" style="clip-path:url(#clipPath24); fill:none; stroke-dasharray:none; stroke-miterlimit:10;" y2="78" />
      <line x1="72" x2="84" y1="72" style="clip-path:url(#clipPath24); fill:none; stroke-dasharray:none; stroke-miterlimit:10;" y2="66" />
    </g>
    <g transform="translate(-26,213)" style="font-size:14; stroke-linecap:butt; text-rendering:geometricPrecision; font-family:&apos;標楷體&apos;; stroke-linejoin:round; stroke-dasharray:8,3; stroke-miterlimit:0;">
      <line x1="375" x2="72" y1="72" style="clip-path:url(#clipPath24); fill:none;" y2="72" />
      <line x1="72" x2="84" y1="72" style="clip-path:url(#clipPath24); fill:none; stroke-dasharray:none; stroke-miterlimit:10;" y2="78" />
      <line x1="72" x2="84" y1="72" style="clip-path:url(#clipPath24); fill:none; stroke-dasharray:none; stroke-miterlimit:10;" y2="66" />
    </g>
    <g transform="translate(-26,613)" style="font-size:14; stroke-linecap:butt; text-rendering:geometricPrecision; font-family:&apos;標楷體&apos;; stroke-linejoin:round; stroke-dasharray:8,3; stroke-miterlimit:0;">
      <line x1="375" x2="72" y1="71" style="clip-path:url(#clipPath24); fill:none;" y2="71" />
      <line x1="72" x2="84" y1="71" style="clip-path:url(#clipPath24); fill:none; stroke-dasharray:none; stroke-miterlimit:10;" y2="77" />
      <line x1="72" x2="84" y1="71" style="clip-path:url(#clipPath24); fill:none; stroke-dasharray:none; stroke-miterlimit:10;" y2="65" />
    </g>
    <g transform="translate(284,43)" style="font-size:14; stroke-linecap:butt; text-rendering:geometricPrecision; font-family:&apos;標楷體&apos;; stroke-linejoin:round;">
      <line x1="72" x2="298" y1="72" style="clip-path:url(#clipPath25); fill:none;" y2="72" />
      <polygon style="clip-path:url(#clipPath25); stroke:none;" points=" 298 72 286 66 286 78" />
      <polygon style="fill:none; clip-path:url(#clipPath25);" points=" 298 72 286 66 286 78" />
    </g>
    <g transform="translate(284,143)" style="font-size:14; stroke-linecap:butt; text-rendering:geometricPrecision; font-family:&apos;標楷體&apos;; stroke-linejoin:round;">
      <line x1="72" x2="298" y1="72" style="clip-path:url(#clipPath25); fill:none;" y2="72" />
      <polygon style="clip-path:url(#clipPath25); stroke:none;" points=" 298 72 286 66 286 78" />
      <polygon style="fill:none; clip-path:url(#clipPath25);" points=" 298 72 286 66 286 78" />
    </g>
    <g transform="translate(519,153)" style="font-size:14; stroke-linecap:butt; text-rendering:geometricPrecision; font-family:&apos;標楷體&apos;; stroke-linejoin:round;">
      <line x1="71" x2="93" y1="72" style="clip-path:url(#clipPath26); fill:none;" y2="72" />
      <line x1="93" x2="93" y1="72" style="clip-path:url(#clipPath26); fill:none;" y2="92" />
      <line x1="93" x2="75" y1="92" style="clip-path:url(#clipPath26); fill:none;" y2="92" />
      <polygon style="clip-path:url(#clipPath26); stroke:none;" points=" 75 92 87 98 87 86" />
      <polygon style="fill:none; clip-path:url(#clipPath26);" points=" 75 92 87 98 87 86" />
    </g>
    <g transform="translate(284,283)" style="font-size:14; stroke-linecap:butt; text-rendering:geometricPrecision; font-family:&apos;標楷體&apos;; stroke-linejoin:round;">
      <line x1="72" x2="298" y1="72" style="clip-path:url(#clipPath25); fill:none;" y2="72" />
      <polygon style="clip-path:url(#clipPath25); stroke:none;" points=" 298 72 286 66 286 78" />
      <polygon style="fill:none; clip-path:url(#clipPath25);" points=" 298 72 286 66 286 78" />
    </g>
    <g transform="translate(519,293)" style="font-size:14; stroke-linecap:butt; text-rendering:geometricPrecision; font-family:&apos;標楷體&apos;; stroke-linejoin:round;">
      <line x1="71" x2="93" y1="72" style="clip-path:url(#clipPath26); fill:none;" y2="72" />
      <line x1="93" x2="93" y1="72" style="clip-path:url(#clipPath26); fill:none;" y2="92" />
      <line x1="93" x2="75" y1="92" style="clip-path:url(#clipPath26); fill:none;" y2="92" />
      <polygon style="clip-path:url(#clipPath26); stroke:none;" points=" 75 92 87 98 87 86" />
      <polygon style="fill:none; clip-path:url(#clipPath26);" points=" 75 92 87 98 87 86" />
    </g>
    <g transform="translate(284,423)" style="font-size:14; stroke-linecap:butt; text-rendering:geometricPrecision; font-family:&apos;標楷體&apos;; stroke-linejoin:round;">
      <line x1="72" x2="298" y1="72" style="clip-path:url(#clipPath25); fill:none;" y2="72" />
      <polygon style="clip-path:url(#clipPath25); stroke:none;" points=" 298 72 286 66 286 78" />
      <polygon style="fill:none; clip-path:url(#clipPath25);" points=" 298 72 286 66 286 78" />
    </g>
    <g transform="translate(519,433)" style="font-size:14; stroke-linecap:butt; text-rendering:geometricPrecision; font-family:&apos;標楷體&apos;; stroke-linejoin:round;">
      <line x1="71" x2="93" y1="72" style="clip-path:url(#clipPath26); fill:none;" y2="72" />
      <line x1="93" x2="93" y1="72" style="clip-path:url(#clipPath26); fill:none;" y2="92" />
      <line x1="93" x2="75" y1="92" style="clip-path:url(#clipPath26); fill:none;" y2="92" />
      <polygon style="clip-path:url(#clipPath26); stroke:none;" points=" 75 92 87 98 87 86" />
      <polygon style="fill:none; clip-path:url(#clipPath26);" points=" 75 92 87 98 87 86" />
    </g>
    <g transform="translate(284,73)" style="font-size:14; stroke-linecap:butt; text-rendering:geometricPrecision; font-family:&apos;標楷體&apos;; stroke-linejoin:round; stroke-dasharray:8,3; stroke-miterlimit:0;">
      <line x1="298" x2="72" y1="72" style="clip-path:url(#clipPath25); fill:none;" y2="72" />
      <line x1="72" x2="84" y1="72" style="clip-path:url(#clipPath25); fill:none; stroke-dasharray:none; stroke-miterlimit:10;" y2="78" />
      <line x1="72" x2="84" y1="72" style="clip-path:url(#clipPath25); fill:none; stroke-dasharray:none; stroke-miterlimit:10;" y2="66" />
    </g>
    <g transform="translate(284,193)" style="font-size:14; stroke-linecap:butt; text-rendering:geometricPrecision; font-family:&apos;標楷體&apos;; stroke-linejoin:round; stroke-dasharray:8,3; stroke-miterlimit:0;">
      <line x1="298" x2="72" y1="72" style="clip-path:url(#clipPath25); fill:none;" y2="72" />
      <line x1="72" x2="84" y1="72" style="clip-path:url(#clipPath25); fill:none; stroke-dasharray:none; stroke-miterlimit:10;" y2="78" />
      <line x1="72" x2="84" y1="72" style="clip-path:url(#clipPath25); fill:none; stroke-dasharray:none; stroke-miterlimit:10;" y2="66" />
    </g>
    <g transform="translate(284,333)" style="font-size:14; stroke-linecap:butt; text-rendering:geometricPrecision; font-family:&apos;標楷體&apos;; stroke-linejoin:round; stroke-dasharray:8,3; stroke-miterlimit:0;">
      <line x1="298" x2="72" y1="72" style="clip-path:url(#clipPath25); fill:none;" y2="72" />
      <line x1="72" x2="84" y1="72" style="clip-path:url(#clipPath25); fill:none; stroke-dasharray:none; stroke-miterlimit:10;" y2="78" />
      <line x1="72" x2="84" y1="72" style="clip-path:url(#clipPath25); fill:none; stroke-dasharray:none; stroke-miterlimit:10;" y2="66" />
    </g>
    <g transform="translate(284,473)" style="font-size:14; stroke-linecap:butt; text-rendering:geometricPrecision; font-family:&apos;標楷體&apos;; stroke-linejoin:round; stroke-dasharray:8,3; stroke-miterlimit:0;">
      <line x1="298" x2="72" y1="72" style="clip-path:url(#clipPath25); fill:none;" y2="72" />
      <line x1="72" x2="84" y1="72" style="clip-path:url(#clipPath25); fill:none; stroke-dasharray:none; stroke-miterlimit:10;" y2="78" />
      <line x1="72" x2="84" y1="72" style="clip-path:url(#clipPath25); fill:none; stroke-dasharray:none; stroke-miterlimit:10;" y2="66" />
    </g>
    <g style="text-rendering:geometricPrecision; font-size:14; font-family:&apos;標楷體&apos;;" transform="translate(377,520)">
      <text x="10" y="16" style="clip-path:url(#clipPath27); stroke:none;" xml:space="preserve">7.1.2: 回傳修改行程成功</text>
    </g>
    <g style="text-rendering:geometricPrecision; font-size:14; font-family:&apos;標楷體&apos;;" transform="translate(377,380)">
      <text x="10" y="16" style="clip-path:url(#clipPath27); stroke:none;" xml:space="preserve">5.1.2: 回傳刪除行程成功</text>
    </g>
    <g style="text-rendering:geometricPrecision; font-size:14; font-family:&apos;標楷體&apos;;" transform="translate(377,240)">
      <text x="10" y="16" style="clip-path:url(#clipPath27); stroke:none;" xml:space="preserve">3.1.2: 回傳新增行程成功</text>
    </g>
    <g style="text-rendering:geometricPrecision; font-size:14; font-family:&apos;標楷體&apos;;" transform="translate(413,120)">
      <text x="10" y="16" style="clip-path:url(#clipPath28); stroke:none;" xml:space="preserve">1.2: 回傳行程</text>
    </g>
    <g style="text-rendering:geometricPrecision; font-size:14; font-family:&apos;標楷體&apos;;" transform="translate(612,505)">
      <text x="10" y="16" style="clip-path:url(#clipPath29); stroke:none;" xml:space="preserve">7.1.1: 更新成功</text>
    </g>
    <g style="text-rendering:geometricPrecision; font-size:14; font-family:&apos;標楷體&apos;;" transform="translate(399,470)">
      <text x="9" y="16" style="clip-path:url(#clipPath30); stroke:none;" xml:space="preserve">7.1: 要求修改行程</text>
    </g>
    <g style="text-rendering:geometricPrecision; font-size:14; font-family:&apos;標楷體&apos;;" transform="translate(612,365)">
      <text x="10" y="16" style="clip-path:url(#clipPath29); stroke:none;" xml:space="preserve">5.1.1: 更新成功</text>
    </g>
    <g style="text-rendering:geometricPrecision; font-size:14; font-family:&apos;標楷體&apos;;" transform="translate(399,330)">
      <text x="9" y="16" style="clip-path:url(#clipPath30); stroke:none;" xml:space="preserve">5.1: 要求刪除行程</text>
    </g>
    <g style="text-rendering:geometricPrecision; font-size:14; font-family:&apos;標楷體&apos;;" transform="translate(612,225)">
      <text x="10" y="16" style="clip-path:url(#clipPath29); stroke:none;" xml:space="preserve">3.1.1: 更新成功</text>
    </g>
    <g style="text-rendering:geometricPrecision; font-size:14; font-family:&apos;標楷體&apos;;" transform="translate(399,190)">
      <text x="9" y="16" style="clip-path:url(#clipPath30); stroke:none;" xml:space="preserve">3.1: 要求新增行程</text>
    </g>
    <g style="text-rendering:geometricPrecision; font-size:14; font-family:&apos;標楷體&apos;;" transform="translate(413,90)">
      <text x="10" y="16" style="clip-path:url(#clipPath28); stroke:none;" xml:space="preserve">1.1: 查詢行程</text>
    </g>
    <g style="text-rendering:geometricPrecision; font-size:14; font-family:&apos;標楷體&apos;;" transform="translate(96,660)">
      <text x="9" y="16" style="clip-path:url(#clipPath31); stroke:none;" xml:space="preserve">10: 在行事曆顯示查詢的行程</text>
    </g>
    <g style="text-rendering:geometricPrecision; font-size:14; font-family:&apos;標楷體&apos;;" transform="translate(50,260)">
      <text x="9" y="16" style="clip-path:url(#clipPath32); stroke:none;" xml:space="preserve">4: 回傳新增成功訊息並將行程新增於行事曆</text>
    </g>
    <g style="text-rendering:geometricPrecision; font-size:14; font-family:&apos;標楷體&apos;;" transform="translate(50,530)">
      <text x="9" y="16" style="clip-path:url(#clipPath32); stroke:none;" xml:space="preserve">8: 回傳修改成功訊息並將行程於行事曆修改</text>
    </g>
    <g style="text-rendering:geometricPrecision; font-size:14; font-family:&apos;標楷體&apos;;" transform="translate(50,390)">
      <text x="9" y="16" style="clip-path:url(#clipPath32); stroke:none;" xml:space="preserve">6: 回傳刪除成功訊息並將行程於行事曆刪除</text>
    </g>
    <g style="text-rendering:geometricPrecision; font-size:14; font-family:&apos;標楷體&apos;;" transform="translate(149,130)">
      <text x="10" y="16" style="clip-path:url(#clipPath33); stroke:none;" xml:space="preserve">2: 顯示行程</text>
    </g>
    <g style="text-rendering:geometricPrecision; font-size:14; font-family:&apos;標楷體&apos;;" transform="translate(149,620)">
      <text x="10" y="16" style="clip-path:url(#clipPath33); stroke:none;" xml:space="preserve">9: 查詢行程</text>
    </g>
    <g style="text-rendering:geometricPrecision; font-size:14; font-family:&apos;標楷體&apos;;" transform="translate(149,180)">
      <text x="10" y="16" style="clip-path:url(#clipPath33); stroke:none;" xml:space="preserve">3: 新增行程</text>
    </g>
    <g style="text-rendering:geometricPrecision; font-size:14; font-family:&apos;標楷體&apos;;" transform="translate(149,460)">
      <text x="10" y="16" style="clip-path:url(#clipPath33); stroke:none;" xml:space="preserve">7: 修改行程</text>
    </g>
    <g style="text-rendering:geometricPrecision; font-size:14; font-family:&apos;標楷體&apos;;" transform="translate(149,320)">
      <text x="10" y="16" style="clip-path:url(#clipPath33); stroke:none;" xml:space="preserve">5: 刪除行程</text>
    </g>
    <g style="text-rendering:geometricPrecision; font-size:14; font-family:&apos;標楷體&apos;;" transform="translate(149,80)">
      <text x="10" y="16" style="clip-path:url(#clipPath33); stroke:none;" xml:space="preserve">1: 瀏覽行程</text>
    </g>
    <g style="fill:rgb(120,120,120); text-rendering:geometricPrecision; font-size:10; stroke:rgb(120,120,120);">
    </g>
  </g>
</svg>
