<?xml version="1.0" encoding="UTF-8"?>

<!DOCTYPE svg PUBLIC '-//W3C//DTD SVG 1.0//EN' 'http://www.w3.org/TR/2001/REC-SVG-20010904/DTD/svg10.dtd'>
<svg style="fill-opacity:1; color-rendering:auto; color-interpolation:auto; stroke:black; text-rendering:auto; stroke-linecap:square; stroke-miterlimit:10; stroke-opacity:1; shape-rendering:auto; fill:black; stroke-dasharray:none; font-weight:normal; stroke-width:1; font-family:&apos;Dialog&apos;; font-style:normal; stroke-linejoin:miter; font-size:12; stroke-dashoffset:0; image-rendering:auto;" xmlns="http://www.w3.org/2000/svg" width="196" xmlns:xlink="http://www.w3.org/1999/xlink" height="464">
  <!--Generated by the Batik Graphics2D SVG Generator-->
  <defs id="genericDefs" />
  <g>
    <defs id="defs1">
      <clipPath clipPathUnits="userSpaceOnUse" id="clipPath1">
        <path d="M-3 -3 L117 -3 L117 47 L-3 47 L-3 -3 Z" />
      </clipPath>
      <clipPath clipPathUnits="userSpaceOnUse" id="clipPath2">
        <path d="M0 0 L110 0 L110 40 L0 40 L0 0 Z" />
      </clipPath>
      <clipPath clipPathUnits="userSpaceOnUse" id="clipPath3">
        <path d="M-3 -3 L157 -3 L157 47 L-3 47 L-3 -3 Z" />
      </clipPath>
      <clipPath clipPathUnits="userSpaceOnUse" id="clipPath4">
        <path d="M0 0 L150 0 L150 40 L0 40 L0 0 Z" />
      </clipPath>
      <clipPath clipPathUnits="userSpaceOnUse" id="clipPath5">
        <path d="M-3 -3 L27 -3 L27 47 L-3 47 L-3 -3 Z" />
      </clipPath>
      <clipPath clipPathUnits="userSpaceOnUse" id="clipPath6">
        <path d="M-3 -3 L147 -3 L147 57 L-3 57 L-3 -3 Z" />
      </clipPath>
      <clipPath clipPathUnits="userSpaceOnUse" id="clipPath7">
        <path d="M0 0 L140 0 L140 50 L0 50 L0 0 Z" />
      </clipPath>
      <clipPath clipPathUnits="userSpaceOnUse" id="clipPath8">
        <path d="M-3 -3 L107 -3 L107 57 L-3 57 L-3 -3 Z" />
      </clipPath>
      <clipPath clipPathUnits="userSpaceOnUse" id="clipPath9">
        <path d="M0 0 L100 0 L100 50 L0 50 L0 0 Z" />
      </clipPath>
      <clipPath clipPathUnits="userSpaceOnUse" id="clipPath10">
        <path d="M-3 -3 L27 -3 L27 27 L-3 27 L-3 -3 Z" />
      </clipPath>
      <clipPath clipPathUnits="userSpaceOnUse" id="clipPath11">
        <path d="M-3 -3 L47 -3 L47 27 L-3 27 L-3 -3 Z" />
      </clipPath>
      <clipPath clipPathUnits="userSpaceOnUse" id="clipPath12">
        <path d="M0 0 L104 0 L104 135 L0 135 L0 0 Z" />
      </clipPath>
      <clipPath clipPathUnits="userSpaceOnUse" id="clipPath13">
        <path d="M0 0 L104 0 L104 133 L0 133 L0 0 Z" />
      </clipPath>
      <clipPath clipPathUnits="userSpaceOnUse" id="clipPath14">
        <path d="M0 0 L104 0 L104 123 L0 123 L0 0 Z" />
      </clipPath>
      <clipPath clipPathUnits="userSpaceOnUse" id="clipPath15">
        <path d="M0 0 L104 0 L104 143 L0 143 L0 0 Z" />
      </clipPath>
      <clipPath clipPathUnits="userSpaceOnUse" id="clipPath16">
        <path d="M0 0 L198 0 L198 234 L0 234 L0 0 Z" />
      </clipPath>
      <clipPath clipPathUnits="userSpaceOnUse" id="clipPath17">
        <path d="M0 0 L104 0 L104 136 L0 136 L0 0 Z" />
      </clipPath>
      <clipPath clipPathUnits="userSpaceOnUse" id="clipPath18">
        <path d="M0 0 L104 0 L104 125 L0 125 L0 0 Z" />
      </clipPath>
      <clipPath clipPathUnits="userSpaceOnUse" id="clipPath19">
        <path d="M0 0 L90 0 L90 18 L0 18 L0 0 Z" />
      </clipPath>
    </defs>
    <g style="fill:white; text-rendering:geometricPrecision; stroke:white;">
      <rect x="0" y="0" width="196" style="stroke:none;" height="464" />
    </g>
    <g transform="translate(42,40)" style="font-size:14; fill:rgb(122,207,245); text-rendering:geometricPrecision; font-family:&apos;標楷體&apos;; stroke:rgb(122,207,245);">
      <rect x="1" y="1" width="108" style="clip-path:url(#clipPath1); stroke:none;" rx="15" ry="15" height="38" />
    </g>
    <g transform="translate(42,40)" style="font-size:14; stroke-linecap:butt; text-rendering:geometricPrecision; font-family:&apos;標楷體&apos;; stroke-linejoin:round; stroke-miterlimit:0;">
      <rect x="1" y="1" width="108" style="clip-path:url(#clipPath1); fill:none;" rx="15" ry="15" height="38" />
    </g>
    <g style="text-rendering:geometricPrecision; font-size:14; font-family:&apos;標楷體&apos;;" transform="translate(42,40)">
      <text x="13" y="27" style="clip-path:url(#clipPath2); stroke:none;" xml:space="preserve">登入(管理者)</text>
    </g>
    <g transform="translate(22,110)" style="font-size:14; fill:rgb(122,207,245); text-rendering:geometricPrecision; font-family:&apos;標楷體&apos;; stroke:rgb(122,207,245);">
      <rect x="1" y="1" width="148" style="clip-path:url(#clipPath3); stroke:none;" rx="15" ry="15" height="38" />
    </g>
    <g transform="translate(22,110)" style="font-size:14; stroke-linecap:butt; text-rendering:geometricPrecision; font-family:&apos;標楷體&apos;; stroke-linejoin:round; stroke-miterlimit:0;">
      <rect x="1" y="1" width="148" style="clip-path:url(#clipPath3); fill:none;" rx="15" ry="15" height="38" />
    </g>
    <g style="text-rendering:geometricPrecision; font-size:14; font-family:&apos;標楷體&apos;;" transform="translate(22,110)">
      <text x="33" y="27" style="clip-path:url(#clipPath4); stroke:none;" xml:space="preserve">新增領養機構</text>
    </g>
    <g transform="translate(82,170)" style="font-size:11; fill:rgb(122,207,245); text-rendering:geometricPrecision; font-family:sans-serif; stroke:rgb(122,207,245);">
      <polygon style="clip-path:url(#clipPath5); stroke:none;" points=" 10 7 17 20 10 32 3 20" />
    </g>
    <g transform="translate(82,170)" style="font-size:11; stroke-linecap:butt; text-rendering:geometricPrecision; font-family:sans-serif; stroke-linejoin:round; stroke-miterlimit:0;">
      <polygon style="fill:none; clip-path:url(#clipPath5);" points=" 10 7 17 20 10 32 3 20" />
    </g>
    <g transform="translate(22,220)" style="font-size:14; fill:rgb(122,207,245); text-rendering:geometricPrecision; font-family:&apos;標楷體&apos;; stroke:rgb(122,207,245);">
      <rect x="1" y="1" width="138" style="clip-path:url(#clipPath6); stroke:none;" rx="15" ry="15" height="48" />
    </g>
    <g transform="translate(22,220)" style="font-size:14; stroke-linecap:butt; text-rendering:geometricPrecision; font-family:&apos;標楷體&apos;; stroke-linejoin:round; stroke-miterlimit:0;">
      <rect x="1" y="1" width="138" style="clip-path:url(#clipPath6); fill:none;" rx="15" ry="15" height="48" />
    </g>
    <g style="text-rendering:geometricPrecision; font-size:14; font-family:&apos;標楷體&apos;;" transform="translate(22,220)">
      <text x="28" y="32" style="clip-path:url(#clipPath7); stroke:none;" xml:space="preserve">輸入領養資訊</text>
    </g>
    <g transform="translate(82,300)" style="font-size:11; fill:rgb(122,207,245); text-rendering:geometricPrecision; font-family:sans-serif; stroke:rgb(122,207,245);">
      <polygon style="clip-path:url(#clipPath5); stroke:none;" points=" 10 7 17 20 10 32 3 20" />
    </g>
    <g transform="translate(82,300)" style="font-size:11; stroke-linecap:butt; text-rendering:geometricPrecision; font-family:sans-serif; stroke-linejoin:round; stroke-miterlimit:0;">
      <polygon style="fill:none; clip-path:url(#clipPath5);" points=" 10 7 17 20 10 32 3 20" />
    </g>
    <g transform="translate(42,360)" style="font-size:14; fill:rgb(122,207,245); text-rendering:geometricPrecision; font-family:&apos;標楷體&apos;; stroke:rgb(122,207,245);">
      <rect x="1" y="1" width="98" style="clip-path:url(#clipPath8); stroke:none;" rx="15" ry="15" height="48" />
    </g>
    <g transform="translate(42,360)" style="font-size:14; stroke-linecap:butt; text-rendering:geometricPrecision; font-family:&apos;標楷體&apos;; stroke-linejoin:round; stroke-miterlimit:0;">
      <rect x="1" y="1" width="98" style="clip-path:url(#clipPath8); fill:none;" rx="15" ry="15" height="48" />
    </g>
    <g style="text-rendering:geometricPrecision; font-size:14; font-family:&apos;標楷體&apos;;" transform="translate(42,360)">
      <text x="22" y="32" style="clip-path:url(#clipPath9); stroke:none;" xml:space="preserve">系統儲存</text>
    </g>
    <g style="text-rendering:geometricPrecision; font-size:11; font-family:sans-serif;" transform="translate(82,440)">
      <circle style="clip-path:url(#clipPath10); stroke:none;" r="6.6667" cx="10" cy="10" />
      <circle style="stroke-linecap:butt; clip-path:url(#clipPath10); fill:none; stroke-linejoin:round; stroke-miterlimit:0;" r="10" cx="10" cy="10" />
    </g>
    <g style="text-rendering:geometricPrecision; font-size:11; font-family:sans-serif;" transform="translate(72,0)">
      <circle style="clip-path:url(#clipPath11); stroke:none;" r="10" cx="20" cy="10" />
    </g>
    <g transform="translate(42,29)" style="font-size:11; stroke-linecap:butt; text-rendering:geometricPrecision; font-family:sans-serif; stroke-linejoin:round;">
      <line x1="50" x2="50" y1="50" style="clip-path:url(#clipPath12); fill:none;" y2="81" />
      <line x1="50" x2="56" y1="81" style="clip-path:url(#clipPath12); fill:none;" y2="69" />
      <line x1="50" x2="44" y1="81" style="clip-path:url(#clipPath12); fill:none;" y2="69" />
    </g>
    <g transform="translate(42,99)" style="font-size:11; stroke-linecap:butt; text-rendering:geometricPrecision; font-family:sans-serif; stroke-linejoin:round;">
      <line x1="50" x2="50" y1="50" style="clip-path:url(#clipPath13); fill:none;" y2="79" />
      <line x1="50" x2="56" y1="79" style="clip-path:url(#clipPath13); fill:none;" y2="67" />
      <line x1="50" x2="44" y1="79" style="clip-path:url(#clipPath13); fill:none;" y2="67" />
    </g>
    <g transform="translate(42,151)" style="font-size:11; stroke-linecap:butt; text-rendering:geometricPrecision; font-family:sans-serif; stroke-linejoin:round;">
      <line x1="50" x2="50" y1="50" style="clip-path:url(#clipPath14); fill:none;" y2="69" />
      <line x1="50" x2="56" y1="69" style="clip-path:url(#clipPath14); fill:none;" y2="57" />
      <line x1="50" x2="44" y1="69" style="clip-path:url(#clipPath14); fill:none;" y2="57" />
    </g>
    <g transform="translate(42,219)" style="font-size:11; stroke-linecap:butt; text-rendering:geometricPrecision; font-family:sans-serif; stroke-linejoin:round;">
      <line x1="50" x2="50" y1="50" style="clip-path:url(#clipPath15); fill:none;" y2="89" />
      <line x1="50" x2="56" y1="89" style="clip-path:url(#clipPath15); fill:none;" y2="77" />
      <line x1="50" x2="44" y1="89" style="clip-path:url(#clipPath15); fill:none;" y2="77" />
    </g>
    <g transform="translate(48,140)" style="font-size:14; stroke-linecap:butt; text-rendering:geometricPrecision; font-family:&apos;標楷體&apos;; stroke-linejoin:round;">
      <line x1="50" x2="144" y1="180" style="clip-path:url(#clipPath16); fill:none;" y2="180" />
      <line x1="144" x2="144" y1="180" style="clip-path:url(#clipPath16); fill:none;" y2="50" />
      <line x1="144" x2="50" y1="50" style="clip-path:url(#clipPath16); fill:none;" y2="50" />
      <line x1="50" x2="62" y1="50" style="clip-path:url(#clipPath16); fill:none;" y2="56" />
      <line x1="50" x2="62" y1="50" style="clip-path:url(#clipPath16); fill:none;" y2="44" />
    </g>
    <g transform="translate(42,281)" style="font-size:14; stroke-linecap:butt; text-rendering:geometricPrecision; font-family:&apos;標楷體&apos;; stroke-linejoin:round;">
      <line x1="50" x2="50" y1="50" style="clip-path:url(#clipPath13); fill:none;" y2="79" />
      <line x1="50" x2="56" y1="79" style="clip-path:url(#clipPath13); fill:none;" y2="67" />
      <line x1="50" x2="44" y1="79" style="clip-path:url(#clipPath13); fill:none;" y2="67" />
    </g>
    <g transform="translate(42,359)" style="font-size:11; stroke-linecap:butt; text-rendering:geometricPrecision; font-family:sans-serif; stroke-linejoin:round;">
      <line x1="50" x2="50" y1="50" style="clip-path:url(#clipPath17); fill:none;" y2="82" />
      <line x1="50" x2="56" y1="82" style="clip-path:url(#clipPath17); fill:none;" y2="70" />
      <line x1="50" x2="44" y1="82" style="clip-path:url(#clipPath17); fill:none;" y2="70" />
    </g>
    <g transform="translate(42,-31)" style="font-size:11; stroke-linecap:butt; text-rendering:geometricPrecision; font-family:sans-serif; stroke-linejoin:round;">
      <line x1="50" x2="50" y1="50" style="clip-path:url(#clipPath18); fill:none;" y2="71" />
      <line x1="50" x2="56" y1="71" style="clip-path:url(#clipPath18); fill:none;" y2="59" />
      <line x1="50" x2="44" y1="71" style="clip-path:url(#clipPath18); fill:none;" y2="59" />
    </g>
    <g style="text-rendering:geometricPrecision; font-size:14; font-family:&apos;標楷體&apos;;" transform="translate(2,330)">
      <text x="10" y="16" style="clip-path:url(#clipPath19); stroke:none;" xml:space="preserve">[新增成功]</text>
    </g>
    <g style="text-rendering:geometricPrecision; font-size:14; font-family:&apos;標楷體&apos;;" transform="translate(102,290)">
      <text x="10" y="16" style="clip-path:url(#clipPath19); stroke:none;" xml:space="preserve">[新增失敗]</text>
    </g>
    <g style="fill:rgb(120,120,120); text-rendering:geometricPrecision; font-size:10; stroke:rgb(120,120,120);">
    </g>
  </g>
</svg>
