<?xml version="1.0" encoding="UTF-8"?>

<!DOCTYPE svg PUBLIC '-//W3C//DTD SVG 1.0//EN' 'http://www.w3.org/TR/2001/REC-SVG-20010904/DTD/svg10.dtd'>
<svg style="fill-opacity:1; color-rendering:auto; color-interpolation:auto; stroke:black; text-rendering:auto; stroke-linecap:square; stroke-miterlimit:10; stroke-opacity:1; shape-rendering:auto; fill:black; stroke-dasharray:none; font-weight:normal; stroke-width:1; font-family:&apos;Dialog&apos;; font-style:normal; stroke-linejoin:miter; font-size:12; stroke-dashoffset:0; image-rendering:auto;" xmlns="http://www.w3.org/2000/svg" width="616" xmlns:xlink="http://www.w3.org/1999/xlink" height="309">
  <!--Generated by the Batik Graphics2D SVG Generator-->
  <defs id="genericDefs" />
  <g>
    <defs id="defs1">
      <clipPath clipPathUnits="userSpaceOnUse" id="clipPath1">
        <path d="M-3 -3 L177 -3 L177 117 L-3 117 L-3 -3 Z" />
      </clipPath>
      <clipPath clipPathUnits="userSpaceOnUse" id="clipPath2">
        <path d="M0 0 L0 100 L170 100 L170 0 Z" />
      </clipPath>
      <clipPath clipPathUnits="userSpaceOnUse" id="clipPath3">
        <path d="M0 0 L170 0 L170 17 L0 17 L0 0 Z" />
      </clipPath>
      <clipPath clipPathUnits="userSpaceOnUse" id="clipPath4">
        <path d="M-3 -3 L157 -3 L157 117 L-3 117 L-3 -3 Z" />
      </clipPath>
      <clipPath clipPathUnits="userSpaceOnUse" id="clipPath5">
        <path d="M0 0 L0 100 L150 100 L150 0 Z" />
      </clipPath>
      <clipPath clipPathUnits="userSpaceOnUse" id="clipPath6">
        <path d="M0 0 L150 0 L150 17 L0 17 L0 0 Z" />
      </clipPath>
      <clipPath clipPathUnits="userSpaceOnUse" id="clipPath7">
        <path d="M-3 -3 L157 -3 L157 87 L-3 87 L-3 -3 Z" />
      </clipPath>
      <clipPath clipPathUnits="userSpaceOnUse" id="clipPath8">
        <path d="M0 0 L0 70 L150 70 L150 0 Z" />
      </clipPath>
      <clipPath clipPathUnits="userSpaceOnUse" id="clipPath9">
        <path d="M-3 -3 L177 -3 L177 67 L-3 67 L-3 -3 Z" />
      </clipPath>
      <clipPath clipPathUnits="userSpaceOnUse" id="clipPath10">
        <path d="M0 0 L0 50 L170 50 L170 0 Z" />
      </clipPath>
      <clipPath clipPathUnits="userSpaceOnUse" id="clipPath11">
        <path d="M-3 -3 L47 -3 L47 27 L-3 27 L-3 -3 Z" />
      </clipPath>
      <clipPath clipPathUnits="userSpaceOnUse" id="clipPath12">
        <path d="M0 0 L234 0 L234 183 L0 183 L0 0 Z" />
      </clipPath>
      <clipPath clipPathUnits="userSpaceOnUse" id="clipPath13">
        <path d="M0 0 L243 0 L243 183 L0 183 L0 0 Z" />
      </clipPath>
      <clipPath clipPathUnits="userSpaceOnUse" id="clipPath14">
        <path d="M0 0 L104 0 L104 143 L0 143 L0 0 Z" />
      </clipPath>
      <clipPath clipPathUnits="userSpaceOnUse" id="clipPath15">
        <path d="M0 0 L40 0 L40 20 L0 20 L0 0 Z" />
      </clipPath>
    </defs>
    <g style="fill:white; text-rendering:geometricPrecision; stroke:white;">
      <rect x="0" y="0" width="616" style="stroke:none;" height="309" />
      <rect x="218" y="128" transform="translate(-218,-128)" width="615" style="fill:none; stroke:black;" height="308" />
      <text x="225" y="147" transform="translate(-218,-128)" style="fill:black; stroke:none;" xml:space="preserve">calendarAnalyzeClassDiagram</text>
      <line transform="translate(-218,-128)" x1="218" x2="395" y1="154" style="fill:none; stroke:black;" y2="154" />
      <line transform="translate(-218,-128)" x1="401" x2="401" y1="128" style="fill:none; stroke:black;" y2="143" />
      <line transform="translate(-218,-128)" x1="401" x2="395" y1="143" style="fill:none; stroke:black;" y2="154" />
    </g>
    <g transform="translate(222,35)" style="font-size:14; fill:rgb(122,207,245); text-rendering:geometricPrecision; font-family:&apos;Times New Roman&apos;; stroke:rgb(122,207,245); font-weight:bold;">
      <rect x="0" y="0" width="170" style="clip-path:url(#clipPath1); stroke:none;" height="110" />
    </g>
    <g transform="translate(222,35)" style="font-size:14; stroke-linecap:butt; text-rendering:geometricPrecision; font-family:&apos;Times New Roman&apos;; stroke-linejoin:round; font-weight:bold; stroke-miterlimit:0;">
      <rect x="0" y="0" width="170" style="clip-path:url(#clipPath1); fill:none;" height="110" />
      <line x1="0" x2="170" y1="17" style="clip-path:url(#clipPath1); fill:none;" y2="17" />
    </g>
    <g style="text-rendering:geometricPrecision; font-size:14; font-family:&apos;Times New Roman&apos;;" transform="translate(222,52)">
      <text x="2" y="15" style="clip-path:url(#clipPath2); stroke:none;" xml:space="preserve">-activityID : varchar</text>
      <text x="2" y="31" style="clip-path:url(#clipPath2); stroke:none;" xml:space="preserve">-activityName : varchar</text>
      <text x="2" y="47" style="clip-path:url(#clipPath2); stroke:none;" xml:space="preserve">-activityClass : char</text>
      <text x="2" y="63" style="clip-path:url(#clipPath2); stroke:none;" xml:space="preserve">-reapt : int</text>
      <text x="2" y="79" style="clip-path:url(#clipPath2); stroke:none;" xml:space="preserve">-note : varchar</text>
    </g>
    <g transform="translate(222,35)" style="text-rendering:geometricPrecision; font-size:14; font-weight:bold; font-family:&apos;Times New Roman&apos;;">
      <text x="58" y="14" style="clip-path:url(#clipPath3); stroke:none;" xml:space="preserve">calendar</text>
    </g>
    <g transform="translate(452,185)" style="font-size:14; fill:rgb(122,207,245); text-rendering:geometricPrecision; font-family:&apos;Times New Roman&apos;; stroke:rgb(122,207,245); font-weight:bold;">
      <rect x="0" y="0" width="150" style="clip-path:url(#clipPath4); stroke:none;" height="110" />
    </g>
    <g transform="translate(452,185)" style="font-size:14; stroke-linecap:butt; text-rendering:geometricPrecision; font-family:&apos;Times New Roman&apos;; stroke-linejoin:round; font-weight:bold; stroke-miterlimit:0;">
      <rect x="0" y="0" width="150" style="clip-path:url(#clipPath4); fill:none;" height="110" />
      <line x1="0" x2="150" y1="17" style="clip-path:url(#clipPath4); fill:none;" y2="17" />
    </g>
    <g style="text-rendering:geometricPrecision; font-size:14; font-family:&apos;Times New Roman&apos;;" transform="translate(452,202)">
      <text x="2" y="15" style="clip-path:url(#clipPath5); stroke:none;" xml:space="preserve">-activityID : varchar</text>
      <text x="2" y="31" style="clip-path:url(#clipPath5); stroke:none;" xml:space="preserve">-current : timestamp</text>
      <text x="2" y="47" style="clip-path:url(#clipPath5); stroke:none;" xml:space="preserve">-terminalTime : date</text>
      <text x="2" y="63" style="clip-path:url(#clipPath5); stroke:none;" xml:space="preserve">-remind : char</text>
      <text x="2" y="79" style="clip-path:url(#clipPath5); stroke:none;" xml:space="preserve">-countDown : int</text>
    </g>
    <g transform="translate(452,185)" style="text-rendering:geometricPrecision; font-size:14; font-weight:bold; font-family:&apos;Times New Roman&apos;;">
      <text x="58" y="14" style="clip-path:url(#clipPath6); stroke:none;" xml:space="preserve">timer</text>
    </g>
    <g transform="translate(12,185)" style="font-size:14; fill:rgb(122,207,245); text-rendering:geometricPrecision; font-family:&apos;Times New Roman&apos;; stroke:rgb(122,207,245); font-weight:bold;">
      <rect x="0" y="0" width="150" style="clip-path:url(#clipPath7); stroke:none;" height="80" />
    </g>
    <g transform="translate(12,185)" style="font-size:14; stroke-linecap:butt; text-rendering:geometricPrecision; font-family:&apos;Times New Roman&apos;; stroke-linejoin:round; font-weight:bold; stroke-miterlimit:0;">
      <rect x="0" y="0" width="150" style="clip-path:url(#clipPath7); fill:none;" height="80" />
      <line x1="0" x2="150" y1="17" style="clip-path:url(#clipPath7); fill:none;" y2="17" />
    </g>
    <g style="text-rendering:geometricPrecision; font-size:14; font-family:&apos;Times New Roman&apos;;" transform="translate(12,202)">
      <text x="2" y="15" style="clip-path:url(#clipPath8); stroke:none;" xml:space="preserve">-activityID : varchar</text>
      <text x="2" y="31" style="clip-path:url(#clipPath8); stroke:none;" xml:space="preserve">-startingTime : date</text>
      <text x="2" y="47" style="clip-path:url(#clipPath8); stroke:none;" xml:space="preserve">-termicalTime : date</text>
    </g>
    <g transform="translate(12,185)" style="text-rendering:geometricPrecision; font-size:14; font-weight:bold; font-family:&apos;Times New Roman&apos;;">
      <text x="41" y="14" style="clip-path:url(#clipPath6); stroke:none;" xml:space="preserve">timeStamp</text>
    </g>
    <g transform="translate(222,185)" style="font-size:14; fill:rgb(122,207,245); text-rendering:geometricPrecision; font-family:&apos;Times New Roman&apos;; stroke:rgb(122,207,245); font-weight:bold;">
      <rect x="0" y="0" width="170" style="clip-path:url(#clipPath9); stroke:none;" height="60" />
    </g>
    <g transform="translate(222,185)" style="font-size:14; stroke-linecap:butt; text-rendering:geometricPrecision; font-family:&apos;Times New Roman&apos;; stroke-linejoin:round; font-weight:bold; stroke-miterlimit:0;">
      <rect x="0" y="0" width="170" style="clip-path:url(#clipPath9); fill:none;" height="60" />
      <line x1="0" x2="170" y1="17" style="clip-path:url(#clipPath9); fill:none;" y2="17" />
    </g>
    <g transform="translate(222,202)" style="font-size:14; stroke-linecap:butt; text-rendering:geometricPrecision; font-family:&apos;Times New Roman&apos;; stroke-linejoin:round; stroke-miterlimit:0;">
      <text x="2" y="15" style="clip-path:url(#clipPath10); stroke:none;" xml:space="preserve">-activityClass : varchar</text>
      <text x="2" y="31" style="clip-path:url(#clipPath10); stroke:none;" xml:space="preserve">-activityClassName : varchar</text>
    </g>
    <g transform="translate(222,185)" style="font-size:14; stroke-linecap:butt; text-rendering:geometricPrecision; font-family:&apos;Times New Roman&apos;; stroke-linejoin:round; font-weight:bold; stroke-miterlimit:0;">
      <text x="62" y="14" style="clip-path:url(#clipPath3); stroke:none;" xml:space="preserve">activity</text>
    </g>
    <g transform="translate(342,55)" style="font-size:11; stroke-linecap:butt; text-rendering:geometricPrecision; font-family:sans-serif; stroke-linejoin:round;">
      <line x1="50" x2="180" y1="50" style="clip-path:url(#clipPath12); fill:none;" y2="50" />
      <line x1="180" x2="180" y1="50" style="clip-path:url(#clipPath12); fill:none;" y2="129" />
    </g>
    <g transform="translate(32,55)" style="font-size:11; stroke-linecap:butt; text-rendering:geometricPrecision; font-family:sans-serif; stroke-linejoin:round;">
      <line x1="189" x2="50" y1="50" style="clip-path:url(#clipPath13); fill:none;" y2="50" />
      <line x1="50" x2="50" y1="50" style="clip-path:url(#clipPath13); fill:none;" y2="129" />
    </g>
    <g transform="translate(262,95)" style="font-size:11; stroke-linecap:butt; text-rendering:geometricPrecision; font-family:sans-serif; stroke-linejoin:round;">
      <line x1="50" x2="50" y1="50" style="clip-path:url(#clipPath14); fill:none;" y2="89" />
    </g>
    <g style="text-rendering:geometricPrecision; font-size:11; font-family:sans-serif;" transform="translate(522,165)">
      <text x="11" y="15" style="clip-path:url(#clipPath15); stroke:none;" xml:space="preserve">1..*</text>
    </g>
    <g style="text-rendering:geometricPrecision; font-size:11; font-family:sans-serif;" transform="translate(392,85)">
      <text x="17" y="15" style="clip-path:url(#clipPath15); stroke:none;" xml:space="preserve">1</text>
    </g>
    <g style="text-rendering:geometricPrecision; font-size:11; font-family:sans-serif;" transform="translate(42,165)">
      <text x="11" y="15" style="clip-path:url(#clipPath15); stroke:none;" xml:space="preserve">1..*</text>
    </g>
    <g style="text-rendering:geometricPrecision; font-size:11; font-family:sans-serif;" transform="translate(182,85)">
      <text x="17" y="15" style="clip-path:url(#clipPath15); stroke:none;" xml:space="preserve">1</text>
    </g>
    <g style="fill:rgb(120,120,120); text-rendering:geometricPrecision; font-size:10; stroke:rgb(120,120,120);">
    </g>
  </g>
</svg>
