<?xml version="1.0" encoding="UTF-8"?>

<!DOCTYPE svg PUBLIC '-//W3C//DTD SVG 1.0//EN' 'http://www.w3.org/TR/2001/REC-SVG-20010904/DTD/svg10.dtd'>
<svg style="fill-opacity:1; color-rendering:auto; color-interpolation:auto; stroke:black; text-rendering:auto; stroke-linecap:square; stroke-miterlimit:10; stroke-opacity:1; shape-rendering:auto; fill:black; stroke-dasharray:none; font-weight:normal; stroke-width:1; font-family:&apos;Dialog&apos;; font-style:normal; stroke-linejoin:miter; font-size:12; stroke-dashoffset:0; image-rendering:auto;" xmlns="http://www.w3.org/2000/svg" width="874" xmlns:xlink="http://www.w3.org/1999/xlink" height="456">
  <!--Generated by the Batik Graphics2D SVG Generator-->
  <defs id="genericDefs" />
  <g>
    <defs id="defs1">
      <clipPath clipPathUnits="userSpaceOnUse" id="clipPath1">
        <path d="M-3 -3 L877 -3 L877 457 L-3 457 L-3 -3 Z" />
      </clipPath>
      <clipPath clipPathUnits="userSpaceOnUse" id="clipPath2">
        <path d="M0 0 L0 439 L7 439 L7 0 Z" />
      </clipPath>
      <clipPath clipPathUnits="userSpaceOnUse" id="clipPath3">
        <path d="M-3 -3 L167 -3 L167 25 L-3 25 L-3 -3 Z" />
      </clipPath>
      <clipPath clipPathUnits="userSpaceOnUse" id="clipPath4">
        <path d="M0 0 L160 0 L160 18 L0 18 L0 0 Z" />
      </clipPath>
      <clipPath clipPathUnits="userSpaceOnUse" id="clipPath5">
        <path d="M-3 -3 L167 -3 L167 439 L-3 439 L-3 -3 Z" />
      </clipPath>
      <clipPath clipPathUnits="userSpaceOnUse" id="clipPath6">
        <path d="M-3 -3 L507 -3 L507 25 L-3 25 L-3 -3 Z" />
      </clipPath>
      <clipPath clipPathUnits="userSpaceOnUse" id="clipPath7">
        <path d="M0 0 L500 0 L500 18 L0 18 L0 0 Z" />
      </clipPath>
      <clipPath clipPathUnits="userSpaceOnUse" id="clipPath8">
        <path d="M-3 -3 L507 -3 L507 439 L-3 439 L-3 -3 Z" />
      </clipPath>
      <clipPath clipPathUnits="userSpaceOnUse" id="clipPath9">
        <path d="M-3 -3 L217 -3 L217 25 L-3 25 L-3 -3 Z" />
      </clipPath>
      <clipPath clipPathUnits="userSpaceOnUse" id="clipPath10">
        <path d="M0 0 L210 0 L210 18 L0 18 L0 0 Z" />
      </clipPath>
      <clipPath clipPathUnits="userSpaceOnUse" id="clipPath11">
        <path d="M-3 -3 L217 -3 L217 439 L-3 439 L-3 -3 Z" />
      </clipPath>
      <clipPath clipPathUnits="userSpaceOnUse" id="clipPath12">
        <path d="M-3 -3 L47 -3 L47 27 L-3 27 L-3 -3 Z" />
      </clipPath>
      <clipPath clipPathUnits="userSpaceOnUse" id="clipPath13">
        <path d="M-3 -3 L27 -3 L27 47 L-3 47 L-3 -3 Z" />
      </clipPath>
      <clipPath clipPathUnits="userSpaceOnUse" id="clipPath14">
        <path d="M-3 -3 L117 -3 L117 67 L-3 67 L-3 -3 Z" />
      </clipPath>
      <clipPath clipPathUnits="userSpaceOnUse" id="clipPath15">
        <path d="M0 0 L110 0 L110 60 L0 60 L0 0 Z" />
      </clipPath>
      <clipPath clipPathUnits="userSpaceOnUse" id="clipPath16">
        <path d="M-3 -3 L127 -3 L127 57 L-3 57 L-3 -3 Z" />
      </clipPath>
      <clipPath clipPathUnits="userSpaceOnUse" id="clipPath17">
        <path d="M0 0 L120 0 L120 50 L0 50 L0 0 Z" />
      </clipPath>
      <clipPath clipPathUnits="userSpaceOnUse" id="clipPath18">
        <path d="M-3 -3 L27 -3 L27 27 L-3 27 L-3 -3 Z" />
      </clipPath>
      <clipPath clipPathUnits="userSpaceOnUse" id="clipPath19">
        <path d="M-3 -3 L117 -3 L117 57 L-3 57 L-3 -3 Z" />
      </clipPath>
      <clipPath clipPathUnits="userSpaceOnUse" id="clipPath20">
        <path d="M0 0 L110 0 L110 50 L0 50 L0 0 Z" />
      </clipPath>
      <clipPath clipPathUnits="userSpaceOnUse" id="clipPath21">
        <path d="M0 0 L210 0 L210 432 L0 432 L0 0 Z" />
      </clipPath>
      <clipPath clipPathUnits="userSpaceOnUse" id="clipPath22">
        <path d="M0 0 L500 0 L500 432 L0 432 L0 0 Z" />
      </clipPath>
      <clipPath clipPathUnits="userSpaceOnUse" id="clipPath23">
        <path d="M0 0 L160 0 L160 432 L0 432 L0 0 Z" />
      </clipPath>
      <clipPath clipPathUnits="userSpaceOnUse" id="clipPath24">
        <path d="M0 0 L104 0 L104 153 L0 153 L0 0 Z" />
      </clipPath>
      <clipPath clipPathUnits="userSpaceOnUse" id="clipPath25">
        <path d="M0 0 L138 0 L138 104 L0 104 L0 0 Z" />
      </clipPath>
      <clipPath clipPathUnits="userSpaceOnUse" id="clipPath26">
        <path d="M0 0 L158 0 L158 163 L0 163 L0 0 Z" />
      </clipPath>
      <clipPath clipPathUnits="userSpaceOnUse" id="clipPath27">
        <path d="M0 0 L539 0 L539 249 L0 249 L0 0 Z" />
      </clipPath>
      <clipPath clipPathUnits="userSpaceOnUse" id="clipPath28">
        <path d="M0 0 L158 0 L158 162 L0 162 L0 0 Z" />
      </clipPath>
      <clipPath clipPathUnits="userSpaceOnUse" id="clipPath29">
        <path d="M0 0 L539 0 L539 210 L0 210 L0 0 Z" />
      </clipPath>
      <clipPath clipPathUnits="userSpaceOnUse" id="clipPath30">
        <path d="M0 0 L174 0 L174 152 L0 152 L0 0 Z" />
      </clipPath>
      <clipPath clipPathUnits="userSpaceOnUse" id="clipPath31">
        <path d="M0 0 L174 0 L174 163 L0 163 L0 0 Z" />
      </clipPath>
      <clipPath clipPathUnits="userSpaceOnUse" id="clipPath32">
        <path d="M0 0 L159 0 L159 104 L0 104 L0 0 Z" />
      </clipPath>
      <clipPath clipPathUnits="userSpaceOnUse" id="clipPath33">
        <path d="M0 0 L800 0 L800 308 L0 308 L0 0 Z" />
      </clipPath>
      <clipPath clipPathUnits="userSpaceOnUse" id="clipPath34">
        <path d="M0 0 L148 0 L148 104 L0 104 L0 0 Z" />
      </clipPath>
      <clipPath clipPathUnits="userSpaceOnUse" id="clipPath35">
        <path d="M0 0 L158 0 L158 104 L0 104 L0 0 Z" />
      </clipPath>
      <clipPath clipPathUnits="userSpaceOnUse" id="clipPath36">
        <path d="M0 0 L90 0 L90 18 L0 18 L0 0 Z" />
      </clipPath>
      <clipPath clipPathUnits="userSpaceOnUse" id="clipPath37">
        <path d="M0 0 L118 0 L118 18 L0 18 L0 0 Z" />
      </clipPath>
    </defs>
    <g style="fill:white; text-rendering:geometricPrecision; stroke:white;">
      <rect x="0" y="0" width="874" style="stroke:none;" height="456" />
    </g>
    <g transform="translate(0,2)" style="text-rendering:geometricPrecision; stroke-width:2; font-size:14; font-family:&apos;標楷體&apos;;">
      <rect x="0" y="0" width="160" style="clip-path:url(#clipPath3); fill:none;" height="18" />
    </g>
    <g style="text-rendering:geometricPrecision; font-size:14; font-family:&apos;標楷體&apos;;" transform="translate(0,2)">
      <text x="66" y="16" style="clip-path:url(#clipPath4); stroke:none;" xml:space="preserve">會員</text>
    </g>
    <g transform="translate(0,20)" style="text-rendering:geometricPrecision; stroke-width:2; font-size:11; font-family:sans-serif;">
      <rect x="0" y="0" width="160" style="clip-path:url(#clipPath5); fill:none;" height="432" />
    </g>
    <g transform="translate(160,2)" style="text-rendering:geometricPrecision; stroke-width:2; font-size:14; font-family:&apos;標楷體&apos;;">
      <rect x="0" y="0" width="500" style="clip-path:url(#clipPath6); fill:none;" height="18" />
    </g>
    <g style="text-rendering:geometricPrecision; font-size:14; font-family:&apos;標楷體&apos;;" transform="translate(160,2)">
      <text x="222" y="16" style="clip-path:url(#clipPath7); stroke:none;" xml:space="preserve">會員專區</text>
    </g>
    <g transform="translate(160,20)" style="text-rendering:geometricPrecision; stroke-width:2; font-size:11; font-family:sans-serif;">
      <rect x="0" y="0" width="500" style="clip-path:url(#clipPath8); fill:none;" height="432" />
    </g>
    <g transform="translate(660,2)" style="text-rendering:geometricPrecision; stroke-width:2; font-size:14; font-family:&apos;標楷體&apos;;">
      <rect x="0" y="0" width="210" style="clip-path:url(#clipPath9); fill:none;" height="18" />
    </g>
    <g style="text-rendering:geometricPrecision; font-size:14; font-family:&apos;標楷體&apos;;" transform="translate(660,2)">
      <text x="84" y="16" style="clip-path:url(#clipPath10); stroke:none;" xml:space="preserve">資料庫</text>
    </g>
    <g transform="translate(660,20)" style="text-rendering:geometricPrecision; stroke-width:2; font-size:11; font-family:sans-serif;">
      <rect x="0" y="0" width="210" style="clip-path:url(#clipPath11); fill:none;" height="432" />
    </g>
    <g style="text-rendering:geometricPrecision; font-size:11; font-family:sans-serif;" transform="translate(50,82)">
      <circle style="clip-path:url(#clipPath12); stroke:none;" r="10" cx="20" cy="10" />
    </g>
    <g transform="translate(60,142)" style="font-size:11; fill:rgb(122,207,245); text-rendering:geometricPrecision; font-family:sans-serif; stroke:rgb(122,207,245);">
      <polygon style="clip-path:url(#clipPath13); stroke:none;" points=" 10 7 17 20 10 32 3 20" />
    </g>
    <g transform="translate(60,142)" style="font-size:11; stroke-linecap:butt; text-rendering:geometricPrecision; font-family:sans-serif; stroke-linejoin:round; stroke-miterlimit:0;">
      <polygon style="fill:none; clip-path:url(#clipPath13);" points=" 10 7 17 20 10 32 3 20" />
    </g>
    <g transform="translate(280,152)" style="font-size:11; fill:rgb(122,207,245); text-rendering:geometricPrecision; font-family:sans-serif; stroke:rgb(122,207,245);">
      <polygon style="clip-path:url(#clipPath13); stroke:none;" points=" 10 7 17 20 10 32 3 20" />
    </g>
    <g transform="translate(280,152)" style="font-size:11; stroke-linecap:butt; text-rendering:geometricPrecision; font-family:sans-serif; stroke-linejoin:round; stroke-miterlimit:0;">
      <polygon style="fill:none; clip-path:url(#clipPath13);" points=" 10 7 17 20 10 32 3 20" />
    </g>
    <g transform="translate(360,82)" style="font-size:14; fill:rgb(122,207,245); text-rendering:geometricPrecision; font-family:&apos;標楷體&apos;; stroke:rgb(122,207,245);">
      <rect x="1" y="1" width="108" style="clip-path:url(#clipPath14); stroke:none;" rx="15" ry="15" height="58" />
    </g>
    <g transform="translate(360,82)" style="font-size:14; stroke-linecap:butt; text-rendering:geometricPrecision; font-family:&apos;標楷體&apos;; stroke-linejoin:round; stroke-miterlimit:0;">
      <rect x="1" y="1" width="108" style="clip-path:url(#clipPath14); fill:none;" rx="15" ry="15" height="58" />
    </g>
    <g style="text-rendering:geometricPrecision; font-size:14; font-family:&apos;標楷體&apos;;" transform="translate(360,82)">
      <text x="27" y="37" style="clip-path:url(#clipPath15); stroke:none;" xml:space="preserve">條件篩選</text>
    </g>
    <g transform="translate(360,212)" style="font-size:14; fill:rgb(122,207,245); text-rendering:geometricPrecision; font-family:&apos;標楷體&apos;; stroke:rgb(122,207,245);">
      <rect x="1" y="1" width="108" style="clip-path:url(#clipPath14); stroke:none;" rx="15" ry="15" height="58" />
    </g>
    <g transform="translate(360,212)" style="font-size:14; stroke-linecap:butt; text-rendering:geometricPrecision; font-family:&apos;標楷體&apos;; stroke-linejoin:round; stroke-miterlimit:0;">
      <rect x="1" y="1" width="108" style="clip-path:url(#clipPath14); fill:none;" rx="15" ry="15" height="58" />
    </g>
    <g style="text-rendering:geometricPrecision; font-size:14; font-family:&apos;標楷體&apos;;" transform="translate(360,212)">
      <text x="20" y="37" style="clip-path:url(#clipPath15); stroke:none;" xml:space="preserve">關鍵字查詢</text>
    </g>
    <g transform="translate(500,92)" style="font-size:11; fill:rgb(122,207,245); text-rendering:geometricPrecision; font-family:sans-serif; stroke:rgb(122,207,245);">
      <polygon style="clip-path:url(#clipPath13); stroke:none;" points=" 10 7 17 20 10 32 3 20" />
    </g>
    <g transform="translate(500,92)" style="font-size:11; stroke-linecap:butt; text-rendering:geometricPrecision; font-family:sans-serif; stroke-linejoin:round; stroke-miterlimit:0;">
      <polygon style="fill:none; clip-path:url(#clipPath13);" points=" 10 7 17 20 10 32 3 20" />
    </g>
    <g transform="translate(500,232)" style="font-size:11; fill:rgb(122,207,245); text-rendering:geometricPrecision; font-family:sans-serif; stroke:rgb(122,207,245);">
      <polygon style="clip-path:url(#clipPath13); stroke:none;" points=" 10 7 17 20 10 32 3 20" />
    </g>
    <g transform="translate(500,232)" style="font-size:11; stroke-linecap:butt; text-rendering:geometricPrecision; font-family:sans-serif; stroke-linejoin:round; stroke-miterlimit:0;">
      <polygon style="fill:none; clip-path:url(#clipPath13);" points=" 10 7 17 20 10 32 3 20" />
    </g>
    <g transform="translate(560,162)" style="font-size:11; fill:rgb(122,207,245); text-rendering:geometricPrecision; font-family:sans-serif; stroke:rgb(122,207,245);">
      <polygon style="clip-path:url(#clipPath13); stroke:none;" points=" 10 7 17 20 10 32 3 20" />
    </g>
    <g transform="translate(560,162)" style="font-size:11; stroke-linecap:butt; text-rendering:geometricPrecision; font-family:sans-serif; stroke-linejoin:round; stroke-miterlimit:0;">
      <polygon style="fill:none; clip-path:url(#clipPath13);" points=" 10 7 17 20 10 32 3 20" />
    </g>
    <g transform="translate(610,162)" style="font-size:14; fill:rgb(122,207,245); text-rendering:geometricPrecision; font-family:&apos;標楷體&apos;; stroke:rgb(122,207,245);">
      <rect x="1" y="1" width="118" style="clip-path:url(#clipPath16); stroke:none;" rx="15" ry="15" height="48" />
    </g>
    <g transform="translate(610,162)" style="font-size:14; stroke-linecap:butt; text-rendering:geometricPrecision; font-family:&apos;標楷體&apos;; stroke-linejoin:round; stroke-miterlimit:0;">
      <rect x="1" y="1" width="118" style="clip-path:url(#clipPath16); fill:none;" rx="15" ry="15" height="48" />
    </g>
    <g style="text-rendering:geometricPrecision; font-size:14; font-family:&apos;標楷體&apos;;" transform="translate(610,162)">
      <text x="18" y="32" style="clip-path:url(#clipPath17); stroke:none;" xml:space="preserve">顯示查詢資訊</text>
    </g>
    <g transform="translate(760,172)" style="font-size:11; fill:rgb(122,207,245); text-rendering:geometricPrecision; font-family:sans-serif; stroke:rgb(122,207,245);">
      <polygon style="clip-path:url(#clipPath13); stroke:none;" points=" 10 7 17 20 10 32 3 20" />
    </g>
    <g transform="translate(760,172)" style="font-size:11; stroke-linecap:butt; text-rendering:geometricPrecision; font-family:sans-serif; stroke-linejoin:round; stroke-miterlimit:0;">
      <polygon style="fill:none; clip-path:url(#clipPath13);" points=" 10 7 17 20 10 32 3 20" />
    </g>
    <g style="text-rendering:geometricPrecision; font-size:11; font-family:sans-serif;" transform="translate(830,182)">
      <circle style="clip-path:url(#clipPath18); stroke:none;" r="6.6667" cx="10" cy="10" />
      <circle style="stroke-linecap:butt; clip-path:url(#clipPath18); fill:none; stroke-linejoin:round; stroke-miterlimit:0;" r="10" cx="10" cy="10" />
    </g>
    <g transform="translate(120,142)" style="font-size:14; fill:rgb(122,207,245); text-rendering:geometricPrecision; font-family:&apos;標楷體&apos;; stroke:rgb(122,207,245);">
      <rect x="1" y="1" width="108" style="clip-path:url(#clipPath19); stroke:none;" rx="15" ry="15" height="48" />
    </g>
    <g transform="translate(120,142)" style="font-size:14; stroke-linecap:butt; text-rendering:geometricPrecision; font-family:&apos;標楷體&apos;; stroke-linejoin:round; stroke-miterlimit:0;">
      <rect x="1" y="1" width="108" style="clip-path:url(#clipPath19); fill:none;" rx="15" ry="15" height="48" />
    </g>
    <g style="text-rendering:geometricPrecision; font-size:14; font-family:&apos;標楷體&apos;;" transform="translate(120,142)">
      <text x="13" y="32" style="clip-path:url(#clipPath20); stroke:none;" xml:space="preserve">寵物醫院資訊</text>
    </g>
    <g transform="translate(20,51)" style="font-size:11; stroke-linecap:butt; text-rendering:geometricPrecision; font-family:sans-serif; stroke-linejoin:round;">
      <line x1="50" x2="50" y1="50" style="clip-path:url(#clipPath24); fill:none;" y2="99" />
      <line x1="50" x2="56" y1="99" style="clip-path:url(#clipPath24); fill:none;" y2="87" />
      <line x1="50" x2="44" y1="99" style="clip-path:url(#clipPath24); fill:none;" y2="87" />
    </g>
    <g transform="translate(526,132)" style="font-size:11; stroke-linecap:butt; text-rendering:geometricPrecision; font-family:sans-serif; stroke-linejoin:round;">
      <line x1="50" x2="84" y1="50" style="clip-path:url(#clipPath25); fill:none;" y2="50" />
      <line x1="84" x2="72" y1="50" style="clip-path:url(#clipPath25); fill:none;" y2="44" />
      <line x1="84" x2="72" y1="50" style="clip-path:url(#clipPath25); fill:none;" y2="56" />
    </g>
    <g transform="translate(466,143)" style="font-size:14; stroke-linecap:butt; text-rendering:geometricPrecision; font-family:&apos;標楷體&apos;; stroke-linejoin:round;">
      <line x1="50" x2="104" y1="109" style="clip-path:url(#clipPath26); fill:none;" y2="109" />
      <line x1="104" x2="104" y1="109" style="clip-path:url(#clipPath26); fill:none;" y2="50" />
      <line x1="104" x2="98" y1="50" style="clip-path:url(#clipPath26); fill:none;" y2="62" />
      <line x1="104" x2="110" y1="50" style="clip-path:url(#clipPath26); fill:none;" y2="62" />
    </g>
    <g transform="translate(25,117)" style="font-size:14; stroke-linecap:butt; text-rendering:geometricPrecision; font-family:&apos;標楷體&apos;; stroke-linejoin:round;">
      <line x1="485" x2="485" y1="146" style="clip-path:url(#clipPath27); fill:none;" y2="195" />
      <line x1="485" x2="185" y1="195" style="clip-path:url(#clipPath27); fill:none;" y2="195" />
      <line x1="185" x2="50" y1="195" style="clip-path:url(#clipPath27); fill:none;" y2="50" />
      <line x1="50" x2="52" y1="50" style="clip-path:url(#clipPath27); fill:none;" y2="62" />
      <line x1="50" x2="61" y1="50" style="clip-path:url(#clipPath27); fill:none;" y2="54" />
    </g>
    <g transform="translate(419,62)" style="font-size:11; stroke-linecap:butt; text-rendering:geometricPrecision; font-family:sans-serif; stroke-linejoin:round;">
      <line x1="50" x2="84" y1="50" style="clip-path:url(#clipPath25); fill:none;" y2="50" />
      <line x1="84" x2="72" y1="50" style="clip-path:url(#clipPath25); fill:none;" y2="44" />
      <line x1="84" x2="72" y1="50" style="clip-path:url(#clipPath25); fill:none;" y2="56" />
    </g>
    <g transform="translate(466,62)" style="font-size:14; stroke-linecap:butt; text-rendering:geometricPrecision; font-family:&apos;標楷體&apos;; stroke-linejoin:round;">
      <line x1="50" x2="104" y1="50" style="clip-path:url(#clipPath28); fill:none;" y2="50" />
      <line x1="104" x2="104" y1="50" style="clip-path:url(#clipPath28); fill:none;" y2="108" />
      <line x1="104" x2="110" y1="108" style="clip-path:url(#clipPath28); fill:none;" y2="96" />
      <line x1="104" x2="98" y1="108" style="clip-path:url(#clipPath28); fill:none;" y2="96" />
    </g>
    <g transform="translate(25,2)" style="font-size:14; stroke-linecap:butt; text-rendering:geometricPrecision; font-family:&apos;標楷體&apos;; stroke-linejoin:round;">
      <line x1="485" x2="485" y1="98" style="clip-path:url(#clipPath29); fill:none;" y2="50" />
      <line x1="485" x2="175" y1="50" style="clip-path:url(#clipPath29); fill:none;" y2="50" />
      <line x1="175" x2="50" y1="50" style="clip-path:url(#clipPath29); fill:none;" y2="156" />
      <line x1="50" x2="62" y1="156" style="clip-path:url(#clipPath29); fill:none;" y2="153" />
      <line x1="50" x2="55" y1="156" style="clip-path:url(#clipPath29); fill:none;" y2="143" />
    </g>
    <g transform="translate(240,62)" style="font-size:11; stroke-linecap:butt; text-rendering:geometricPrecision; font-family:sans-serif; stroke-linejoin:round;">
      <line x1="50" x2="50" y1="98" style="clip-path:url(#clipPath30); fill:none;" y2="50" />
      <line x1="50" x2="120" y1="50" style="clip-path:url(#clipPath30); fill:none;" y2="50" />
      <line x1="120" x2="108" y1="50" style="clip-path:url(#clipPath30); fill:none;" y2="44" />
      <line x1="120" x2="108" y1="50" style="clip-path:url(#clipPath30); fill:none;" y2="56" />
    </g>
    <g transform="translate(240,133)" style="font-size:11; stroke-linecap:butt; text-rendering:geometricPrecision; font-family:sans-serif; stroke-linejoin:round;">
      <line x1="50" x2="50" y1="50" style="clip-path:url(#clipPath31); fill:none;" y2="109" />
      <line x1="50" x2="120" y1="109" style="clip-path:url(#clipPath31); fill:none;" y2="109" />
      <line x1="120" x2="108" y1="109" style="clip-path:url(#clipPath31); fill:none;" y2="103" />
      <line x1="120" x2="108" y1="109" style="clip-path:url(#clipPath31); fill:none;" y2="115" />
    </g>
    <g transform="translate(419,202)" style="font-size:11; stroke-linecap:butt; text-rendering:geometricPrecision; font-family:sans-serif; stroke-linejoin:round;">
      <line x1="50" x2="84" y1="50" style="clip-path:url(#clipPath25); fill:none;" y2="50" />
      <line x1="84" x2="72" y1="50" style="clip-path:url(#clipPath25); fill:none;" y2="44" />
      <line x1="84" x2="72" y1="50" style="clip-path:url(#clipPath25); fill:none;" y2="56" />
    </g>
    <g transform="translate(679,142)" style="font-size:11; stroke-linecap:butt; text-rendering:geometricPrecision; font-family:sans-serif; stroke-linejoin:round;">
      <line x1="50" x2="84" y1="50" style="clip-path:url(#clipPath25); fill:none;" y2="50" />
      <line x1="84" x2="72" y1="50" style="clip-path:url(#clipPath25); fill:none;" y2="44" />
      <line x1="84" x2="72" y1="50" style="clip-path:url(#clipPath25); fill:none;" y2="56" />
    </g>
    <g transform="translate(726,142)" style="font-size:14; stroke-linecap:butt; text-rendering:geometricPrecision; font-family:&apos;標楷體&apos;; stroke-linejoin:round;">
      <line x1="50" x2="105" y1="50" style="clip-path:url(#clipPath32); fill:none;" y2="50" />
      <line x1="105" x2="93" y1="50" style="clip-path:url(#clipPath32); fill:none;" y2="44" />
      <line x1="105" x2="93" y1="50" style="clip-path:url(#clipPath32); fill:none;" y2="56" />
    </g>
    <g transform="translate(24,118)" style="font-size:14; stroke-linecap:butt; text-rendering:geometricPrecision; font-family:&apos;標楷體&apos;; stroke-linejoin:round;">
      <line x1="746" x2="746" y1="85" style="clip-path:url(#clipPath33); fill:none;" y2="254" />
      <line x1="746" x2="196" y1="254" style="clip-path:url(#clipPath33); fill:none;" y2="254" />
      <line x1="196" x2="50" y1="254" style="clip-path:url(#clipPath33); fill:none;" y2="50" />
      <line x1="50" x2="51" y1="50" style="clip-path:url(#clipPath33); fill:none;" y2="63" />
      <line x1="50" x2="61" y1="50" style="clip-path:url(#clipPath33); fill:none;" y2="56" />
    </g>
    <g transform="translate(26,112)" style="font-size:11; stroke-linecap:butt; text-rendering:geometricPrecision; font-family:sans-serif; stroke-linejoin:round;">
      <line x1="50" x2="94" y1="50" style="clip-path:url(#clipPath34); fill:none;" y2="50" />
      <line x1="94" x2="82" y1="50" style="clip-path:url(#clipPath34); fill:none;" y2="44" />
      <line x1="94" x2="82" y1="50" style="clip-path:url(#clipPath34); fill:none;" y2="56" />
    </g>
    <g transform="translate(179,122)" style="font-size:11; stroke-linecap:butt; text-rendering:geometricPrecision; font-family:sans-serif; stroke-linejoin:round;">
      <line x1="50" x2="104" y1="50" style="clip-path:url(#clipPath35); fill:none;" y2="50" />
      <line x1="104" x2="92" y1="50" style="clip-path:url(#clipPath35); fill:none;" y2="44" />
      <line x1="104" x2="92" y1="50" style="clip-path:url(#clipPath35); fill:none;" y2="56" />
    </g>
    <g style="text-rendering:geometricPrecision; font-size:14; font-family:&apos;標楷體&apos;;" transform="translate(350,351)">
      <text x="10" y="16" style="clip-path:url(#clipPath36); stroke:none;" xml:space="preserve">[重新搜尋]</text>
    </g>
    <g style="text-rendering:geometricPrecision; font-size:14; font-family:&apos;標楷體&apos;;" transform="translate(760,201)">
      <text x="10" y="16" style="clip-path:url(#clipPath36); stroke:none;" xml:space="preserve">[不再搜尋]</text>
    </g>
    <g style="text-rendering:geometricPrecision; font-size:14; font-family:&apos;標楷體&apos;;" transform="translate(267,31)">
      <text x="10" y="16" style="clip-path:url(#clipPath37); stroke:none;" xml:space="preserve">[查無符合條件]</text>
    </g>
    <g style="text-rendering:geometricPrecision; font-size:14; font-family:&apos;標楷體&apos;;" transform="translate(520,81)">
      <text x="10" y="16" style="clip-path:url(#clipPath36); stroke:none;" xml:space="preserve">[條件符合]</text>
    </g>
    <g style="text-rendering:geometricPrecision; font-size:14; font-family:&apos;標楷體&apos;;" transform="translate(257,281)">
      <text x="10" y="16" style="clip-path:url(#clipPath37); stroke:none;" xml:space="preserve">[查無相關資料]</text>
    </g>
    <g style="text-rendering:geometricPrecision; font-size:14; font-family:&apos;標楷體&apos;;" transform="translate(510,261)">
      <text x="10" y="16" style="clip-path:url(#clipPath36); stroke:none;" xml:space="preserve">[查詢成功]</text>
    </g>
    <g style="fill:rgb(120,120,120); text-rendering:geometricPrecision; font-size:10; stroke:rgb(120,120,120);">
    </g>
  </g>
</svg>
