<?xml version="1.0" encoding="UTF-8"?>

<!DOCTYPE svg PUBLIC '-//W3C//DTD SVG 1.0//EN' 'http://www.w3.org/TR/2001/REC-SVG-20010904/DTD/svg10.dtd'>
<svg style="fill-opacity:1; color-rendering:auto; color-interpolation:auto; stroke:black; text-rendering:auto; stroke-linecap:square; stroke-miterlimit:10; stroke-opacity:1; shape-rendering:auto; fill:black; stroke-dasharray:none; font-weight:normal; stroke-width:1; font-family:&apos;Dialog&apos;; font-style:normal; stroke-linejoin:miter; font-size:12; stroke-dashoffset:0; image-rendering:auto;" xmlns="http://www.w3.org/2000/svg" width="854" xmlns:xlink="http://www.w3.org/1999/xlink" height="446">
  <!--Generated by the Batik Graphics2D SVG Generator-->
  <defs id="genericDefs" />
  <g>
    <defs id="defs1">
      <clipPath clipPathUnits="userSpaceOnUse" id="clipPath1">
        <path d="M-3 -3 L857 -3 L857 447 L-3 447 L-3 -3 Z" />
      </clipPath>
      <clipPath clipPathUnits="userSpaceOnUse" id="clipPath2">
        <path d="M0 0 L0 429 L7 429 L7 0 Z" />
      </clipPath>
      <clipPath clipPathUnits="userSpaceOnUse" id="clipPath3">
        <path d="M-3 -3 L197 -3 L197 25 L-3 25 L-3 -3 Z" />
      </clipPath>
      <clipPath clipPathUnits="userSpaceOnUse" id="clipPath4">
        <path d="M0 0 L190 0 L190 18 L0 18 L0 0 Z" />
      </clipPath>
      <clipPath clipPathUnits="userSpaceOnUse" id="clipPath5">
        <path d="M-3 -3 L197 -3 L197 429 L-3 429 L-3 -3 Z" />
      </clipPath>
      <clipPath clipPathUnits="userSpaceOnUse" id="clipPath6">
        <path d="M-3 -3 L437 -3 L437 25 L-3 25 L-3 -3 Z" />
      </clipPath>
      <clipPath clipPathUnits="userSpaceOnUse" id="clipPath7">
        <path d="M0 0 L430 0 L430 18 L0 18 L0 0 Z" />
      </clipPath>
      <clipPath clipPathUnits="userSpaceOnUse" id="clipPath8">
        <path d="M-3 -3 L437 -3 L437 429 L-3 429 L-3 -3 Z" />
      </clipPath>
      <clipPath clipPathUnits="userSpaceOnUse" id="clipPath9">
        <path d="M-3 -3 L237 -3 L237 25 L-3 25 L-3 -3 Z" />
      </clipPath>
      <clipPath clipPathUnits="userSpaceOnUse" id="clipPath10">
        <path d="M0 0 L230 0 L230 18 L0 18 L0 0 Z" />
      </clipPath>
      <clipPath clipPathUnits="userSpaceOnUse" id="clipPath11">
        <path d="M-3 -3 L237 -3 L237 429 L-3 429 L-3 -3 Z" />
      </clipPath>
      <clipPath clipPathUnits="userSpaceOnUse" id="clipPath12">
        <path d="M-3 -3 L47 -3 L47 27 L-3 27 L-3 -3 Z" />
      </clipPath>
      <clipPath clipPathUnits="userSpaceOnUse" id="clipPath13">
        <path d="M-3 -3 L27 -3 L27 47 L-3 47 L-3 -3 Z" />
      </clipPath>
      <clipPath clipPathUnits="userSpaceOnUse" id="clipPath14">
        <path d="M-3 -3 L107 -3 L107 67 L-3 67 L-3 -3 Z" />
      </clipPath>
      <clipPath clipPathUnits="userSpaceOnUse" id="clipPath15">
        <path d="M0 0 L100 0 L100 60 L0 60 L0 0 Z" />
      </clipPath>
      <clipPath clipPathUnits="userSpaceOnUse" id="clipPath16">
        <path d="M-3 -3 L137 -3 L137 57 L-3 57 L-3 -3 Z" />
      </clipPath>
      <clipPath clipPathUnits="userSpaceOnUse" id="clipPath17">
        <path d="M0 0 L130 0 L130 50 L0 50 L0 0 Z" />
      </clipPath>
      <clipPath clipPathUnits="userSpaceOnUse" id="clipPath18">
        <path d="M-3 -3 L27 -3 L27 27 L-3 27 L-3 -3 Z" />
      </clipPath>
      <clipPath clipPathUnits="userSpaceOnUse" id="clipPath19">
        <path d="M-3 -3 L97 -3 L97 57 L-3 57 L-3 -3 Z" />
      </clipPath>
      <clipPath clipPathUnits="userSpaceOnUse" id="clipPath20">
        <path d="M0 0 L90 0 L90 50 L0 50 L0 0 Z" />
      </clipPath>
      <clipPath clipPathUnits="userSpaceOnUse" id="clipPath21">
        <path d="M0 0 L230 0 L230 422 L0 422 L0 0 Z" />
      </clipPath>
      <clipPath clipPathUnits="userSpaceOnUse" id="clipPath22">
        <path d="M0 0 L430 0 L430 422 L0 422 L0 0 Z" />
      </clipPath>
      <clipPath clipPathUnits="userSpaceOnUse" id="clipPath23">
        <path d="M0 0 L190 0 L190 422 L0 422 L0 0 Z" />
      </clipPath>
      <clipPath clipPathUnits="userSpaceOnUse" id="clipPath24">
        <path d="M0 0 L164 0 L164 152 L0 152 L0 0 Z" />
      </clipPath>
      <clipPath clipPathUnits="userSpaceOnUse" id="clipPath25">
        <path d="M0 0 L164 0 L164 153 L0 153 L0 0 Z" />
      </clipPath>
      <clipPath clipPathUnits="userSpaceOnUse" id="clipPath26">
        <path d="M0 0 L138 0 L138 104 L0 104 L0 0 Z" />
      </clipPath>
      <clipPath clipPathUnits="userSpaceOnUse" id="clipPath27">
        <path d="M0 0 L148 0 L148 163 L0 163 L0 0 Z" />
      </clipPath>
      <clipPath clipPathUnits="userSpaceOnUse" id="clipPath28">
        <path d="M0 0 L148 0 L148 152 L0 152 L0 0 Z" />
      </clipPath>
      <clipPath clipPathUnits="userSpaceOnUse" id="clipPath29">
        <path d="M0 0 L148 0 L148 104 L0 104 L0 0 Z" />
      </clipPath>
      <clipPath clipPathUnits="userSpaceOnUse" id="clipPath30">
        <path d="M0 0 L169 0 L169 104 L0 104 L0 0 Z" />
      </clipPath>
      <clipPath clipPathUnits="userSpaceOnUse" id="clipPath31">
        <path d="M0 0 L128 0 L128 104 L0 104 L0 0 Z" />
      </clipPath>
      <clipPath clipPathUnits="userSpaceOnUse" id="clipPath32">
        <path d="M0 0 L760 0 L760 279 L0 279 L0 0 Z" />
      </clipPath>
      <clipPath clipPathUnits="userSpaceOnUse" id="clipPath33">
        <path d="M0 0 L497 0 L497 239 L0 239 L0 0 Z" />
      </clipPath>
      <clipPath clipPathUnits="userSpaceOnUse" id="clipPath34">
        <path d="M0 0 L499 0 L499 210 L0 210 L0 0 Z" />
      </clipPath>
      <clipPath clipPathUnits="userSpaceOnUse" id="clipPath35">
        <path d="M0 0 L158 0 L158 104 L0 104 L0 0 Z" />
      </clipPath>
      <clipPath clipPathUnits="userSpaceOnUse" id="clipPath36">
        <path d="M0 0 L104 0 L104 153 L0 153 L0 0 Z" />
      </clipPath>
      <clipPath clipPathUnits="userSpaceOnUse" id="clipPath37">
        <path d="M0 0 L118 0 L118 18 L0 18 L0 0 Z" />
      </clipPath>
      <clipPath clipPathUnits="userSpaceOnUse" id="clipPath38">
        <path d="M0 0 L90 0 L90 18 L0 18 L0 0 Z" />
      </clipPath>
    </defs>
    <g style="fill:white; text-rendering:geometricPrecision; stroke:white;">
      <rect x="0" y="0" width="854" style="stroke:none;" height="446" />
    </g>
    <g transform="translate(0,2)" style="text-rendering:geometricPrecision; stroke-width:2; font-size:14; font-family:&apos;標楷體&apos;;">
      <rect x="0" y="0" width="190" style="clip-path:url(#clipPath3); fill:none;" height="18" />
    </g>
    <g style="text-rendering:geometricPrecision; font-size:14; font-family:&apos;標楷體&apos;;" transform="translate(0,2)">
      <text x="81" y="16" style="clip-path:url(#clipPath4); stroke:none;" xml:space="preserve">會員</text>
    </g>
    <g transform="translate(0,20)" style="text-rendering:geometricPrecision; stroke-width:2; font-size:11; font-family:sans-serif;">
      <rect x="0" y="0" width="190" style="clip-path:url(#clipPath5); fill:none;" height="422" />
    </g>
    <g transform="translate(190,2)" style="text-rendering:geometricPrecision; stroke-width:2; font-size:14; font-family:&apos;標楷體&apos;;">
      <rect x="0" y="0" width="430" style="clip-path:url(#clipPath6); fill:none;" height="18" />
    </g>
    <g style="text-rendering:geometricPrecision; font-size:14; font-family:&apos;標楷體&apos;;" transform="translate(190,2)">
      <text x="187" y="16" style="clip-path:url(#clipPath7); stroke:none;" xml:space="preserve">會員專區</text>
    </g>
    <g transform="translate(190,20)" style="text-rendering:geometricPrecision; stroke-width:2; font-size:11; font-family:sans-serif;">
      <rect x="0" y="0" width="430" style="clip-path:url(#clipPath8); fill:none;" height="422" />
    </g>
    <g transform="translate(620,2)" style="text-rendering:geometricPrecision; stroke-width:2; font-size:14; font-family:&apos;標楷體&apos;;">
      <rect x="0" y="0" width="230" style="clip-path:url(#clipPath9); fill:none;" height="18" />
    </g>
    <g style="text-rendering:geometricPrecision; font-size:14; font-family:&apos;標楷體&apos;;" transform="translate(620,2)">
      <text x="94" y="16" style="clip-path:url(#clipPath10); stroke:none;" xml:space="preserve">資料庫</text>
    </g>
    <g transform="translate(620,20)" style="text-rendering:geometricPrecision; stroke-width:2; font-size:11; font-family:sans-serif;">
      <rect x="0" y="0" width="230" style="clip-path:url(#clipPath11); fill:none;" height="422" />
    </g>
    <g style="text-rendering:geometricPrecision; font-size:11; font-family:sans-serif;" transform="translate(70,82)">
      <circle style="clip-path:url(#clipPath12); stroke:none;" r="10" cx="20" cy="10" />
    </g>
    <g transform="translate(80,142)" style="font-size:11; fill:rgb(122,207,245); text-rendering:geometricPrecision; font-family:sans-serif; stroke:rgb(122,207,245);">
      <polygon style="clip-path:url(#clipPath13); stroke:none;" points=" 10 7 17 20 10 32 3 20" />
    </g>
    <g transform="translate(80,142)" style="font-size:11; stroke-linecap:butt; text-rendering:geometricPrecision; font-family:sans-serif; stroke-linejoin:round; stroke-miterlimit:0;">
      <polygon style="fill:none; clip-path:url(#clipPath13);" points=" 10 7 17 20 10 32 3 20" />
    </g>
    <g transform="translate(280,142)" style="font-size:11; fill:rgb(122,207,245); text-rendering:geometricPrecision; font-family:sans-serif; stroke:rgb(122,207,245);">
      <polygon style="clip-path:url(#clipPath13); stroke:none;" points=" 10 7 17 20 10 32 3 20" />
    </g>
    <g transform="translate(280,142)" style="font-size:11; stroke-linecap:butt; text-rendering:geometricPrecision; font-family:sans-serif; stroke-linejoin:round; stroke-miterlimit:0;">
      <polygon style="fill:none; clip-path:url(#clipPath13);" points=" 10 7 17 20 10 32 3 20" />
    </g>
    <g transform="translate(350,72)" style="font-size:14; fill:rgb(122,207,245); text-rendering:geometricPrecision; font-family:&apos;標楷體&apos;; stroke:rgb(122,207,245);">
      <rect x="1" y="1" width="98" style="clip-path:url(#clipPath14); stroke:none;" rx="15" ry="15" height="58" />
    </g>
    <g transform="translate(350,72)" style="font-size:14; stroke-linecap:butt; text-rendering:geometricPrecision; font-family:&apos;標楷體&apos;; stroke-linejoin:round; stroke-miterlimit:0;">
      <rect x="1" y="1" width="98" style="clip-path:url(#clipPath14); fill:none;" rx="15" ry="15" height="58" />
    </g>
    <g style="text-rendering:geometricPrecision; font-size:14; font-family:&apos;標楷體&apos;;" transform="translate(350,72)">
      <text x="22" y="37" style="clip-path:url(#clipPath15); stroke:none;" xml:space="preserve">條件篩選</text>
    </g>
    <g transform="translate(350,202)" style="font-size:14; fill:rgb(122,207,245); text-rendering:geometricPrecision; font-family:&apos;標楷體&apos;; stroke:rgb(122,207,245);">
      <rect x="1" y="1" width="98" style="clip-path:url(#clipPath14); stroke:none;" rx="15" ry="15" height="58" />
    </g>
    <g transform="translate(350,202)" style="font-size:14; stroke-linecap:butt; text-rendering:geometricPrecision; font-family:&apos;標楷體&apos;; stroke-linejoin:round; stroke-miterlimit:0;">
      <rect x="1" y="1" width="98" style="clip-path:url(#clipPath14); fill:none;" rx="15" ry="15" height="58" />
    </g>
    <g style="text-rendering:geometricPrecision; font-size:14; font-family:&apos;標楷體&apos;;" transform="translate(350,202)">
      <text x="15" y="37" style="clip-path:url(#clipPath15); stroke:none;" xml:space="preserve">關鍵字查詢</text>
    </g>
    <g transform="translate(480,82)" style="font-size:11; fill:rgb(122,207,245); text-rendering:geometricPrecision; font-family:sans-serif; stroke:rgb(122,207,245);">
      <polygon style="clip-path:url(#clipPath13); stroke:none;" points=" 10 7 17 20 10 32 3 20" />
    </g>
    <g transform="translate(480,82)" style="font-size:11; stroke-linecap:butt; text-rendering:geometricPrecision; font-family:sans-serif; stroke-linejoin:round; stroke-miterlimit:0;">
      <polygon style="fill:none; clip-path:url(#clipPath13);" points=" 10 7 17 20 10 32 3 20" />
    </g>
    <g transform="translate(480,212)" style="font-size:11; fill:rgb(122,207,245); text-rendering:geometricPrecision; font-family:sans-serif; stroke:rgb(122,207,245);">
      <polygon style="clip-path:url(#clipPath13); stroke:none;" points=" 10 7 17 20 10 32 3 20" />
    </g>
    <g transform="translate(480,212)" style="font-size:11; stroke-linecap:butt; text-rendering:geometricPrecision; font-family:sans-serif; stroke-linejoin:round; stroke-miterlimit:0;">
      <polygon style="fill:none; clip-path:url(#clipPath13);" points=" 10 7 17 20 10 32 3 20" />
    </g>
    <g transform="translate(530,142)" style="font-size:11; fill:rgb(122,207,245); text-rendering:geometricPrecision; font-family:sans-serif; stroke:rgb(122,207,245);">
      <polygon style="clip-path:url(#clipPath13); stroke:none;" points=" 10 7 17 20 10 32 3 20" />
    </g>
    <g transform="translate(530,142)" style="font-size:11; stroke-linecap:butt; text-rendering:geometricPrecision; font-family:sans-serif; stroke-linejoin:round; stroke-miterlimit:0;">
      <polygon style="fill:none; clip-path:url(#clipPath13);" points=" 10 7 17 20 10 32 3 20" />
    </g>
    <g transform="translate(590,142)" style="font-size:14; fill:rgb(122,207,245); text-rendering:geometricPrecision; font-family:&apos;標楷體&apos;; stroke:rgb(122,207,245);">
      <rect x="1" y="1" width="128" style="clip-path:url(#clipPath16); stroke:none;" rx="15" ry="15" height="48" />
    </g>
    <g transform="translate(590,142)" style="font-size:14; stroke-linecap:butt; text-rendering:geometricPrecision; font-family:&apos;標楷體&apos;; stroke-linejoin:round; stroke-miterlimit:0;">
      <rect x="1" y="1" width="128" style="clip-path:url(#clipPath16); fill:none;" rx="15" ry="15" height="48" />
    </g>
    <g style="text-rendering:geometricPrecision; font-size:14; font-family:&apos;標楷體&apos;;" transform="translate(590,142)">
      <text x="23" y="32" style="clip-path:url(#clipPath17); stroke:none;" xml:space="preserve">顯示查詢時間</text>
    </g>
    <g transform="translate(740,152)" style="font-size:11; fill:rgb(122,207,245); text-rendering:geometricPrecision; font-family:sans-serif; stroke:rgb(122,207,245);">
      <polygon style="clip-path:url(#clipPath13); stroke:none;" points=" 10 7 17 20 10 32 3 20" />
    </g>
    <g transform="translate(740,152)" style="font-size:11; stroke-linecap:butt; text-rendering:geometricPrecision; font-family:sans-serif; stroke-linejoin:round; stroke-miterlimit:0;">
      <polygon style="fill:none; clip-path:url(#clipPath13);" points=" 10 7 17 20 10 32 3 20" />
    </g>
    <g style="text-rendering:geometricPrecision; font-size:11; font-family:sans-serif;" transform="translate(820,162)">
      <circle style="clip-path:url(#clipPath18); stroke:none;" r="6.6667" cx="10" cy="10" />
      <circle style="stroke-linecap:butt; clip-path:url(#clipPath18); fill:none; stroke-linejoin:round; stroke-miterlimit:0;" r="10" cx="10" cy="10" />
    </g>
    <g transform="translate(150,142)" style="font-size:14; fill:rgb(122,207,245); text-rendering:geometricPrecision; font-family:&apos;標楷體&apos;; stroke:rgb(122,207,245);">
      <rect x="1" y="1" width="88" style="clip-path:url(#clipPath19); stroke:none;" rx="15" ry="15" height="48" />
    </g>
    <g transform="translate(150,142)" style="font-size:14; stroke-linecap:butt; text-rendering:geometricPrecision; font-family:&apos;標楷體&apos;; stroke-linejoin:round; stroke-miterlimit:0;">
      <rect x="1" y="1" width="88" style="clip-path:url(#clipPath19); fill:none;" rx="15" ry="15" height="48" />
    </g>
    <g style="text-rendering:geometricPrecision; font-size:14; font-family:&apos;標楷體&apos;;" transform="translate(150,142)">
      <text x="17" y="32" style="clip-path:url(#clipPath20); stroke:none;" xml:space="preserve">附近商店</text>
    </g>
    <g transform="translate(240,52)" style="font-size:11; stroke-linecap:butt; text-rendering:geometricPrecision; font-family:sans-serif; stroke-linejoin:round;">
      <line x1="50" x2="50" y1="98" style="clip-path:url(#clipPath24); fill:none;" y2="50" />
      <line x1="50" x2="110" y1="50" style="clip-path:url(#clipPath24); fill:none;" y2="50" />
      <line x1="110" x2="98" y1="50" style="clip-path:url(#clipPath24); fill:none;" y2="44" />
      <line x1="110" x2="98" y1="50" style="clip-path:url(#clipPath24); fill:none;" y2="56" />
    </g>
    <g transform="translate(240,123)" style="font-size:11; stroke-linecap:butt; text-rendering:geometricPrecision; font-family:sans-serif; stroke-linejoin:round;">
      <line x1="50" x2="50" y1="50" style="clip-path:url(#clipPath25); fill:none;" y2="99" />
      <line x1="50" x2="110" y1="99" style="clip-path:url(#clipPath25); fill:none;" y2="99" />
      <line x1="110" x2="98" y1="99" style="clip-path:url(#clipPath25); fill:none;" y2="93" />
      <line x1="110" x2="98" y1="99" style="clip-path:url(#clipPath25); fill:none;" y2="105" />
    </g>
    <g transform="translate(399,182)" style="font-size:11; stroke-linecap:butt; text-rendering:geometricPrecision; font-family:sans-serif; stroke-linejoin:round;">
      <line x1="50" x2="84" y1="50" style="clip-path:url(#clipPath26); fill:none;" y2="50" />
      <line x1="84" x2="72" y1="50" style="clip-path:url(#clipPath26); fill:none;" y2="44" />
      <line x1="84" x2="72" y1="50" style="clip-path:url(#clipPath26); fill:none;" y2="56" />
    </g>
    <g transform="translate(446,123)" style="font-size:14; stroke-linecap:butt; text-rendering:geometricPrecision; font-family:&apos;標楷體&apos;; stroke-linejoin:round;">
      <line x1="50" x2="94" y1="109" style="clip-path:url(#clipPath27); fill:none;" y2="109" />
      <line x1="94" x2="94" y1="109" style="clip-path:url(#clipPath27); fill:none;" y2="50" />
      <line x1="94" x2="88" y1="50" style="clip-path:url(#clipPath27); fill:none;" y2="62" />
      <line x1="94" x2="100" y1="50" style="clip-path:url(#clipPath27); fill:none;" y2="62" />
    </g>
    <g transform="translate(399,52)" style="font-size:11; stroke-linecap:butt; text-rendering:geometricPrecision; font-family:sans-serif; stroke-linejoin:round;">
      <line x1="50" x2="84" y1="50" style="clip-path:url(#clipPath26); fill:none;" y2="50" />
      <line x1="84" x2="72" y1="50" style="clip-path:url(#clipPath26); fill:none;" y2="44" />
      <line x1="84" x2="72" y1="50" style="clip-path:url(#clipPath26); fill:none;" y2="56" />
    </g>
    <g transform="translate(446,52)" style="font-size:14; stroke-linecap:butt; text-rendering:geometricPrecision; font-family:&apos;標楷體&apos;; stroke-linejoin:round;">
      <line x1="50" x2="94" y1="50" style="clip-path:url(#clipPath28); fill:none;" y2="50" />
      <line x1="94" x2="94" y1="50" style="clip-path:url(#clipPath28); fill:none;" y2="98" />
      <line x1="94" x2="100" y1="98" style="clip-path:url(#clipPath28); fill:none;" y2="86" />
      <line x1="94" x2="88" y1="98" style="clip-path:url(#clipPath28); fill:none;" y2="86" />
    </g>
    <g transform="translate(189,112)" style="font-size:11; stroke-linecap:butt; text-rendering:geometricPrecision; font-family:sans-serif; stroke-linejoin:round;">
      <line x1="50" x2="94" y1="50" style="clip-path:url(#clipPath29); fill:none;" y2="50" />
      <line x1="94" x2="82" y1="50" style="clip-path:url(#clipPath29); fill:none;" y2="44" />
      <line x1="94" x2="82" y1="50" style="clip-path:url(#clipPath29); fill:none;" y2="56" />
    </g>
    <g transform="translate(706,122)" style="font-size:14; stroke-linecap:butt; text-rendering:geometricPrecision; font-family:&apos;標楷體&apos;; stroke-linejoin:round;">
      <line x1="50" x2="115" y1="50" style="clip-path:url(#clipPath30); fill:none;" y2="50" />
      <line x1="115" x2="103" y1="50" style="clip-path:url(#clipPath30); fill:none;" y2="44" />
      <line x1="115" x2="103" y1="50" style="clip-path:url(#clipPath30); fill:none;" y2="56" />
    </g>
    <g transform="translate(496,112)" style="font-size:11; stroke-linecap:butt; text-rendering:geometricPrecision; font-family:sans-serif; stroke-linejoin:round;">
      <line x1="50" x2="94" y1="50" style="clip-path:url(#clipPath29); fill:none;" y2="50" />
      <line x1="94" x2="82" y1="50" style="clip-path:url(#clipPath29); fill:none;" y2="44" />
      <line x1="94" x2="82" y1="50" style="clip-path:url(#clipPath29); fill:none;" y2="56" />
    </g>
    <g transform="translate(669,122)" style="font-size:11; stroke-linecap:butt; text-rendering:geometricPrecision; font-family:sans-serif; stroke-linejoin:round;">
      <line x1="50" x2="74" y1="50" style="clip-path:url(#clipPath31); fill:none;" y2="50" />
      <line x1="74" x2="62" y1="50" style="clip-path:url(#clipPath31); fill:none;" y2="44" />
      <line x1="74" x2="62" y1="50" style="clip-path:url(#clipPath31); fill:none;" y2="56" />
    </g>
    <g transform="translate(44,117)" style="font-size:14; stroke-linecap:butt; text-rendering:geometricPrecision; font-family:&apos;標楷體&apos;; stroke-linejoin:round;">
      <line x1="706" x2="706" y1="66" style="clip-path:url(#clipPath32); fill:none;" y2="225" />
      <line x1="706" x2="166" y1="225" style="clip-path:url(#clipPath32); fill:none;" y2="225" />
      <line x1="166" x2="50" y1="225" style="clip-path:url(#clipPath32); fill:none;" y2="50" />
      <line x1="50" x2="50" y1="50" style="clip-path:url(#clipPath32); fill:none;" y2="62" />
      <line x1="50" x2="61" y1="50" style="clip-path:url(#clipPath32); fill:none;" y2="56" />
    </g>
    <g transform="translate(45,117)" style="font-size:14; stroke-linecap:butt; text-rendering:geometricPrecision; font-family:&apos;標楷體&apos;; stroke-linejoin:round;">
      <line x1="443" x2="425" y1="122" style="clip-path:url(#clipPath33); fill:none;" y2="185" />
      <line x1="425" x2="185" y1="185" style="clip-path:url(#clipPath33); fill:none;" y2="185" />
      <line x1="185" x2="50" y1="185" style="clip-path:url(#clipPath33); fill:none;" y2="50" />
      <line x1="50" x2="53" y1="50" style="clip-path:url(#clipPath33); fill:none;" y2="62" />
      <line x1="50" x2="62" y1="50" style="clip-path:url(#clipPath33); fill:none;" y2="53" />
    </g>
    <g transform="translate(45,2)" style="font-size:14; stroke-linecap:butt; text-rendering:geometricPrecision; font-family:&apos;標楷體&apos;; stroke-linejoin:round;">
      <line x1="445" x2="445" y1="88" style="clip-path:url(#clipPath34); fill:none;" y2="50" />
      <line x1="445" x2="175" y1="50" style="clip-path:url(#clipPath34); fill:none;" y2="50" />
      <line x1="175" x2="50" y1="50" style="clip-path:url(#clipPath34); fill:none;" y2="156" />
      <line x1="50" x2="62" y1="156" style="clip-path:url(#clipPath34); fill:none;" y2="153" />
      <line x1="50" x2="55" y1="156" style="clip-path:url(#clipPath34); fill:none;" y2="143" />
    </g>
    <g transform="translate(46,112)" style="font-size:11; stroke-linecap:butt; text-rendering:geometricPrecision; font-family:sans-serif; stroke-linejoin:round;">
      <line x1="50" x2="104" y1="50" style="clip-path:url(#clipPath35); fill:none;" y2="50" />
      <line x1="104" x2="92" y1="50" style="clip-path:url(#clipPath35); fill:none;" y2="44" />
      <line x1="104" x2="92" y1="50" style="clip-path:url(#clipPath35); fill:none;" y2="56" />
    </g>
    <g transform="translate(40,51)" style="font-size:11; stroke-linecap:butt; text-rendering:geometricPrecision; font-family:sans-serif; stroke-linejoin:round;">
      <line x1="50" x2="50" y1="50" style="clip-path:url(#clipPath36); fill:none;" y2="99" />
      <line x1="50" x2="56" y1="99" style="clip-path:url(#clipPath36); fill:none;" y2="87" />
      <line x1="50" x2="44" y1="99" style="clip-path:url(#clipPath36); fill:none;" y2="87" />
    </g>
    <g style="text-rendering:geometricPrecision; font-size:14; font-family:&apos;標楷體&apos;;" transform="translate(280,32)">
      <text x="10" y="16" style="clip-path:url(#clipPath37); stroke:none;" xml:space="preserve">[查無符合條件]</text>
    </g>
    <g style="text-rendering:geometricPrecision; font-size:14; font-family:&apos;標楷體&apos;;" transform="translate(270,302)">
      <text x="10" y="16" style="clip-path:url(#clipPath37); stroke:none;" xml:space="preserve">[查無相關資料]</text>
    </g>
    <g style="text-rendering:geometricPrecision; font-size:14; font-family:&apos;標楷體&apos;;" transform="translate(423,352)">
      <text x="10" y="16" style="clip-path:url(#clipPath38); stroke:none;" xml:space="preserve">[重新搜尋]</text>
    </g>
    <g style="text-rendering:geometricPrecision; font-size:14; font-family:&apos;標楷體&apos;;" transform="translate(740,142)">
      <text x="10" y="16" style="clip-path:url(#clipPath38); stroke:none;" xml:space="preserve">[不再搜尋]</text>
    </g>
    <g style="text-rendering:geometricPrecision; font-size:14; font-family:&apos;標楷體&apos;;" transform="translate(498,70)">
      <text x="10" y="16" style="clip-path:url(#clipPath38); stroke:none;" xml:space="preserve">[條件符合]</text>
    </g>
    <g style="text-rendering:geometricPrecision; font-size:14; font-family:&apos;標楷體&apos;;" transform="translate(500,241)">
      <text x="10" y="16" style="clip-path:url(#clipPath38); stroke:none;" xml:space="preserve">[查詢成功]</text>
    </g>
    <g style="fill:rgb(120,120,120); text-rendering:geometricPrecision; font-size:10; stroke:rgb(120,120,120);">
    </g>
  </g>
</svg>
