<?xml version="1.0" encoding="UTF-8"?>

<!DOCTYPE svg PUBLIC '-//W3C//DTD SVG 1.0//EN' 'http://www.w3.org/TR/2001/REC-SVG-20010904/DTD/svg10.dtd'>
<svg style="fill-opacity:1; color-rendering:auto; color-interpolation:auto; stroke:black; text-rendering:auto; stroke-linecap:square; stroke-miterlimit:10; stroke-opacity:1; shape-rendering:auto; fill:black; stroke-dasharray:none; font-weight:normal; stroke-width:1; font-family:&apos;Dialog&apos;; font-style:normal; stroke-linejoin:miter; font-size:12; stroke-dashoffset:0; image-rendering:auto;" xmlns="http://www.w3.org/2000/svg" width="236" xmlns:xlink="http://www.w3.org/1999/xlink" height="426">
  <!--Generated by the Batik Graphics2D SVG Generator-->
  <defs id="genericDefs" />
  <g>
    <defs id="defs1">
      <clipPath clipPathUnits="userSpaceOnUse" id="clipPath1">
        <path d="M-3 -3 L47 -3 L47 27 L-3 27 L-3 -3 Z" />
      </clipPath>
      <clipPath clipPathUnits="userSpaceOnUse" id="clipPath2">
        <path d="M-3 -3 L127 -3 L127 47 L-3 47 L-3 -3 Z" />
      </clipPath>
      <clipPath clipPathUnits="userSpaceOnUse" id="clipPath3">
        <path d="M0 0 L120 0 L120 40 L0 40 L0 0 Z" />
      </clipPath>
      <clipPath clipPathUnits="userSpaceOnUse" id="clipPath4">
        <path d="M-3 -3 L28 -3 L28 47 L-3 47 L-3 -3 Z" />
      </clipPath>
      <clipPath clipPathUnits="userSpaceOnUse" id="clipPath5">
        <path d="M-3 -3 L27 -3 L27 47 L-3 47 L-3 -3 Z" />
      </clipPath>
      <clipPath clipPathUnits="userSpaceOnUse" id="clipPath6">
        <path d="M-3 -3 L27 -3 L27 27 L-3 27 L-3 -3 Z" />
      </clipPath>
      <clipPath clipPathUnits="userSpaceOnUse" id="clipPath7">
        <path d="M0 0 L104 0 L104 145 L0 145 L0 0 Z" />
      </clipPath>
      <clipPath clipPathUnits="userSpaceOnUse" id="clipPath8">
        <path d="M0 0 L104 0 L104 134 L0 134 L0 0 Z" />
      </clipPath>
      <clipPath clipPathUnits="userSpaceOnUse" id="clipPath9">
        <path d="M0 0 L104 0 L104 133 L0 133 L0 0 Z" />
      </clipPath>
      <clipPath clipPathUnits="userSpaceOnUse" id="clipPath10">
        <path d="M0 0 L104 0 L104 143 L0 143 L0 0 Z" />
      </clipPath>
      <clipPath clipPathUnits="userSpaceOnUse" id="clipPath11">
        <path d="M0 0 L178 0 L178 234 L0 234 L0 0 Z" />
      </clipPath>
      <clipPath clipPathUnits="userSpaceOnUse" id="clipPath12">
        <path d="M0 0 L104 0 L104 146 L0 146 L0 0 Z" />
      </clipPath>
      <clipPath clipPathUnits="userSpaceOnUse" id="clipPath13">
        <path d="M0 0 L90 0 L90 18 L0 18 L0 0 Z" />
      </clipPath>
    </defs>
    <g style="fill:white; text-rendering:geometricPrecision; stroke:white;">
      <rect x="0" y="0" width="236" style="stroke:none;" height="426" />
    </g>
    <g style="text-rendering:geometricPrecision; font-size:11; font-family:sans-serif;" transform="translate(42,2)">
      <circle style="clip-path:url(#clipPath1); stroke:none;" r="10" cx="20" cy="10" />
    </g>
    <g transform="translate(2,62)" style="font-size:14; fill:rgb(122,207,245); text-rendering:geometricPrecision; font-family:&apos;標楷體&apos;; stroke:rgb(122,207,245);">
      <rect x="1" y="1" width="118" style="clip-path:url(#clipPath2); stroke:none;" rx="15" ry="15" height="38" />
    </g>
    <g transform="translate(2,62)" style="font-size:14; stroke-linecap:butt; text-rendering:geometricPrecision; font-family:&apos;標楷體&apos;; stroke-linejoin:round; stroke-miterlimit:0;">
      <rect x="1" y="1" width="118" style="clip-path:url(#clipPath2); fill:none;" rx="15" ry="15" height="38" />
    </g>
    <g style="text-rendering:geometricPrecision; font-size:14; font-family:&apos;標楷體&apos;;" transform="translate(2,62)">
      <text x="18" y="27" style="clip-path:url(#clipPath3); stroke:none;" xml:space="preserve">登入(管理者)</text>
    </g>
    <g transform="translate(52,122)" style="font-size:11; fill:rgb(122,207,245); text-rendering:geometricPrecision; font-family:sans-serif; stroke:rgb(122,207,245);">
      <polygon style="clip-path:url(#clipPath4); stroke:none;" points=" 10 7 18 20 10 32 3 20" />
    </g>
    <g transform="translate(52,122)" style="font-size:11; stroke-linecap:butt; text-rendering:geometricPrecision; font-family:sans-serif; stroke-linejoin:round; stroke-miterlimit:0;">
      <polygon style="fill:none; clip-path:url(#clipPath4);" points=" 10 7 18 20 10 32 3 20" />
    </g>
    <g transform="translate(2,182)" style="font-size:14; fill:rgb(122,207,245); text-rendering:geometricPrecision; font-family:&apos;標楷體&apos;; stroke:rgb(122,207,245);">
      <rect x="1" y="1" width="118" style="clip-path:url(#clipPath2); stroke:none;" rx="15" ry="15" height="38" />
    </g>
    <g transform="translate(2,182)" style="font-size:14; stroke-linecap:butt; text-rendering:geometricPrecision; font-family:&apos;標楷體&apos;; stroke-linejoin:round; stroke-miterlimit:0;">
      <rect x="1" y="1" width="118" style="clip-path:url(#clipPath2); fill:none;" rx="15" ry="15" height="38" />
    </g>
    <g style="text-rendering:geometricPrecision; font-size:14; font-family:&apos;標楷體&apos;;" transform="translate(2,182)">
      <text x="11" y="27" style="clip-path:url(#clipPath3); stroke:none;" xml:space="preserve">編輯使用者密碼</text>
    </g>
    <g transform="translate(52,252)" style="font-size:11; fill:rgb(122,207,245); text-rendering:geometricPrecision; font-family:sans-serif; stroke:rgb(122,207,245);">
      <polygon style="clip-path:url(#clipPath5); stroke:none;" points=" 10 7 17 20 10 32 3 20" />
    </g>
    <g transform="translate(52,252)" style="font-size:11; stroke-linecap:butt; text-rendering:geometricPrecision; font-family:sans-serif; stroke-linejoin:round; stroke-miterlimit:0;">
      <polygon style="fill:none; clip-path:url(#clipPath5);" points=" 10 7 17 20 10 32 3 20" />
    </g>
    <g transform="translate(2,322)" style="font-size:14; fill:rgb(122,207,245); text-rendering:geometricPrecision; font-family:&apos;標楷體&apos;; stroke:rgb(122,207,245);">
      <rect x="1" y="1" width="118" style="clip-path:url(#clipPath2); stroke:none;" rx="15" ry="15" height="38" />
    </g>
    <g transform="translate(2,322)" style="font-size:14; stroke-linecap:butt; text-rendering:geometricPrecision; font-family:&apos;標楷體&apos;; stroke-linejoin:round; stroke-miterlimit:0;">
      <rect x="1" y="1" width="118" style="clip-path:url(#clipPath2); fill:none;" rx="15" ry="15" height="38" />
    </g>
    <g style="text-rendering:geometricPrecision; font-size:14; font-family:&apos;標楷體&apos;;" transform="translate(2,322)">
      <text x="32" y="27" style="clip-path:url(#clipPath3); stroke:none;" xml:space="preserve">系統儲存</text>
    </g>
    <g style="text-rendering:geometricPrecision; font-size:11; font-family:sans-serif;" transform="translate(52,402)">
      <circle style="clip-path:url(#clipPath6); stroke:none;" r="6.6667" cx="10" cy="10" />
      <circle style="stroke-linecap:butt; clip-path:url(#clipPath6); fill:none; stroke-linejoin:round; stroke-miterlimit:0;" r="10" cx="10" cy="10" />
    </g>
    <g transform="translate(12,-29)" style="font-size:11; stroke-linecap:butt; text-rendering:geometricPrecision; font-family:sans-serif; stroke-linejoin:round;">
      <line x1="50" x2="50" y1="50" style="clip-path:url(#clipPath7); fill:none;" y2="91" />
      <line x1="50" x2="56" y1="91" style="clip-path:url(#clipPath7); fill:none;" y2="79" />
      <line x1="50" x2="44" y1="91" style="clip-path:url(#clipPath7); fill:none;" y2="79" />
    </g>
    <g transform="translate(12,51)" style="font-size:11; stroke-linecap:butt; text-rendering:geometricPrecision; font-family:sans-serif; stroke-linejoin:round;">
      <line x1="50" x2="50" y1="50" style="clip-path:url(#clipPath8); fill:none;" y2="80" />
      <line x1="50" x2="56" y1="80" style="clip-path:url(#clipPath8); fill:none;" y2="68" />
      <line x1="50" x2="44" y1="80" style="clip-path:url(#clipPath8); fill:none;" y2="68" />
    </g>
    <g transform="translate(12,103)" style="font-size:11; stroke-linecap:butt; text-rendering:geometricPrecision; font-family:sans-serif; stroke-linejoin:round;">
      <line x1="50" x2="50" y1="50" style="clip-path:url(#clipPath9); fill:none;" y2="79" />
      <line x1="50" x2="56" y1="79" style="clip-path:url(#clipPath9); fill:none;" y2="67" />
      <line x1="50" x2="44" y1="79" style="clip-path:url(#clipPath9); fill:none;" y2="67" />
    </g>
    <g transform="translate(12,171)" style="font-size:11; stroke-linecap:butt; text-rendering:geometricPrecision; font-family:sans-serif; stroke-linejoin:round;">
      <line x1="50" x2="50" y1="50" style="clip-path:url(#clipPath10); fill:none;" y2="89" />
      <line x1="50" x2="56" y1="89" style="clip-path:url(#clipPath10); fill:none;" y2="77" />
      <line x1="50" x2="44" y1="89" style="clip-path:url(#clipPath10); fill:none;" y2="77" />
    </g>
    <g transform="translate(18,92)" style="font-size:14; stroke-linecap:butt; text-rendering:geometricPrecision; font-family:&apos;標楷體&apos;; stroke-linejoin:round;">
      <line x1="50" x2="124" y1="180" style="clip-path:url(#clipPath11); fill:none;" y2="180" />
      <line x1="124" x2="124" y1="180" style="clip-path:url(#clipPath11); fill:none;" y2="50" />
      <line x1="124" x2="51" y1="50" style="clip-path:url(#clipPath11); fill:none;" y2="50" />
      <line x1="51" x2="63" y1="50" style="clip-path:url(#clipPath11); fill:none;" y2="56" />
      <line x1="51" x2="63" y1="50" style="clip-path:url(#clipPath11); fill:none;" y2="44" />
    </g>
    <g transform="translate(12,233)" style="font-size:14; stroke-linecap:butt; text-rendering:geometricPrecision; font-family:&apos;標楷體&apos;; stroke-linejoin:round;">
      <line x1="50" x2="50" y1="50" style="clip-path:url(#clipPath10); fill:none;" y2="89" />
      <line x1="50" x2="56" y1="89" style="clip-path:url(#clipPath10); fill:none;" y2="77" />
      <line x1="50" x2="44" y1="89" style="clip-path:url(#clipPath10); fill:none;" y2="77" />
    </g>
    <g transform="translate(12,311)" style="font-size:11; stroke-linecap:butt; text-rendering:geometricPrecision; font-family:sans-serif; stroke-linejoin:round;">
      <line x1="50" x2="50" y1="50" style="clip-path:url(#clipPath12); fill:none;" y2="92" />
      <line x1="50" x2="56" y1="92" style="clip-path:url(#clipPath12); fill:none;" y2="80" />
      <line x1="50" x2="44" y1="92" style="clip-path:url(#clipPath12); fill:none;" y2="80" />
    </g>
    <g style="text-rendering:geometricPrecision; font-size:14; font-family:&apos;標楷體&apos;;" transform="translate(62,289)">
      <text x="10" y="16" style="clip-path:url(#clipPath13); stroke:none;" xml:space="preserve">[編輯成功]</text>
    </g>
    <g style="text-rendering:geometricPrecision; font-size:14; font-family:&apos;標楷體&apos;;" transform="translate(142,212)">
      <text x="10" y="16" style="clip-path:url(#clipPath13); stroke:none;" xml:space="preserve">[編輯失敗]</text>
    </g>
    <g style="fill:rgb(120,120,120); text-rendering:geometricPrecision; font-size:10; stroke:rgb(120,120,120);">
    </g>
  </g>
</svg>
