<?xml version="1.0" encoding="UTF-8"?>

<!DOCTYPE svg PUBLIC '-//W3C//DTD SVG 1.0//EN' 'http://www.w3.org/TR/2001/REC-SVG-20010904/DTD/svg10.dtd'>
<svg style="fill-opacity:1; color-rendering:auto; color-interpolation:auto; stroke:black; text-rendering:auto; stroke-linecap:square; stroke-miterlimit:10; stroke-opacity:1; shape-rendering:auto; fill:black; stroke-dasharray:none; font-weight:normal; stroke-width:1; font-family:&apos;Dialog&apos;; font-style:normal; stroke-linejoin:miter; font-size:12; stroke-dashoffset:0; image-rendering:auto;" xmlns="http://www.w3.org/2000/svg" width="856" xmlns:xlink="http://www.w3.org/1999/xlink" height="446">
  <!--Generated by the Batik Graphics2D SVG Generator-->
  <defs id="genericDefs" />
  <g>
    <defs id="defs1">
      <clipPath clipPathUnits="userSpaceOnUse" id="clipPath1">
        <path d="M-3 -3 L857 -3 L857 447 L-3 447 L-3 -3 Z" />
      </clipPath>
      <clipPath clipPathUnits="userSpaceOnUse" id="clipPath2">
        <path d="M0 0 L0 429 L7 429 L7 0 Z" />
      </clipPath>
      <clipPath clipPathUnits="userSpaceOnUse" id="clipPath3">
        <path d="M-3 -3 L286 -3 L286 25 L-3 25 L-3 -3 Z" />
      </clipPath>
      <clipPath clipPathUnits="userSpaceOnUse" id="clipPath4">
        <path d="M0 0 L279 0 L279 18 L0 18 L0 0 Z" />
      </clipPath>
      <clipPath clipPathUnits="userSpaceOnUse" id="clipPath5">
        <path d="M-3 -3 L286 -3 L286 429 L-3 429 L-3 -3 Z" />
      </clipPath>
      <clipPath clipPathUnits="userSpaceOnUse" id="clipPath6">
        <path d="M-3 -3 L397 -3 L397 25 L-3 25 L-3 -3 Z" />
      </clipPath>
      <clipPath clipPathUnits="userSpaceOnUse" id="clipPath7">
        <path d="M0 0 L390 0 L390 18 L0 18 L0 0 Z" />
      </clipPath>
      <clipPath clipPathUnits="userSpaceOnUse" id="clipPath8">
        <path d="M-3 -3 L397 -3 L397 429 L-3 429 L-3 -3 Z" />
      </clipPath>
      <clipPath clipPathUnits="userSpaceOnUse" id="clipPath9">
        <path d="M-3 -3 L188 -3 L188 25 L-3 25 L-3 -3 Z" />
      </clipPath>
      <clipPath clipPathUnits="userSpaceOnUse" id="clipPath10">
        <path d="M0 0 L181 0 L181 18 L0 18 L0 0 Z" />
      </clipPath>
      <clipPath clipPathUnits="userSpaceOnUse" id="clipPath11">
        <path d="M-3 -3 L188 -3 L188 429 L-3 429 L-3 -3 Z" />
      </clipPath>
      <clipPath clipPathUnits="userSpaceOnUse" id="clipPath12">
        <path d="M-3 -3 L47 -3 L47 27 L-3 27 L-3 -3 Z" />
      </clipPath>
      <clipPath clipPathUnits="userSpaceOnUse" id="clipPath13">
        <path d="M-3 -3 L87 -3 L87 57 L-3 57 L-3 -3 Z" />
      </clipPath>
      <clipPath clipPathUnits="userSpaceOnUse" id="clipPath14">
        <path d="M0 0 L80 0 L80 50 L0 50 L0 0 Z" />
      </clipPath>
      <clipPath clipPathUnits="userSpaceOnUse" id="clipPath15">
        <path d="M-3 -3 L28 -3 L28 47 L-3 47 L-3 -3 Z" />
      </clipPath>
      <clipPath clipPathUnits="userSpaceOnUse" id="clipPath16">
        <path d="M-3 -3 L27 -3 L27 47 L-3 47 L-3 -3 Z" />
      </clipPath>
      <clipPath clipPathUnits="userSpaceOnUse" id="clipPath17">
        <path d="M-3 -3 L127 -3 L127 67 L-3 67 L-3 -3 Z" />
      </clipPath>
      <clipPath clipPathUnits="userSpaceOnUse" id="clipPath18">
        <path d="M0 0 L120 0 L120 60 L0 60 L0 0 Z" />
      </clipPath>
      <clipPath clipPathUnits="userSpaceOnUse" id="clipPath19">
        <path d="M-3 -3 L137 -3 L137 67 L-3 67 L-3 -3 Z" />
      </clipPath>
      <clipPath clipPathUnits="userSpaceOnUse" id="clipPath20">
        <path d="M0 0 L130 0 L130 60 L0 60 L0 0 Z" />
      </clipPath>
      <clipPath clipPathUnits="userSpaceOnUse" id="clipPath21">
        <path d="M-3 -3 L107 -3 L107 57 L-3 57 L-3 -3 Z" />
      </clipPath>
      <clipPath clipPathUnits="userSpaceOnUse" id="clipPath22">
        <path d="M0 0 L100 0 L100 50 L0 50 L0 0 Z" />
      </clipPath>
      <clipPath clipPathUnits="userSpaceOnUse" id="clipPath23">
        <path d="M-3 -3 L27 -3 L27 27 L-3 27 L-3 -3 Z" />
      </clipPath>
      <clipPath clipPathUnits="userSpaceOnUse" id="clipPath24">
        <path d="M-3 -3 L107 -3 L107 47 L-3 47 L-3 -3 Z" />
      </clipPath>
      <clipPath clipPathUnits="userSpaceOnUse" id="clipPath25">
        <path d="M0 0 L100 0 L100 40 L0 40 L0 0 Z" />
      </clipPath>
      <clipPath clipPathUnits="userSpaceOnUse" id="clipPath26">
        <path d="M0 0 L181 0 L181 422 L0 422 L0 0 Z" />
      </clipPath>
      <clipPath clipPathUnits="userSpaceOnUse" id="clipPath27">
        <path d="M0 0 L390 0 L390 422 L0 422 L0 0 Z" />
      </clipPath>
      <clipPath clipPathUnits="userSpaceOnUse" id="clipPath28">
        <path d="M0 0 L279 0 L279 422 L0 422 L0 0 Z" />
      </clipPath>
      <clipPath clipPathUnits="userSpaceOnUse" id="clipPath29">
        <path d="M0 0 L104 0 L104 145 L0 145 L0 0 Z" />
      </clipPath>
      <clipPath clipPathUnits="userSpaceOnUse" id="clipPath30">
        <path d="M0 0 L104 0 L104 134 L0 134 L0 0 Z" />
      </clipPath>
      <clipPath clipPathUnits="userSpaceOnUse" id="clipPath31">
        <path d="M0 0 L148 0 L148 104 L0 104 L0 0 Z" />
      </clipPath>
      <clipPath clipPathUnits="userSpaceOnUse" id="clipPath32">
        <path d="M0 0 L128 0 L128 104 L0 104 L0 0 Z" />
      </clipPath>
      <clipPath clipPathUnits="userSpaceOnUse" id="clipPath33">
        <path d="M0 0 L149 0 L149 153 L0 153 L0 0 Z" />
      </clipPath>
      <clipPath clipPathUnits="userSpaceOnUse" id="clipPath34">
        <path d="M0 0 L498 0 L498 250 L0 250 L0 0 Z" />
      </clipPath>
      <clipPath clipPathUnits="userSpaceOnUse" id="clipPath35">
        <path d="M0 0 L138 0 L138 104 L0 104 L0 0 Z" />
      </clipPath>
      <clipPath clipPathUnits="userSpaceOnUse" id="clipPath36">
        <path d="M0 0 L149 0 L149 143 L0 143 L0 0 Z" />
      </clipPath>
      <clipPath clipPathUnits="userSpaceOnUse" id="clipPath37">
        <path d="M0 0 L498 0 L498 230 L0 230 L0 0 Z" />
      </clipPath>
      <clipPath clipPathUnits="userSpaceOnUse" id="clipPath38">
        <path d="M0 0 L144 0 L144 143 L0 143 L0 0 Z" />
      </clipPath>
      <clipPath clipPathUnits="userSpaceOnUse" id="clipPath39">
        <path d="M0 0 L136 0 L136 104 L0 104 L0 0 Z" />
      </clipPath>
      <clipPath clipPathUnits="userSpaceOnUse" id="clipPath40">
        <path d="M0 0 L166 0 L166 104 L0 104 L0 0 Z" />
      </clipPath>
      <clipPath clipPathUnits="userSpaceOnUse" id="clipPath41">
        <path d="M0 0 L90 0 L90 18 L0 18 L0 0 Z" />
      </clipPath>
      <clipPath clipPathUnits="userSpaceOnUse" id="clipPath42">
        <path d="M0 0 L118 0 L118 18 L0 18 L0 0 Z" />
      </clipPath>
    </defs>
    <g style="fill:white; text-rendering:geometricPrecision; stroke:white;">
      <rect x="0" y="0" width="856" style="stroke:none;" height="446" />
    </g>
    <g transform="translate(2,2)" style="text-rendering:geometricPrecision; stroke-width:2; font-size:14; font-family:&apos;標楷體&apos;;">
      <rect x="0" y="0" width="279" style="clip-path:url(#clipPath3); fill:none;" height="18" />
    </g>
    <g style="text-rendering:geometricPrecision; font-size:14; font-family:&apos;標楷體&apos;;" transform="translate(2,2)">
      <text x="125" y="16" style="clip-path:url(#clipPath4); stroke:none;" xml:space="preserve">會員</text>
    </g>
    <g transform="translate(2,20)" style="text-rendering:geometricPrecision; stroke-width:2; font-size:11; font-family:sans-serif;">
      <rect x="0" y="0" width="279" style="clip-path:url(#clipPath5); fill:none;" height="422" />
    </g>
    <g transform="translate(281,2)" style="text-rendering:geometricPrecision; stroke-width:2; font-size:14; font-family:&apos;標楷體&apos;;">
      <rect x="0" y="0" width="390" style="clip-path:url(#clipPath6); fill:none;" height="18" />
    </g>
    <g style="text-rendering:geometricPrecision; font-size:14; font-family:&apos;標楷體&apos;;" transform="translate(281,2)">
      <text x="153" y="16" style="clip-path:url(#clipPath7); stroke:none;" xml:space="preserve">圖片風格轉換</text>
    </g>
    <g transform="translate(281,20)" style="text-rendering:geometricPrecision; stroke-width:2; font-size:11; font-family:sans-serif;">
      <rect x="0" y="0" width="390" style="clip-path:url(#clipPath8); fill:none;" height="422" />
    </g>
    <g transform="translate(671,2)" style="text-rendering:geometricPrecision; stroke-width:2; font-size:14; font-family:&apos;標楷體&apos;;">
      <rect x="0" y="0" width="181" style="clip-path:url(#clipPath9); fill:none;" height="18" />
    </g>
    <g style="text-rendering:geometricPrecision; font-size:14; font-family:&apos;標楷體&apos;;" transform="translate(671,2)">
      <text x="69" y="16" style="clip-path:url(#clipPath10); stroke:none;" xml:space="preserve">資料庫</text>
    </g>
    <g transform="translate(671,20)" style="text-rendering:geometricPrecision; stroke-width:2; font-size:11; font-family:sans-serif;">
      <rect x="0" y="0" width="181" style="clip-path:url(#clipPath11); fill:none;" height="422" />
    </g>
    <g style="text-rendering:geometricPrecision; font-size:11; font-family:sans-serif;" transform="translate(112,72)">
      <circle style="clip-path:url(#clipPath12); stroke:none;" r="10" cx="20" cy="10" />
    </g>
    <g transform="translate(92,132)" style="font-size:14; fill:rgb(122,207,245); text-rendering:geometricPrecision; font-family:&apos;標楷體&apos;; stroke:rgb(122,207,245);">
      <rect x="1" y="1" width="78" style="clip-path:url(#clipPath13); stroke:none;" rx="15" ry="15" height="48" />
    </g>
    <g transform="translate(92,132)" style="font-size:14; stroke-linecap:butt; text-rendering:geometricPrecision; font-family:&apos;標楷體&apos;; stroke-linejoin:round; stroke-miterlimit:0;">
      <rect x="1" y="1" width="78" style="clip-path:url(#clipPath13); fill:none;" rx="15" ry="15" height="48" />
    </g>
    <g style="text-rendering:geometricPrecision; font-size:14; font-family:&apos;標楷體&apos;;" transform="translate(92,132)">
      <text x="12" y="32" style="clip-path:url(#clipPath14); stroke:none;" xml:space="preserve">會員登入</text>
    </g>
    <g transform="translate(122,202)" style="font-size:11; fill:rgb(122,207,245); text-rendering:geometricPrecision; font-family:sans-serif; stroke:rgb(122,207,245);">
      <polygon style="clip-path:url(#clipPath15); stroke:none;" points=" 10 7 18 20 10 32 3 20" />
    </g>
    <g transform="translate(122,202)" style="font-size:11; stroke-linecap:butt; text-rendering:geometricPrecision; font-family:sans-serif; stroke-linejoin:round; stroke-miterlimit:0;">
      <polygon style="fill:none; clip-path:url(#clipPath15);" points=" 10 7 18 20 10 32 3 20" />
    </g>
    <g transform="translate(321,202)" style="font-size:11; fill:rgb(122,207,245); text-rendering:geometricPrecision; font-family:sans-serif; stroke:rgb(122,207,245);">
      <polygon style="clip-path:url(#clipPath16); stroke:none;" points=" 10 7 17 20 10 32 3 20" />
    </g>
    <g transform="translate(321,202)" style="font-size:11; stroke-linecap:butt; text-rendering:geometricPrecision; font-family:sans-serif; stroke-linejoin:round; stroke-miterlimit:0;">
      <polygon style="fill:none; clip-path:url(#clipPath16);" points=" 10 7 17 20 10 32 3 20" />
    </g>
    <g transform="translate(371,142)" style="font-size:14; fill:rgb(122,207,245); text-rendering:geometricPrecision; font-family:&apos;標楷體&apos;; stroke:rgb(122,207,245);">
      <rect x="1" y="1" width="118" style="clip-path:url(#clipPath17); stroke:none;" rx="15" ry="15" height="58" />
    </g>
    <g transform="translate(371,142)" style="font-size:14; stroke-linecap:butt; text-rendering:geometricPrecision; font-family:&apos;標楷體&apos;; stroke-linejoin:round; stroke-miterlimit:0;">
      <rect x="1" y="1" width="118" style="clip-path:url(#clipPath17); fill:none;" rx="15" ry="15" height="58" />
    </g>
    <g style="text-rendering:geometricPrecision; font-size:14; font-family:&apos;標楷體&apos;;" transform="translate(371,142)">
      <text x="32" y="37" style="clip-path:url(#clipPath18); stroke:none;" xml:space="preserve">上傳圖片</text>
    </g>
    <g transform="translate(371,242)" style="font-size:14; fill:rgb(122,207,245); text-rendering:geometricPrecision; font-family:&apos;標楷體&apos;; stroke:rgb(122,207,245);">
      <rect x="1" y="1" width="128" style="clip-path:url(#clipPath19); stroke:none;" rx="15" ry="15" height="58" />
    </g>
    <g transform="translate(371,242)" style="font-size:14; stroke-linecap:butt; text-rendering:geometricPrecision; font-family:&apos;標楷體&apos;; stroke-linejoin:round; stroke-miterlimit:0;">
      <rect x="1" y="1" width="128" style="clip-path:url(#clipPath19); fill:none;" rx="15" ry="15" height="58" />
    </g>
    <g style="text-rendering:geometricPrecision; font-size:14; font-family:&apos;標楷體&apos;;" transform="translate(371,242)">
      <text x="16" y="37" style="clip-path:url(#clipPath20); stroke:none;" xml:space="preserve">從相簿選擇照片</text>
    </g>
    <g transform="translate(521,152)" style="font-size:11; fill:rgb(122,207,245); text-rendering:geometricPrecision; font-family:sans-serif; stroke:rgb(122,207,245);">
      <polygon style="clip-path:url(#clipPath16); stroke:none;" points=" 10 7 17 20 10 32 3 20" />
    </g>
    <g transform="translate(521,152)" style="font-size:11; stroke-linecap:butt; text-rendering:geometricPrecision; font-family:sans-serif; stroke-linejoin:round; stroke-miterlimit:0;">
      <polygon style="fill:none; clip-path:url(#clipPath16);" points=" 10 7 17 20 10 32 3 20" />
    </g>
    <g transform="translate(521,262)" style="font-size:11; fill:rgb(122,207,245); text-rendering:geometricPrecision; font-family:sans-serif; stroke:rgb(122,207,245);">
      <polygon style="clip-path:url(#clipPath16); stroke:none;" points=" 10 7 17 20 10 32 3 20" />
    </g>
    <g transform="translate(521,262)" style="font-size:11; stroke-linecap:butt; text-rendering:geometricPrecision; font-family:sans-serif; stroke-linejoin:round; stroke-miterlimit:0;">
      <polygon style="fill:none; clip-path:url(#clipPath16);" points=" 10 7 17 20 10 32 3 20" />
    </g>
    <g transform="translate(571,202)" style="font-size:11; fill:rgb(122,207,245); text-rendering:geometricPrecision; font-family:sans-serif; stroke:rgb(122,207,245);">
      <polygon style="clip-path:url(#clipPath16); stroke:none;" points=" 10 7 17 20 10 32 3 20" />
    </g>
    <g transform="translate(571,202)" style="font-size:11; stroke-linecap:butt; text-rendering:geometricPrecision; font-family:sans-serif; stroke-linejoin:round; stroke-miterlimit:0;">
      <polygon style="fill:none; clip-path:url(#clipPath16);" points=" 10 7 17 20 10 32 3 20" />
    </g>
    <g transform="translate(631,192)" style="font-size:14; fill:rgb(122,207,245); text-rendering:geometricPrecision; font-family:&apos;標楷體&apos;; stroke:rgb(122,207,245);">
      <rect x="1" y="1" width="98" style="clip-path:url(#clipPath21); stroke:none;" rx="15" ry="15" height="48" />
    </g>
    <g transform="translate(631,192)" style="font-size:14; stroke-linecap:butt; text-rendering:geometricPrecision; font-family:&apos;標楷體&apos;; stroke-linejoin:round; stroke-miterlimit:0;">
      <rect x="1" y="1" width="98" style="clip-path:url(#clipPath21); fill:none;" rx="15" ry="15" height="48" />
    </g>
    <g style="text-rendering:geometricPrecision; font-size:14; font-family:&apos;標楷體&apos;;" transform="translate(631,192)">
      <text x="22" y="32" style="clip-path:url(#clipPath22); stroke:none;" xml:space="preserve">風格轉換</text>
    </g>
    <g style="text-rendering:geometricPrecision; font-size:11; font-family:sans-serif;" transform="translate(761,212)">
      <circle style="clip-path:url(#clipPath23); stroke:none;" r="6.6667" cx="10" cy="10" />
      <circle style="stroke-linecap:butt; clip-path:url(#clipPath23); fill:none; stroke-linejoin:round; stroke-miterlimit:0;" r="10" cx="10" cy="10" />
    </g>
    <g transform="translate(201,202)" style="font-size:14; fill:rgb(122,207,245); text-rendering:geometricPrecision; font-family:&apos;標楷體&apos;; stroke:rgb(122,207,245);">
      <rect x="1" y="1" width="98" style="clip-path:url(#clipPath24); stroke:none;" rx="15" ry="15" height="38" />
    </g>
    <g transform="translate(201,202)" style="font-size:14; stroke-linecap:butt; text-rendering:geometricPrecision; font-family:&apos;標楷體&apos;; stroke-linejoin:round; stroke-miterlimit:0;">
      <rect x="1" y="1" width="98" style="clip-path:url(#clipPath24); fill:none;" rx="15" ry="15" height="38" />
    </g>
    <g style="text-rendering:geometricPrecision; font-size:14; font-family:&apos;標楷體&apos;;" transform="translate(201,202)">
      <text x="8" y="27" style="clip-path:url(#clipPath25); stroke:none;" xml:space="preserve">圖片風格轉換</text>
    </g>
    <g transform="translate(82,41)" style="font-size:11; stroke-linecap:butt; text-rendering:geometricPrecision; font-family:sans-serif; stroke-linejoin:round;">
      <line x1="50" x2="50" y1="50" style="clip-path:url(#clipPath29); fill:none;" y2="91" />
      <line x1="50" x2="56" y1="91" style="clip-path:url(#clipPath29); fill:none;" y2="79" />
      <line x1="50" x2="44" y1="91" style="clip-path:url(#clipPath29); fill:none;" y2="79" />
    </g>
    <g transform="translate(82,131)" style="font-size:11; stroke-linecap:butt; text-rendering:geometricPrecision; font-family:sans-serif; stroke-linejoin:round;">
      <line x1="50" x2="50" y1="50" style="clip-path:url(#clipPath30); fill:none;" y2="80" />
      <line x1="50" x2="56" y1="80" style="clip-path:url(#clipPath30); fill:none;" y2="68" />
      <line x1="50" x2="44" y1="80" style="clip-path:url(#clipPath30); fill:none;" y2="68" />
    </g>
    <g transform="translate(537,172)" style="font-size:11; stroke-linecap:butt; text-rendering:geometricPrecision; font-family:sans-serif; stroke-linejoin:round;">
      <line x1="50" x2="94" y1="50" style="clip-path:url(#clipPath31); fill:none;" y2="50" />
      <line x1="94" x2="82" y1="50" style="clip-path:url(#clipPath31); fill:none;" y2="44" />
      <line x1="94" x2="82" y1="50" style="clip-path:url(#clipPath31); fill:none;" y2="56" />
    </g>
    <g transform="translate(450,232)" style="font-size:11; stroke-linecap:butt; text-rendering:geometricPrecision; font-family:sans-serif; stroke-linejoin:round;">
      <line x1="50" x2="74" y1="50" style="clip-path:url(#clipPath32); fill:none;" y2="50" />
      <line x1="74" x2="62" y1="50" style="clip-path:url(#clipPath32); fill:none;" y2="44" />
      <line x1="74" x2="62" y1="50" style="clip-path:url(#clipPath32); fill:none;" y2="56" />
    </g>
    <g transform="translate(487,183)" style="font-size:14; stroke-linecap:butt; text-rendering:geometricPrecision; font-family:&apos;標楷體&apos;; stroke-linejoin:round;">
      <line x1="50" x2="95" y1="99" style="clip-path:url(#clipPath33); fill:none;" y2="99" />
      <line x1="95" x2="94" y1="99" style="clip-path:url(#clipPath33); fill:none;" y2="50" />
      <line x1="94" x2="88" y1="50" style="clip-path:url(#clipPath33); fill:none;" y2="62" />
      <line x1="94" x2="100" y1="50" style="clip-path:url(#clipPath33); fill:none;" y2="62" />
    </g>
    <g transform="translate(88,176)" style="font-size:14; stroke-linecap:butt; text-rendering:geometricPrecision; font-family:&apos;標楷體&apos;; stroke-linejoin:round;">
      <line x1="443" x2="444" y1="117" style="clip-path:url(#clipPath34); fill:none;" y2="196" />
      <line x1="444" x2="224" y1="196" style="clip-path:url(#clipPath34); fill:none;" y2="196" />
      <line x1="224" x2="50" y1="196" style="clip-path:url(#clipPath34); fill:none;" y2="50" />
      <line x1="50" x2="55" y1="50" style="clip-path:url(#clipPath34); fill:none;" y2="62" />
      <line x1="50" x2="62" y1="50" style="clip-path:url(#clipPath34); fill:none;" y2="52" />
    </g>
    <g transform="translate(440,122)" style="font-size:11; stroke-linecap:butt; text-rendering:geometricPrecision; font-family:sans-serif; stroke-linejoin:round;">
      <line x1="50" x2="84" y1="50" style="clip-path:url(#clipPath35); fill:none;" y2="50" />
      <line x1="84" x2="72" y1="50" style="clip-path:url(#clipPath35); fill:none;" y2="44" />
      <line x1="84" x2="72" y1="50" style="clip-path:url(#clipPath35); fill:none;" y2="56" />
    </g>
    <g transform="translate(487,122)" style="font-size:14; stroke-linecap:butt; text-rendering:geometricPrecision; font-family:&apos;標楷體&apos;; stroke-linejoin:round;">
      <line x1="50" x2="95" y1="50" style="clip-path:url(#clipPath36); fill:none;" y2="50" />
      <line x1="95" x2="94" y1="50" style="clip-path:url(#clipPath36); fill:none;" y2="89" />
      <line x1="94" x2="100" y1="89" style="clip-path:url(#clipPath36); fill:none;" y2="77" />
      <line x1="94" x2="88" y1="89" style="clip-path:url(#clipPath36); fill:none;" y2="77" />
    </g>
    <g transform="translate(88,42)" style="font-size:14; stroke-linecap:butt; text-rendering:geometricPrecision; font-family:&apos;標楷體&apos;; stroke-linejoin:round;">
      <line x1="443" x2="444" y1="119" style="clip-path:url(#clipPath37); fill:none;" y2="50" />
      <line x1="444" x2="224" y1="50" style="clip-path:url(#clipPath37); fill:none;" y2="50" />
      <line x1="224" x2="50" y1="50" style="clip-path:url(#clipPath37); fill:none;" y2="176" />
      <line x1="50" x2="63" y1="176" style="clip-path:url(#clipPath37); fill:none;" y2="174" />
      <line x1="50" x2="56" y1="176" style="clip-path:url(#clipPath37); fill:none;" y2="164" />
    </g>
    <g transform="translate(281,122)" style="font-size:11; stroke-linecap:butt; text-rendering:geometricPrecision; font-family:sans-serif; stroke-linejoin:round;">
      <line x1="50" x2="51" y1="89" style="clip-path:url(#clipPath38); fill:none;" y2="50" />
      <line x1="51" x2="90" y1="50" style="clip-path:url(#clipPath38); fill:none;" y2="50" />
      <line x1="90" x2="78" y1="50" style="clip-path:url(#clipPath38); fill:none;" y2="44" />
      <line x1="90" x2="78" y1="50" style="clip-path:url(#clipPath38); fill:none;" y2="56" />
    </g>
    <g transform="translate(281,183)" style="font-size:11; stroke-linecap:butt; text-rendering:geometricPrecision; font-family:sans-serif; stroke-linejoin:round;">
      <line x1="50" x2="51" y1="50" style="clip-path:url(#clipPath38); fill:none;" y2="89" />
      <line x1="51" x2="90" y1="89" style="clip-path:url(#clipPath38); fill:none;" y2="89" />
      <line x1="90" x2="78" y1="89" style="clip-path:url(#clipPath38); fill:none;" y2="83" />
      <line x1="90" x2="78" y1="89" style="clip-path:url(#clipPath38); fill:none;" y2="95" />
    </g>
    <g transform="translate(680,172)" style="font-size:11; stroke-linecap:butt; text-rendering:geometricPrecision; font-family:sans-serif; stroke-linejoin:round;">
      <line x1="50" x2="82" y1="50" style="clip-path:url(#clipPath39); fill:none;" y2="50" />
      <line x1="82" x2="70" y1="50" style="clip-path:url(#clipPath39); fill:none;" y2="44" />
      <line x1="82" x2="70" y1="50" style="clip-path:url(#clipPath39); fill:none;" y2="56" />
    </g>
    <g transform="translate(89,172)" style="font-size:11; stroke-linecap:butt; text-rendering:geometricPrecision; font-family:sans-serif; stroke-linejoin:round;">
      <line x1="50" x2="112" y1="50" style="clip-path:url(#clipPath40); fill:none;" y2="50" />
      <line x1="112" x2="100" y1="50" style="clip-path:url(#clipPath40); fill:none;" y2="44" />
      <line x1="112" x2="100" y1="50" style="clip-path:url(#clipPath40); fill:none;" y2="56" />
    </g>
    <g transform="translate(250,172)" style="font-size:11; stroke-linecap:butt; text-rendering:geometricPrecision; font-family:sans-serif; stroke-linejoin:round;">
      <line x1="50" x2="74" y1="50" style="clip-path:url(#clipPath32); fill:none;" y2="50" />
      <line x1="74" x2="62" y1="50" style="clip-path:url(#clipPath32); fill:none;" y2="44" />
      <line x1="74" x2="62" y1="50" style="clip-path:url(#clipPath32); fill:none;" y2="56" />
    </g>
    <g style="text-rendering:geometricPrecision; font-size:14; font-family:&apos;標楷體&apos;;" transform="translate(372,62)">
      <text x="10" y="16" style="clip-path:url(#clipPath41); stroke:none;" xml:space="preserve">[上傳失敗]</text>
    </g>
    <g style="text-rendering:geometricPrecision; font-size:14; font-family:&apos;標楷體&apos;;" transform="translate(543,141)">
      <text x="10" y="16" style="clip-path:url(#clipPath41); stroke:none;" xml:space="preserve">[上傳成功]</text>
    </g>
    <g style="text-rendering:geometricPrecision; font-size:14; font-family:&apos;標楷體&apos;;" transform="translate(369,391)">
      <text x="10" y="16" style="clip-path:url(#clipPath42); stroke:none;" xml:space="preserve">[無法讀取照片]</text>
    </g>
    <g style="text-rendering:geometricPrecision; font-size:14; font-family:&apos;標楷體&apos;;" transform="translate(542,292)">
      <text x="10" y="16" style="clip-path:url(#clipPath41); stroke:none;" xml:space="preserve">[讀取成功]</text>
    </g>
    <g style="fill:rgb(120,120,120); text-rendering:geometricPrecision; font-size:10; stroke:rgb(120,120,120);">
    </g>
  </g>
</svg>
