<?xml version="1.0" encoding="UTF-8"?>

<!DOCTYPE svg PUBLIC '-//W3C//DTD SVG 1.0//EN' 'http://www.w3.org/TR/2001/REC-SVG-20010904/DTD/svg10.dtd'>
<svg style="fill-opacity:1; color-rendering:auto; color-interpolation:auto; stroke:black; text-rendering:auto; stroke-linecap:square; stroke-miterlimit:10; stroke-opacity:1; shape-rendering:auto; fill:black; stroke-dasharray:none; font-weight:normal; stroke-width:1; font-family:&apos;Dialog&apos;; font-style:normal; stroke-linejoin:miter; font-size:12; stroke-dashoffset:0; image-rendering:auto;" xmlns="http://www.w3.org/2000/svg" width="696" xmlns:xlink="http://www.w3.org/1999/xlink" height="446">
  <!--Generated by the Batik Graphics2D SVG Generator-->
  <defs id="genericDefs" />
  <g>
    <defs id="defs1">
      <clipPath clipPathUnits="userSpaceOnUse" id="clipPath1">
        <path d="M-3 -3 L697 -3 L697 447 L-3 447 L-3 -3 Z" />
      </clipPath>
      <clipPath clipPathUnits="userSpaceOnUse" id="clipPath2">
        <path d="M0 0 L0 429 L7 429 L7 0 Z" />
      </clipPath>
      <clipPath clipPathUnits="userSpaceOnUse" id="clipPath3">
        <path d="M-3 -3 L207 -3 L207 25 L-3 25 L-3 -3 Z" />
      </clipPath>
      <clipPath clipPathUnits="userSpaceOnUse" id="clipPath4">
        <path d="M0 0 L200 0 L200 18 L0 18 L0 0 Z" />
      </clipPath>
      <clipPath clipPathUnits="userSpaceOnUse" id="clipPath5">
        <path d="M-3 -3 L207 -3 L207 429 L-3 429 L-3 -3 Z" />
      </clipPath>
      <clipPath clipPathUnits="userSpaceOnUse" id="clipPath6">
        <path d="M-3 -3 L337 -3 L337 25 L-3 25 L-3 -3 Z" />
      </clipPath>
      <clipPath clipPathUnits="userSpaceOnUse" id="clipPath7">
        <path d="M0 0 L330 0 L330 18 L0 18 L0 0 Z" />
      </clipPath>
      <clipPath clipPathUnits="userSpaceOnUse" id="clipPath8">
        <path d="M-3 -3 L337 -3 L337 429 L-3 429 L-3 -3 Z" />
      </clipPath>
      <clipPath clipPathUnits="userSpaceOnUse" id="clipPath9">
        <path d="M-3 -3 L167 -3 L167 25 L-3 25 L-3 -3 Z" />
      </clipPath>
      <clipPath clipPathUnits="userSpaceOnUse" id="clipPath10">
        <path d="M0 0 L160 0 L160 18 L0 18 L0 0 Z" />
      </clipPath>
      <clipPath clipPathUnits="userSpaceOnUse" id="clipPath11">
        <path d="M-3 -3 L167 -3 L167 429 L-3 429 L-3 -3 Z" />
      </clipPath>
      <clipPath clipPathUnits="userSpaceOnUse" id="clipPath12">
        <path d="M-3 -3 L47 -3 L47 27 L-3 27 L-3 -3 Z" />
      </clipPath>
      <clipPath clipPathUnits="userSpaceOnUse" id="clipPath13">
        <path d="M-3 -3 L87 -3 L87 57 L-3 57 L-3 -3 Z" />
      </clipPath>
      <clipPath clipPathUnits="userSpaceOnUse" id="clipPath14">
        <path d="M0 0 L80 0 L80 50 L0 50 L0 0 Z" />
      </clipPath>
      <clipPath clipPathUnits="userSpaceOnUse" id="clipPath15">
        <path d="M-3 -3 L27 -3 L27 47 L-3 47 L-3 -3 Z" />
      </clipPath>
      <clipPath clipPathUnits="userSpaceOnUse" id="clipPath16">
        <path d="M-3 -3 L127 -3 L127 57 L-3 57 L-3 -3 Z" />
      </clipPath>
      <clipPath clipPathUnits="userSpaceOnUse" id="clipPath17">
        <path d="M0 0 L120 0 L120 50 L0 50 L0 0 Z" />
      </clipPath>
      <clipPath clipPathUnits="userSpaceOnUse" id="clipPath18">
        <path d="M-3 -3 L27 -3 L27 27 L-3 27 L-3 -3 Z" />
      </clipPath>
      <clipPath clipPathUnits="userSpaceOnUse" id="clipPath19">
        <path d="M-3 -3 L97 -3 L97 57 L-3 57 L-3 -3 Z" />
      </clipPath>
      <clipPath clipPathUnits="userSpaceOnUse" id="clipPath20">
        <path d="M0 0 L90 0 L90 50 L0 50 L0 0 Z" />
      </clipPath>
      <clipPath clipPathUnits="userSpaceOnUse" id="clipPath21">
        <path d="M0 0 L160 0 L160 422 L0 422 L0 0 Z" />
      </clipPath>
      <clipPath clipPathUnits="userSpaceOnUse" id="clipPath22">
        <path d="M0 0 L330 0 L330 422 L0 422 L0 0 Z" />
      </clipPath>
      <clipPath clipPathUnits="userSpaceOnUse" id="clipPath23">
        <path d="M0 0 L200 0 L200 422 L0 422 L0 0 Z" />
      </clipPath>
      <clipPath clipPathUnits="userSpaceOnUse" id="clipPath24">
        <path d="M0 0 L146 0 L146 104 L0 104 L0 0 Z" />
      </clipPath>
      <clipPath clipPathUnits="userSpaceOnUse" id="clipPath25">
        <path d="M0 0 L104 0 L104 155 L0 155 L0 0 Z" />
      </clipPath>
      <clipPath clipPathUnits="userSpaceOnUse" id="clipPath26">
        <path d="M0 0 L104 0 L104 143 L0 143 L0 0 Z" />
      </clipPath>
      <clipPath clipPathUnits="userSpaceOnUse" id="clipPath27">
        <path d="M0 0 L158 0 L158 104 L0 104 L0 0 Z" />
      </clipPath>
      <clipPath clipPathUnits="userSpaceOnUse" id="clipPath28">
        <path d="M0 0 L438 0 L438 241 L0 241 L0 0 Z" />
      </clipPath>
      <clipPath clipPathUnits="userSpaceOnUse" id="clipPath29">
        <path d="M0 0 L439 0 L439 270 L0 270 L0 0 Z" />
      </clipPath>
      <clipPath clipPathUnits="userSpaceOnUse" id="clipPath30">
        <path d="M0 0 L128 0 L128 104 L0 104 L0 0 Z" />
      </clipPath>
      <clipPath clipPathUnits="userSpaceOnUse" id="clipPath31">
        <path d="M0 0 L118 0 L118 153 L0 153 L0 0 Z" />
      </clipPath>
      <clipPath clipPathUnits="userSpaceOnUse" id="clipPath32">
        <path d="M0 0 L118 0 L118 162 L0 162 L0 0 Z" />
      </clipPath>
      <clipPath clipPathUnits="userSpaceOnUse" id="clipPath33">
        <path d="M0 0 L138 0 L138 104 L0 104 L0 0 Z" />
      </clipPath>
      <clipPath clipPathUnits="userSpaceOnUse" id="clipPath34">
        <path d="M0 0 L124 0 L124 162 L0 162 L0 0 Z" />
      </clipPath>
      <clipPath clipPathUnits="userSpaceOnUse" id="clipPath35">
        <path d="M0 0 L124 0 L124 153 L0 153 L0 0 Z" />
      </clipPath>
      <clipPath clipPathUnits="userSpaceOnUse" id="clipPath36">
        <path d="M0 0 L90 0 L90 18 L0 18 L0 0 Z" />
      </clipPath>
      <clipPath clipPathUnits="userSpaceOnUse" id="clipPath37">
        <path d="M0 0 L118 0 L118 18 L0 18 L0 0 Z" />
      </clipPath>
    </defs>
    <g style="fill:white; text-rendering:geometricPrecision; stroke:white;">
      <rect x="0" y="0" width="696" style="stroke:none;" height="446" />
    </g>
    <g transform="translate(2,2)" style="text-rendering:geometricPrecision; stroke-width:2; font-size:14; font-family:&apos;標楷體&apos;;">
      <rect x="0" y="0" width="200" style="clip-path:url(#clipPath3); fill:none;" height="18" />
    </g>
    <g style="text-rendering:geometricPrecision; font-size:14; font-family:&apos;標楷體&apos;;" transform="translate(2,2)">
      <text x="86" y="16" style="clip-path:url(#clipPath4); stroke:none;" xml:space="preserve">會員</text>
    </g>
    <g transform="translate(2,20)" style="text-rendering:geometricPrecision; stroke-width:2; font-size:11; font-family:sans-serif;">
      <rect x="0" y="0" width="200" style="clip-path:url(#clipPath5); fill:none;" height="422" />
    </g>
    <g transform="translate(202,2)" style="text-rendering:geometricPrecision; stroke-width:2; font-size:14; font-family:&apos;標楷體&apos;;">
      <rect x="0" y="0" width="330" style="clip-path:url(#clipPath6); fill:none;" height="18" />
    </g>
    <g style="text-rendering:geometricPrecision; font-size:14; font-family:&apos;標楷體&apos;;" transform="translate(202,2)">
      <text x="137" y="16" style="clip-path:url(#clipPath7); stroke:none;" xml:space="preserve">寵物辨識</text>
    </g>
    <g transform="translate(202,20)" style="text-rendering:geometricPrecision; stroke-width:2; font-size:11; font-family:sans-serif;">
      <rect x="0" y="0" width="330" style="clip-path:url(#clipPath8); fill:none;" height="422" />
    </g>
    <g transform="translate(532,2)" style="text-rendering:geometricPrecision; stroke-width:2; font-size:14; font-family:&apos;標楷體&apos;;">
      <rect x="0" y="0" width="160" style="clip-path:url(#clipPath9); fill:none;" height="18" />
    </g>
    <g style="text-rendering:geometricPrecision; font-size:14; font-family:&apos;標楷體&apos;;" transform="translate(532,2)">
      <text x="59" y="16" style="clip-path:url(#clipPath10); stroke:none;" xml:space="preserve">資料庫</text>
    </g>
    <g transform="translate(532,20)" style="text-rendering:geometricPrecision; stroke-width:2; font-size:11; font-family:sans-serif;">
      <rect x="0" y="0" width="160" style="clip-path:url(#clipPath11); fill:none;" height="422" />
    </g>
    <g style="text-rendering:geometricPrecision; font-size:11; font-family:sans-serif;" transform="translate(72,82)">
      <circle style="clip-path:url(#clipPath12); stroke:none;" r="10" cx="20" cy="10" />
    </g>
    <g transform="translate(62,152)" style="font-size:14; fill:rgb(122,207,245); text-rendering:geometricPrecision; font-family:&apos;標楷體&apos;; stroke:rgb(122,207,245);">
      <rect x="1" y="1" width="78" style="clip-path:url(#clipPath13); stroke:none;" rx="15" ry="15" height="48" />
    </g>
    <g transform="translate(62,152)" style="font-size:14; stroke-linecap:butt; text-rendering:geometricPrecision; font-family:&apos;標楷體&apos;; stroke-linejoin:round; stroke-miterlimit:0;">
      <rect x="1" y="1" width="78" style="clip-path:url(#clipPath13); fill:none;" rx="15" ry="15" height="48" />
    </g>
    <g style="text-rendering:geometricPrecision; font-size:14; font-family:&apos;標楷體&apos;;" transform="translate(62,152)">
      <text x="12" y="32" style="clip-path:url(#clipPath14); stroke:none;" xml:space="preserve">會員登入</text>
    </g>
    <g transform="translate(82,232)" style="font-size:11; fill:rgb(122,207,245); text-rendering:geometricPrecision; font-family:sans-serif; stroke:rgb(122,207,245);">
      <polygon style="clip-path:url(#clipPath15); stroke:none;" points=" 10 7 17 20 10 32 3 20" />
    </g>
    <g transform="translate(82,232)" style="font-size:11; stroke-linecap:butt; text-rendering:geometricPrecision; font-family:sans-serif; stroke-linejoin:round; stroke-miterlimit:0;">
      <polygon style="fill:none; clip-path:url(#clipPath15);" points=" 10 7 17 20 10 32 3 20" />
    </g>
    <g transform="translate(252,222)" style="font-size:11; fill:rgb(122,207,245); text-rendering:geometricPrecision; font-family:sans-serif; stroke:rgb(122,207,245);">
      <polygon style="clip-path:url(#clipPath15); stroke:none;" points=" 10 7 17 20 10 32 3 20" />
    </g>
    <g transform="translate(252,222)" style="font-size:11; stroke-linecap:butt; text-rendering:geometricPrecision; font-family:sans-serif; stroke-linejoin:round; stroke-miterlimit:0;">
      <polygon style="fill:none; clip-path:url(#clipPath15);" points=" 10 7 17 20 10 32 3 20" />
    </g>
    <g transform="translate(282,152)" style="font-size:14; fill:rgb(122,207,245); text-rendering:geometricPrecision; font-family:&apos;標楷體&apos;; stroke:rgb(122,207,245);">
      <rect x="1" y="1" width="118" style="clip-path:url(#clipPath16); stroke:none;" rx="15" ry="15" height="48" />
    </g>
    <g transform="translate(282,152)" style="font-size:14; stroke-linecap:butt; text-rendering:geometricPrecision; font-family:&apos;標楷體&apos;; stroke-linejoin:round; stroke-miterlimit:0;">
      <rect x="1" y="1" width="118" style="clip-path:url(#clipPath16); fill:none;" rx="15" ry="15" height="48" />
    </g>
    <g style="text-rendering:geometricPrecision; font-size:14; font-family:&apos;標楷體&apos;;" transform="translate(282,152)">
      <text x="32" y="32" style="clip-path:url(#clipPath17); stroke:none;" xml:space="preserve">上傳圖片</text>
    </g>
    <g transform="translate(282,282)" style="font-size:14; fill:rgb(122,207,245); text-rendering:geometricPrecision; font-family:&apos;標楷體&apos;; stroke:rgb(122,207,245);">
      <rect x="1" y="1" width="118" style="clip-path:url(#clipPath16); stroke:none;" rx="15" ry="15" height="48" />
    </g>
    <g transform="translate(282,282)" style="font-size:14; stroke-linecap:butt; text-rendering:geometricPrecision; font-family:&apos;標楷體&apos;; stroke-linejoin:round; stroke-miterlimit:0;">
      <rect x="1" y="1" width="118" style="clip-path:url(#clipPath16); fill:none;" rx="15" ry="15" height="48" />
    </g>
    <g style="text-rendering:geometricPrecision; font-size:14; font-family:&apos;標楷體&apos;;" transform="translate(282,282)">
      <text x="11" y="32" style="clip-path:url(#clipPath17); stroke:none;" xml:space="preserve">從相簿選擇照片</text>
    </g>
    <g transform="translate(422,152)" style="font-size:11; fill:rgb(122,207,245); text-rendering:geometricPrecision; font-family:sans-serif; stroke:rgb(122,207,245);">
      <polygon style="clip-path:url(#clipPath15); stroke:none;" points=" 10 7 17 20 10 32 3 20" />
    </g>
    <g transform="translate(422,152)" style="font-size:11; stroke-linecap:butt; text-rendering:geometricPrecision; font-family:sans-serif; stroke-linejoin:round; stroke-miterlimit:0;">
      <polygon style="fill:none; clip-path:url(#clipPath15);" points=" 10 7 17 20 10 32 3 20" />
    </g>
    <g transform="translate(422,282)" style="font-size:11; fill:rgb(122,207,245); text-rendering:geometricPrecision; font-family:sans-serif; stroke:rgb(122,207,245);">
      <polygon style="clip-path:url(#clipPath15); stroke:none;" points=" 10 7 17 20 10 32 3 20" />
    </g>
    <g transform="translate(422,282)" style="font-size:11; stroke-linecap:butt; text-rendering:geometricPrecision; font-family:sans-serif; stroke-linejoin:round; stroke-miterlimit:0;">
      <polygon style="fill:none; clip-path:url(#clipPath15);" points=" 10 7 17 20 10 32 3 20" />
    </g>
    <g transform="translate(442,222)" style="font-size:11; fill:rgb(122,207,245); text-rendering:geometricPrecision; font-family:sans-serif; stroke:rgb(122,207,245);">
      <polygon style="clip-path:url(#clipPath15); stroke:none;" points=" 10 7 17 20 10 32 3 20" />
    </g>
    <g transform="translate(442,222)" style="font-size:11; stroke-linecap:butt; text-rendering:geometricPrecision; font-family:sans-serif; stroke-linejoin:round; stroke-miterlimit:0;">
      <polygon style="fill:none; clip-path:url(#clipPath15);" points=" 10 7 17 20 10 32 3 20" />
    </g>
    <g style="text-rendering:geometricPrecision; font-size:11; font-family:sans-serif;" transform="translate(622,242)">
      <circle style="clip-path:url(#clipPath18); stroke:none;" r="6.6667" cx="10" cy="10" />
      <circle style="stroke-linecap:butt; clip-path:url(#clipPath18); fill:none; stroke-linejoin:round; stroke-miterlimit:0;" r="10" cx="10" cy="10" />
    </g>
    <g transform="translate(152,222)" style="font-size:14; fill:rgb(122,207,245); text-rendering:geometricPrecision; font-family:&apos;標楷體&apos;; stroke:rgb(122,207,245);">
      <rect x="1" y="1" width="78" style="clip-path:url(#clipPath13); stroke:none;" rx="15" ry="15" height="48" />
    </g>
    <g transform="translate(152,222)" style="font-size:14; stroke-linecap:butt; text-rendering:geometricPrecision; font-family:&apos;標楷體&apos;; stroke-linejoin:round; stroke-miterlimit:0;">
      <rect x="1" y="1" width="78" style="clip-path:url(#clipPath13); fill:none;" rx="15" ry="15" height="48" />
    </g>
    <g style="text-rendering:geometricPrecision; font-size:14; font-family:&apos;標楷體&apos;;" transform="translate(152,222)">
      <text x="12" y="32" style="clip-path:url(#clipPath14); stroke:none;" xml:space="preserve">寵物辨識</text>
    </g>
    <g transform="translate(492,222)" style="font-size:14; fill:rgb(122,207,245); text-rendering:geometricPrecision; font-family:&apos;標楷體&apos;; stroke:rgb(122,207,245);">
      <rect x="1" y="1" width="88" style="clip-path:url(#clipPath19); stroke:none;" rx="15" ry="15" height="48" />
    </g>
    <g transform="translate(492,222)" style="font-size:14; stroke-linecap:butt; text-rendering:geometricPrecision; font-family:&apos;標楷體&apos;; stroke-linejoin:round; stroke-miterlimit:0;">
      <rect x="1" y="1" width="88" style="clip-path:url(#clipPath19); fill:none;" rx="15" ry="15" height="48" />
    </g>
    <g style="text-rendering:geometricPrecision; font-size:14; font-family:&apos;標楷體&apos;;" transform="translate(492,222)">
      <text x="17" y="32" style="clip-path:url(#clipPath20); stroke:none;" xml:space="preserve">品種辨識</text>
    </g>
    <g transform="translate(531,202)" style="font-size:11; stroke-linecap:butt; text-rendering:geometricPrecision; font-family:sans-serif; stroke-linejoin:round;">
      <line x1="50" x2="92" y1="50" style="clip-path:url(#clipPath24); fill:none;" y2="50" />
      <line x1="92" x2="80" y1="50" style="clip-path:url(#clipPath24); fill:none;" y2="44" />
      <line x1="92" x2="80" y1="50" style="clip-path:url(#clipPath24); fill:none;" y2="56" />
    </g>
    <g transform="translate(42,51)" style="font-size:11; stroke-linecap:butt; text-rendering:geometricPrecision; font-family:sans-serif; stroke-linejoin:round;">
      <line x1="50" x2="50" y1="50" style="clip-path:url(#clipPath25); fill:none;" y2="101" />
      <line x1="50" x2="56" y1="101" style="clip-path:url(#clipPath25); fill:none;" y2="89" />
      <line x1="50" x2="44" y1="101" style="clip-path:url(#clipPath25); fill:none;" y2="89" />
    </g>
    <g transform="translate(42,151)" style="font-size:11; stroke-linecap:butt; text-rendering:geometricPrecision; font-family:sans-serif; stroke-linejoin:round;">
      <line x1="50" x2="50" y1="50" style="clip-path:url(#clipPath26); fill:none;" y2="89" />
      <line x1="50" x2="56" y1="89" style="clip-path:url(#clipPath26); fill:none;" y2="77" />
      <line x1="50" x2="44" y1="89" style="clip-path:url(#clipPath26); fill:none;" y2="77" />
    </g>
    <g transform="translate(48,202)" style="font-size:11; stroke-linecap:butt; text-rendering:geometricPrecision; font-family:sans-serif; stroke-linejoin:round;">
      <line x1="50" x2="104" y1="50" style="clip-path:url(#clipPath27); fill:none;" y2="50" />
      <line x1="104" x2="92" y1="50" style="clip-path:url(#clipPath27); fill:none;" y2="44" />
      <line x1="104" x2="92" y1="50" style="clip-path:url(#clipPath27); fill:none;" y2="56" />
    </g>
    <g transform="translate(48,205)" style="font-size:14; stroke-linecap:butt; text-rendering:geometricPrecision; font-family:&apos;標楷體&apos;; stroke-linejoin:round;">
      <line x1="384" x2="384" y1="108" style="clip-path:url(#clipPath28); fill:none;" y2="187" />
      <line x1="384" x2="184" y1="187" style="clip-path:url(#clipPath28); fill:none;" y2="187" />
      <line x1="184" x2="114" y1="187" style="clip-path:url(#clipPath28); fill:none;" y2="87" />
      <line x1="114" x2="50" y1="87" style="clip-path:url(#clipPath28); fill:none;" y2="50" />
      <line x1="50" x2="57" y1="50" style="clip-path:url(#clipPath28); fill:none;" y2="61" />
      <line x1="50" x2="63" y1="50" style="clip-path:url(#clipPath28); fill:none;" y2="50" />
    </g>
    <g transform="translate(47,32)" style="font-size:14; stroke-linecap:butt; text-rendering:geometricPrecision; font-family:&apos;標楷體&apos;; stroke-linejoin:round;">
      <line x1="385" x2="385" y1="128" style="clip-path:url(#clipPath29); fill:none;" y2="50" />
      <line x1="385" x2="175" y1="50" style="clip-path:url(#clipPath29); fill:none;" y2="50" />
      <line x1="175" x2="115" y1="50" style="clip-path:url(#clipPath29); fill:none;" y2="170" />
      <line x1="115" x2="50" y1="170" style="clip-path:url(#clipPath29); fill:none;" y2="216" />
      <line x1="50" x2="63" y1="216" style="clip-path:url(#clipPath29); fill:none;" y2="214" />
      <line x1="50" x2="56" y1="216" style="clip-path:url(#clipPath29); fill:none;" y2="204" />
    </g>
    <g transform="translate(351,252)" style="font-size:11; stroke-linecap:butt; text-rendering:geometricPrecision; font-family:sans-serif; stroke-linejoin:round;">
      <line x1="50" x2="74" y1="50" style="clip-path:url(#clipPath30); fill:none;" y2="50" />
      <line x1="74" x2="62" y1="50" style="clip-path:url(#clipPath30); fill:none;" y2="44" />
      <line x1="74" x2="62" y1="50" style="clip-path:url(#clipPath30); fill:none;" y2="56" />
    </g>
    <g transform="translate(351,122)" style="font-size:11; stroke-linecap:butt; text-rendering:geometricPrecision; font-family:sans-serif; stroke-linejoin:round;">
      <line x1="50" x2="74" y1="50" style="clip-path:url(#clipPath30); fill:none;" y2="50" />
      <line x1="74" x2="62" y1="50" style="clip-path:url(#clipPath30); fill:none;" y2="44" />
      <line x1="74" x2="62" y1="50" style="clip-path:url(#clipPath30); fill:none;" y2="56" />
    </g>
    <g transform="translate(388,203)" style="font-size:14; stroke-linecap:butt; text-rendering:geometricPrecision; font-family:&apos;標楷體&apos;; stroke-linejoin:round;">
      <line x1="50" x2="64" y1="99" style="clip-path:url(#clipPath31); fill:none;" y2="99" />
      <line x1="64" x2="64" y1="99" style="clip-path:url(#clipPath31); fill:none;" y2="50" />
      <line x1="64" x2="58" y1="50" style="clip-path:url(#clipPath31); fill:none;" y2="62" />
      <line x1="64" x2="70" y1="50" style="clip-path:url(#clipPath31); fill:none;" y2="62" />
    </g>
    <g transform="translate(388,122)" style="font-size:14; stroke-linecap:butt; text-rendering:geometricPrecision; font-family:&apos;標楷體&apos;; stroke-linejoin:round;">
      <line x1="50" x2="64" y1="50" style="clip-path:url(#clipPath32); fill:none;" y2="50" />
      <line x1="64" x2="64" y1="50" style="clip-path:url(#clipPath32); fill:none;" y2="108" />
      <line x1="64" x2="70" y1="108" style="clip-path:url(#clipPath32); fill:none;" y2="96" />
      <line x1="64" x2="58" y1="108" style="clip-path:url(#clipPath32); fill:none;" y2="96" />
    </g>
    <g transform="translate(408,192)" style="font-size:11; stroke-linecap:butt; text-rendering:geometricPrecision; font-family:sans-serif; stroke-linejoin:round;">
      <line x1="50" x2="84" y1="50" style="clip-path:url(#clipPath33); fill:none;" y2="50" />
      <line x1="84" x2="72" y1="50" style="clip-path:url(#clipPath33); fill:none;" y2="44" />
      <line x1="84" x2="72" y1="50" style="clip-path:url(#clipPath33); fill:none;" y2="56" />
    </g>
    <g transform="translate(181,192)" style="font-size:11; stroke-linecap:butt; text-rendering:geometricPrecision; font-family:sans-serif; stroke-linejoin:round;">
      <line x1="50" x2="74" y1="50" style="clip-path:url(#clipPath30); fill:none;" y2="50" />
      <line x1="74" x2="62" y1="50" style="clip-path:url(#clipPath30); fill:none;" y2="44" />
      <line x1="74" x2="62" y1="50" style="clip-path:url(#clipPath30); fill:none;" y2="56" />
    </g>
    <g transform="translate(212,122)" style="font-size:11; stroke-linecap:butt; text-rendering:geometricPrecision; font-family:sans-serif; stroke-linejoin:round;">
      <line x1="50" x2="50" y1="108" style="clip-path:url(#clipPath34); fill:none;" y2="50" />
      <line x1="50" x2="70" y1="50" style="clip-path:url(#clipPath34); fill:none;" y2="50" />
      <line x1="70" x2="58" y1="50" style="clip-path:url(#clipPath34); fill:none;" y2="44" />
      <line x1="70" x2="58" y1="50" style="clip-path:url(#clipPath34); fill:none;" y2="56" />
    </g>
    <g transform="translate(212,203)" style="font-size:11; stroke-linecap:butt; text-rendering:geometricPrecision; font-family:sans-serif; stroke-linejoin:round;">
      <line x1="50" x2="50" y1="50" style="clip-path:url(#clipPath35); fill:none;" y2="99" />
      <line x1="50" x2="70" y1="99" style="clip-path:url(#clipPath35); fill:none;" y2="99" />
      <line x1="70" x2="58" y1="99" style="clip-path:url(#clipPath35); fill:none;" y2="93" />
      <line x1="70" x2="58" y1="99" style="clip-path:url(#clipPath35); fill:none;" y2="105" />
    </g>
    <g style="text-rendering:geometricPrecision; font-size:14; font-family:&apos;標楷體&apos;;" transform="translate(442,182)">
      <text x="10" y="16" style="clip-path:url(#clipPath36); stroke:none;" xml:space="preserve">[上傳成功]</text>
    </g>
    <g style="text-rendering:geometricPrecision; font-size:14; font-family:&apos;標楷體&apos;;" transform="translate(442,302)">
      <text x="10" y="16" style="clip-path:url(#clipPath36); stroke:none;" xml:space="preserve">[讀取成功]</text>
    </g>
    <g style="text-rendering:geometricPrecision; font-size:14; font-family:&apos;標楷體&apos;;" transform="translate(282,52)">
      <text x="10" y="16" style="clip-path:url(#clipPath36); stroke:none;" xml:space="preserve">[上傳失敗]</text>
    </g>
    <g style="text-rendering:geometricPrecision; font-size:14; font-family:&apos;標楷體&apos;;" transform="translate(262,402)">
      <text x="10" y="16" style="clip-path:url(#clipPath37); stroke:none;" xml:space="preserve">[無法讀取照片]</text>
    </g>
    <g style="fill:rgb(120,120,120); text-rendering:geometricPrecision; font-size:10; stroke:rgb(120,120,120);">
    </g>
  </g>
</svg>
